<?xml version="1.0" encoding="utf-8" standalone="no"?>
<!DOCTYPE svg PUBLIC "-//W3C//DTD SVG 1.1//EN"
  "http://www.w3.org/Graphics/SVG/1.1/DTD/svg11.dtd">
<svg xmlns:xlink="http://www.w3.org/1999/xlink" width="712.8pt" height="820.8pt" viewBox="0 0 712.8 820.8" xmlns="http://www.w3.org/2000/svg" version="1.1">
 <metadata>
  <rdf:RDF xmlns:dc="http://purl.org/dc/elements/1.1/" xmlns:cc="http://creativecommons.org/ns#" xmlns:rdf="http://www.w3.org/1999/02/22-rdf-syntax-ns#">
   <cc:Work>
    <dc:type rdf:resource="http://purl.org/dc/dcmitype/StillImage"/>
    <dc:date>2026-07-13T11:07:55.904469</dc:date>
    <dc:format>image/svg+xml</dc:format>
    <dc:creator>
     <cc:Agent>
      <dc:title>Matplotlib v3.11.0, https://matplotlib.org/</dc:title>
     </cc:Agent>
    </dc:creator>
   </cc:Work>
  </rdf:RDF>
 </metadata>
 <defs>
  <style type="text/css">*{stroke-linejoin: round; stroke-linecap: butt}</style>
 </defs>
 <g id="figure_1">
  <g id="patch_1">
   <path d="M 0 820.8 
L 712.8 820.8 
L 712.8 0 
L 0 0 
z
" style="fill: #ffffff"/>
  </g>
  <g id="axes_1">
   <g id="patch_2">
    <path d="M 111.96 739.530783 
L 624.12 739.530783 
Q 643.52 739.530783 643.52 722.69687 
L 643.52 163.810957 
Q 643.52 146.977043 624.12 146.977043 
L 111.96 146.977043 
Q 92.56 146.977043 92.56 163.810957 
L 92.56 722.69687 
Q 92.56 739.530783 111.96 739.530783 
z
" clip-path="url(#pc92e76cbd5)" style="fill: #e0e0e0; opacity: 0.35"/>
   </g>
   <g id="patch_3">
    <path d="M 100.32 729.430435 
L 612.48 729.430435 
Q 631.88 729.430435 631.88 712.596522 
L 631.88 153.710609 
Q 631.88 136.876696 612.48 136.876696 
L 100.32 136.876696 
Q 80.92 136.876696 80.92 153.710609 
L 80.92 712.596522 
Q 80.92 729.430435 100.32 729.430435 
z
" clip-path="url(#pc92e76cbd5)" style="fill: #fafafa; stroke: #616161; stroke-width: 2.5; stroke-linejoin: miter"/>
   </g>
   <g id="patch_4">
    <path d="M 169.384 236.533461 
L 543.416 236.533461 
Q 552.728 236.533461 552.728 228.453183 
L 552.728 193.438643 
Q 552.728 185.358365 543.416 185.358365 
L 169.384 185.358365 
Q 160.072 185.358365 160.072 193.438643 
L 160.072 228.453183 
Q 160.072 236.533461 169.384 236.533461 
z
" clip-path="url(#pc92e76cbd5)" style="fill: #e0f7fa; stroke: #00838f; stroke-width: 2; stroke-linejoin: miter"/>
   </g>
   <g id="patch_5">
    <path d="M 169.384 303.869113 
L 543.416 303.869113 
Q 552.728 303.869113 552.728 295.788835 
L 552.728 260.774296 
Q 552.728 252.694017 543.416 252.694017 
L 169.384 252.694017 
Q 160.072 252.694017 160.072 260.774296 
L 160.072 295.788835 
Q 160.072 303.869113 169.384 303.869113 
z
" clip-path="url(#pc92e76cbd5)" style="fill: #f3e5f5; stroke: #6a1b9a; stroke-width: 2; stroke-linejoin: miter"/>
   </g>
   <g id="patch_6">
    <path d="M 169.384 371.204765 
L 543.416 371.204765 
Q 552.728 371.204765 552.728 363.124487 
L 552.728 328.109948 
Q 552.728 320.02967 543.416 320.02967 
L 169.384 320.02967 
Q 160.072 320.02967 160.072 328.109948 
L 160.072 363.124487 
Q 160.072 371.204765 169.384 371.204765 
z
" clip-path="url(#pc92e76cbd5)" style="fill: #fff3e0; stroke: #ef6c00; stroke-width: 2; stroke-linejoin: miter"/>
   </g>
   <g id="patch_7">
    <path d="M 169.384 452.007548 
L 543.416 452.007548 
Q 552.728 452.007548 552.728 443.92727 
L 552.728 408.91273 
Q 552.728 400.832452 543.416 400.832452 
L 169.384 400.832452 
Q 160.072 400.832452 160.072 408.91273 
L 160.072 443.92727 
Q 160.072 452.007548 169.384 452.007548 
z
" clip-path="url(#pc92e76cbd5)" style="fill: #f5f5f5; stroke: #9e9e9e; stroke-width: 2; stroke-linejoin: miter"/>
   </g>
   <g id="patch_8">
    <path d="M 169.384 519.3432 
L 543.416 519.3432 
Q 552.728 519.3432 552.728 511.262922 
L 552.728 476.248383 
Q 552.728 468.168104 543.416 468.168104 
L 169.384 468.168104 
Q 160.072 468.168104 160.072 476.248383 
L 160.072 511.262922 
Q 160.072 519.3432 169.384 519.3432 
z
" clip-path="url(#pc92e76cbd5)" style="fill: #e0f7fa; stroke: #00838f; stroke-width: 2; stroke-linejoin: miter"/>
   </g>
   <g id="patch_9">
    <path d="M 169.384 586.678852 
L 543.416 586.678852 
Q 552.728 586.678852 552.728 578.598574 
L 552.728 543.584035 
Q 552.728 535.503757 543.416 535.503757 
L 169.384 535.503757 
Q 160.072 535.503757 160.072 543.584035 
L 160.072 578.598574 
Q 160.072 586.678852 169.384 586.678852 
z
" clip-path="url(#pc92e76cbd5)" style="fill: #f3e5f5; stroke: #6a1b9a; stroke-width: 2; stroke-linejoin: miter"/>
   </g>
   <g id="patch_10">
    <path d="M 169.384 654.014504 
L 543.416 654.014504 
Q 552.728 654.014504 552.728 645.934226 
L 552.728 610.919687 
Q 552.728 602.839409 543.416 602.839409 
L 169.384 602.839409 
Q 160.072 602.839409 160.072 610.919687 
L 160.072 645.934226 
Q 160.072 654.014504 169.384 654.014504 
z
" clip-path="url(#pc92e76cbd5)" style="fill: #fff3e0; stroke: #ef6c00; stroke-width: 2; stroke-linejoin: miter"/>
   </g>
   <g id="patch_11">
    <path d="M 169.384 734.817287 
L 543.416 734.817287 
Q 552.728 734.817287 552.728 726.737009 
L 552.728 691.72247 
Q 552.728 683.642191 543.416 683.642191 
L 169.384 683.642191 
Q 160.072 683.642191 160.072 691.72247 
L 160.072 726.737009 
Q 160.072 734.817287 169.384 734.817287 
z
" clip-path="url(#pc92e76cbd5)" style="fill: #f5f5f5; stroke: #9e9e9e; stroke-width: 2; stroke-linejoin: miter"/>
   </g>
   <g id="patch_12">
    <path d="M 245.432 115.329287 
L 467.368 115.329287 
Q 475.128 115.329287 475.128 108.595722 
L 475.128 70.887757 
Q 475.128 64.154191 467.368 64.154191 
L 245.432 64.154191 
Q 237.672 64.154191 237.672 70.887757 
L 237.672 108.595722 
Q 237.672 115.329287 245.432 115.329287 
z
" clip-path="url(#pc92e76cbd5)" style="fill: #e3f2fd; stroke: #1565c0; stroke-width: 2; stroke-linejoin: miter"/>
   </g>
   <g id="patch_13">
    <path d="M 245.432 781.952243 
L 467.368 781.952243 
Q 475.128 781.952243 475.128 775.218678 
L 475.128 737.510713 
Q 475.128 730.777148 467.368 730.777148 
L 245.432 730.777148 
Q 237.672 730.777148 237.672 737.510713 
L 237.672 775.218678 
Q 237.672 781.952243 245.432 781.952243 
z
" clip-path="url(#pc92e76cbd5)" style="fill: #e8f5e9; stroke: #2e7d32; stroke-width: 2; stroke-linejoin: miter"/>
   </g>
   <g id="text_1">
    <!-- TransformerBlock -->
    <g style="fill: #424242" transform="translate(295.313672 130.14313) scale(0.15 -0.15)">
     <defs>
      <path id="STHeitiSC-Medium-36" d="M 2669 4531 
L 1645 4531 
L 1645 384 
L 1088 384 
L 1088 4531 
L 58 4531 
L 58 5069 
L 2669 5069 
L 2669 4531 
z
" transform="scale(0.015625)"/>
      <path id="STHeitiSC-Medium-54" d="M 1914 3821 
L 1638 3373 
Q 1530 3430 1427 3430 
Q 1229 3430 1069 3235 
Q 909 3040 829 2723 
Q 749 2406 749 1581 
L 749 384 
L 211 384 
L 211 3872 
L 749 3872 
L 749 3494 
Q 909 3731 1072 3846 
Q 1235 3962 1443 3962 
Q 1651 3962 1914 3821 
z
" transform="scale(0.015625)"/>
      <path id="STHeitiSC-Medium-43" d="M 3917 384 
L 3398 384 
L 3398 896 
Q 2829 269 2086 269 
Q 1344 269 816 816 
Q 288 1363 288 2121 
Q 288 2880 819 3421 
Q 1350 3962 2115 3962 
Q 2880 3962 3398 3341 
L 3398 3872 
L 3917 3872 
L 3917 384 
z
M 2125 762 
Q 2656 762 3040 1146 
Q 3424 1530 3424 2102 
Q 3424 2675 3046 3062 
Q 2669 3450 2121 3450 
Q 1574 3450 1196 3050 
Q 819 2650 819 2106 
Q 819 1562 1203 1162 
Q 1587 762 2125 762 
z
" transform="scale(0.015625)"/>
      <path id="STHeitiSC-Medium-50" d="M 3501 384 
L 2976 384 
L 2976 2048 
Q 2976 2624 2921 2832 
Q 2867 3040 2761 3184 
Q 2656 3328 2493 3398 
Q 2330 3469 2096 3469 
Q 1862 3469 1638 3353 
Q 1414 3238 1254 3033 
Q 1094 2829 1033 2598 
Q 973 2368 973 1677 
L 973 384 
L 442 384 
L 442 3872 
L 973 3872 
L 973 3347 
Q 1491 3962 2202 3962 
Q 2579 3962 2886 3766 
Q 3194 3571 3347 3228 
Q 3501 2886 3501 2176 
L 3501 384 
z
" transform="scale(0.015625)"/>
      <path id="STHeitiSC-Medium-55" d="M 2259 3462 
L 1920 3110 
Q 1542 3462 1229 3462 
Q 1030 3462 896 3337 
Q 762 3213 762 3030 
Q 762 2848 912 2710 
Q 1062 2573 1446 2371 
Q 1830 2170 2038 1926 
Q 2246 1683 2246 1331 
Q 2246 883 1936 576 
Q 1626 269 1171 269 
Q 538 269 115 806 
L 448 1178 
Q 794 774 1152 774 
Q 1395 774 1568 934 
Q 1741 1094 1741 1308 
Q 1741 1523 1584 1667 
Q 1427 1811 1046 2003 
Q 666 2195 470 2428 
Q 275 2662 275 3043 
Q 275 3424 553 3693 
Q 832 3962 1289 3962 
Q 1747 3962 2259 3462 
z
" transform="scale(0.015625)"/>
      <path id="STHeitiSC-Medium-48" d="M 1933 4557 
Q 1626 4685 1453 4685 
Q 1280 4685 1229 4573 
Q 1178 4461 1178 4198 
L 1178 3872 
L 1888 3872 
L 1888 3411 
L 1178 3411 
L 1178 384 
L 646 384 
L 646 3411 
L 205 3411 
L 205 3872 
L 646 3872 
L 646 4269 
Q 646 4742 822 4963 
Q 998 5184 1376 5184 
Q 1581 5184 1933 5088 
L 1933 4557 
z
" transform="scale(0.015625)"/>
      <path id="STHeitiSC-Medium-51" d="M 2099 3962 
Q 2854 3962 3382 3418 
Q 3910 2874 3910 2112 
Q 3910 1350 3388 809 
Q 2867 269 2099 269 
Q 1331 269 806 809 
Q 282 1350 282 2112 
Q 282 2874 810 3418 
Q 1338 3962 2099 3962 
z
M 2099 774 
Q 2630 774 3004 1161 
Q 3379 1549 3379 2096 
Q 3379 2643 2998 3043 
Q 2618 3443 2096 3443 
Q 1574 3443 1196 3043 
Q 819 2643 819 2092 
Q 819 1542 1184 1158 
Q 1549 774 2099 774 
z
" transform="scale(0.015625)"/>
      <path id="STHeitiSC-Medium-4f" d="M 5613 384 
L 5075 384 
L 5075 2285 
Q 5075 2739 5020 2950 
Q 4966 3162 4784 3306 
Q 4602 3450 4304 3450 
Q 4006 3450 3744 3258 
Q 3482 3066 3379 2736 
Q 3277 2406 3277 1760 
L 3277 384 
L 2758 384 
L 2758 2170 
Q 2758 2694 2704 2924 
Q 2650 3155 2464 3302 
Q 2278 3450 1996 3450 
Q 1715 3450 1462 3274 
Q 1210 3098 1088 2813 
Q 966 2528 966 1869 
L 966 384 
L 442 384 
L 442 3872 
L 966 3872 
L 966 3379 
Q 1414 3962 2086 3962 
Q 2451 3962 2748 3766 
Q 3046 3571 3174 3213 
Q 3392 3578 3718 3770 
Q 4045 3962 4410 3962 
Q 4909 3962 5261 3610 
Q 5613 3258 5613 2285 
L 5613 384 
z
" transform="scale(0.015625)"/>
      <path id="STHeitiSC-Medium-47" d="M 3878 2035 
L 819 2035 
Q 851 1459 1206 1110 
Q 1562 762 2054 762 
Q 2893 762 3334 1587 
L 3782 1357 
Q 3482 800 3072 534 
Q 2662 269 2093 269 
Q 1306 269 794 809 
Q 282 1350 282 2112 
Q 282 2874 797 3418 
Q 1312 3962 2073 3962 
Q 2835 3962 3347 3446 
Q 3859 2931 3878 2035 
z
M 3290 2502 
Q 3194 2950 2854 3200 
Q 2515 3450 2074 3450 
Q 1178 3450 883 2502 
L 3290 2502 
z
" transform="scale(0.015625)"/>
      <path id="STHeitiSC-Medium-24" d="M 2470 2950 
Q 2918 2784 3145 2477 
Q 3373 2170 3373 1747 
Q 3373 1158 2947 771 
Q 2522 384 1837 384 
L 525 384 
L 525 5069 
L 1478 5069 
Q 2221 5069 2608 4765 
Q 2995 4461 2995 3898 
Q 2995 3283 2470 2950 
z
M 1069 3149 
L 1286 3149 
Q 1862 3149 2147 3328 
Q 2432 3507 2432 3898 
Q 2432 4531 1555 4531 
L 1069 4531 
L 1069 3149 
z
M 1069 922 
L 1594 922 
Q 2086 922 2310 1018 
Q 2534 1114 2668 1312 
Q 2803 1510 2803 1715 
Q 2803 1920 2723 2077 
Q 2643 2234 2486 2355 
Q 2330 2477 2102 2537 
Q 1875 2598 1280 2598 
L 1069 2598 
L 1069 922 
z
" transform="scale(0.015625)"/>
      <path id="STHeitiSC-Medium-4e" d="M 902 384 
L 378 384 
L 378 5184 
L 902 5184 
L 902 384 
z
" transform="scale(0.015625)"/>
      <path id="STHeitiSC-Medium-45" d="M 3853 1094 
Q 3578 691 3133 480 
Q 2688 269 2170 269 
Q 1363 269 822 800 
Q 282 1331 282 2099 
Q 282 2867 826 3414 
Q 1370 3962 2234 3962 
Q 2746 3962 3178 3738 
Q 3610 3514 3853 3110 
L 3437 2848 
Q 2970 3456 2214 3456 
Q 1619 3456 1216 3075 
Q 813 2694 813 2131 
Q 813 1568 1209 1165 
Q 1606 762 2214 762 
Q 2944 762 3443 1376 
L 3853 1094 
z
" transform="scale(0.015625)"/>
      <path id="STHeitiSC-Medium-4d" d="M 3181 384 
L 2419 384 
L 781 1856 
L 781 384 
L 250 384 
L 250 5184 
L 781 5184 
L 781 2554 
L 2285 3866 
L 3072 3872 
L 1152 2208 
L 3181 384 
z
" transform="scale(0.015625)"/>
     </defs>
     <use xlink:href="#STHeitiSC-Medium-36"/>
     <use xlink:href="#STHeitiSC-Medium-54" transform="translate(42.59375 0)"/>
     <use xlink:href="#STHeitiSC-Medium-43" transform="translate(72.6875 0)"/>
     <use xlink:href="#STHeitiSC-Medium-50" transform="translate(140.984375 0)"/>
     <use xlink:href="#STHeitiSC-Medium-55" transform="translate(201.984375 0)"/>
     <use xlink:href="#STHeitiSC-Medium-48" transform="translate(240.78125 0)"/>
     <use xlink:href="#STHeitiSC-Medium-51" transform="translate(272.1875 0)"/>
     <use xlink:href="#STHeitiSC-Medium-54" transform="translate(337.6875 0)"/>
     <use xlink:href="#STHeitiSC-Medium-4f" transform="translate(367.78125 0)"/>
     <use xlink:href="#STHeitiSC-Medium-47" transform="translate(461.578125 0)"/>
     <use xlink:href="#STHeitiSC-Medium-54" transform="translate(526.578125 0)"/>
     <use xlink:href="#STHeitiSC-Medium-24" transform="translate(556.671875 0)"/>
     <use xlink:href="#STHeitiSC-Medium-4e" transform="translate(614.078125 0)"/>
     <use xlink:href="#STHeitiSC-Medium-51" transform="translate(634.078125 0)"/>
     <use xlink:href="#STHeitiSC-Medium-45" transform="translate(699.578125 0)"/>
     <use xlink:href="#STHeitiSC-Medium-4d" transform="translate(764.28125 0)"/>
    </g>
   </g>
   <g id="text_2">
    <!-- 序列并行下数据流 -->
    <g style="fill: #757575" transform="translate(316.4 157.077391) scale(0.1 -0.1)">
     <defs>
      <path id="STHeitiSC-Medium-6d6" d="M 4723 3085 
L 3360 3085 
Q 3200 3085 3033 3081 
Q 2867 3078 2713 3075 
Q 2560 3072 2429 3062 
Q 2298 3053 2202 3040 
L 2202 3558 
Q 2406 3533 2844 3517 
Q 3283 3501 3885 3501 
Q 4474 3501 4918 3517 
Q 5363 3533 5574 3558 
L 5574 3021 
Q 5491 3014 5385 2976 
Q 5280 2938 5113 2842 
Q 4947 2746 4704 2582 
Q 4461 2419 4109 2163 
Q 4154 2125 4192 2080 
Q 4230 2035 4262 1990 
Q 4550 1990 4793 1993 
Q 5037 1997 5245 2003 
Q 5453 2010 5638 2022 
Q 5824 2035 6003 2054 
L 5594 858 
L 5037 960 
L 5293 1568 
L 4147 1568 
L 4147 -192 
Q 4147 -307 4092 -403 
Q 4038 -499 3910 -566 
Q 3782 -634 3561 -672 
Q 3341 -710 3014 -717 
Q 3002 -582 2938 -406 
Q 2874 -230 2752 -70 
Q 3027 -102 3200 -105 
Q 3373 -109 3462 -86 
Q 3552 -64 3584 -13 
Q 3616 38 3616 109 
L 3616 1568 
Q 2957 1568 2534 1555 
Q 2112 1542 1843 1530 
L 1843 2042 
Q 1971 2029 2166 2022 
Q 2362 2016 2598 2006 
Q 2835 1997 3100 1993 
Q 3366 1990 3635 1990 
Q 3514 2138 3334 2291 
Q 3155 2445 2989 2541 
L 3283 2874 
Q 3533 2726 3827 2438 
L 4723 3085 
z
M 3386 4493 
Q 3341 4659 3283 4822 
Q 3226 4986 3155 5133 
L 3763 5254 
Q 3821 5069 3875 4873 
Q 3930 4678 3981 4493 
Q 4461 4493 4806 4499 
Q 5152 4506 5392 4512 
Q 5632 4518 5789 4531 
Q 5946 4544 6054 4557 
L 6054 3981 
Q 5830 4006 5398 4016 
Q 4966 4026 4397 4026 
L 1587 4026 
Q 1587 3296 1577 2742 
Q 1568 2189 1542 1769 
Q 1517 1350 1472 1030 
Q 1427 710 1350 444 
Q 1274 179 1168 -57 
Q 1062 -294 915 -550 
Q 787 -448 659 -371 
Q 531 -294 346 -256 
Q 512 -19 637 211 
Q 762 442 842 714 
Q 922 986 966 1328 
Q 1011 1670 1024 2124 
Q 1037 2579 1021 3174 
Q 1005 3770 966 4557 
Q 1158 4538 1376 4528 
Q 1594 4518 1872 4508 
Q 2150 4499 2518 4496 
Q 2886 4493 3386 4493 
z
" transform="scale(0.015625)"/>
      <path id="STHeitiSC-Medium-509" d="M 5837 4954 
Q 5792 4922 5779 4886 
Q 5766 4851 5766 4762 
L 5766 250 
Q 5766 6 5734 -147 
Q 5702 -301 5590 -397 
Q 5478 -493 5264 -553 
Q 5050 -614 4678 -678 
Q 4627 -346 4352 6 
Q 4653 -6 4829 0 
Q 5005 6 5097 51 
Q 5190 96 5216 179 
Q 5242 262 5242 397 
L 5242 4070 
Q 5242 4448 5232 4713 
Q 5222 4979 5210 5133 
Q 5338 5107 5501 5094 
Q 5664 5082 5779 5088 
Q 5875 5094 5888 5052 
Q 5901 5011 5837 4954 
z
M 4614 4154 
Q 4544 4109 4544 3949 
L 4544 1747 
Q 4544 1555 4550 1356 
Q 4557 1158 4576 934 
L 4013 934 
Q 4026 1171 4032 1363 
Q 4038 1555 4038 1747 
L 4038 3590 
Q 4038 3834 4032 4003 
Q 4026 4173 4013 4301 
Q 4160 4275 4310 4272 
Q 4461 4269 4582 4282 
Q 4666 4294 4675 4249 
Q 4685 4205 4614 4154 
z
M 3507 3379 
Q 3424 2656 3264 2067 
Q 3104 1478 2886 1062 
Q 2778 864 2602 643 
Q 2426 422 2198 208 
Q 1971 -6 1705 -208 
Q 1440 -410 1165 -576 
Q 1133 -531 1075 -467 
Q 1018 -403 950 -339 
Q 883 -275 812 -220 
Q 742 -166 691 -134 
Q 890 -58 1114 70 
Q 1338 198 1555 358 
Q 1773 518 1965 700 
Q 2157 883 2291 1069 
Q 2221 1146 2125 1248 
Q 2029 1350 1923 1449 
Q 1818 1549 1709 1641 
Q 1600 1734 1517 1798 
L 1888 2163 
Q 2061 2022 2224 1878 
Q 2387 1734 2560 1568 
Q 2637 1728 2691 1872 
Q 2746 2016 2790 2169 
Q 2835 2323 2867 2502 
Q 2899 2682 2931 2912 
L 1894 2912 
Q 1811 2714 1702 2506 
Q 1594 2298 1472 2096 
Q 1350 1894 1219 1708 
Q 1088 1523 966 1382 
Q 877 1491 752 1574 
Q 627 1658 493 1696 
Q 736 1907 941 2188 
Q 1146 2470 1306 2796 
Q 1466 3123 1571 3481 
Q 1677 3840 1728 4205 
Q 1363 4198 1097 4185 
Q 832 4173 608 4147 
L 608 4730 
Q 896 4698 1261 4682 
Q 1626 4666 2163 4666 
Q 2707 4666 3068 4682 
Q 3430 4698 3718 4730 
L 3718 4147 
Q 3443 4179 3097 4195 
Q 2752 4211 2246 4211 
Q 2202 3821 2054 3379 
L 3507 3379 
z
" transform="scale(0.015625)"/>
      <path id="STHeitiSC-Medium-2c4" d="M 2163 4000 
Q 2054 4256 1942 4454 
Q 1830 4653 1664 4858 
L 2234 5133 
Q 2342 4909 2460 4704 
Q 2579 4499 2758 4250 
L 2163 4000 
z
M 2093 3475 
Q 1933 3469 1753 3465 
Q 1574 3462 1401 3456 
Q 1229 3450 1075 3440 
Q 922 3430 813 3418 
L 813 3949 
Q 954 3936 1168 3923 
Q 1382 3910 1612 3904 
Q 1843 3898 2060 3894 
Q 2278 3891 2438 3891 
L 3539 3891 
Q 3654 4128 3734 4307 
Q 3814 4486 3868 4636 
Q 3923 4787 3948 4915 
Q 3974 5043 3987 5178 
Q 4058 5133 4154 5094 
Q 4250 5056 4349 5027 
Q 4448 4998 4544 4982 
Q 4640 4966 4704 4960 
Q 4787 4954 4790 4915 
Q 4794 4877 4704 4832 
Q 4659 4813 4598 4758 
Q 4538 4704 4451 4595 
Q 4365 4486 4246 4316 
Q 4128 4147 3968 3891 
Q 4378 3898 4643 3901 
Q 4909 3904 5094 3910 
Q 5280 3917 5411 3926 
Q 5542 3936 5683 3949 
L 5683 3418 
Q 5568 3430 5411 3440 
Q 5254 3450 5078 3456 
Q 4902 3462 4720 3468 
Q 4538 3475 4378 3475 
L 4378 1965 
Q 4563 1965 4787 1968 
Q 5011 1971 5235 1980 
Q 5459 1990 5670 2003 
Q 5882 2016 6048 2029 
L 6048 1466 
Q 5882 1478 5670 1488 
Q 5459 1498 5235 1504 
Q 5011 1510 4787 1513 
Q 4563 1517 4378 1517 
L 4378 550 
Q 4378 269 4394 -60 
Q 4410 -390 4435 -730 
L 3827 -730 
Q 3853 -390 3865 -60 
Q 3878 269 3878 550 
L 3878 1517 
L 2579 1517 
Q 2547 1184 2444 896 
Q 2342 608 2150 349 
Q 1958 90 1670 -150 
Q 1382 -390 973 -627 
Q 883 -480 771 -387 
Q 659 -294 467 -218 
Q 890 -51 1181 134 
Q 1472 320 1661 531 
Q 1850 742 1946 988 
Q 2042 1235 2074 1517 
Q 1882 1517 1654 1513 
Q 1427 1510 1193 1504 
Q 960 1498 739 1488 
Q 518 1478 352 1466 
L 352 2029 
Q 512 2016 733 2003 
Q 954 1990 1190 1980 
Q 1427 1971 1664 1968 
Q 1901 1965 2093 1965 
L 2093 3475 
z
M 2598 3475 
L 2598 1965 
L 3878 1965 
L 3878 3475 
L 2598 3475 
z
" transform="scale(0.015625)"/>
      <path id="STHeitiSC-Medium-1c4" d="M 2266 4749 
Q 2355 4710 2348 4672 
Q 2342 4634 2253 4614 
Q 2221 4608 2176 4582 
Q 2131 4557 2064 4499 
Q 1997 4442 1904 4339 
Q 1811 4237 1683 4083 
Q 1626 4013 1523 3904 
Q 1421 3795 1299 3673 
Q 1178 3552 1050 3433 
Q 922 3315 826 3226 
Q 755 3334 649 3427 
Q 544 3520 435 3584 
Q 678 3750 873 3955 
Q 1069 4160 1254 4416 
Q 1421 4627 1526 4800 
Q 1632 4973 1702 5120 
Q 1760 5069 1833 5014 
Q 1907 4960 1987 4909 
Q 2067 4858 2140 4813 
Q 2214 4768 2266 4749 
z
M 5683 4096 
Q 5440 4128 5120 4141 
Q 4800 4154 4358 4154 
Q 3917 4154 3593 4141 
Q 3270 4128 3027 4096 
L 3027 4685 
Q 3270 4653 3593 4643 
Q 3917 4634 4358 4634 
Q 4800 4634 5120 4643 
Q 5440 4653 5683 4685 
L 5683 4096 
z
M 4960 64 
Q 4960 -122 4918 -250 
Q 4877 -378 4742 -461 
Q 4608 -544 4361 -585 
Q 4115 -627 3706 -646 
Q 3693 -493 3622 -339 
Q 3552 -186 3405 26 
Q 3712 -13 3907 -9 
Q 4102 -6 4211 29 
Q 4320 64 4361 125 
Q 4403 186 4403 262 
L 4403 2509 
Q 3795 2509 3385 2493 
Q 2976 2477 2656 2451 
L 2656 3040 
Q 2816 3027 2998 3017 
Q 3181 3008 3392 3001 
Q 3603 2995 3856 2992 
Q 4109 2989 4410 2989 
Q 4710 2989 4950 2992 
Q 5190 2995 5388 3001 
Q 5587 3008 5756 3017 
Q 5926 3027 6093 3040 
L 6093 2451 
Q 5843 2477 5580 2486 
Q 5318 2496 4960 2502 
L 4960 64 
z
M 1773 -640 
L 1184 -640 
Q 1216 -371 1229 -131 
Q 1242 109 1242 390 
L 1242 1830 
Q 1101 1670 957 1516 
Q 813 1363 678 1216 
Q 570 1466 307 1696 
Q 570 1894 842 2172 
Q 1114 2451 1318 2752 
Q 1498 3014 1626 3222 
Q 1754 3430 1850 3635 
Q 1907 3590 1977 3539 
Q 2048 3488 2121 3440 
Q 2195 3392 2265 3350 
Q 2336 3309 2387 3283 
Q 2470 3238 2467 3203 
Q 2464 3168 2374 3149 
Q 2336 3136 2173 2979 
Q 2010 2822 1773 2496 
L 1773 -640 
z
" transform="scale(0.015625)"/>
      <path id="STHeitiSC-Medium-12a" d="M 5139 1184 
Q 4954 1421 4778 1625 
Q 4602 1830 4416 2016 
Q 4230 2202 4022 2378 
Q 3814 2554 3571 2726 
L 3994 3123 
Q 4314 2874 4547 2678 
Q 4781 2483 4973 2313 
Q 5165 2144 5328 1981 
Q 5491 1818 5664 1632 
L 5139 1184 
z
M 3296 397 
Q 3296 250 3299 134 
Q 3302 19 3305 -96 
Q 3309 -211 3318 -336 
Q 3328 -461 3347 -621 
L 2675 -621 
Q 2688 -467 2694 -342 
Q 2701 -218 2707 -102 
Q 2714 13 2714 131 
Q 2714 250 2714 397 
L 2714 4083 
Q 2336 4083 2019 4076 
Q 1702 4070 1427 4064 
Q 1152 4058 915 4045 
Q 678 4032 461 4019 
L 461 4646 
Q 717 4627 998 4617 
Q 1280 4608 1613 4598 
Q 1946 4589 2336 4585 
Q 2726 4582 3200 4582 
Q 3667 4582 4060 4585 
Q 4454 4589 4787 4598 
Q 5120 4608 5405 4617 
Q 5690 4627 5939 4646 
L 5939 4019 
Q 5696 4038 5421 4048 
Q 5146 4058 4822 4067 
Q 4499 4077 4121 4080 
Q 3744 4083 3296 4083 
L 3296 397 
z
" transform="scale(0.015625)"/>
      <path id="STHeitiSC-Medium-33e" d="M 3046 2413 
Q 2918 2560 2774 2713 
Q 2630 2867 2464 3014 
L 2790 3264 
Q 2970 3110 3104 2979 
Q 3238 2848 3360 2726 
L 3046 2413 
z
M 973 4090 
Q 966 4237 947 4397 
Q 928 4557 883 4742 
L 1389 4806 
Q 1434 4640 1462 4477 
Q 1491 4314 1510 4166 
L 973 4090 
z
M 3386 4634 
Q 3322 4608 3242 4477 
Q 3162 4346 3014 4058 
Q 2944 4077 2832 4093 
Q 2720 4109 2560 4122 
Q 2669 4288 2733 4451 
Q 2797 4614 2861 4858 
Q 2995 4813 3142 4777 
Q 3290 4742 3386 4730 
Q 3456 4717 3459 4691 
Q 3462 4666 3386 4634 
z
M 4627 1299 
Q 4813 1722 4931 2288 
Q 5050 2854 5088 3642 
L 4352 3642 
Q 4288 3437 4192 3225 
Q 4096 3014 3981 2810 
L 4384 2822 
Q 4384 2342 4441 1961 
Q 4499 1581 4627 1299 
z
M 4640 416 
Q 4416 166 4064 -70 
Q 3712 -307 3194 -531 
Q 3136 -429 3037 -313 
Q 2938 -198 2803 -90 
Q 3008 -45 3229 41 
Q 3450 128 3658 246 
Q 3866 365 4048 512 
Q 4230 659 4365 826 
Q 4262 1011 4192 1212 
Q 4122 1414 4074 1651 
Q 4026 1888 3997 2163 
Q 3968 2438 3962 2771 
Q 3744 2394 3520 2112 
Q 3366 2355 3206 2458 
Q 3398 2720 3561 3037 
Q 3725 3354 3846 3699 
Q 3968 4045 4045 4403 
Q 4122 4762 4147 5107 
Q 4294 5056 4486 5021 
Q 4678 4986 4800 4973 
Q 4870 4966 4880 4924 
Q 4890 4883 4781 4832 
Q 4768 4826 4745 4797 
Q 4723 4768 4691 4688 
Q 4659 4608 4608 4461 
Q 4557 4314 4480 4064 
L 5216 4064 
Q 5498 4064 5690 4077 
Q 5882 4090 6003 4115 
L 6003 3597 
Q 5850 3616 5562 3635 
Q 5530 3110 5472 2688 
Q 5414 2266 5337 1923 
Q 5261 1581 5158 1315 
Q 5056 1050 4934 832 
Q 5114 627 5386 476 
Q 5658 326 6112 186 
Q 5958 38 5881 -112 
Q 5805 -262 5754 -429 
Q 5523 -288 5350 -176 
Q 5178 -64 5046 35 
Q 4915 134 4819 227 
Q 4723 320 4640 416 
z
M 2899 691 
Q 3046 640 3180 585 
Q 3315 531 3450 461 
Q 3347 352 3286 269 
Q 3226 186 3168 64 
Q 3040 134 2912 201 
Q 2784 269 2637 326 
Q 2496 179 2323 67 
Q 2150 -45 1926 -137 
Q 1702 -230 1417 -310 
Q 1133 -390 781 -474 
Q 717 -346 595 -198 
Q 474 -51 346 45 
Q 934 58 1392 157 
Q 1850 256 2157 493 
Q 1914 563 1635 617 
Q 1357 672 1030 717 
Q 1146 922 1235 1104 
Q 1325 1286 1408 1491 
Q 1107 1485 899 1475 
Q 691 1466 531 1440 
L 531 1901 
Q 698 1888 960 1878 
Q 1222 1869 1536 1862 
Q 1574 1984 1612 2115 
Q 1651 2246 1696 2394 
Q 1843 2336 1955 2310 
Q 2067 2285 2214 2272 
Q 2342 2259 2345 2233 
Q 2349 2208 2253 2144 
Q 2189 2099 2144 2038 
Q 2099 1978 2035 1862 
L 2899 1862 
Q 3162 1862 3341 1907 
Q 3232 1510 3129 1212 
Q 3027 915 2899 691 
z
M 1626 979 
Q 1869 941 2077 902 
Q 2285 864 2470 819 
Q 2662 1101 2726 1491 
L 1862 1491 
L 1626 979 
z
M 1549 3462 
Q 1254 3456 1017 3446 
Q 781 3437 589 3424 
L 589 3878 
Q 832 3859 1139 3846 
Q 1446 3834 1850 3834 
L 1850 4435 
Q 1850 4614 1834 4774 
Q 1818 4934 1786 5101 
Q 1933 5088 2073 5081 
Q 2214 5075 2362 5075 
Q 2451 5075 2460 5033 
Q 2470 4992 2406 4966 
Q 2349 4941 2333 4905 
Q 2317 4870 2317 4781 
L 2317 3834 
Q 2675 3840 2995 3853 
Q 3315 3866 3507 3878 
L 3507 3424 
Q 3328 3437 3005 3449 
Q 2682 3462 2317 3469 
Q 2317 3174 2326 2937 
Q 2336 2701 2362 2451 
L 1805 2451 
Q 1824 2682 1837 2899 
Q 1850 3117 1850 3392 
Q 1734 3162 1625 2992 
Q 1517 2822 1392 2678 
Q 1267 2534 1113 2403 
Q 960 2272 755 2125 
Q 685 2234 573 2326 
Q 461 2419 282 2509 
Q 666 2630 1002 2896 
Q 1338 3162 1549 3462 
z
" transform="scale(0.015625)"/>
      <path id="STHeitiSC-Medium-5aa" d="M 3021 3648 
L 5229 3648 
L 5229 4314 
L 3021 4314 
L 3021 3648 
z
M 1222 3181 
Q 960 3181 774 3168 
Q 589 3155 442 3123 
L 442 3667 
Q 589 3635 774 3625 
Q 960 3616 1222 3616 
Q 1222 4000 1219 4233 
Q 1216 4467 1209 4614 
Q 1203 4762 1187 4854 
Q 1171 4947 1146 5050 
Q 1318 5018 1443 5008 
Q 1568 4998 1702 5005 
Q 2010 5018 1798 4845 
Q 1728 4794 1705 4746 
Q 1683 4698 1683 4614 
L 1683 3622 
Q 1843 3629 1968 3638 
Q 2093 3648 2202 3667 
L 2202 3123 
Q 2093 3142 1968 3155 
Q 1843 3168 1683 3174 
L 1683 2291 
Q 1965 2413 2234 2560 
Q 2227 2413 2246 2278 
Q 2266 2144 2304 2042 
Q 2157 1997 2000 1945 
Q 1843 1894 1683 1830 
L 1683 122 
Q 1683 -77 1660 -198 
Q 1638 -320 1545 -397 
Q 1453 -474 1261 -528 
Q 1069 -582 730 -640 
Q 717 -467 662 -316 
Q 608 -166 461 26 
Q 883 -45 1052 6 
Q 1222 58 1222 205 
L 1222 1632 
Q 787 1421 474 1178 
Q 461 1325 435 1504 
Q 410 1683 358 1856 
Q 826 1978 1222 2112 
L 1222 3181 
z
M 5184 1082 
L 3731 1082 
L 3731 141 
L 5184 141 
L 5184 1082 
z
M 4621 1459 
Q 4870 1459 5046 1462 
Q 5222 1466 5347 1469 
Q 5472 1472 5558 1481 
Q 5645 1491 5715 1504 
Q 5690 1395 5683 1267 
Q 5677 1139 5677 966 
L 5677 96 
Q 5677 -77 5686 -227 
Q 5696 -378 5722 -544 
L 5184 -544 
L 5184 -282 
L 3731 -282 
L 3731 -614 
L 3194 -614 
Q 3226 -448 3232 -294 
Q 3238 -141 3238 32 
L 3238 966 
Q 3238 1120 3228 1257 
Q 3219 1395 3200 1504 
Q 3277 1491 3357 1484 
Q 3437 1478 3545 1475 
Q 3654 1472 3801 1465 
Q 3949 1459 4160 1459 
L 4160 2150 
Q 3808 2144 3555 2131 
Q 3302 2118 3091 2086 
L 3091 2605 
Q 3309 2579 3558 2566 
Q 3808 2554 4160 2547 
L 4160 3238 
L 3021 3238 
Q 3021 2752 3008 2365 
Q 2995 1978 2960 1654 
Q 2925 1331 2870 1056 
Q 2816 781 2729 525 
Q 2643 269 2524 9 
Q 2406 -250 2246 -538 
Q 2150 -461 2022 -409 
Q 1894 -358 1734 -346 
Q 1920 -70 2057 202 
Q 2195 474 2291 774 
Q 2387 1075 2441 1417 
Q 2496 1760 2515 2170 
Q 2528 2387 2531 2684 
Q 2534 2982 2531 3328 
Q 2528 3674 2518 4045 
Q 2509 4416 2490 4774 
Q 2573 4755 2678 4742 
Q 2784 4730 2957 4720 
Q 3130 4710 3392 4707 
Q 3654 4704 4051 4704 
Q 4435 4704 4716 4710 
Q 4998 4717 5196 4726 
Q 5395 4736 5526 4749 
Q 5658 4762 5734 4774 
Q 5715 4614 5702 4403 
Q 5690 4192 5690 3968 
Q 5690 3744 5699 3571 
Q 5709 3398 5734 3174 
Q 5568 3206 5286 3222 
Q 5005 3238 4621 3238 
L 4621 2547 
Q 5536 2547 6035 2605 
L 6035 2086 
Q 5786 2118 5437 2134 
Q 5088 2150 4621 2150 
L 4621 1459 
z
" transform="scale(0.015625)"/>
      <path id="STHeitiSC-Medium-239" d="M 3654 4442 
Q 3622 4627 3571 4790 
Q 3520 4954 3437 5094 
L 4096 5197 
Q 4096 5114 4125 4938 
Q 4154 4762 4224 4442 
Q 4806 4442 5212 4454 
Q 5619 4467 5824 4493 
L 5824 3942 
Q 5594 3974 5174 3987 
Q 4755 4000 4019 4000 
Q 3552 4000 3222 3997 
Q 2893 3994 2659 3987 
Q 2426 3981 2272 3968 
Q 2118 3955 1997 3936 
L 1997 4499 
Q 2240 4467 2646 4457 
Q 3053 4448 3654 4442 
z
M 2957 2022 
Q 2950 2016 2944 1984 
Q 2938 1952 2938 1869 
Q 2938 1786 2938 1635 
Q 2938 1485 2938 1242 
Q 2944 659 2681 211 
Q 2419 -237 1882 -640 
Q 1811 -518 1708 -428 
Q 1606 -339 1408 -250 
Q 1837 -83 2096 221 
Q 2355 525 2400 845 
Q 2445 1184 2438 1485 
Q 2432 1786 2387 2131 
Q 2528 2099 2659 2086 
Q 2790 2074 2944 2080 
Q 2976 2080 2982 2061 
Q 2989 2042 2957 2022 
z
M 1645 1760 
Q 1555 1510 1456 1168 
Q 1357 826 1273 496 
Q 1190 166 1136 -106 
Q 1082 -378 1075 -486 
Q 909 -346 736 -243 
Q 563 -141 403 -70 
Q 512 83 621 320 
Q 730 557 826 838 
Q 922 1120 995 1424 
Q 1069 1728 1107 2016 
Q 1184 1946 1334 1875 
Q 1485 1805 1645 1760 
z
M 4000 2086 
Q 3987 2067 3977 2041 
Q 3968 2016 3961 1958 
Q 3955 1901 3952 1808 
Q 3949 1715 3949 1568 
L 3949 128 
Q 3949 -38 3955 -211 
Q 3962 -384 3981 -550 
L 3424 -550 
Q 3450 -384 3459 -217 
Q 3469 -51 3469 115 
L 3469 1574 
Q 3469 1843 3456 1993 
Q 3443 2144 3424 2202 
Q 3590 2176 3728 2166 
Q 3866 2157 3955 2170 
Q 4064 2182 4000 2086 
z
M 6131 352 
Q 6086 83 6038 -86 
Q 5990 -256 5897 -352 
Q 5805 -448 5654 -483 
Q 5504 -518 5254 -518 
Q 5018 -518 4880 -502 
Q 4742 -486 4675 -419 
Q 4608 -352 4592 -217 
Q 4576 -83 4576 147 
L 4576 1606 
Q 4576 1875 4563 2028 
Q 4550 2182 4525 2234 
Q 4685 2208 4841 2198 
Q 4998 2189 5050 2195 
Q 5152 2202 5094 2118 
Q 5082 2099 5072 2073 
Q 5062 2048 5056 1990 
Q 5050 1933 5046 1840 
Q 5043 1747 5043 1600 
L 5043 160 
Q 5043 70 5084 25 
Q 5126 -19 5293 -19 
Q 5395 -19 5456 6 
Q 5517 32 5549 96 
Q 5581 160 5590 275 
Q 5600 390 5594 563 
Q 5722 454 5853 409 
Q 5984 365 6131 352 
z
M 1350 2458 
Q 1261 2528 1129 2608 
Q 998 2688 848 2758 
Q 698 2829 547 2886 
Q 397 2944 269 2976 
L 538 3482 
Q 819 3354 1100 3235 
Q 1382 3117 1619 3027 
L 1350 2458 
z
M 1504 3814 
Q 1434 3891 1318 3990 
Q 1203 4090 1075 4189 
Q 947 4288 825 4371 
Q 704 4454 614 4506 
L 960 4941 
Q 1190 4787 1424 4617 
Q 1658 4448 1850 4301 
L 1504 3814 
z
M 5030 2726 
Q 4230 2643 3721 2582 
Q 3213 2522 2905 2474 
Q 2598 2426 2457 2387 
Q 2317 2349 2259 2310 
Q 2234 2669 2054 2938 
Q 2170 2963 2272 3004 
Q 2374 3046 2502 3152 
Q 2630 3258 2809 3450 
Q 2989 3642 3258 3962 
Q 3437 3853 3545 3795 
Q 3654 3738 3744 3699 
Q 3814 3667 3811 3644 
Q 3808 3622 3686 3590 
Q 3654 3578 3449 3411 
Q 3245 3245 2810 2880 
L 4685 3091 
Q 4576 3200 4467 3296 
Q 4358 3392 4269 3462 
L 4653 3744 
Q 4902 3520 5155 3289 
Q 5408 3059 5709 2778 
L 5306 2355 
Q 5254 2432 5187 2528 
Q 5120 2624 5030 2726 
z
" transform="scale(0.015625)"/>
     </defs>
     <use xlink:href="#STHeitiSC-Medium-6d6"/>
     <use xlink:href="#STHeitiSC-Medium-509" transform="translate(100 0)"/>
     <use xlink:href="#STHeitiSC-Medium-2c4" transform="translate(200 0)"/>
     <use xlink:href="#STHeitiSC-Medium-1c4" transform="translate(300 0)"/>
     <use xlink:href="#STHeitiSC-Medium-12a" transform="translate(400 0)"/>
     <use xlink:href="#STHeitiSC-Medium-33e" transform="translate(500 0)"/>
     <use xlink:href="#STHeitiSC-Medium-5aa" transform="translate(600 0)"/>
     <use xlink:href="#STHeitiSC-Medium-239" transform="translate(700 0)"/>
    </g>
   </g>
   <g id="text_3">
    <!-- attention_norm -->
    <g style="fill: #212121" transform="translate(322.969219 209.357554) scale(0.09 -0.09)">
     <defs>
      <path id="STHeitiSC-Medium-56" d="M 2048 3411 
L 1357 3411 
L 1357 966 
Q 1357 832 1395 803 
Q 1434 774 1587 774 
L 1894 774 
L 1894 320 
Q 1587 269 1427 269 
Q 1120 269 973 419 
Q 826 570 826 896 
L 826 3411 
L 224 3411 
L 224 3872 
L 826 3872 
L 826 5184 
L 1357 5184 
L 1357 3872 
L 2048 3872 
L 2048 3411 
z
" transform="scale(0.015625)"/>
      <path id="STHeitiSC-Medium-4b" d="M 640 5184 
Q 813 5184 931 5065 
Q 1050 4947 1050 4777 
Q 1050 4608 931 4489 
Q 813 4371 643 4371 
Q 474 4371 355 4492 
Q 237 4614 237 4777 
Q 237 4941 355 5062 
Q 474 5184 640 5184 
z
M 909 384 
L 378 384 
L 378 3872 
L 909 3872 
L 909 384 
z
" transform="scale(0.015625)"/>
      <path id="STHeitiSC-Medium-41" d="M 3200 -416 
L 0 -416 
L 0 -6 
L 3200 -6 
L 3200 -416 
z
" transform="scale(0.015625)"/>
     </defs>
     <use xlink:href="#STHeitiSC-Medium-43"/>
     <use xlink:href="#STHeitiSC-Medium-56" transform="translate(68.296875 0)"/>
     <use xlink:href="#STHeitiSC-Medium-56" transform="translate(102.203125 0)"/>
     <use xlink:href="#STHeitiSC-Medium-47" transform="translate(136.109375 0)"/>
     <use xlink:href="#STHeitiSC-Medium-50" transform="translate(201.109375 0)"/>
     <use xlink:href="#STHeitiSC-Medium-56" transform="translate(262.109375 0)"/>
     <use xlink:href="#STHeitiSC-Medium-4b" transform="translate(296.015625 0)"/>
     <use xlink:href="#STHeitiSC-Medium-51" transform="translate(316.015625 0)"/>
     <use xlink:href="#STHeitiSC-Medium-50" transform="translate(381.515625 0)"/>
     <use xlink:href="#STHeitiSC-Medium-41" transform="translate(442.515625 0)"/>
     <use xlink:href="#STHeitiSC-Medium-50" transform="translate(492.515625 0)"/>
     <use xlink:href="#STHeitiSC-Medium-51" transform="translate(553.515625 0)"/>
     <use xlink:href="#STHeitiSC-Medium-54" transform="translate(619.015625 0)"/>
     <use xlink:href="#STHeitiSC-Medium-4f" transform="translate(649.109375 0)"/>
    </g>
    <!-- SequenceParallel  Shard(1) -->
    <g style="fill: #212121" transform="translate(297.571641 219.014272) scale(0.09 -0.09)">
     <defs>
      <path id="STHeitiSC-Medium-35" d="M 2317 4038 
Q 2061 4384 1881 4502 
Q 1702 4621 1462 4621 
Q 1222 4621 1059 4467 
Q 896 4314 896 4074 
Q 896 3834 1049 3654 
Q 1203 3475 1756 3068 
Q 2310 2662 2566 2304 
Q 2822 1946 2822 1549 
Q 2822 1030 2422 649 
Q 2022 269 1491 269 
Q 557 269 26 1312 
L 493 1581 
Q 909 806 1427 806 
Q 1760 806 1997 1017 
Q 2234 1229 2234 1510 
Q 2234 1792 2035 2045 
Q 1837 2298 1350 2666 
Q 864 3034 681 3226 
Q 499 3418 416 3635 
Q 333 3853 333 4070 
Q 333 4538 656 4861 
Q 979 5184 1491 5184 
Q 1888 5184 2182 4982 
Q 2477 4781 2758 4384 
L 2317 4038 
z
" transform="scale(0.015625)"/>
      <path id="STHeitiSC-Medium-53" d="M 3917 -851 
L 3398 -851 
L 3398 896 
Q 2835 269 2086 269 
Q 1338 269 813 816 
Q 288 1363 288 2121 
Q 288 2880 819 3421 
Q 1350 3962 2112 3962 
Q 2874 3962 3398 3341 
L 3398 3872 
L 3917 3872 
L 3917 -851 
z
M 2118 762 
Q 2630 762 3030 1149 
Q 3430 1536 3430 2093 
Q 3430 2650 3056 3050 
Q 2682 3450 2131 3450 
Q 1581 3450 1200 3046 
Q 819 2643 819 2099 
Q 819 1555 1206 1158 
Q 1594 762 2118 762 
z
" transform="scale(0.015625)"/>
      <path id="STHeitiSC-Medium-57" d="M 3450 384 
L 2918 384 
L 2918 909 
Q 2400 294 1690 294 
Q 1312 294 1005 489 
Q 698 685 544 1027 
Q 390 1370 390 2080 
L 390 3872 
L 915 3872 
L 915 2208 
Q 915 1632 969 1424 
Q 1024 1216 1129 1072 
Q 1235 928 1398 857 
Q 1562 787 1795 787 
Q 2029 787 2253 902 
Q 2477 1018 2637 1222 
Q 2797 1427 2857 1657 
Q 2918 1888 2918 2579 
L 2918 3872 
L 3450 3872 
L 3450 384 
z
" transform="scale(0.015625)"/>
      <path id="STHeitiSC-Medium-32" d="M 512 5069 
L 1472 5069 
Q 2291 5069 2547 5005 
Q 2803 4941 3017 4774 
Q 3232 4608 3353 4358 
Q 3475 4109 3475 3795 
Q 3475 3482 3356 3232 
Q 3238 2982 3017 2819 
Q 2797 2656 2477 2589 
Q 2157 2522 1344 2522 
L 1062 2522 
L 1062 384 
L 512 384 
L 512 5069 
z
M 1062 3053 
L 1792 3053 
Q 2438 3040 2672 3257 
Q 2906 3475 2906 3802 
Q 2906 4531 1830 4531 
L 1062 4531 
L 1062 3053 
z
" transform="scale(0.015625)"/>
      <path id="STHeitiSC-Medium-3" transform="scale(0.015625)"/>
      <path id="STHeitiSC-Medium-4a" d="M 3501 384 
L 2970 384 
L 2970 2048 
Q 2970 2534 2941 2732 
Q 2912 2931 2809 3107 
Q 2707 3283 2531 3376 
Q 2355 3469 2108 3469 
Q 1862 3469 1638 3353 
Q 1414 3238 1254 3033 
Q 1094 2829 1033 2598 
Q 973 2368 973 1677 
L 973 384 
L 442 384 
L 442 5184 
L 973 5184 
L 973 3347 
Q 1491 3962 2202 3962 
Q 2579 3962 2886 3766 
Q 3194 3571 3347 3228 
Q 3501 2886 3501 2176 
L 3501 384 
z
" transform="scale(0.015625)"/>
      <path id="STHeitiSC-Medium-46" d="M 3923 384 
L 3405 384 
L 3405 896 
Q 2835 269 2089 269 
Q 1344 269 819 813 
Q 294 1357 294 2118 
Q 294 2880 825 3421 
Q 1357 3962 2121 3962 
Q 2886 3962 3405 3341 
L 3405 5184 
L 3923 5184 
L 3923 384 
z
M 2131 762 
Q 2637 762 3033 1139 
Q 3430 1517 3430 2096 
Q 3430 2675 3062 3062 
Q 2694 3450 2134 3450 
Q 1574 3450 1200 3050 
Q 826 2650 826 2109 
Q 826 1568 1210 1165 
Q 1594 762 2131 762 
z
" transform="scale(0.015625)"/>
      <path id="STHeitiSC-Medium-a" d="M 2048 5779 
Q 1709 5082 1526 4237 
Q 1344 3392 1344 2541 
Q 1344 877 1888 -442 
L 1312 -442 
Q 787 819 787 2483 
Q 787 4275 1440 5779 
L 2048 5779 
z
" transform="scale(0.015625)"/>
      <path id="STHeitiSC-Medium-13" d="M 2131 384 
L 1587 384 
L 1587 4531 
L 826 4531 
L 1158 5069 
L 2131 5069 
L 2131 384 
z
" transform="scale(0.015625)"/>
      <path id="STHeitiSC-Medium-b" d="M 922 5779 
Q 1574 4275 1574 2483 
Q 1574 819 1050 -442 
L 474 -442 
Q 1018 877 1018 2541 
Q 1018 3392 835 4237 
Q 653 5082 314 5779 
L 922 5779 
z
" transform="scale(0.015625)"/>
     </defs>
     <use xlink:href="#STHeitiSC-Medium-35"/>
     <use xlink:href="#STHeitiSC-Medium-47" transform="translate(49.796875 0)"/>
     <use xlink:href="#STHeitiSC-Medium-53" transform="translate(114.796875 0)"/>
     <use xlink:href="#STHeitiSC-Medium-57" transform="translate(183 0)"/>
     <use xlink:href="#STHeitiSC-Medium-47" transform="translate(243.796875 0)"/>
     <use xlink:href="#STHeitiSC-Medium-50" transform="translate(308.796875 0)"/>
     <use xlink:href="#STHeitiSC-Medium-45" transform="translate(369.796875 0)"/>
     <use xlink:href="#STHeitiSC-Medium-47" transform="translate(434.5 0)"/>
     <use xlink:href="#STHeitiSC-Medium-32" transform="translate(499.5 0)"/>
     <use xlink:href="#STHeitiSC-Medium-43" transform="translate(558.703125 0)"/>
     <use xlink:href="#STHeitiSC-Medium-54" transform="translate(627 0)"/>
     <use xlink:href="#STHeitiSC-Medium-43" transform="translate(657.09375 0)"/>
     <use xlink:href="#STHeitiSC-Medium-4e" transform="translate(725.390625 0)"/>
     <use xlink:href="#STHeitiSC-Medium-4e" transform="translate(745.390625 0)"/>
     <use xlink:href="#STHeitiSC-Medium-47" transform="translate(765.390625 0)"/>
     <use xlink:href="#STHeitiSC-Medium-4e" transform="translate(830.390625 0)"/>
     <use xlink:href="#STHeitiSC-Medium-3" transform="translate(850.390625 0)"/>
     <use xlink:href="#STHeitiSC-Medium-3" transform="translate(875.390625 0)"/>
     <use xlink:href="#STHeitiSC-Medium-35" transform="translate(900.390625 0)"/>
     <use xlink:href="#STHeitiSC-Medium-4a" transform="translate(950.1875 0)"/>
     <use xlink:href="#STHeitiSC-Medium-43" transform="translate(1011.1875 0)"/>
     <use xlink:href="#STHeitiSC-Medium-54" transform="translate(1079.484375 0)"/>
     <use xlink:href="#STHeitiSC-Medium-46" transform="translate(1109.578125 0)"/>
     <use xlink:href="#STHeitiSC-Medium-a" transform="translate(1178.078125 0)"/>
     <use xlink:href="#STHeitiSC-Medium-13" transform="translate(1214.984375 0)"/>
     <use xlink:href="#STHeitiSC-Medium-b" transform="translate(1270.390625 0)"/>
    </g>
   </g>
   <g id="text_4">
    <!-- PrepareModuleInput -->
    <g style="fill: #212121" transform="translate(311.215781 276.693206) scale(0.09 -0.09)">
     <defs>
      <path id="STHeitiSC-Medium-52" d="M 973 3341 
Q 1491 3962 2252 3962 
Q 3014 3962 3545 3421 
Q 4077 2880 4077 2118 
Q 4077 1357 3552 813 
Q 3027 269 2284 269 
Q 1542 269 973 896 
L 973 -851 
L 448 -851 
L 448 3872 
L 973 3872 
L 973 3341 
z
M 2253 762 
Q 2778 762 3165 1155 
Q 3552 1549 3552 2105 
Q 3552 2662 3171 3056 
Q 2790 3450 2240 3450 
Q 1690 3450 1315 3062 
Q 941 2675 941 2105 
Q 941 1536 1325 1149 
Q 1709 762 2253 762 
z
" transform="scale(0.015625)"/>
      <path id="STHeitiSC-Medium-2f" d="M 5581 384 
L 5037 384 
L 4602 3571 
L 3027 384 
L 2861 384 
L 1267 3597 
L 832 384 
L 301 384 
L 966 5069 
L 1101 5069 
L 2944 1350 
L 4774 5069 
L 4909 5069 
L 5581 384 
z
" transform="scale(0.015625)"/>
      <path id="STHeitiSC-Medium-2b" d="M 998 384 
L 448 384 
L 448 5069 
L 998 5069 
L 998 384 
z
" transform="scale(0.015625)"/>
     </defs>
     <use xlink:href="#STHeitiSC-Medium-32"/>
     <use xlink:href="#STHeitiSC-Medium-54" transform="translate(59.203125 0)"/>
     <use xlink:href="#STHeitiSC-Medium-47" transform="translate(89.296875 0)"/>
     <use xlink:href="#STHeitiSC-Medium-52" transform="translate(154.296875 0)"/>
     <use xlink:href="#STHeitiSC-Medium-43" transform="translate(222.5 0)"/>
     <use xlink:href="#STHeitiSC-Medium-54" transform="translate(290.796875 0)"/>
     <use xlink:href="#STHeitiSC-Medium-47" transform="translate(320.890625 0)"/>
     <use xlink:href="#STHeitiSC-Medium-2f" transform="translate(385.890625 0)"/>
     <use xlink:href="#STHeitiSC-Medium-51" transform="translate(477.796875 0)"/>
     <use xlink:href="#STHeitiSC-Medium-46" transform="translate(543.296875 0)"/>
     <use xlink:href="#STHeitiSC-Medium-57" transform="translate(611.796875 0)"/>
     <use xlink:href="#STHeitiSC-Medium-4e" transform="translate(672.59375 0)"/>
     <use xlink:href="#STHeitiSC-Medium-47" transform="translate(692.59375 0)"/>
     <use xlink:href="#STHeitiSC-Medium-2b" transform="translate(757.59375 0)"/>
     <use xlink:href="#STHeitiSC-Medium-50" transform="translate(780.1875 0)"/>
     <use xlink:href="#STHeitiSC-Medium-52" transform="translate(841.1875 0)"/>
     <use xlink:href="#STHeitiSC-Medium-57" transform="translate(909.390625 0)"/>
     <use xlink:href="#STHeitiSC-Medium-56" transform="translate(970.1875 0)"/>
    </g>
    <!-- Shard(1) → Replicate -->
    <g style="fill: #212121" transform="translate(310.377656 286.349925) scale(0.09 -0.09)">
     <defs>
      <path id="STHeitiSC-Medium-c0c6" d="M 6086 2285 
L 4115 1114 
L 4115 2131 
L 262 2131 
L 262 2477 
L 4115 2477 
L 4115 3526 
L 6086 2285 
z
" transform="scale(0.015625)"/>
      <path id="STHeitiSC-Medium-34" d="M 3622 384 
L 2931 384 
L 1280 2522 
L 1088 2522 
L 1088 384 
L 538 384 
L 538 5069 
L 1498 5069 
Q 2266 5069 2554 5001 
Q 2842 4934 3053 4774 
Q 3264 4614 3385 4361 
Q 3507 4109 3507 3802 
Q 3507 3219 3110 2870 
Q 2714 2522 1965 2522 
L 3622 384 
z
M 1088 3059 
L 1837 3059 
Q 2400 3053 2669 3229 
Q 2938 3405 2938 3792 
Q 2938 4179 2675 4355 
Q 2413 4531 1856 4531 
L 1088 4531 
L 1088 3059 
z
" transform="scale(0.015625)"/>
     </defs>
     <use xlink:href="#STHeitiSC-Medium-35"/>
     <use xlink:href="#STHeitiSC-Medium-4a" transform="translate(49.796875 0)"/>
     <use xlink:href="#STHeitiSC-Medium-43" transform="translate(110.796875 0)"/>
     <use xlink:href="#STHeitiSC-Medium-54" transform="translate(179.09375 0)"/>
     <use xlink:href="#STHeitiSC-Medium-46" transform="translate(209.1875 0)"/>
     <use xlink:href="#STHeitiSC-Medium-a" transform="translate(277.6875 0)"/>
     <use xlink:href="#STHeitiSC-Medium-13" transform="translate(314.59375 0)"/>
     <use xlink:href="#STHeitiSC-Medium-b" transform="translate(370 0)"/>
     <use xlink:href="#STHeitiSC-Medium-3" transform="translate(406.90625 0)"/>
     <use xlink:href="#STHeitiSC-Medium-c0c6" transform="translate(431.90625 0)"/>
     <use xlink:href="#STHeitiSC-Medium-3" transform="translate(531.90625 0)"/>
     <use xlink:href="#STHeitiSC-Medium-34" transform="translate(556.90625 0)"/>
     <use xlink:href="#STHeitiSC-Medium-47" transform="translate(617.609375 0)"/>
     <use xlink:href="#STHeitiSC-Medium-52" transform="translate(682.609375 0)"/>
     <use xlink:href="#STHeitiSC-Medium-4e" transform="translate(750.8125 0)"/>
     <use xlink:href="#STHeitiSC-Medium-4b" transform="translate(770.8125 0)"/>
     <use xlink:href="#STHeitiSC-Medium-45" transform="translate(790.8125 0)"/>
     <use xlink:href="#STHeitiSC-Medium-43" transform="translate(855.515625 0)"/>
     <use xlink:href="#STHeitiSC-Medium-56" transform="translate(923.8125 0)"/>
     <use xlink:href="#STHeitiSC-Medium-47" transform="translate(957.71875 0)"/>
    </g>
   </g>
   <g id="text_5">
    <!-- Attention -->
    <g style="fill: #212121" transform="translate(336.230156 344.222217) scale(0.09 -0.09)">
     <defs>
      <path id="STHeitiSC-Medium-23" d="M 4646 384 
L 4064 384 
L 3341 1952 
L 1408 1952 
L 691 384 
L 83 384 
L 2298 5254 
L 2464 5254 
L 4646 384 
z
M 3091 2509 
L 2381 4090 
L 1664 2509 
L 3091 2509 
z
" transform="scale(0.015625)"/>
     </defs>
     <use xlink:href="#STHeitiSC-Medium-23"/>
     <use xlink:href="#STHeitiSC-Medium-56" transform="translate(74 0)"/>
     <use xlink:href="#STHeitiSC-Medium-56" transform="translate(107.90625 0)"/>
     <use xlink:href="#STHeitiSC-Medium-47" transform="translate(141.8125 0)"/>
     <use xlink:href="#STHeitiSC-Medium-50" transform="translate(206.8125 0)"/>
     <use xlink:href="#STHeitiSC-Medium-56" transform="translate(267.8125 0)"/>
     <use xlink:href="#STHeitiSC-Medium-4b" transform="translate(301.71875 0)"/>
     <use xlink:href="#STHeitiSC-Medium-51" transform="translate(321.71875 0)"/>
     <use xlink:href="#STHeitiSC-Medium-50" transform="translate(387.21875 0)"/>
    </g>
    <!-- ColwiseParallel + RowwiseParallel -->
    <g style="fill: #212121" transform="translate(284.29875 353.492217) scale(0.09 -0.09)">
     <defs>
      <path id="STHeitiSC-Medium-25" d="M 4909 1242 
Q 4154 269 2835 269 
Q 1722 269 1011 973 
Q 301 1677 301 2752 
Q 301 3418 630 3981 
Q 960 4544 1542 4864 
Q 2125 5184 2800 5184 
Q 3475 5184 4009 4925 
Q 4544 4666 4902 4166 
L 4480 3840 
Q 3814 4646 2835 4646 
Q 2035 4646 1456 4083 
Q 877 3520 877 2704 
Q 877 1888 1443 1341 
Q 2010 794 2912 794 
Q 3814 794 4480 1568 
L 4909 1242 
z
" transform="scale(0.015625)"/>
      <path id="STHeitiSC-Medium-59" d="M 5299 3872 
L 3808 269 
L 3674 269 
L 2650 2752 
L 1619 269 
L 1485 269 
L 19 3872 
L 563 3872 
L 1549 1363 
L 2586 3872 
L 2714 3872 
L 3744 1357 
L 4749 3872 
L 5299 3872 
z
" transform="scale(0.015625)"/>
      <path id="STHeitiSC-Medium-d" d="M 3565 2790 
L 2195 2790 
L 2195 1434 
L 1683 1434 
L 1683 2790 
L 314 2790 
L 314 3309 
L 1683 3309 
L 1683 4659 
L 2195 4659 
L 2195 3309 
L 3565 3309 
L 3565 2790 
z
" transform="scale(0.015625)"/>
     </defs>
     <use xlink:href="#STHeitiSC-Medium-25"/>
     <use xlink:href="#STHeitiSC-Medium-51" transform="translate(81.296875 0)"/>
     <use xlink:href="#STHeitiSC-Medium-4e" transform="translate(146.796875 0)"/>
     <use xlink:href="#STHeitiSC-Medium-59" transform="translate(166.796875 0)"/>
     <use xlink:href="#STHeitiSC-Medium-4b" transform="translate(249.890625 0)"/>
     <use xlink:href="#STHeitiSC-Medium-55" transform="translate(269.890625 0)"/>
     <use xlink:href="#STHeitiSC-Medium-47" transform="translate(308.6875 0)"/>
     <use xlink:href="#STHeitiSC-Medium-32" transform="translate(373.6875 0)"/>
     <use xlink:href="#STHeitiSC-Medium-43" transform="translate(432.890625 0)"/>
     <use xlink:href="#STHeitiSC-Medium-54" transform="translate(501.1875 0)"/>
     <use xlink:href="#STHeitiSC-Medium-43" transform="translate(531.28125 0)"/>
     <use xlink:href="#STHeitiSC-Medium-4e" transform="translate(599.578125 0)"/>
     <use xlink:href="#STHeitiSC-Medium-4e" transform="translate(619.578125 0)"/>
     <use xlink:href="#STHeitiSC-Medium-47" transform="translate(639.578125 0)"/>
     <use xlink:href="#STHeitiSC-Medium-4e" transform="translate(704.578125 0)"/>
     <use xlink:href="#STHeitiSC-Medium-3" transform="translate(724.578125 0)"/>
     <use xlink:href="#STHeitiSC-Medium-d" transform="translate(749.578125 0)"/>
     <use xlink:href="#STHeitiSC-Medium-3" transform="translate(810.171875 0)"/>
     <use xlink:href="#STHeitiSC-Medium-34" transform="translate(835.171875 0)"/>
     <use xlink:href="#STHeitiSC-Medium-51" transform="translate(895.875 0)"/>
     <use xlink:href="#STHeitiSC-Medium-59" transform="translate(961.375 0)"/>
     <use xlink:href="#STHeitiSC-Medium-59" transform="translate(1044.46875 0)"/>
     <use xlink:href="#STHeitiSC-Medium-4b" transform="translate(1127.5625 0)"/>
     <use xlink:href="#STHeitiSC-Medium-55" transform="translate(1147.5625 0)"/>
     <use xlink:href="#STHeitiSC-Medium-47" transform="translate(1186.359375 0)"/>
     <use xlink:href="#STHeitiSC-Medium-32" transform="translate(1251.359375 0)"/>
     <use xlink:href="#STHeitiSC-Medium-43" transform="translate(1310.5625 0)"/>
     <use xlink:href="#STHeitiSC-Medium-54" transform="translate(1378.859375 0)"/>
     <use xlink:href="#STHeitiSC-Medium-43" transform="translate(1408.953125 0)"/>
     <use xlink:href="#STHeitiSC-Medium-4e" transform="translate(1477.25 0)"/>
     <use xlink:href="#STHeitiSC-Medium-4e" transform="translate(1497.25 0)"/>
     <use xlink:href="#STHeitiSC-Medium-47" transform="translate(1517.25 0)"/>
     <use xlink:href="#STHeitiSC-Medium-4e" transform="translate(1582.25 0)"/>
    </g>
   </g>
   <g id="text_6">
    <!-- 残差连接 -->
    <g style="fill: #212121" transform="translate(338.4 429.66) scale(0.09 -0.09)">
     <defs>
      <path id="STHeitiSC-Medium-923" d="M 4781 4013 
Q 4710 4198 4611 4358 
Q 4512 4518 4390 4666 
L 4896 4973 
Q 4979 4806 5091 4636 
Q 5203 4467 5331 4314 
L 4781 4013 
z
M 4051 781 
Q 3923 1043 3833 1292 
Q 3744 1542 3680 1869 
Q 3482 1818 3344 1779 
Q 3206 1741 3104 1709 
Q 3002 1677 2918 1648 
Q 2835 1619 2752 1594 
L 2618 2112 
Q 2720 2125 2813 2141 
Q 2906 2157 3011 2176 
Q 3117 2195 3257 2224 
Q 3398 2253 3610 2298 
Q 3584 2464 3565 2656 
Q 3546 2848 3520 3072 
Q 3277 3014 3145 2979 
Q 3014 2944 2886 2899 
L 2778 3411 
Q 2861 3418 2931 3424 
Q 3002 3430 3078 3443 
Q 3155 3456 3251 3472 
Q 3347 3488 3482 3514 
Q 3469 3693 3462 3913 
Q 3456 4134 3446 4358 
Q 3437 4582 3430 4790 
Q 3424 4998 3418 5165 
Q 3578 5133 3738 5117 
Q 3898 5101 4026 5107 
Q 4243 5114 4077 4960 
Q 4045 4928 4022 4822 
Q 4000 4717 3994 4640 
Q 3981 4410 3984 4163 
Q 3987 3917 4000 3616 
Q 4237 3661 4483 3715 
Q 4730 3770 4957 3818 
Q 5184 3866 5369 3910 
Q 5555 3955 5683 3987 
L 5798 3507 
Q 5651 3488 5446 3453 
Q 5242 3418 5005 3373 
Q 4768 3328 4515 3277 
Q 4262 3226 4019 3181 
Q 4032 2970 4048 2781 
Q 4064 2592 4090 2413 
Q 4339 2477 4592 2544 
Q 4845 2611 5075 2675 
Q 5306 2739 5501 2793 
Q 5696 2848 5824 2886 
L 5952 2394 
Q 5805 2368 5600 2323 
Q 5395 2278 5158 2224 
Q 4922 2170 4666 2109 
Q 4410 2048 4160 1990 
Q 4211 1728 4275 1507 
Q 4339 1286 4416 1094 
Q 4640 1306 4854 1558 
Q 5069 1811 5222 2048 
Q 5350 1920 5452 1856 
Q 5555 1792 5702 1747 
Q 5760 1728 5757 1683 
Q 5754 1638 5702 1632 
Q 5683 1632 5603 1574 
Q 5523 1517 5424 1433 
Q 5325 1350 5222 1254 
Q 5120 1158 5050 1075 
Q 4954 966 4861 867 
Q 4768 768 4653 659 
Q 4870 339 5178 109 
Q 5280 32 5344 9 
Q 5408 -13 5456 38 
Q 5504 90 5539 227 
Q 5574 365 5626 614 
Q 5760 448 5878 371 
Q 5997 294 6112 262 
Q 6016 -128 5936 -333 
Q 5856 -538 5753 -608 
Q 5651 -678 5520 -643 
Q 5389 -608 5197 -512 
Q 4960 -397 4726 -176 
Q 4493 45 4294 352 
Q 4006 128 3632 -115 
Q 3258 -358 2758 -602 
Q 2669 -493 2557 -400 
Q 2445 -307 2278 -205 
Q 2682 -83 3130 163 
Q 3578 410 4051 781 
z
M 1773 1504 
Q 1926 1894 2035 2822 
L 1299 2822 
Q 1056 1939 653 1395 
Q 589 1517 505 1616 
Q 422 1715 288 1792 
Q 621 2195 781 2784 
Q 941 3373 998 4070 
Q 813 4058 665 4048 
Q 518 4038 384 4026 
L 384 4582 
Q 602 4550 861 4540 
Q 1120 4531 1517 4531 
Q 1760 4531 1949 4534 
Q 2138 4538 2285 4541 
Q 2432 4544 2550 4550 
Q 2669 4557 2778 4563 
L 2778 4019 
Q 2573 4045 2256 4061 
Q 1939 4077 1549 4077 
Q 1523 3853 1488 3651 
Q 1453 3450 1408 3258 
L 2029 3258 
Q 2240 3258 2365 3264 
Q 2490 3270 2592 3283 
Q 2496 2490 2381 1952 
Q 2266 1414 2093 1043 
Q 1850 512 1485 67 
Q 1120 -378 710 -685 
Q 640 -570 553 -467 
Q 467 -365 307 -237 
Q 659 -77 960 240 
Q 1261 557 1530 1018 
Q 1331 1299 1203 1468 
Q 1075 1638 986 1722 
L 1376 2054 
Q 1427 1984 1520 1853 
Q 1613 1722 1773 1504 
z
" transform="scale(0.015625)"/>
      <path id="STHeitiSC-Medium-5d5" d="M 2323 4269 
Q 2253 4416 2166 4547 
Q 2080 4678 1946 4832 
L 2490 5101 
Q 2573 4934 2669 4777 
Q 2765 4621 2861 4480 
L 2323 4269 
z
M 3910 51 
Q 4557 51 5017 64 
Q 5478 77 5843 109 
L 5843 -429 
Q 5446 -397 4934 -384 
Q 4422 -371 3680 -371 
Q 2938 -371 2429 -384 
Q 1920 -397 1523 -429 
L 1523 109 
Q 1888 83 2333 70 
Q 2778 58 3411 51 
L 3411 1005 
Q 3117 1005 2861 992 
Q 2605 979 2387 954 
L 2387 1414 
L 3872 1414 
Q 4307 1414 4700 1427 
Q 5094 1440 5363 1472 
L 5363 954 
Q 5101 986 4717 998 
Q 4333 1011 3910 1011 
L 3910 51 
z
M 2944 3834 
Q 2259 3834 1750 3821 
Q 1242 3808 851 3776 
L 851 4288 
Q 1101 4269 1337 4256 
Q 1574 4243 1884 4236 
Q 2195 4230 2617 4227 
Q 3040 4224 3667 4224 
Q 3802 4410 3920 4643 
Q 4038 4877 4109 5126 
Q 4314 5056 4451 5017 
Q 4589 4979 4736 4947 
Q 4813 4934 4813 4902 
Q 4813 4870 4723 4838 
Q 4685 4826 4547 4698 
Q 4410 4570 4134 4230 
Q 4608 4237 4979 4249 
Q 5350 4262 5658 4288 
L 5658 3776 
Q 5248 3808 4717 3821 
Q 4186 3834 3456 3834 
Q 3430 3706 3398 3578 
Q 3366 3450 3334 3328 
Q 3770 3328 4083 3331 
Q 4397 3334 4633 3340 
Q 4870 3347 5059 3360 
Q 5248 3373 5440 3386 
L 5440 2874 
Q 5242 2886 5037 2899 
Q 4832 2912 4573 2918 
Q 4314 2925 3981 2928 
Q 3648 2931 3200 2931 
Q 3085 2618 2944 2368 
Q 3654 2368 4115 2371 
Q 4576 2374 4899 2380 
Q 5222 2387 5459 2396 
Q 5696 2406 5965 2426 
L 5965 1907 
Q 5677 1926 5401 1936 
Q 5126 1946 4768 1949 
Q 4410 1952 3917 1955 
Q 3424 1958 2707 1958 
Q 2496 1632 2291 1369 
Q 2086 1107 1862 883 
Q 1638 659 1385 451 
Q 1133 243 832 19 
Q 774 134 678 236 
Q 582 339 429 429 
Q 742 608 992 777 
Q 1242 947 1453 1126 
Q 1664 1306 1840 1507 
Q 2016 1709 2182 1952 
Q 1709 1946 1337 1936 
Q 966 1926 646 1907 
L 646 2426 
Q 1011 2406 1440 2393 
Q 1869 2381 2432 2374 
Q 2502 2496 2566 2633 
Q 2630 2771 2694 2931 
Q 2195 2925 1824 2912 
Q 1453 2899 1152 2874 
L 1152 3386 
Q 1478 3360 1881 3347 
Q 2285 3334 2835 3328 
Q 2906 3584 2944 3834 
z
" transform="scale(0.015625)"/>
      <path id="STHeitiSC-Medium-3aa" d="M 1069 3565 
Q 1050 3866 970 4179 
Q 890 4493 768 4736 
L 1363 4883 
Q 1459 4627 1552 4323 
Q 1645 4019 1715 3712 
L 1069 3565 
z
M 1075 2400 
Q 941 2400 841 2400 
Q 742 2400 672 2397 
Q 602 2394 541 2387 
Q 480 2381 422 2374 
L 422 2918 
Q 589 2899 742 2892 
Q 896 2886 1037 2886 
Q 1222 2886 1376 2896 
Q 1530 2906 1651 2918 
Q 1638 2829 1628 2717 
Q 1619 2605 1609 2496 
Q 1600 2387 1597 2294 
Q 1594 2202 1594 2150 
L 1594 429 
Q 1792 378 2029 285 
Q 2266 192 2464 83 
Q 2611 0 2979 -45 
Q 3347 -90 3856 -93 
Q 4365 -96 4966 -57 
Q 5568 -19 6182 70 
Q 6067 -154 6025 -298 
Q 5984 -442 5971 -589 
Q 5267 -602 4755 -605 
Q 4243 -608 3868 -598 
Q 3494 -589 3232 -563 
Q 2970 -538 2762 -496 
Q 2554 -454 2368 -387 
Q 2182 -320 1965 -224 
Q 1600 -64 1411 -64 
Q 1222 -64 1094 -186 
Q 960 -314 861 -442 
Q 762 -570 710 -678 
Q 595 -570 480 -486 
Q 365 -403 211 -307 
Q 435 -77 665 118 
Q 896 314 1075 410 
L 1075 2400 
z
M 2880 2694 
L 3846 2694 
Q 3846 2906 3843 3046 
Q 3840 3187 3837 3286 
Q 3834 3386 3824 3450 
Q 3814 3514 3808 3571 
Q 3968 3533 4099 3523 
Q 4230 3514 4390 3520 
Q 4499 3526 4512 3491 
Q 4525 3456 4435 3398 
Q 4384 3366 4365 3280 
Q 4346 3194 4346 3002 
L 4346 2694 
Q 4832 2694 5152 2700 
Q 5472 2707 5670 2733 
L 5670 2246 
Q 5472 2259 5149 2265 
Q 4826 2272 4346 2272 
L 4346 1472 
Q 4845 1478 5203 1488 
Q 5562 1498 5869 1517 
L 5869 1011 
Q 5562 1030 5203 1040 
Q 4845 1050 4346 1056 
Q 4346 851 4349 630 
Q 4352 410 4365 134 
L 3795 134 
Q 3827 435 3836 643 
Q 3846 851 3846 1056 
Q 3526 1056 3264 1053 
Q 3002 1050 2778 1046 
Q 2554 1043 2362 1033 
Q 2170 1024 1990 1011 
L 1990 1517 
Q 2349 1491 2781 1481 
Q 3213 1472 3846 1472 
L 3846 2272 
Q 3290 2259 2896 2230 
Q 2502 2202 2278 2170 
Q 2272 2298 2243 2429 
Q 2214 2560 2157 2675 
Q 2240 2694 2310 2732 
Q 2381 2771 2467 2886 
Q 2554 3002 2678 3222 
Q 2803 3443 2995 3821 
Q 2688 3814 2445 3804 
Q 2202 3795 1990 3782 
L 1990 4288 
Q 2240 4275 2534 4265 
Q 2829 4256 3206 4250 
Q 3354 4544 3427 4742 
Q 3501 4941 3539 5107 
Q 3686 5030 3849 4972 
Q 4013 4915 4122 4896 
Q 4262 4877 4134 4794 
Q 4064 4749 3961 4605 
Q 3859 4461 3731 4243 
L 4307 4243 
Q 4787 4243 5174 4252 
Q 5562 4262 5926 4288 
L 5926 3782 
Q 5562 3808 5174 3817 
Q 4787 3827 4307 3827 
L 3501 3827 
L 2880 2694 
z
" transform="scale(0.015625)"/>
      <path id="STHeitiSC-Medium-2c8" d="M 3379 2989 
Q 3322 3136 3254 3273 
Q 3187 3411 3091 3558 
L 3571 3814 
Q 3622 3686 3718 3526 
Q 3814 3366 3904 3251 
L 3379 2989 
z
M 1210 3392 
Q 960 3392 752 3382 
Q 544 3373 403 3360 
L 403 3885 
Q 544 3872 752 3859 
Q 960 3846 1210 3840 
Q 1210 4096 1206 4288 
Q 1203 4480 1200 4624 
Q 1197 4768 1187 4867 
Q 1178 4966 1171 5037 
Q 1344 5005 1478 4992 
Q 1613 4979 1747 4986 
Q 2022 4998 1811 4832 
Q 1747 4781 1728 4726 
Q 1709 4672 1709 4589 
L 1709 3846 
Q 1914 3853 2080 3862 
Q 2246 3872 2368 3885 
L 2368 3360 
Q 2246 3373 2080 3379 
Q 1914 3386 1709 3392 
L 1709 2374 
Q 1843 2445 1971 2512 
Q 2099 2579 2227 2669 
Q 2240 2541 2262 2425 
Q 2285 2310 2323 2189 
Q 2195 2118 2038 2035 
Q 1882 1952 1709 1856 
L 1709 83 
Q 1709 -134 1683 -262 
Q 1658 -390 1565 -464 
Q 1472 -538 1286 -579 
Q 1101 -621 781 -666 
Q 768 -506 726 -368 
Q 685 -230 595 -58 
Q 813 -70 934 -67 
Q 1056 -64 1117 -29 
Q 1178 6 1194 80 
Q 1210 154 1210 282 
L 1210 1568 
Q 813 1344 512 1165 
Q 480 1318 429 1484 
Q 378 1651 307 1792 
Q 525 1856 752 1939 
Q 979 2022 1210 2125 
L 1210 3392 
z
M 4634 397 
Q 4992 237 5325 83 
Q 5658 -70 5914 -198 
Q 5805 -320 5718 -435 
Q 5632 -550 5542 -698 
Q 5325 -531 5001 -332 
Q 4678 -134 4282 70 
Q 3936 -192 3475 -361 
Q 3014 -531 2406 -621 
Q 2342 -499 2268 -396 
Q 2195 -294 2080 -173 
Q 3168 -90 3802 301 
Q 3565 410 3318 509 
Q 3072 608 2816 691 
Q 2899 800 2953 880 
Q 3008 960 3049 1033 
Q 3091 1107 3132 1193 
Q 3174 1280 3232 1395 
Q 3059 1395 2931 1388 
Q 2803 1382 2691 1379 
Q 2579 1376 2480 1366 
Q 2381 1357 2272 1350 
L 2272 1875 
Q 2394 1862 2509 1852 
Q 2624 1843 2752 1840 
Q 2880 1837 3046 1833 
Q 3213 1830 3443 1830 
Q 3552 2054 3590 2169 
Q 3629 2285 3642 2400 
Q 3936 2272 4141 2246 
Q 4224 2234 4230 2195 
Q 4237 2157 4147 2093 
Q 4122 2074 4093 2029 
Q 4064 1984 3974 1830 
L 4845 1830 
Q 5094 1830 5270 1830 
Q 5446 1830 5587 1836 
Q 5728 1843 5846 1852 
Q 5965 1862 6093 1875 
L 6093 1350 
Q 5984 1363 5891 1369 
Q 5798 1376 5692 1382 
Q 5587 1389 5465 1392 
Q 5344 1395 5184 1395 
Q 5011 806 4634 397 
z
M 3462 883 
Q 3616 826 3798 752 
Q 3981 678 4173 595 
Q 4346 762 4464 963 
Q 4582 1165 4653 1395 
L 3738 1395 
L 3462 883 
z
M 4320 2899 
Q 4454 3174 4547 3440 
Q 4640 3706 4678 3923 
Q 4800 3853 4960 3795 
Q 5120 3738 5261 3712 
Q 5293 3706 5299 3686 
Q 5306 3667 5274 3648 
Q 5184 3578 5069 3405 
Q 4954 3232 4787 2899 
Q 5005 2899 5161 2902 
Q 5318 2906 5449 2909 
Q 5581 2912 5696 2921 
Q 5811 2931 5946 2944 
L 5946 2432 
Q 5818 2445 5683 2454 
Q 5549 2464 5363 2467 
Q 5178 2470 4909 2473 
Q 4640 2477 4237 2477 
Q 3834 2477 3568 2473 
Q 3302 2470 3113 2467 
Q 2925 2464 2793 2454 
Q 2662 2445 2528 2432 
L 2528 2944 
Q 2662 2931 2777 2921 
Q 2893 2912 3027 2909 
Q 3162 2906 3325 2902 
Q 3488 2899 3712 2899 
L 4320 2899 
z
M 4026 4467 
Q 3994 4602 3958 4749 
Q 3923 4896 3872 5030 
L 4461 5165 
Q 4493 5011 4531 4828 
Q 4570 4646 4621 4467 
Q 4902 4467 5100 4470 
Q 5299 4474 5446 4477 
Q 5594 4480 5702 4489 
Q 5811 4499 5914 4512 
L 5914 3974 
Q 5798 3987 5667 3996 
Q 5536 4006 5350 4012 
Q 5165 4019 4896 4022 
Q 4627 4026 4237 4026 
Q 3846 4026 3580 4022 
Q 3315 4019 3126 4012 
Q 2938 4006 2810 3996 
Q 2682 3987 2566 3974 
L 2566 4512 
Q 2675 4499 2793 4489 
Q 2912 4480 3075 4477 
Q 3238 4474 3465 4470 
Q 3693 4467 4026 4467 
z
" transform="scale(0.015625)"/>
     </defs>
     <use xlink:href="#STHeitiSC-Medium-923"/>
     <use xlink:href="#STHeitiSC-Medium-5d5" transform="translate(100 0)"/>
     <use xlink:href="#STHeitiSC-Medium-3aa" transform="translate(200 0)"/>
     <use xlink:href="#STHeitiSC-Medium-2c8" transform="translate(300 0)"/>
    </g>
   </g>
   <g id="text_7">
    <!-- ffn_norm -->
    <g style="fill: #212121" transform="translate(337.310859 492.167293) scale(0.09 -0.09)">
     <use xlink:href="#STHeitiSC-Medium-48"/>
     <use xlink:href="#STHeitiSC-Medium-48" transform="translate(31.40625 0)"/>
     <use xlink:href="#STHeitiSC-Medium-50" transform="translate(62.8125 0)"/>
     <use xlink:href="#STHeitiSC-Medium-41" transform="translate(123.8125 0)"/>
     <use xlink:href="#STHeitiSC-Medium-50" transform="translate(173.8125 0)"/>
     <use xlink:href="#STHeitiSC-Medium-51" transform="translate(234.8125 0)"/>
     <use xlink:href="#STHeitiSC-Medium-54" transform="translate(300.3125 0)"/>
     <use xlink:href="#STHeitiSC-Medium-4f" transform="translate(330.40625 0)"/>
    </g>
    <!-- SequenceParallel  Shard(1) -->
    <g style="fill: #212121" transform="translate(297.571641 501.824012) scale(0.09 -0.09)">
     <use xlink:href="#STHeitiSC-Medium-35"/>
     <use xlink:href="#STHeitiSC-Medium-47" transform="translate(49.796875 0)"/>
     <use xlink:href="#STHeitiSC-Medium-53" transform="translate(114.796875 0)"/>
     <use xlink:href="#STHeitiSC-Medium-57" transform="translate(183 0)"/>
     <use xlink:href="#STHeitiSC-Medium-47" transform="translate(243.796875 0)"/>
     <use xlink:href="#STHeitiSC-Medium-50" transform="translate(308.796875 0)"/>
     <use xlink:href="#STHeitiSC-Medium-45" transform="translate(369.796875 0)"/>
     <use xlink:href="#STHeitiSC-Medium-47" transform="translate(434.5 0)"/>
     <use xlink:href="#STHeitiSC-Medium-32" transform="translate(499.5 0)"/>
     <use xlink:href="#STHeitiSC-Medium-43" transform="translate(558.703125 0)"/>
     <use xlink:href="#STHeitiSC-Medium-54" transform="translate(627 0)"/>
     <use xlink:href="#STHeitiSC-Medium-43" transform="translate(657.09375 0)"/>
     <use xlink:href="#STHeitiSC-Medium-4e" transform="translate(725.390625 0)"/>
     <use xlink:href="#STHeitiSC-Medium-4e" transform="translate(745.390625 0)"/>
     <use xlink:href="#STHeitiSC-Medium-47" transform="translate(765.390625 0)"/>
     <use xlink:href="#STHeitiSC-Medium-4e" transform="translate(830.390625 0)"/>
     <use xlink:href="#STHeitiSC-Medium-3" transform="translate(850.390625 0)"/>
     <use xlink:href="#STHeitiSC-Medium-3" transform="translate(875.390625 0)"/>
     <use xlink:href="#STHeitiSC-Medium-35" transform="translate(900.390625 0)"/>
     <use xlink:href="#STHeitiSC-Medium-4a" transform="translate(950.1875 0)"/>
     <use xlink:href="#STHeitiSC-Medium-43" transform="translate(1011.1875 0)"/>
     <use xlink:href="#STHeitiSC-Medium-54" transform="translate(1079.484375 0)"/>
     <use xlink:href="#STHeitiSC-Medium-46" transform="translate(1109.578125 0)"/>
     <use xlink:href="#STHeitiSC-Medium-a" transform="translate(1178.078125 0)"/>
     <use xlink:href="#STHeitiSC-Medium-13" transform="translate(1214.984375 0)"/>
     <use xlink:href="#STHeitiSC-Medium-b" transform="translate(1270.390625 0)"/>
    </g>
   </g>
   <g id="text_8">
    <!-- PrepareModuleInput -->
    <g style="fill: #212121" transform="translate(311.215781 559.502945) scale(0.09 -0.09)">
     <use xlink:href="#STHeitiSC-Medium-32"/>
     <use xlink:href="#STHeitiSC-Medium-54" transform="translate(59.203125 0)"/>
     <use xlink:href="#STHeitiSC-Medium-47" transform="translate(89.296875 0)"/>
     <use xlink:href="#STHeitiSC-Medium-52" transform="translate(154.296875 0)"/>
     <use xlink:href="#STHeitiSC-Medium-43" transform="translate(222.5 0)"/>
     <use xlink:href="#STHeitiSC-Medium-54" transform="translate(290.796875 0)"/>
     <use xlink:href="#STHeitiSC-Medium-47" transform="translate(320.890625 0)"/>
     <use xlink:href="#STHeitiSC-Medium-2f" transform="translate(385.890625 0)"/>
     <use xlink:href="#STHeitiSC-Medium-51" transform="translate(477.796875 0)"/>
     <use xlink:href="#STHeitiSC-Medium-46" transform="translate(543.296875 0)"/>
     <use xlink:href="#STHeitiSC-Medium-57" transform="translate(611.796875 0)"/>
     <use xlink:href="#STHeitiSC-Medium-4e" transform="translate(672.59375 0)"/>
     <use xlink:href="#STHeitiSC-Medium-47" transform="translate(692.59375 0)"/>
     <use xlink:href="#STHeitiSC-Medium-2b" transform="translate(757.59375 0)"/>
     <use xlink:href="#STHeitiSC-Medium-50" transform="translate(780.1875 0)"/>
     <use xlink:href="#STHeitiSC-Medium-52" transform="translate(841.1875 0)"/>
     <use xlink:href="#STHeitiSC-Medium-57" transform="translate(909.390625 0)"/>
     <use xlink:href="#STHeitiSC-Medium-56" transform="translate(970.1875 0)"/>
    </g>
    <!-- Shard(1) → Replicate -->
    <g style="fill: #212121" transform="translate(310.377656 569.159664) scale(0.09 -0.09)">
     <use xlink:href="#STHeitiSC-Medium-35"/>
     <use xlink:href="#STHeitiSC-Medium-4a" transform="translate(49.796875 0)"/>
     <use xlink:href="#STHeitiSC-Medium-43" transform="translate(110.796875 0)"/>
     <use xlink:href="#STHeitiSC-Medium-54" transform="translate(179.09375 0)"/>
     <use xlink:href="#STHeitiSC-Medium-46" transform="translate(209.1875 0)"/>
     <use xlink:href="#STHeitiSC-Medium-a" transform="translate(277.6875 0)"/>
     <use xlink:href="#STHeitiSC-Medium-13" transform="translate(314.59375 0)"/>
     <use xlink:href="#STHeitiSC-Medium-b" transform="translate(370 0)"/>
     <use xlink:href="#STHeitiSC-Medium-3" transform="translate(406.90625 0)"/>
     <use xlink:href="#STHeitiSC-Medium-c0c6" transform="translate(431.90625 0)"/>
     <use xlink:href="#STHeitiSC-Medium-3" transform="translate(531.90625 0)"/>
     <use xlink:href="#STHeitiSC-Medium-34" transform="translate(556.90625 0)"/>
     <use xlink:href="#STHeitiSC-Medium-47" transform="translate(617.609375 0)"/>
     <use xlink:href="#STHeitiSC-Medium-52" transform="translate(682.609375 0)"/>
     <use xlink:href="#STHeitiSC-Medium-4e" transform="translate(750.8125 0)"/>
     <use xlink:href="#STHeitiSC-Medium-4b" transform="translate(770.8125 0)"/>
     <use xlink:href="#STHeitiSC-Medium-45" transform="translate(790.8125 0)"/>
     <use xlink:href="#STHeitiSC-Medium-43" transform="translate(855.515625 0)"/>
     <use xlink:href="#STHeitiSC-Medium-56" transform="translate(923.8125 0)"/>
     <use xlink:href="#STHeitiSC-Medium-47" transform="translate(957.71875 0)"/>
    </g>
   </g>
   <g id="text_9">
    <!-- FeedForward -->
    <g style="fill: #212121" transform="translate(327.551484 627.031957) scale(0.09 -0.09)">
     <defs>
      <path id="STHeitiSC-Medium-28" d="M 2906 2637 
L 1062 2637 
L 1062 384 
L 512 384 
L 512 5069 
L 2906 5069 
L 2906 4525 
L 1062 4525 
L 1062 3181 
L 2906 3181 
L 2906 2637 
z
" transform="scale(0.015625)"/>
     </defs>
     <use xlink:href="#STHeitiSC-Medium-28"/>
     <use xlink:href="#STHeitiSC-Medium-47" transform="translate(48.5 0)"/>
     <use xlink:href="#STHeitiSC-Medium-47" transform="translate(113.5 0)"/>
     <use xlink:href="#STHeitiSC-Medium-46" transform="translate(178.5 0)"/>
     <use xlink:href="#STHeitiSC-Medium-28" transform="translate(247 0)"/>
     <use xlink:href="#STHeitiSC-Medium-51" transform="translate(295.5 0)"/>
     <use xlink:href="#STHeitiSC-Medium-54" transform="translate(361 0)"/>
     <use xlink:href="#STHeitiSC-Medium-59" transform="translate(391.09375 0)"/>
     <use xlink:href="#STHeitiSC-Medium-43" transform="translate(474.1875 0)"/>
     <use xlink:href="#STHeitiSC-Medium-54" transform="translate(542.484375 0)"/>
     <use xlink:href="#STHeitiSC-Medium-46" transform="translate(572.578125 0)"/>
    </g>
    <!-- ColwiseParallel + RowwiseParallel -->
    <g style="fill: #212121" transform="translate(284.29875 636.301957) scale(0.09 -0.09)">
     <use xlink:href="#STHeitiSC-Medium-25"/>
     <use xlink:href="#STHeitiSC-Medium-51" transform="translate(81.296875 0)"/>
     <use xlink:href="#STHeitiSC-Medium-4e" transform="translate(146.796875 0)"/>
     <use xlink:href="#STHeitiSC-Medium-59" transform="translate(166.796875 0)"/>
     <use xlink:href="#STHeitiSC-Medium-4b" transform="translate(249.890625 0)"/>
     <use xlink:href="#STHeitiSC-Medium-55" transform="translate(269.890625 0)"/>
     <use xlink:href="#STHeitiSC-Medium-47" transform="translate(308.6875 0)"/>
     <use xlink:href="#STHeitiSC-Medium-32" transform="translate(373.6875 0)"/>
     <use xlink:href="#STHeitiSC-Medium-43" transform="translate(432.890625 0)"/>
     <use xlink:href="#STHeitiSC-Medium-54" transform="translate(501.1875 0)"/>
     <use xlink:href="#STHeitiSC-Medium-43" transform="translate(531.28125 0)"/>
     <use xlink:href="#STHeitiSC-Medium-4e" transform="translate(599.578125 0)"/>
     <use xlink:href="#STHeitiSC-Medium-4e" transform="translate(619.578125 0)"/>
     <use xlink:href="#STHeitiSC-Medium-47" transform="translate(639.578125 0)"/>
     <use xlink:href="#STHeitiSC-Medium-4e" transform="translate(704.578125 0)"/>
     <use xlink:href="#STHeitiSC-Medium-3" transform="translate(724.578125 0)"/>
     <use xlink:href="#STHeitiSC-Medium-d" transform="translate(749.578125 0)"/>
     <use xlink:href="#STHeitiSC-Medium-3" transform="translate(810.171875 0)"/>
     <use xlink:href="#STHeitiSC-Medium-34" transform="translate(835.171875 0)"/>
     <use xlink:href="#STHeitiSC-Medium-51" transform="translate(895.875 0)"/>
     <use xlink:href="#STHeitiSC-Medium-59" transform="translate(961.375 0)"/>
     <use xlink:href="#STHeitiSC-Medium-59" transform="translate(1044.46875 0)"/>
     <use xlink:href="#STHeitiSC-Medium-4b" transform="translate(1127.5625 0)"/>
     <use xlink:href="#STHeitiSC-Medium-55" transform="translate(1147.5625 0)"/>
     <use xlink:href="#STHeitiSC-Medium-47" transform="translate(1186.359375 0)"/>
     <use xlink:href="#STHeitiSC-Medium-32" transform="translate(1251.359375 0)"/>
     <use xlink:href="#STHeitiSC-Medium-43" transform="translate(1310.5625 0)"/>
     <use xlink:href="#STHeitiSC-Medium-54" transform="translate(1378.859375 0)"/>
     <use xlink:href="#STHeitiSC-Medium-43" transform="translate(1408.953125 0)"/>
     <use xlink:href="#STHeitiSC-Medium-4e" transform="translate(1477.25 0)"/>
     <use xlink:href="#STHeitiSC-Medium-4e" transform="translate(1497.25 0)"/>
     <use xlink:href="#STHeitiSC-Medium-47" transform="translate(1517.25 0)"/>
     <use xlink:href="#STHeitiSC-Medium-4e" transform="translate(1582.25 0)"/>
    </g>
   </g>
   <g id="text_10">
    <!-- 残差连接 -->
    <g style="fill: #212121" transform="translate(338.4 712.469739) scale(0.09 -0.09)">
     <use xlink:href="#STHeitiSC-Medium-923"/>
     <use xlink:href="#STHeitiSC-Medium-5d5" transform="translate(100 0)"/>
     <use xlink:href="#STHeitiSC-Medium-3aa" transform="translate(200 0)"/>
     <use xlink:href="#STHeitiSC-Medium-2c8" transform="translate(300 0)"/>
    </g>
   </g>
   <g id="text_11">
    <!-- 输入 x -->
    <g style="fill: #212121" transform="translate(344.115 88.15338) scale(0.09 -0.09)">
     <defs>
      <path id="STHeitiSC-Medium-8a9" d="M 5747 2758 
Q 5709 2726 5699 2672 
Q 5690 2618 5690 2522 
L 5690 51 
Q 5690 -102 5674 -201 
Q 5658 -301 5584 -371 
Q 5510 -442 5363 -493 
Q 5216 -544 4960 -602 
Q 4941 -493 4880 -345 
Q 4819 -198 4736 -115 
Q 4915 -141 5020 -141 
Q 5126 -141 5180 -105 
Q 5235 -70 5248 6 
Q 5261 83 5261 218 
L 5261 1894 
Q 5261 2259 5241 2528 
Q 5222 2797 5197 2925 
Q 5312 2899 5462 2886 
Q 5613 2874 5702 2880 
Q 5901 2893 5747 2758 
z
M 4941 2541 
Q 4909 2522 4899 2470 
Q 4890 2419 4890 2349 
L 4890 1190 
Q 4890 832 4928 403 
L 4429 403 
Q 4448 627 4457 816 
Q 4467 1005 4467 1190 
L 4467 2003 
Q 4467 2234 4457 2397 
Q 4448 2560 4422 2694 
Q 4570 2662 4691 2656 
Q 4813 2650 4909 2662 
Q 4992 2675 5001 2630 
Q 5011 2586 4941 2541 
z
M 1350 2342 
Q 1350 2573 1350 2717 
Q 1350 2861 1347 2953 
Q 1344 3046 1337 3100 
Q 1331 3155 1325 3200 
Q 1421 3174 1561 3158 
Q 1702 3142 1811 3155 
Q 1875 3162 1878 3117 
Q 1882 3072 1830 3046 
Q 1773 3008 1773 2867 
L 1773 2387 
Q 2054 2426 2202 2470 
L 2202 1990 
Q 2022 2016 1773 2010 
L 1773 1133 
Q 1920 1184 2057 1232 
Q 2195 1280 2278 1318 
Q 2272 1274 2265 1206 
Q 2259 1139 2259 1068 
Q 2259 998 2259 931 
Q 2259 864 2266 813 
Q 2163 813 2048 797 
Q 1933 781 1773 736 
Q 1773 384 1785 48 
Q 1798 -288 1818 -602 
L 1293 -602 
Q 1318 -307 1331 -12 
Q 1344 282 1350 608 
Q 1043 518 838 448 
Q 634 378 518 326 
Q 486 461 432 605 
Q 378 749 320 845 
Q 518 851 761 892 
Q 1005 934 1350 1018 
L 1350 1984 
Q 1088 1965 864 1923 
Q 640 1882 506 1824 
Q 474 1926 413 2057 
Q 352 2189 275 2298 
Q 365 2336 432 2403 
Q 499 2470 569 2627 
Q 640 2784 729 3075 
Q 819 3366 954 3859 
Q 774 3853 665 3843 
Q 557 3834 467 3821 
L 467 4307 
Q 563 4288 691 4278 
Q 819 4269 1043 4262 
Q 1094 4518 1116 4752 
Q 1139 4986 1133 5152 
Q 1210 5126 1302 5104 
Q 1395 5082 1484 5062 
Q 1574 5043 1651 5030 
Q 1728 5018 1773 5018 
Q 1837 5018 1843 4992 
Q 1850 4966 1786 4928 
Q 1734 4896 1670 4749 
Q 1606 4602 1498 4262 
Q 1805 4262 1974 4275 
Q 2144 4288 2259 4307 
L 2259 3821 
Q 2138 3840 1939 3853 
Q 1741 3866 1370 3866 
L 877 2298 
L 1350 2342 
z
M 2963 653 
L 2963 -454 
L 2483 -454 
Q 2515 -198 2528 51 
Q 2541 301 2541 493 
L 2541 2374 
Q 2541 2496 2528 2656 
Q 2515 2816 2496 2912 
Q 2829 2874 3296 2874 
Q 3398 2874 3513 2877 
Q 3629 2880 3737 2886 
Q 3846 2893 3945 2899 
Q 4045 2906 4115 2912 
Q 4102 2829 4092 2685 
Q 4083 2541 4083 2374 
L 4083 141 
Q 4083 -38 4070 -153 
Q 4058 -269 3994 -345 
Q 3930 -422 3805 -467 
Q 3680 -512 3462 -550 
Q 3450 -435 3398 -310 
Q 3347 -186 3277 -77 
Q 3405 -96 3481 -93 
Q 3558 -90 3600 -51 
Q 3642 -13 3654 70 
Q 3667 154 3667 301 
L 3667 653 
L 2963 653 
z
M 3667 1952 
L 3667 2490 
L 2963 2490 
L 2963 1952 
L 3667 1952 
z
M 2963 1574 
L 2963 1024 
L 3667 1024 
L 3667 1574 
L 2963 1574 
z
M 4691 3245 
Q 4550 3270 4387 3283 
Q 4224 3296 3955 3296 
Q 3686 3296 3539 3283 
Q 3392 3270 3251 3245 
L 3251 3738 
Q 3398 3712 3542 3699 
Q 3686 3686 3955 3686 
Q 4186 3686 4336 3696 
Q 4486 3706 4614 3725 
Q 4192 4090 3910 4582 
Q 3712 4320 3529 4099 
Q 3347 3878 3161 3676 
Q 2976 3475 2774 3283 
Q 2573 3091 2342 2886 
Q 2272 2970 2150 3066 
Q 2029 3162 1939 3194 
Q 2400 3488 2851 3993 
Q 3302 4499 3667 5203 
Q 3795 5152 3968 5104 
Q 4141 5056 4250 5050 
Q 4307 5043 4316 5004 
Q 4326 4966 4282 4941 
L 4166 4864 
Q 4365 4557 4582 4339 
Q 4800 4122 5043 3971 
Q 5286 3821 5552 3728 
Q 5818 3635 6118 3578 
Q 6003 3488 5900 3331 
Q 5798 3174 5754 3059 
Q 5184 3258 4691 3661 
L 4691 3245 
z
" transform="scale(0.015625)"/>
      <path id="STHeitiSC-Medium-24d" d="M 2842 3834 
Q 2637 4096 2403 4301 
Q 2170 4506 1933 4634 
L 2374 5069 
Q 2707 4800 2944 4557 
Q 3181 4314 3350 4061 
Q 3520 3808 3645 3523 
Q 3770 3238 3885 2874 
Q 4077 2285 4269 1881 
Q 4461 1478 4704 1184 
Q 4947 890 5264 678 
Q 5581 467 6022 262 
Q 5824 96 5715 -41 
Q 5606 -179 5498 -378 
Q 5101 -102 4813 154 
Q 4525 410 4301 733 
Q 4077 1056 3891 1488 
Q 3706 1920 3520 2541 
Q 3405 2918 3213 3277 
Q 3149 3008 3059 2733 
Q 2970 2458 2864 2198 
Q 2758 1939 2640 1699 
Q 2522 1459 2400 1267 
Q 2067 749 1686 326 
Q 1306 -96 934 -371 
Q 806 -224 678 -128 
Q 550 -32 371 38 
Q 614 186 825 349 
Q 1037 512 1225 697 
Q 1414 883 1590 1097 
Q 1766 1312 1933 1574 
Q 2093 1818 2240 2112 
Q 2387 2406 2508 2710 
Q 2630 3014 2716 3305 
Q 2803 3597 2842 3834 
z
" transform="scale(0.015625)"/>
      <path id="STHeitiSC-Medium-5a" d="M 3078 384 
L 2432 384 
L 1530 1766 
L 634 384 
L 0 384 
L 1210 2221 
L 122 3872 
L 762 3872 
L 1530 2682 
L 2291 3872 
L 2931 3872 
L 1850 2227 
L 3078 384 
z
" transform="scale(0.015625)"/>
     </defs>
     <use xlink:href="#STHeitiSC-Medium-8a9"/>
     <use xlink:href="#STHeitiSC-Medium-24d" transform="translate(100 0)"/>
     <use xlink:href="#STHeitiSC-Medium-3" transform="translate(200 0)"/>
     <use xlink:href="#STHeitiSC-Medium-5a" transform="translate(225 0)"/>
    </g>
    <!-- Shard(1)  [B,S/tp,H] -->
    <g style="fill: #212121" transform="translate(315.728437 97.810099) scale(0.09 -0.09)">
     <defs>
      <path id="STHeitiSC-Medium-3d" d="M 2003 -672 
L 864 -672 
L 864 5370 
L 2003 5370 
L 2003 4838 
L 1389 4838 
L 1389 -154 
L 2003 -154 
L 2003 -672 
z
" transform="scale(0.015625)"/>
      <path id="STHeitiSC-Medium-e" d="M 1408 1414 
L 736 154 
L 346 320 
L 902 1658 
L 1408 1414 
z
" transform="scale(0.015625)"/>
      <path id="STHeitiSC-Medium-11" d="M 2675 5504 
L 736 77 
L 160 77 
L 2099 5504 
L 2675 5504 
z
" transform="scale(0.015625)"/>
      <path id="STHeitiSC-Medium-2a" d="M 3859 384 
L 3309 384 
L 3309 2605 
L 1062 2605 
L 1062 384 
L 506 384 
L 506 5069 
L 1062 5069 
L 1062 3142 
L 3309 3142 
L 3309 5069 
L 3859 5069 
L 3859 384 
z
" transform="scale(0.015625)"/>
      <path id="STHeitiSC-Medium-3f" d="M 1382 -672 
L 243 -672 
L 243 -154 
L 858 -154 
L 858 4838 
L 243 4838 
L 243 5370 
L 1382 5370 
L 1382 -672 
z
" transform="scale(0.015625)"/>
     </defs>
     <use xlink:href="#STHeitiSC-Medium-35"/>
     <use xlink:href="#STHeitiSC-Medium-4a" transform="translate(49.796875 0)"/>
     <use xlink:href="#STHeitiSC-Medium-43" transform="translate(110.796875 0)"/>
     <use xlink:href="#STHeitiSC-Medium-54" transform="translate(179.09375 0)"/>
     <use xlink:href="#STHeitiSC-Medium-46" transform="translate(209.1875 0)"/>
     <use xlink:href="#STHeitiSC-Medium-a" transform="translate(277.6875 0)"/>
     <use xlink:href="#STHeitiSC-Medium-13" transform="translate(314.59375 0)"/>
     <use xlink:href="#STHeitiSC-Medium-b" transform="translate(370 0)"/>
     <use xlink:href="#STHeitiSC-Medium-3" transform="translate(406.90625 0)"/>
     <use xlink:href="#STHeitiSC-Medium-3" transform="translate(431.90625 0)"/>
     <use xlink:href="#STHeitiSC-Medium-3d" transform="translate(456.90625 0)"/>
     <use xlink:href="#STHeitiSC-Medium-24" transform="translate(492 0)"/>
     <use xlink:href="#STHeitiSC-Medium-e" transform="translate(549.40625 0)"/>
     <use xlink:href="#STHeitiSC-Medium-35" transform="translate(577.109375 0)"/>
     <use xlink:href="#STHeitiSC-Medium-11" transform="translate(626.90625 0)"/>
     <use xlink:href="#STHeitiSC-Medium-56" transform="translate(670.609375 0)"/>
     <use xlink:href="#STHeitiSC-Medium-52" transform="translate(704.515625 0)"/>
     <use xlink:href="#STHeitiSC-Medium-e" transform="translate(772.71875 0)"/>
     <use xlink:href="#STHeitiSC-Medium-2a" transform="translate(800.421875 0)"/>
     <use xlink:href="#STHeitiSC-Medium-3f" transform="translate(868.71875 0)"/>
    </g>
   </g>
   <g id="text_12">
    <!-- 输出 -->
    <g style="fill: #212121" transform="translate(347.4 754.776336) scale(0.09 -0.09)">
     <defs>
      <path id="STHeitiSC-Medium-15c" d="M 3430 2438 
L 3430 262 
L 4909 307 
L 4909 1267 
Q 4909 1466 4899 1610 
Q 4890 1754 4870 1888 
Q 5056 1856 5193 1843 
Q 5331 1830 5491 1843 
Q 5613 1850 5542 1779 
Q 5498 1734 5478 1580 
Q 5459 1427 5459 1261 
L 5459 38 
Q 5459 -147 5465 -313 
Q 5472 -480 5485 -672 
L 4870 -672 
Q 4896 -435 4909 -166 
L 2970 -224 
Q 2394 -243 2035 -256 
Q 1677 -269 1446 -281 
Q 1216 -294 1072 -307 
Q 928 -320 781 -333 
Q 794 -224 803 -83 
Q 813 58 813 192 
L 813 1459 
Q 813 1613 806 1744 
Q 800 1875 787 1952 
Q 947 1920 1104 1901 
Q 1261 1882 1408 1894 
Q 1517 1901 1453 1805 
Q 1414 1741 1392 1587 
Q 1370 1434 1370 1325 
L 1370 198 
L 2874 243 
L 2874 2438 
L 2099 2438 
Q 1984 2438 1837 2432 
Q 1690 2426 1546 2416 
Q 1402 2406 1264 2393 
Q 1126 2381 1030 2368 
Q 1056 2515 1069 2656 
Q 1082 2797 1082 2938 
L 1082 3942 
Q 1082 4096 1072 4240 
Q 1062 4384 1030 4512 
Q 1235 4480 1427 4473 
Q 1619 4467 1702 4480 
Q 1792 4493 1798 4477 
Q 1805 4461 1741 4390 
Q 1722 4371 1702 4313 
Q 1683 4256 1664 4189 
Q 1645 4122 1635 4054 
Q 1626 3987 1626 3949 
L 1626 2899 
L 2874 2899 
L 2874 4262 
Q 2874 4358 2870 4476 
Q 2867 4595 2864 4710 
Q 2861 4826 2851 4931 
Q 2842 5037 2829 5114 
Q 3258 5024 3514 5043 
Q 3603 5050 3612 5030 
Q 3622 5011 3565 4954 
Q 3539 4928 3513 4854 
Q 3488 4781 3469 4681 
Q 3450 4582 3440 4473 
Q 3430 4365 3430 4269 
L 3430 2899 
L 4794 2899 
L 4794 3942 
Q 4794 4141 4781 4285 
Q 4768 4429 4736 4563 
Q 5114 4493 5357 4525 
Q 5440 4538 5453 4518 
Q 5466 4499 5434 4442 
Q 5382 4352 5360 4227 
Q 5338 4102 5338 3936 
L 5338 2778 
Q 5338 2592 5344 2445 
Q 5350 2298 5363 2138 
L 4749 2138 
Q 4762 2208 4774 2288 
Q 4787 2368 4794 2438 
L 3430 2438 
z
" transform="scale(0.015625)"/>
     </defs>
     <use xlink:href="#STHeitiSC-Medium-8a9"/>
     <use xlink:href="#STHeitiSC-Medium-15c" transform="translate(100 0)"/>
    </g>
    <!-- Shard(1)  [B,S/tp,H] -->
    <g style="fill: #212121" transform="translate(315.728437 764.433055) scale(0.09 -0.09)">
     <use xlink:href="#STHeitiSC-Medium-35"/>
     <use xlink:href="#STHeitiSC-Medium-4a" transform="translate(49.796875 0)"/>
     <use xlink:href="#STHeitiSC-Medium-43" transform="translate(110.796875 0)"/>
     <use xlink:href="#STHeitiSC-Medium-54" transform="translate(179.09375 0)"/>
     <use xlink:href="#STHeitiSC-Medium-46" transform="translate(209.1875 0)"/>
     <use xlink:href="#STHeitiSC-Medium-a" transform="translate(277.6875 0)"/>
     <use xlink:href="#STHeitiSC-Medium-13" transform="translate(314.59375 0)"/>
     <use xlink:href="#STHeitiSC-Medium-b" transform="translate(370 0)"/>
     <use xlink:href="#STHeitiSC-Medium-3" transform="translate(406.90625 0)"/>
     <use xlink:href="#STHeitiSC-Medium-3" transform="translate(431.90625 0)"/>
     <use xlink:href="#STHeitiSC-Medium-3d" transform="translate(456.90625 0)"/>
     <use xlink:href="#STHeitiSC-Medium-24" transform="translate(492 0)"/>
     <use xlink:href="#STHeitiSC-Medium-e" transform="translate(549.40625 0)"/>
     <use xlink:href="#STHeitiSC-Medium-35" transform="translate(577.109375 0)"/>
     <use xlink:href="#STHeitiSC-Medium-11" transform="translate(626.90625 0)"/>
     <use xlink:href="#STHeitiSC-Medium-56" transform="translate(670.609375 0)"/>
     <use xlink:href="#STHeitiSC-Medium-52" transform="translate(704.515625 0)"/>
     <use xlink:href="#STHeitiSC-Medium-e" transform="translate(772.71875 0)"/>
     <use xlink:href="#STHeitiSC-Medium-2a" transform="translate(800.421875 0)"/>
     <use xlink:href="#STHeitiSC-Medium-3f" transform="translate(868.71875 0)"/>
    </g>
   </g>
   <g id="patch_14">
    <path d="M 356.4 115.311532 
Q 356.4 140.245869 356.4 163.503155 
" style="fill: none; stroke: #424242; stroke-width: 1.5; stroke-linecap: round"/>
    <path d="M 358.4 159.503155 
L 356.4 163.503155 
L 354.4 159.503155 
" style="fill: none; stroke: #424242; stroke-width: 1.5; stroke-linecap: round"/>
   </g>
   <g id="patch_15">
    <path d="M 356.4 216.310079 
Q 356.4 224.409575 356.4 230.832021 
" style="fill: none; stroke: #424242; stroke-width: 1.5; stroke-linecap: round"/>
    <path d="M 358.4 226.832021 
L 356.4 230.832021 
L 354.4 226.832021 
" style="fill: none; stroke: #424242; stroke-width: 1.5; stroke-linecap: round"/>
   </g>
   <g id="patch_16">
    <path d="M 356.4 283.645731 
Q 356.4 291.745227 356.4 298.167673 
" style="fill: none; stroke: #424242; stroke-width: 1.5; stroke-linecap: round"/>
    <path d="M 358.4 294.167673 
L 356.4 298.167673 
L 354.4 294.167673 
" style="fill: none; stroke: #424242; stroke-width: 1.5; stroke-linecap: round"/>
   </g>
   <g id="patch_17">
    <path d="M 356.4 350.982739 
Q 356.4 378.27457 356.4 403.88935 
" style="fill: none; stroke: #424242; stroke-width: 1.5; stroke-linecap: round"/>
    <path d="M 358.4 399.88935 
L 356.4 403.88935 
L 354.4 399.88935 
" style="fill: none; stroke: #424242; stroke-width: 1.5; stroke-linecap: round"/>
   </g>
   <g id="patch_18">
    <path d="M 356.4 447.276298 
Q 356.4 447.632405 356.4 446.311461 
" style="fill: none; stroke: #424242; stroke-width: 1.5; stroke-linecap: round"/>
    <path d="M 358.4 442.311461 
L 356.4 446.311461 
L 354.4 442.311461 
" style="fill: none; stroke: #424242; stroke-width: 1.5; stroke-linecap: round"/>
   </g>
   <g id="patch_19">
    <path d="M 356.4 499.119818 
Q 356.4 507.219314 356.4 513.64176 
" style="fill: none; stroke: #424242; stroke-width: 1.5; stroke-linecap: round"/>
    <path d="M 358.4 509.64176 
L 356.4 513.64176 
L 354.4 509.64176 
" style="fill: none; stroke: #424242; stroke-width: 1.5; stroke-linecap: round"/>
   </g>
   <g id="patch_20">
    <path d="M 356.4 566.45547 
Q 356.4 574.554967 356.4 580.977412 
" style="fill: none; stroke: #424242; stroke-width: 1.5; stroke-linecap: round"/>
    <path d="M 358.4 576.977412 
L 356.4 580.977412 
L 354.4 576.977412 
" style="fill: none; stroke: #424242; stroke-width: 1.5; stroke-linecap: round"/>
   </g>
   <g id="patch_21">
    <path d="M 356.4 633.792479 
Q 356.4 661.084309 356.4 686.699089 
" style="fill: none; stroke: #424242; stroke-width: 1.5; stroke-linecap: round"/>
    <path d="M 358.4 682.699089 
L 356.4 686.699089 
L 354.4 682.699089 
" style="fill: none; stroke: #424242; stroke-width: 1.5; stroke-linecap: round"/>
   </g>
   <g id="patch_22">
    <path d="M 356.4 730.082585 
Q 356.4 742.224265 356.4 752.688895 
" style="fill: none; stroke: #424242; stroke-width: 1.5; stroke-linecap: round"/>
    <path d="M 358.4 748.688895 
L 356.4 752.688895 
L 354.4 748.688895 
" style="fill: none; stroke: #424242; stroke-width: 1.5; stroke-linecap: round"/>
   </g>
   <g id="patch_23">
    <path d="M 471.255176 91.011973 
Q 308.726104 225.256082 376.743318 422.41972 
" style="fill: none; stroke-dasharray: 7.4,3.2; stroke-dashoffset: 0; stroke: #90a4ae; stroke-width: 2; stroke-linecap: round"/>
    <path d="M 377.329503 417.986168 
L 376.743318 422.41972 
L 373.548187 419.29064 
" style="fill: none; stroke-dasharray: 7.4,3.2; stroke-dashoffset: 0; stroke: #90a4ae; stroke-width: 2; stroke-linecap: round"/>
   </g>
   <g id="patch_24">
    <path d="M 471.387614 427.835569 
Q 355.604839 544.440059 377.550013 705.035546 
" style="fill: none; stroke-dasharray: 7.4,3.2; stroke-dashoffset: 0; stroke: #90a4ae; stroke-width: 2; stroke-linecap: round"/>
    <path d="M 378.990036 700.801596 
L 377.550013 705.035546 
L 375.026866 701.343158 
" style="fill: none; stroke-dasharray: 7.4,3.2; stroke-dashoffset: 0; stroke: #90a4ae; stroke-width: 2; stroke-linecap: round"/>
   </g>
   <g id="text_13">
    <!-- x -->
    <g style="fill: #90a4ae" transform="translate(538.76 268.181217) scale(0.1 -0.1)">
     <use xlink:href="#STHeitiSC-Medium-5a"/>
    </g>
   </g>
   <g id="text_14">
    <!-- h -->
    <g style="fill: #90a4ae" transform="translate(511.6 584.658783) scale(0.1 -0.1)">
     <use xlink:href="#STHeitiSC-Medium-4a"/>
    </g>
   </g>
   <g id="text_15">
    <!-- 序列并行下 TransformerBlock 数据流 -->
    <g transform="translate(239.886094 19.24) scale(0.14 -0.14)">
     <use xlink:href="#STHeitiSC-Medium-6d6"/>
     <use xlink:href="#STHeitiSC-Medium-509" transform="translate(100 0)"/>
     <use xlink:href="#STHeitiSC-Medium-2c4" transform="translate(200 0)"/>
     <use xlink:href="#STHeitiSC-Medium-1c4" transform="translate(300 0)"/>
     <use xlink:href="#STHeitiSC-Medium-12a" transform="translate(400 0)"/>
     <use xlink:href="#STHeitiSC-Medium-3" transform="translate(500 0)"/>
     <use xlink:href="#STHeitiSC-Medium-36" transform="translate(525 0)"/>
     <use xlink:href="#STHeitiSC-Medium-54" transform="translate(567.59375 0)"/>
     <use xlink:href="#STHeitiSC-Medium-43" transform="translate(597.6875 0)"/>
     <use xlink:href="#STHeitiSC-Medium-50" transform="translate(665.984375 0)"/>
     <use xlink:href="#STHeitiSC-Medium-55" transform="translate(726.984375 0)"/>
     <use xlink:href="#STHeitiSC-Medium-48" transform="translate(765.78125 0)"/>
     <use xlink:href="#STHeitiSC-Medium-51" transform="translate(797.1875 0)"/>
     <use xlink:href="#STHeitiSC-Medium-54" transform="translate(862.6875 0)"/>
     <use xlink:href="#STHeitiSC-Medium-4f" transform="translate(892.78125 0)"/>
     <use xlink:href="#STHeitiSC-Medium-47" transform="translate(986.578125 0)"/>
     <use xlink:href="#STHeitiSC-Medium-54" transform="translate(1051.578125 0)"/>
     <use xlink:href="#STHeitiSC-Medium-24" transform="translate(1081.671875 0)"/>
     <use xlink:href="#STHeitiSC-Medium-4e" transform="translate(1139.078125 0)"/>
     <use xlink:href="#STHeitiSC-Medium-51" transform="translate(1159.078125 0)"/>
     <use xlink:href="#STHeitiSC-Medium-45" transform="translate(1224.578125 0)"/>
     <use xlink:href="#STHeitiSC-Medium-4d" transform="translate(1289.28125 0)"/>
     <use xlink:href="#STHeitiSC-Medium-3" transform="translate(1339.484375 0)"/>
     <use xlink:href="#STHeitiSC-Medium-33e" transform="translate(1364.484375 0)"/>
     <use xlink:href="#STHeitiSC-Medium-5aa" transform="translate(1464.484375 0)"/>
     <use xlink:href="#STHeitiSC-Medium-239" transform="translate(1564.484375 0)"/>
    </g>
   </g>
   <g id="patch_25">
    <path d="M 356.4 445.273983 
C 362.162333 445.273983 367.689431 443.287408 371.764016 439.751779 
C 375.838601 436.21615 378.128 431.420135 378.128 426.42 
C 378.128 421.419865 375.838601 416.62385 371.764016 413.088221 
C 367.689431 409.552592 362.162333 407.566017 356.4 407.566017 
C 350.637667 407.566017 345.110569 409.552592 341.035984 413.088221 
C 336.961399 416.62385 334.672 421.419865 334.672 426.42 
C 334.672 431.420135 336.961399 436.21615 341.035984 439.751779 
C 345.110569 443.287408 350.637667 445.273983 356.4 445.273983 
z
" clip-path="url(#pc92e76cbd5)" style="fill: #eceff1; stroke: #607d8b; stroke-width: 2; stroke-linejoin: miter"/>
   </g>
   <g id="patch_26">
    <path d="M 356.4 728.083722 
C 362.162333 728.083722 367.689431 726.097147 371.764016 722.561518 
C 375.838601 719.025889 378.128 714.229874 378.128 709.229739 
C 378.128 704.229604 375.838601 699.433589 371.764016 695.89796 
C 367.689431 692.362331 362.162333 690.375757 356.4 690.375757 
C 350.637667 690.375757 345.110569 692.362331 341.035984 695.89796 
C 336.961399 699.433589 334.672 704.229604 334.672 709.229739 
C 334.672 714.229874 336.961399 719.025889 341.035984 722.561518 
C 345.110569 726.097147 350.637667 728.083722 356.4 728.083722 
z
" clip-path="url(#pc92e76cbd5)" style="fill: #eceff1; stroke: #607d8b; stroke-width: 2; stroke-linejoin: miter"/>
   </g>
   <g id="text_16">
    <!-- + -->
    <g style="fill: #607d8b" transform="translate(352.158437 431.46) scale(0.14 -0.14)">
     <use xlink:href="#STHeitiSC-Medium-d"/>
    </g>
   </g>
   <g id="text_17">
    <!-- + -->
    <g style="fill: #607d8b" transform="translate(352.158437 714.269739) scale(0.14 -0.14)">
     <use xlink:href="#STHeitiSC-Medium-d"/>
    </g>
   </g>
  </g>
 </g>
 <defs>
  <clipPath id="pc92e76cbd5">
   <rect x="7.2" y="39.24" width="698.4" height="774.36"/>
  </clipPath>
 </defs>
</svg>
