<?xml version="1.0" encoding="utf-8" standalone="no"?>
<!DOCTYPE svg PUBLIC "-//W3C//DTD SVG 1.1//EN"
  "http://www.w3.org/Graphics/SVG/1.1/DTD/svg11.dtd">
<svg xmlns:xlink="http://www.w3.org/1999/xlink" width="684pt" height="148.32pt" viewBox="0 0 684 148.32" xmlns="http://www.w3.org/2000/svg" version="1.1">
 <metadata>
  <rdf:RDF xmlns:dc="http://purl.org/dc/elements/1.1/" xmlns:cc="http://creativecommons.org/ns#" xmlns:rdf="http://www.w3.org/1999/02/22-rdf-syntax-ns#">
   <cc:Work>
    <dc:type rdf:resource="http://purl.org/dc/dcmitype/StillImage"/>
    <dc:date>2026-07-13T10:45:13.830164</dc:date>
    <dc:format>image/svg+xml</dc:format>
    <dc:creator>
     <cc:Agent>
      <dc:title>Matplotlib v3.11.0, https://matplotlib.org/</dc:title>
     </cc:Agent>
    </dc:creator>
   </cc:Work>
  </rdf:RDF>
 </metadata>
 <defs>
  <style type="text/css">*{stroke-linejoin: round; stroke-linecap: butt}</style>
 </defs>
 <g id="figure_1">
  <g id="patch_1">
   <path d="M 0 148.32 
L 684 148.32 
L 684 0 
L 0 0 
z
" style="fill: #ffffff"/>
  </g>
  <g id="axes_1">
   <g id="patch_2">
    <path d="M 38.448 108.756 
L 176.832 108.756 
Q 181.296 108.756 181.296 104.292 
L 181.296 44.028 
Q 181.296 39.564 176.832 39.564 
L 38.448 39.564 
Q 33.984 39.564 33.984 44.028 
L 33.984 104.292 
Q 33.984 108.756 38.448 108.756 
z
" clip-path="url(#pa4f2f9911e)" style="fill: #e3f2fd; stroke: #1565c0; stroke-width: 2; stroke-linejoin: miter"/>
   </g>
   <g id="patch_3">
    <path d="M 222.588 108.756 
L 338.652 108.756 
Q 343.116 108.756 343.116 104.292 
L 343.116 44.028 
Q 343.116 39.564 338.652 39.564 
L 222.588 39.564 
Q 218.124 39.564 218.124 44.028 
L 218.124 104.292 
Q 218.124 108.756 222.588 108.756 
z
" clip-path="url(#pa4f2f9911e)" style="fill: #fff3e0; stroke: #ef6c00; stroke-width: 2; stroke-linejoin: miter"/>
   </g>
   <g id="patch_4">
    <path d="M 373.248 108.756 
L 522.792 108.756 
Q 527.256 108.756 527.256 104.292 
L 527.256 44.028 
Q 527.256 39.564 522.792 39.564 
L 373.248 39.564 
Q 368.784 39.564 368.784 44.028 
L 368.784 104.292 
Q 368.784 108.756 373.248 108.756 
z
" clip-path="url(#pa4f2f9911e)" style="fill: #ffebee; stroke: #c62828; stroke-width: 2; stroke-linejoin: miter"/>
   </g>
   <g id="patch_5">
    <path d="M 557.388 108.756 
L 662.292 108.756 
Q 666.756 108.756 666.756 104.292 
L 666.756 44.028 
Q 666.756 39.564 662.292 39.564 
L 557.388 39.564 
Q 552.924 39.564 552.924 44.028 
L 552.924 104.292 
Q 552.924 108.756 557.388 108.756 
z
" clip-path="url(#pa4f2f9911e)" style="fill: #e8f5e9; stroke: #2e7d32; stroke-width: 2; stroke-linejoin: miter"/>
   </g>
   <g id="text_1">
    <!-- 大规模 -->
    <g style="fill: #212121" transform="translate(91.14 72.455) scale(0.11 -0.11)">
     <defs>
      <path id="STHeitiSC-Medium-119" d="M 3283 2240 
Q 3245 2054 3200 1897 
Q 3155 1741 3097 1600 
Q 3040 1459 2973 1321 
Q 2906 1184 2829 1043 
Q 2598 614 2112 204 
Q 1626 -205 928 -550 
Q 819 -384 694 -275 
Q 570 -166 384 -58 
Q 691 32 940 134 
Q 1190 237 1401 365 
Q 1613 493 1801 656 
Q 1990 819 2182 1030 
Q 2451 1318 2624 1792 
Q 2797 2266 2848 2963 
Q 2131 2957 1587 2944 
Q 1043 2931 640 2906 
L 640 3520 
Q 1056 3488 1603 3475 
Q 2150 3462 2874 3456 
Q 2899 4051 2896 4435 
Q 2893 4819 2867 5094 
Q 3053 5069 3245 5056 
Q 3437 5043 3597 5056 
Q 3674 5062 3683 5036 
Q 3693 5011 3622 4960 
Q 3565 4915 3542 4822 
Q 3520 4730 3507 4582 
Q 3488 4262 3469 3971 
Q 3450 3680 3430 3456 
Q 4205 3456 4784 3472 
Q 5363 3488 5792 3520 
L 5792 2906 
Q 5357 2938 4771 2950 
Q 4186 2963 3398 2963 
Q 3526 2381 3811 1865 
Q 4096 1350 4518 934 
Q 4813 646 5213 438 
Q 5613 230 6016 173 
Q 5824 38 5696 -128 
Q 5568 -294 5478 -512 
Q 5267 -410 5049 -262 
Q 4832 -115 4630 51 
Q 4429 218 4256 397 
Q 4083 576 3962 742 
Q 3725 1062 3568 1417 
Q 3411 1773 3283 2240 
z
" transform="scale(0.015625)"/>
      <path id="STHeitiSC-Medium-72a" d="M 6214 307 
Q 6118 19 6032 -147 
Q 5946 -314 5830 -397 
Q 5715 -480 5545 -499 
Q 5376 -518 5101 -518 
Q 4877 -518 4749 -502 
Q 4621 -486 4560 -425 
Q 4499 -365 4483 -233 
Q 4467 -102 4467 128 
L 4467 1235 
Q 4467 1363 4457 1484 
Q 4448 1606 4429 1715 
Q 4544 1702 4694 1699 
Q 4845 1696 4928 1702 
Q 5018 1709 5037 1683 
Q 5056 1658 4986 1606 
Q 4915 1555 4915 1446 
L 4915 134 
Q 4915 19 4950 -9 
Q 4986 -38 5152 -38 
Q 5312 -38 5411 -9 
Q 5510 19 5568 89 
Q 5626 160 5648 288 
Q 5670 416 5690 614 
Q 5830 467 5945 403 
Q 6061 339 6214 307 
z
M 4653 3539 
Q 4634 3514 4614 3462 
Q 4595 3411 4576 3308 
Q 4557 3206 4541 3043 
Q 4525 2880 4506 2637 
Q 4454 1958 4310 1456 
Q 4166 954 3916 570 
Q 3667 186 3296 -102 
Q 2925 -390 2413 -640 
Q 2240 -365 1978 -218 
Q 2483 -45 2838 185 
Q 3194 416 3430 710 
Q 3667 1005 3798 1373 
Q 3930 1741 3981 2182 
Q 4006 2413 4022 2656 
Q 4038 2899 4044 3113 
Q 4051 3328 4044 3488 
Q 4038 3648 4026 3718 
Q 4134 3667 4310 3651 
Q 4486 3635 4634 3648 
Q 4678 3654 4684 3619 
Q 4691 3584 4653 3539 
z
M 5190 1395 
L 5190 4256 
L 3558 4256 
L 3558 1408 
L 3008 1408 
Q 3027 1549 3036 1670 
Q 3046 1792 3056 1907 
Q 3066 2022 3069 2147 
Q 3072 2272 3072 2426 
L 3072 4224 
Q 3072 4384 3062 4515 
Q 3053 4646 3027 4774 
Q 3123 4762 3228 4749 
Q 3334 4736 3488 4726 
Q 3642 4717 3859 4713 
Q 4077 4710 4390 4710 
Q 4710 4710 4931 4713 
Q 5152 4717 5309 4726 
Q 5466 4736 5568 4749 
Q 5670 4762 5754 4774 
Q 5728 4672 5721 4550 
Q 5715 4429 5715 4224 
L 5715 2413 
Q 5715 2253 5718 2121 
Q 5722 1990 5728 1868 
Q 5734 1747 5747 1632 
Q 5760 1517 5773 1395 
L 5190 1395 
z
M 1971 3571 
Q 1971 3328 1964 3056 
Q 1958 2784 1939 2541 
Q 2246 2547 2473 2560 
Q 2701 2573 2816 2592 
L 2816 2074 
Q 2701 2086 2461 2096 
Q 2221 2106 1894 2112 
Q 1882 1997 1862 1888 
Q 1843 1779 1824 1670 
Q 1997 1555 2141 1446 
Q 2285 1338 2425 1226 
Q 2566 1114 2704 995 
Q 2842 877 2995 736 
L 2554 358 
Q 2362 614 2160 825 
Q 1958 1037 1722 1235 
Q 1568 672 1305 253 
Q 1043 -166 672 -499 
Q 576 -384 454 -291 
Q 333 -198 179 -134 
Q 474 109 685 342 
Q 896 576 1040 838 
Q 1184 1101 1270 1411 
Q 1357 1722 1402 2112 
Q 1024 2106 793 2096 
Q 563 2086 416 2074 
L 416 2592 
Q 576 2573 825 2560 
Q 1075 2547 1440 2541 
Q 1453 2778 1462 3050 
Q 1472 3322 1472 3571 
Q 1139 3565 931 3552 
Q 723 3539 602 3526 
L 602 4045 
Q 736 4026 947 4013 
Q 1158 4000 1478 3994 
Q 1478 4448 1472 4707 
Q 1466 4966 1440 5152 
Q 1645 5107 1801 5088 
Q 1958 5069 2106 5069 
Q 2182 5069 2188 5043 
Q 2195 5018 2125 4979 
Q 2048 4934 2016 4685 
Q 2003 4550 1996 4396 
Q 1990 4243 1984 3994 
Q 2240 4000 2438 4013 
Q 2637 4026 2733 4045 
L 2733 3526 
Q 2630 3539 2435 3548 
Q 2240 3558 1971 3571 
z
" transform="scale(0.015625)"/>
      <path id="STHeitiSC-Medium-663" d="M 5165 3117 
L 3194 3117 
L 3194 2720 
L 5165 2720 
L 5165 3117 
z
M 3194 1952 
L 5165 1952 
L 5165 2355 
L 3194 2355 
L 3194 1952 
z
M 3808 4013 
L 3808 3482 
L 4506 3482 
L 4506 4013 
L 3808 4013 
z
M 4954 4397 
Q 5299 4397 5593 4406 
Q 5888 4416 6093 4448 
L 6093 3955 
Q 5888 3987 5593 4000 
Q 5299 4013 4954 4013 
L 4954 3482 
Q 5152 3488 5318 3494 
Q 5485 3501 5645 3514 
Q 5632 3322 5625 3078 
Q 5619 2835 5619 2560 
Q 5619 2310 5625 2054 
Q 5632 1798 5645 1562 
Q 5510 1568 5372 1574 
Q 5235 1581 5072 1584 
Q 4909 1587 4710 1587 
Q 4512 1587 4262 1587 
Q 4250 1466 4234 1360 
Q 4218 1254 4192 1152 
Q 4570 1152 4848 1155 
Q 5126 1158 5340 1168 
Q 5555 1178 5731 1187 
Q 5907 1197 6080 1216 
L 6080 717 
Q 5914 736 5744 749 
Q 5574 762 5382 768 
Q 5190 774 4963 777 
Q 4736 781 4461 781 
Q 4762 365 5165 189 
Q 5568 13 6131 -26 
Q 5984 -173 5913 -310 
Q 5843 -448 5830 -634 
Q 5530 -544 5267 -425 
Q 5005 -307 4784 -144 
Q 4563 19 4387 240 
Q 4211 461 4083 762 
Q 3994 525 3853 329 
Q 3712 134 3501 -29 
Q 3290 -192 2998 -336 
Q 2707 -480 2323 -614 
Q 2272 -486 2198 -364 
Q 2125 -243 1997 -115 
Q 2349 -38 2614 48 
Q 2880 134 3075 240 
Q 3270 346 3401 480 
Q 3533 614 3610 781 
Q 3117 781 2790 761 
Q 2464 742 2202 717 
L 2202 1216 
Q 2330 1203 2467 1190 
Q 2605 1178 2777 1171 
Q 2950 1165 3180 1158 
Q 3411 1152 3718 1152 
Q 3731 1254 3740 1360 
Q 3750 1466 3750 1587 
Q 3411 1587 3171 1584 
Q 2931 1581 2726 1568 
Q 2739 1798 2742 2054 
Q 2746 2310 2746 2560 
Q 2746 3091 2726 3514 
Q 2874 3501 3024 3494 
Q 3174 3488 3360 3482 
L 3360 4013 
Q 3091 4000 2864 3990 
Q 2637 3981 2470 3955 
L 2470 4448 
Q 2643 4422 2867 4412 
Q 3091 4403 3360 4397 
Q 3360 4787 3322 5050 
Q 3450 5037 3590 5024 
Q 3731 5011 3853 5011 
Q 3910 5011 3920 4982 
Q 3930 4954 3878 4922 
Q 3834 4896 3821 4870 
Q 3808 4845 3808 4787 
L 3808 4397 
L 4506 4397 
Q 4506 4582 4496 4752 
Q 4486 4922 4467 5050 
Q 4595 5037 4736 5024 
Q 4877 5011 4998 5011 
Q 5056 5011 5065 4982 
Q 5075 4954 5024 4922 
Q 4979 4896 4966 4870 
Q 4954 4845 4954 4787 
L 4954 4397 
z
M 2093 2707 
Q 2362 2240 2566 1786 
L 2150 1568 
Q 2093 1792 1977 2048 
Q 1862 2304 1734 2502 
L 2093 2707 
z
M 1235 2253 
Q 1107 1843 966 1523 
Q 826 1203 659 928 
Q 589 1088 496 1174 
Q 403 1261 262 1344 
Q 422 1517 553 1699 
Q 685 1882 800 2112 
Q 915 2342 1017 2633 
Q 1120 2925 1229 3309 
Q 1005 3302 838 3289 
Q 672 3277 525 3258 
L 525 3750 
Q 672 3725 841 3715 
Q 1011 3706 1235 3699 
Q 1235 3962 1232 4163 
Q 1229 4365 1222 4521 
Q 1216 4678 1206 4800 
Q 1197 4922 1184 5030 
Q 1350 5011 1475 5008 
Q 1600 5005 1747 5018 
Q 1843 5030 1859 4985 
Q 1875 4941 1786 4858 
Q 1741 4819 1728 4780 
Q 1715 4742 1715 4685 
L 1715 3699 
Q 1952 3706 2125 3715 
Q 2298 3725 2445 3750 
L 2445 3258 
Q 2298 3277 2125 3289 
Q 1952 3302 1715 3302 
L 1715 595 
Q 1715 339 1731 22 
Q 1747 -294 1779 -608 
L 1171 -608 
Q 1203 -294 1219 22 
Q 1235 339 1235 595 
L 1235 2253 
z
" transform="scale(0.015625)"/>
     </defs>
     <use xlink:href="#STHeitiSC-Medium-119"/>
     <use xlink:href="#STHeitiSC-Medium-72a" transform="translate(100 0)"/>
     <use xlink:href="#STHeitiSC-Medium-663" transform="translate(200 0)"/>
    </g>
    <!-- Transformer 模型 -->
    <g style="fill: #212121" transform="translate(64.648047 83.785) scale(0.11 -0.11)">
     <defs>
      <path id="STHeitiSC-Medium-36" d="M 2669 4531 
L 1645 4531 
L 1645 384 
L 1088 384 
L 1088 4531 
L 58 4531 
L 58 5069 
L 2669 5069 
L 2669 4531 
z
" transform="scale(0.015625)"/>
      <path id="STHeitiSC-Medium-54" d="M 1914 3821 
L 1638 3373 
Q 1530 3430 1427 3430 
Q 1229 3430 1069 3235 
Q 909 3040 829 2723 
Q 749 2406 749 1581 
L 749 384 
L 211 384 
L 211 3872 
L 749 3872 
L 749 3494 
Q 909 3731 1072 3846 
Q 1235 3962 1443 3962 
Q 1651 3962 1914 3821 
z
" transform="scale(0.015625)"/>
      <path id="STHeitiSC-Medium-43" d="M 3917 384 
L 3398 384 
L 3398 896 
Q 2829 269 2086 269 
Q 1344 269 816 816 
Q 288 1363 288 2121 
Q 288 2880 819 3421 
Q 1350 3962 2115 3962 
Q 2880 3962 3398 3341 
L 3398 3872 
L 3917 3872 
L 3917 384 
z
M 2125 762 
Q 2656 762 3040 1146 
Q 3424 1530 3424 2102 
Q 3424 2675 3046 3062 
Q 2669 3450 2121 3450 
Q 1574 3450 1196 3050 
Q 819 2650 819 2106 
Q 819 1562 1203 1162 
Q 1587 762 2125 762 
z
" transform="scale(0.015625)"/>
      <path id="STHeitiSC-Medium-50" d="M 3501 384 
L 2976 384 
L 2976 2048 
Q 2976 2624 2921 2832 
Q 2867 3040 2761 3184 
Q 2656 3328 2493 3398 
Q 2330 3469 2096 3469 
Q 1862 3469 1638 3353 
Q 1414 3238 1254 3033 
Q 1094 2829 1033 2598 
Q 973 2368 973 1677 
L 973 384 
L 442 384 
L 442 3872 
L 973 3872 
L 973 3347 
Q 1491 3962 2202 3962 
Q 2579 3962 2886 3766 
Q 3194 3571 3347 3228 
Q 3501 2886 3501 2176 
L 3501 384 
z
" transform="scale(0.015625)"/>
      <path id="STHeitiSC-Medium-55" d="M 2259 3462 
L 1920 3110 
Q 1542 3462 1229 3462 
Q 1030 3462 896 3337 
Q 762 3213 762 3030 
Q 762 2848 912 2710 
Q 1062 2573 1446 2371 
Q 1830 2170 2038 1926 
Q 2246 1683 2246 1331 
Q 2246 883 1936 576 
Q 1626 269 1171 269 
Q 538 269 115 806 
L 448 1178 
Q 794 774 1152 774 
Q 1395 774 1568 934 
Q 1741 1094 1741 1308 
Q 1741 1523 1584 1667 
Q 1427 1811 1046 2003 
Q 666 2195 470 2428 
Q 275 2662 275 3043 
Q 275 3424 553 3693 
Q 832 3962 1289 3962 
Q 1747 3962 2259 3462 
z
" transform="scale(0.015625)"/>
      <path id="STHeitiSC-Medium-48" d="M 1933 4557 
Q 1626 4685 1453 4685 
Q 1280 4685 1229 4573 
Q 1178 4461 1178 4198 
L 1178 3872 
L 1888 3872 
L 1888 3411 
L 1178 3411 
L 1178 384 
L 646 384 
L 646 3411 
L 205 3411 
L 205 3872 
L 646 3872 
L 646 4269 
Q 646 4742 822 4963 
Q 998 5184 1376 5184 
Q 1581 5184 1933 5088 
L 1933 4557 
z
" transform="scale(0.015625)"/>
      <path id="STHeitiSC-Medium-51" d="M 2099 3962 
Q 2854 3962 3382 3418 
Q 3910 2874 3910 2112 
Q 3910 1350 3388 809 
Q 2867 269 2099 269 
Q 1331 269 806 809 
Q 282 1350 282 2112 
Q 282 2874 810 3418 
Q 1338 3962 2099 3962 
z
M 2099 774 
Q 2630 774 3004 1161 
Q 3379 1549 3379 2096 
Q 3379 2643 2998 3043 
Q 2618 3443 2096 3443 
Q 1574 3443 1196 3043 
Q 819 2643 819 2092 
Q 819 1542 1184 1158 
Q 1549 774 2099 774 
z
" transform="scale(0.015625)"/>
      <path id="STHeitiSC-Medium-4f" d="M 5613 384 
L 5075 384 
L 5075 2285 
Q 5075 2739 5020 2950 
Q 4966 3162 4784 3306 
Q 4602 3450 4304 3450 
Q 4006 3450 3744 3258 
Q 3482 3066 3379 2736 
Q 3277 2406 3277 1760 
L 3277 384 
L 2758 384 
L 2758 2170 
Q 2758 2694 2704 2924 
Q 2650 3155 2464 3302 
Q 2278 3450 1996 3450 
Q 1715 3450 1462 3274 
Q 1210 3098 1088 2813 
Q 966 2528 966 1869 
L 966 384 
L 442 384 
L 442 3872 
L 966 3872 
L 966 3379 
Q 1414 3962 2086 3962 
Q 2451 3962 2748 3766 
Q 3046 3571 3174 3213 
Q 3392 3578 3718 3770 
Q 4045 3962 4410 3962 
Q 4909 3962 5261 3610 
Q 5613 3258 5613 2285 
L 5613 384 
z
" transform="scale(0.015625)"/>
      <path id="STHeitiSC-Medium-47" d="M 3878 2035 
L 819 2035 
Q 851 1459 1206 1110 
Q 1562 762 2054 762 
Q 2893 762 3334 1587 
L 3782 1357 
Q 3482 800 3072 534 
Q 2662 269 2093 269 
Q 1306 269 794 809 
Q 282 1350 282 2112 
Q 282 2874 797 3418 
Q 1312 3962 2073 3962 
Q 2835 3962 3347 3446 
Q 3859 2931 3878 2035 
z
M 3290 2502 
Q 3194 2950 2854 3200 
Q 2515 3450 2074 3450 
Q 1178 3450 883 2502 
L 3290 2502 
z
" transform="scale(0.015625)"/>
      <path id="STHeitiSC-Medium-3" transform="scale(0.015625)"/>
      <path id="STHeitiSC-Medium-54f" d="M 3008 768 
Q 2381 768 1926 761 
Q 1472 755 1120 723 
L 1120 1248 
Q 1485 1216 1933 1209 
Q 2381 1203 3008 1203 
Q 3002 1382 2992 1529 
Q 2982 1677 2970 1760 
Q 3110 1741 3251 1731 
Q 3392 1722 3558 1722 
Q 3648 1722 3657 1690 
Q 3667 1658 3590 1606 
Q 3558 1581 3529 1513 
Q 3501 1446 3501 1389 
L 3501 1203 
Q 4109 1203 4550 1212 
Q 4992 1222 5338 1248 
L 5338 723 
Q 4992 749 4550 758 
Q 4109 768 3501 768 
L 3501 58 
Q 4346 58 4954 67 
Q 5562 77 6035 102 
L 6035 -416 
Q 5530 -390 4864 -380 
Q 4198 -371 3251 -371 
Q 2310 -371 1641 -384 
Q 973 -397 474 -416 
L 474 102 
Q 922 77 1539 67 
Q 2157 58 3008 58 
L 3008 768 
z
M 5702 4909 
Q 5670 4877 5657 4841 
Q 5645 4806 5645 4723 
L 5645 2208 
Q 5645 2016 5606 1897 
Q 5568 1779 5462 1708 
Q 5357 1638 5174 1603 
Q 4992 1568 4698 1536 
Q 4685 1715 4637 1852 
Q 4589 1990 4461 2138 
Q 4826 2067 4989 2131 
Q 5152 2195 5152 2374 
L 5152 4038 
Q 5152 4198 5149 4355 
Q 5146 4512 5136 4649 
Q 5126 4787 5116 4899 
Q 5107 5011 5101 5082 
Q 5350 5030 5658 5050 
Q 5747 5056 5756 5011 
Q 5766 4966 5702 4909 
z
M 4557 4525 
Q 4518 4493 4518 4352 
L 4518 3226 
Q 4518 3034 4524 2835 
Q 4531 2637 4550 2419 
L 4019 2419 
Q 4038 2650 4044 2842 
Q 4051 3034 4051 3226 
L 4051 3994 
Q 4051 4237 4038 4406 
Q 4026 4576 4000 4698 
Q 4147 4666 4291 4653 
Q 4435 4640 4531 4646 
Q 4602 4653 4614 4611 
Q 4627 4570 4557 4525 
z
M 1894 4410 
L 1894 3405 
L 2605 3405 
L 2605 4410 
L 1894 4410 
z
M 1408 4410 
Q 1197 4416 1005 4403 
Q 813 4390 710 4365 
L 710 4864 
Q 787 4851 899 4844 
Q 1011 4838 1180 4832 
Q 1350 4826 1590 4822 
Q 1830 4819 2163 4819 
Q 2509 4819 2752 4822 
Q 2995 4826 3161 4829 
Q 3328 4832 3433 4841 
Q 3539 4851 3610 4864 
L 3610 4365 
Q 3520 4378 3382 4387 
Q 3245 4397 3078 4403 
L 3078 3405 
Q 3283 3411 3465 3420 
Q 3648 3430 3731 3443 
L 3731 2950 
Q 3642 2963 3462 2969 
Q 3283 2976 3078 2976 
Q 3072 2746 3085 2461 
Q 3098 2176 3123 1901 
L 2560 1901 
Q 2592 2176 2601 2464 
Q 2611 2752 2605 2982 
L 1875 2982 
Q 1818 2541 1542 2137 
Q 1267 1734 710 1402 
Q 582 1670 358 1786 
Q 870 2118 1100 2400 
Q 1331 2682 1389 2982 
Q 1062 2982 825 2972 
Q 589 2963 480 2950 
L 480 3443 
Q 589 3430 838 3417 
Q 1088 3405 1408 3405 
L 1408 4410 
z
" transform="scale(0.015625)"/>
     </defs>
     <use xlink:href="#STHeitiSC-Medium-36"/>
     <use xlink:href="#STHeitiSC-Medium-54" transform="translate(42.59375 0)"/>
     <use xlink:href="#STHeitiSC-Medium-43" transform="translate(72.6875 0)"/>
     <use xlink:href="#STHeitiSC-Medium-50" transform="translate(140.984375 0)"/>
     <use xlink:href="#STHeitiSC-Medium-55" transform="translate(201.984375 0)"/>
     <use xlink:href="#STHeitiSC-Medium-48" transform="translate(240.78125 0)"/>
     <use xlink:href="#STHeitiSC-Medium-51" transform="translate(272.1875 0)"/>
     <use xlink:href="#STHeitiSC-Medium-54" transform="translate(337.6875 0)"/>
     <use xlink:href="#STHeitiSC-Medium-4f" transform="translate(367.78125 0)"/>
     <use xlink:href="#STHeitiSC-Medium-47" transform="translate(461.578125 0)"/>
     <use xlink:href="#STHeitiSC-Medium-54" transform="translate(526.578125 0)"/>
     <use xlink:href="#STHeitiSC-Medium-3" transform="translate(556.671875 0)"/>
     <use xlink:href="#STHeitiSC-Medium-663" transform="translate(581.671875 0)"/>
     <use xlink:href="#STHeitiSC-Medium-54f" transform="translate(681.671875 0)"/>
    </g>
   </g>
   <g id="text_2">
    <!-- TP / SP -->
    <g style="fill: #212121" transform="translate(263.8725 72.455) scale(0.11 -0.11)">
     <defs>
      <path id="STHeitiSC-Medium-32" d="M 512 5069 
L 1472 5069 
Q 2291 5069 2547 5005 
Q 2803 4941 3017 4774 
Q 3232 4608 3353 4358 
Q 3475 4109 3475 3795 
Q 3475 3482 3356 3232 
Q 3238 2982 3017 2819 
Q 2797 2656 2477 2589 
Q 2157 2522 1344 2522 
L 1062 2522 
L 1062 384 
L 512 384 
L 512 5069 
z
M 1062 3053 
L 1792 3053 
Q 2438 3040 2672 3257 
Q 2906 3475 2906 3802 
Q 2906 4531 1830 4531 
L 1062 4531 
L 1062 3053 
z
" transform="scale(0.015625)"/>
      <path id="STHeitiSC-Medium-11" d="M 2675 5504 
L 736 77 
L 160 77 
L 2099 5504 
L 2675 5504 
z
" transform="scale(0.015625)"/>
      <path id="STHeitiSC-Medium-35" d="M 2317 4038 
Q 2061 4384 1881 4502 
Q 1702 4621 1462 4621 
Q 1222 4621 1059 4467 
Q 896 4314 896 4074 
Q 896 3834 1049 3654 
Q 1203 3475 1756 3068 
Q 2310 2662 2566 2304 
Q 2822 1946 2822 1549 
Q 2822 1030 2422 649 
Q 2022 269 1491 269 
Q 557 269 26 1312 
L 493 1581 
Q 909 806 1427 806 
Q 1760 806 1997 1017 
Q 2234 1229 2234 1510 
Q 2234 1792 2035 2045 
Q 1837 2298 1350 2666 
Q 864 3034 681 3226 
Q 499 3418 416 3635 
Q 333 3853 333 4070 
Q 333 4538 656 4861 
Q 979 5184 1491 5184 
Q 1888 5184 2182 4982 
Q 2477 4781 2758 4384 
L 2317 4038 
z
" transform="scale(0.015625)"/>
     </defs>
     <use xlink:href="#STHeitiSC-Medium-36"/>
     <use xlink:href="#STHeitiSC-Medium-32" transform="translate(42.59375 0)"/>
     <use xlink:href="#STHeitiSC-Medium-3" transform="translate(101.796875 0)"/>
     <use xlink:href="#STHeitiSC-Medium-11" transform="translate(126.796875 0)"/>
     <use xlink:href="#STHeitiSC-Medium-3" transform="translate(170.5 0)"/>
     <use xlink:href="#STHeitiSC-Medium-35" transform="translate(195.5 0)"/>
     <use xlink:href="#STHeitiSC-Medium-32" transform="translate(245.296875 0)"/>
    </g>
    <!-- 8 GPU × NVLink -->
    <g style="fill: #212121" transform="translate(240.094453 83.785) scale(0.11 -0.11)">
     <defs>
      <path id="STHeitiSC-Medium-1a" d="M 2547 2950 
Q 3373 2522 3373 1747 
Q 3373 1114 2928 691 
Q 2483 269 1763 269 
Q 1043 269 608 691 
Q 173 1114 173 1709 
Q 173 2515 1018 2950 
Q 390 3315 390 3942 
Q 390 4435 800 4809 
Q 1210 5184 1782 5184 
Q 2355 5184 2758 4819 
Q 3162 4454 3162 3930 
Q 3162 3322 2547 2950 
z
M 1792 3181 
Q 2118 3181 2364 3411 
Q 2611 3642 2611 3939 
Q 2611 4237 2380 4445 
Q 2150 4653 1785 4653 
Q 1421 4653 1184 4445 
Q 947 4237 947 3939 
Q 947 3642 1203 3411 
Q 1459 3181 1792 3181 
z
M 1773 794 
Q 2234 794 2528 1069 
Q 2822 1344 2822 1728 
Q 2822 2112 2518 2393 
Q 2214 2675 1782 2675 
Q 1350 2675 1036 2384 
Q 723 2093 723 1699 
Q 723 1306 1014 1050 
Q 1306 794 1773 794 
z
" transform="scale(0.015625)"/>
      <path id="STHeitiSC-Medium-29" d="M 5325 2675 
Q 5306 1536 4662 902 
Q 4019 269 2970 269 
Q 1766 269 1049 1008 
Q 333 1747 333 2739 
Q 333 3731 1049 4457 
Q 1766 5184 2899 5184 
Q 3514 5184 4042 4957 
Q 4570 4730 5075 4262 
L 4653 3859 
Q 4262 4237 3808 4438 
Q 3354 4640 2874 4640 
Q 2394 4640 1920 4384 
Q 1446 4128 1177 3693 
Q 909 3258 909 2752 
Q 909 1965 1501 1379 
Q 2093 794 2982 794 
Q 3642 794 4122 1155 
Q 4602 1517 4710 2144 
L 3251 2144 
L 3251 2675 
L 5325 2675 
z
" transform="scale(0.015625)"/>
      <path id="STHeitiSC-Medium-37" d="M 3661 2253 
Q 3661 1542 3517 1161 
Q 3373 781 3005 525 
Q 2637 269 2144 269 
Q 1754 269 1440 393 
Q 1126 518 918 745 
Q 710 973 620 1251 
Q 531 1530 531 2253 
L 531 5069 
L 1082 5069 
L 1082 2253 
Q 1082 1798 1107 1596 
Q 1133 1395 1254 1206 
Q 1376 1018 1603 906 
Q 1830 794 2118 794 
Q 2464 794 2717 995 
Q 2970 1197 3043 1462 
Q 3117 1728 3117 2253 
L 3117 5069 
L 3661 5069 
L 3661 2253 
z
" transform="scale(0.015625)"/>
      <path id="STHeitiSC-Medium-b4" d="M 4288 4550 
L 2624 2886 
L 4282 1229 
L 3962 909 
L 2304 2566 
L 646 909 
L 320 1229 
L 1984 2886 
L 320 4550 
L 640 4870 
L 2304 3206 
L 3968 4870 
L 4288 4550 
z
" transform="scale(0.015625)"/>
      <path id="STHeitiSC-Medium-30" d="M 4218 384 
L 4051 384 
L 1082 3782 
L 1082 384 
L 518 384 
L 518 5069 
L 685 5069 
L 3674 1626 
L 3674 5069 
L 4218 5069 
L 4218 384 
z
" transform="scale(0.015625)"/>
      <path id="STHeitiSC-Medium-38" d="M 4346 5069 
L 2304 269 
L 2157 269 
L 147 5069 
L 736 5069 
L 2234 1466 
L 3757 5069 
L 4346 5069 
z
" transform="scale(0.015625)"/>
      <path id="STHeitiSC-Medium-2e" d="M 2835 384 
L 512 384 
L 512 5069 
L 1069 5069 
L 1069 915 
L 2835 915 
L 2835 384 
z
" transform="scale(0.015625)"/>
      <path id="STHeitiSC-Medium-4b" d="M 640 5184 
Q 813 5184 931 5065 
Q 1050 4947 1050 4777 
Q 1050 4608 931 4489 
Q 813 4371 643 4371 
Q 474 4371 355 4492 
Q 237 4614 237 4777 
Q 237 4941 355 5062 
Q 474 5184 640 5184 
z
M 909 384 
L 378 384 
L 378 3872 
L 909 3872 
L 909 384 
z
" transform="scale(0.015625)"/>
      <path id="STHeitiSC-Medium-4d" d="M 3181 384 
L 2419 384 
L 781 1856 
L 781 384 
L 250 384 
L 250 5184 
L 781 5184 
L 781 2554 
L 2285 3866 
L 3072 3872 
L 1152 2208 
L 3181 384 
z
" transform="scale(0.015625)"/>
     </defs>
     <use xlink:href="#STHeitiSC-Medium-1a"/>
     <use xlink:href="#STHeitiSC-Medium-3" transform="translate(55.40625 0)"/>
     <use xlink:href="#STHeitiSC-Medium-29" transform="translate(80.40625 0)"/>
     <use xlink:href="#STHeitiSC-Medium-32" transform="translate(167.609375 0)"/>
     <use xlink:href="#STHeitiSC-Medium-37" transform="translate(226.8125 0)"/>
     <use xlink:href="#STHeitiSC-Medium-3" transform="translate(292.3125 0)"/>
     <use xlink:href="#STHeitiSC-Medium-b4" transform="translate(317.3125 0)"/>
     <use xlink:href="#STHeitiSC-Medium-3" transform="translate(390.21875 0)"/>
     <use xlink:href="#STHeitiSC-Medium-30" transform="translate(415.21875 0)"/>
     <use xlink:href="#STHeitiSC-Medium-38" transform="translate(489.21875 0)"/>
     <use xlink:href="#STHeitiSC-Medium-2e" transform="translate(559.421875 0)"/>
     <use xlink:href="#STHeitiSC-Medium-4b" transform="translate(605.625 0)"/>
     <use xlink:href="#STHeitiSC-Medium-50" transform="translate(625.625 0)"/>
     <use xlink:href="#STHeitiSC-Medium-4d" transform="translate(686.625 0)"/>
    </g>
   </g>
   <g id="text_3">
    <!-- FSDP2 -->
    <g style="fill: #212121" transform="translate(432.217812 72.455) scale(0.11 -0.11)">
     <defs>
      <path id="STHeitiSC-Medium-28" d="M 2906 2637 
L 1062 2637 
L 1062 384 
L 512 384 
L 512 5069 
L 2906 5069 
L 2906 4525 
L 1062 4525 
L 1062 3181 
L 2906 3181 
L 2906 2637 
z
" transform="scale(0.015625)"/>
      <path id="STHeitiSC-Medium-26" d="M 512 5069 
L 1510 5069 
Q 2522 5069 2982 4918 
Q 3443 4768 3779 4451 
Q 4115 4134 4294 3680 
Q 4474 3226 4474 2630 
Q 4474 2035 4208 1507 
Q 3942 979 3452 681 
Q 2963 384 2022 384 
L 512 384 
L 512 5069 
z
M 1043 909 
L 1530 909 
Q 2342 909 2713 992 
Q 3085 1075 3360 1312 
Q 3635 1549 3779 1891 
Q 3923 2234 3923 2682 
Q 3923 3130 3753 3510 
Q 3584 3891 3270 4131 
Q 2957 4371 2534 4451 
Q 2112 4531 1325 4531 
L 1043 4531 
L 1043 909 
z
" transform="scale(0.015625)"/>
      <path id="STHeitiSC-Medium-14" d="M 3360 384 
L 90 384 
L 1914 2355 
Q 2374 2842 2566 3123 
Q 2758 3405 2758 3763 
Q 2758 4122 2480 4390 
Q 2202 4659 1789 4659 
Q 1376 4659 1101 4368 
Q 826 4077 787 3539 
L 256 3539 
Q 288 4294 736 4739 
Q 1184 5184 1821 5184 
Q 2458 5184 2877 4771 
Q 3296 4358 3296 3763 
Q 3296 3328 3065 2950 
Q 2835 2573 2368 2074 
L 1293 915 
L 3360 915 
L 3360 384 
z
" transform="scale(0.015625)"/>
     </defs>
     <use xlink:href="#STHeitiSC-Medium-28"/>
     <use xlink:href="#STHeitiSC-Medium-35" transform="translate(48.5 0)"/>
     <use xlink:href="#STHeitiSC-Medium-26" transform="translate(98.296875 0)"/>
     <use xlink:href="#STHeitiSC-Medium-32" transform="translate(172.703125 0)"/>
     <use xlink:href="#STHeitiSC-Medium-14" transform="translate(231.90625 0)"/>
    </g>
    <!-- 参数/梯度/优化器分片 -->
    <g style="fill: #212121" transform="translate(393.712656 83.785) scale(0.11 -0.11)">
     <defs>
      <path id="STHeitiSC-Medium-3e9" d="M 5152 1043 
Q 5242 992 5222 941 
Q 5203 890 5107 877 
Q 5088 877 5059 861 
Q 5030 845 4972 803 
Q 4915 762 4825 688 
Q 4736 614 4595 499 
Q 4307 256 4009 64 
Q 3712 -128 3325 -275 
Q 2938 -422 2426 -534 
Q 1914 -646 1197 -730 
Q 1171 -602 1116 -499 
Q 1062 -397 934 -269 
Q 1709 -230 2269 -108 
Q 2829 13 3264 214 
Q 3699 416 4048 697 
Q 4397 979 4742 1338 
Q 4864 1229 4957 1165 
Q 5050 1101 5152 1043 
z
M 4397 1613 
Q 4486 1574 4467 1523 
Q 4448 1472 4352 1472 
Q 4346 1472 4288 1437 
Q 4230 1402 4147 1347 
Q 4064 1293 3974 1225 
Q 3885 1158 3814 1101 
Q 3622 947 3324 790 
Q 3027 634 2707 509 
Q 2387 384 2086 297 
Q 1786 211 1581 192 
Q 1472 416 1235 608 
Q 2099 672 2780 1011 
Q 3462 1350 4051 1901 
Q 4083 1818 4185 1741 
Q 4288 1664 4397 1613 
z
M 3712 2170 
Q 3814 2118 3795 2080 
Q 3776 2042 3674 2042 
Q 3642 2042 3494 1968 
Q 3347 1894 3104 1734 
Q 2931 1619 2796 1539 
Q 2662 1459 2512 1388 
Q 2362 1318 2173 1241 
Q 1984 1165 1702 1056 
Q 1613 1178 1555 1248 
Q 1498 1318 1402 1408 
Q 1645 1472 1917 1590 
Q 2189 1709 2448 1853 
Q 2707 1997 2934 2160 
Q 3162 2323 3322 2477 
Q 3398 2387 3516 2297 
Q 3635 2208 3712 2170 
z
M 4314 3987 
Q 4192 4090 4041 4211 
Q 3891 4333 3686 4486 
L 4090 4736 
Q 4410 4512 4733 4259 
Q 5056 4006 5299 3782 
L 4896 3398 
Q 4845 3469 4790 3529 
Q 4736 3590 4672 3654 
L 3046 3629 
Q 2957 3462 2883 3331 
Q 2810 3200 2733 3078 
L 4070 3078 
Q 4768 3078 5200 3091 
Q 5632 3104 5894 3136 
L 5894 2637 
Q 5670 2656 5292 2672 
Q 4915 2688 4326 2694 
Q 4486 2515 4656 2374 
Q 4826 2234 5030 2128 
Q 5235 2022 5481 1939 
Q 5728 1856 6048 1792 
Q 5978 1728 5914 1645 
Q 5850 1562 5795 1482 
Q 5741 1402 5705 1331 
Q 5670 1261 5670 1222 
Q 5107 1440 4627 1808 
Q 4147 2176 3866 2694 
L 2470 2694 
Q 2106 2214 1674 1862 
Q 1242 1510 723 1190 
Q 653 1280 553 1379 
Q 454 1478 346 1587 
Q 851 1798 1260 2089 
Q 1670 2381 1939 2694 
Q 1440 2688 1081 2672 
Q 723 2656 454 2637 
L 454 3136 
Q 755 3104 1168 3091 
Q 1581 3078 2208 3078 
Q 2323 3277 2384 3401 
Q 2445 3526 2477 3616 
Q 2304 3610 2121 3600 
Q 1939 3590 1776 3577 
Q 1613 3565 1485 3552 
Q 1357 3539 1299 3533 
Q 1274 3661 1242 3776 
Q 1210 3891 1152 4019 
Q 1235 4032 1324 4057 
Q 1414 4083 1497 4115 
Q 1581 4147 1645 4179 
Q 1709 4211 1747 4237 
Q 1882 4339 2029 4473 
Q 2176 4608 2304 4749 
Q 2432 4890 2525 5021 
Q 2618 5152 2650 5242 
Q 2842 5126 2992 5052 
Q 3142 4979 3219 4966 
Q 3354 4934 3357 4896 
Q 3360 4858 3213 4794 
Q 3142 4762 3024 4691 
Q 2906 4621 2765 4512 
Q 2618 4397 2518 4320 
Q 2419 4243 2336 4185 
Q 2253 4128 2176 4083 
Q 2099 4038 1997 3987 
L 4314 3987 
z
" transform="scale(0.015625)"/>
      <path id="STHeitiSC-Medium-33e" d="M 3046 2413 
Q 2918 2560 2774 2713 
Q 2630 2867 2464 3014 
L 2790 3264 
Q 2970 3110 3104 2979 
Q 3238 2848 3360 2726 
L 3046 2413 
z
M 973 4090 
Q 966 4237 947 4397 
Q 928 4557 883 4742 
L 1389 4806 
Q 1434 4640 1462 4477 
Q 1491 4314 1510 4166 
L 973 4090 
z
M 3386 4634 
Q 3322 4608 3242 4477 
Q 3162 4346 3014 4058 
Q 2944 4077 2832 4093 
Q 2720 4109 2560 4122 
Q 2669 4288 2733 4451 
Q 2797 4614 2861 4858 
Q 2995 4813 3142 4777 
Q 3290 4742 3386 4730 
Q 3456 4717 3459 4691 
Q 3462 4666 3386 4634 
z
M 4627 1299 
Q 4813 1722 4931 2288 
Q 5050 2854 5088 3642 
L 4352 3642 
Q 4288 3437 4192 3225 
Q 4096 3014 3981 2810 
L 4384 2822 
Q 4384 2342 4441 1961 
Q 4499 1581 4627 1299 
z
M 4640 416 
Q 4416 166 4064 -70 
Q 3712 -307 3194 -531 
Q 3136 -429 3037 -313 
Q 2938 -198 2803 -90 
Q 3008 -45 3229 41 
Q 3450 128 3658 246 
Q 3866 365 4048 512 
Q 4230 659 4365 826 
Q 4262 1011 4192 1212 
Q 4122 1414 4074 1651 
Q 4026 1888 3997 2163 
Q 3968 2438 3962 2771 
Q 3744 2394 3520 2112 
Q 3366 2355 3206 2458 
Q 3398 2720 3561 3037 
Q 3725 3354 3846 3699 
Q 3968 4045 4045 4403 
Q 4122 4762 4147 5107 
Q 4294 5056 4486 5021 
Q 4678 4986 4800 4973 
Q 4870 4966 4880 4924 
Q 4890 4883 4781 4832 
Q 4768 4826 4745 4797 
Q 4723 4768 4691 4688 
Q 4659 4608 4608 4461 
Q 4557 4314 4480 4064 
L 5216 4064 
Q 5498 4064 5690 4077 
Q 5882 4090 6003 4115 
L 6003 3597 
Q 5850 3616 5562 3635 
Q 5530 3110 5472 2688 
Q 5414 2266 5337 1923 
Q 5261 1581 5158 1315 
Q 5056 1050 4934 832 
Q 5114 627 5386 476 
Q 5658 326 6112 186 
Q 5958 38 5881 -112 
Q 5805 -262 5754 -429 
Q 5523 -288 5350 -176 
Q 5178 -64 5046 35 
Q 4915 134 4819 227 
Q 4723 320 4640 416 
z
M 2899 691 
Q 3046 640 3180 585 
Q 3315 531 3450 461 
Q 3347 352 3286 269 
Q 3226 186 3168 64 
Q 3040 134 2912 201 
Q 2784 269 2637 326 
Q 2496 179 2323 67 
Q 2150 -45 1926 -137 
Q 1702 -230 1417 -310 
Q 1133 -390 781 -474 
Q 717 -346 595 -198 
Q 474 -51 346 45 
Q 934 58 1392 157 
Q 1850 256 2157 493 
Q 1914 563 1635 617 
Q 1357 672 1030 717 
Q 1146 922 1235 1104 
Q 1325 1286 1408 1491 
Q 1107 1485 899 1475 
Q 691 1466 531 1440 
L 531 1901 
Q 698 1888 960 1878 
Q 1222 1869 1536 1862 
Q 1574 1984 1612 2115 
Q 1651 2246 1696 2394 
Q 1843 2336 1955 2310 
Q 2067 2285 2214 2272 
Q 2342 2259 2345 2233 
Q 2349 2208 2253 2144 
Q 2189 2099 2144 2038 
Q 2099 1978 2035 1862 
L 2899 1862 
Q 3162 1862 3341 1907 
Q 3232 1510 3129 1212 
Q 3027 915 2899 691 
z
M 1626 979 
Q 1869 941 2077 902 
Q 2285 864 2470 819 
Q 2662 1101 2726 1491 
L 1862 1491 
L 1626 979 
z
M 1549 3462 
Q 1254 3456 1017 3446 
Q 781 3437 589 3424 
L 589 3878 
Q 832 3859 1139 3846 
Q 1446 3834 1850 3834 
L 1850 4435 
Q 1850 4614 1834 4774 
Q 1818 4934 1786 5101 
Q 1933 5088 2073 5081 
Q 2214 5075 2362 5075 
Q 2451 5075 2460 5033 
Q 2470 4992 2406 4966 
Q 2349 4941 2333 4905 
Q 2317 4870 2317 4781 
L 2317 3834 
Q 2675 3840 2995 3853 
Q 3315 3866 3507 3878 
L 3507 3424 
Q 3328 3437 3005 3449 
Q 2682 3462 2317 3469 
Q 2317 3174 2326 2937 
Q 2336 2701 2362 2451 
L 1805 2451 
Q 1824 2682 1837 2899 
Q 1850 3117 1850 3392 
Q 1734 3162 1625 2992 
Q 1517 2822 1392 2678 
Q 1267 2534 1113 2403 
Q 960 2272 755 2125 
Q 685 2234 573 2326 
Q 461 2419 282 2509 
Q 666 2630 1002 2896 
Q 1338 3162 1549 3462 
z
" transform="scale(0.015625)"/>
      <path id="STHeitiSC-Medium-c95" d="M 3456 4269 
Q 3386 4429 3290 4605 
Q 3194 4781 3098 4909 
L 3552 5139 
Q 3648 4992 3753 4825 
Q 3859 4659 3942 4493 
L 3456 4269 
z
M 2138 2477 
Q 2266 2266 2381 2067 
Q 2496 1869 2605 1670 
L 2182 1453 
Q 2106 1645 2003 1856 
Q 1901 2067 1760 2304 
L 2138 2477 
z
M 1267 2208 
Q 1210 2029 1149 1865 
Q 1088 1702 1021 1532 
Q 954 1363 877 1184 
Q 800 1005 704 794 
Q 634 966 560 1094 
Q 486 1222 390 1370 
Q 531 1555 643 1734 
Q 755 1914 851 2125 
Q 947 2336 1040 2605 
Q 1133 2874 1242 3238 
Q 992 3232 829 3219 
Q 666 3206 499 3187 
L 499 3718 
Q 672 3693 838 3683 
Q 1005 3674 1267 3667 
Q 1267 4179 1254 4496 
Q 1242 4813 1216 5024 
Q 1350 5005 1478 4998 
Q 1606 4992 1773 5005 
Q 1882 5018 1891 4979 
Q 1901 4941 1811 4832 
Q 1766 4781 1753 4505 
Q 1741 4230 1741 3667 
Q 1965 3674 2109 3683 
Q 2253 3693 2406 3718 
L 2406 3187 
Q 2253 3206 2109 3219 
Q 1965 3232 1741 3238 
L 1741 538 
Q 1741 282 1750 -51 
Q 1760 -384 1779 -704 
L 1229 -704 
Q 1248 -390 1257 -54 
Q 1267 282 1267 538 
L 1267 2208 
z
M 4474 2963 
L 5318 2963 
L 5318 3680 
L 4474 3680 
L 4474 2963 
z
M 3994 2534 
L 3174 2534 
L 3174 1888 
L 3994 1888 
L 3994 2534 
z
M 4326 4109 
Q 4512 4378 4630 4637 
Q 4749 4896 4851 5190 
Q 5018 5101 5152 5040 
Q 5286 4979 5414 4934 
Q 5459 4922 5459 4896 
Q 5459 4870 5402 4838 
Q 5382 4832 5318 4765 
Q 5254 4698 5164 4598 
Q 5075 4499 4972 4371 
Q 4870 4243 4768 4115 
Q 5075 4122 5334 4131 
Q 5594 4141 5792 4154 
Q 5779 3962 5769 3738 
Q 5760 3514 5760 3328 
Q 5754 3117 5763 2921 
Q 5773 2726 5792 2509 
Q 5523 2522 5180 2525 
Q 4838 2528 4474 2534 
L 4474 1888 
Q 4890 1888 5277 1901 
Q 5664 1914 6010 1952 
Q 5984 1862 5974 1756 
Q 5965 1651 5958 1504 
L 5901 570 
Q 5888 378 5862 266 
Q 5837 154 5753 80 
Q 5670 6 5507 -42 
Q 5344 -90 5069 -147 
Q 5011 6 4950 140 
Q 4890 275 4800 448 
Q 5005 435 5126 441 
Q 5248 448 5315 480 
Q 5382 512 5408 573 
Q 5434 634 5440 736 
L 5485 1466 
L 4474 1466 
L 4474 506 
Q 4474 275 4480 -16 
Q 4486 -307 4512 -672 
L 3955 -672 
Q 3974 -339 3984 -32 
Q 3994 275 3994 506 
L 3994 1446 
Q 3795 941 3414 422 
Q 3034 -96 2502 -557 
Q 2394 -461 2291 -393 
Q 2189 -326 2010 -243 
Q 2509 102 2889 550 
Q 3270 998 3552 1459 
Q 3309 1459 3113 1449 
Q 2918 1440 2714 1427 
Q 2726 1632 2736 1833 
Q 2746 2035 2746 2221 
Q 2746 2406 2736 2604 
Q 2726 2803 2714 3002 
Q 2944 2989 3283 2979 
Q 3622 2970 3994 2963 
L 3994 3680 
Q 3610 3680 3296 3673 
Q 2982 3667 2694 3654 
L 2694 4154 
Q 3059 4122 3452 4109 
Q 3846 4096 4326 4109 
z
" transform="scale(0.015625)"/>
      <path id="STHeitiSC-Medium-287" d="M 2982 2458 
L 4269 2458 
L 4269 3008 
L 2982 3008 
L 2982 2458 
z
M 2522 3366 
Q 2515 3552 2505 3693 
Q 2496 3834 2464 3923 
Q 2592 3891 2758 3872 
Q 2925 3853 3040 3866 
Q 3142 3878 3059 3782 
Q 2989 3706 2982 3366 
L 4269 3366 
Q 4269 3603 4262 3737 
Q 4256 3872 4230 3981 
Q 4397 3930 4557 3917 
Q 4717 3904 4806 3917 
Q 4922 3936 4838 3846 
Q 4774 3776 4768 3366 
Q 5190 3373 5446 3385 
Q 5702 3398 5888 3418 
L 5888 2950 
Q 5702 2970 5436 2986 
Q 5171 3002 4768 3008 
L 4768 2682 
Q 4768 2483 4774 2339 
Q 4781 2195 4813 2022 
Q 4736 2035 4649 2044 
Q 4563 2054 4435 2060 
Q 4307 2067 4115 2070 
Q 3923 2074 3648 2074 
Q 3379 2074 3193 2070 
Q 3008 2067 2873 2060 
Q 2739 2054 2646 2044 
Q 2554 2035 2477 2022 
Q 2490 2106 2499 2176 
Q 2509 2246 2512 2316 
Q 2515 2387 2518 2464 
Q 2522 2541 2522 2643 
L 2522 3002 
Q 2253 2995 2080 2982 
Q 1907 2970 1773 2950 
L 1773 3418 
Q 1914 3398 2083 3385 
Q 2253 3373 2522 3366 
z
M 3661 4493 
Q 4134 4493 4483 4499 
Q 4832 4506 5081 4512 
Q 5331 4518 5497 4528 
Q 5664 4538 5779 4550 
L 5779 4026 
Q 5504 4051 5145 4067 
Q 4787 4083 4275 4083 
L 1510 4083 
Q 1555 3130 1532 2406 
Q 1510 1683 1424 1123 
Q 1338 563 1194 140 
Q 1050 -282 858 -621 
Q 730 -493 602 -393 
Q 474 -294 326 -224 
Q 544 90 701 502 
Q 858 915 938 1481 
Q 1018 2048 1018 2800 
Q 1018 3552 934 4550 
Q 1069 4538 1241 4528 
Q 1414 4518 1657 4512 
Q 1901 4506 2243 4499 
Q 2586 4493 3059 4493 
Q 3027 4634 2976 4765 
Q 2925 4896 2854 5037 
L 3437 5146 
Q 3482 5005 3539 4832 
Q 3597 4659 3661 4493 
z
M 2880 1325 
Q 3008 1082 3200 874 
Q 3392 666 3622 518 
Q 3878 685 4080 883 
Q 4282 1082 4435 1325 
L 2880 1325 
z
M 2336 1318 
Q 2214 1306 2086 1299 
Q 1958 1293 1843 1280 
L 1843 1760 
Q 2010 1747 2224 1734 
Q 2438 1722 2675 1715 
Q 2912 1709 3161 1705 
Q 3411 1702 3642 1702 
Q 4102 1702 4521 1715 
Q 4941 1728 5267 1760 
Q 5139 1510 5014 1305 
Q 4890 1101 4749 925 
Q 4608 749 4448 595 
Q 4288 442 4090 301 
Q 4525 134 4992 67 
Q 5459 0 6067 26 
Q 5952 -109 5878 -265 
Q 5805 -422 5779 -621 
Q 5178 -557 4643 -413 
Q 4109 -269 3629 0 
Q 3328 -173 2877 -342 
Q 2426 -512 1869 -646 
Q 1830 -538 1728 -390 
Q 1626 -243 1459 -90 
Q 1664 -83 1891 -48 
Q 2118 -13 2345 38 
Q 2573 90 2784 157 
Q 2995 224 3168 294 
Q 3066 371 2950 489 
Q 2835 608 2723 745 
Q 2611 883 2508 1033 
Q 2406 1184 2336 1318 
z
" transform="scale(0.015625)"/>
      <path id="STHeitiSC-Medium-45f" d="M 5056 3693 
Q 4973 3782 4870 3888 
Q 4768 3994 4656 4096 
Q 4544 4198 4425 4294 
Q 4307 4390 4205 4467 
L 4582 4826 
Q 4787 4685 5017 4502 
Q 5248 4320 5440 4147 
L 5056 3693 
z
M 1728 -691 
L 1139 -691 
Q 1171 -403 1193 -22 
Q 1216 358 1216 717 
L 1216 2899 
Q 1088 2669 950 2441 
Q 813 2214 640 1952 
Q 589 2074 480 2208 
Q 371 2342 275 2413 
Q 544 2720 758 3078 
Q 973 3437 1126 3802 
Q 1261 4115 1363 4470 
Q 1466 4826 1510 5114 
Q 1664 5043 1814 4992 
Q 1965 4941 2074 4915 
Q 2176 4883 2179 4848 
Q 2182 4813 2086 4736 
Q 1971 4646 1728 4000 
L 1728 -691 
z
M 3770 2963 
Q 3712 2336 3603 1833 
Q 3494 1331 3321 915 
Q 3149 499 2905 150 
Q 2662 -198 2336 -525 
Q 2246 -422 2099 -323 
Q 1952 -224 1798 -173 
Q 2099 64 2345 339 
Q 2592 614 2774 982 
Q 2957 1350 3081 1833 
Q 3206 2317 3264 2963 
Q 2899 2957 2576 2941 
Q 2253 2925 2010 2899 
L 2010 3514 
Q 2221 3482 2547 3466 
Q 2874 3450 3296 3443 
Q 3328 3910 3315 4358 
Q 3302 4806 3251 5133 
Q 3334 5114 3440 5101 
Q 3546 5088 3645 5078 
Q 3744 5069 3833 5065 
Q 3923 5062 3981 5069 
Q 4051 5075 4060 5027 
Q 4070 4979 4000 4941 
Q 3904 4890 3885 4659 
Q 3872 4435 3853 4144 
Q 3834 3853 3802 3443 
L 4346 3443 
Q 4845 3437 5203 3456 
Q 5562 3475 5862 3514 
L 5862 2899 
Q 5594 2931 5270 2947 
Q 4947 2963 4525 2963 
L 4525 454 
Q 4525 326 4534 249 
Q 4544 173 4589 134 
Q 4634 96 4723 83 
Q 4813 70 4973 70 
Q 5120 70 5213 89 
Q 5306 109 5366 195 
Q 5427 282 5462 448 
Q 5498 614 5536 915 
Q 5651 774 5820 688 
Q 5990 602 6118 595 
Q 6016 237 5933 32 
Q 5850 -173 5731 -272 
Q 5613 -371 5421 -396 
Q 5229 -422 4915 -422 
Q 4595 -422 4416 -403 
Q 4237 -384 4150 -317 
Q 4064 -250 4041 -118 
Q 4019 13 4019 243 
L 4019 2963 
L 3770 2963 
z
" transform="scale(0.015625)"/>
      <path id="STHeitiSC-Medium-354" d="M 1293 2848 
Q 1146 2618 1002 2406 
Q 858 2195 730 2022 
Q 666 2138 557 2256 
Q 448 2374 314 2464 
Q 442 2566 570 2713 
Q 698 2861 819 3027 
Q 941 3194 1043 3376 
Q 1146 3558 1229 3725 
Q 1427 4141 1539 4541 
Q 1651 4941 1683 5210 
Q 2003 5056 2317 4986 
Q 2445 4960 2467 4905 
Q 2490 4851 2362 4781 
Q 2342 4768 2310 4729 
Q 2278 4691 2220 4585 
Q 2163 4480 2070 4291 
Q 1978 4102 1824 3795 
L 1824 -595 
L 1222 -595 
Q 1254 -390 1273 -108 
Q 1293 173 1293 435 
L 1293 2848 
z
M 3283 1331 
Q 3110 1203 2924 1072 
Q 2739 941 2534 794 
Q 2483 902 2342 1040 
Q 2202 1178 2054 1248 
Q 2157 1280 2297 1344 
Q 2438 1408 2598 1501 
Q 2758 1594 2934 1712 
Q 3110 1830 3283 1971 
L 3283 4358 
Q 3283 4589 3273 4813 
Q 3264 5037 3232 5165 
Q 3302 5146 3395 5133 
Q 3488 5120 3584 5110 
Q 3680 5101 3769 5094 
Q 3859 5088 3917 5088 
Q 4006 5088 4016 5043 
Q 4026 4998 3955 4947 
Q 3904 4915 3865 4825 
Q 3827 4736 3827 4672 
L 3827 2458 
Q 4000 2630 4166 2816 
Q 4333 3002 4496 3219 
Q 4659 3437 4822 3686 
Q 4986 3936 5158 4243 
Q 5286 4134 5452 4019 
Q 5619 3904 5766 3827 
Q 5837 3789 5837 3753 
Q 5837 3718 5754 3706 
Q 5722 3699 5664 3657 
Q 5606 3616 5536 3558 
Q 5466 3501 5395 3430 
Q 5325 3360 5280 3302 
Q 4883 2822 4534 2457 
Q 4186 2093 3827 1779 
L 3827 384 
Q 3827 262 3846 188 
Q 3866 115 3936 76 
Q 4006 38 4144 28 
Q 4282 19 4518 19 
Q 4774 19 4937 38 
Q 5101 58 5203 150 
Q 5306 243 5363 428 
Q 5421 614 5472 941 
Q 5549 845 5613 781 
Q 5677 717 5747 669 
Q 5818 621 5894 585 
Q 5971 550 6080 512 
Q 5971 147 5881 -54 
Q 5792 -256 5641 -355 
Q 5491 -454 5232 -473 
Q 4973 -493 4518 -493 
Q 4083 -493 3836 -467 
Q 3590 -442 3468 -374 
Q 3347 -307 3315 -182 
Q 3283 -58 3283 134 
L 3283 1331 
z
" transform="scale(0.015625)"/>
      <path id="STHeitiSC-Medium-60c" d="M 2413 4416 
L 1485 4416 
L 1485 3789 
L 2413 3789 
L 2413 4416 
z
M 2944 3354 
Q 2854 3366 2761 3372 
Q 2669 3379 2553 3385 
Q 2438 3392 2291 3392 
Q 2144 3392 1952 3392 
Q 1760 3392 1616 3392 
Q 1472 3392 1357 3385 
Q 1242 3379 1142 3372 
Q 1043 3366 947 3360 
Q 973 3533 982 3721 
Q 992 3910 992 4115 
Q 992 4320 982 4512 
Q 973 4704 947 4851 
Q 1050 4838 1146 4828 
Q 1242 4819 1357 4812 
Q 1472 4806 1616 4803 
Q 1760 4800 1952 4800 
Q 2144 4800 2288 4803 
Q 2432 4806 2547 4812 
Q 2662 4819 2755 4828 
Q 2848 4838 2944 4851 
Q 2925 4698 2918 4506 
Q 2912 4314 2912 4109 
Q 2912 3904 2918 3709 
Q 2925 3514 2944 3354 
z
M 5005 4435 
L 3962 4435 
L 3962 3802 
L 5005 3802 
L 5005 4435 
z
M 5530 3379 
Q 5344 3398 5110 3408 
Q 4877 3418 4493 3418 
Q 4109 3418 3872 3408 
Q 3635 3398 3443 3386 
Q 3462 3552 3472 3757 
Q 3482 3962 3482 4166 
Q 3482 4358 3475 4540 
Q 3469 4723 3443 4883 
Q 3648 4851 3878 4841 
Q 4109 4832 4493 4832 
Q 4877 4832 5110 4841 
Q 5344 4851 5530 4883 
Q 5517 4736 5507 4550 
Q 5498 4365 5498 4166 
Q 5498 3955 5504 3750 
Q 5510 3546 5530 3379 
z
M 4397 2829 
Q 4326 2918 4249 2982 
Q 4173 3046 4032 3136 
L 4499 3379 
Q 4608 3309 4691 3238 
Q 4774 3168 4883 3078 
L 4397 2829 
z
M 1491 -186 
L 1491 -576 
L 966 -576 
Q 986 -454 992 -342 
Q 998 -230 998 -102 
L 998 851 
Q 998 1018 992 1130 
Q 986 1242 966 1338 
Q 1030 1325 1104 1318 
Q 1178 1312 1290 1305 
Q 1402 1299 1558 1296 
Q 1715 1293 1946 1293 
Q 2176 1293 2333 1296 
Q 2490 1299 2598 1302 
Q 2707 1306 2780 1315 
Q 2854 1325 2918 1338 
Q 2899 1248 2892 1142 
Q 2886 1037 2886 851 
L 2886 -64 
Q 2886 -154 2896 -285 
Q 2906 -416 2925 -538 
L 2394 -538 
L 2394 -186 
L 1491 -186 
z
M 2394 192 
L 2394 909 
L 1491 909 
L 1491 192 
L 2394 192 
z
M 3872 -160 
L 3872 -525 
L 3354 -525 
Q 3373 -410 3379 -294 
Q 3386 -179 3386 -51 
L 3386 883 
Q 3386 1050 3376 1162 
Q 3366 1274 3354 1370 
Q 3424 1357 3507 1350 
Q 3590 1344 3712 1337 
Q 3834 1331 4000 1328 
Q 4166 1325 4410 1325 
Q 4666 1325 4838 1328 
Q 5011 1331 5129 1334 
Q 5248 1338 5321 1347 
Q 5395 1357 5466 1370 
Q 5453 1293 5443 1181 
Q 5434 1069 5434 883 
L 5434 -32 
Q 5434 -122 5443 -250 
Q 5453 -378 5472 -506 
L 4941 -506 
L 4941 -160 
L 3872 -160 
z
M 4941 211 
L 4941 954 
L 3872 954 
L 3872 211 
L 4941 211 
z
M 3302 2810 
Q 4102 2810 4739 2822 
Q 5376 2835 5811 2861 
L 5811 2342 
Q 5434 2362 4909 2374 
Q 4384 2387 3725 2400 
Q 3910 2266 4134 2163 
Q 4358 2061 4630 1997 
Q 4902 1933 5235 1904 
Q 5568 1875 5978 1888 
Q 5830 1651 5811 1376 
Q 5274 1414 4858 1497 
Q 4442 1581 4131 1705 
Q 3821 1830 3603 2003 
Q 3386 2176 3251 2400 
L 3162 2400 
Q 3066 2182 2877 2016 
Q 2688 1850 2390 1725 
Q 2093 1600 1664 1504 
Q 1235 1408 659 1338 
Q 614 1466 566 1549 
Q 518 1632 422 1760 
Q 1293 1792 1843 1961 
Q 2394 2131 2637 2400 
Q 1971 2394 1491 2381 
Q 1011 2368 614 2342 
L 614 2861 
Q 832 2848 1062 2838 
Q 1293 2829 1561 2822 
Q 1830 2816 2140 2813 
Q 2451 2810 2829 2810 
Q 2854 2918 2870 3036 
Q 2886 3155 2893 3283 
Q 3187 3219 3482 3238 
Q 3558 3245 3564 3209 
Q 3571 3174 3501 3136 
Q 3450 3104 3408 3040 
Q 3366 2976 3302 2810 
z
" transform="scale(0.015625)"/>
      <path id="STHeitiSC-Medium-153" d="M 2886 4659 
Q 2758 4608 2691 4531 
Q 2624 4454 2547 4282 
Q 2426 4019 2227 3705 
Q 2029 3392 1792 3072 
Q 1555 2752 1289 2451 
Q 1024 2150 768 1907 
Q 678 2029 544 2144 
Q 410 2259 269 2349 
Q 768 2694 1136 3129 
Q 1504 3565 1747 3987 
Q 1914 4282 2026 4531 
Q 2138 4781 2227 5030 
Q 2304 4992 2393 4950 
Q 2483 4909 2576 4877 
Q 2669 4845 2749 4822 
Q 2829 4800 2880 4794 
Q 2957 4781 2963 4736 
Q 2970 4691 2886 4659 
z
M 6131 2720 
Q 5875 2490 5658 2086 
Q 4794 2688 4294 3347 
Q 4077 3635 3888 4080 
Q 3699 4525 3571 5011 
L 4109 5120 
Q 4237 4640 4403 4269 
Q 4570 3898 4768 3674 
Q 5107 3302 5430 3088 
Q 5754 2874 6131 2720 
z
M 2381 2074 
Q 2227 2074 2108 2070 
Q 1990 2067 1894 2064 
Q 1798 2061 1712 2051 
Q 1626 2042 1523 2029 
L 1523 2624 
Q 1677 2598 2013 2585 
Q 2349 2573 2854 2573 
Q 3155 2573 3481 2576 
Q 3808 2579 4096 2582 
Q 4384 2586 4614 2589 
Q 4845 2592 4954 2598 
L 4736 109 
Q 4717 -90 4659 -218 
Q 4602 -346 4470 -432 
Q 4339 -518 4121 -576 
Q 3904 -634 3565 -678 
Q 3533 -506 3462 -330 
Q 3392 -154 3270 6 
Q 3539 -19 3712 -12 
Q 3885 -6 3990 58 
Q 4096 122 4147 250 
Q 4198 378 4218 589 
L 4346 2074 
L 2912 2074 
Q 2880 1632 2768 1235 
Q 2656 838 2470 563 
Q 2317 339 2173 163 
Q 2029 -13 1875 -157 
Q 1722 -301 1549 -422 
Q 1376 -544 1165 -666 
Q 1056 -538 902 -426 
Q 749 -314 576 -243 
Q 1107 -26 1456 249 
Q 1805 525 1958 768 
Q 2144 1062 2246 1363 
Q 2349 1664 2381 2074 
z
" transform="scale(0.015625)"/>
      <path id="STHeitiSC-Medium-1e6" d="M 2074 2912 
Q 2067 2650 2054 2422 
Q 2042 2195 2022 1997 
Q 2534 1997 2905 1997 
Q 3277 1997 3545 1997 
Q 3814 1997 4000 2000 
Q 4186 2003 4323 2006 
Q 4461 2010 4576 2016 
Q 4691 2022 4813 2029 
Q 4774 1856 4774 1203 
L 4774 160 
Q 4774 -102 4780 -284 
Q 4787 -467 4806 -672 
L 4166 -672 
L 4166 1485 
L 1965 1485 
Q 1920 1184 1856 934 
Q 1792 685 1696 454 
Q 1600 224 1465 -6 
Q 1331 -237 1139 -499 
Q 1024 -410 880 -342 
Q 736 -275 550 -205 
Q 742 13 889 211 
Q 1037 410 1142 624 
Q 1248 838 1321 1088 
Q 1395 1338 1436 1661 
Q 1478 1984 1500 2400 
Q 1523 2816 1536 3366 
Q 1542 3680 1542 3913 
Q 1542 4147 1542 4329 
Q 1542 4512 1532 4669 
Q 1523 4826 1510 4992 
Q 1606 4973 1708 4953 
Q 1811 4934 1904 4921 
Q 1997 4909 2070 4902 
Q 2144 4896 2182 4902 
Q 2266 4915 2272 4889 
Q 2278 4864 2227 4800 
Q 2208 4768 2189 4691 
Q 2170 4614 2150 4454 
Q 2131 4294 2118 4041 
Q 2106 3789 2093 3405 
L 3789 3405 
L 3789 4301 
Q 3789 4582 3782 4761 
Q 3776 4941 3757 5075 
Q 3942 5043 4131 5024 
Q 4320 5005 4467 4998 
Q 4678 4986 4544 4915 
Q 4378 4826 4378 4659 
L 4378 3405 
L 5222 3405 
Q 5357 3405 5453 3405 
Q 5549 3405 5619 3411 
Q 5690 3418 5741 3424 
Q 5792 3430 5850 3443 
L 5850 2874 
Q 5741 2893 5613 2902 
Q 5485 2912 5216 2912 
L 2074 2912 
z
" transform="scale(0.015625)"/>
     </defs>
     <use xlink:href="#STHeitiSC-Medium-3e9"/>
     <use xlink:href="#STHeitiSC-Medium-33e" transform="translate(100 0)"/>
     <use xlink:href="#STHeitiSC-Medium-11" transform="translate(200 0)"/>
     <use xlink:href="#STHeitiSC-Medium-c95" transform="translate(243.703125 0)"/>
     <use xlink:href="#STHeitiSC-Medium-287" transform="translate(343.703125 0)"/>
     <use xlink:href="#STHeitiSC-Medium-11" transform="translate(443.703125 0)"/>
     <use xlink:href="#STHeitiSC-Medium-45f" transform="translate(487.40625 0)"/>
     <use xlink:href="#STHeitiSC-Medium-354" transform="translate(587.40625 0)"/>
     <use xlink:href="#STHeitiSC-Medium-60c" transform="translate(687.40625 0)"/>
     <use xlink:href="#STHeitiSC-Medium-153" transform="translate(787.40625 0)"/>
     <use xlink:href="#STHeitiSC-Medium-1e6" transform="translate(887.40625 0)"/>
    </g>
   </g>
   <g id="text_4">
    <!-- 数百 ~ 数千 GPU -->
    <g style="fill: #212121" transform="translate(568.7275 78.12) scale(0.11 -0.11)">
     <defs>
      <path id="STHeitiSC-Medium-383" d="M 4550 2765 
L 1818 2765 
L 1818 1862 
L 4550 1862 
L 4550 2765 
z
M 1818 403 
L 4550 403 
L 4550 1408 
L 1818 1408 
L 1818 403 
z
M 2803 4192 
Q 2035 4186 1481 4166 
Q 928 4147 480 4122 
L 480 4704 
Q 736 4685 1017 4675 
Q 1299 4666 1628 4656 
Q 1958 4646 2345 4643 
Q 2733 4640 3200 4640 
Q 3667 4640 4057 4643 
Q 4448 4646 4781 4656 
Q 5114 4666 5392 4675 
Q 5670 4685 5920 4704 
L 5920 4122 
Q 5690 4141 5427 4150 
Q 5165 4160 4864 4169 
Q 4563 4179 4208 4185 
Q 3853 4192 3430 4192 
Q 3360 3904 3296 3667 
Q 3232 3430 3155 3206 
Q 3507 3206 3788 3209 
Q 4070 3213 4307 3216 
Q 4544 3219 4752 3225 
Q 4960 3232 5178 3238 
Q 5158 3149 5148 3056 
Q 5139 2963 5136 2851 
Q 5133 2739 5129 2598 
Q 5126 2458 5126 2278 
L 5126 397 
Q 5126 230 5129 102 
Q 5133 -26 5139 -131 
Q 5146 -237 5155 -336 
Q 5165 -435 5178 -550 
L 4550 -550 
L 4550 -58 
L 1818 -58 
L 1818 -698 
L 1190 -698 
Q 1210 -589 1219 -489 
Q 1229 -390 1232 -284 
Q 1235 -179 1238 -54 
Q 1242 70 1242 237 
L 1242 2304 
Q 1242 2470 1238 2598 
Q 1235 2726 1228 2832 
Q 1222 2938 1212 3037 
Q 1203 3136 1190 3251 
Q 1459 3238 1846 3228 
Q 2234 3219 2656 3206 
Q 2720 3443 2755 3692 
Q 2790 3942 2803 4192 
z
" transform="scale(0.015625)"/>
      <path id="STHeitiSC-Medium-60" d="M 3571 2515 
Q 3206 2310 3049 2252 
Q 2893 2195 2739 2195 
Q 2419 2195 1888 2438 
Q 1530 2598 1398 2646 
Q 1267 2694 1145 2694 
Q 1024 2694 854 2624 
Q 685 2554 307 2330 
L 307 2938 
Q 659 3136 825 3197 
Q 992 3258 1146 3258 
Q 1459 3258 2003 2995 
Q 2541 2739 2739 2739 
Q 2970 2739 3571 3130 
L 3571 2515 
z
" transform="scale(0.015625)"/>
      <path id="STHeitiSC-Medium-52e" d="M 2925 3968 
Q 2458 3878 2013 3817 
Q 1568 3757 1050 3706 
Q 1018 3878 954 4035 
Q 890 4192 819 4294 
Q 1261 4269 1885 4333 
Q 2509 4397 3213 4557 
Q 3578 4640 3978 4774 
Q 4378 4909 4691 5082 
Q 4787 4934 4912 4771 
Q 5037 4608 5178 4454 
Q 5242 4384 5210 4342 
Q 5178 4301 5082 4333 
Q 5043 4346 4886 4333 
Q 4730 4320 4509 4285 
Q 4288 4250 4025 4202 
Q 3763 4154 3520 4102 
L 3520 2438 
Q 4320 2445 4918 2457 
Q 5517 2470 5971 2502 
L 5971 1869 
Q 5517 1901 4918 1913 
Q 4320 1926 3520 1933 
L 3520 256 
Q 3520 38 3536 -230 
Q 3552 -499 3584 -768 
L 2861 -768 
Q 2893 -499 2909 -230 
Q 2925 38 2925 256 
L 2925 1933 
Q 2106 1933 1494 1917 
Q 883 1901 422 1869 
L 422 2502 
Q 883 2470 1494 2454 
Q 2106 2438 2925 2438 
L 2925 3968 
z
" transform="scale(0.015625)"/>
     </defs>
     <use xlink:href="#STHeitiSC-Medium-33e"/>
     <use xlink:href="#STHeitiSC-Medium-383" transform="translate(100 0)"/>
     <use xlink:href="#STHeitiSC-Medium-3" transform="translate(200 0)"/>
     <use xlink:href="#STHeitiSC-Medium-60" transform="translate(225 0)"/>
     <use xlink:href="#STHeitiSC-Medium-3" transform="translate(285.59375 0)"/>
     <use xlink:href="#STHeitiSC-Medium-33e" transform="translate(310.59375 0)"/>
     <use xlink:href="#STHeitiSC-Medium-52e" transform="translate(410.59375 0)"/>
     <use xlink:href="#STHeitiSC-Medium-3" transform="translate(510.59375 0)"/>
     <use xlink:href="#STHeitiSC-Medium-29" transform="translate(535.59375 0)"/>
     <use xlink:href="#STHeitiSC-Medium-32" transform="translate(622.796875 0)"/>
     <use xlink:href="#STHeitiSC-Medium-37" transform="translate(682 0)"/>
    </g>
   </g>
   <g id="patch_6">
    <path d="M 184.968501 74.16 
Q 199.70816 74.16 212.211752 74.16 
" style="fill: none; stroke: #424242; stroke-width: 2; stroke-linecap: round"/>
    <path d="M 208.211752 72.16 
L 212.211752 74.16 
L 208.211752 76.16 
" style="fill: none; stroke: #424242; stroke-width: 2; stroke-linecap: round"/>
   </g>
   <g id="patch_7">
    <path d="M 346.792588 74.16 
Q 355.951792 74.16 362.874929 74.16 
" style="fill: none; stroke: #424242; stroke-width: 2; stroke-linecap: round"/>
    <path d="M 358.874929 72.16 
L 362.874929 74.16 
L 358.874929 76.16 
" style="fill: none; stroke: #424242; stroke-width: 2; stroke-linecap: round"/>
   </g>
   <g id="patch_8">
    <path d="M 530.932588 74.16 
Q 540.091792 74.16 547.014929 74.16 
" style="fill: none; stroke: #424242; stroke-width: 2; stroke-linecap: round"/>
    <path d="M 543.014929 72.16 
L 547.014929 74.16 
L 543.014929 76.16 
" style="fill: none; stroke: #424242; stroke-width: 2; stroke-linecap: round"/>
   </g>
   <g id="text_5">
    <!-- 主机内 -->
    <g style="fill: #212121" transform="translate(186.21 55.08) scale(0.09 -0.09)">
     <defs>
      <path id="STHeitiSC-Medium-1c2" d="M 3130 4218 
Q 3021 4461 2915 4640 
Q 2810 4819 2669 4998 
L 3290 5261 
Q 3437 5056 3549 4886 
Q 3661 4717 3770 4518 
L 3130 4218 
z
M 3494 352 
Q 4262 358 4816 371 
Q 5370 384 5811 416 
L 5811 -230 
Q 5338 -198 4710 -182 
Q 4083 -166 3200 -166 
Q 2317 -166 1689 -182 
Q 1062 -198 589 -230 
L 589 416 
Q 1030 384 1580 371 
Q 2131 358 2899 352 
L 2899 1907 
Q 2317 1901 1901 1888 
Q 1485 1875 1146 1843 
L 1146 2438 
Q 1485 2406 1901 2393 
Q 2317 2381 2899 2374 
L 2899 3642 
Q 2246 3635 1772 3622 
Q 1299 3610 915 3578 
L 915 4186 
Q 1338 4154 1888 4138 
Q 2438 4122 3219 4122 
Q 4000 4122 4550 4138 
Q 5101 4154 5523 4186 
L 5523 3578 
Q 5139 3610 4652 3622 
Q 4166 3635 3494 3642 
L 3494 2374 
Q 4058 2381 4464 2393 
Q 4870 2406 5203 2438 
L 5203 1843 
Q 4870 1875 4464 1888 
Q 4058 1901 3494 1907 
L 3494 352 
z
" transform="scale(0.015625)"/>
      <path id="STHeitiSC-Medium-1af" d="M 6182 499 
Q 6093 179 6029 -3 
Q 5965 -186 5865 -275 
Q 5766 -365 5612 -387 
Q 5459 -410 5203 -410 
Q 4998 -410 4867 -390 
Q 4736 -371 4659 -294 
Q 4582 -218 4553 -61 
Q 4525 96 4525 371 
L 4570 4275 
L 3539 4275 
Q 3552 3789 3549 3302 
Q 3546 2816 3533 2355 
Q 3520 1862 3469 1456 
Q 3418 1050 3306 691 
Q 3194 333 3002 0 
Q 2810 -333 2509 -685 
Q 2381 -563 2240 -480 
Q 2099 -397 1901 -333 
Q 2163 -128 2348 77 
Q 2534 282 2662 528 
Q 2790 774 2870 1088 
Q 2950 1402 2995 1830 
Q 3021 2099 3030 2396 
Q 3040 2694 3037 3052 
Q 3034 3411 3018 3836 
Q 3002 4262 2976 4794 
Q 3168 4768 3462 4755 
Q 3757 4742 4083 4742 
Q 4410 4742 4691 4752 
Q 4973 4762 5171 4787 
Q 5139 4646 5116 4457 
Q 5094 4269 5094 3962 
L 5050 378 
Q 5050 198 5123 144 
Q 5197 90 5357 90 
Q 5434 90 5482 122 
Q 5530 154 5558 243 
Q 5587 333 5600 489 
Q 5613 646 5619 896 
Q 5709 730 5859 630 
Q 6010 531 6182 499 
z
M 2317 1504 
Q 2234 1728 2115 1952 
Q 1997 2176 1811 2458 
L 2202 2656 
Q 2368 2413 2505 2185 
Q 2643 1958 2765 1754 
L 2317 1504 
z
M 1216 2259 
Q 1088 1856 931 1501 
Q 774 1146 538 736 
Q 467 909 390 1043 
Q 314 1178 218 1325 
Q 378 1498 512 1686 
Q 646 1875 764 2105 
Q 883 2336 992 2630 
Q 1101 2925 1216 3315 
L 1216 3398 
Q 922 3392 701 3379 
Q 480 3366 314 3347 
L 314 3853 
Q 480 3827 701 3817 
Q 922 3808 1216 3802 
Q 1216 4070 1213 4268 
Q 1210 4467 1203 4617 
Q 1197 4768 1184 4883 
Q 1171 4998 1158 5107 
Q 1325 5088 1465 5085 
Q 1606 5082 1754 5094 
Q 1850 5107 1862 5062 
Q 1875 5018 1786 4934 
Q 1741 4896 1731 4857 
Q 1722 4819 1722 4762 
L 1722 3802 
Q 2016 3808 2240 3817 
Q 2464 3827 2630 3853 
L 2630 3347 
Q 2464 3366 2240 3379 
Q 2016 3392 1722 3398 
L 1722 608 
Q 1722 352 1734 32 
Q 1747 -288 1779 -595 
L 1146 -595 
Q 1178 -288 1197 32 
Q 1216 352 1216 608 
L 1216 2259 
z
" transform="scale(0.015625)"/>
      <path id="STHeitiSC-Medium-2ad" d="M 3277 2669 
Q 3437 2547 3635 2384 
Q 3834 2221 4035 2038 
Q 4237 1856 4425 1670 
Q 4614 1485 4762 1312 
L 4275 928 
Q 4141 1107 3981 1305 
Q 3821 1504 3667 1686 
Q 3514 1869 3376 2019 
Q 3238 2170 3149 2253 
Q 3066 2029 2973 1846 
Q 2880 1664 2755 1485 
Q 2630 1306 2464 1120 
Q 2298 934 2067 717 
Q 1837 902 1555 1024 
Q 1901 1274 2131 1494 
Q 2362 1715 2509 1984 
Q 2656 2253 2736 2608 
Q 2816 2963 2861 3482 
L 1446 3482 
L 1446 -525 
L 864 -525 
Q 896 -314 909 -96 
Q 922 122 922 422 
L 922 3066 
Q 922 3373 909 3600 
Q 896 3827 870 4013 
Q 1056 3994 1264 3981 
Q 1472 3968 1715 3961 
Q 1958 3955 2249 3955 
Q 2541 3955 2893 3955 
Q 2899 4051 2899 4201 
Q 2899 4352 2892 4515 
Q 2886 4678 2876 4832 
Q 2867 4986 2854 5094 
Q 3040 5075 3219 5065 
Q 3398 5056 3565 5069 
Q 3782 5082 3597 4941 
Q 3565 4915 3520 4636 
Q 3475 4358 3450 3955 
Q 3827 3955 4131 3958 
Q 4435 3962 4684 3965 
Q 4934 3968 5142 3981 
Q 5350 3994 5536 4013 
Q 5517 3846 5504 3590 
Q 5491 3334 5491 3066 
L 5491 77 
Q 5491 -102 5459 -224 
Q 5427 -346 5312 -432 
Q 5197 -518 4976 -572 
Q 4755 -627 4384 -672 
Q 4378 -525 4317 -368 
Q 4256 -211 4128 -51 
Q 4384 -77 4544 -67 
Q 4704 -58 4797 -16 
Q 4890 26 4922 96 
Q 4954 166 4954 262 
L 4954 3482 
L 3405 3482 
Q 3373 3264 3341 3043 
Q 3309 2822 3277 2669 
z
" transform="scale(0.015625)"/>
     </defs>
     <use xlink:href="#STHeitiSC-Medium-1c2"/>
     <use xlink:href="#STHeitiSC-Medium-1af" transform="translate(100 0)"/>
     <use xlink:href="#STHeitiSC-Medium-2ad" transform="translate(200 0)"/>
    </g>
   </g>
   <g id="text_6">
    <!-- 跨主机 -->
    <g style="fill: #212121" transform="translate(342.45 55.08) scale(0.09 -0.09)">
     <defs>
      <path id="STHeitiSC-Medium-e72" d="M 2048 4397 
L 1216 4397 
L 1216 3379 
L 2048 3379 
L 2048 4397 
z
M 1965 576 
Q 2182 627 2377 688 
Q 2573 749 2746 813 
Q 2726 762 2716 688 
Q 2707 614 2704 540 
Q 2701 467 2704 396 
Q 2707 326 2720 282 
Q 1984 134 1405 -38 
Q 826 -211 486 -352 
Q 467 -198 419 -6 
Q 371 186 301 339 
Q 397 346 493 352 
Q 589 358 678 371 
L 678 1600 
Q 678 1824 672 2038 
Q 666 2253 653 2381 
Q 794 2355 947 2345 
Q 1101 2336 1178 2342 
Q 1254 2349 1270 2320 
Q 1286 2291 1222 2246 
Q 1107 2170 1107 2080 
L 1107 422 
Q 1216 435 1315 451 
Q 1414 467 1510 486 
L 1510 3014 
Q 1261 3014 1075 3011 
Q 890 3008 755 2995 
Q 768 3174 774 3417 
Q 781 3661 781 3898 
Q 781 4141 774 4384 
Q 768 4627 755 4813 
Q 915 4794 1123 4781 
Q 1331 4768 1638 4768 
Q 1946 4768 2150 4781 
Q 2355 4794 2515 4813 
Q 2502 4634 2499 4387 
Q 2496 4141 2496 3898 
Q 2496 3654 2499 3411 
Q 2502 3168 2515 2989 
Q 2406 3002 2272 3005 
Q 2138 3008 1965 3014 
L 1965 2054 
Q 2381 2054 2490 2080 
L 2490 1613 
Q 2381 1638 1965 1638 
L 1965 576 
z
M 3450 1664 
Q 3238 1651 3065 1644 
Q 2893 1638 2746 1626 
L 2746 2144 
Q 2995 2118 3353 2105 
Q 3712 2093 4179 2093 
Q 4416 2093 4643 2096 
Q 4870 2099 5075 2105 
Q 5280 2112 5453 2121 
Q 5626 2131 5754 2144 
L 5754 1626 
Q 5504 1651 5296 1660 
Q 5088 1670 4813 1670 
L 3923 1670 
L 3789 1088 
L 4710 1088 
Q 4832 1088 4963 1091 
Q 5094 1094 5206 1097 
Q 5318 1101 5401 1107 
Q 5485 1114 5510 1120 
Q 5440 762 5363 416 
Q 5286 70 5210 -198 
Q 5146 -422 4874 -553 
Q 4602 -685 4006 -723 
Q 3994 -646 3981 -576 
Q 3968 -506 3942 -429 
Q 3917 -352 3875 -265 
Q 3834 -179 3770 -64 
Q 3936 -115 4096 -131 
Q 4256 -147 4387 -128 
Q 4518 -109 4611 -57 
Q 4704 -6 4736 64 
Q 4794 186 4826 323 
Q 4858 461 4883 659 
L 3898 659 
Q 3744 659 3539 649 
Q 3334 640 3187 627 
Q 3258 851 3328 1123 
Q 3398 1395 3450 1664 
z
M 3680 4058 
Q 3475 4058 3244 4051 
Q 3014 4045 2810 4026 
L 2810 4531 
Q 3008 4518 3254 4512 
Q 3501 4506 3827 4499 
Q 3866 4659 3888 4819 
Q 3910 4979 3917 5165 
Q 4064 5094 4249 5046 
Q 4435 4998 4544 4998 
Q 4666 4998 4570 4902 
Q 4518 4864 4358 4499 
Q 4704 4499 4944 4499 
Q 5184 4499 5357 4505 
Q 5530 4512 5658 4515 
Q 5786 4518 5901 4531 
L 5901 4026 
Q 5677 4038 5389 4048 
Q 5101 4058 4819 4058 
Q 4915 3827 5036 3664 
Q 5158 3501 5312 3385 
Q 5466 3270 5658 3196 
Q 5850 3123 6099 3066 
Q 5978 2938 5888 2778 
Q 5798 2618 5760 2464 
Q 5517 2611 5325 2755 
Q 5133 2899 4973 3053 
L 4973 2573 
Q 4851 2605 4630 2621 
Q 4410 2637 4179 2637 
Q 3949 2637 3728 2621 
Q 3507 2605 3379 2573 
L 3379 2938 
Q 3219 2797 3033 2662 
Q 2848 2528 2637 2394 
Q 2573 2483 2480 2576 
Q 2387 2669 2266 2765 
Q 2835 3014 3168 3340 
Q 3501 3667 3680 4058 
z
M 4186 4058 
Q 3962 3520 3539 3091 
Q 3667 3078 3836 3072 
Q 4006 3066 4179 3066 
Q 4384 3066 4589 3075 
Q 4794 3085 4922 3104 
Q 4723 3309 4598 3539 
Q 4474 3770 4410 4058 
L 4186 4058 
z
" transform="scale(0.015625)"/>
     </defs>
     <use xlink:href="#STHeitiSC-Medium-e72"/>
     <use xlink:href="#STHeitiSC-Medium-1c2" transform="translate(100 0)"/>
     <use xlink:href="#STHeitiSC-Medium-1af" transform="translate(200 0)"/>
    </g>
   </g>
  </g>
 </g>
 <defs>
  <clipPath id="pa4f2f9911e">
   <rect x="7.2" y="7.2" width="669.6" height="133.92"/>
  </clipPath>
 </defs>
</svg>
