<?xml version="1.0" encoding="utf-8" standalone="no"?>
<!DOCTYPE svg PUBLIC "-//W3C//DTD SVG 1.1//EN"
  "http://www.w3.org/Graphics/SVG/1.1/DTD/svg11.dtd">
<svg xmlns:xlink="http://www.w3.org/1999/xlink" width="795.6pt" height="425.0136pt" viewBox="0 0 795.6 425.0136" xmlns="http://www.w3.org/2000/svg" version="1.1">
 <metadata>
  <rdf:RDF xmlns:dc="http://purl.org/dc/elements/1.1/" xmlns:cc="http://creativecommons.org/ns#" xmlns:rdf="http://www.w3.org/1999/02/22-rdf-syntax-ns#">
   <cc:Work>
    <dc:type rdf:resource="http://purl.org/dc/dcmitype/StillImage"/>
    <dc:date>2026-07-14T10:42:14.291511</dc:date>
    <dc:format>image/svg+xml</dc:format>
    <dc:creator>
     <cc:Agent>
      <dc:title>Matplotlib v3.11.0, https://matplotlib.org/</dc:title>
     </cc:Agent>
    </dc:creator>
   </cc:Work>
  </rdf:RDF>
 </metadata>
 <defs>
  <style type="text/css">*{stroke-linejoin: round; stroke-linecap: butt}</style>
 </defs>
 <g id="figure_1">
  <g id="patch_1">
   <path d="M 0 425.0136 
L 795.6 425.0136 
L 795.6 0 
L 0 0 
z
" style="fill: #ffffff"/>
  </g>
  <g id="axes_1">
   <g id="patch_2">
    <path d="M 183.528 351.2856 
L 406.728 351.2856 
Q 412.308 351.2856 412.308 345.7416 
L 412.308 53.0184 
Q 412.308 47.4744 406.728 47.4744 
L 183.528 47.4744 
Q 177.948 47.4744 177.948 53.0184 
L 177.948 345.7416 
Q 177.948 351.2856 183.528 351.2856 
z
" clip-path="url(#p72796cf619)" style="fill: #e0e0e0; opacity: 0.3"/>
   </g>
   <g id="patch_3">
    <path d="M 174.6 62.9976 
L 203.616 62.9976 
L 203.616 44.148 
L 174.6 44.148 
z
" clip-path="url(#p72796cf619)" style="fill: #fff9c4; stroke: #f9a825; stroke-width: 0.5; stroke-linejoin: miter"/>
   </g>
   <g id="patch_4">
    <path d="M 203.616 62.9976 
L 232.632 62.9976 
L 232.632 44.148 
L 203.616 44.148 
z
" clip-path="url(#p72796cf619)" style="fill: #fff9c4; stroke: #f9a825; stroke-width: 0.5; stroke-linejoin: miter"/>
   </g>
   <g id="patch_5">
    <path d="M 232.632 62.9976 
L 261.648 62.9976 
L 261.648 44.148 
L 232.632 44.148 
z
" clip-path="url(#p72796cf619)" style="fill: #fff9c4; stroke: #f9a825; stroke-width: 0.5; stroke-linejoin: miter"/>
   </g>
   <g id="patch_6">
    <path d="M 261.648 62.9976 
L 290.664 62.9976 
L 290.664 44.148 
L 261.648 44.148 
z
" clip-path="url(#p72796cf619)" style="fill: #fff9c4; stroke: #f9a825; stroke-width: 0.5; stroke-linejoin: miter"/>
   </g>
   <g id="patch_7">
    <path d="M 290.664 62.9976 
L 319.68 62.9976 
L 319.68 44.148 
L 290.664 44.148 
z
" clip-path="url(#p72796cf619)" style="fill: #fff9c4; stroke: #f9a825; stroke-width: 0.5; stroke-linejoin: miter"/>
   </g>
   <g id="patch_8">
    <path d="M 319.68 62.9976 
L 348.696 62.9976 
L 348.696 44.148 
L 319.68 44.148 
z
" clip-path="url(#p72796cf619)" style="fill: #fff9c4; stroke: #f9a825; stroke-width: 0.5; stroke-linejoin: miter"/>
   </g>
   <g id="patch_9">
    <path d="M 348.696 62.9976 
L 377.712 62.9976 
L 377.712 44.148 
L 348.696 44.148 
z
" clip-path="url(#p72796cf619)" style="fill: #fff9c4; stroke: #f9a825; stroke-width: 0.5; stroke-linejoin: miter"/>
   </g>
   <g id="patch_10">
    <path d="M 377.712 62.9976 
L 406.728 62.9976 
L 406.728 44.148 
L 377.712 44.148 
z
" clip-path="url(#p72796cf619)" style="fill: #fff9c4; stroke: #f9a825; stroke-width: 0.5; stroke-linejoin: miter"/>
   </g>
   <g id="patch_11">
    <path d="M 174.6 81.8472 
L 203.616 81.8472 
L 203.616 62.9976 
L 174.6 62.9976 
z
" clip-path="url(#p72796cf619)" style="fill: #fff9c4; stroke: #f9a825; stroke-width: 0.5; stroke-linejoin: miter"/>
   </g>
   <g id="patch_12">
    <path d="M 203.616 81.8472 
L 232.632 81.8472 
L 232.632 62.9976 
L 203.616 62.9976 
z
" clip-path="url(#p72796cf619)" style="fill: #fff9c4; stroke: #f9a825; stroke-width: 0.5; stroke-linejoin: miter"/>
   </g>
   <g id="patch_13">
    <path d="M 232.632 81.8472 
L 261.648 81.8472 
L 261.648 62.9976 
L 232.632 62.9976 
z
" clip-path="url(#p72796cf619)" style="fill: #fff9c4; stroke: #f9a825; stroke-width: 0.5; stroke-linejoin: miter"/>
   </g>
   <g id="patch_14">
    <path d="M 261.648 81.8472 
L 290.664 81.8472 
L 290.664 62.9976 
L 261.648 62.9976 
z
" clip-path="url(#p72796cf619)" style="fill: #fff9c4; stroke: #f9a825; stroke-width: 0.5; stroke-linejoin: miter"/>
   </g>
   <g id="patch_15">
    <path d="M 290.664 81.8472 
L 319.68 81.8472 
L 319.68 62.9976 
L 290.664 62.9976 
z
" clip-path="url(#p72796cf619)" style="fill: #fff9c4; stroke: #f9a825; stroke-width: 0.5; stroke-linejoin: miter"/>
   </g>
   <g id="patch_16">
    <path d="M 319.68 81.8472 
L 348.696 81.8472 
L 348.696 62.9976 
L 319.68 62.9976 
z
" clip-path="url(#p72796cf619)" style="fill: #fff9c4; stroke: #f9a825; stroke-width: 0.5; stroke-linejoin: miter"/>
   </g>
   <g id="patch_17">
    <path d="M 348.696 81.8472 
L 377.712 81.8472 
L 377.712 62.9976 
L 348.696 62.9976 
z
" clip-path="url(#p72796cf619)" style="fill: #fff9c4; stroke: #f9a825; stroke-width: 0.5; stroke-linejoin: miter"/>
   </g>
   <g id="patch_18">
    <path d="M 377.712 81.8472 
L 406.728 81.8472 
L 406.728 62.9976 
L 377.712 62.9976 
z
" clip-path="url(#p72796cf619)" style="fill: #fff9c4; stroke: #f9a825; stroke-width: 0.5; stroke-linejoin: miter"/>
   </g>
   <g id="patch_19">
    <path d="M 174.6 100.6968 
L 203.616 100.6968 
L 203.616 81.8472 
L 174.6 81.8472 
z
" clip-path="url(#p72796cf619)" style="fill: #fff9c4; stroke: #f9a825; stroke-width: 0.5; stroke-linejoin: miter"/>
   </g>
   <g id="patch_20">
    <path d="M 203.616 100.6968 
L 232.632 100.6968 
L 232.632 81.8472 
L 203.616 81.8472 
z
" clip-path="url(#p72796cf619)" style="fill: #fff9c4; stroke: #f9a825; stroke-width: 0.5; stroke-linejoin: miter"/>
   </g>
   <g id="patch_21">
    <path d="M 232.632 100.6968 
L 261.648 100.6968 
L 261.648 81.8472 
L 232.632 81.8472 
z
" clip-path="url(#p72796cf619)" style="fill: #fff9c4; stroke: #f9a825; stroke-width: 0.5; stroke-linejoin: miter"/>
   </g>
   <g id="patch_22">
    <path d="M 261.648 100.6968 
L 290.664 100.6968 
L 290.664 81.8472 
L 261.648 81.8472 
z
" clip-path="url(#p72796cf619)" style="fill: #fff9c4; stroke: #f9a825; stroke-width: 0.5; stroke-linejoin: miter"/>
   </g>
   <g id="patch_23">
    <path d="M 290.664 100.6968 
L 319.68 100.6968 
L 319.68 81.8472 
L 290.664 81.8472 
z
" clip-path="url(#p72796cf619)" style="fill: #fff9c4; stroke: #f9a825; stroke-width: 0.5; stroke-linejoin: miter"/>
   </g>
   <g id="patch_24">
    <path d="M 319.68 100.6968 
L 348.696 100.6968 
L 348.696 81.8472 
L 319.68 81.8472 
z
" clip-path="url(#p72796cf619)" style="fill: #fff9c4; stroke: #f9a825; stroke-width: 0.5; stroke-linejoin: miter"/>
   </g>
   <g id="patch_25">
    <path d="M 348.696 100.6968 
L 377.712 100.6968 
L 377.712 81.8472 
L 348.696 81.8472 
z
" clip-path="url(#p72796cf619)" style="fill: #fff9c4; stroke: #f9a825; stroke-width: 0.5; stroke-linejoin: miter"/>
   </g>
   <g id="patch_26">
    <path d="M 377.712 100.6968 
L 406.728 100.6968 
L 406.728 81.8472 
L 377.712 81.8472 
z
" clip-path="url(#p72796cf619)" style="fill: #fff9c4; stroke: #f9a825; stroke-width: 0.5; stroke-linejoin: miter"/>
   </g>
   <g id="patch_27">
    <path d="M 174.6 119.5464 
L 203.616 119.5464 
L 203.616 100.6968 
L 174.6 100.6968 
z
" clip-path="url(#p72796cf619)" style="fill: #fff9c4; stroke: #f9a825; stroke-width: 0.5; stroke-linejoin: miter"/>
   </g>
   <g id="patch_28">
    <path d="M 203.616 119.5464 
L 232.632 119.5464 
L 232.632 100.6968 
L 203.616 100.6968 
z
" clip-path="url(#p72796cf619)" style="fill: #fff9c4; stroke: #f9a825; stroke-width: 0.5; stroke-linejoin: miter"/>
   </g>
   <g id="patch_29">
    <path d="M 232.632 119.5464 
L 261.648 119.5464 
L 261.648 100.6968 
L 232.632 100.6968 
z
" clip-path="url(#p72796cf619)" style="fill: #fff9c4; stroke: #f9a825; stroke-width: 0.5; stroke-linejoin: miter"/>
   </g>
   <g id="patch_30">
    <path d="M 261.648 119.5464 
L 290.664 119.5464 
L 290.664 100.6968 
L 261.648 100.6968 
z
" clip-path="url(#p72796cf619)" style="fill: #fff9c4; stroke: #f9a825; stroke-width: 0.5; stroke-linejoin: miter"/>
   </g>
   <g id="patch_31">
    <path d="M 290.664 119.5464 
L 319.68 119.5464 
L 319.68 100.6968 
L 290.664 100.6968 
z
" clip-path="url(#p72796cf619)" style="fill: #fff9c4; stroke: #f9a825; stroke-width: 0.5; stroke-linejoin: miter"/>
   </g>
   <g id="patch_32">
    <path d="M 319.68 119.5464 
L 348.696 119.5464 
L 348.696 100.6968 
L 319.68 100.6968 
z
" clip-path="url(#p72796cf619)" style="fill: #fff9c4; stroke: #f9a825; stroke-width: 0.5; stroke-linejoin: miter"/>
   </g>
   <g id="patch_33">
    <path d="M 348.696 119.5464 
L 377.712 119.5464 
L 377.712 100.6968 
L 348.696 100.6968 
z
" clip-path="url(#p72796cf619)" style="fill: #fff9c4; stroke: #f9a825; stroke-width: 0.5; stroke-linejoin: miter"/>
   </g>
   <g id="patch_34">
    <path d="M 377.712 119.5464 
L 406.728 119.5464 
L 406.728 100.6968 
L 377.712 100.6968 
z
" clip-path="url(#p72796cf619)" style="fill: #fff9c4; stroke: #f9a825; stroke-width: 0.5; stroke-linejoin: miter"/>
   </g>
   <g id="patch_35">
    <path d="M 174.6 138.396 
L 203.616 138.396 
L 203.616 119.5464 
L 174.6 119.5464 
z
" clip-path="url(#p72796cf619)" style="fill: #fff59d; stroke: #f9a825; stroke-width: 0.5; stroke-linejoin: miter"/>
   </g>
   <g id="patch_36">
    <path d="M 203.616 138.396 
L 232.632 138.396 
L 232.632 119.5464 
L 203.616 119.5464 
z
" clip-path="url(#p72796cf619)" style="fill: #fff59d; stroke: #f9a825; stroke-width: 0.5; stroke-linejoin: miter"/>
   </g>
   <g id="patch_37">
    <path d="M 232.632 138.396 
L 261.648 138.396 
L 261.648 119.5464 
L 232.632 119.5464 
z
" clip-path="url(#p72796cf619)" style="fill: #fff59d; stroke: #f9a825; stroke-width: 0.5; stroke-linejoin: miter"/>
   </g>
   <g id="patch_38">
    <path d="M 261.648 138.396 
L 290.664 138.396 
L 290.664 119.5464 
L 261.648 119.5464 
z
" clip-path="url(#p72796cf619)" style="fill: #fff59d; stroke: #f9a825; stroke-width: 0.5; stroke-linejoin: miter"/>
   </g>
   <g id="patch_39">
    <path d="M 290.664 138.396 
L 319.68 138.396 
L 319.68 119.5464 
L 290.664 119.5464 
z
" clip-path="url(#p72796cf619)" style="fill: #fff59d; stroke: #f9a825; stroke-width: 0.5; stroke-linejoin: miter"/>
   </g>
   <g id="patch_40">
    <path d="M 319.68 138.396 
L 348.696 138.396 
L 348.696 119.5464 
L 319.68 119.5464 
z
" clip-path="url(#p72796cf619)" style="fill: #fff59d; stroke: #f9a825; stroke-width: 0.5; stroke-linejoin: miter"/>
   </g>
   <g id="patch_41">
    <path d="M 348.696 138.396 
L 377.712 138.396 
L 377.712 119.5464 
L 348.696 119.5464 
z
" clip-path="url(#p72796cf619)" style="fill: #fff59d; stroke: #f9a825; stroke-width: 0.5; stroke-linejoin: miter"/>
   </g>
   <g id="patch_42">
    <path d="M 377.712 138.396 
L 406.728 138.396 
L 406.728 119.5464 
L 377.712 119.5464 
z
" clip-path="url(#p72796cf619)" style="fill: #fff59d; stroke: #f9a825; stroke-width: 0.5; stroke-linejoin: miter"/>
   </g>
   <g id="patch_43">
    <path d="M 174.6 157.2456 
L 203.616 157.2456 
L 203.616 138.396 
L 174.6 138.396 
z
" clip-path="url(#p72796cf619)" style="fill: #fff59d; stroke: #f9a825; stroke-width: 0.5; stroke-linejoin: miter"/>
   </g>
   <g id="patch_44">
    <path d="M 203.616 157.2456 
L 232.632 157.2456 
L 232.632 138.396 
L 203.616 138.396 
z
" clip-path="url(#p72796cf619)" style="fill: #fff59d; stroke: #f9a825; stroke-width: 0.5; stroke-linejoin: miter"/>
   </g>
   <g id="patch_45">
    <path d="M 232.632 157.2456 
L 261.648 157.2456 
L 261.648 138.396 
L 232.632 138.396 
z
" clip-path="url(#p72796cf619)" style="fill: #fff59d; stroke: #f9a825; stroke-width: 0.5; stroke-linejoin: miter"/>
   </g>
   <g id="patch_46">
    <path d="M 261.648 157.2456 
L 290.664 157.2456 
L 290.664 138.396 
L 261.648 138.396 
z
" clip-path="url(#p72796cf619)" style="fill: #fff59d; stroke: #f9a825; stroke-width: 0.5; stroke-linejoin: miter"/>
   </g>
   <g id="patch_47">
    <path d="M 290.664 157.2456 
L 319.68 157.2456 
L 319.68 138.396 
L 290.664 138.396 
z
" clip-path="url(#p72796cf619)" style="fill: #fff59d; stroke: #f9a825; stroke-width: 0.5; stroke-linejoin: miter"/>
   </g>
   <g id="patch_48">
    <path d="M 319.68 157.2456 
L 348.696 157.2456 
L 348.696 138.396 
L 319.68 138.396 
z
" clip-path="url(#p72796cf619)" style="fill: #fff59d; stroke: #f9a825; stroke-width: 0.5; stroke-linejoin: miter"/>
   </g>
   <g id="patch_49">
    <path d="M 348.696 157.2456 
L 377.712 157.2456 
L 377.712 138.396 
L 348.696 138.396 
z
" clip-path="url(#p72796cf619)" style="fill: #fff59d; stroke: #f9a825; stroke-width: 0.5; stroke-linejoin: miter"/>
   </g>
   <g id="patch_50">
    <path d="M 377.712 157.2456 
L 406.728 157.2456 
L 406.728 138.396 
L 377.712 138.396 
z
" clip-path="url(#p72796cf619)" style="fill: #fff59d; stroke: #f9a825; stroke-width: 0.5; stroke-linejoin: miter"/>
   </g>
   <g id="patch_51">
    <path d="M 174.6 176.0952 
L 203.616 176.0952 
L 203.616 157.2456 
L 174.6 157.2456 
z
" clip-path="url(#p72796cf619)" style="fill: #fff59d; stroke: #f9a825; stroke-width: 0.5; stroke-linejoin: miter"/>
   </g>
   <g id="patch_52">
    <path d="M 203.616 176.0952 
L 232.632 176.0952 
L 232.632 157.2456 
L 203.616 157.2456 
z
" clip-path="url(#p72796cf619)" style="fill: #fff59d; stroke: #f9a825; stroke-width: 0.5; stroke-linejoin: miter"/>
   </g>
   <g id="patch_53">
    <path d="M 232.632 176.0952 
L 261.648 176.0952 
L 261.648 157.2456 
L 232.632 157.2456 
z
" clip-path="url(#p72796cf619)" style="fill: #fff59d; stroke: #f9a825; stroke-width: 0.5; stroke-linejoin: miter"/>
   </g>
   <g id="patch_54">
    <path d="M 261.648 176.0952 
L 290.664 176.0952 
L 290.664 157.2456 
L 261.648 157.2456 
z
" clip-path="url(#p72796cf619)" style="fill: #fff59d; stroke: #f9a825; stroke-width: 0.5; stroke-linejoin: miter"/>
   </g>
   <g id="patch_55">
    <path d="M 290.664 176.0952 
L 319.68 176.0952 
L 319.68 157.2456 
L 290.664 157.2456 
z
" clip-path="url(#p72796cf619)" style="fill: #fff59d; stroke: #f9a825; stroke-width: 0.5; stroke-linejoin: miter"/>
   </g>
   <g id="patch_56">
    <path d="M 319.68 176.0952 
L 348.696 176.0952 
L 348.696 157.2456 
L 319.68 157.2456 
z
" clip-path="url(#p72796cf619)" style="fill: #fff59d; stroke: #f9a825; stroke-width: 0.5; stroke-linejoin: miter"/>
   </g>
   <g id="patch_57">
    <path d="M 348.696 176.0952 
L 377.712 176.0952 
L 377.712 157.2456 
L 348.696 157.2456 
z
" clip-path="url(#p72796cf619)" style="fill: #fff59d; stroke: #f9a825; stroke-width: 0.5; stroke-linejoin: miter"/>
   </g>
   <g id="patch_58">
    <path d="M 377.712 176.0952 
L 406.728 176.0952 
L 406.728 157.2456 
L 377.712 157.2456 
z
" clip-path="url(#p72796cf619)" style="fill: #fff59d; stroke: #f9a825; stroke-width: 0.5; stroke-linejoin: miter"/>
   </g>
   <g id="patch_59">
    <path d="M 174.6 194.9448 
L 203.616 194.9448 
L 203.616 176.0952 
L 174.6 176.0952 
z
" clip-path="url(#p72796cf619)" style="fill: #fff59d; stroke: #f9a825; stroke-width: 0.5; stroke-linejoin: miter"/>
   </g>
   <g id="patch_60">
    <path d="M 203.616 194.9448 
L 232.632 194.9448 
L 232.632 176.0952 
L 203.616 176.0952 
z
" clip-path="url(#p72796cf619)" style="fill: #fff59d; stroke: #f9a825; stroke-width: 0.5; stroke-linejoin: miter"/>
   </g>
   <g id="patch_61">
    <path d="M 232.632 194.9448 
L 261.648 194.9448 
L 261.648 176.0952 
L 232.632 176.0952 
z
" clip-path="url(#p72796cf619)" style="fill: #fff59d; stroke: #f9a825; stroke-width: 0.5; stroke-linejoin: miter"/>
   </g>
   <g id="patch_62">
    <path d="M 261.648 194.9448 
L 290.664 194.9448 
L 290.664 176.0952 
L 261.648 176.0952 
z
" clip-path="url(#p72796cf619)" style="fill: #fff59d; stroke: #f9a825; stroke-width: 0.5; stroke-linejoin: miter"/>
   </g>
   <g id="patch_63">
    <path d="M 290.664 194.9448 
L 319.68 194.9448 
L 319.68 176.0952 
L 290.664 176.0952 
z
" clip-path="url(#p72796cf619)" style="fill: #fff59d; stroke: #f9a825; stroke-width: 0.5; stroke-linejoin: miter"/>
   </g>
   <g id="patch_64">
    <path d="M 319.68 194.9448 
L 348.696 194.9448 
L 348.696 176.0952 
L 319.68 176.0952 
z
" clip-path="url(#p72796cf619)" style="fill: #fff59d; stroke: #f9a825; stroke-width: 0.5; stroke-linejoin: miter"/>
   </g>
   <g id="patch_65">
    <path d="M 348.696 194.9448 
L 377.712 194.9448 
L 377.712 176.0952 
L 348.696 176.0952 
z
" clip-path="url(#p72796cf619)" style="fill: #fff59d; stroke: #f9a825; stroke-width: 0.5; stroke-linejoin: miter"/>
   </g>
   <g id="patch_66">
    <path d="M 377.712 194.9448 
L 406.728 194.9448 
L 406.728 176.0952 
L 377.712 176.0952 
z
" clip-path="url(#p72796cf619)" style="fill: #fff59d; stroke: #f9a825; stroke-width: 0.5; stroke-linejoin: miter"/>
   </g>
   <g id="patch_67">
    <path d="M 174.6 213.7944 
L 203.616 213.7944 
L 203.616 194.9448 
L 174.6 194.9448 
z
" clip-path="url(#p72796cf619)" style="fill: #fff176; stroke: #f9a825; stroke-width: 0.5; stroke-linejoin: miter"/>
   </g>
   <g id="patch_68">
    <path d="M 203.616 213.7944 
L 232.632 213.7944 
L 232.632 194.9448 
L 203.616 194.9448 
z
" clip-path="url(#p72796cf619)" style="fill: #fff176; stroke: #f9a825; stroke-width: 0.5; stroke-linejoin: miter"/>
   </g>
   <g id="patch_69">
    <path d="M 232.632 213.7944 
L 261.648 213.7944 
L 261.648 194.9448 
L 232.632 194.9448 
z
" clip-path="url(#p72796cf619)" style="fill: #fff176; stroke: #f9a825; stroke-width: 0.5; stroke-linejoin: miter"/>
   </g>
   <g id="patch_70">
    <path d="M 261.648 213.7944 
L 290.664 213.7944 
L 290.664 194.9448 
L 261.648 194.9448 
z
" clip-path="url(#p72796cf619)" style="fill: #fff176; stroke: #f9a825; stroke-width: 0.5; stroke-linejoin: miter"/>
   </g>
   <g id="patch_71">
    <path d="M 290.664 213.7944 
L 319.68 213.7944 
L 319.68 194.9448 
L 290.664 194.9448 
z
" clip-path="url(#p72796cf619)" style="fill: #fff176; stroke: #f9a825; stroke-width: 0.5; stroke-linejoin: miter"/>
   </g>
   <g id="patch_72">
    <path d="M 319.68 213.7944 
L 348.696 213.7944 
L 348.696 194.9448 
L 319.68 194.9448 
z
" clip-path="url(#p72796cf619)" style="fill: #fff176; stroke: #f9a825; stroke-width: 0.5; stroke-linejoin: miter"/>
   </g>
   <g id="patch_73">
    <path d="M 348.696 213.7944 
L 377.712 213.7944 
L 377.712 194.9448 
L 348.696 194.9448 
z
" clip-path="url(#p72796cf619)" style="fill: #fff176; stroke: #f9a825; stroke-width: 0.5; stroke-linejoin: miter"/>
   </g>
   <g id="patch_74">
    <path d="M 377.712 213.7944 
L 406.728 213.7944 
L 406.728 194.9448 
L 377.712 194.9448 
z
" clip-path="url(#p72796cf619)" style="fill: #fff176; stroke: #f9a825; stroke-width: 0.5; stroke-linejoin: miter"/>
   </g>
   <g id="patch_75">
    <path d="M 174.6 232.644 
L 203.616 232.644 
L 203.616 213.7944 
L 174.6 213.7944 
z
" clip-path="url(#p72796cf619)" style="fill: #fff176; stroke: #f9a825; stroke-width: 0.5; stroke-linejoin: miter"/>
   </g>
   <g id="patch_76">
    <path d="M 203.616 232.644 
L 232.632 232.644 
L 232.632 213.7944 
L 203.616 213.7944 
z
" clip-path="url(#p72796cf619)" style="fill: #fff176; stroke: #f9a825; stroke-width: 0.5; stroke-linejoin: miter"/>
   </g>
   <g id="patch_77">
    <path d="M 232.632 232.644 
L 261.648 232.644 
L 261.648 213.7944 
L 232.632 213.7944 
z
" clip-path="url(#p72796cf619)" style="fill: #fff176; stroke: #f9a825; stroke-width: 0.5; stroke-linejoin: miter"/>
   </g>
   <g id="patch_78">
    <path d="M 261.648 232.644 
L 290.664 232.644 
L 290.664 213.7944 
L 261.648 213.7944 
z
" clip-path="url(#p72796cf619)" style="fill: #fff176; stroke: #f9a825; stroke-width: 0.5; stroke-linejoin: miter"/>
   </g>
   <g id="patch_79">
    <path d="M 290.664 232.644 
L 319.68 232.644 
L 319.68 213.7944 
L 290.664 213.7944 
z
" clip-path="url(#p72796cf619)" style="fill: #fff176; stroke: #f9a825; stroke-width: 0.5; stroke-linejoin: miter"/>
   </g>
   <g id="patch_80">
    <path d="M 319.68 232.644 
L 348.696 232.644 
L 348.696 213.7944 
L 319.68 213.7944 
z
" clip-path="url(#p72796cf619)" style="fill: #fff176; stroke: #f9a825; stroke-width: 0.5; stroke-linejoin: miter"/>
   </g>
   <g id="patch_81">
    <path d="M 348.696 232.644 
L 377.712 232.644 
L 377.712 213.7944 
L 348.696 213.7944 
z
" clip-path="url(#p72796cf619)" style="fill: #fff176; stroke: #f9a825; stroke-width: 0.5; stroke-linejoin: miter"/>
   </g>
   <g id="patch_82">
    <path d="M 377.712 232.644 
L 406.728 232.644 
L 406.728 213.7944 
L 377.712 213.7944 
z
" clip-path="url(#p72796cf619)" style="fill: #fff176; stroke: #f9a825; stroke-width: 0.5; stroke-linejoin: miter"/>
   </g>
   <g id="patch_83">
    <path d="M 174.6 251.4936 
L 203.616 251.4936 
L 203.616 232.644 
L 174.6 232.644 
z
" clip-path="url(#p72796cf619)" style="fill: #fff176; stroke: #f9a825; stroke-width: 0.5; stroke-linejoin: miter"/>
   </g>
   <g id="patch_84">
    <path d="M 203.616 251.4936 
L 232.632 251.4936 
L 232.632 232.644 
L 203.616 232.644 
z
" clip-path="url(#p72796cf619)" style="fill: #fff176; stroke: #f9a825; stroke-width: 0.5; stroke-linejoin: miter"/>
   </g>
   <g id="patch_85">
    <path d="M 232.632 251.4936 
L 261.648 251.4936 
L 261.648 232.644 
L 232.632 232.644 
z
" clip-path="url(#p72796cf619)" style="fill: #fff176; stroke: #f9a825; stroke-width: 0.5; stroke-linejoin: miter"/>
   </g>
   <g id="patch_86">
    <path d="M 261.648 251.4936 
L 290.664 251.4936 
L 290.664 232.644 
L 261.648 232.644 
z
" clip-path="url(#p72796cf619)" style="fill: #fff176; stroke: #f9a825; stroke-width: 0.5; stroke-linejoin: miter"/>
   </g>
   <g id="patch_87">
    <path d="M 290.664 251.4936 
L 319.68 251.4936 
L 319.68 232.644 
L 290.664 232.644 
z
" clip-path="url(#p72796cf619)" style="fill: #fff176; stroke: #f9a825; stroke-width: 0.5; stroke-linejoin: miter"/>
   </g>
   <g id="patch_88">
    <path d="M 319.68 251.4936 
L 348.696 251.4936 
L 348.696 232.644 
L 319.68 232.644 
z
" clip-path="url(#p72796cf619)" style="fill: #fff176; stroke: #f9a825; stroke-width: 0.5; stroke-linejoin: miter"/>
   </g>
   <g id="patch_89">
    <path d="M 348.696 251.4936 
L 377.712 251.4936 
L 377.712 232.644 
L 348.696 232.644 
z
" clip-path="url(#p72796cf619)" style="fill: #fff176; stroke: #f9a825; stroke-width: 0.5; stroke-linejoin: miter"/>
   </g>
   <g id="patch_90">
    <path d="M 377.712 251.4936 
L 406.728 251.4936 
L 406.728 232.644 
L 377.712 232.644 
z
" clip-path="url(#p72796cf619)" style="fill: #fff176; stroke: #f9a825; stroke-width: 0.5; stroke-linejoin: miter"/>
   </g>
   <g id="patch_91">
    <path d="M 174.6 270.3432 
L 203.616 270.3432 
L 203.616 251.4936 
L 174.6 251.4936 
z
" clip-path="url(#p72796cf619)" style="fill: #fff176; stroke: #f9a825; stroke-width: 0.5; stroke-linejoin: miter"/>
   </g>
   <g id="patch_92">
    <path d="M 203.616 270.3432 
L 232.632 270.3432 
L 232.632 251.4936 
L 203.616 251.4936 
z
" clip-path="url(#p72796cf619)" style="fill: #fff176; stroke: #f9a825; stroke-width: 0.5; stroke-linejoin: miter"/>
   </g>
   <g id="patch_93">
    <path d="M 232.632 270.3432 
L 261.648 270.3432 
L 261.648 251.4936 
L 232.632 251.4936 
z
" clip-path="url(#p72796cf619)" style="fill: #fff176; stroke: #f9a825; stroke-width: 0.5; stroke-linejoin: miter"/>
   </g>
   <g id="patch_94">
    <path d="M 261.648 270.3432 
L 290.664 270.3432 
L 290.664 251.4936 
L 261.648 251.4936 
z
" clip-path="url(#p72796cf619)" style="fill: #fff176; stroke: #f9a825; stroke-width: 0.5; stroke-linejoin: miter"/>
   </g>
   <g id="patch_95">
    <path d="M 290.664 270.3432 
L 319.68 270.3432 
L 319.68 251.4936 
L 290.664 251.4936 
z
" clip-path="url(#p72796cf619)" style="fill: #fff176; stroke: #f9a825; stroke-width: 0.5; stroke-linejoin: miter"/>
   </g>
   <g id="patch_96">
    <path d="M 319.68 270.3432 
L 348.696 270.3432 
L 348.696 251.4936 
L 319.68 251.4936 
z
" clip-path="url(#p72796cf619)" style="fill: #fff176; stroke: #f9a825; stroke-width: 0.5; stroke-linejoin: miter"/>
   </g>
   <g id="patch_97">
    <path d="M 348.696 270.3432 
L 377.712 270.3432 
L 377.712 251.4936 
L 348.696 251.4936 
z
" clip-path="url(#p72796cf619)" style="fill: #fff176; stroke: #f9a825; stroke-width: 0.5; stroke-linejoin: miter"/>
   </g>
   <g id="patch_98">
    <path d="M 377.712 270.3432 
L 406.728 270.3432 
L 406.728 251.4936 
L 377.712 251.4936 
z
" clip-path="url(#p72796cf619)" style="fill: #fff176; stroke: #f9a825; stroke-width: 0.5; stroke-linejoin: miter"/>
   </g>
   <g id="patch_99">
    <path d="M 174.6 289.1928 
L 203.616 289.1928 
L 203.616 270.3432 
L 174.6 270.3432 
z
" clip-path="url(#p72796cf619)" style="fill: #ffee58; stroke: #f9a825; stroke-width: 0.5; stroke-linejoin: miter"/>
   </g>
   <g id="patch_100">
    <path d="M 203.616 289.1928 
L 232.632 289.1928 
L 232.632 270.3432 
L 203.616 270.3432 
z
" clip-path="url(#p72796cf619)" style="fill: #ffee58; stroke: #f9a825; stroke-width: 0.5; stroke-linejoin: miter"/>
   </g>
   <g id="patch_101">
    <path d="M 232.632 289.1928 
L 261.648 289.1928 
L 261.648 270.3432 
L 232.632 270.3432 
z
" clip-path="url(#p72796cf619)" style="fill: #ffee58; stroke: #f9a825; stroke-width: 0.5; stroke-linejoin: miter"/>
   </g>
   <g id="patch_102">
    <path d="M 261.648 289.1928 
L 290.664 289.1928 
L 290.664 270.3432 
L 261.648 270.3432 
z
" clip-path="url(#p72796cf619)" style="fill: #ffee58; stroke: #f9a825; stroke-width: 0.5; stroke-linejoin: miter"/>
   </g>
   <g id="patch_103">
    <path d="M 290.664 289.1928 
L 319.68 289.1928 
L 319.68 270.3432 
L 290.664 270.3432 
z
" clip-path="url(#p72796cf619)" style="fill: #ffee58; stroke: #f9a825; stroke-width: 0.5; stroke-linejoin: miter"/>
   </g>
   <g id="patch_104">
    <path d="M 319.68 289.1928 
L 348.696 289.1928 
L 348.696 270.3432 
L 319.68 270.3432 
z
" clip-path="url(#p72796cf619)" style="fill: #ffee58; stroke: #f9a825; stroke-width: 0.5; stroke-linejoin: miter"/>
   </g>
   <g id="patch_105">
    <path d="M 348.696 289.1928 
L 377.712 289.1928 
L 377.712 270.3432 
L 348.696 270.3432 
z
" clip-path="url(#p72796cf619)" style="fill: #ffee58; stroke: #f9a825; stroke-width: 0.5; stroke-linejoin: miter"/>
   </g>
   <g id="patch_106">
    <path d="M 377.712 289.1928 
L 406.728 289.1928 
L 406.728 270.3432 
L 377.712 270.3432 
z
" clip-path="url(#p72796cf619)" style="fill: #ffee58; stroke: #f9a825; stroke-width: 0.5; stroke-linejoin: miter"/>
   </g>
   <g id="patch_107">
    <path d="M 174.6 308.0424 
L 203.616 308.0424 
L 203.616 289.1928 
L 174.6 289.1928 
z
" clip-path="url(#p72796cf619)" style="fill: #ffee58; stroke: #f9a825; stroke-width: 0.5; stroke-linejoin: miter"/>
   </g>
   <g id="patch_108">
    <path d="M 203.616 308.0424 
L 232.632 308.0424 
L 232.632 289.1928 
L 203.616 289.1928 
z
" clip-path="url(#p72796cf619)" style="fill: #ffee58; stroke: #f9a825; stroke-width: 0.5; stroke-linejoin: miter"/>
   </g>
   <g id="patch_109">
    <path d="M 232.632 308.0424 
L 261.648 308.0424 
L 261.648 289.1928 
L 232.632 289.1928 
z
" clip-path="url(#p72796cf619)" style="fill: #ffee58; stroke: #f9a825; stroke-width: 0.5; stroke-linejoin: miter"/>
   </g>
   <g id="patch_110">
    <path d="M 261.648 308.0424 
L 290.664 308.0424 
L 290.664 289.1928 
L 261.648 289.1928 
z
" clip-path="url(#p72796cf619)" style="fill: #ffee58; stroke: #f9a825; stroke-width: 0.5; stroke-linejoin: miter"/>
   </g>
   <g id="patch_111">
    <path d="M 290.664 308.0424 
L 319.68 308.0424 
L 319.68 289.1928 
L 290.664 289.1928 
z
" clip-path="url(#p72796cf619)" style="fill: #ffee58; stroke: #f9a825; stroke-width: 0.5; stroke-linejoin: miter"/>
   </g>
   <g id="patch_112">
    <path d="M 319.68 308.0424 
L 348.696 308.0424 
L 348.696 289.1928 
L 319.68 289.1928 
z
" clip-path="url(#p72796cf619)" style="fill: #ffee58; stroke: #f9a825; stroke-width: 0.5; stroke-linejoin: miter"/>
   </g>
   <g id="patch_113">
    <path d="M 348.696 308.0424 
L 377.712 308.0424 
L 377.712 289.1928 
L 348.696 289.1928 
z
" clip-path="url(#p72796cf619)" style="fill: #ffee58; stroke: #f9a825; stroke-width: 0.5; stroke-linejoin: miter"/>
   </g>
   <g id="patch_114">
    <path d="M 377.712 308.0424 
L 406.728 308.0424 
L 406.728 289.1928 
L 377.712 289.1928 
z
" clip-path="url(#p72796cf619)" style="fill: #ffee58; stroke: #f9a825; stroke-width: 0.5; stroke-linejoin: miter"/>
   </g>
   <g id="patch_115">
    <path d="M 174.6 326.892 
L 203.616 326.892 
L 203.616 308.0424 
L 174.6 308.0424 
z
" clip-path="url(#p72796cf619)" style="fill: #ffee58; stroke: #f9a825; stroke-width: 0.5; stroke-linejoin: miter"/>
   </g>
   <g id="patch_116">
    <path d="M 203.616 326.892 
L 232.632 326.892 
L 232.632 308.0424 
L 203.616 308.0424 
z
" clip-path="url(#p72796cf619)" style="fill: #ffee58; stroke: #f9a825; stroke-width: 0.5; stroke-linejoin: miter"/>
   </g>
   <g id="patch_117">
    <path d="M 232.632 326.892 
L 261.648 326.892 
L 261.648 308.0424 
L 232.632 308.0424 
z
" clip-path="url(#p72796cf619)" style="fill: #ffee58; stroke: #f9a825; stroke-width: 0.5; stroke-linejoin: miter"/>
   </g>
   <g id="patch_118">
    <path d="M 261.648 326.892 
L 290.664 326.892 
L 290.664 308.0424 
L 261.648 308.0424 
z
" clip-path="url(#p72796cf619)" style="fill: #ffee58; stroke: #f9a825; stroke-width: 0.5; stroke-linejoin: miter"/>
   </g>
   <g id="patch_119">
    <path d="M 290.664 326.892 
L 319.68 326.892 
L 319.68 308.0424 
L 290.664 308.0424 
z
" clip-path="url(#p72796cf619)" style="fill: #ffee58; stroke: #f9a825; stroke-width: 0.5; stroke-linejoin: miter"/>
   </g>
   <g id="patch_120">
    <path d="M 319.68 326.892 
L 348.696 326.892 
L 348.696 308.0424 
L 319.68 308.0424 
z
" clip-path="url(#p72796cf619)" style="fill: #ffee58; stroke: #f9a825; stroke-width: 0.5; stroke-linejoin: miter"/>
   </g>
   <g id="patch_121">
    <path d="M 348.696 326.892 
L 377.712 326.892 
L 377.712 308.0424 
L 348.696 308.0424 
z
" clip-path="url(#p72796cf619)" style="fill: #ffee58; stroke: #f9a825; stroke-width: 0.5; stroke-linejoin: miter"/>
   </g>
   <g id="patch_122">
    <path d="M 377.712 326.892 
L 406.728 326.892 
L 406.728 308.0424 
L 377.712 308.0424 
z
" clip-path="url(#p72796cf619)" style="fill: #ffee58; stroke: #f9a825; stroke-width: 0.5; stroke-linejoin: miter"/>
   </g>
   <g id="patch_123">
    <path d="M 174.6 345.7416 
L 203.616 345.7416 
L 203.616 326.892 
L 174.6 326.892 
z
" clip-path="url(#p72796cf619)" style="fill: #ffee58; stroke: #f9a825; stroke-width: 0.5; stroke-linejoin: miter"/>
   </g>
   <g id="patch_124">
    <path d="M 203.616 345.7416 
L 232.632 345.7416 
L 232.632 326.892 
L 203.616 326.892 
z
" clip-path="url(#p72796cf619)" style="fill: #ffee58; stroke: #f9a825; stroke-width: 0.5; stroke-linejoin: miter"/>
   </g>
   <g id="patch_125">
    <path d="M 232.632 345.7416 
L 261.648 345.7416 
L 261.648 326.892 
L 232.632 326.892 
z
" clip-path="url(#p72796cf619)" style="fill: #ffee58; stroke: #f9a825; stroke-width: 0.5; stroke-linejoin: miter"/>
   </g>
   <g id="patch_126">
    <path d="M 261.648 345.7416 
L 290.664 345.7416 
L 290.664 326.892 
L 261.648 326.892 
z
" clip-path="url(#p72796cf619)" style="fill: #ffee58; stroke: #f9a825; stroke-width: 0.5; stroke-linejoin: miter"/>
   </g>
   <g id="patch_127">
    <path d="M 290.664 345.7416 
L 319.68 345.7416 
L 319.68 326.892 
L 290.664 326.892 
z
" clip-path="url(#p72796cf619)" style="fill: #ffee58; stroke: #f9a825; stroke-width: 0.5; stroke-linejoin: miter"/>
   </g>
   <g id="patch_128">
    <path d="M 319.68 345.7416 
L 348.696 345.7416 
L 348.696 326.892 
L 319.68 326.892 
z
" clip-path="url(#p72796cf619)" style="fill: #ffee58; stroke: #f9a825; stroke-width: 0.5; stroke-linejoin: miter"/>
   </g>
   <g id="patch_129">
    <path d="M 348.696 345.7416 
L 377.712 345.7416 
L 377.712 326.892 
L 348.696 326.892 
z
" clip-path="url(#p72796cf619)" style="fill: #ffee58; stroke: #f9a825; stroke-width: 0.5; stroke-linejoin: miter"/>
   </g>
   <g id="patch_130">
    <path d="M 377.712 345.7416 
L 406.728 345.7416 
L 406.728 326.892 
L 377.712 326.892 
z
" clip-path="url(#p72796cf619)" style="fill: #ffee58; stroke: #f9a825; stroke-width: 0.5; stroke-linejoin: miter"/>
   </g>
   <g id="patch_131">
    <path d="M 177.948 346.8504 
L 403.38 346.8504 
Q 407.844 346.8504 407.844 342.4152 
L 407.844 47.4744 
Q 407.844 43.0392 403.38 43.0392 
L 177.948 43.0392 
Q 173.484 43.0392 173.484 47.4744 
L 173.484 342.4152 
Q 173.484 346.8504 177.948 346.8504 
L 177.948 346.8504 
z
" clip-path="url(#p72796cf619)" style="fill: none; stroke: #f9a825; stroke-width: 2; stroke-linejoin: miter"/>
   </g>
   <g id="patch_132">
    <path d="M 451.368 99.588 
L 468.108 99.588 
Q 474.804 99.588 474.804 92.9352 
L 474.804 70.7592 
Q 474.804 64.1064 468.108 64.1064 
L 451.368 64.1064 
Q 444.672 64.1064 444.672 70.7592 
L 444.672 92.9352 
Q 444.672 99.588 451.368 99.588 
z
" clip-path="url(#p72796cf619)" style="fill: #fff9c4; stroke: #f9a825; stroke-width: 2; stroke-linejoin: miter"/>
   </g>
   <g id="line2d_1">
    <path d="M 406.728 81.8472 
L 445.788 81.8472 
" clip-path="url(#p72796cf619)" style="fill: none; stroke: #f9a825; stroke-opacity: 0.6; stroke-width: 0.8; stroke-linecap: square"/>
   </g>
   <g id="patch_133">
    <path d="M 451.368 174.9864 
L 468.108 174.9864 
Q 474.804 174.9864 474.804 168.3336 
L 474.804 146.1576 
Q 474.804 139.5048 468.108 139.5048 
L 451.368 139.5048 
Q 444.672 139.5048 444.672 146.1576 
L 444.672 168.3336 
Q 444.672 174.9864 451.368 174.9864 
z
" clip-path="url(#p72796cf619)" style="fill: #fff59d; stroke: #f9a825; stroke-width: 2; stroke-linejoin: miter"/>
   </g>
   <g id="line2d_2">
    <path d="M 406.728 157.2456 
L 445.788 157.2456 
" clip-path="url(#p72796cf619)" style="fill: none; stroke: #f9a825; stroke-opacity: 0.6; stroke-width: 0.8; stroke-linecap: square"/>
   </g>
   <g id="patch_134">
    <path d="M 451.368 250.3848 
L 468.108 250.3848 
Q 474.804 250.3848 474.804 243.732 
L 474.804 221.556 
Q 474.804 214.9032 468.108 214.9032 
L 451.368 214.9032 
Q 444.672 214.9032 444.672 221.556 
L 444.672 243.732 
Q 444.672 250.3848 451.368 250.3848 
z
" clip-path="url(#p72796cf619)" style="fill: #fff176; stroke: #f9a825; stroke-width: 2; stroke-linejoin: miter"/>
   </g>
   <g id="line2d_3">
    <path d="M 406.728 232.644 
L 445.788 232.644 
" clip-path="url(#p72796cf619)" style="fill: none; stroke: #f9a825; stroke-opacity: 0.6; stroke-width: 0.8; stroke-linecap: square"/>
   </g>
   <g id="patch_135">
    <path d="M 451.368 325.7832 
L 468.108 325.7832 
Q 474.804 325.7832 474.804 319.1304 
L 474.804 296.9544 
Q 474.804 290.3016 468.108 290.3016 
L 451.368 290.3016 
Q 444.672 290.3016 444.672 296.9544 
L 444.672 319.1304 
Q 444.672 325.7832 451.368 325.7832 
z
" clip-path="url(#p72796cf619)" style="fill: #ffee58; stroke: #f9a825; stroke-width: 2; stroke-linejoin: miter"/>
   </g>
   <g id="line2d_4">
    <path d="M 406.728 308.0424 
L 445.788 308.0424 
" clip-path="url(#p72796cf619)" style="fill: none; stroke: #f9a825; stroke-opacity: 0.6; stroke-width: 0.8; stroke-linecap: square"/>
   </g>
   <g id="patch_136">
    <path d="M 29.52 232.0896 
L 141.12 232.0896 
Q 147.816 232.0896 147.816 225.4368 
L 147.816 164.4528 
Q 147.816 157.8 141.12 157.8 
L 29.52 157.8 
Q 22.824 157.8 22.824 164.4528 
L 22.824 225.4368 
Q 22.824 232.0896 29.52 232.0896 
z
" clip-path="url(#p72796cf619)" style="fill: #e3f2fd; stroke: #1565c0; stroke-width: 2; stroke-linejoin: miter"/>
   </g>
   <g id="patch_137">
    <path d="M 652.248 232.0896 
L 775.008 232.0896 
Q 781.704 232.0896 781.704 225.4368 
L 781.704 164.4528 
Q 781.704 157.8 775.008 157.8 
L 652.248 157.8 
Q 645.552 157.8 645.552 164.4528 
L 645.552 225.4368 
Q 645.552 232.0896 652.248 232.0896 
z
" clip-path="url(#p72796cf619)" style="fill: #e8f5e9; stroke: #2e7d32; stroke-width: 2; stroke-linejoin: miter"/>
   </g>
   <g id="text_1">
    <text style="font-weight: 700; font-size: 12px; font-family: 'Heiti SC', 'Arial Unicode MS', 'DejaVu Sans', 'Bitstream Vera Sans', 'Computer Modern Sans Serif', 'Lucida Grande', 'Verdana', 'Geneva', 'Lucid', 'Arial', 'Helvetica', 'Avant Garde', sans-serif; text-anchor: middle; fill: #424242" x="290.664" y="17.52" transform="rotate(-0 290.664 17.52)">embedding_weight: [vocab_size, hidden_size]</text>
   </g>
   <g id="text_2">
    <text style="font-size: 10px; font-family: 'Heiti SC', 'Arial Unicode MS', 'DejaVu Sans', 'Bitstream Vera Sans', 'Computer Modern Sans Serif', 'Lucida Grande', 'Verdana', 'Geneva', 'Lucid', 'Arial', 'Helvetica', 'Avant Garde', sans-serif; fill: #424242" transform="translate(139.355156 214.9448) rotate(-90)">词表维度</text>
    <text style="font-size: 10px; font-family: 'Heiti SC', 'Arial Unicode MS', 'DejaVu Sans', 'Bitstream Vera Sans', 'Computer Modern Sans Serif', 'Lucida Grande', 'Verdana', 'Geneva', 'Lucid', 'Arial', 'Helvetica', 'Avant Garde', sans-serif; fill: #424242" transform="translate(150.084844 218.635425) rotate(-90)">(按行切分)</text>
   </g>
   <g id="text_3">
    <text style="font-size: 10px; font-family: 'Heiti SC', 'Arial Unicode MS', 'DejaVu Sans', 'Bitstream Vera Sans', 'Computer Modern Sans Serif', 'Lucida Grande', 'Verdana', 'Geneva', 'Lucid', 'Arial', 'Helvetica', 'Avant Garde', sans-serif; text-anchor: middle; fill: #424242" x="290.664" y="384.8336" transform="rotate(-0 290.664 384.8336)">hidden_size</text>
   </g>
   <g id="text_4">
    <text style="font-weight: 700; font-size: 9px; font-family: 'Heiti SC', 'Arial Unicode MS', 'DejaVu Sans', 'Bitstream Vera Sans', 'Computer Modern Sans Serif', 'Lucida Grande', 'Verdana', 'Geneva', 'Lucid', 'Arial', 'Helvetica', 'Avant Garde', sans-serif; text-anchor: middle; fill: #212121" x="459.738" y="85.0872" transform="rotate(-0 459.738 85.0872)">0</text>
   </g>
   <g id="text_5">
    <text style="font-weight: 700; font-size: 10px; font-family: 'Heiti SC', 'Arial Unicode MS', 'DejaVu Sans', 'Bitstream Vera Sans', 'Computer Modern Sans Serif', 'Lucida Grande', 'Verdana', 'Geneva', 'Lucid', 'Arial', 'Helvetica', 'Avant Garde', sans-serif; text-anchor: start; fill: #424242" x="490.428" y="85.662044" transform="rotate(-0 490.428 85.662044)">GPU 0    词表行 [0:4)</text>
   </g>
   <g id="text_6">
    <text style="font-weight: 700; font-size: 9px; font-family: 'Heiti SC', 'Arial Unicode MS', 'DejaVu Sans', 'Bitstream Vera Sans', 'Computer Modern Sans Serif', 'Lucida Grande', 'Verdana', 'Geneva', 'Lucid', 'Arial', 'Helvetica', 'Avant Garde', sans-serif; text-anchor: middle; fill: #212121" x="459.738" y="160.4856" transform="rotate(-0 459.738 160.4856)">1</text>
   </g>
   <g id="text_7">
    <text style="font-weight: 700; font-size: 10px; font-family: 'Heiti SC', 'Arial Unicode MS', 'DejaVu Sans', 'Bitstream Vera Sans', 'Computer Modern Sans Serif', 'Lucida Grande', 'Verdana', 'Geneva', 'Lucid', 'Arial', 'Helvetica', 'Avant Garde', sans-serif; text-anchor: start; fill: #424242" x="490.428" y="161.060444" transform="rotate(-0 490.428 161.060444)">GPU 1    词表行 [4:8)</text>
   </g>
   <g id="text_8">
    <text style="font-weight: 700; font-size: 9px; font-family: 'Heiti SC', 'Arial Unicode MS', 'DejaVu Sans', 'Bitstream Vera Sans', 'Computer Modern Sans Serif', 'Lucida Grande', 'Verdana', 'Geneva', 'Lucid', 'Arial', 'Helvetica', 'Avant Garde', sans-serif; text-anchor: middle; fill: #212121" x="459.738" y="235.884" transform="rotate(-0 459.738 235.884)">2</text>
   </g>
   <g id="text_9">
    <text style="font-weight: 700; font-size: 10px; font-family: 'Heiti SC', 'Arial Unicode MS', 'DejaVu Sans', 'Bitstream Vera Sans', 'Computer Modern Sans Serif', 'Lucida Grande', 'Verdana', 'Geneva', 'Lucid', 'Arial', 'Helvetica', 'Avant Garde', sans-serif; text-anchor: start; fill: #424242" x="490.428" y="236.458844" transform="rotate(-0 490.428 236.458844)">GPU 2    词表行 [8:12)</text>
   </g>
   <g id="text_10">
    <text style="font-weight: 700; font-size: 9px; font-family: 'Heiti SC', 'Arial Unicode MS', 'DejaVu Sans', 'Bitstream Vera Sans', 'Computer Modern Sans Serif', 'Lucida Grande', 'Verdana', 'Geneva', 'Lucid', 'Arial', 'Helvetica', 'Avant Garde', sans-serif; text-anchor: middle; fill: #212121" x="459.738" y="311.2824" transform="rotate(-0 459.738 311.2824)">3</text>
   </g>
   <g id="text_11">
    <text style="font-weight: 700; font-size: 10px; font-family: 'Heiti SC', 'Arial Unicode MS', 'DejaVu Sans', 'Bitstream Vera Sans', 'Computer Modern Sans Serif', 'Lucida Grande', 'Verdana', 'Geneva', 'Lucid', 'Arial', 'Helvetica', 'Avant Garde', sans-serif; text-anchor: start; fill: #424242" x="490.428" y="311.857244" transform="rotate(-0 490.428 311.857244)">GPU 3    词表行 [12:16)</text>
   </g>
   <g id="text_12">
    <text style="font-weight: 700; font-size: 10px; font-family: 'Heiti SC', 'Arial Unicode MS', 'DejaVu Sans', 'Bitstream Vera Sans', 'Computer Modern Sans Serif', 'Lucida Grande', 'Verdana', 'Geneva', 'Lucid', 'Arial', 'Helvetica', 'Avant Garde', sans-serif; fill: #212121" transform="translate(64.259844 188.2448)">input_ids</text>
    <text style="font-weight: 700; font-size: 10px; font-family: 'Heiti SC', 'Arial Unicode MS', 'DejaVu Sans', 'Bitstream Vera Sans', 'Computer Modern Sans Serif', 'Lucida Grande', 'Verdana', 'Geneva', 'Lucid', 'Arial', 'Helvetica', 'Avant Garde', sans-serif; fill: #212121" transform="translate(55.77 198.5448)">[batch, seq]</text>
    <text style="font-weight: 700; font-size: 10px; font-family: 'Heiti SC', 'Arial Unicode MS', 'DejaVu Sans', 'Bitstream Vera Sans', 'Computer Modern Sans Serif', 'Lucida Grande', 'Verdana', 'Geneva', 'Lucid', 'Arial', 'Helvetica', 'Avant Garde', sans-serif; fill: #212121" transform="translate(62.029375 208.8448)">Replicate</text>
   </g>
   <g id="text_13">
    <text style="font-weight: 700; font-size: 10px; font-family: 'Heiti SC', 'Arial Unicode MS', 'DejaVu Sans', 'Bitstream Vera Sans', 'Computer Modern Sans Serif', 'Lucida Grande', 'Verdana', 'Geneva', 'Lucid', 'Arial', 'Helvetica', 'Avant Garde', sans-serif; fill: #212121" transform="translate(697.472531 188.2448)">output</text>
    <text style="font-weight: 700; font-size: 10px; font-family: 'Heiti SC', 'Arial Unicode MS', 'DejaVu Sans', 'Bitstream Vera Sans', 'Computer Modern Sans Serif', 'Lucida Grande', 'Verdana', 'Geneva', 'Lucid', 'Arial', 'Helvetica', 'Avant Garde', sans-serif; fill: #212121" transform="translate(664.242844 198.5448)">[batch, seq, hidden]</text>
    <text style="font-weight: 700; font-size: 10px; font-family: 'Heiti SC', 'Arial Unicode MS', 'DejaVu Sans', 'Bitstream Vera Sans', 'Computer Modern Sans Serif', 'Lucida Grande', 'Verdana', 'Geneva', 'Lucid', 'Arial', 'Helvetica', 'Avant Garde', sans-serif; fill: #212121" transform="translate(690.337375 208.8448)">Replicate</text>
   </g>
   <g id="patch_138">
    <path d="M 151.492588 194.9448 
Q 160.651792 194.9448 167.574929 194.9448 
" style="fill: none; stroke: #1565c0; stroke-width: 2; stroke-linecap: round"/>
    <path d="M 163.574929 192.9448 
L 167.574929 194.9448 
L 163.574929 196.9448 
" style="fill: none; stroke: #1565c0; stroke-width: 2; stroke-linecap: round"/>
   </g>
   <g id="patch_139">
    <path d="M 411.517012 194.9448 
Q 526.695889 194.9448 639.638698 194.9448 
" style="fill: none; stroke: #2e7d32; stroke-width: 2; stroke-linecap: round"/>
    <path d="M 635.638698 192.9448 
L 639.638698 194.9448 
L 635.638698 196.9448 
" style="fill: none; stroke: #2e7d32; stroke-width: 2; stroke-linecap: round"/>
   </g>
   <g id="text_14">
    <text style="font-weight: 700; font-size: 10px; font-family: 'Heiti SC', 'Arial Unicode MS', 'DejaVu Sans', 'Bitstream Vera Sans', 'Computer Modern Sans Serif', 'Lucida Grande', 'Verdana', 'Geneva', 'Lucid', 'Arial', 'Helvetica', 'Avant Garde', sans-serif; text-anchor: middle; fill: #2e7d32" x="529.488" y="164.4528" transform="rotate(-0 529.488 164.4528)">all_gather</text>
   </g>
   <g id="text_15">
    <text style="font-weight: 700; font-size: 15px; font-family: 'Heiti SC', 'Arial Unicode MS', 'DejaVu Sans', 'Bitstream Vera Sans', 'Computer Modern Sans Serif', 'Lucida Grande', 'Verdana', 'Geneva', 'Lucid', 'Arial', 'Helvetica', 'Avant Garde', sans-serif; text-anchor: middle" x="397.8" y="37.4536" transform="rotate(-0 397.8 37.4536)">RowwiseParallel 词嵌入层</text>
   </g>
  </g>
 </g>
 <defs>
  <clipPath id="p72796cf619">
   <rect x="7.2" y="57.4536" width="781.2" height="360.36"/>
  </clipPath>
 </defs>
</svg>
