<?xml version="1.0" encoding="utf-8" standalone="no"?>
<!DOCTYPE svg PUBLIC "-//W3C//DTD SVG 1.1//EN"
  "http://www.w3.org/Graphics/SVG/1.1/DTD/svg11.dtd">
<svg xmlns:xlink="http://www.w3.org/1999/xlink" width="739.8pt" height="407.66pt" viewBox="0 0 739.8 407.66" xmlns="http://www.w3.org/2000/svg" version="1.1">
 <metadata>
  <rdf:RDF xmlns:dc="http://purl.org/dc/elements/1.1/" xmlns:cc="http://creativecommons.org/ns#" xmlns:rdf="http://www.w3.org/1999/02/22-rdf-syntax-ns#">
   <cc:Work>
    <dc:type rdf:resource="http://purl.org/dc/dcmitype/StillImage"/>
    <dc:date>2026-07-14T10:42:14.400723</dc:date>
    <dc:format>image/svg+xml</dc:format>
    <dc:creator>
     <cc:Agent>
      <dc:title>Matplotlib v3.11.0, https://matplotlib.org/</dc:title>
     </cc:Agent>
    </dc:creator>
   </cc:Work>
  </rdf:RDF>
 </metadata>
 <defs>
  <style type="text/css">*{stroke-linejoin: round; stroke-linecap: butt}</style>
 </defs>
 <g id="figure_1">
  <g id="patch_1">
   <path d="M 0 407.66 
L 739.8 407.66 
L 739.8 0 
L 0 0 
z
" style="fill: #ffffff"/>
  </g>
  <g id="axes_1">
   <g id="patch_2">
    <path d="M 35.1 152.0888 
L 135.54 152.0888 
Q 142.236 152.0888 142.236 145.436 
L 142.236 101.084 
Q 142.236 94.4312 135.54 94.4312 
L 35.1 94.4312 
Q 28.404 94.4312 28.404 101.084 
L 28.404 145.436 
Q 28.404 152.0888 35.1 152.0888 
z
" clip-path="url(#p27d31911be)" style="fill: #e3f2fd; stroke: #1565c0; stroke-width: 2; stroke-linejoin: miter"/>
   </g>
   <g id="patch_3">
    <path d="M 180.18 96.6488 
L 269.46 96.6488 
Q 276.156 96.6488 276.156 89.996 
L 276.156 51.188 
Q 276.156 44.5352 269.46 44.5352 
L 180.18 44.5352 
Q 173.484 44.5352 173.484 51.188 
L 173.484 89.996 
Q 173.484 96.6488 180.18 96.6488 
z
" clip-path="url(#p27d31911be)" style="fill: #ffccbc; stroke: #d84315; stroke-width: 2; stroke-linejoin: miter"/>
   </g>
   <g id="patch_4">
    <path d="M 180.18 201.9848 
L 269.46 201.9848 
Q 276.156 201.9848 276.156 195.332 
L 276.156 156.524 
Q 276.156 149.8712 269.46 149.8712 
L 180.18 149.8712 
Q 173.484 149.8712 173.484 156.524 
L 173.484 195.332 
Q 173.484 201.9848 180.18 201.9848 
z
" clip-path="url(#p27d31911be)" style="fill: #ffab91; stroke: #d84315; stroke-width: 2; stroke-linejoin: miter"/>
   </g>
   <g id="patch_5">
    <path d="M 180.18 346.1288 
L 269.46 346.1288 
Q 276.156 346.1288 276.156 339.476 
L 276.156 250.772 
Q 276.156 244.1192 269.46 244.1192 
L 180.18 244.1192 
Q 173.484 244.1192 173.484 250.772 
L 173.484 339.476 
Q 173.484 346.1288 180.18 346.1288 
z
" clip-path="url(#p27d31911be)" style="fill: #fff3e0; stroke: #ef6c00; stroke-width: 2; stroke-linejoin: miter"/>
   </g>
   <g id="patch_6">
    <path d="M 308.52 96.6488 
L 397.8 96.6488 
Q 404.496 96.6488 404.496 89.996 
L 404.496 51.188 
Q 404.496 44.5352 397.8 44.5352 
L 308.52 44.5352 
Q 301.824 44.5352 301.824 51.188 
L 301.824 89.996 
Q 301.824 96.6488 308.52 96.6488 
z
" clip-path="url(#p27d31911be)" style="fill: #ffccbc; stroke: #d84315; stroke-width: 2; stroke-linejoin: miter"/>
   </g>
   <g id="patch_7">
    <path d="M 308.52 201.9848 
L 397.8 201.9848 
Q 404.496 201.9848 404.496 195.332 
L 404.496 156.524 
Q 404.496 149.8712 397.8 149.8712 
L 308.52 149.8712 
Q 301.824 149.8712 301.824 156.524 
L 301.824 195.332 
Q 301.824 201.9848 308.52 201.9848 
z
" clip-path="url(#p27d31911be)" style="fill: #ffab91; stroke: #d84315; stroke-width: 2; stroke-linejoin: miter"/>
   </g>
   <g id="patch_8">
    <path d="M 308.52 346.1288 
L 397.8 346.1288 
Q 404.496 346.1288 404.496 339.476 
L 404.496 250.772 
Q 404.496 244.1192 397.8 244.1192 
L 308.52 244.1192 
Q 301.824 244.1192 301.824 250.772 
L 301.824 339.476 
Q 301.824 346.1288 308.52 346.1288 
z
" clip-path="url(#p27d31911be)" style="fill: #fff3e0; stroke: #ef6c00; stroke-width: 2; stroke-linejoin: miter"/>
   </g>
   <g id="patch_9">
    <path d="M 436.86 96.6488 
L 526.14 96.6488 
Q 532.836 96.6488 532.836 89.996 
L 532.836 51.188 
Q 532.836 44.5352 526.14 44.5352 
L 436.86 44.5352 
Q 430.164 44.5352 430.164 51.188 
L 430.164 89.996 
Q 430.164 96.6488 436.86 96.6488 
z
" clip-path="url(#p27d31911be)" style="fill: #ffccbc; stroke: #d84315; stroke-width: 2; stroke-linejoin: miter"/>
   </g>
   <g id="patch_10">
    <path d="M 436.86 201.9848 
L 526.14 201.9848 
Q 532.836 201.9848 532.836 195.332 
L 532.836 156.524 
Q 532.836 149.8712 526.14 149.8712 
L 436.86 149.8712 
Q 430.164 149.8712 430.164 156.524 
L 430.164 195.332 
Q 430.164 201.9848 436.86 201.9848 
z
" clip-path="url(#p27d31911be)" style="fill: #ffab91; stroke: #d84315; stroke-width: 2; stroke-linejoin: miter"/>
   </g>
   <g id="patch_11">
    <path d="M 436.86 346.1288 
L 526.14 346.1288 
Q 532.836 346.1288 532.836 339.476 
L 532.836 250.772 
Q 532.836 244.1192 526.14 244.1192 
L 436.86 244.1192 
Q 430.164 244.1192 430.164 250.772 
L 430.164 339.476 
Q 430.164 346.1288 436.86 346.1288 
z
" clip-path="url(#p27d31911be)" style="fill: #fff3e0; stroke: #ef6c00; stroke-width: 2; stroke-linejoin: miter"/>
   </g>
   <g id="patch_12">
    <path d="M 565.2 96.6488 
L 654.48 96.6488 
Q 661.176 96.6488 661.176 89.996 
L 661.176 51.188 
Q 661.176 44.5352 654.48 44.5352 
L 565.2 44.5352 
Q 558.504 44.5352 558.504 51.188 
L 558.504 89.996 
Q 558.504 96.6488 565.2 96.6488 
z
" clip-path="url(#p27d31911be)" style="fill: #ffccbc; stroke: #d84315; stroke-width: 2; stroke-linejoin: miter"/>
   </g>
   <g id="patch_13">
    <path d="M 565.2 201.9848 
L 654.48 201.9848 
Q 661.176 201.9848 661.176 195.332 
L 661.176 156.524 
Q 661.176 149.8712 654.48 149.8712 
L 565.2 149.8712 
Q 558.504 149.8712 558.504 156.524 
L 558.504 195.332 
Q 558.504 201.9848 565.2 201.9848 
z
" clip-path="url(#p27d31911be)" style="fill: #ffab91; stroke: #d84315; stroke-width: 2; stroke-linejoin: miter"/>
   </g>
   <g id="patch_14">
    <path d="M 565.2 346.1288 
L 654.48 346.1288 
Q 661.176 346.1288 661.176 339.476 
L 661.176 250.772 
Q 661.176 244.1192 654.48 244.1192 
L 565.2 244.1192 
Q 558.504 244.1192 558.504 250.772 
L 558.504 339.476 
Q 558.504 346.1288 565.2 346.1288 
z
" clip-path="url(#p27d31911be)" style="fill: #fff3e0; stroke: #ef6c00; stroke-width: 2; stroke-linejoin: miter"/>
   </g>
   <g id="text_1">
    <text style="font-weight: 700; font-size: 10px; font-family: 'Heiti SC', 'Arial Unicode MS', 'DejaVu Sans', 'Bitstream Vera Sans', 'Computer Modern Sans Serif', 'Lucida Grande', 'Verdana', 'Geneva', 'Lucid', 'Arial', 'Helvetica', 'Avant Garde', sans-serif; fill: #212121" transform="translate(71.67 116.56)">输入 x</text>
    <text style="font-weight: 700; font-size: 10px; font-family: 'Heiti SC', 'Arial Unicode MS', 'DejaVu Sans', 'Bitstream Vera Sans', 'Computer Modern Sans Serif', 'Lucida Grande', 'Verdana', 'Geneva', 'Lucid', 'Arial', 'Helvetica', 'Avant Garde', sans-serif; fill: #212121" transform="translate(35.934844 126.86)">[batch, seq, hidden]</text>
    <text style="font-weight: 700; font-size: 10px; font-family: 'Heiti SC', 'Arial Unicode MS', 'DejaVu Sans', 'Bitstream Vera Sans', 'Computer Modern Sans Serif', 'Lucida Grande', 'Verdana', 'Geneva', 'Lucid', 'Arial', 'Helvetica', 'Avant Garde', sans-serif; fill: #212121" transform="translate(62.029375 137.16)">Replicate</text>
   </g>
   <g id="text_2">
    <text style="font-weight: 700; font-size: 8px; font-family: 'Heiti SC', 'Arial Unicode MS', 'DejaVu Sans', 'Bitstream Vera Sans', 'Computer Modern Sans Serif', 'Lucida Grande', 'Verdana', 'Geneva', 'Lucid', 'Arial', 'Helvetica', 'Avant Garde', sans-serif; fill: #212121" transform="translate(219.28 69.180125)">w1</text>
    <text style="font-weight: 700; font-size: 8px; font-family: 'Heiti SC', 'Arial Unicode MS', 'DejaVu Sans', 'Bitstream Vera Sans', 'Computer Modern Sans Serif', 'Lucida Grande', 'Verdana', 'Geneva', 'Lucid', 'Arial', 'Helvetica', 'Avant Garde', sans-serif; fill: #212121" transform="translate(208.7475 77.763875)">列 [0:I/4)</text>
   </g>
   <g id="text_3">
    <text style="font-weight: 700; font-size: 8px; font-family: 'Heiti SC', 'Arial Unicode MS', 'DejaVu Sans', 'Bitstream Vera Sans', 'Computer Modern Sans Serif', 'Lucida Grande', 'Verdana', 'Geneva', 'Lucid', 'Arial', 'Helvetica', 'Avant Garde', sans-serif; fill: #212121" transform="translate(219.28 174.516125)">w3</text>
    <text style="font-weight: 700; font-size: 8px; font-family: 'Heiti SC', 'Arial Unicode MS', 'DejaVu Sans', 'Bitstream Vera Sans', 'Computer Modern Sans Serif', 'Lucida Grande', 'Verdana', 'Geneva', 'Lucid', 'Arial', 'Helvetica', 'Avant Garde', sans-serif; fill: #212121" transform="translate(208.7475 183.099875)">列 [0:I/4)</text>
   </g>
   <g id="text_4">
    <text style="font-weight: 700; font-size: 9px; font-family: 'Heiti SC', 'Arial Unicode MS', 'DejaVu Sans', 'Bitstream Vera Sans', 'Computer Modern Sans Serif', 'Lucida Grande', 'Verdana', 'Geneva', 'Lucid', 'Arial', 'Helvetica', 'Avant Garde', sans-serif; fill: #212121" transform="translate(211.665937 293.535641)">GPU 0</text>
    <text style="font-weight: 700; font-size: 9px; font-family: 'Heiti SC', 'Arial Unicode MS', 'DejaVu Sans', 'Bitstream Vera Sans', 'Computer Modern Sans Serif', 'Lucida Grande', 'Verdana', 'Geneva', 'Lucid', 'Arial', 'Helvetica', 'Avant Garde', sans-serif; fill: #212121" transform="translate(202.60125 303.192359)">silu(aᵢ)·bᵢ</text>
   </g>
   <g id="patch_15">
    <path d="M 145.803859 122.611158 
Q 184.365462 109.399842 221.657847 96.623363 
" style="fill: none; stroke: #1565c0; stroke-width: 1.2; stroke-linecap: round"/>
    <path d="M 217.22555 96.02776 
L 221.657847 96.623363 
L 218.521986 99.811839 
" style="fill: none; stroke: #1565c0; stroke-width: 1.2; stroke-linecap: round"/>
   </g>
   <g id="patch_16">
    <path d="M 145.756417 124.032897 
Q 183.175595 139.593887 221.546582 147.53528 
" style="fill: none; stroke: #1565c0; stroke-width: 1.2; stroke-linecap: round"/>
    <path d="M 218.034929 144.766111 
L 221.546582 147.53528 
L 217.224255 148.683101 
" style="fill: none; stroke: #1565c0; stroke-width: 1.2; stroke-linecap: round"/>
   </g>
   <g id="patch_17">
    <path d="M 224.82 125.257028 
Q 224.82 182.856846 224.82 239.115024 
" style="fill: none; stroke: #ef6c00; stroke-width: 1.2; stroke-linecap: round"/>
    <path d="M 226.82 235.115024 
L 224.82 239.115024 
L 222.82 235.115024 
" style="fill: none; stroke: #ef6c00; stroke-width: 1.2; stroke-linecap: round"/>
   </g>
   <g id="patch_18">
    <path d="M 224.82 205.65188 
Q 224.82 223.054316 224.82 239.115112 
" style="fill: none; stroke: #ef6c00; stroke-width: 1.2; stroke-linecap: round"/>
    <path d="M 226.82 235.115112 
L 224.82 239.115112 
L 222.82 235.115112 
" style="fill: none; stroke: #ef6c00; stroke-width: 1.2; stroke-linecap: round"/>
   </g>
   <g id="text_5">
    <text style="font-weight: 700; font-size: 8px; font-family: 'Heiti SC', 'Arial Unicode MS', 'DejaVu Sans', 'Bitstream Vera Sans', 'Computer Modern Sans Serif', 'Lucida Grande', 'Verdana', 'Geneva', 'Lucid', 'Arial', 'Helvetica', 'Avant Garde', sans-serif; fill: #212121" transform="translate(347.62 69.180125)">w1</text>
    <text style="font-weight: 700; font-size: 8px; font-family: 'Heiti SC', 'Arial Unicode MS', 'DejaVu Sans', 'Bitstream Vera Sans', 'Computer Modern Sans Serif', 'Lucida Grande', 'Verdana', 'Geneva', 'Lucid', 'Arial', 'Helvetica', 'Avant Garde', sans-serif; fill: #212121" transform="translate(334.435625 77.763875)">列 [I/4:I/2)</text>
   </g>
   <g id="text_6">
    <text style="font-weight: 700; font-size: 8px; font-family: 'Heiti SC', 'Arial Unicode MS', 'DejaVu Sans', 'Bitstream Vera Sans', 'Computer Modern Sans Serif', 'Lucida Grande', 'Verdana', 'Geneva', 'Lucid', 'Arial', 'Helvetica', 'Avant Garde', sans-serif; fill: #212121" transform="translate(347.62 174.516125)">w3</text>
    <text style="font-weight: 700; font-size: 8px; font-family: 'Heiti SC', 'Arial Unicode MS', 'DejaVu Sans', 'Bitstream Vera Sans', 'Computer Modern Sans Serif', 'Lucida Grande', 'Verdana', 'Geneva', 'Lucid', 'Arial', 'Helvetica', 'Avant Garde', sans-serif; fill: #212121" transform="translate(334.435625 183.099875)">列 [I/4:I/2)</text>
   </g>
   <g id="text_7">
    <text style="font-weight: 700; font-size: 9px; font-family: 'Heiti SC', 'Arial Unicode MS', 'DejaVu Sans', 'Bitstream Vera Sans', 'Computer Modern Sans Serif', 'Lucida Grande', 'Verdana', 'Geneva', 'Lucid', 'Arial', 'Helvetica', 'Avant Garde', sans-serif; fill: #212121" transform="translate(340.005938 293.535641)">GPU 1</text>
    <text style="font-weight: 700; font-size: 9px; font-family: 'Heiti SC', 'Arial Unicode MS', 'DejaVu Sans', 'Bitstream Vera Sans', 'Computer Modern Sans Serif', 'Lucida Grande', 'Verdana', 'Geneva', 'Lucid', 'Arial', 'Helvetica', 'Avant Garde', sans-serif; fill: #212121" transform="translate(330.94125 303.192359)">silu(aᵢ)·bᵢ</text>
   </g>
   <g id="patch_19">
    <path d="M 145.892792 122.997333 
Q 248.534906 109.400012 349.846999 95.978884 
" style="fill: none; stroke: #1565c0; stroke-width: 1.2; stroke-linecap: round"/>
    <path d="M 345.618991 94.521508 
L 349.846999 95.978884 
L 346.144294 98.486865 
" style="fill: none; stroke: #1565c0; stroke-width: 1.2; stroke-linecap: round"/>
   </g>
   <g id="patch_20">
    <path d="M 145.863065 123.691412 
Q 247.310789 146.000693 349.818591 148.140133 
" style="fill: none; stroke: #1565c0; stroke-width: 1.2; stroke-linecap: round"/>
    <path d="M 345.861195 146.057103 
L 349.818591 148.140133 
L 345.777729 150.056232 
" style="fill: none; stroke: #1565c0; stroke-width: 1.2; stroke-linecap: round"/>
   </g>
   <g id="patch_21">
    <path d="M 353.16 125.257028 
Q 353.16 182.856846 353.16 239.115024 
" style="fill: none; stroke: #ef6c00; stroke-width: 1.2; stroke-linecap: round"/>
    <path d="M 355.16 235.115024 
L 353.16 239.115024 
L 351.16 235.115024 
" style="fill: none; stroke: #ef6c00; stroke-width: 1.2; stroke-linecap: round"/>
   </g>
   <g id="patch_22">
    <path d="M 353.16 205.65188 
Q 353.16 223.054316 353.16 239.115112 
" style="fill: none; stroke: #ef6c00; stroke-width: 1.2; stroke-linecap: round"/>
    <path d="M 355.16 235.115112 
L 353.16 239.115112 
L 351.16 235.115112 
" style="fill: none; stroke: #ef6c00; stroke-width: 1.2; stroke-linecap: round"/>
   </g>
   <g id="text_8">
    <text style="font-weight: 700; font-size: 8px; font-family: 'Heiti SC', 'Arial Unicode MS', 'DejaVu Sans', 'Bitstream Vera Sans', 'Computer Modern Sans Serif', 'Lucida Grande', 'Verdana', 'Geneva', 'Lucid', 'Arial', 'Helvetica', 'Avant Garde', sans-serif; fill: #212121" transform="translate(475.96 69.180125)">w1</text>
    <text style="font-weight: 700; font-size: 8px; font-family: 'Heiti SC', 'Arial Unicode MS', 'DejaVu Sans', 'Bitstream Vera Sans', 'Computer Modern Sans Serif', 'Lucida Grande', 'Verdana', 'Geneva', 'Lucid', 'Arial', 'Helvetica', 'Avant Garde', sans-serif; fill: #212121" transform="translate(460.559375 77.763875)">列 [I/2:3I/4)</text>
   </g>
   <g id="text_9">
    <text style="font-weight: 700; font-size: 8px; font-family: 'Heiti SC', 'Arial Unicode MS', 'DejaVu Sans', 'Bitstream Vera Sans', 'Computer Modern Sans Serif', 'Lucida Grande', 'Verdana', 'Geneva', 'Lucid', 'Arial', 'Helvetica', 'Avant Garde', sans-serif; fill: #212121" transform="translate(475.96 174.516125)">w3</text>
    <text style="font-weight: 700; font-size: 8px; font-family: 'Heiti SC', 'Arial Unicode MS', 'DejaVu Sans', 'Bitstream Vera Sans', 'Computer Modern Sans Serif', 'Lucida Grande', 'Verdana', 'Geneva', 'Lucid', 'Arial', 'Helvetica', 'Avant Garde', sans-serif; fill: #212121" transform="translate(460.559375 183.099875)">列 [I/2:3I/4)</text>
   </g>
   <g id="text_10">
    <text style="font-weight: 700; font-size: 9px; font-family: 'Heiti SC', 'Arial Unicode MS', 'DejaVu Sans', 'Bitstream Vera Sans', 'Computer Modern Sans Serif', 'Lucida Grande', 'Verdana', 'Geneva', 'Lucid', 'Arial', 'Helvetica', 'Avant Garde', sans-serif; fill: #212121" transform="translate(468.345937 293.535641)">GPU 2</text>
    <text style="font-weight: 700; font-size: 9px; font-family: 'Heiti SC', 'Arial Unicode MS', 'DejaVu Sans', 'Bitstream Vera Sans', 'Computer Modern Sans Serif', 'Lucida Grande', 'Verdana', 'Geneva', 'Lucid', 'Arial', 'Helvetica', 'Avant Garde', sans-serif; fill: #212121" transform="translate(459.28125 303.192359)">silu(aᵢ)·bᵢ</text>
   </g>
   <g id="patch_23">
    <path d="M 145.900944 123.096521 
Q 312.70319 109.400149 478.168294 95.813571 
" style="fill: none; stroke: #1565c0; stroke-width: 1.2; stroke-linecap: round"/>
    <path d="M 474.018039 94.147624 
L 478.168294 95.813571 
L 474.345383 98.134207 
" style="fill: none; stroke: #1565c0; stroke-width: 1.2; stroke-linecap: round"/>
   </g>
   <g id="patch_24">
    <path d="M 145.881204 123.604162 
Q 311.472903 152.416213 478.159837 148.291811 
" style="fill: none; stroke: #1565c0; stroke-width: 1.2; stroke-linecap: round"/>
    <path d="M 474.11159 146.391367 
L 478.159837 148.291811 
L 474.210533 150.390143 
" style="fill: none; stroke: #1565c0; stroke-width: 1.2; stroke-linecap: round"/>
   </g>
   <g id="patch_25">
    <path d="M 481.5 125.257028 
Q 481.5 182.856846 481.5 239.115024 
" style="fill: none; stroke: #ef6c00; stroke-width: 1.2; stroke-linecap: round"/>
    <path d="M 483.5 235.115024 
L 481.5 239.115024 
L 479.5 235.115024 
" style="fill: none; stroke: #ef6c00; stroke-width: 1.2; stroke-linecap: round"/>
   </g>
   <g id="patch_26">
    <path d="M 481.5 205.65188 
Q 481.5 223.054316 481.5 239.115112 
" style="fill: none; stroke: #ef6c00; stroke-width: 1.2; stroke-linecap: round"/>
    <path d="M 483.5 235.115112 
L 481.5 239.115112 
L 479.5 235.115112 
" style="fill: none; stroke: #ef6c00; stroke-width: 1.2; stroke-linecap: round"/>
   </g>
   <g id="text_11">
    <text style="font-weight: 700; font-size: 8px; font-family: 'Heiti SC', 'Arial Unicode MS', 'DejaVu Sans', 'Bitstream Vera Sans', 'Computer Modern Sans Serif', 'Lucida Grande', 'Verdana', 'Geneva', 'Lucid', 'Arial', 'Helvetica', 'Avant Garde', sans-serif; fill: #212121" transform="translate(604.3 69.180125)">w1</text>
    <text style="font-weight: 700; font-size: 8px; font-family: 'Heiti SC', 'Arial Unicode MS', 'DejaVu Sans', 'Bitstream Vera Sans', 'Computer Modern Sans Serif', 'Lucida Grande', 'Verdana', 'Geneva', 'Lucid', 'Arial', 'Helvetica', 'Avant Garde', sans-serif; fill: #212121" transform="translate(592.86375 77.763875)">列 [3I/4:I)</text>
   </g>
   <g id="text_12">
    <text style="font-weight: 700; font-size: 8px; font-family: 'Heiti SC', 'Arial Unicode MS', 'DejaVu Sans', 'Bitstream Vera Sans', 'Computer Modern Sans Serif', 'Lucida Grande', 'Verdana', 'Geneva', 'Lucid', 'Arial', 'Helvetica', 'Avant Garde', sans-serif; fill: #212121" transform="translate(604.3 174.516125)">w3</text>
    <text style="font-weight: 700; font-size: 8px; font-family: 'Heiti SC', 'Arial Unicode MS', 'DejaVu Sans', 'Bitstream Vera Sans', 'Computer Modern Sans Serif', 'Lucida Grande', 'Verdana', 'Geneva', 'Lucid', 'Arial', 'Helvetica', 'Avant Garde', sans-serif; fill: #212121" transform="translate(592.86375 183.099875)">列 [3I/4:I)</text>
   </g>
   <g id="text_13">
    <text style="font-weight: 700; font-size: 9px; font-family: 'Heiti SC', 'Arial Unicode MS', 'DejaVu Sans', 'Bitstream Vera Sans', 'Computer Modern Sans Serif', 'Lucida Grande', 'Verdana', 'Geneva', 'Lucid', 'Arial', 'Helvetica', 'Avant Garde', sans-serif; fill: #212121" transform="translate(596.685938 293.535641)">GPU 3</text>
    <text style="font-weight: 700; font-size: 9px; font-family: 'Heiti SC', 'Arial Unicode MS', 'DejaVu Sans', 'Bitstream Vera Sans', 'Computer Modern Sans Serif', 'Lucida Grande', 'Verdana', 'Geneva', 'Lucid', 'Arial', 'Helvetica', 'Avant Garde', sans-serif; fill: #212121" transform="translate(587.62125 303.192359)">silu(aᵢ)·bᵢ</text>
   </g>
   <g id="patch_27">
    <path d="M 145.904222 123.141356 
Q 376.872189 109.400167 606.500882 95.738657 
" style="fill: none; stroke: #1565c0; stroke-width: 1.2; stroke-linecap: round"/>
    <path d="M 602.389165 93.979743 
L 606.500882 95.738657 
L 602.62672 97.972683 
" style="fill: none; stroke: #1565c0; stroke-width: 1.2; stroke-linecap: round"/>
   </g>
   <g id="patch_28">
    <path d="M 145.886518 123.564263 
Q 375.638889 158.832743 606.503433 148.360199 
" style="fill: none; stroke: #1565c0; stroke-width: 1.2; stroke-linecap: round"/>
    <path d="M 602.416911 146.543516 
L 606.503433 148.360199 
L 602.598173 150.539407 
" style="fill: none; stroke: #1565c0; stroke-width: 1.2; stroke-linecap: round"/>
   </g>
   <g id="patch_29">
    <path d="M 609.84 125.257028 
Q 609.84 182.856846 609.84 239.115024 
" style="fill: none; stroke: #ef6c00; stroke-width: 1.2; stroke-linecap: round"/>
    <path d="M 611.84 235.115024 
L 609.84 239.115024 
L 607.84 235.115024 
" style="fill: none; stroke: #ef6c00; stroke-width: 1.2; stroke-linecap: round"/>
   </g>
   <g id="patch_30">
    <path d="M 609.84 205.65188 
Q 609.84 223.054316 609.84 239.115112 
" style="fill: none; stroke: #ef6c00; stroke-width: 1.2; stroke-linecap: round"/>
    <path d="M 611.84 235.115112 
L 609.84 239.115112 
L 607.84 235.115112 
" style="fill: none; stroke: #ef6c00; stroke-width: 1.2; stroke-linecap: round"/>
   </g>
   <g id="text_14">
    <text style="font-weight: 700; font-size: 13px; font-family: 'Heiti SC', 'Arial Unicode MS', 'DejaVu Sans', 'Bitstream Vera Sans', 'Computer Modern Sans Serif', 'Lucida Grande', 'Verdana', 'Geneva', 'Lucid', 'Arial', 'Helvetica', 'Avant Garde', sans-serif; text-anchor: start; fill: #d84315" x="35.1" y="51.188" transform="rotate(-0 35.1 51.188)">w1 / w3: ColwiseParallel</text>
   </g>
   <g id="text_15">
    <text style="font-weight: 700; font-size: 15px; font-family: 'Heiti SC', 'Arial Unicode MS', 'DejaVu Sans', 'Bitstream Vera Sans', 'Computer Modern Sans Serif', 'Lucida Grande', 'Verdana', 'Geneva', 'Lucid', 'Arial', 'Helvetica', 'Avant Garde', sans-serif; text-anchor: middle" x="369.9" y="20.1" transform="rotate(-0 369.9 20.1)">MLP w1/w3: ColwiseParallel</text>
   </g>
  </g>
 </g>
 <defs>
  <clipPath id="p27d31911be">
   <rect x="7.2" y="40.1" width="725.4" height="360.36"/>
  </clipPath>
 </defs>
</svg>
