<?xml version="1.0" encoding="utf-8" standalone="no"?>
<!DOCTYPE svg PUBLIC "-//W3C//DTD SVG 1.1//EN"
  "http://www.w3.org/Graphics/SVG/1.1/DTD/svg11.dtd">
<svg xmlns:xlink="http://www.w3.org/1999/xlink" width="803.92pt" height="496.8pt" viewBox="0 0 803.92 496.8" xmlns="http://www.w3.org/2000/svg" version="1.1">
 <metadata>
  <rdf:RDF xmlns:dc="http://purl.org/dc/elements/1.1/" xmlns:cc="http://creativecommons.org/ns#" xmlns:rdf="http://www.w3.org/1999/02/22-rdf-syntax-ns#">
   <cc:Work>
    <dc:type rdf:resource="http://purl.org/dc/dcmitype/StillImage"/>
    <dc:date>2026-07-13T11:07:55.590474</dc:date>
    <dc:format>image/svg+xml</dc:format>
    <dc:creator>
     <cc:Agent>
      <dc:title>Matplotlib v3.11.0, https://matplotlib.org/</dc:title>
     </cc:Agent>
    </dc:creator>
   </cc:Work>
  </rdf:RDF>
 </metadata>
 <defs>
  <style type="text/css">*{stroke-linejoin: round; stroke-linecap: butt}</style>
 </defs>
 <g id="figure_1">
  <g id="patch_1">
   <path d="M 0 496.8 
L 803.92 496.8 
L 803.92 0 
L 0 0 
z
" style="fill: #ffffff"/>
  </g>
  <g id="axes_1">
   <g id="patch_2">
    <path d="M 182.896 439.56 
L 418.64 439.56 
Q 424.2 439.56 424.2 434 
L 424.2 131.536 
Q 424.2 125.976 418.64 125.976 
L 182.896 125.976 
Q 177.336 125.976 177.336 131.536 
L 177.336 434 
Q 177.336 439.56 182.896 439.56 
z
" clip-path="url(#p83ad6067a2)" style="fill: #e0e0e0; opacity: 0.3"/>
   </g>
   <g id="patch_3">
    <path d="M 174 142.1 
L 204.58 142.1 
L 204.58 122.64 
L 174 122.64 
z
" clip-path="url(#p83ad6067a2)" style="fill: #fff9c4; stroke: #f9a825; stroke-width: 0.5; stroke-linejoin: miter"/>
   </g>
   <g id="patch_4">
    <path d="M 204.58 142.1 
L 235.16 142.1 
L 235.16 122.64 
L 204.58 122.64 
z
" clip-path="url(#p83ad6067a2)" style="fill: #fff9c4; stroke: #f9a825; stroke-width: 0.5; stroke-linejoin: miter"/>
   </g>
   <g id="patch_5">
    <path d="M 235.16 142.1 
L 265.74 142.1 
L 265.74 122.64 
L 235.16 122.64 
z
" clip-path="url(#p83ad6067a2)" style="fill: #fff9c4; stroke: #f9a825; stroke-width: 0.5; stroke-linejoin: miter"/>
   </g>
   <g id="patch_6">
    <path d="M 265.74 142.1 
L 296.32 142.1 
L 296.32 122.64 
L 265.74 122.64 
z
" clip-path="url(#p83ad6067a2)" style="fill: #fff9c4; stroke: #f9a825; stroke-width: 0.5; stroke-linejoin: miter"/>
   </g>
   <g id="patch_7">
    <path d="M 296.32 142.1 
L 326.9 142.1 
L 326.9 122.64 
L 296.32 122.64 
z
" clip-path="url(#p83ad6067a2)" style="fill: #fff9c4; stroke: #f9a825; stroke-width: 0.5; stroke-linejoin: miter"/>
   </g>
   <g id="patch_8">
    <path d="M 326.9 142.1 
L 357.48 142.1 
L 357.48 122.64 
L 326.9 122.64 
z
" clip-path="url(#p83ad6067a2)" style="fill: #fff9c4; stroke: #f9a825; stroke-width: 0.5; stroke-linejoin: miter"/>
   </g>
   <g id="patch_9">
    <path d="M 357.48 142.1 
L 388.06 142.1 
L 388.06 122.64 
L 357.48 122.64 
z
" clip-path="url(#p83ad6067a2)" style="fill: #fff9c4; stroke: #f9a825; stroke-width: 0.5; stroke-linejoin: miter"/>
   </g>
   <g id="patch_10">
    <path d="M 388.06 142.1 
L 418.64 142.1 
L 418.64 122.64 
L 388.06 122.64 
z
" clip-path="url(#p83ad6067a2)" style="fill: #fff9c4; stroke: #f9a825; stroke-width: 0.5; stroke-linejoin: miter"/>
   </g>
   <g id="patch_11">
    <path d="M 174 161.56 
L 204.58 161.56 
L 204.58 142.1 
L 174 142.1 
z
" clip-path="url(#p83ad6067a2)" style="fill: #fff9c4; stroke: #f9a825; stroke-width: 0.5; stroke-linejoin: miter"/>
   </g>
   <g id="patch_12">
    <path d="M 204.58 161.56 
L 235.16 161.56 
L 235.16 142.1 
L 204.58 142.1 
z
" clip-path="url(#p83ad6067a2)" style="fill: #fff9c4; stroke: #f9a825; stroke-width: 0.5; stroke-linejoin: miter"/>
   </g>
   <g id="patch_13">
    <path d="M 235.16 161.56 
L 265.74 161.56 
L 265.74 142.1 
L 235.16 142.1 
z
" clip-path="url(#p83ad6067a2)" style="fill: #fff9c4; stroke: #f9a825; stroke-width: 0.5; stroke-linejoin: miter"/>
   </g>
   <g id="patch_14">
    <path d="M 265.74 161.56 
L 296.32 161.56 
L 296.32 142.1 
L 265.74 142.1 
z
" clip-path="url(#p83ad6067a2)" style="fill: #fff9c4; stroke: #f9a825; stroke-width: 0.5; stroke-linejoin: miter"/>
   </g>
   <g id="patch_15">
    <path d="M 296.32 161.56 
L 326.9 161.56 
L 326.9 142.1 
L 296.32 142.1 
z
" clip-path="url(#p83ad6067a2)" style="fill: #fff9c4; stroke: #f9a825; stroke-width: 0.5; stroke-linejoin: miter"/>
   </g>
   <g id="patch_16">
    <path d="M 326.9 161.56 
L 357.48 161.56 
L 357.48 142.1 
L 326.9 142.1 
z
" clip-path="url(#p83ad6067a2)" style="fill: #fff9c4; stroke: #f9a825; stroke-width: 0.5; stroke-linejoin: miter"/>
   </g>
   <g id="patch_17">
    <path d="M 357.48 161.56 
L 388.06 161.56 
L 388.06 142.1 
L 357.48 142.1 
z
" clip-path="url(#p83ad6067a2)" style="fill: #fff9c4; stroke: #f9a825; stroke-width: 0.5; stroke-linejoin: miter"/>
   </g>
   <g id="patch_18">
    <path d="M 388.06 161.56 
L 418.64 161.56 
L 418.64 142.1 
L 388.06 142.1 
z
" clip-path="url(#p83ad6067a2)" style="fill: #fff9c4; stroke: #f9a825; stroke-width: 0.5; stroke-linejoin: miter"/>
   </g>
   <g id="patch_19">
    <path d="M 174 181.02 
L 204.58 181.02 
L 204.58 161.56 
L 174 161.56 
z
" clip-path="url(#p83ad6067a2)" style="fill: #fff9c4; stroke: #f9a825; stroke-width: 0.5; stroke-linejoin: miter"/>
   </g>
   <g id="patch_20">
    <path d="M 204.58 181.02 
L 235.16 181.02 
L 235.16 161.56 
L 204.58 161.56 
z
" clip-path="url(#p83ad6067a2)" style="fill: #fff9c4; stroke: #f9a825; stroke-width: 0.5; stroke-linejoin: miter"/>
   </g>
   <g id="patch_21">
    <path d="M 235.16 181.02 
L 265.74 181.02 
L 265.74 161.56 
L 235.16 161.56 
z
" clip-path="url(#p83ad6067a2)" style="fill: #fff9c4; stroke: #f9a825; stroke-width: 0.5; stroke-linejoin: miter"/>
   </g>
   <g id="patch_22">
    <path d="M 265.74 181.02 
L 296.32 181.02 
L 296.32 161.56 
L 265.74 161.56 
z
" clip-path="url(#p83ad6067a2)" style="fill: #fff9c4; stroke: #f9a825; stroke-width: 0.5; stroke-linejoin: miter"/>
   </g>
   <g id="patch_23">
    <path d="M 296.32 181.02 
L 326.9 181.02 
L 326.9 161.56 
L 296.32 161.56 
z
" clip-path="url(#p83ad6067a2)" style="fill: #fff9c4; stroke: #f9a825; stroke-width: 0.5; stroke-linejoin: miter"/>
   </g>
   <g id="patch_24">
    <path d="M 326.9 181.02 
L 357.48 181.02 
L 357.48 161.56 
L 326.9 161.56 
z
" clip-path="url(#p83ad6067a2)" style="fill: #fff9c4; stroke: #f9a825; stroke-width: 0.5; stroke-linejoin: miter"/>
   </g>
   <g id="patch_25">
    <path d="M 357.48 181.02 
L 388.06 181.02 
L 388.06 161.56 
L 357.48 161.56 
z
" clip-path="url(#p83ad6067a2)" style="fill: #fff9c4; stroke: #f9a825; stroke-width: 0.5; stroke-linejoin: miter"/>
   </g>
   <g id="patch_26">
    <path d="M 388.06 181.02 
L 418.64 181.02 
L 418.64 161.56 
L 388.06 161.56 
z
" clip-path="url(#p83ad6067a2)" style="fill: #fff9c4; stroke: #f9a825; stroke-width: 0.5; stroke-linejoin: miter"/>
   </g>
   <g id="patch_27">
    <path d="M 174 200.48 
L 204.58 200.48 
L 204.58 181.02 
L 174 181.02 
z
" clip-path="url(#p83ad6067a2)" style="fill: #fff9c4; stroke: #f9a825; stroke-width: 0.5; stroke-linejoin: miter"/>
   </g>
   <g id="patch_28">
    <path d="M 204.58 200.48 
L 235.16 200.48 
L 235.16 181.02 
L 204.58 181.02 
z
" clip-path="url(#p83ad6067a2)" style="fill: #fff9c4; stroke: #f9a825; stroke-width: 0.5; stroke-linejoin: miter"/>
   </g>
   <g id="patch_29">
    <path d="M 235.16 200.48 
L 265.74 200.48 
L 265.74 181.02 
L 235.16 181.02 
z
" clip-path="url(#p83ad6067a2)" style="fill: #fff9c4; stroke: #f9a825; stroke-width: 0.5; stroke-linejoin: miter"/>
   </g>
   <g id="patch_30">
    <path d="M 265.74 200.48 
L 296.32 200.48 
L 296.32 181.02 
L 265.74 181.02 
z
" clip-path="url(#p83ad6067a2)" style="fill: #fff9c4; stroke: #f9a825; stroke-width: 0.5; stroke-linejoin: miter"/>
   </g>
   <g id="patch_31">
    <path d="M 296.32 200.48 
L 326.9 200.48 
L 326.9 181.02 
L 296.32 181.02 
z
" clip-path="url(#p83ad6067a2)" style="fill: #fff9c4; stroke: #f9a825; stroke-width: 0.5; stroke-linejoin: miter"/>
   </g>
   <g id="patch_32">
    <path d="M 326.9 200.48 
L 357.48 200.48 
L 357.48 181.02 
L 326.9 181.02 
z
" clip-path="url(#p83ad6067a2)" style="fill: #fff9c4; stroke: #f9a825; stroke-width: 0.5; stroke-linejoin: miter"/>
   </g>
   <g id="patch_33">
    <path d="M 357.48 200.48 
L 388.06 200.48 
L 388.06 181.02 
L 357.48 181.02 
z
" clip-path="url(#p83ad6067a2)" style="fill: #fff9c4; stroke: #f9a825; stroke-width: 0.5; stroke-linejoin: miter"/>
   </g>
   <g id="patch_34">
    <path d="M 388.06 200.48 
L 418.64 200.48 
L 418.64 181.02 
L 388.06 181.02 
z
" clip-path="url(#p83ad6067a2)" style="fill: #fff9c4; stroke: #f9a825; stroke-width: 0.5; stroke-linejoin: miter"/>
   </g>
   <g id="patch_35">
    <path d="M 174 219.94 
L 204.58 219.94 
L 204.58 200.48 
L 174 200.48 
z
" clip-path="url(#p83ad6067a2)" style="fill: #fff59d; stroke: #f9a825; stroke-width: 0.5; stroke-linejoin: miter"/>
   </g>
   <g id="patch_36">
    <path d="M 204.58 219.94 
L 235.16 219.94 
L 235.16 200.48 
L 204.58 200.48 
z
" clip-path="url(#p83ad6067a2)" style="fill: #fff59d; stroke: #f9a825; stroke-width: 0.5; stroke-linejoin: miter"/>
   </g>
   <g id="patch_37">
    <path d="M 235.16 219.94 
L 265.74 219.94 
L 265.74 200.48 
L 235.16 200.48 
z
" clip-path="url(#p83ad6067a2)" style="fill: #fff59d; stroke: #f9a825; stroke-width: 0.5; stroke-linejoin: miter"/>
   </g>
   <g id="patch_38">
    <path d="M 265.74 219.94 
L 296.32 219.94 
L 296.32 200.48 
L 265.74 200.48 
z
" clip-path="url(#p83ad6067a2)" style="fill: #fff59d; stroke: #f9a825; stroke-width: 0.5; stroke-linejoin: miter"/>
   </g>
   <g id="patch_39">
    <path d="M 296.32 219.94 
L 326.9 219.94 
L 326.9 200.48 
L 296.32 200.48 
z
" clip-path="url(#p83ad6067a2)" style="fill: #fff59d; stroke: #f9a825; stroke-width: 0.5; stroke-linejoin: miter"/>
   </g>
   <g id="patch_40">
    <path d="M 326.9 219.94 
L 357.48 219.94 
L 357.48 200.48 
L 326.9 200.48 
z
" clip-path="url(#p83ad6067a2)" style="fill: #fff59d; stroke: #f9a825; stroke-width: 0.5; stroke-linejoin: miter"/>
   </g>
   <g id="patch_41">
    <path d="M 357.48 219.94 
L 388.06 219.94 
L 388.06 200.48 
L 357.48 200.48 
z
" clip-path="url(#p83ad6067a2)" style="fill: #fff59d; stroke: #f9a825; stroke-width: 0.5; stroke-linejoin: miter"/>
   </g>
   <g id="patch_42">
    <path d="M 388.06 219.94 
L 418.64 219.94 
L 418.64 200.48 
L 388.06 200.48 
z
" clip-path="url(#p83ad6067a2)" style="fill: #fff59d; stroke: #f9a825; stroke-width: 0.5; stroke-linejoin: miter"/>
   </g>
   <g id="patch_43">
    <path d="M 174 239.4 
L 204.58 239.4 
L 204.58 219.94 
L 174 219.94 
z
" clip-path="url(#p83ad6067a2)" style="fill: #fff59d; stroke: #f9a825; stroke-width: 0.5; stroke-linejoin: miter"/>
   </g>
   <g id="patch_44">
    <path d="M 204.58 239.4 
L 235.16 239.4 
L 235.16 219.94 
L 204.58 219.94 
z
" clip-path="url(#p83ad6067a2)" style="fill: #fff59d; stroke: #f9a825; stroke-width: 0.5; stroke-linejoin: miter"/>
   </g>
   <g id="patch_45">
    <path d="M 235.16 239.4 
L 265.74 239.4 
L 265.74 219.94 
L 235.16 219.94 
z
" clip-path="url(#p83ad6067a2)" style="fill: #fff59d; stroke: #f9a825; stroke-width: 0.5; stroke-linejoin: miter"/>
   </g>
   <g id="patch_46">
    <path d="M 265.74 239.4 
L 296.32 239.4 
L 296.32 219.94 
L 265.74 219.94 
z
" clip-path="url(#p83ad6067a2)" style="fill: #fff59d; stroke: #f9a825; stroke-width: 0.5; stroke-linejoin: miter"/>
   </g>
   <g id="patch_47">
    <path d="M 296.32 239.4 
L 326.9 239.4 
L 326.9 219.94 
L 296.32 219.94 
z
" clip-path="url(#p83ad6067a2)" style="fill: #fff59d; stroke: #f9a825; stroke-width: 0.5; stroke-linejoin: miter"/>
   </g>
   <g id="patch_48">
    <path d="M 326.9 239.4 
L 357.48 239.4 
L 357.48 219.94 
L 326.9 219.94 
z
" clip-path="url(#p83ad6067a2)" style="fill: #fff59d; stroke: #f9a825; stroke-width: 0.5; stroke-linejoin: miter"/>
   </g>
   <g id="patch_49">
    <path d="M 357.48 239.4 
L 388.06 239.4 
L 388.06 219.94 
L 357.48 219.94 
z
" clip-path="url(#p83ad6067a2)" style="fill: #fff59d; stroke: #f9a825; stroke-width: 0.5; stroke-linejoin: miter"/>
   </g>
   <g id="patch_50">
    <path d="M 388.06 239.4 
L 418.64 239.4 
L 418.64 219.94 
L 388.06 219.94 
z
" clip-path="url(#p83ad6067a2)" style="fill: #fff59d; stroke: #f9a825; stroke-width: 0.5; stroke-linejoin: miter"/>
   </g>
   <g id="patch_51">
    <path d="M 174 258.86 
L 204.58 258.86 
L 204.58 239.4 
L 174 239.4 
z
" clip-path="url(#p83ad6067a2)" style="fill: #fff59d; stroke: #f9a825; stroke-width: 0.5; stroke-linejoin: miter"/>
   </g>
   <g id="patch_52">
    <path d="M 204.58 258.86 
L 235.16 258.86 
L 235.16 239.4 
L 204.58 239.4 
z
" clip-path="url(#p83ad6067a2)" style="fill: #fff59d; stroke: #f9a825; stroke-width: 0.5; stroke-linejoin: miter"/>
   </g>
   <g id="patch_53">
    <path d="M 235.16 258.86 
L 265.74 258.86 
L 265.74 239.4 
L 235.16 239.4 
z
" clip-path="url(#p83ad6067a2)" style="fill: #fff59d; stroke: #f9a825; stroke-width: 0.5; stroke-linejoin: miter"/>
   </g>
   <g id="patch_54">
    <path d="M 265.74 258.86 
L 296.32 258.86 
L 296.32 239.4 
L 265.74 239.4 
z
" clip-path="url(#p83ad6067a2)" style="fill: #fff59d; stroke: #f9a825; stroke-width: 0.5; stroke-linejoin: miter"/>
   </g>
   <g id="patch_55">
    <path d="M 296.32 258.86 
L 326.9 258.86 
L 326.9 239.4 
L 296.32 239.4 
z
" clip-path="url(#p83ad6067a2)" style="fill: #fff59d; stroke: #f9a825; stroke-width: 0.5; stroke-linejoin: miter"/>
   </g>
   <g id="patch_56">
    <path d="M 326.9 258.86 
L 357.48 258.86 
L 357.48 239.4 
L 326.9 239.4 
z
" clip-path="url(#p83ad6067a2)" style="fill: #fff59d; stroke: #f9a825; stroke-width: 0.5; stroke-linejoin: miter"/>
   </g>
   <g id="patch_57">
    <path d="M 357.48 258.86 
L 388.06 258.86 
L 388.06 239.4 
L 357.48 239.4 
z
" clip-path="url(#p83ad6067a2)" style="fill: #fff59d; stroke: #f9a825; stroke-width: 0.5; stroke-linejoin: miter"/>
   </g>
   <g id="patch_58">
    <path d="M 388.06 258.86 
L 418.64 258.86 
L 418.64 239.4 
L 388.06 239.4 
z
" clip-path="url(#p83ad6067a2)" style="fill: #fff59d; stroke: #f9a825; stroke-width: 0.5; stroke-linejoin: miter"/>
   </g>
   <g id="patch_59">
    <path d="M 174 278.32 
L 204.58 278.32 
L 204.58 258.86 
L 174 258.86 
z
" clip-path="url(#p83ad6067a2)" style="fill: #fff59d; stroke: #f9a825; stroke-width: 0.5; stroke-linejoin: miter"/>
   </g>
   <g id="patch_60">
    <path d="M 204.58 278.32 
L 235.16 278.32 
L 235.16 258.86 
L 204.58 258.86 
z
" clip-path="url(#p83ad6067a2)" style="fill: #fff59d; stroke: #f9a825; stroke-width: 0.5; stroke-linejoin: miter"/>
   </g>
   <g id="patch_61">
    <path d="M 235.16 278.32 
L 265.74 278.32 
L 265.74 258.86 
L 235.16 258.86 
z
" clip-path="url(#p83ad6067a2)" style="fill: #fff59d; stroke: #f9a825; stroke-width: 0.5; stroke-linejoin: miter"/>
   </g>
   <g id="patch_62">
    <path d="M 265.74 278.32 
L 296.32 278.32 
L 296.32 258.86 
L 265.74 258.86 
z
" clip-path="url(#p83ad6067a2)" style="fill: #fff59d; stroke: #f9a825; stroke-width: 0.5; stroke-linejoin: miter"/>
   </g>
   <g id="patch_63">
    <path d="M 296.32 278.32 
L 326.9 278.32 
L 326.9 258.86 
L 296.32 258.86 
z
" clip-path="url(#p83ad6067a2)" style="fill: #fff59d; stroke: #f9a825; stroke-width: 0.5; stroke-linejoin: miter"/>
   </g>
   <g id="patch_64">
    <path d="M 326.9 278.32 
L 357.48 278.32 
L 357.48 258.86 
L 326.9 258.86 
z
" clip-path="url(#p83ad6067a2)" style="fill: #fff59d; stroke: #f9a825; stroke-width: 0.5; stroke-linejoin: miter"/>
   </g>
   <g id="patch_65">
    <path d="M 357.48 278.32 
L 388.06 278.32 
L 388.06 258.86 
L 357.48 258.86 
z
" clip-path="url(#p83ad6067a2)" style="fill: #fff59d; stroke: #f9a825; stroke-width: 0.5; stroke-linejoin: miter"/>
   </g>
   <g id="patch_66">
    <path d="M 388.06 278.32 
L 418.64 278.32 
L 418.64 258.86 
L 388.06 258.86 
z
" clip-path="url(#p83ad6067a2)" style="fill: #fff59d; stroke: #f9a825; stroke-width: 0.5; stroke-linejoin: miter"/>
   </g>
   <g id="patch_67">
    <path d="M 174 297.78 
L 204.58 297.78 
L 204.58 278.32 
L 174 278.32 
z
" clip-path="url(#p83ad6067a2)" style="fill: #fff176; stroke: #f9a825; stroke-width: 0.5; stroke-linejoin: miter"/>
   </g>
   <g id="patch_68">
    <path d="M 204.58 297.78 
L 235.16 297.78 
L 235.16 278.32 
L 204.58 278.32 
z
" clip-path="url(#p83ad6067a2)" style="fill: #fff176; stroke: #f9a825; stroke-width: 0.5; stroke-linejoin: miter"/>
   </g>
   <g id="patch_69">
    <path d="M 235.16 297.78 
L 265.74 297.78 
L 265.74 278.32 
L 235.16 278.32 
z
" clip-path="url(#p83ad6067a2)" style="fill: #fff176; stroke: #f9a825; stroke-width: 0.5; stroke-linejoin: miter"/>
   </g>
   <g id="patch_70">
    <path d="M 265.74 297.78 
L 296.32 297.78 
L 296.32 278.32 
L 265.74 278.32 
z
" clip-path="url(#p83ad6067a2)" style="fill: #fff176; stroke: #f9a825; stroke-width: 0.5; stroke-linejoin: miter"/>
   </g>
   <g id="patch_71">
    <path d="M 296.32 297.78 
L 326.9 297.78 
L 326.9 278.32 
L 296.32 278.32 
z
" clip-path="url(#p83ad6067a2)" style="fill: #fff176; stroke: #f9a825; stroke-width: 0.5; stroke-linejoin: miter"/>
   </g>
   <g id="patch_72">
    <path d="M 326.9 297.78 
L 357.48 297.78 
L 357.48 278.32 
L 326.9 278.32 
z
" clip-path="url(#p83ad6067a2)" style="fill: #fff176; stroke: #f9a825; stroke-width: 0.5; stroke-linejoin: miter"/>
   </g>
   <g id="patch_73">
    <path d="M 357.48 297.78 
L 388.06 297.78 
L 388.06 278.32 
L 357.48 278.32 
z
" clip-path="url(#p83ad6067a2)" style="fill: #fff176; stroke: #f9a825; stroke-width: 0.5; stroke-linejoin: miter"/>
   </g>
   <g id="patch_74">
    <path d="M 388.06 297.78 
L 418.64 297.78 
L 418.64 278.32 
L 388.06 278.32 
z
" clip-path="url(#p83ad6067a2)" style="fill: #fff176; stroke: #f9a825; stroke-width: 0.5; stroke-linejoin: miter"/>
   </g>
   <g id="patch_75">
    <path d="M 174 317.24 
L 204.58 317.24 
L 204.58 297.78 
L 174 297.78 
z
" clip-path="url(#p83ad6067a2)" style="fill: #fff176; stroke: #f9a825; stroke-width: 0.5; stroke-linejoin: miter"/>
   </g>
   <g id="patch_76">
    <path d="M 204.58 317.24 
L 235.16 317.24 
L 235.16 297.78 
L 204.58 297.78 
z
" clip-path="url(#p83ad6067a2)" style="fill: #fff176; stroke: #f9a825; stroke-width: 0.5; stroke-linejoin: miter"/>
   </g>
   <g id="patch_77">
    <path d="M 235.16 317.24 
L 265.74 317.24 
L 265.74 297.78 
L 235.16 297.78 
z
" clip-path="url(#p83ad6067a2)" style="fill: #fff176; stroke: #f9a825; stroke-width: 0.5; stroke-linejoin: miter"/>
   </g>
   <g id="patch_78">
    <path d="M 265.74 317.24 
L 296.32 317.24 
L 296.32 297.78 
L 265.74 297.78 
z
" clip-path="url(#p83ad6067a2)" style="fill: #fff176; stroke: #f9a825; stroke-width: 0.5; stroke-linejoin: miter"/>
   </g>
   <g id="patch_79">
    <path d="M 296.32 317.24 
L 326.9 317.24 
L 326.9 297.78 
L 296.32 297.78 
z
" clip-path="url(#p83ad6067a2)" style="fill: #fff176; stroke: #f9a825; stroke-width: 0.5; stroke-linejoin: miter"/>
   </g>
   <g id="patch_80">
    <path d="M 326.9 317.24 
L 357.48 317.24 
L 357.48 297.78 
L 326.9 297.78 
z
" clip-path="url(#p83ad6067a2)" style="fill: #fff176; stroke: #f9a825; stroke-width: 0.5; stroke-linejoin: miter"/>
   </g>
   <g id="patch_81">
    <path d="M 357.48 317.24 
L 388.06 317.24 
L 388.06 297.78 
L 357.48 297.78 
z
" clip-path="url(#p83ad6067a2)" style="fill: #fff176; stroke: #f9a825; stroke-width: 0.5; stroke-linejoin: miter"/>
   </g>
   <g id="patch_82">
    <path d="M 388.06 317.24 
L 418.64 317.24 
L 418.64 297.78 
L 388.06 297.78 
z
" clip-path="url(#p83ad6067a2)" style="fill: #fff176; stroke: #f9a825; stroke-width: 0.5; stroke-linejoin: miter"/>
   </g>
   <g id="patch_83">
    <path d="M 174 336.7 
L 204.58 336.7 
L 204.58 317.24 
L 174 317.24 
z
" clip-path="url(#p83ad6067a2)" style="fill: #fff176; stroke: #f9a825; stroke-width: 0.5; stroke-linejoin: miter"/>
   </g>
   <g id="patch_84">
    <path d="M 204.58 336.7 
L 235.16 336.7 
L 235.16 317.24 
L 204.58 317.24 
z
" clip-path="url(#p83ad6067a2)" style="fill: #fff176; stroke: #f9a825; stroke-width: 0.5; stroke-linejoin: miter"/>
   </g>
   <g id="patch_85">
    <path d="M 235.16 336.7 
L 265.74 336.7 
L 265.74 317.24 
L 235.16 317.24 
z
" clip-path="url(#p83ad6067a2)" style="fill: #fff176; stroke: #f9a825; stroke-width: 0.5; stroke-linejoin: miter"/>
   </g>
   <g id="patch_86">
    <path d="M 265.74 336.7 
L 296.32 336.7 
L 296.32 317.24 
L 265.74 317.24 
z
" clip-path="url(#p83ad6067a2)" style="fill: #fff176; stroke: #f9a825; stroke-width: 0.5; stroke-linejoin: miter"/>
   </g>
   <g id="patch_87">
    <path d="M 296.32 336.7 
L 326.9 336.7 
L 326.9 317.24 
L 296.32 317.24 
z
" clip-path="url(#p83ad6067a2)" style="fill: #fff176; stroke: #f9a825; stroke-width: 0.5; stroke-linejoin: miter"/>
   </g>
   <g id="patch_88">
    <path d="M 326.9 336.7 
L 357.48 336.7 
L 357.48 317.24 
L 326.9 317.24 
z
" clip-path="url(#p83ad6067a2)" style="fill: #fff176; stroke: #f9a825; stroke-width: 0.5; stroke-linejoin: miter"/>
   </g>
   <g id="patch_89">
    <path d="M 357.48 336.7 
L 388.06 336.7 
L 388.06 317.24 
L 357.48 317.24 
z
" clip-path="url(#p83ad6067a2)" style="fill: #fff176; stroke: #f9a825; stroke-width: 0.5; stroke-linejoin: miter"/>
   </g>
   <g id="patch_90">
    <path d="M 388.06 336.7 
L 418.64 336.7 
L 418.64 317.24 
L 388.06 317.24 
z
" clip-path="url(#p83ad6067a2)" style="fill: #fff176; stroke: #f9a825; stroke-width: 0.5; stroke-linejoin: miter"/>
   </g>
   <g id="patch_91">
    <path d="M 174 356.16 
L 204.58 356.16 
L 204.58 336.7 
L 174 336.7 
z
" clip-path="url(#p83ad6067a2)" style="fill: #fff176; stroke: #f9a825; stroke-width: 0.5; stroke-linejoin: miter"/>
   </g>
   <g id="patch_92">
    <path d="M 204.58 356.16 
L 235.16 356.16 
L 235.16 336.7 
L 204.58 336.7 
z
" clip-path="url(#p83ad6067a2)" style="fill: #fff176; stroke: #f9a825; stroke-width: 0.5; stroke-linejoin: miter"/>
   </g>
   <g id="patch_93">
    <path d="M 235.16 356.16 
L 265.74 356.16 
L 265.74 336.7 
L 235.16 336.7 
z
" clip-path="url(#p83ad6067a2)" style="fill: #fff176; stroke: #f9a825; stroke-width: 0.5; stroke-linejoin: miter"/>
   </g>
   <g id="patch_94">
    <path d="M 265.74 356.16 
L 296.32 356.16 
L 296.32 336.7 
L 265.74 336.7 
z
" clip-path="url(#p83ad6067a2)" style="fill: #fff176; stroke: #f9a825; stroke-width: 0.5; stroke-linejoin: miter"/>
   </g>
   <g id="patch_95">
    <path d="M 296.32 356.16 
L 326.9 356.16 
L 326.9 336.7 
L 296.32 336.7 
z
" clip-path="url(#p83ad6067a2)" style="fill: #fff176; stroke: #f9a825; stroke-width: 0.5; stroke-linejoin: miter"/>
   </g>
   <g id="patch_96">
    <path d="M 326.9 356.16 
L 357.48 356.16 
L 357.48 336.7 
L 326.9 336.7 
z
" clip-path="url(#p83ad6067a2)" style="fill: #fff176; stroke: #f9a825; stroke-width: 0.5; stroke-linejoin: miter"/>
   </g>
   <g id="patch_97">
    <path d="M 357.48 356.16 
L 388.06 356.16 
L 388.06 336.7 
L 357.48 336.7 
z
" clip-path="url(#p83ad6067a2)" style="fill: #fff176; stroke: #f9a825; stroke-width: 0.5; stroke-linejoin: miter"/>
   </g>
   <g id="patch_98">
    <path d="M 388.06 356.16 
L 418.64 356.16 
L 418.64 336.7 
L 388.06 336.7 
z
" clip-path="url(#p83ad6067a2)" style="fill: #fff176; stroke: #f9a825; stroke-width: 0.5; stroke-linejoin: miter"/>
   </g>
   <g id="patch_99">
    <path d="M 174 375.62 
L 204.58 375.62 
L 204.58 356.16 
L 174 356.16 
z
" clip-path="url(#p83ad6067a2)" style="fill: #ffee58; stroke: #f9a825; stroke-width: 0.5; stroke-linejoin: miter"/>
   </g>
   <g id="patch_100">
    <path d="M 204.58 375.62 
L 235.16 375.62 
L 235.16 356.16 
L 204.58 356.16 
z
" clip-path="url(#p83ad6067a2)" style="fill: #ffee58; stroke: #f9a825; stroke-width: 0.5; stroke-linejoin: miter"/>
   </g>
   <g id="patch_101">
    <path d="M 235.16 375.62 
L 265.74 375.62 
L 265.74 356.16 
L 235.16 356.16 
z
" clip-path="url(#p83ad6067a2)" style="fill: #ffee58; stroke: #f9a825; stroke-width: 0.5; stroke-linejoin: miter"/>
   </g>
   <g id="patch_102">
    <path d="M 265.74 375.62 
L 296.32 375.62 
L 296.32 356.16 
L 265.74 356.16 
z
" clip-path="url(#p83ad6067a2)" style="fill: #ffee58; stroke: #f9a825; stroke-width: 0.5; stroke-linejoin: miter"/>
   </g>
   <g id="patch_103">
    <path d="M 296.32 375.62 
L 326.9 375.62 
L 326.9 356.16 
L 296.32 356.16 
z
" clip-path="url(#p83ad6067a2)" style="fill: #ffee58; stroke: #f9a825; stroke-width: 0.5; stroke-linejoin: miter"/>
   </g>
   <g id="patch_104">
    <path d="M 326.9 375.62 
L 357.48 375.62 
L 357.48 356.16 
L 326.9 356.16 
z
" clip-path="url(#p83ad6067a2)" style="fill: #ffee58; stroke: #f9a825; stroke-width: 0.5; stroke-linejoin: miter"/>
   </g>
   <g id="patch_105">
    <path d="M 357.48 375.62 
L 388.06 375.62 
L 388.06 356.16 
L 357.48 356.16 
z
" clip-path="url(#p83ad6067a2)" style="fill: #ffee58; stroke: #f9a825; stroke-width: 0.5; stroke-linejoin: miter"/>
   </g>
   <g id="patch_106">
    <path d="M 388.06 375.62 
L 418.64 375.62 
L 418.64 356.16 
L 388.06 356.16 
z
" clip-path="url(#p83ad6067a2)" style="fill: #ffee58; stroke: #f9a825; stroke-width: 0.5; stroke-linejoin: miter"/>
   </g>
   <g id="patch_107">
    <path d="M 174 395.08 
L 204.58 395.08 
L 204.58 375.62 
L 174 375.62 
z
" clip-path="url(#p83ad6067a2)" style="fill: #ffee58; stroke: #f9a825; stroke-width: 0.5; stroke-linejoin: miter"/>
   </g>
   <g id="patch_108">
    <path d="M 204.58 395.08 
L 235.16 395.08 
L 235.16 375.62 
L 204.58 375.62 
z
" clip-path="url(#p83ad6067a2)" style="fill: #ffee58; stroke: #f9a825; stroke-width: 0.5; stroke-linejoin: miter"/>
   </g>
   <g id="patch_109">
    <path d="M 235.16 395.08 
L 265.74 395.08 
L 265.74 375.62 
L 235.16 375.62 
z
" clip-path="url(#p83ad6067a2)" style="fill: #ffee58; stroke: #f9a825; stroke-width: 0.5; stroke-linejoin: miter"/>
   </g>
   <g id="patch_110">
    <path d="M 265.74 395.08 
L 296.32 395.08 
L 296.32 375.62 
L 265.74 375.62 
z
" clip-path="url(#p83ad6067a2)" style="fill: #ffee58; stroke: #f9a825; stroke-width: 0.5; stroke-linejoin: miter"/>
   </g>
   <g id="patch_111">
    <path d="M 296.32 395.08 
L 326.9 395.08 
L 326.9 375.62 
L 296.32 375.62 
z
" clip-path="url(#p83ad6067a2)" style="fill: #ffee58; stroke: #f9a825; stroke-width: 0.5; stroke-linejoin: miter"/>
   </g>
   <g id="patch_112">
    <path d="M 326.9 395.08 
L 357.48 395.08 
L 357.48 375.62 
L 326.9 375.62 
z
" clip-path="url(#p83ad6067a2)" style="fill: #ffee58; stroke: #f9a825; stroke-width: 0.5; stroke-linejoin: miter"/>
   </g>
   <g id="patch_113">
    <path d="M 357.48 395.08 
L 388.06 395.08 
L 388.06 375.62 
L 357.48 375.62 
z
" clip-path="url(#p83ad6067a2)" style="fill: #ffee58; stroke: #f9a825; stroke-width: 0.5; stroke-linejoin: miter"/>
   </g>
   <g id="patch_114">
    <path d="M 388.06 395.08 
L 418.64 395.08 
L 418.64 375.62 
L 388.06 375.62 
z
" clip-path="url(#p83ad6067a2)" style="fill: #ffee58; stroke: #f9a825; stroke-width: 0.5; stroke-linejoin: miter"/>
   </g>
   <g id="patch_115">
    <path d="M 174 414.54 
L 204.58 414.54 
L 204.58 395.08 
L 174 395.08 
z
" clip-path="url(#p83ad6067a2)" style="fill: #ffee58; stroke: #f9a825; stroke-width: 0.5; stroke-linejoin: miter"/>
   </g>
   <g id="patch_116">
    <path d="M 204.58 414.54 
L 235.16 414.54 
L 235.16 395.08 
L 204.58 395.08 
z
" clip-path="url(#p83ad6067a2)" style="fill: #ffee58; stroke: #f9a825; stroke-width: 0.5; stroke-linejoin: miter"/>
   </g>
   <g id="patch_117">
    <path d="M 235.16 414.54 
L 265.74 414.54 
L 265.74 395.08 
L 235.16 395.08 
z
" clip-path="url(#p83ad6067a2)" style="fill: #ffee58; stroke: #f9a825; stroke-width: 0.5; stroke-linejoin: miter"/>
   </g>
   <g id="patch_118">
    <path d="M 265.74 414.54 
L 296.32 414.54 
L 296.32 395.08 
L 265.74 395.08 
z
" clip-path="url(#p83ad6067a2)" style="fill: #ffee58; stroke: #f9a825; stroke-width: 0.5; stroke-linejoin: miter"/>
   </g>
   <g id="patch_119">
    <path d="M 296.32 414.54 
L 326.9 414.54 
L 326.9 395.08 
L 296.32 395.08 
z
" clip-path="url(#p83ad6067a2)" style="fill: #ffee58; stroke: #f9a825; stroke-width: 0.5; stroke-linejoin: miter"/>
   </g>
   <g id="patch_120">
    <path d="M 326.9 414.54 
L 357.48 414.54 
L 357.48 395.08 
L 326.9 395.08 
z
" clip-path="url(#p83ad6067a2)" style="fill: #ffee58; stroke: #f9a825; stroke-width: 0.5; stroke-linejoin: miter"/>
   </g>
   <g id="patch_121">
    <path d="M 357.48 414.54 
L 388.06 414.54 
L 388.06 395.08 
L 357.48 395.08 
z
" clip-path="url(#p83ad6067a2)" style="fill: #ffee58; stroke: #f9a825; stroke-width: 0.5; stroke-linejoin: miter"/>
   </g>
   <g id="patch_122">
    <path d="M 388.06 414.54 
L 418.64 414.54 
L 418.64 395.08 
L 388.06 395.08 
z
" clip-path="url(#p83ad6067a2)" style="fill: #ffee58; stroke: #f9a825; stroke-width: 0.5; stroke-linejoin: miter"/>
   </g>
   <g id="patch_123">
    <path d="M 174 434 
L 204.58 434 
L 204.58 414.54 
L 174 414.54 
z
" clip-path="url(#p83ad6067a2)" style="fill: #ffee58; stroke: #f9a825; stroke-width: 0.5; stroke-linejoin: miter"/>
   </g>
   <g id="patch_124">
    <path d="M 204.58 434 
L 235.16 434 
L 235.16 414.54 
L 204.58 414.54 
z
" clip-path="url(#p83ad6067a2)" style="fill: #ffee58; stroke: #f9a825; stroke-width: 0.5; stroke-linejoin: miter"/>
   </g>
   <g id="patch_125">
    <path d="M 235.16 434 
L 265.74 434 
L 265.74 414.54 
L 235.16 414.54 
z
" clip-path="url(#p83ad6067a2)" style="fill: #ffee58; stroke: #f9a825; stroke-width: 0.5; stroke-linejoin: miter"/>
   </g>
   <g id="patch_126">
    <path d="M 265.74 434 
L 296.32 434 
L 296.32 414.54 
L 265.74 414.54 
z
" clip-path="url(#p83ad6067a2)" style="fill: #ffee58; stroke: #f9a825; stroke-width: 0.5; stroke-linejoin: miter"/>
   </g>
   <g id="patch_127">
    <path d="M 296.32 434 
L 326.9 434 
L 326.9 414.54 
L 296.32 414.54 
z
" clip-path="url(#p83ad6067a2)" style="fill: #ffee58; stroke: #f9a825; stroke-width: 0.5; stroke-linejoin: miter"/>
   </g>
   <g id="patch_128">
    <path d="M 326.9 434 
L 357.48 434 
L 357.48 414.54 
L 326.9 414.54 
z
" clip-path="url(#p83ad6067a2)" style="fill: #ffee58; stroke: #f9a825; stroke-width: 0.5; stroke-linejoin: miter"/>
   </g>
   <g id="patch_129">
    <path d="M 357.48 434 
L 388.06 434 
L 388.06 414.54 
L 357.48 414.54 
z
" clip-path="url(#p83ad6067a2)" style="fill: #ffee58; stroke: #f9a825; stroke-width: 0.5; stroke-linejoin: miter"/>
   </g>
   <g id="patch_130">
    <path d="M 388.06 434 
L 418.64 434 
L 418.64 414.54 
L 388.06 414.54 
z
" clip-path="url(#p83ad6067a2)" style="fill: #ffee58; stroke: #f9a825; stroke-width: 0.5; stroke-linejoin: miter"/>
   </g>
   <g id="patch_131">
    <path d="M 177.336 435.112 
L 415.304 435.112 
Q 419.752 435.112 419.752 430.664 
L 419.752 125.976 
Q 419.752 121.528 415.304 121.528 
L 177.336 121.528 
Q 172.888 121.528 172.888 125.976 
L 172.888 430.664 
Q 172.888 435.112 177.336 435.112 
L 177.336 435.112 
z
" clip-path="url(#p83ad6067a2)" style="fill: none; stroke: #f9a825; stroke-width: 2; stroke-linejoin: miter"/>
   </g>
   <g id="patch_132">
    <path d="M 456.448 179.352 
L 475.352 179.352 
Q 480.912 179.352 480.912 173.792 
L 480.912 149.328 
Q 480.912 143.768 475.352 143.768 
L 456.448 143.768 
Q 450.888 143.768 450.888 149.328 
L 450.888 173.792 
Q 450.888 179.352 456.448 179.352 
z
" clip-path="url(#p83ad6067a2)" style="fill: #fff9c4; stroke: #f9a825; stroke-width: 1.5; stroke-linejoin: miter"/>
   </g>
   <g id="patch_133">
    <path d="M 456.448 257.192 
L 475.352 257.192 
Q 480.912 257.192 480.912 251.632 
L 480.912 227.168 
Q 480.912 221.608 475.352 221.608 
L 456.448 221.608 
Q 450.888 221.608 450.888 227.168 
L 450.888 251.632 
Q 450.888 257.192 456.448 257.192 
z
" clip-path="url(#p83ad6067a2)" style="fill: #fff59d; stroke: #f9a825; stroke-width: 1.5; stroke-linejoin: miter"/>
   </g>
   <g id="patch_134">
    <path d="M 456.448 335.032 
L 475.352 335.032 
Q 480.912 335.032 480.912 329.472 
L 480.912 305.008 
Q 480.912 299.448 475.352 299.448 
L 456.448 299.448 
Q 450.888 299.448 450.888 305.008 
L 450.888 329.472 
Q 450.888 335.032 456.448 335.032 
z
" clip-path="url(#p83ad6067a2)" style="fill: #fff176; stroke: #f9a825; stroke-width: 1.5; stroke-linejoin: miter"/>
   </g>
   <g id="patch_135">
    <path d="M 456.448 412.872 
L 475.352 412.872 
Q 480.912 412.872 480.912 407.312 
L 480.912 382.848 
Q 480.912 377.288 475.352 377.288 
L 456.448 377.288 
Q 450.888 377.288 450.888 382.848 
L 450.888 407.312 
Q 450.888 412.872 456.448 412.872 
z
" clip-path="url(#p83ad6067a2)" style="fill: #ffee58; stroke: #f9a825; stroke-width: 1.5; stroke-linejoin: miter"/>
   </g>
   <g id="patch_136">
    <path d="M 33.332 314.46 
L 136.748 314.46 
Q 143.42 314.46 143.42 307.788 
L 143.42 248.852 
Q 143.42 242.18 136.748 242.18 
L 33.332 242.18 
Q 26.66 242.18 26.66 248.852 
L 26.66 307.788 
Q 26.66 314.46 33.332 314.46 
z
" clip-path="url(#p83ad6067a2)" style="fill: #e3f2fd; stroke: #1565c0; stroke-width: 2; stroke-linejoin: miter"/>
   </g>
   <g id="patch_137">
    <path d="M 644.932 314.46 
L 759.468 314.46 
Q 766.14 314.46 766.14 307.788 
L 766.14 248.852 
Q 766.14 242.18 759.468 242.18 
L 644.932 242.18 
Q 638.26 242.18 638.26 248.852 
L 638.26 307.788 
Q 638.26 314.46 644.932 314.46 
z
" clip-path="url(#p83ad6067a2)" style="fill: #e8f5e9; stroke: #2e7d32; stroke-width: 2; stroke-linejoin: miter"/>
   </g>
   <g id="line2d_1">
    <path d="M 418.64 161.56 
L 452 161.56 
" clip-path="url(#p83ad6067a2)" style="fill: none; stroke: #f9a825; stroke-opacity: 0.6; stroke-width: 0.8; stroke-linecap: square"/>
   </g>
   <g id="line2d_2">
    <path d="M 418.64 239.4 
L 452 239.4 
" clip-path="url(#p83ad6067a2)" style="fill: none; stroke: #f9a825; stroke-opacity: 0.6; stroke-width: 0.8; stroke-linecap: square"/>
   </g>
   <g id="line2d_3">
    <path d="M 418.64 317.24 
L 452 317.24 
" clip-path="url(#p83ad6067a2)" style="fill: none; stroke: #f9a825; stroke-opacity: 0.6; stroke-width: 0.8; stroke-linecap: square"/>
   </g>
   <g id="line2d_4">
    <path d="M 418.64 395.08 
L 452 395.08 
" clip-path="url(#p83ad6067a2)" style="fill: none; stroke: #f9a825; stroke-opacity: 0.6; stroke-width: 0.8; stroke-linecap: square"/>
   </g>
   <g id="text_1">
    <!-- embedding_weight: [vocab_size, hidden_size] -->
    <g style="fill: #424242" transform="translate(162.406562 95.94) scale(0.12 -0.12)">
     <defs>
      <path id="STHeitiSC-Medium-47" d="M 3878 2035 
L 819 2035 
Q 851 1459 1206 1110 
Q 1562 762 2054 762 
Q 2893 762 3334 1587 
L 3782 1357 
Q 3482 800 3072 534 
Q 2662 269 2093 269 
Q 1306 269 794 809 
Q 282 1350 282 2112 
Q 282 2874 797 3418 
Q 1312 3962 2073 3962 
Q 2835 3962 3347 3446 
Q 3859 2931 3878 2035 
z
M 3290 2502 
Q 3194 2950 2854 3200 
Q 2515 3450 2074 3450 
Q 1178 3450 883 2502 
L 3290 2502 
z
" transform="scale(0.015625)"/>
      <path id="STHeitiSC-Medium-4f" d="M 5613 384 
L 5075 384 
L 5075 2285 
Q 5075 2739 5020 2950 
Q 4966 3162 4784 3306 
Q 4602 3450 4304 3450 
Q 4006 3450 3744 3258 
Q 3482 3066 3379 2736 
Q 3277 2406 3277 1760 
L 3277 384 
L 2758 384 
L 2758 2170 
Q 2758 2694 2704 2924 
Q 2650 3155 2464 3302 
Q 2278 3450 1996 3450 
Q 1715 3450 1462 3274 
Q 1210 3098 1088 2813 
Q 966 2528 966 1869 
L 966 384 
L 442 384 
L 442 3872 
L 966 3872 
L 966 3379 
Q 1414 3962 2086 3962 
Q 2451 3962 2748 3766 
Q 3046 3571 3174 3213 
Q 3392 3578 3718 3770 
Q 4045 3962 4410 3962 
Q 4909 3962 5261 3610 
Q 5613 3258 5613 2285 
L 5613 384 
z
" transform="scale(0.015625)"/>
      <path id="STHeitiSC-Medium-44" d="M 992 3360 
Q 1536 3962 2297 3962 
Q 3059 3962 3580 3421 
Q 4102 2880 4102 2118 
Q 4102 1357 3571 813 
Q 3040 269 2288 269 
Q 1536 269 992 922 
L 992 384 
L 474 384 
L 474 5184 
L 992 5184 
L 992 3360 
z
M 2266 781 
Q 2810 781 3190 1184 
Q 3571 1587 3571 2128 
Q 3571 2669 3200 3072 
Q 2829 3475 2272 3475 
Q 1715 3475 1340 3097 
Q 966 2720 966 2147 
Q 966 1574 1344 1177 
Q 1722 781 2266 781 
z
" transform="scale(0.015625)"/>
      <path id="STHeitiSC-Medium-46" d="M 3923 384 
L 3405 384 
L 3405 896 
Q 2835 269 2089 269 
Q 1344 269 819 813 
Q 294 1357 294 2118 
Q 294 2880 825 3421 
Q 1357 3962 2121 3962 
Q 2886 3962 3405 3341 
L 3405 5184 
L 3923 5184 
L 3923 384 
z
M 2131 762 
Q 2637 762 3033 1139 
Q 3430 1517 3430 2096 
Q 3430 2675 3062 3062 
Q 2694 3450 2134 3450 
Q 1574 3450 1200 3050 
Q 826 2650 826 2109 
Q 826 1568 1210 1165 
Q 1594 762 2131 762 
z
" transform="scale(0.015625)"/>
      <path id="STHeitiSC-Medium-4b" d="M 640 5184 
Q 813 5184 931 5065 
Q 1050 4947 1050 4777 
Q 1050 4608 931 4489 
Q 813 4371 643 4371 
Q 474 4371 355 4492 
Q 237 4614 237 4777 
Q 237 4941 355 5062 
Q 474 5184 640 5184 
z
M 909 384 
L 378 384 
L 378 3872 
L 909 3872 
L 909 384 
z
" transform="scale(0.015625)"/>
      <path id="STHeitiSC-Medium-50" d="M 3501 384 
L 2976 384 
L 2976 2048 
Q 2976 2624 2921 2832 
Q 2867 3040 2761 3184 
Q 2656 3328 2493 3398 
Q 2330 3469 2096 3469 
Q 1862 3469 1638 3353 
Q 1414 3238 1254 3033 
Q 1094 2829 1033 2598 
Q 973 2368 973 1677 
L 973 384 
L 442 384 
L 442 3872 
L 973 3872 
L 973 3347 
Q 1491 3962 2202 3962 
Q 2579 3962 2886 3766 
Q 3194 3571 3347 3228 
Q 3501 2886 3501 2176 
L 3501 384 
z
" transform="scale(0.015625)"/>
      <path id="STHeitiSC-Medium-49" d="M 3930 1203 
Q 3930 512 3811 179 
Q 3693 -154 3453 -384 
Q 3213 -614 2877 -732 
Q 2541 -851 2138 -851 
Q 774 -851 320 301 
L 883 301 
Q 1254 -365 2118 -365 
Q 2515 -365 2828 -211 
Q 3142 -58 3270 198 
Q 3398 454 3398 986 
L 3398 1018 
Q 3149 736 2797 589 
Q 2445 442 2067 442 
Q 1312 442 803 960 
Q 294 1478 301 2182 
Q 294 2918 832 3440 
Q 1370 3962 2109 3962 
Q 2848 3962 3398 3360 
L 3398 3872 
L 3930 3872 
L 3930 1203 
z
M 3418 2182 
Q 3418 2733 3050 3091 
Q 2682 3450 2150 3450 
Q 1587 3450 1206 3062 
Q 826 2675 826 2163 
Q 826 1651 1190 1296 
Q 1555 941 2124 941 
Q 2694 941 3056 1289 
Q 3418 1638 3418 2182 
z
" transform="scale(0.015625)"/>
      <path id="STHeitiSC-Medium-41" d="M 3200 -416 
L 0 -416 
L 0 -6 
L 3200 -6 
L 3200 -416 
z
" transform="scale(0.015625)"/>
      <path id="STHeitiSC-Medium-59" d="M 5299 3872 
L 3808 269 
L 3674 269 
L 2650 2752 
L 1619 269 
L 1485 269 
L 19 3872 
L 563 3872 
L 1549 1363 
L 2586 3872 
L 2714 3872 
L 3744 1357 
L 4749 3872 
L 5299 3872 
z
" transform="scale(0.015625)"/>
      <path id="STHeitiSC-Medium-4a" d="M 3501 384 
L 2970 384 
L 2970 2048 
Q 2970 2534 2941 2732 
Q 2912 2931 2809 3107 
Q 2707 3283 2531 3376 
Q 2355 3469 2108 3469 
Q 1862 3469 1638 3353 
Q 1414 3238 1254 3033 
Q 1094 2829 1033 2598 
Q 973 2368 973 1677 
L 973 384 
L 442 384 
L 442 5184 
L 973 5184 
L 973 3347 
Q 1491 3962 2202 3962 
Q 2579 3962 2886 3766 
Q 3194 3571 3347 3228 
Q 3501 2886 3501 2176 
L 3501 384 
z
" transform="scale(0.015625)"/>
      <path id="STHeitiSC-Medium-56" d="M 2048 3411 
L 1357 3411 
L 1357 966 
Q 1357 832 1395 803 
Q 1434 774 1587 774 
L 1894 774 
L 1894 320 
Q 1587 269 1427 269 
Q 1120 269 973 419 
Q 826 570 826 896 
L 826 3411 
L 224 3411 
L 224 3872 
L 826 3872 
L 826 5184 
L 1357 5184 
L 1357 3872 
L 2048 3872 
L 2048 3411 
z
" transform="scale(0.015625)"/>
      <path id="STHeitiSC-Medium-1c" d="M 966 4282 
Q 1146 4282 1270 4157 
Q 1395 4032 1395 3849 
Q 1395 3667 1273 3542 
Q 1152 3418 969 3418 
Q 787 3418 662 3542 
Q 538 3667 538 3846 
Q 538 4026 666 4154 
Q 794 4282 966 4282 
z
M 966 1478 
Q 1146 1478 1270 1353 
Q 1395 1229 1395 1046 
Q 1395 864 1270 739 
Q 1146 614 970 614 
Q 794 614 666 742 
Q 538 870 538 1049 
Q 538 1229 666 1353 
Q 794 1478 966 1478 
z
" transform="scale(0.015625)"/>
      <path id="STHeitiSC-Medium-3" transform="scale(0.015625)"/>
      <path id="STHeitiSC-Medium-3d" d="M 2003 -672 
L 864 -672 
L 864 5370 
L 2003 5370 
L 2003 4838 
L 1389 4838 
L 1389 -154 
L 2003 -154 
L 2003 -672 
z
" transform="scale(0.015625)"/>
      <path id="STHeitiSC-Medium-58" d="M 3430 3872 
L 1837 269 
L 1709 269 
L 102 3872 
L 659 3872 
L 1766 1350 
L 2874 3872 
L 3430 3872 
z
" transform="scale(0.015625)"/>
      <path id="STHeitiSC-Medium-51" d="M 2099 3962 
Q 2854 3962 3382 3418 
Q 3910 2874 3910 2112 
Q 3910 1350 3388 809 
Q 2867 269 2099 269 
Q 1331 269 806 809 
Q 282 1350 282 2112 
Q 282 2874 810 3418 
Q 1338 3962 2099 3962 
z
M 2099 774 
Q 2630 774 3004 1161 
Q 3379 1549 3379 2096 
Q 3379 2643 2998 3043 
Q 2618 3443 2096 3443 
Q 1574 3443 1196 3043 
Q 819 2643 819 2092 
Q 819 1542 1184 1158 
Q 1549 774 2099 774 
z
" transform="scale(0.015625)"/>
      <path id="STHeitiSC-Medium-45" d="M 3853 1094 
Q 3578 691 3133 480 
Q 2688 269 2170 269 
Q 1363 269 822 800 
Q 282 1331 282 2099 
Q 282 2867 826 3414 
Q 1370 3962 2234 3962 
Q 2746 3962 3178 3738 
Q 3610 3514 3853 3110 
L 3437 2848 
Q 2970 3456 2214 3456 
Q 1619 3456 1216 3075 
Q 813 2694 813 2131 
Q 813 1568 1209 1165 
Q 1606 762 2214 762 
Q 2944 762 3443 1376 
L 3853 1094 
z
" transform="scale(0.015625)"/>
      <path id="STHeitiSC-Medium-43" d="M 3917 384 
L 3398 384 
L 3398 896 
Q 2829 269 2086 269 
Q 1344 269 816 816 
Q 288 1363 288 2121 
Q 288 2880 819 3421 
Q 1350 3962 2115 3962 
Q 2880 3962 3398 3341 
L 3398 3872 
L 3917 3872 
L 3917 384 
z
M 2125 762 
Q 2656 762 3040 1146 
Q 3424 1530 3424 2102 
Q 3424 2675 3046 3062 
Q 2669 3450 2121 3450 
Q 1574 3450 1196 3050 
Q 819 2650 819 2106 
Q 819 1562 1203 1162 
Q 1587 762 2125 762 
z
" transform="scale(0.015625)"/>
      <path id="STHeitiSC-Medium-55" d="M 2259 3462 
L 1920 3110 
Q 1542 3462 1229 3462 
Q 1030 3462 896 3337 
Q 762 3213 762 3030 
Q 762 2848 912 2710 
Q 1062 2573 1446 2371 
Q 1830 2170 2038 1926 
Q 2246 1683 2246 1331 
Q 2246 883 1936 576 
Q 1626 269 1171 269 
Q 538 269 115 806 
L 448 1178 
Q 794 774 1152 774 
Q 1395 774 1568 934 
Q 1741 1094 1741 1308 
Q 1741 1523 1584 1667 
Q 1427 1811 1046 2003 
Q 666 2195 470 2428 
Q 275 2662 275 3043 
Q 275 3424 553 3693 
Q 832 3962 1289 3962 
Q 1747 3962 2259 3462 
z
" transform="scale(0.015625)"/>
      <path id="STHeitiSC-Medium-5c" d="M 2714 3872 
L 934 864 
L 2688 864 
L 2688 384 
L 13 384 
L 1792 3398 
L 166 3398 
L 166 3872 
L 2714 3872 
z
" transform="scale(0.015625)"/>
      <path id="STHeitiSC-Medium-e" d="M 1408 1414 
L 736 154 
L 346 320 
L 902 1658 
L 1408 1414 
z
" transform="scale(0.015625)"/>
      <path id="STHeitiSC-Medium-3f" d="M 1382 -672 
L 243 -672 
L 243 -154 
L 858 -154 
L 858 4838 
L 243 4838 
L 243 5370 
L 1382 5370 
L 1382 -672 
z
" transform="scale(0.015625)"/>
     </defs>
     <use xlink:href="#STHeitiSC-Medium-47"/>
     <use xlink:href="#STHeitiSC-Medium-4f" transform="translate(65 0)"/>
     <use xlink:href="#STHeitiSC-Medium-44" transform="translate(158.796875 0)"/>
     <use xlink:href="#STHeitiSC-Medium-47" transform="translate(227 0)"/>
     <use xlink:href="#STHeitiSC-Medium-46" transform="translate(292 0)"/>
     <use xlink:href="#STHeitiSC-Medium-46" transform="translate(360.5 0)"/>
     <use xlink:href="#STHeitiSC-Medium-4b" transform="translate(429 0)"/>
     <use xlink:href="#STHeitiSC-Medium-50" transform="translate(449 0)"/>
     <use xlink:href="#STHeitiSC-Medium-49" transform="translate(510 0)"/>
     <use xlink:href="#STHeitiSC-Medium-41" transform="translate(577.296875 0)"/>
     <use xlink:href="#STHeitiSC-Medium-59" transform="translate(627.296875 0)"/>
     <use xlink:href="#STHeitiSC-Medium-47" transform="translate(710.390625 0)"/>
     <use xlink:href="#STHeitiSC-Medium-4b" transform="translate(775.390625 0)"/>
     <use xlink:href="#STHeitiSC-Medium-49" transform="translate(795.390625 0)"/>
     <use xlink:href="#STHeitiSC-Medium-4a" transform="translate(862.6875 0)"/>
     <use xlink:href="#STHeitiSC-Medium-56" transform="translate(923.6875 0)"/>
     <use xlink:href="#STHeitiSC-Medium-1c" transform="translate(957.59375 0)"/>
     <use xlink:href="#STHeitiSC-Medium-3" transform="translate(985.296875 0)"/>
     <use xlink:href="#STHeitiSC-Medium-3d" transform="translate(1010.296875 0)"/>
     <use xlink:href="#STHeitiSC-Medium-58" transform="translate(1045.390625 0)"/>
     <use xlink:href="#STHeitiSC-Medium-51" transform="translate(1100.796875 0)"/>
     <use xlink:href="#STHeitiSC-Medium-45" transform="translate(1166.296875 0)"/>
     <use xlink:href="#STHeitiSC-Medium-43" transform="translate(1231 0)"/>
     <use xlink:href="#STHeitiSC-Medium-44" transform="translate(1299.296875 0)"/>
     <use xlink:href="#STHeitiSC-Medium-41" transform="translate(1367.5 0)"/>
     <use xlink:href="#STHeitiSC-Medium-55" transform="translate(1417.5 0)"/>
     <use xlink:href="#STHeitiSC-Medium-4b" transform="translate(1456.296875 0)"/>
     <use xlink:href="#STHeitiSC-Medium-5c" transform="translate(1476.296875 0)"/>
     <use xlink:href="#STHeitiSC-Medium-47" transform="translate(1518.796875 0)"/>
     <use xlink:href="#STHeitiSC-Medium-e" transform="translate(1583.796875 0)"/>
     <use xlink:href="#STHeitiSC-Medium-3" transform="translate(1611.5 0)"/>
     <use xlink:href="#STHeitiSC-Medium-4a" transform="translate(1636.5 0)"/>
     <use xlink:href="#STHeitiSC-Medium-4b" transform="translate(1697.5 0)"/>
     <use xlink:href="#STHeitiSC-Medium-46" transform="translate(1717.5 0)"/>
     <use xlink:href="#STHeitiSC-Medium-46" transform="translate(1786 0)"/>
     <use xlink:href="#STHeitiSC-Medium-47" transform="translate(1854.5 0)"/>
     <use xlink:href="#STHeitiSC-Medium-50" transform="translate(1919.5 0)"/>
     <use xlink:href="#STHeitiSC-Medium-41" transform="translate(1980.5 0)"/>
     <use xlink:href="#STHeitiSC-Medium-55" transform="translate(2030.5 0)"/>
     <use xlink:href="#STHeitiSC-Medium-4b" transform="translate(2069.296875 0)"/>
     <use xlink:href="#STHeitiSC-Medium-5c" transform="translate(2089.296875 0)"/>
     <use xlink:href="#STHeitiSC-Medium-47" transform="translate(2131.796875 0)"/>
     <use xlink:href="#STHeitiSC-Medium-3f" transform="translate(2196.796875 0)"/>
    </g>
   </g>
   <g id="text_2">
    <!-- 词表维度 -->
    <g style="fill: #424242" transform="translate(141.655156 298.32) rotate(-90) scale(0.1 -0.1)">
     <defs>
      <path id="STHeitiSC-Medium-80d" d="M 3194 653 
L 3194 51 
L 2618 51 
Q 2662 256 2678 483 
Q 2694 710 2694 954 
L 2694 1869 
Q 2694 2054 2681 2252 
Q 2669 2451 2650 2560 
Q 2726 2547 2816 2537 
Q 2906 2528 3024 2525 
Q 3142 2522 3302 2518 
Q 3462 2515 3680 2515 
Q 3891 2515 4038 2515 
Q 4186 2515 4291 2521 
Q 4397 2528 4470 2537 
Q 4544 2547 4614 2560 
Q 4589 2458 4573 2269 
Q 4557 2080 4557 1875 
L 4557 1062 
Q 4557 998 4560 905 
Q 4563 813 4572 713 
Q 4582 614 4592 515 
Q 4602 416 4614 333 
L 4058 333 
L 4058 653 
L 3194 653 
z
M 4058 1062 
L 4058 2054 
L 3194 2054 
L 3194 1062 
L 4058 1062 
z
M 1728 -32 
Q 1658 -102 1600 -163 
Q 1542 -224 1494 -285 
Q 1446 -346 1398 -413 
Q 1350 -480 1293 -563 
Q 1203 -397 1110 -269 
Q 1018 -141 902 -32 
Q 1075 134 1148 355 
Q 1222 576 1222 826 
L 1222 2778 
Q 915 2778 742 2768 
Q 570 2758 448 2739 
L 448 3334 
Q 582 3302 736 3292 
Q 890 3283 1107 3283 
Q 1325 3283 1497 3292 
Q 1670 3302 1811 3334 
Q 1779 3174 1763 2969 
Q 1747 2765 1747 2534 
L 1747 627 
Q 1914 794 2045 931 
Q 2176 1069 2298 1216 
Q 2330 1030 2374 921 
Q 2419 813 2502 736 
L 1728 -32 
z
M 5946 4762 
Q 5933 4685 5929 4614 
Q 5926 4544 5920 4461 
Q 5914 4378 5914 4269 
Q 5914 4160 5914 4006 
L 5914 64 
Q 5914 -128 5885 -253 
Q 5856 -378 5747 -454 
Q 5638 -531 5427 -582 
Q 5216 -634 4845 -678 
Q 4845 -506 4774 -304 
Q 4704 -102 4557 70 
Q 4819 38 4976 25 
Q 5133 13 5216 29 
Q 5299 45 5324 93 
Q 5350 141 5350 237 
L 5350 4250 
L 4000 4250 
Q 3776 4250 3593 4243 
Q 3411 4237 3244 4227 
Q 3078 4218 2921 4202 
Q 2765 4186 2598 4160 
L 2598 4742 
Q 2752 4730 2889 4720 
Q 3027 4710 3196 4707 
Q 3366 4704 3577 4704 
Q 3789 4704 4090 4704 
Q 4467 4704 4736 4707 
Q 5005 4710 5209 4713 
Q 5414 4717 5587 4729 
Q 5760 4742 5946 4762 
z
M 4915 3046 
Q 4781 3059 4665 3068 
Q 4550 3078 4422 3081 
Q 4294 3085 4124 3088 
Q 3955 3091 3712 3091 
Q 3475 3091 3302 3088 
Q 3130 3085 2986 3081 
Q 2842 3078 2701 3068 
Q 2560 3059 2387 3046 
L 2387 3616 
Q 2566 3603 2710 3590 
Q 2854 3578 3004 3571 
Q 3155 3565 3321 3561 
Q 3488 3558 3712 3558 
Q 3949 3558 4115 3561 
Q 4282 3565 4413 3568 
Q 4544 3571 4659 3584 
Q 4774 3597 4915 3616 
L 4915 3046 
z
M 1517 3866 
Q 1370 4154 1229 4390 
Q 1088 4627 947 4819 
L 1472 5126 
Q 1619 4922 1766 4691 
Q 1914 4461 2080 4192 
L 1517 3866 
z
" transform="scale(0.015625)"/>
      <path id="STHeitiSC-Medium-22a" d="M 4077 992 
Q 4403 1190 4684 1411 
Q 4966 1632 5114 1824 
Q 5158 1792 5232 1741 
Q 5306 1690 5379 1632 
Q 5453 1574 5513 1526 
Q 5574 1478 5600 1459 
Q 5664 1402 5648 1379 
Q 5632 1357 5542 1344 
Q 5504 1338 5433 1315 
Q 5363 1293 5228 1225 
Q 5094 1158 4876 1043 
Q 4659 928 4320 736 
Q 4480 602 4691 483 
Q 4902 365 5142 269 
Q 5382 173 5638 105 
Q 5894 38 6138 13 
Q 5965 -122 5837 -301 
Q 5709 -480 5683 -595 
Q 5133 -442 4681 -157 
Q 4230 128 3866 525 
Q 3776 614 3680 752 
Q 3584 890 3485 1046 
Q 3386 1203 3290 1376 
Q 3194 1549 3104 1715 
L 3552 1946 
Q 3642 1741 3766 1504 
Q 3891 1267 4077 992 
z
M 2912 3987 
Q 2496 3987 2166 3984 
Q 1837 3981 1561 3974 
Q 1286 3968 1049 3958 
Q 813 3949 589 3936 
L 589 4461 
Q 819 4448 1059 4438 
Q 1299 4429 1571 4425 
Q 1843 4422 2169 4419 
Q 2496 4416 2912 4416 
Q 2906 4672 2893 4861 
Q 2880 5050 2867 5152 
Q 2938 5139 3037 5129 
Q 3136 5120 3229 5110 
Q 3322 5101 3395 5097 
Q 3469 5094 3501 5094 
Q 3603 5101 3612 5078 
Q 3622 5056 3539 4986 
Q 3494 4947 3462 4835 
Q 3430 4723 3430 4653 
L 3430 4416 
Q 3859 4416 4201 4419 
Q 4544 4422 4822 4425 
Q 5101 4429 5328 4438 
Q 5555 4448 5766 4461 
L 5766 3936 
Q 5344 3962 4765 3971 
Q 4186 3981 3430 3987 
L 3430 3456 
Q 3789 3456 4057 3459 
Q 4326 3462 4547 3468 
Q 4768 3475 4960 3488 
Q 5152 3501 5363 3514 
L 5363 3014 
Q 5152 3027 4960 3036 
Q 4768 3046 4547 3049 
Q 4326 3053 4057 3056 
Q 3789 3059 3430 3059 
L 3430 2554 
Q 3968 2554 4320 2557 
Q 4672 2560 4934 2566 
Q 5197 2573 5433 2582 
Q 5670 2592 5978 2611 
L 5978 2106 
Q 5638 2118 5392 2128 
Q 5146 2138 4867 2141 
Q 4589 2144 4211 2147 
Q 3834 2150 3226 2150 
Q 3066 1926 2838 1683 
Q 2611 1440 2323 1203 
L 2323 -64 
Q 2445 -51 2601 -3 
Q 2758 45 2918 105 
Q 3078 166 3225 240 
Q 3373 314 3482 378 
Q 3482 237 3494 96 
Q 3507 -45 3526 -154 
Q 2918 -346 2528 -493 
Q 2138 -640 1869 -806 
Q 1818 -678 1754 -560 
Q 1690 -442 1581 -314 
Q 1728 -262 1779 -172 
Q 1830 -83 1830 115 
L 1830 832 
Q 1498 608 1174 435 
Q 851 262 627 173 
Q 544 378 464 499 
Q 384 621 262 723 
Q 557 768 873 893 
Q 1190 1018 1497 1203 
Q 1805 1389 2086 1629 
Q 2368 1869 2598 2150 
Q 2118 2150 1811 2147 
Q 1504 2144 1277 2141 
Q 1050 2138 848 2128 
Q 646 2118 371 2106 
L 371 2611 
Q 570 2598 730 2588 
Q 890 2579 1040 2572 
Q 1190 2566 1356 2563 
Q 1523 2560 1737 2557 
Q 1952 2554 2237 2554 
Q 2522 2554 2912 2554 
L 2912 3059 
Q 2566 3059 2297 3056 
Q 2029 3053 1805 3049 
Q 1581 3046 1382 3036 
Q 1184 3027 979 3014 
L 979 3514 
Q 1190 3501 1385 3488 
Q 1581 3475 1805 3468 
Q 2029 3462 2297 3459 
Q 2566 3456 2912 3456 
L 2912 3987 
z
" transform="scale(0.015625)"/>
      <path id="STHeitiSC-Medium-3ac" d="M 2630 666 
Q 2579 499 2566 368 
Q 2554 237 2566 128 
Q 2125 38 1811 -32 
Q 1498 -102 1277 -160 
Q 1056 -218 909 -266 
Q 762 -314 640 -358 
Q 608 -198 550 -25 
Q 493 147 416 314 
Q 653 320 886 342 
Q 1120 365 1382 406 
Q 1645 448 1949 512 
Q 2253 576 2630 666 
z
M 4506 4160 
Q 4442 4346 4346 4544 
Q 4250 4742 4141 4896 
L 4659 5107 
Q 4800 4781 5043 4397 
L 4506 4160 
z
M 1741 3174 
Q 1869 3443 1942 3622 
Q 2016 3802 2061 3917 
Q 2170 3834 2310 3779 
Q 2451 3725 2554 3712 
Q 2630 3699 2630 3670 
Q 2630 3642 2547 3597 
Q 2515 3584 2464 3510 
Q 2413 3437 2291 3225 
Q 2170 3014 1958 2620 
Q 1747 2227 1402 1574 
Q 1638 1600 1900 1632 
Q 2163 1664 2426 1709 
Q 2323 1421 2330 1184 
L 1325 1082 
Q 1197 1069 1037 1040 
Q 877 1011 774 979 
Q 736 1267 595 1504 
Q 685 1542 781 1612 
Q 877 1683 989 1824 
Q 1101 1965 1235 2189 
Q 1370 2413 1542 2765 
Q 1229 2752 992 2713 
Q 755 2675 602 2624 
Q 531 2931 416 3110 
Q 525 3181 637 3305 
Q 749 3430 870 3657 
Q 992 3885 1120 4240 
Q 1248 4595 1395 5120 
Q 1658 4960 1971 4902 
Q 2144 4864 1990 4774 
Q 1965 4762 1926 4714 
Q 1888 4666 1798 4502 
Q 1709 4339 1539 4019 
Q 1370 3699 1082 3136 
L 1741 3174 
z
M 3334 1606 
L 4186 1606 
L 4186 2426 
L 3334 2426 
L 3334 1606 
z
M 3334 2842 
L 4186 2842 
L 4186 3578 
L 3334 3578 
L 3334 2842 
z
M 3334 -691 
L 2797 -691 
Q 2835 -422 2851 -92 
Q 2867 237 2867 685 
L 2867 2842 
Q 2797 2726 2726 2604 
Q 2656 2483 2586 2368 
Q 2458 2541 2240 2720 
Q 2451 2989 2636 3347 
Q 2822 3706 2970 4083 
Q 3059 4307 3132 4601 
Q 3206 4896 3245 5165 
Q 3386 5107 3555 5062 
Q 3725 5018 3827 5005 
Q 3930 4992 3939 4944 
Q 3949 4896 3840 4838 
Q 3821 4826 3792 4787 
Q 3763 4749 3718 4656 
Q 3674 4563 3600 4412 
Q 3526 4262 3424 4026 
L 4474 4026 
Q 4838 4026 5078 4029 
Q 5318 4032 5475 4035 
Q 5632 4038 5725 4044 
Q 5818 4051 5875 4058 
L 5875 3546 
Q 5818 3552 5738 3558 
Q 5658 3565 5520 3568 
Q 5382 3571 5177 3574 
Q 4973 3578 4666 3578 
L 4666 2842 
Q 4909 2842 5075 2845 
Q 5242 2848 5357 2854 
Q 5472 2861 5542 2867 
Q 5613 2874 5664 2880 
L 5664 2394 
Q 5613 2400 5542 2406 
Q 5472 2413 5357 2416 
Q 5242 2419 5075 2419 
Q 4909 2419 4666 2419 
L 4666 1606 
Q 4902 1606 5068 1609 
Q 5235 1613 5347 1616 
Q 5459 1619 5529 1625 
Q 5600 1632 5651 1638 
L 5651 1152 
Q 5600 1158 5529 1164 
Q 5459 1171 5347 1174 
Q 5235 1178 5068 1181 
Q 4902 1184 4666 1184 
L 4666 320 
Q 5005 320 5232 323 
Q 5459 326 5606 329 
Q 5754 333 5840 339 
Q 5926 346 5984 352 
L 5984 -166 
Q 5920 -160 5830 -153 
Q 5741 -147 5587 -144 
Q 5434 -141 5190 -137 
Q 4947 -134 4582 -134 
L 3334 -134 
L 3334 -691 
z
M 3334 320 
L 4186 320 
L 4186 1184 
L 3334 1184 
L 3334 320 
z
" transform="scale(0.015625)"/>
      <path id="STHeitiSC-Medium-287" d="M 2982 2458 
L 4269 2458 
L 4269 3008 
L 2982 3008 
L 2982 2458 
z
M 2522 3366 
Q 2515 3552 2505 3693 
Q 2496 3834 2464 3923 
Q 2592 3891 2758 3872 
Q 2925 3853 3040 3866 
Q 3142 3878 3059 3782 
Q 2989 3706 2982 3366 
L 4269 3366 
Q 4269 3603 4262 3737 
Q 4256 3872 4230 3981 
Q 4397 3930 4557 3917 
Q 4717 3904 4806 3917 
Q 4922 3936 4838 3846 
Q 4774 3776 4768 3366 
Q 5190 3373 5446 3385 
Q 5702 3398 5888 3418 
L 5888 2950 
Q 5702 2970 5436 2986 
Q 5171 3002 4768 3008 
L 4768 2682 
Q 4768 2483 4774 2339 
Q 4781 2195 4813 2022 
Q 4736 2035 4649 2044 
Q 4563 2054 4435 2060 
Q 4307 2067 4115 2070 
Q 3923 2074 3648 2074 
Q 3379 2074 3193 2070 
Q 3008 2067 2873 2060 
Q 2739 2054 2646 2044 
Q 2554 2035 2477 2022 
Q 2490 2106 2499 2176 
Q 2509 2246 2512 2316 
Q 2515 2387 2518 2464 
Q 2522 2541 2522 2643 
L 2522 3002 
Q 2253 2995 2080 2982 
Q 1907 2970 1773 2950 
L 1773 3418 
Q 1914 3398 2083 3385 
Q 2253 3373 2522 3366 
z
M 3661 4493 
Q 4134 4493 4483 4499 
Q 4832 4506 5081 4512 
Q 5331 4518 5497 4528 
Q 5664 4538 5779 4550 
L 5779 4026 
Q 5504 4051 5145 4067 
Q 4787 4083 4275 4083 
L 1510 4083 
Q 1555 3130 1532 2406 
Q 1510 1683 1424 1123 
Q 1338 563 1194 140 
Q 1050 -282 858 -621 
Q 730 -493 602 -393 
Q 474 -294 326 -224 
Q 544 90 701 502 
Q 858 915 938 1481 
Q 1018 2048 1018 2800 
Q 1018 3552 934 4550 
Q 1069 4538 1241 4528 
Q 1414 4518 1657 4512 
Q 1901 4506 2243 4499 
Q 2586 4493 3059 4493 
Q 3027 4634 2976 4765 
Q 2925 4896 2854 5037 
L 3437 5146 
Q 3482 5005 3539 4832 
Q 3597 4659 3661 4493 
z
M 2880 1325 
Q 3008 1082 3200 874 
Q 3392 666 3622 518 
Q 3878 685 4080 883 
Q 4282 1082 4435 1325 
L 2880 1325 
z
M 2336 1318 
Q 2214 1306 2086 1299 
Q 1958 1293 1843 1280 
L 1843 1760 
Q 2010 1747 2224 1734 
Q 2438 1722 2675 1715 
Q 2912 1709 3161 1705 
Q 3411 1702 3642 1702 
Q 4102 1702 4521 1715 
Q 4941 1728 5267 1760 
Q 5139 1510 5014 1305 
Q 4890 1101 4749 925 
Q 4608 749 4448 595 
Q 4288 442 4090 301 
Q 4525 134 4992 67 
Q 5459 0 6067 26 
Q 5952 -109 5878 -265 
Q 5805 -422 5779 -621 
Q 5178 -557 4643 -413 
Q 4109 -269 3629 0 
Q 3328 -173 2877 -342 
Q 2426 -512 1869 -646 
Q 1830 -538 1728 -390 
Q 1626 -243 1459 -90 
Q 1664 -83 1891 -48 
Q 2118 -13 2345 38 
Q 2573 90 2784 157 
Q 2995 224 3168 294 
Q 3066 371 2950 489 
Q 2835 608 2723 745 
Q 2611 883 2508 1033 
Q 2406 1184 2336 1318 
z
" transform="scale(0.015625)"/>
     </defs>
     <use xlink:href="#STHeitiSC-Medium-80d"/>
     <use xlink:href="#STHeitiSC-Medium-22a" transform="translate(100 0)"/>
     <use xlink:href="#STHeitiSC-Medium-3ac" transform="translate(200 0)"/>
     <use xlink:href="#STHeitiSC-Medium-287" transform="translate(300 0)"/>
    </g>
    <!-- (按行切分) -->
    <g style="fill: #424242" transform="translate(152.384844 302.010625) rotate(-90) scale(0.1 -0.1)">
     <defs>
      <path id="STHeitiSC-Medium-a" d="M 2048 5779 
Q 1709 5082 1526 4237 
Q 1344 3392 1344 2541 
Q 1344 877 1888 -442 
L 1312 -442 
Q 787 819 787 2483 
Q 787 4275 1440 5779 
L 2048 5779 
z
" transform="scale(0.015625)"/>
      <path id="STHeitiSC-Medium-70d" d="M 1254 3322 
Q 762 3309 493 3264 
L 493 3808 
Q 627 3782 819 3769 
Q 1011 3757 1254 3757 
Q 1254 4307 1235 4630 
Q 1216 4954 1184 5120 
Q 1338 5088 1494 5078 
Q 1651 5069 1754 5075 
Q 2010 5088 1850 4915 
Q 1734 4794 1734 4416 
L 1734 3757 
Q 1920 3763 2064 3772 
Q 2208 3782 2330 3808 
L 2330 3264 
Q 2208 3283 2064 3296 
Q 1920 3309 1734 3315 
L 1734 2214 
Q 2016 2349 2304 2509 
Q 2221 2176 2330 1990 
Q 2208 1939 2057 1875 
Q 1907 1811 1734 1734 
L 1734 154 
Q 1734 -64 1686 -214 
Q 1638 -365 1523 -457 
Q 1408 -550 1216 -595 
Q 1024 -640 736 -646 
Q 723 -493 675 -326 
Q 627 -160 512 26 
Q 749 -26 896 -35 
Q 1043 -45 1123 -9 
Q 1203 26 1228 109 
Q 1254 192 1254 320 
L 1254 1523 
Q 1018 1414 806 1305 
Q 595 1197 454 1107 
Q 435 1254 390 1408 
Q 346 1562 288 1690 
Q 800 1830 1254 2003 
L 1254 3322 
z
M 4710 691 
Q 5158 461 5500 256 
Q 5843 51 6112 -141 
Q 5984 -250 5897 -362 
Q 5811 -474 5741 -627 
Q 5402 -352 5085 -125 
Q 4768 102 4403 314 
Q 4256 179 4051 41 
Q 3846 -96 3593 -221 
Q 3341 -346 3056 -451 
Q 2771 -557 2477 -634 
Q 2438 -486 2352 -326 
Q 2266 -166 2157 -64 
Q 2688 -19 3161 153 
Q 3635 326 3936 563 
Q 3706 685 3437 809 
Q 3168 934 2848 1075 
Q 2976 1261 3120 1520 
Q 3264 1779 3373 1997 
Q 3136 1997 2909 1984 
Q 2682 1971 2483 1952 
L 2483 2464 
Q 2707 2432 2953 2419 
Q 3200 2406 3546 2406 
Q 3674 2714 3744 2944 
Q 3814 3174 3866 3418 
Q 4038 3360 4182 3325 
Q 4326 3290 4442 3270 
Q 4544 3251 4547 3219 
Q 4550 3187 4461 3117 
Q 4429 3091 4317 2899 
Q 4205 2707 4058 2406 
L 5069 2406 
Q 5338 2406 5584 2419 
Q 5830 2432 6093 2464 
L 6093 1952 
Q 5907 1971 5715 1984 
Q 5523 1997 5293 1997 
Q 5210 1760 5139 1571 
Q 5069 1382 5001 1225 
Q 4934 1069 4864 937 
Q 4794 806 4710 691 
z
M 3846 1997 
Q 3757 1824 3667 1641 
Q 3578 1459 3488 1280 
Q 3699 1184 3891 1094 
Q 4083 1005 4262 915 
Q 4339 1011 4400 1113 
Q 4461 1216 4515 1344 
Q 4570 1472 4624 1629 
Q 4678 1786 4736 1997 
L 3846 1997 
z
M 4275 4141 
Q 4608 4141 4851 4144 
Q 5094 4147 5283 4153 
Q 5472 4160 5625 4169 
Q 5779 4179 5946 4192 
L 5946 3027 
L 5402 3027 
L 5402 3718 
L 3053 3718 
L 3053 3002 
L 2547 3002 
L 2547 4192 
Q 2682 4179 2845 4169 
Q 3008 4160 3216 4153 
Q 3424 4147 3683 4144 
Q 3942 4141 4275 4141 
z
M 4320 5203 
Q 4371 5011 4444 4806 
Q 4518 4602 4582 4454 
L 4026 4243 
Q 3981 4448 3910 4646 
Q 3840 4845 3757 5005 
L 4320 5203 
z
" transform="scale(0.015625)"/>
      <path id="STHeitiSC-Medium-1c4" d="M 2266 4749 
Q 2355 4710 2348 4672 
Q 2342 4634 2253 4614 
Q 2221 4608 2176 4582 
Q 2131 4557 2064 4499 
Q 1997 4442 1904 4339 
Q 1811 4237 1683 4083 
Q 1626 4013 1523 3904 
Q 1421 3795 1299 3673 
Q 1178 3552 1050 3433 
Q 922 3315 826 3226 
Q 755 3334 649 3427 
Q 544 3520 435 3584 
Q 678 3750 873 3955 
Q 1069 4160 1254 4416 
Q 1421 4627 1526 4800 
Q 1632 4973 1702 5120 
Q 1760 5069 1833 5014 
Q 1907 4960 1987 4909 
Q 2067 4858 2140 4813 
Q 2214 4768 2266 4749 
z
M 5683 4096 
Q 5440 4128 5120 4141 
Q 4800 4154 4358 4154 
Q 3917 4154 3593 4141 
Q 3270 4128 3027 4096 
L 3027 4685 
Q 3270 4653 3593 4643 
Q 3917 4634 4358 4634 
Q 4800 4634 5120 4643 
Q 5440 4653 5683 4685 
L 5683 4096 
z
M 4960 64 
Q 4960 -122 4918 -250 
Q 4877 -378 4742 -461 
Q 4608 -544 4361 -585 
Q 4115 -627 3706 -646 
Q 3693 -493 3622 -339 
Q 3552 -186 3405 26 
Q 3712 -13 3907 -9 
Q 4102 -6 4211 29 
Q 4320 64 4361 125 
Q 4403 186 4403 262 
L 4403 2509 
Q 3795 2509 3385 2493 
Q 2976 2477 2656 2451 
L 2656 3040 
Q 2816 3027 2998 3017 
Q 3181 3008 3392 3001 
Q 3603 2995 3856 2992 
Q 4109 2989 4410 2989 
Q 4710 2989 4950 2992 
Q 5190 2995 5388 3001 
Q 5587 3008 5756 3017 
Q 5926 3027 6093 3040 
L 6093 2451 
Q 5843 2477 5580 2486 
Q 5318 2496 4960 2502 
L 4960 64 
z
M 1773 -640 
L 1184 -640 
Q 1216 -371 1229 -131 
Q 1242 109 1242 390 
L 1242 1830 
Q 1101 1670 957 1516 
Q 813 1363 678 1216 
Q 570 1466 307 1696 
Q 570 1894 842 2172 
Q 1114 2451 1318 2752 
Q 1498 3014 1626 3222 
Q 1754 3430 1850 3635 
Q 1907 3590 1977 3539 
Q 2048 3488 2121 3440 
Q 2195 3392 2265 3350 
Q 2336 3309 2387 3283 
Q 2470 3238 2467 3203 
Q 2464 3168 2374 3149 
Q 2336 3136 2173 2979 
Q 2010 2822 1773 2496 
L 1773 -640 
z
" transform="scale(0.015625)"/>
      <path id="STHeitiSC-Medium-41e" d="M 3750 4077 
Q 3616 4077 3475 4073 
Q 3334 4070 3206 4064 
Q 3078 4058 2966 4051 
Q 2854 4045 2790 4038 
L 2790 4608 
Q 2989 4595 3369 4582 
Q 3750 4570 4352 4570 
Q 4954 4570 5315 4579 
Q 5677 4589 5920 4608 
L 5690 461 
Q 5677 198 5632 22 
Q 5587 -154 5459 -269 
Q 5331 -384 5097 -454 
Q 4864 -525 4467 -576 
Q 4442 -410 4368 -243 
Q 4294 -77 4186 96 
Q 4493 83 4672 92 
Q 4851 102 4950 163 
Q 5050 224 5085 339 
Q 5120 454 5133 653 
L 5344 4077 
L 4314 4077 
Q 4301 3398 4272 2870 
Q 4243 2342 4172 1920 
Q 4102 1498 3980 1158 
Q 3859 819 3670 521 
Q 3482 224 3206 -61 
Q 2931 -346 2560 -653 
Q 2464 -570 2323 -496 
Q 2182 -422 1952 -346 
Q 2362 -64 2653 185 
Q 2944 435 3139 700 
Q 3334 966 3449 1270 
Q 3565 1574 3629 1971 
Q 3693 2368 3715 2880 
Q 3738 3392 3750 4077 
z
M 1248 2803 
Q 1043 2778 844 2749 
Q 646 2720 531 2688 
L 480 3277 
Q 614 3264 822 3273 
Q 1030 3283 1248 3296 
L 1248 3834 
Q 1248 4013 1248 4147 
Q 1248 4282 1245 4387 
Q 1242 4493 1235 4573 
Q 1229 4653 1222 4723 
Q 1376 4691 1533 4678 
Q 1690 4666 1837 4678 
Q 1933 4685 1949 4649 
Q 1965 4614 1901 4563 
Q 1773 4467 1773 4352 
L 1773 3341 
Q 2042 3373 2282 3405 
Q 2522 3437 2669 3469 
L 2720 2880 
Q 2554 2886 2307 2873 
Q 2061 2861 1773 2842 
L 1773 954 
Q 2016 1158 2259 1376 
Q 2502 1594 2637 1754 
Q 2669 1587 2720 1462 
Q 2771 1338 2861 1235 
L 1888 390 
Q 1779 294 1670 176 
Q 1562 58 1485 -45 
Q 1402 64 1277 198 
Q 1152 333 1043 435 
Q 1114 499 1155 550 
Q 1197 602 1216 666 
Q 1235 730 1241 826 
Q 1248 922 1248 1082 
L 1248 2803 
z
" transform="scale(0.015625)"/>
      <path id="STHeitiSC-Medium-153" d="M 2886 4659 
Q 2758 4608 2691 4531 
Q 2624 4454 2547 4282 
Q 2426 4019 2227 3705 
Q 2029 3392 1792 3072 
Q 1555 2752 1289 2451 
Q 1024 2150 768 1907 
Q 678 2029 544 2144 
Q 410 2259 269 2349 
Q 768 2694 1136 3129 
Q 1504 3565 1747 3987 
Q 1914 4282 2026 4531 
Q 2138 4781 2227 5030 
Q 2304 4992 2393 4950 
Q 2483 4909 2576 4877 
Q 2669 4845 2749 4822 
Q 2829 4800 2880 4794 
Q 2957 4781 2963 4736 
Q 2970 4691 2886 4659 
z
M 6131 2720 
Q 5875 2490 5658 2086 
Q 4794 2688 4294 3347 
Q 4077 3635 3888 4080 
Q 3699 4525 3571 5011 
L 4109 5120 
Q 4237 4640 4403 4269 
Q 4570 3898 4768 3674 
Q 5107 3302 5430 3088 
Q 5754 2874 6131 2720 
z
M 2381 2074 
Q 2227 2074 2108 2070 
Q 1990 2067 1894 2064 
Q 1798 2061 1712 2051 
Q 1626 2042 1523 2029 
L 1523 2624 
Q 1677 2598 2013 2585 
Q 2349 2573 2854 2573 
Q 3155 2573 3481 2576 
Q 3808 2579 4096 2582 
Q 4384 2586 4614 2589 
Q 4845 2592 4954 2598 
L 4736 109 
Q 4717 -90 4659 -218 
Q 4602 -346 4470 -432 
Q 4339 -518 4121 -576 
Q 3904 -634 3565 -678 
Q 3533 -506 3462 -330 
Q 3392 -154 3270 6 
Q 3539 -19 3712 -12 
Q 3885 -6 3990 58 
Q 4096 122 4147 250 
Q 4198 378 4218 589 
L 4346 2074 
L 2912 2074 
Q 2880 1632 2768 1235 
Q 2656 838 2470 563 
Q 2317 339 2173 163 
Q 2029 -13 1875 -157 
Q 1722 -301 1549 -422 
Q 1376 -544 1165 -666 
Q 1056 -538 902 -426 
Q 749 -314 576 -243 
Q 1107 -26 1456 249 
Q 1805 525 1958 768 
Q 2144 1062 2246 1363 
Q 2349 1664 2381 2074 
z
" transform="scale(0.015625)"/>
      <path id="STHeitiSC-Medium-b" d="M 922 5779 
Q 1574 4275 1574 2483 
Q 1574 819 1050 -442 
L 474 -442 
Q 1018 877 1018 2541 
Q 1018 3392 835 4237 
Q 653 5082 314 5779 
L 922 5779 
z
" transform="scale(0.015625)"/>
     </defs>
     <use xlink:href="#STHeitiSC-Medium-a"/>
     <use xlink:href="#STHeitiSC-Medium-70d" transform="translate(36.90625 0)"/>
     <use xlink:href="#STHeitiSC-Medium-1c4" transform="translate(136.90625 0)"/>
     <use xlink:href="#STHeitiSC-Medium-41e" transform="translate(236.90625 0)"/>
     <use xlink:href="#STHeitiSC-Medium-153" transform="translate(336.90625 0)"/>
     <use xlink:href="#STHeitiSC-Medium-b" transform="translate(436.90625 0)"/>
    </g>
   </g>
   <g id="text_3">
    <!-- hidden_size -->
    <g style="fill: #424242" transform="translate(268.305156 473.18) scale(0.1 -0.1)">
     <use xlink:href="#STHeitiSC-Medium-4a"/>
     <use xlink:href="#STHeitiSC-Medium-4b" transform="translate(61 0)"/>
     <use xlink:href="#STHeitiSC-Medium-46" transform="translate(81 0)"/>
     <use xlink:href="#STHeitiSC-Medium-46" transform="translate(149.5 0)"/>
     <use xlink:href="#STHeitiSC-Medium-47" transform="translate(218 0)"/>
     <use xlink:href="#STHeitiSC-Medium-50" transform="translate(283 0)"/>
     <use xlink:href="#STHeitiSC-Medium-41" transform="translate(344 0)"/>
     <use xlink:href="#STHeitiSC-Medium-55" transform="translate(394 0)"/>
     <use xlink:href="#STHeitiSC-Medium-4b" transform="translate(432.796875 0)"/>
     <use xlink:href="#STHeitiSC-Medium-5c" transform="translate(452.796875 0)"/>
     <use xlink:href="#STHeitiSC-Medium-47" transform="translate(495.296875 0)"/>
    </g>
   </g>
   <g id="text_4">
    <!-- GPU 0    词表行 [0:4) -->
    <g style="fill: #424242" transform="translate(490.92 165.374844) scale(0.1 -0.1)">
     <defs>
      <path id="STHeitiSC-Medium-29" d="M 5325 2675 
Q 5306 1536 4662 902 
Q 4019 269 2970 269 
Q 1766 269 1049 1008 
Q 333 1747 333 2739 
Q 333 3731 1049 4457 
Q 1766 5184 2899 5184 
Q 3514 5184 4042 4957 
Q 4570 4730 5075 4262 
L 4653 3859 
Q 4262 4237 3808 4438 
Q 3354 4640 2874 4640 
Q 2394 4640 1920 4384 
Q 1446 4128 1177 3693 
Q 909 3258 909 2752 
Q 909 1965 1501 1379 
Q 2093 794 2982 794 
Q 3642 794 4122 1155 
Q 4602 1517 4710 2144 
L 3251 2144 
L 3251 2675 
L 5325 2675 
z
" transform="scale(0.015625)"/>
      <path id="STHeitiSC-Medium-32" d="M 512 5069 
L 1472 5069 
Q 2291 5069 2547 5005 
Q 2803 4941 3017 4774 
Q 3232 4608 3353 4358 
Q 3475 4109 3475 3795 
Q 3475 3482 3356 3232 
Q 3238 2982 3017 2819 
Q 2797 2656 2477 2589 
Q 2157 2522 1344 2522 
L 1062 2522 
L 1062 384 
L 512 384 
L 512 5069 
z
M 1062 3053 
L 1792 3053 
Q 2438 3040 2672 3257 
Q 2906 3475 2906 3802 
Q 2906 4531 1830 4531 
L 1062 4531 
L 1062 3053 
z
" transform="scale(0.015625)"/>
      <path id="STHeitiSC-Medium-37" d="M 3661 2253 
Q 3661 1542 3517 1161 
Q 3373 781 3005 525 
Q 2637 269 2144 269 
Q 1754 269 1440 393 
Q 1126 518 918 745 
Q 710 973 620 1251 
Q 531 1530 531 2253 
L 531 5069 
L 1082 5069 
L 1082 2253 
Q 1082 1798 1107 1596 
Q 1133 1395 1254 1206 
Q 1376 1018 1603 906 
Q 1830 794 2118 794 
Q 2464 794 2717 995 
Q 2970 1197 3043 1462 
Q 3117 1728 3117 2253 
L 3117 5069 
L 3661 5069 
L 3661 2253 
z
" transform="scale(0.015625)"/>
      <path id="STHeitiSC-Medium-12" d="M 1747 5184 
Q 2502 5184 2944 4547 
Q 3386 3910 3386 2723 
Q 3386 1536 2938 902 
Q 2490 269 1738 269 
Q 986 269 573 893 
Q 160 1517 160 2729 
Q 160 3942 573 4563 
Q 986 5184 1747 5184 
z
M 1760 774 
Q 2285 774 2576 1283 
Q 2867 1792 2867 2726 
Q 2867 3661 2566 4160 
Q 2266 4659 1757 4659 
Q 1248 4659 966 4160 
Q 685 3661 685 2714 
Q 685 774 1760 774 
z
" transform="scale(0.015625)"/>
      <path id="STHeitiSC-Medium-16" d="M 3418 1453 
L 2861 1453 
L 2861 384 
L 2317 384 
L 2317 1453 
L 70 1453 
L 2701 5184 
L 2861 5184 
L 2861 1984 
L 3418 1984 
L 3418 1453 
z
M 2317 1984 
L 2317 3712 
L 1094 1984 
L 2317 1984 
z
" transform="scale(0.015625)"/>
     </defs>
     <use xlink:href="#STHeitiSC-Medium-29"/>
     <use xlink:href="#STHeitiSC-Medium-32" transform="translate(87.203125 0)"/>
     <use xlink:href="#STHeitiSC-Medium-37" transform="translate(146.40625 0)"/>
     <use xlink:href="#STHeitiSC-Medium-3" transform="translate(211.90625 0)"/>
     <use xlink:href="#STHeitiSC-Medium-12" transform="translate(236.90625 0)"/>
     <use xlink:href="#STHeitiSC-Medium-3" transform="translate(292.3125 0)"/>
     <use xlink:href="#STHeitiSC-Medium-3" transform="translate(317.3125 0)"/>
     <use xlink:href="#STHeitiSC-Medium-3" transform="translate(342.3125 0)"/>
     <use xlink:href="#STHeitiSC-Medium-3" transform="translate(367.3125 0)"/>
     <use xlink:href="#STHeitiSC-Medium-80d" transform="translate(392.3125 0)"/>
     <use xlink:href="#STHeitiSC-Medium-22a" transform="translate(492.3125 0)"/>
     <use xlink:href="#STHeitiSC-Medium-1c4" transform="translate(592.3125 0)"/>
     <use xlink:href="#STHeitiSC-Medium-3" transform="translate(692.3125 0)"/>
     <use xlink:href="#STHeitiSC-Medium-3d" transform="translate(717.3125 0)"/>
     <use xlink:href="#STHeitiSC-Medium-12" transform="translate(752.40625 0)"/>
     <use xlink:href="#STHeitiSC-Medium-1c" transform="translate(807.8125 0)"/>
     <use xlink:href="#STHeitiSC-Medium-16" transform="translate(835.515625 0)"/>
     <use xlink:href="#STHeitiSC-Medium-b" transform="translate(890.921875 0)"/>
    </g>
   </g>
   <g id="text_5">
    <!-- GPU 1    词表行 [4:8) -->
    <g style="fill: #424242" transform="translate(490.92 243.214844) scale(0.1 -0.1)">
     <defs>
      <path id="STHeitiSC-Medium-13" d="M 2131 384 
L 1587 384 
L 1587 4531 
L 826 4531 
L 1158 5069 
L 2131 5069 
L 2131 384 
z
" transform="scale(0.015625)"/>
      <path id="STHeitiSC-Medium-1a" d="M 2547 2950 
Q 3373 2522 3373 1747 
Q 3373 1114 2928 691 
Q 2483 269 1763 269 
Q 1043 269 608 691 
Q 173 1114 173 1709 
Q 173 2515 1018 2950 
Q 390 3315 390 3942 
Q 390 4435 800 4809 
Q 1210 5184 1782 5184 
Q 2355 5184 2758 4819 
Q 3162 4454 3162 3930 
Q 3162 3322 2547 2950 
z
M 1792 3181 
Q 2118 3181 2364 3411 
Q 2611 3642 2611 3939 
Q 2611 4237 2380 4445 
Q 2150 4653 1785 4653 
Q 1421 4653 1184 4445 
Q 947 4237 947 3939 
Q 947 3642 1203 3411 
Q 1459 3181 1792 3181 
z
M 1773 794 
Q 2234 794 2528 1069 
Q 2822 1344 2822 1728 
Q 2822 2112 2518 2393 
Q 2214 2675 1782 2675 
Q 1350 2675 1036 2384 
Q 723 2093 723 1699 
Q 723 1306 1014 1050 
Q 1306 794 1773 794 
z
" transform="scale(0.015625)"/>
     </defs>
     <use xlink:href="#STHeitiSC-Medium-29"/>
     <use xlink:href="#STHeitiSC-Medium-32" transform="translate(87.203125 0)"/>
     <use xlink:href="#STHeitiSC-Medium-37" transform="translate(146.40625 0)"/>
     <use xlink:href="#STHeitiSC-Medium-3" transform="translate(211.90625 0)"/>
     <use xlink:href="#STHeitiSC-Medium-13" transform="translate(236.90625 0)"/>
     <use xlink:href="#STHeitiSC-Medium-3" transform="translate(292.3125 0)"/>
     <use xlink:href="#STHeitiSC-Medium-3" transform="translate(317.3125 0)"/>
     <use xlink:href="#STHeitiSC-Medium-3" transform="translate(342.3125 0)"/>
     <use xlink:href="#STHeitiSC-Medium-3" transform="translate(367.3125 0)"/>
     <use xlink:href="#STHeitiSC-Medium-80d" transform="translate(392.3125 0)"/>
     <use xlink:href="#STHeitiSC-Medium-22a" transform="translate(492.3125 0)"/>
     <use xlink:href="#STHeitiSC-Medium-1c4" transform="translate(592.3125 0)"/>
     <use xlink:href="#STHeitiSC-Medium-3" transform="translate(692.3125 0)"/>
     <use xlink:href="#STHeitiSC-Medium-3d" transform="translate(717.3125 0)"/>
     <use xlink:href="#STHeitiSC-Medium-16" transform="translate(752.40625 0)"/>
     <use xlink:href="#STHeitiSC-Medium-1c" transform="translate(807.8125 0)"/>
     <use xlink:href="#STHeitiSC-Medium-1a" transform="translate(835.515625 0)"/>
     <use xlink:href="#STHeitiSC-Medium-b" transform="translate(890.921875 0)"/>
    </g>
   </g>
   <g id="text_6">
    <!-- GPU 2    词表行 [8:12) -->
    <g style="fill: #424242" transform="translate(490.92 321.054844) scale(0.1 -0.1)">
     <defs>
      <path id="STHeitiSC-Medium-14" d="M 3360 384 
L 90 384 
L 1914 2355 
Q 2374 2842 2566 3123 
Q 2758 3405 2758 3763 
Q 2758 4122 2480 4390 
Q 2202 4659 1789 4659 
Q 1376 4659 1101 4368 
Q 826 4077 787 3539 
L 256 3539 
Q 288 4294 736 4739 
Q 1184 5184 1821 5184 
Q 2458 5184 2877 4771 
Q 3296 4358 3296 3763 
Q 3296 3328 3065 2950 
Q 2835 2573 2368 2074 
L 1293 915 
L 3360 915 
L 3360 384 
z
" transform="scale(0.015625)"/>
     </defs>
     <use xlink:href="#STHeitiSC-Medium-29"/>
     <use xlink:href="#STHeitiSC-Medium-32" transform="translate(87.203125 0)"/>
     <use xlink:href="#STHeitiSC-Medium-37" transform="translate(146.40625 0)"/>
     <use xlink:href="#STHeitiSC-Medium-3" transform="translate(211.90625 0)"/>
     <use xlink:href="#STHeitiSC-Medium-14" transform="translate(236.90625 0)"/>
     <use xlink:href="#STHeitiSC-Medium-3" transform="translate(292.3125 0)"/>
     <use xlink:href="#STHeitiSC-Medium-3" transform="translate(317.3125 0)"/>
     <use xlink:href="#STHeitiSC-Medium-3" transform="translate(342.3125 0)"/>
     <use xlink:href="#STHeitiSC-Medium-3" transform="translate(367.3125 0)"/>
     <use xlink:href="#STHeitiSC-Medium-80d" transform="translate(392.3125 0)"/>
     <use xlink:href="#STHeitiSC-Medium-22a" transform="translate(492.3125 0)"/>
     <use xlink:href="#STHeitiSC-Medium-1c4" transform="translate(592.3125 0)"/>
     <use xlink:href="#STHeitiSC-Medium-3" transform="translate(692.3125 0)"/>
     <use xlink:href="#STHeitiSC-Medium-3d" transform="translate(717.3125 0)"/>
     <use xlink:href="#STHeitiSC-Medium-1a" transform="translate(752.40625 0)"/>
     <use xlink:href="#STHeitiSC-Medium-1c" transform="translate(807.8125 0)"/>
     <use xlink:href="#STHeitiSC-Medium-13" transform="translate(835.515625 0)"/>
     <use xlink:href="#STHeitiSC-Medium-14" transform="translate(890.921875 0)"/>
     <use xlink:href="#STHeitiSC-Medium-b" transform="translate(946.328125 0)"/>
    </g>
   </g>
   <g id="text_7">
    <!-- GPU 3    词表行 [12:16) -->
    <g style="fill: #424242" transform="translate(490.92 398.894844) scale(0.1 -0.1)">
     <defs>
      <path id="STHeitiSC-Medium-15" d="M 2554 3021 
Q 2931 2835 3139 2508 
Q 3347 2182 3347 1798 
Q 3347 1171 2889 720 
Q 2432 269 1734 269 
Q 1107 269 707 630 
Q 307 992 166 1702 
L 710 1702 
Q 832 1248 1072 1027 
Q 1312 806 1757 806 
Q 2202 806 2502 1084 
Q 2803 1363 2803 1785 
Q 2803 2208 2460 2457 
Q 2118 2707 1453 2720 
L 1453 3232 
Q 1933 3232 2227 3437 
Q 2522 3642 2522 3946 
Q 2522 4250 2294 4451 
Q 2067 4653 1744 4653 
Q 1421 4653 1219 4470 
Q 1018 4288 877 3917 
L 320 3917 
Q 461 4531 832 4857 
Q 1203 5184 1747 5184 
Q 2291 5184 2691 4825 
Q 3091 4467 3091 3955 
Q 3091 3366 2554 3021 
z
" transform="scale(0.015625)"/>
      <path id="STHeitiSC-Medium-18" d="M 1594 3098 
Q 1798 3155 1984 3155 
Q 2515 3155 2912 2732 
Q 3309 2310 3309 1708 
Q 3309 1107 2880 688 
Q 2451 269 1830 269 
Q 1210 269 797 691 
Q 384 1114 384 1722 
Q 384 2016 499 2326 
Q 614 2637 915 3085 
L 2336 5203 
L 2797 4915 
L 1594 3098 
z
M 1843 806 
Q 2221 806 2493 1075 
Q 2765 1344 2765 1728 
Q 2765 2112 2496 2381 
Q 2227 2650 1843 2650 
Q 1459 2650 1190 2381 
Q 922 2112 922 1728 
Q 922 1344 1194 1075 
Q 1466 806 1843 806 
z
" transform="scale(0.015625)"/>
     </defs>
     <use xlink:href="#STHeitiSC-Medium-29"/>
     <use xlink:href="#STHeitiSC-Medium-32" transform="translate(87.203125 0)"/>
     <use xlink:href="#STHeitiSC-Medium-37" transform="translate(146.40625 0)"/>
     <use xlink:href="#STHeitiSC-Medium-3" transform="translate(211.90625 0)"/>
     <use xlink:href="#STHeitiSC-Medium-15" transform="translate(236.90625 0)"/>
     <use xlink:href="#STHeitiSC-Medium-3" transform="translate(292.3125 0)"/>
     <use xlink:href="#STHeitiSC-Medium-3" transform="translate(317.3125 0)"/>
     <use xlink:href="#STHeitiSC-Medium-3" transform="translate(342.3125 0)"/>
     <use xlink:href="#STHeitiSC-Medium-3" transform="translate(367.3125 0)"/>
     <use xlink:href="#STHeitiSC-Medium-80d" transform="translate(392.3125 0)"/>
     <use xlink:href="#STHeitiSC-Medium-22a" transform="translate(492.3125 0)"/>
     <use xlink:href="#STHeitiSC-Medium-1c4" transform="translate(592.3125 0)"/>
     <use xlink:href="#STHeitiSC-Medium-3" transform="translate(692.3125 0)"/>
     <use xlink:href="#STHeitiSC-Medium-3d" transform="translate(717.3125 0)"/>
     <use xlink:href="#STHeitiSC-Medium-13" transform="translate(752.40625 0)"/>
     <use xlink:href="#STHeitiSC-Medium-14" transform="translate(807.8125 0)"/>
     <use xlink:href="#STHeitiSC-Medium-1c" transform="translate(863.21875 0)"/>
     <use xlink:href="#STHeitiSC-Medium-13" transform="translate(890.921875 0)"/>
     <use xlink:href="#STHeitiSC-Medium-18" transform="translate(946.328125 0)"/>
     <use xlink:href="#STHeitiSC-Medium-b" transform="translate(1001.734375 0)"/>
    </g>
   </g>
   <g id="text_8">
    <!-- input_ids -->
    <g style="fill: #212121" transform="translate(63.979844 271.62) scale(0.1 -0.1)">
     <defs>
      <path id="STHeitiSC-Medium-52" d="M 973 3341 
Q 1491 3962 2252 3962 
Q 3014 3962 3545 3421 
Q 4077 2880 4077 2118 
Q 4077 1357 3552 813 
Q 3027 269 2284 269 
Q 1542 269 973 896 
L 973 -851 
L 448 -851 
L 448 3872 
L 973 3872 
L 973 3341 
z
M 2253 762 
Q 2778 762 3165 1155 
Q 3552 1549 3552 2105 
Q 3552 2662 3171 3056 
Q 2790 3450 2240 3450 
Q 1690 3450 1315 3062 
Q 941 2675 941 2105 
Q 941 1536 1325 1149 
Q 1709 762 2253 762 
z
" transform="scale(0.015625)"/>
      <path id="STHeitiSC-Medium-57" d="M 3450 384 
L 2918 384 
L 2918 909 
Q 2400 294 1690 294 
Q 1312 294 1005 489 
Q 698 685 544 1027 
Q 390 1370 390 2080 
L 390 3872 
L 915 3872 
L 915 2208 
Q 915 1632 969 1424 
Q 1024 1216 1129 1072 
Q 1235 928 1398 857 
Q 1562 787 1795 787 
Q 2029 787 2253 902 
Q 2477 1018 2637 1222 
Q 2797 1427 2857 1657 
Q 2918 1888 2918 2579 
L 2918 3872 
L 3450 3872 
L 3450 384 
z
" transform="scale(0.015625)"/>
     </defs>
     <use xlink:href="#STHeitiSC-Medium-4b"/>
     <use xlink:href="#STHeitiSC-Medium-50" transform="translate(20 0)"/>
     <use xlink:href="#STHeitiSC-Medium-52" transform="translate(81 0)"/>
     <use xlink:href="#STHeitiSC-Medium-57" transform="translate(149.203125 0)"/>
     <use xlink:href="#STHeitiSC-Medium-56" transform="translate(210 0)"/>
     <use xlink:href="#STHeitiSC-Medium-41" transform="translate(243.90625 0)"/>
     <use xlink:href="#STHeitiSC-Medium-4b" transform="translate(293.90625 0)"/>
     <use xlink:href="#STHeitiSC-Medium-46" transform="translate(313.90625 0)"/>
     <use xlink:href="#STHeitiSC-Medium-55" transform="translate(382.40625 0)"/>
    </g>
    <!-- [batch, seq] -->
    <g style="fill: #212121" transform="translate(55.49 281.92) scale(0.1 -0.1)">
     <defs>
      <path id="STHeitiSC-Medium-53" d="M 3917 -851 
L 3398 -851 
L 3398 896 
Q 2835 269 2086 269 
Q 1338 269 813 816 
Q 288 1363 288 2121 
Q 288 2880 819 3421 
Q 1350 3962 2112 3962 
Q 2874 3962 3398 3341 
L 3398 3872 
L 3917 3872 
L 3917 -851 
z
M 2118 762 
Q 2630 762 3030 1149 
Q 3430 1536 3430 2093 
Q 3430 2650 3056 3050 
Q 2682 3450 2131 3450 
Q 1581 3450 1200 3046 
Q 819 2643 819 2099 
Q 819 1555 1206 1158 
Q 1594 762 2118 762 
z
" transform="scale(0.015625)"/>
     </defs>
     <use xlink:href="#STHeitiSC-Medium-3d"/>
     <use xlink:href="#STHeitiSC-Medium-44" transform="translate(35.09375 0)"/>
     <use xlink:href="#STHeitiSC-Medium-43" transform="translate(103.296875 0)"/>
     <use xlink:href="#STHeitiSC-Medium-56" transform="translate(171.59375 0)"/>
     <use xlink:href="#STHeitiSC-Medium-45" transform="translate(205.5 0)"/>
     <use xlink:href="#STHeitiSC-Medium-4a" transform="translate(270.203125 0)"/>
     <use xlink:href="#STHeitiSC-Medium-e" transform="translate(331.203125 0)"/>
     <use xlink:href="#STHeitiSC-Medium-3" transform="translate(358.90625 0)"/>
     <use xlink:href="#STHeitiSC-Medium-55" transform="translate(383.90625 0)"/>
     <use xlink:href="#STHeitiSC-Medium-47" transform="translate(422.703125 0)"/>
     <use xlink:href="#STHeitiSC-Medium-53" transform="translate(487.703125 0)"/>
     <use xlink:href="#STHeitiSC-Medium-3f" transform="translate(555.90625 0)"/>
    </g>
    <!-- Replicate -->
    <g style="fill: #212121" transform="translate(61.749375 292.22) scale(0.1 -0.1)">
     <defs>
      <path id="STHeitiSC-Medium-34" d="M 3622 384 
L 2931 384 
L 1280 2522 
L 1088 2522 
L 1088 384 
L 538 384 
L 538 5069 
L 1498 5069 
Q 2266 5069 2554 5001 
Q 2842 4934 3053 4774 
Q 3264 4614 3385 4361 
Q 3507 4109 3507 3802 
Q 3507 3219 3110 2870 
Q 2714 2522 1965 2522 
L 3622 384 
z
M 1088 3059 
L 1837 3059 
Q 2400 3053 2669 3229 
Q 2938 3405 2938 3792 
Q 2938 4179 2675 4355 
Q 2413 4531 1856 4531 
L 1088 4531 
L 1088 3059 
z
" transform="scale(0.015625)"/>
      <path id="STHeitiSC-Medium-4e" d="M 902 384 
L 378 384 
L 378 5184 
L 902 5184 
L 902 384 
z
" transform="scale(0.015625)"/>
     </defs>
     <use xlink:href="#STHeitiSC-Medium-34"/>
     <use xlink:href="#STHeitiSC-Medium-47" transform="translate(60.703125 0)"/>
     <use xlink:href="#STHeitiSC-Medium-52" transform="translate(125.703125 0)"/>
     <use xlink:href="#STHeitiSC-Medium-4e" transform="translate(193.90625 0)"/>
     <use xlink:href="#STHeitiSC-Medium-4b" transform="translate(213.90625 0)"/>
     <use xlink:href="#STHeitiSC-Medium-45" transform="translate(233.90625 0)"/>
     <use xlink:href="#STHeitiSC-Medium-43" transform="translate(298.609375 0)"/>
     <use xlink:href="#STHeitiSC-Medium-56" transform="translate(366.90625 0)"/>
     <use xlink:href="#STHeitiSC-Medium-47" transform="translate(400.8125 0)"/>
    </g>
   </g>
   <g id="text_9">
    <!-- output -->
    <g style="fill: #212121" transform="translate(686.044531 271.62) scale(0.1 -0.1)">
     <use xlink:href="#STHeitiSC-Medium-51"/>
     <use xlink:href="#STHeitiSC-Medium-57" transform="translate(65.5 0)"/>
     <use xlink:href="#STHeitiSC-Medium-56" transform="translate(126.296875 0)"/>
     <use xlink:href="#STHeitiSC-Medium-52" transform="translate(160.203125 0)"/>
     <use xlink:href="#STHeitiSC-Medium-57" transform="translate(228.40625 0)"/>
     <use xlink:href="#STHeitiSC-Medium-56" transform="translate(289.203125 0)"/>
    </g>
    <!-- [batch, seq, hidden] -->
    <g style="fill: #212121" transform="translate(652.814844 281.92) scale(0.1 -0.1)">
     <use xlink:href="#STHeitiSC-Medium-3d"/>
     <use xlink:href="#STHeitiSC-Medium-44" transform="translate(35.09375 0)"/>
     <use xlink:href="#STHeitiSC-Medium-43" transform="translate(103.296875 0)"/>
     <use xlink:href="#STHeitiSC-Medium-56" transform="translate(171.59375 0)"/>
     <use xlink:href="#STHeitiSC-Medium-45" transform="translate(205.5 0)"/>
     <use xlink:href="#STHeitiSC-Medium-4a" transform="translate(270.203125 0)"/>
     <use xlink:href="#STHeitiSC-Medium-e" transform="translate(331.203125 0)"/>
     <use xlink:href="#STHeitiSC-Medium-3" transform="translate(358.90625 0)"/>
     <use xlink:href="#STHeitiSC-Medium-55" transform="translate(383.90625 0)"/>
     <use xlink:href="#STHeitiSC-Medium-47" transform="translate(422.703125 0)"/>
     <use xlink:href="#STHeitiSC-Medium-53" transform="translate(487.703125 0)"/>
     <use xlink:href="#STHeitiSC-Medium-e" transform="translate(555.90625 0)"/>
     <use xlink:href="#STHeitiSC-Medium-3" transform="translate(583.609375 0)"/>
     <use xlink:href="#STHeitiSC-Medium-4a" transform="translate(608.609375 0)"/>
     <use xlink:href="#STHeitiSC-Medium-4b" transform="translate(669.609375 0)"/>
     <use xlink:href="#STHeitiSC-Medium-46" transform="translate(689.609375 0)"/>
     <use xlink:href="#STHeitiSC-Medium-46" transform="translate(758.109375 0)"/>
     <use xlink:href="#STHeitiSC-Medium-47" transform="translate(826.609375 0)"/>
     <use xlink:href="#STHeitiSC-Medium-50" transform="translate(891.609375 0)"/>
     <use xlink:href="#STHeitiSC-Medium-3f" transform="translate(952.609375 0)"/>
    </g>
    <!-- Replicate -->
    <g style="fill: #212121" transform="translate(678.909375 292.22) scale(0.1 -0.1)">
     <use xlink:href="#STHeitiSC-Medium-34"/>
     <use xlink:href="#STHeitiSC-Medium-47" transform="translate(60.703125 0)"/>
     <use xlink:href="#STHeitiSC-Medium-52" transform="translate(125.703125 0)"/>
     <use xlink:href="#STHeitiSC-Medium-4e" transform="translate(193.90625 0)"/>
     <use xlink:href="#STHeitiSC-Medium-4b" transform="translate(213.90625 0)"/>
     <use xlink:href="#STHeitiSC-Medium-45" transform="translate(233.90625 0)"/>
     <use xlink:href="#STHeitiSC-Medium-43" transform="translate(298.609375 0)"/>
     <use xlink:href="#STHeitiSC-Medium-56" transform="translate(366.90625 0)"/>
     <use xlink:href="#STHeitiSC-Medium-47" transform="translate(400.8125 0)"/>
    </g>
   </g>
   <g id="patch_138">
    <path d="M 145.418804 278.32 
Q 157.319417 278.32 166.983961 278.32 
" style="fill: none; stroke: #1565c0; stroke-width: 2; stroke-linecap: round"/>
    <path d="M 162.983961 276.32 
L 166.983961 278.32 
L 162.983961 280.32 
" style="fill: none; stroke: #1565c0; stroke-width: 2; stroke-linecap: round"/>
   </g>
   <g id="patch_139">
    <path d="M 426.20224 278.32 
Q 531.229657 278.32 634.021006 278.32 
" style="fill: none; stroke: #2e7d32; stroke-width: 2; stroke-linecap: round"/>
    <path d="M 630.021006 276.32 
L 634.021006 278.32 
L 630.021006 280.32 
" style="fill: none; stroke: #2e7d32; stroke-width: 2; stroke-linecap: round"/>
   </g>
   <g id="text_10">
    <!-- all_gather -->
    <g style="fill: #2e7d32" transform="translate(505.645469 247.74) scale(0.1 -0.1)">
     <defs>
      <path id="STHeitiSC-Medium-54" d="M 1914 3821 
L 1638 3373 
Q 1530 3430 1427 3430 
Q 1229 3430 1069 3235 
Q 909 3040 829 2723 
Q 749 2406 749 1581 
L 749 384 
L 211 384 
L 211 3872 
L 749 3872 
L 749 3494 
Q 909 3731 1072 3846 
Q 1235 3962 1443 3962 
Q 1651 3962 1914 3821 
z
" transform="scale(0.015625)"/>
     </defs>
     <use xlink:href="#STHeitiSC-Medium-43"/>
     <use xlink:href="#STHeitiSC-Medium-4e" transform="translate(68.296875 0)"/>
     <use xlink:href="#STHeitiSC-Medium-4e" transform="translate(88.296875 0)"/>
     <use xlink:href="#STHeitiSC-Medium-41" transform="translate(108.296875 0)"/>
     <use xlink:href="#STHeitiSC-Medium-49" transform="translate(158.296875 0)"/>
     <use xlink:href="#STHeitiSC-Medium-43" transform="translate(225.59375 0)"/>
     <use xlink:href="#STHeitiSC-Medium-56" transform="translate(293.890625 0)"/>
     <use xlink:href="#STHeitiSC-Medium-4a" transform="translate(327.796875 0)"/>
     <use xlink:href="#STHeitiSC-Medium-47" transform="translate(388.796875 0)"/>
     <use xlink:href="#STHeitiSC-Medium-54" transform="translate(453.796875 0)"/>
    </g>
   </g>
   <g id="text_11">
    <!-- RowwiseParallel 词嵌入层 -->
    <g transform="translate(318.514531 19.24) scale(0.14 -0.14)">
     <defs>
      <path id="STHeitiSC-Medium-143f" d="M 2445 1517 
L 2445 2227 
L 1363 2227 
L 1363 1517 
L 2445 1517 
z
M 1363 1139 
L 1363 397 
L 2445 397 
L 2445 1139 
L 1363 1139 
z
M 4461 934 
Q 4384 646 4281 416 
Q 4179 186 4032 -12 
Q 3885 -211 3693 -387 
Q 3501 -563 3245 -749 
Q 3181 -653 3091 -560 
Q 3002 -467 2931 -429 
L 2445 -429 
L 2445 0 
L 1363 0 
L 1363 -563 
L 870 -563 
Q 902 -339 915 -156 
Q 928 26 928 224 
L 928 2227 
Q 762 2221 611 2211 
Q 461 2202 314 2182 
L 314 2662 
Q 461 2630 611 2620 
Q 762 2611 928 2605 
Q 928 2867 912 3056 
Q 896 3245 864 3411 
Q 992 3379 1126 3369 
Q 1261 3360 1382 3366 
Q 1446 3373 1459 3344 
Q 1472 3315 1427 3283 
Q 1389 3245 1376 3203 
Q 1363 3162 1363 3085 
L 1363 2605 
L 2445 2605 
Q 2445 2944 2432 3136 
Q 2419 3328 2394 3456 
Q 2515 3424 2668 3411 
Q 2822 3398 2931 3411 
Q 3002 3418 3014 3382 
Q 3027 3347 2989 3315 
Q 2918 3270 2899 3232 
Q 2880 3194 2880 3130 
L 2880 2611 
Q 2995 2618 3107 2630 
Q 3219 2643 3328 2662 
L 3328 2182 
Q 3117 2208 2880 2221 
L 2880 275 
Q 2880 128 2889 -19 
Q 2899 -166 2925 -365 
Q 3219 -230 3459 6 
Q 3699 243 3898 608 
Q 3974 749 4025 886 
Q 4077 1024 4105 1187 
Q 4134 1350 4150 1558 
Q 4166 1766 4179 2054 
Q 4288 2022 4435 2006 
Q 4582 1990 4685 1997 
Q 4755 2003 4768 1974 
Q 4781 1946 4723 1894 
Q 4698 1875 4669 1785 
Q 4640 1696 4608 1587 
Q 4794 864 5133 435 
Q 5472 6 6080 -122 
Q 5926 -269 5843 -416 
Q 5760 -563 5728 -710 
Q 5229 -461 4918 -54 
Q 4608 352 4461 934 
z
M 4832 2867 
Q 5267 2867 5520 2880 
Q 5773 2893 5926 2912 
L 5568 1837 
L 5082 1901 
L 5293 2470 
L 4051 2470 
Q 3949 2240 3817 2003 
Q 3686 1766 3578 1619 
Q 3488 1696 3401 1747 
Q 3315 1798 3194 1843 
Q 3328 2010 3433 2176 
Q 3539 2342 3622 2544 
Q 3706 2746 3766 2998 
Q 3827 3251 3878 3597 
Q 3994 3546 4157 3504 
Q 4320 3462 4435 3450 
Q 4512 3437 4525 3398 
Q 4538 3360 4467 3315 
Q 4416 3283 4361 3190 
Q 4307 3098 4218 2867 
L 4832 2867 
z
M 4896 4115 
Q 4896 4288 4896 4416 
Q 4896 4544 4889 4637 
Q 4883 4730 4876 4800 
Q 4870 4870 4864 4941 
Q 4986 4896 5158 4880 
Q 5331 4864 5459 4877 
Q 5574 4890 5498 4800 
Q 5466 4768 5450 4697 
Q 5434 4627 5424 4502 
Q 5414 4378 5414 4179 
Q 5414 3981 5427 3686 
Q 5344 3693 5113 3696 
Q 4883 3699 4576 3702 
Q 4269 3706 3913 3709 
Q 3558 3712 3232 3712 
Q 2918 3712 2566 3709 
Q 2214 3706 1897 3702 
Q 1581 3699 1344 3696 
Q 1107 3693 1024 3686 
Q 1050 4096 1046 4390 
Q 1043 4685 992 4851 
Q 1107 4819 1273 4803 
Q 1440 4787 1587 4800 
Q 1632 4806 1641 4774 
Q 1651 4742 1613 4698 
Q 1574 4653 1555 4525 
Q 1536 4397 1536 4115 
L 2925 4115 
Q 2925 4358 2925 4521 
Q 2925 4685 2918 4797 
Q 2912 4909 2905 4985 
Q 2899 5062 2886 5133 
Q 2976 5101 3129 5088 
Q 3283 5075 3430 5088 
Q 3584 5094 3469 4973 
Q 3450 4954 3437 4912 
Q 3424 4870 3414 4774 
Q 3405 4678 3401 4521 
Q 3398 4365 3398 4115 
L 4896 4115 
z
" transform="scale(0.015625)"/>
      <path id="STHeitiSC-Medium-24d" d="M 2842 3834 
Q 2637 4096 2403 4301 
Q 2170 4506 1933 4634 
L 2374 5069 
Q 2707 4800 2944 4557 
Q 3181 4314 3350 4061 
Q 3520 3808 3645 3523 
Q 3770 3238 3885 2874 
Q 4077 2285 4269 1881 
Q 4461 1478 4704 1184 
Q 4947 890 5264 678 
Q 5581 467 6022 262 
Q 5824 96 5715 -41 
Q 5606 -179 5498 -378 
Q 5101 -102 4813 154 
Q 4525 410 4301 733 
Q 4077 1056 3891 1488 
Q 3706 1920 3520 2541 
Q 3405 2918 3213 3277 
Q 3149 3008 3059 2733 
Q 2970 2458 2864 2198 
Q 2758 1939 2640 1699 
Q 2522 1459 2400 1267 
Q 2067 749 1686 326 
Q 1306 -96 934 -371 
Q 806 -224 678 -128 
Q 550 -32 371 38 
Q 614 186 825 349 
Q 1037 512 1225 697 
Q 1414 883 1590 1097 
Q 1766 1312 1933 1574 
Q 2093 1818 2240 2112 
Q 2387 2406 2508 2710 
Q 2630 3014 2716 3305 
Q 2803 3597 2842 3834 
z
" transform="scale(0.015625)"/>
      <path id="STHeitiSC-Medium-69d" d="M 5101 4352 
L 1626 4352 
L 1626 3744 
L 5101 3744 
L 5101 4352 
z
M 5638 3251 
Q 5485 3264 5302 3273 
Q 5120 3283 4883 3286 
Q 4646 3290 4348 3293 
Q 4051 3296 3680 3296 
Q 3258 3296 2762 3286 
Q 2266 3277 1626 3264 
Q 1606 2560 1568 2006 
Q 1530 1453 1450 998 
Q 1370 544 1238 160 
Q 1107 -224 909 -589 
Q 794 -442 666 -342 
Q 538 -243 416 -205 
Q 595 38 723 348 
Q 851 659 934 1065 
Q 1018 1472 1059 1981 
Q 1101 2490 1101 3136 
Q 1101 3750 1094 4153 
Q 1088 4557 1075 4851 
Q 1408 4826 1952 4813 
Q 2496 4800 3328 4800 
Q 4173 4800 4733 4809 
Q 5293 4819 5638 4851 
Q 5581 4038 5638 3251 
z
M 5498 2317 
Q 5286 2330 5097 2339 
Q 4909 2349 4717 2355 
Q 4525 2362 4317 2365 
Q 4109 2368 3853 2368 
Q 3610 2368 3395 2365 
Q 3181 2362 2979 2355 
Q 2778 2349 2579 2339 
Q 2381 2330 2170 2310 
L 2170 2861 
Q 2400 2842 2601 2832 
Q 2803 2822 3001 2819 
Q 3200 2816 3408 2813 
Q 3616 2810 3859 2810 
Q 4115 2810 4323 2813 
Q 4531 2816 4720 2819 
Q 4909 2822 5094 2832 
Q 5280 2842 5498 2861 
L 5498 2317 
z
M 3213 1299 
Q 2970 1299 2765 1296 
Q 2560 1293 2377 1286 
Q 2195 1280 2032 1273 
Q 1869 1267 1702 1254 
L 1702 1792 
Q 1914 1779 2122 1769 
Q 2330 1760 2573 1757 
Q 2816 1754 3113 1750 
Q 3411 1747 3795 1747 
Q 4186 1747 4496 1750 
Q 4806 1754 5065 1757 
Q 5325 1760 5545 1769 
Q 5766 1779 5978 1792 
L 5978 1254 
Q 5779 1267 5574 1276 
Q 5370 1286 5126 1289 
Q 4883 1293 4585 1296 
Q 4288 1299 3917 1299 
Q 3680 1018 3401 714 
Q 3123 410 2803 77 
L 4742 186 
Q 4595 378 4438 557 
Q 4282 736 4128 864 
L 4634 1114 
Q 4915 774 5200 441 
Q 5485 109 5830 -275 
L 5248 -595 
Q 5203 -512 5145 -416 
Q 5088 -320 5018 -211 
L 3398 -333 
Q 3213 -346 3033 -371 
Q 2854 -397 2691 -429 
Q 2528 -461 2393 -496 
Q 2259 -531 2163 -570 
Q 2125 -442 2041 -256 
Q 1958 -70 1869 77 
Q 2074 115 2230 201 
Q 2387 288 2541 454 
Q 2669 595 2768 707 
Q 2867 819 2947 918 
Q 3027 1018 3091 1110 
Q 3155 1203 3213 1299 
z
" transform="scale(0.015625)"/>
     </defs>
     <use xlink:href="#STHeitiSC-Medium-34"/>
     <use xlink:href="#STHeitiSC-Medium-51" transform="translate(60.703125 0)"/>
     <use xlink:href="#STHeitiSC-Medium-59" transform="translate(126.203125 0)"/>
     <use xlink:href="#STHeitiSC-Medium-59" transform="translate(209.296875 0)"/>
     <use xlink:href="#STHeitiSC-Medium-4b" transform="translate(292.390625 0)"/>
     <use xlink:href="#STHeitiSC-Medium-55" transform="translate(312.390625 0)"/>
     <use xlink:href="#STHeitiSC-Medium-47" transform="translate(351.1875 0)"/>
     <use xlink:href="#STHeitiSC-Medium-32" transform="translate(416.1875 0)"/>
     <use xlink:href="#STHeitiSC-Medium-43" transform="translate(475.390625 0)"/>
     <use xlink:href="#STHeitiSC-Medium-54" transform="translate(543.6875 0)"/>
     <use xlink:href="#STHeitiSC-Medium-43" transform="translate(573.78125 0)"/>
     <use xlink:href="#STHeitiSC-Medium-4e" transform="translate(642.078125 0)"/>
     <use xlink:href="#STHeitiSC-Medium-4e" transform="translate(662.078125 0)"/>
     <use xlink:href="#STHeitiSC-Medium-47" transform="translate(682.078125 0)"/>
     <use xlink:href="#STHeitiSC-Medium-4e" transform="translate(747.078125 0)"/>
     <use xlink:href="#STHeitiSC-Medium-3" transform="translate(767.078125 0)"/>
     <use xlink:href="#STHeitiSC-Medium-80d" transform="translate(792.078125 0)"/>
     <use xlink:href="#STHeitiSC-Medium-143f" transform="translate(892.078125 0)"/>
     <use xlink:href="#STHeitiSC-Medium-24d" transform="translate(992.078125 0)"/>
     <use xlink:href="#STHeitiSC-Medium-69d" transform="translate(1092.078125 0)"/>
    </g>
   </g>
  </g>
 </g>
 <defs>
  <clipPath id="p83ad6067a2">
   <rect x="7.2" y="39.24" width="789.52" height="450.36"/>
  </clipPath>
 </defs>
</svg>
