<?xml version="1.0" encoding="utf-8" standalone="no"?>
<!DOCTYPE svg PUBLIC "-//W3C//DTD SVG 1.1//EN"
  "http://www.w3.org/Graphics/SVG/1.1/DTD/svg11.dtd">
<svg xmlns:xlink="http://www.w3.org/1999/xlink" width="856.8pt" height="424.6pt" viewBox="0 0 856.8 424.6" xmlns="http://www.w3.org/2000/svg" version="1.1">
 <metadata>
  <rdf:RDF xmlns:dc="http://purl.org/dc/elements/1.1/" xmlns:cc="http://creativecommons.org/ns#" xmlns:rdf="http://www.w3.org/1999/02/22-rdf-syntax-ns#">
   <cc:Work>
    <dc:type rdf:resource="http://purl.org/dc/dcmitype/StillImage"/>
    <dc:date>2026-07-13T11:07:55.731921</dc:date>
    <dc:format>image/svg+xml</dc:format>
    <dc:creator>
     <cc:Agent>
      <dc:title>Matplotlib v3.11.0, https://matplotlib.org/</dc:title>
     </cc:Agent>
    </dc:creator>
   </cc:Work>
  </rdf:RDF>
 </metadata>
 <defs>
  <style type="text/css">*{stroke-linejoin: round; stroke-linecap: butt}</style>
 </defs>
 <g id="figure_1">
  <g id="patch_1">
   <path d="M 0 424.6 
L 856.8 424.6 
L 856.8 0 
L 0 0 
z
" style="fill: #ffffff"/>
  </g>
  <g id="axes_1">
   <g id="patch_2">
    <path d="M 42.3 225.693889 
L 182.7 225.693889 
Q 186.21 225.693889 186.21 223.067778 
L 186.21 170.545556 
Q 186.21 167.919444 182.7 167.919444 
L 42.3 167.919444 
Q 38.79 167.919444 38.79 170.545556 
L 38.79 223.067778 
Q 38.79 225.693889 42.3 225.693889 
z
" clip-path="url(#p00d88bd77c)" style="fill: #e3f2fd; stroke: #1565c0; stroke-width: 2; stroke-linejoin: miter"/>
   </g>
   <g id="patch_3">
    <path d="M 252.9 146.910556 
L 365.22 146.910556 
Q 368.73 146.910556 368.73 144.284444 
L 368.73 91.762222 
Q 368.73 89.136111 365.22 89.136111 
L 252.9 89.136111 
Q 249.39 89.136111 249.39 91.762222 
L 249.39 144.284444 
Q 249.39 146.910556 252.9 146.910556 
z
" clip-path="url(#p00d88bd77c)" style="fill: #ffccbc; stroke: #d84315; stroke-width: 1.5; stroke-linejoin: miter"/>
   </g>
   <g id="patch_4">
    <path d="M 252.9 251.955 
L 365.22 251.955 
Q 368.73 251.955 368.73 249.328889 
L 368.73 196.806667 
Q 368.73 194.180556 365.22 194.180556 
L 252.9 194.180556 
Q 249.39 194.180556 249.39 196.806667 
L 249.39 249.328889 
Q 249.39 251.955 252.9 251.955 
z
" clip-path="url(#p00d88bd77c)" style="fill: #ffab91; stroke: #d84315; stroke-width: 1.5; stroke-linejoin: miter"/>
   </g>
   <g id="patch_5">
    <path d="M 252.9 383.260556 
L 365.22 383.260556 
Q 368.73 383.260556 368.73 380.634444 
L 368.73 301.851111 
Q 368.73 299.225 365.22 299.225 
L 252.9 299.225 
Q 249.39 299.225 249.39 301.851111 
L 249.39 380.634444 
Q 249.39 383.260556 252.9 383.260556 
z
" clip-path="url(#p00d88bd77c)" style="fill: #fff3e0; stroke: #ef6c00; stroke-width: 2; stroke-linejoin: miter"/>
   </g>
   <g id="patch_6">
    <path d="M 393.3 146.910556 
L 505.62 146.910556 
Q 509.13 146.910556 509.13 144.284444 
L 509.13 91.762222 
Q 509.13 89.136111 505.62 89.136111 
L 393.3 89.136111 
Q 389.79 89.136111 389.79 91.762222 
L 389.79 144.284444 
Q 389.79 146.910556 393.3 146.910556 
z
" clip-path="url(#p00d88bd77c)" style="fill: #ffccbc; stroke: #d84315; stroke-width: 1.5; stroke-linejoin: miter"/>
   </g>
   <g id="patch_7">
    <path d="M 393.3 251.955 
L 505.62 251.955 
Q 509.13 251.955 509.13 249.328889 
L 509.13 196.806667 
Q 509.13 194.180556 505.62 194.180556 
L 393.3 194.180556 
Q 389.79 194.180556 389.79 196.806667 
L 389.79 249.328889 
Q 389.79 251.955 393.3 251.955 
z
" clip-path="url(#p00d88bd77c)" style="fill: #ffab91; stroke: #d84315; stroke-width: 1.5; stroke-linejoin: miter"/>
   </g>
   <g id="patch_8">
    <path d="M 393.3 383.260556 
L 505.62 383.260556 
Q 509.13 383.260556 509.13 380.634444 
L 509.13 301.851111 
Q 509.13 299.225 505.62 299.225 
L 393.3 299.225 
Q 389.79 299.225 389.79 301.851111 
L 389.79 380.634444 
Q 389.79 383.260556 393.3 383.260556 
z
" clip-path="url(#p00d88bd77c)" style="fill: #fff3e0; stroke: #ef6c00; stroke-width: 2; stroke-linejoin: miter"/>
   </g>
   <g id="patch_9">
    <path d="M 533.7 146.910556 
L 646.02 146.910556 
Q 649.53 146.910556 649.53 144.284444 
L 649.53 91.762222 
Q 649.53 89.136111 646.02 89.136111 
L 533.7 89.136111 
Q 530.19 89.136111 530.19 91.762222 
L 530.19 144.284444 
Q 530.19 146.910556 533.7 146.910556 
z
" clip-path="url(#p00d88bd77c)" style="fill: #ffccbc; stroke: #d84315; stroke-width: 1.5; stroke-linejoin: miter"/>
   </g>
   <g id="patch_10">
    <path d="M 533.7 251.955 
L 646.02 251.955 
Q 649.53 251.955 649.53 249.328889 
L 649.53 196.806667 
Q 649.53 194.180556 646.02 194.180556 
L 533.7 194.180556 
Q 530.19 194.180556 530.19 196.806667 
L 530.19 249.328889 
Q 530.19 251.955 533.7 251.955 
z
" clip-path="url(#p00d88bd77c)" style="fill: #ffab91; stroke: #d84315; stroke-width: 1.5; stroke-linejoin: miter"/>
   </g>
   <g id="patch_11">
    <path d="M 533.7 383.260556 
L 646.02 383.260556 
Q 649.53 383.260556 649.53 380.634444 
L 649.53 301.851111 
Q 649.53 299.225 646.02 299.225 
L 533.7 299.225 
Q 530.19 299.225 530.19 301.851111 
L 530.19 380.634444 
Q 530.19 383.260556 533.7 383.260556 
z
" clip-path="url(#p00d88bd77c)" style="fill: #fff3e0; stroke: #ef6c00; stroke-width: 2; stroke-linejoin: miter"/>
   </g>
   <g id="patch_12">
    <path d="M 674.1 146.910556 
L 786.42 146.910556 
Q 789.93 146.910556 789.93 144.284444 
L 789.93 91.762222 
Q 789.93 89.136111 786.42 89.136111 
L 674.1 89.136111 
Q 670.59 89.136111 670.59 91.762222 
L 670.59 144.284444 
Q 670.59 146.910556 674.1 146.910556 
z
" clip-path="url(#p00d88bd77c)" style="fill: #ffccbc; stroke: #d84315; stroke-width: 1.5; stroke-linejoin: miter"/>
   </g>
   <g id="patch_13">
    <path d="M 674.1 251.955 
L 786.42 251.955 
Q 789.93 251.955 789.93 249.328889 
L 789.93 196.806667 
Q 789.93 194.180556 786.42 194.180556 
L 674.1 194.180556 
Q 670.59 194.180556 670.59 196.806667 
L 670.59 249.328889 
Q 670.59 251.955 674.1 251.955 
z
" clip-path="url(#p00d88bd77c)" style="fill: #ffab91; stroke: #d84315; stroke-width: 1.5; stroke-linejoin: miter"/>
   </g>
   <g id="patch_14">
    <path d="M 674.1 383.260556 
L 786.42 383.260556 
Q 789.93 383.260556 789.93 380.634444 
L 789.93 301.851111 
Q 789.93 299.225 786.42 299.225 
L 674.1 299.225 
Q 670.59 299.225 670.59 301.851111 
L 670.59 380.634444 
Q 670.59 383.260556 674.1 383.260556 
z
" clip-path="url(#p00d88bd77c)" style="fill: #fff3e0; stroke: #ef6c00; stroke-width: 2; stroke-linejoin: miter"/>
   </g>
   <g id="text_1">
    <!-- 输入 x -->
    <g transform="translate(98.85 189.891823) scale(0.1 -0.1)">
     <defs>
      <path id="STHeitiSC-Medium-8a9" d="M 5747 2758 
Q 5709 2726 5699 2672 
Q 5690 2618 5690 2522 
L 5690 51 
Q 5690 -102 5674 -201 
Q 5658 -301 5584 -371 
Q 5510 -442 5363 -493 
Q 5216 -544 4960 -602 
Q 4941 -493 4880 -345 
Q 4819 -198 4736 -115 
Q 4915 -141 5020 -141 
Q 5126 -141 5180 -105 
Q 5235 -70 5248 6 
Q 5261 83 5261 218 
L 5261 1894 
Q 5261 2259 5241 2528 
Q 5222 2797 5197 2925 
Q 5312 2899 5462 2886 
Q 5613 2874 5702 2880 
Q 5901 2893 5747 2758 
z
M 4941 2541 
Q 4909 2522 4899 2470 
Q 4890 2419 4890 2349 
L 4890 1190 
Q 4890 832 4928 403 
L 4429 403 
Q 4448 627 4457 816 
Q 4467 1005 4467 1190 
L 4467 2003 
Q 4467 2234 4457 2397 
Q 4448 2560 4422 2694 
Q 4570 2662 4691 2656 
Q 4813 2650 4909 2662 
Q 4992 2675 5001 2630 
Q 5011 2586 4941 2541 
z
M 1350 2342 
Q 1350 2573 1350 2717 
Q 1350 2861 1347 2953 
Q 1344 3046 1337 3100 
Q 1331 3155 1325 3200 
Q 1421 3174 1561 3158 
Q 1702 3142 1811 3155 
Q 1875 3162 1878 3117 
Q 1882 3072 1830 3046 
Q 1773 3008 1773 2867 
L 1773 2387 
Q 2054 2426 2202 2470 
L 2202 1990 
Q 2022 2016 1773 2010 
L 1773 1133 
Q 1920 1184 2057 1232 
Q 2195 1280 2278 1318 
Q 2272 1274 2265 1206 
Q 2259 1139 2259 1068 
Q 2259 998 2259 931 
Q 2259 864 2266 813 
Q 2163 813 2048 797 
Q 1933 781 1773 736 
Q 1773 384 1785 48 
Q 1798 -288 1818 -602 
L 1293 -602 
Q 1318 -307 1331 -12 
Q 1344 282 1350 608 
Q 1043 518 838 448 
Q 634 378 518 326 
Q 486 461 432 605 
Q 378 749 320 845 
Q 518 851 761 892 
Q 1005 934 1350 1018 
L 1350 1984 
Q 1088 1965 864 1923 
Q 640 1882 506 1824 
Q 474 1926 413 2057 
Q 352 2189 275 2298 
Q 365 2336 432 2403 
Q 499 2470 569 2627 
Q 640 2784 729 3075 
Q 819 3366 954 3859 
Q 774 3853 665 3843 
Q 557 3834 467 3821 
L 467 4307 
Q 563 4288 691 4278 
Q 819 4269 1043 4262 
Q 1094 4518 1116 4752 
Q 1139 4986 1133 5152 
Q 1210 5126 1302 5104 
Q 1395 5082 1484 5062 
Q 1574 5043 1651 5030 
Q 1728 5018 1773 5018 
Q 1837 5018 1843 4992 
Q 1850 4966 1786 4928 
Q 1734 4896 1670 4749 
Q 1606 4602 1498 4262 
Q 1805 4262 1974 4275 
Q 2144 4288 2259 4307 
L 2259 3821 
Q 2138 3840 1939 3853 
Q 1741 3866 1370 3866 
L 877 2298 
L 1350 2342 
z
M 2963 653 
L 2963 -454 
L 2483 -454 
Q 2515 -198 2528 51 
Q 2541 301 2541 493 
L 2541 2374 
Q 2541 2496 2528 2656 
Q 2515 2816 2496 2912 
Q 2829 2874 3296 2874 
Q 3398 2874 3513 2877 
Q 3629 2880 3737 2886 
Q 3846 2893 3945 2899 
Q 4045 2906 4115 2912 
Q 4102 2829 4092 2685 
Q 4083 2541 4083 2374 
L 4083 141 
Q 4083 -38 4070 -153 
Q 4058 -269 3994 -345 
Q 3930 -422 3805 -467 
Q 3680 -512 3462 -550 
Q 3450 -435 3398 -310 
Q 3347 -186 3277 -77 
Q 3405 -96 3481 -93 
Q 3558 -90 3600 -51 
Q 3642 -13 3654 70 
Q 3667 154 3667 301 
L 3667 653 
L 2963 653 
z
M 3667 1952 
L 3667 2490 
L 2963 2490 
L 2963 1952 
L 3667 1952 
z
M 2963 1574 
L 2963 1024 
L 3667 1024 
L 3667 1574 
L 2963 1574 
z
M 4691 3245 
Q 4550 3270 4387 3283 
Q 4224 3296 3955 3296 
Q 3686 3296 3539 3283 
Q 3392 3270 3251 3245 
L 3251 3738 
Q 3398 3712 3542 3699 
Q 3686 3686 3955 3686 
Q 4186 3686 4336 3696 
Q 4486 3706 4614 3725 
Q 4192 4090 3910 4582 
Q 3712 4320 3529 4099 
Q 3347 3878 3161 3676 
Q 2976 3475 2774 3283 
Q 2573 3091 2342 2886 
Q 2272 2970 2150 3066 
Q 2029 3162 1939 3194 
Q 2400 3488 2851 3993 
Q 3302 4499 3667 5203 
Q 3795 5152 3968 5104 
Q 4141 5056 4250 5050 
Q 4307 5043 4316 5004 
Q 4326 4966 4282 4941 
L 4166 4864 
Q 4365 4557 4582 4339 
Q 4800 4122 5043 3971 
Q 5286 3821 5552 3728 
Q 5818 3635 6118 3578 
Q 6003 3488 5900 3331 
Q 5798 3174 5754 3059 
Q 5184 3258 4691 3661 
L 4691 3245 
z
" transform="scale(0.015625)"/>
      <path id="STHeitiSC-Medium-24d" d="M 2842 3834 
Q 2637 4096 2403 4301 
Q 2170 4506 1933 4634 
L 2374 5069 
Q 2707 4800 2944 4557 
Q 3181 4314 3350 4061 
Q 3520 3808 3645 3523 
Q 3770 3238 3885 2874 
Q 4077 2285 4269 1881 
Q 4461 1478 4704 1184 
Q 4947 890 5264 678 
Q 5581 467 6022 262 
Q 5824 96 5715 -41 
Q 5606 -179 5498 -378 
Q 5101 -102 4813 154 
Q 4525 410 4301 733 
Q 4077 1056 3891 1488 
Q 3706 1920 3520 2541 
Q 3405 2918 3213 3277 
Q 3149 3008 3059 2733 
Q 2970 2458 2864 2198 
Q 2758 1939 2640 1699 
Q 2522 1459 2400 1267 
Q 2067 749 1686 326 
Q 1306 -96 934 -371 
Q 806 -224 678 -128 
Q 550 -32 371 38 
Q 614 186 825 349 
Q 1037 512 1225 697 
Q 1414 883 1590 1097 
Q 1766 1312 1933 1574 
Q 2093 1818 2240 2112 
Q 2387 2406 2508 2710 
Q 2630 3014 2716 3305 
Q 2803 3597 2842 3834 
z
" transform="scale(0.015625)"/>
      <path id="STHeitiSC-Medium-3" transform="scale(0.015625)"/>
      <path id="STHeitiSC-Medium-5a" d="M 3078 384 
L 2432 384 
L 1530 1766 
L 634 384 
L 0 384 
L 1210 2221 
L 122 3872 
L 762 3872 
L 1530 2682 
L 2291 3872 
L 2931 3872 
L 1850 2227 
L 3078 384 
z
" transform="scale(0.015625)"/>
     </defs>
     <use xlink:href="#STHeitiSC-Medium-8a9"/>
     <use xlink:href="#STHeitiSC-Medium-24d" transform="translate(100 0)"/>
     <use xlink:href="#STHeitiSC-Medium-3" transform="translate(200 0)"/>
     <use xlink:href="#STHeitiSC-Medium-5a" transform="translate(225 0)"/>
    </g>
    <!-- [batch, seq, hidden] -->
    <g transform="translate(63.114844 200.191823) scale(0.1 -0.1)">
     <defs>
      <path id="STHeitiSC-Medium-3d" d="M 2003 -672 
L 864 -672 
L 864 5370 
L 2003 5370 
L 2003 4838 
L 1389 4838 
L 1389 -154 
L 2003 -154 
L 2003 -672 
z
" transform="scale(0.015625)"/>
      <path id="STHeitiSC-Medium-44" d="M 992 3360 
Q 1536 3962 2297 3962 
Q 3059 3962 3580 3421 
Q 4102 2880 4102 2118 
Q 4102 1357 3571 813 
Q 3040 269 2288 269 
Q 1536 269 992 922 
L 992 384 
L 474 384 
L 474 5184 
L 992 5184 
L 992 3360 
z
M 2266 781 
Q 2810 781 3190 1184 
Q 3571 1587 3571 2128 
Q 3571 2669 3200 3072 
Q 2829 3475 2272 3475 
Q 1715 3475 1340 3097 
Q 966 2720 966 2147 
Q 966 1574 1344 1177 
Q 1722 781 2266 781 
z
" transform="scale(0.015625)"/>
      <path id="STHeitiSC-Medium-43" d="M 3917 384 
L 3398 384 
L 3398 896 
Q 2829 269 2086 269 
Q 1344 269 816 816 
Q 288 1363 288 2121 
Q 288 2880 819 3421 
Q 1350 3962 2115 3962 
Q 2880 3962 3398 3341 
L 3398 3872 
L 3917 3872 
L 3917 384 
z
M 2125 762 
Q 2656 762 3040 1146 
Q 3424 1530 3424 2102 
Q 3424 2675 3046 3062 
Q 2669 3450 2121 3450 
Q 1574 3450 1196 3050 
Q 819 2650 819 2106 
Q 819 1562 1203 1162 
Q 1587 762 2125 762 
z
" transform="scale(0.015625)"/>
      <path id="STHeitiSC-Medium-56" d="M 2048 3411 
L 1357 3411 
L 1357 966 
Q 1357 832 1395 803 
Q 1434 774 1587 774 
L 1894 774 
L 1894 320 
Q 1587 269 1427 269 
Q 1120 269 973 419 
Q 826 570 826 896 
L 826 3411 
L 224 3411 
L 224 3872 
L 826 3872 
L 826 5184 
L 1357 5184 
L 1357 3872 
L 2048 3872 
L 2048 3411 
z
" transform="scale(0.015625)"/>
      <path id="STHeitiSC-Medium-45" d="M 3853 1094 
Q 3578 691 3133 480 
Q 2688 269 2170 269 
Q 1363 269 822 800 
Q 282 1331 282 2099 
Q 282 2867 826 3414 
Q 1370 3962 2234 3962 
Q 2746 3962 3178 3738 
Q 3610 3514 3853 3110 
L 3437 2848 
Q 2970 3456 2214 3456 
Q 1619 3456 1216 3075 
Q 813 2694 813 2131 
Q 813 1568 1209 1165 
Q 1606 762 2214 762 
Q 2944 762 3443 1376 
L 3853 1094 
z
" transform="scale(0.015625)"/>
      <path id="STHeitiSC-Medium-4a" d="M 3501 384 
L 2970 384 
L 2970 2048 
Q 2970 2534 2941 2732 
Q 2912 2931 2809 3107 
Q 2707 3283 2531 3376 
Q 2355 3469 2108 3469 
Q 1862 3469 1638 3353 
Q 1414 3238 1254 3033 
Q 1094 2829 1033 2598 
Q 973 2368 973 1677 
L 973 384 
L 442 384 
L 442 5184 
L 973 5184 
L 973 3347 
Q 1491 3962 2202 3962 
Q 2579 3962 2886 3766 
Q 3194 3571 3347 3228 
Q 3501 2886 3501 2176 
L 3501 384 
z
" transform="scale(0.015625)"/>
      <path id="STHeitiSC-Medium-e" d="M 1408 1414 
L 736 154 
L 346 320 
L 902 1658 
L 1408 1414 
z
" transform="scale(0.015625)"/>
      <path id="STHeitiSC-Medium-55" d="M 2259 3462 
L 1920 3110 
Q 1542 3462 1229 3462 
Q 1030 3462 896 3337 
Q 762 3213 762 3030 
Q 762 2848 912 2710 
Q 1062 2573 1446 2371 
Q 1830 2170 2038 1926 
Q 2246 1683 2246 1331 
Q 2246 883 1936 576 
Q 1626 269 1171 269 
Q 538 269 115 806 
L 448 1178 
Q 794 774 1152 774 
Q 1395 774 1568 934 
Q 1741 1094 1741 1308 
Q 1741 1523 1584 1667 
Q 1427 1811 1046 2003 
Q 666 2195 470 2428 
Q 275 2662 275 3043 
Q 275 3424 553 3693 
Q 832 3962 1289 3962 
Q 1747 3962 2259 3462 
z
" transform="scale(0.015625)"/>
      <path id="STHeitiSC-Medium-47" d="M 3878 2035 
L 819 2035 
Q 851 1459 1206 1110 
Q 1562 762 2054 762 
Q 2893 762 3334 1587 
L 3782 1357 
Q 3482 800 3072 534 
Q 2662 269 2093 269 
Q 1306 269 794 809 
Q 282 1350 282 2112 
Q 282 2874 797 3418 
Q 1312 3962 2073 3962 
Q 2835 3962 3347 3446 
Q 3859 2931 3878 2035 
z
M 3290 2502 
Q 3194 2950 2854 3200 
Q 2515 3450 2074 3450 
Q 1178 3450 883 2502 
L 3290 2502 
z
" transform="scale(0.015625)"/>
      <path id="STHeitiSC-Medium-53" d="M 3917 -851 
L 3398 -851 
L 3398 896 
Q 2835 269 2086 269 
Q 1338 269 813 816 
Q 288 1363 288 2121 
Q 288 2880 819 3421 
Q 1350 3962 2112 3962 
Q 2874 3962 3398 3341 
L 3398 3872 
L 3917 3872 
L 3917 -851 
z
M 2118 762 
Q 2630 762 3030 1149 
Q 3430 1536 3430 2093 
Q 3430 2650 3056 3050 
Q 2682 3450 2131 3450 
Q 1581 3450 1200 3046 
Q 819 2643 819 2099 
Q 819 1555 1206 1158 
Q 1594 762 2118 762 
z
" transform="scale(0.015625)"/>
      <path id="STHeitiSC-Medium-4b" d="M 640 5184 
Q 813 5184 931 5065 
Q 1050 4947 1050 4777 
Q 1050 4608 931 4489 
Q 813 4371 643 4371 
Q 474 4371 355 4492 
Q 237 4614 237 4777 
Q 237 4941 355 5062 
Q 474 5184 640 5184 
z
M 909 384 
L 378 384 
L 378 3872 
L 909 3872 
L 909 384 
z
" transform="scale(0.015625)"/>
      <path id="STHeitiSC-Medium-46" d="M 3923 384 
L 3405 384 
L 3405 896 
Q 2835 269 2089 269 
Q 1344 269 819 813 
Q 294 1357 294 2118 
Q 294 2880 825 3421 
Q 1357 3962 2121 3962 
Q 2886 3962 3405 3341 
L 3405 5184 
L 3923 5184 
L 3923 384 
z
M 2131 762 
Q 2637 762 3033 1139 
Q 3430 1517 3430 2096 
Q 3430 2675 3062 3062 
Q 2694 3450 2134 3450 
Q 1574 3450 1200 3050 
Q 826 2650 826 2109 
Q 826 1568 1210 1165 
Q 1594 762 2131 762 
z
" transform="scale(0.015625)"/>
      <path id="STHeitiSC-Medium-50" d="M 3501 384 
L 2976 384 
L 2976 2048 
Q 2976 2624 2921 2832 
Q 2867 3040 2761 3184 
Q 2656 3328 2493 3398 
Q 2330 3469 2096 3469 
Q 1862 3469 1638 3353 
Q 1414 3238 1254 3033 
Q 1094 2829 1033 2598 
Q 973 2368 973 1677 
L 973 384 
L 442 384 
L 442 3872 
L 973 3872 
L 973 3347 
Q 1491 3962 2202 3962 
Q 2579 3962 2886 3766 
Q 3194 3571 3347 3228 
Q 3501 2886 3501 2176 
L 3501 384 
z
" transform="scale(0.015625)"/>
      <path id="STHeitiSC-Medium-3f" d="M 1382 -672 
L 243 -672 
L 243 -154 
L 858 -154 
L 858 4838 
L 243 4838 
L 243 5370 
L 1382 5370 
L 1382 -672 
z
" transform="scale(0.015625)"/>
     </defs>
     <use xlink:href="#STHeitiSC-Medium-3d"/>
     <use xlink:href="#STHeitiSC-Medium-44" transform="translate(35.09375 0)"/>
     <use xlink:href="#STHeitiSC-Medium-43" transform="translate(103.296875 0)"/>
     <use xlink:href="#STHeitiSC-Medium-56" transform="translate(171.59375 0)"/>
     <use xlink:href="#STHeitiSC-Medium-45" transform="translate(205.5 0)"/>
     <use xlink:href="#STHeitiSC-Medium-4a" transform="translate(270.203125 0)"/>
     <use xlink:href="#STHeitiSC-Medium-e" transform="translate(331.203125 0)"/>
     <use xlink:href="#STHeitiSC-Medium-3" transform="translate(358.90625 0)"/>
     <use xlink:href="#STHeitiSC-Medium-55" transform="translate(383.90625 0)"/>
     <use xlink:href="#STHeitiSC-Medium-47" transform="translate(422.703125 0)"/>
     <use xlink:href="#STHeitiSC-Medium-53" transform="translate(487.703125 0)"/>
     <use xlink:href="#STHeitiSC-Medium-e" transform="translate(555.90625 0)"/>
     <use xlink:href="#STHeitiSC-Medium-3" transform="translate(583.609375 0)"/>
     <use xlink:href="#STHeitiSC-Medium-4a" transform="translate(608.609375 0)"/>
     <use xlink:href="#STHeitiSC-Medium-4b" transform="translate(669.609375 0)"/>
     <use xlink:href="#STHeitiSC-Medium-46" transform="translate(689.609375 0)"/>
     <use xlink:href="#STHeitiSC-Medium-46" transform="translate(758.109375 0)"/>
     <use xlink:href="#STHeitiSC-Medium-47" transform="translate(826.609375 0)"/>
     <use xlink:href="#STHeitiSC-Medium-50" transform="translate(891.609375 0)"/>
     <use xlink:href="#STHeitiSC-Medium-3f" transform="translate(952.609375 0)"/>
    </g>
    <!-- (Replicate) -->
    <g transform="translate(85.51875 210.92151) scale(0.1 -0.1)">
     <defs>
      <path id="STHeitiSC-Medium-a" d="M 2048 5779 
Q 1709 5082 1526 4237 
Q 1344 3392 1344 2541 
Q 1344 877 1888 -442 
L 1312 -442 
Q 787 819 787 2483 
Q 787 4275 1440 5779 
L 2048 5779 
z
" transform="scale(0.015625)"/>
      <path id="STHeitiSC-Medium-34" d="M 3622 384 
L 2931 384 
L 1280 2522 
L 1088 2522 
L 1088 384 
L 538 384 
L 538 5069 
L 1498 5069 
Q 2266 5069 2554 5001 
Q 2842 4934 3053 4774 
Q 3264 4614 3385 4361 
Q 3507 4109 3507 3802 
Q 3507 3219 3110 2870 
Q 2714 2522 1965 2522 
L 3622 384 
z
M 1088 3059 
L 1837 3059 
Q 2400 3053 2669 3229 
Q 2938 3405 2938 3792 
Q 2938 4179 2675 4355 
Q 2413 4531 1856 4531 
L 1088 4531 
L 1088 3059 
z
" transform="scale(0.015625)"/>
      <path id="STHeitiSC-Medium-52" d="M 973 3341 
Q 1491 3962 2252 3962 
Q 3014 3962 3545 3421 
Q 4077 2880 4077 2118 
Q 4077 1357 3552 813 
Q 3027 269 2284 269 
Q 1542 269 973 896 
L 973 -851 
L 448 -851 
L 448 3872 
L 973 3872 
L 973 3341 
z
M 2253 762 
Q 2778 762 3165 1155 
Q 3552 1549 3552 2105 
Q 3552 2662 3171 3056 
Q 2790 3450 2240 3450 
Q 1690 3450 1315 3062 
Q 941 2675 941 2105 
Q 941 1536 1325 1149 
Q 1709 762 2253 762 
z
" transform="scale(0.015625)"/>
      <path id="STHeitiSC-Medium-4e" d="M 902 384 
L 378 384 
L 378 5184 
L 902 5184 
L 902 384 
z
" transform="scale(0.015625)"/>
      <path id="STHeitiSC-Medium-b" d="M 922 5779 
Q 1574 4275 1574 2483 
Q 1574 819 1050 -442 
L 474 -442 
Q 1018 877 1018 2541 
Q 1018 3392 835 4237 
Q 653 5082 314 5779 
L 922 5779 
z
" transform="scale(0.015625)"/>
     </defs>
     <use xlink:href="#STHeitiSC-Medium-a"/>
     <use xlink:href="#STHeitiSC-Medium-34" transform="translate(36.90625 0)"/>
     <use xlink:href="#STHeitiSC-Medium-47" transform="translate(97.609375 0)"/>
     <use xlink:href="#STHeitiSC-Medium-52" transform="translate(162.609375 0)"/>
     <use xlink:href="#STHeitiSC-Medium-4e" transform="translate(230.8125 0)"/>
     <use xlink:href="#STHeitiSC-Medium-4b" transform="translate(250.8125 0)"/>
     <use xlink:href="#STHeitiSC-Medium-45" transform="translate(270.8125 0)"/>
     <use xlink:href="#STHeitiSC-Medium-43" transform="translate(335.515625 0)"/>
     <use xlink:href="#STHeitiSC-Medium-56" transform="translate(403.8125 0)"/>
     <use xlink:href="#STHeitiSC-Medium-47" transform="translate(437.71875 0)"/>
     <use xlink:href="#STHeitiSC-Medium-b" transform="translate(502.71875 0)"/>
    </g>
   </g>
   <g id="text_2">
    <!-- w1 -->
    <g transform="translate(303.52 116.611458) scale(0.08 -0.08)">
     <defs>
      <path id="STHeitiSC-Medium-59" d="M 5299 3872 
L 3808 269 
L 3674 269 
L 2650 2752 
L 1619 269 
L 1485 269 
L 19 3872 
L 563 3872 
L 1549 1363 
L 2586 3872 
L 2714 3872 
L 3744 1357 
L 4749 3872 
L 5299 3872 
z
" transform="scale(0.015625)"/>
      <path id="STHeitiSC-Medium-13" d="M 2131 384 
L 1587 384 
L 1587 4531 
L 826 4531 
L 1158 5069 
L 2131 5069 
L 2131 384 
z
" transform="scale(0.015625)"/>
     </defs>
     <use xlink:href="#STHeitiSC-Medium-59"/>
     <use xlink:href="#STHeitiSC-Medium-13" transform="translate(83.09375 0)"/>
    </g>
    <!-- 列 [0:I/4) -->
    <g transform="translate(292.9875 125.195208) scale(0.08 -0.08)">
     <defs>
      <path id="STHeitiSC-Medium-509" d="M 5837 4954 
Q 5792 4922 5779 4886 
Q 5766 4851 5766 4762 
L 5766 250 
Q 5766 6 5734 -147 
Q 5702 -301 5590 -397 
Q 5478 -493 5264 -553 
Q 5050 -614 4678 -678 
Q 4627 -346 4352 6 
Q 4653 -6 4829 0 
Q 5005 6 5097 51 
Q 5190 96 5216 179 
Q 5242 262 5242 397 
L 5242 4070 
Q 5242 4448 5232 4713 
Q 5222 4979 5210 5133 
Q 5338 5107 5501 5094 
Q 5664 5082 5779 5088 
Q 5875 5094 5888 5052 
Q 5901 5011 5837 4954 
z
M 4614 4154 
Q 4544 4109 4544 3949 
L 4544 1747 
Q 4544 1555 4550 1356 
Q 4557 1158 4576 934 
L 4013 934 
Q 4026 1171 4032 1363 
Q 4038 1555 4038 1747 
L 4038 3590 
Q 4038 3834 4032 4003 
Q 4026 4173 4013 4301 
Q 4160 4275 4310 4272 
Q 4461 4269 4582 4282 
Q 4666 4294 4675 4249 
Q 4685 4205 4614 4154 
z
M 3507 3379 
Q 3424 2656 3264 2067 
Q 3104 1478 2886 1062 
Q 2778 864 2602 643 
Q 2426 422 2198 208 
Q 1971 -6 1705 -208 
Q 1440 -410 1165 -576 
Q 1133 -531 1075 -467 
Q 1018 -403 950 -339 
Q 883 -275 812 -220 
Q 742 -166 691 -134 
Q 890 -58 1114 70 
Q 1338 198 1555 358 
Q 1773 518 1965 700 
Q 2157 883 2291 1069 
Q 2221 1146 2125 1248 
Q 2029 1350 1923 1449 
Q 1818 1549 1709 1641 
Q 1600 1734 1517 1798 
L 1888 2163 
Q 2061 2022 2224 1878 
Q 2387 1734 2560 1568 
Q 2637 1728 2691 1872 
Q 2746 2016 2790 2169 
Q 2835 2323 2867 2502 
Q 2899 2682 2931 2912 
L 1894 2912 
Q 1811 2714 1702 2506 
Q 1594 2298 1472 2096 
Q 1350 1894 1219 1708 
Q 1088 1523 966 1382 
Q 877 1491 752 1574 
Q 627 1658 493 1696 
Q 736 1907 941 2188 
Q 1146 2470 1306 2796 
Q 1466 3123 1571 3481 
Q 1677 3840 1728 4205 
Q 1363 4198 1097 4185 
Q 832 4173 608 4147 
L 608 4730 
Q 896 4698 1261 4682 
Q 1626 4666 2163 4666 
Q 2707 4666 3068 4682 
Q 3430 4698 3718 4730 
L 3718 4147 
Q 3443 4179 3097 4195 
Q 2752 4211 2246 4211 
Q 2202 3821 2054 3379 
L 3507 3379 
z
" transform="scale(0.015625)"/>
      <path id="STHeitiSC-Medium-12" d="M 1747 5184 
Q 2502 5184 2944 4547 
Q 3386 3910 3386 2723 
Q 3386 1536 2938 902 
Q 2490 269 1738 269 
Q 986 269 573 893 
Q 160 1517 160 2729 
Q 160 3942 573 4563 
Q 986 5184 1747 5184 
z
M 1760 774 
Q 2285 774 2576 1283 
Q 2867 1792 2867 2726 
Q 2867 3661 2566 4160 
Q 2266 4659 1757 4659 
Q 1248 4659 966 4160 
Q 685 3661 685 2714 
Q 685 774 1760 774 
z
" transform="scale(0.015625)"/>
      <path id="STHeitiSC-Medium-1c" d="M 966 4282 
Q 1146 4282 1270 4157 
Q 1395 4032 1395 3849 
Q 1395 3667 1273 3542 
Q 1152 3418 969 3418 
Q 787 3418 662 3542 
Q 538 3667 538 3846 
Q 538 4026 666 4154 
Q 794 4282 966 4282 
z
M 966 1478 
Q 1146 1478 1270 1353 
Q 1395 1229 1395 1046 
Q 1395 864 1270 739 
Q 1146 614 970 614 
Q 794 614 666 742 
Q 538 870 538 1049 
Q 538 1229 666 1353 
Q 794 1478 966 1478 
z
" transform="scale(0.015625)"/>
      <path id="STHeitiSC-Medium-2b" d="M 998 384 
L 448 384 
L 448 5069 
L 998 5069 
L 998 384 
z
" transform="scale(0.015625)"/>
      <path id="STHeitiSC-Medium-11" d="M 2675 5504 
L 736 77 
L 160 77 
L 2099 5504 
L 2675 5504 
z
" transform="scale(0.015625)"/>
      <path id="STHeitiSC-Medium-16" d="M 3418 1453 
L 2861 1453 
L 2861 384 
L 2317 384 
L 2317 1453 
L 70 1453 
L 2701 5184 
L 2861 5184 
L 2861 1984 
L 3418 1984 
L 3418 1453 
z
M 2317 1984 
L 2317 3712 
L 1094 1984 
L 2317 1984 
z
" transform="scale(0.015625)"/>
     </defs>
     <use xlink:href="#STHeitiSC-Medium-509"/>
     <use xlink:href="#STHeitiSC-Medium-3" transform="translate(100 0)"/>
     <use xlink:href="#STHeitiSC-Medium-3d" transform="translate(125 0)"/>
     <use xlink:href="#STHeitiSC-Medium-12" transform="translate(160.09375 0)"/>
     <use xlink:href="#STHeitiSC-Medium-1c" transform="translate(215.5 0)"/>
     <use xlink:href="#STHeitiSC-Medium-2b" transform="translate(243.203125 0)"/>
     <use xlink:href="#STHeitiSC-Medium-11" transform="translate(265.796875 0)"/>
     <use xlink:href="#STHeitiSC-Medium-16" transform="translate(309.5 0)"/>
     <use xlink:href="#STHeitiSC-Medium-b" transform="translate(364.90625 0)"/>
    </g>
   </g>
   <g id="text_3">
    <!-- w3 -->
    <g transform="translate(303.52 221.655903) scale(0.08 -0.08)">
     <defs>
      <path id="STHeitiSC-Medium-15" d="M 2554 3021 
Q 2931 2835 3139 2508 
Q 3347 2182 3347 1798 
Q 3347 1171 2889 720 
Q 2432 269 1734 269 
Q 1107 269 707 630 
Q 307 992 166 1702 
L 710 1702 
Q 832 1248 1072 1027 
Q 1312 806 1757 806 
Q 2202 806 2502 1084 
Q 2803 1363 2803 1785 
Q 2803 2208 2460 2457 
Q 2118 2707 1453 2720 
L 1453 3232 
Q 1933 3232 2227 3437 
Q 2522 3642 2522 3946 
Q 2522 4250 2294 4451 
Q 2067 4653 1744 4653 
Q 1421 4653 1219 4470 
Q 1018 4288 877 3917 
L 320 3917 
Q 461 4531 832 4857 
Q 1203 5184 1747 5184 
Q 2291 5184 2691 4825 
Q 3091 4467 3091 3955 
Q 3091 3366 2554 3021 
z
" transform="scale(0.015625)"/>
     </defs>
     <use xlink:href="#STHeitiSC-Medium-59"/>
     <use xlink:href="#STHeitiSC-Medium-15" transform="translate(83.09375 0)"/>
    </g>
    <!-- 列 [0:I/4) -->
    <g transform="translate(292.9875 230.239653) scale(0.08 -0.08)">
     <use xlink:href="#STHeitiSC-Medium-509"/>
     <use xlink:href="#STHeitiSC-Medium-3" transform="translate(100 0)"/>
     <use xlink:href="#STHeitiSC-Medium-3d" transform="translate(125 0)"/>
     <use xlink:href="#STHeitiSC-Medium-12" transform="translate(160.09375 0)"/>
     <use xlink:href="#STHeitiSC-Medium-1c" transform="translate(215.5 0)"/>
     <use xlink:href="#STHeitiSC-Medium-2b" transform="translate(243.203125 0)"/>
     <use xlink:href="#STHeitiSC-Medium-11" transform="translate(265.796875 0)"/>
     <use xlink:href="#STHeitiSC-Medium-16" transform="translate(309.5 0)"/>
     <use xlink:href="#STHeitiSC-Medium-b" transform="translate(364.90625 0)"/>
    </g>
   </g>
   <g id="text_4">
    <!-- GPU 0 -->
    <g transform="translate(297.3675 339.830903) scale(0.08 -0.08)">
     <defs>
      <path id="STHeitiSC-Medium-29" d="M 5325 2675 
Q 5306 1536 4662 902 
Q 4019 269 2970 269 
Q 1766 269 1049 1008 
Q 333 1747 333 2739 
Q 333 3731 1049 4457 
Q 1766 5184 2899 5184 
Q 3514 5184 4042 4957 
Q 4570 4730 5075 4262 
L 4653 3859 
Q 4262 4237 3808 4438 
Q 3354 4640 2874 4640 
Q 2394 4640 1920 4384 
Q 1446 4128 1177 3693 
Q 909 3258 909 2752 
Q 909 1965 1501 1379 
Q 2093 794 2982 794 
Q 3642 794 4122 1155 
Q 4602 1517 4710 2144 
L 3251 2144 
L 3251 2675 
L 5325 2675 
z
" transform="scale(0.015625)"/>
      <path id="STHeitiSC-Medium-32" d="M 512 5069 
L 1472 5069 
Q 2291 5069 2547 5005 
Q 2803 4941 3017 4774 
Q 3232 4608 3353 4358 
Q 3475 4109 3475 3795 
Q 3475 3482 3356 3232 
Q 3238 2982 3017 2819 
Q 2797 2656 2477 2589 
Q 2157 2522 1344 2522 
L 1062 2522 
L 1062 384 
L 512 384 
L 512 5069 
z
M 1062 3053 
L 1792 3053 
Q 2438 3040 2672 3257 
Q 2906 3475 2906 3802 
Q 2906 4531 1830 4531 
L 1062 4531 
L 1062 3053 
z
" transform="scale(0.015625)"/>
      <path id="STHeitiSC-Medium-37" d="M 3661 2253 
Q 3661 1542 3517 1161 
Q 3373 781 3005 525 
Q 2637 269 2144 269 
Q 1754 269 1440 393 
Q 1126 518 918 745 
Q 710 973 620 1251 
Q 531 1530 531 2253 
L 531 5069 
L 1082 5069 
L 1082 2253 
Q 1082 1798 1107 1596 
Q 1133 1395 1254 1206 
Q 1376 1018 1603 906 
Q 1830 794 2118 794 
Q 2464 794 2717 995 
Q 2970 1197 3043 1462 
Q 3117 1728 3117 2253 
L 3117 5069 
L 3661 5069 
L 3661 2253 
z
" transform="scale(0.015625)"/>
     </defs>
     <use xlink:href="#STHeitiSC-Medium-29"/>
     <use xlink:href="#STHeitiSC-Medium-32" transform="translate(87.203125 0)"/>
     <use xlink:href="#STHeitiSC-Medium-37" transform="translate(146.40625 0)"/>
     <use xlink:href="#STHeitiSC-Medium-3" transform="translate(211.90625 0)"/>
     <use xlink:href="#STHeitiSC-Medium-12" transform="translate(236.90625 0)"/>
    </g>
    <!-- silu(aᵢ)·bᵢ -->
    <g transform="translate(289.63375 348.414653) scale(0.08 -0.08)">
     <defs>
      <path id="STHeitiSC-Medium-57" d="M 3450 384 
L 2918 384 
L 2918 909 
Q 2400 294 1690 294 
Q 1312 294 1005 489 
Q 698 685 544 1027 
Q 390 1370 390 2080 
L 390 3872 
L 915 3872 
L 915 2208 
Q 915 1632 969 1424 
Q 1024 1216 1129 1072 
Q 1235 928 1398 857 
Q 1562 787 1795 787 
Q 2029 787 2253 902 
Q 2477 1018 2637 1222 
Q 2797 1427 2857 1657 
Q 2918 1888 2918 2579 
L 2918 3872 
L 3450 3872 
L 3450 384 
z
" transform="scale(0.015625)"/>
      <path id="DejaVuSans-8c4" d="M 381 1959 
L 744 1959 
L 744 0 
L 381 0 
L 381 1959 
z
M 381 2721 
L 744 2721 
L 744 2315 
L 381 2315 
L 381 2721 
z
" transform="scale(0.015625)"/>
      <path id="STHeitiSC-Medium-94" d="M 3603 1741 
L 2797 1741 
L 2797 2560 
L 3603 2560 
L 3603 1741 
z
" transform="scale(0.015625)"/>
     </defs>
     <use xlink:href="#STHeitiSC-Medium-55"/>
     <use xlink:href="#STHeitiSC-Medium-4b" transform="translate(38.796875 0)"/>
     <use xlink:href="#STHeitiSC-Medium-4e" transform="translate(58.796875 0)"/>
     <use xlink:href="#STHeitiSC-Medium-57" transform="translate(78.796875 0)"/>
     <use xlink:href="#STHeitiSC-Medium-a" transform="translate(139.59375 0)"/>
     <use xlink:href="#STHeitiSC-Medium-43" transform="translate(176.5 0)"/>
     <use xlink:href="#DejaVuSans-8c4" transform="translate(244.796875 0)"/>
     <use xlink:href="#STHeitiSC-Medium-b" transform="translate(262.671875 0)"/>
     <use xlink:href="#STHeitiSC-Medium-94" transform="translate(299.578125 0)"/>
     <use xlink:href="#STHeitiSC-Medium-44" transform="translate(399.578125 0)"/>
     <use xlink:href="#DejaVuSans-8c4" transform="translate(467.78125 0)"/>
    </g>
   </g>
   <g id="patch_15">
    <path d="M 184.41601 169.511316 
Q 245.88024 132.4668 306.195395 96.114832 
" style="fill: none; stroke: #1565c0; stroke-width: 1.2; stroke-linecap: round"/>
    <path d="M 301.737121 96.466671 
L 306.195395 96.114832 
L 303.801902 99.892555 
" style="fill: none; stroke: #1565c0; stroke-width: 1.2; stroke-linecap: round"/>
   </g>
   <g id="patch_16">
    <path d="M 184.693656 186.426523 
Q 245.880546 190.241423 305.728396 193.972836 
" style="fill: none; stroke: #1565c0; stroke-width: 1.2; stroke-linecap: round"/>
    <path d="M 301.860603 191.727802 
L 305.728396 193.972836 
L 301.611693 195.72005 
" style="fill: none; stroke: #1565c0; stroke-width: 1.2; stroke-linecap: round"/>
   </g>
   <g id="patch_17">
    <path d="M 309.06 256.578424 
Q 309.06 276.900881 309.06 295.546288 
" style="fill: none; stroke: #ef6c00; stroke-width: 1.5; stroke-linecap: round"/>
    <path d="M 311.06 291.546288 
L 309.06 295.546288 
L 307.06 291.546288 
" style="fill: none; stroke: #ef6c00; stroke-width: 1.5; stroke-linecap: round"/>
   </g>
   <g id="patch_18">
    <path d="M 309.06 148.913959 
Q 309.06 223.067192 309.06 295.543374 
" style="fill: none; stroke: #ef6c00; stroke-width: 1.5; stroke-linecap: round"/>
    <path d="M 311.06 291.543374 
L 309.06 295.543374 
L 307.06 291.543374 
" style="fill: none; stroke: #ef6c00; stroke-width: 1.5; stroke-linecap: round"/>
   </g>
   <g id="text_5">
    <!-- w1 -->
    <g transform="translate(443.92 116.611458) scale(0.08 -0.08)">
     <use xlink:href="#STHeitiSC-Medium-59"/>
     <use xlink:href="#STHeitiSC-Medium-13" transform="translate(83.09375 0)"/>
    </g>
    <!-- 列 [I/4:I/2) -->
    <g transform="translate(430.735625 125.195208) scale(0.08 -0.08)">
     <defs>
      <path id="STHeitiSC-Medium-14" d="M 3360 384 
L 90 384 
L 1914 2355 
Q 2374 2842 2566 3123 
Q 2758 3405 2758 3763 
Q 2758 4122 2480 4390 
Q 2202 4659 1789 4659 
Q 1376 4659 1101 4368 
Q 826 4077 787 3539 
L 256 3539 
Q 288 4294 736 4739 
Q 1184 5184 1821 5184 
Q 2458 5184 2877 4771 
Q 3296 4358 3296 3763 
Q 3296 3328 3065 2950 
Q 2835 2573 2368 2074 
L 1293 915 
L 3360 915 
L 3360 384 
z
" transform="scale(0.015625)"/>
     </defs>
     <use xlink:href="#STHeitiSC-Medium-509"/>
     <use xlink:href="#STHeitiSC-Medium-3" transform="translate(100 0)"/>
     <use xlink:href="#STHeitiSC-Medium-3d" transform="translate(125 0)"/>
     <use xlink:href="#STHeitiSC-Medium-2b" transform="translate(160.09375 0)"/>
     <use xlink:href="#STHeitiSC-Medium-11" transform="translate(182.6875 0)"/>
     <use xlink:href="#STHeitiSC-Medium-16" transform="translate(226.390625 0)"/>
     <use xlink:href="#STHeitiSC-Medium-1c" transform="translate(281.796875 0)"/>
     <use xlink:href="#STHeitiSC-Medium-2b" transform="translate(309.5 0)"/>
     <use xlink:href="#STHeitiSC-Medium-11" transform="translate(332.09375 0)"/>
     <use xlink:href="#STHeitiSC-Medium-14" transform="translate(375.796875 0)"/>
     <use xlink:href="#STHeitiSC-Medium-b" transform="translate(431.203125 0)"/>
    </g>
   </g>
   <g id="text_6">
    <!-- w3 -->
    <g transform="translate(443.92 221.655903) scale(0.08 -0.08)">
     <use xlink:href="#STHeitiSC-Medium-59"/>
     <use xlink:href="#STHeitiSC-Medium-15" transform="translate(83.09375 0)"/>
    </g>
    <!-- 列 [I/4:I/2) -->
    <g transform="translate(430.735625 230.239653) scale(0.08 -0.08)">
     <use xlink:href="#STHeitiSC-Medium-509"/>
     <use xlink:href="#STHeitiSC-Medium-3" transform="translate(100 0)"/>
     <use xlink:href="#STHeitiSC-Medium-3d" transform="translate(125 0)"/>
     <use xlink:href="#STHeitiSC-Medium-2b" transform="translate(160.09375 0)"/>
     <use xlink:href="#STHeitiSC-Medium-11" transform="translate(182.6875 0)"/>
     <use xlink:href="#STHeitiSC-Medium-16" transform="translate(226.390625 0)"/>
     <use xlink:href="#STHeitiSC-Medium-1c" transform="translate(281.796875 0)"/>
     <use xlink:href="#STHeitiSC-Medium-2b" transform="translate(309.5 0)"/>
     <use xlink:href="#STHeitiSC-Medium-11" transform="translate(332.09375 0)"/>
     <use xlink:href="#STHeitiSC-Medium-14" transform="translate(375.796875 0)"/>
     <use xlink:href="#STHeitiSC-Medium-b" transform="translate(431.203125 0)"/>
    </g>
   </g>
   <g id="text_7">
    <!-- GPU 1 -->
    <g transform="translate(437.7675 339.830903) scale(0.08 -0.08)">
     <use xlink:href="#STHeitiSC-Medium-29"/>
     <use xlink:href="#STHeitiSC-Medium-32" transform="translate(87.203125 0)"/>
     <use xlink:href="#STHeitiSC-Medium-37" transform="translate(146.40625 0)"/>
     <use xlink:href="#STHeitiSC-Medium-3" transform="translate(211.90625 0)"/>
     <use xlink:href="#STHeitiSC-Medium-13" transform="translate(236.90625 0)"/>
    </g>
    <!-- silu(aᵢ)·bᵢ -->
    <g transform="translate(430.03375 348.414653) scale(0.08 -0.08)">
     <use xlink:href="#STHeitiSC-Medium-55"/>
     <use xlink:href="#STHeitiSC-Medium-4b" transform="translate(38.796875 0)"/>
     <use xlink:href="#STHeitiSC-Medium-4e" transform="translate(58.796875 0)"/>
     <use xlink:href="#STHeitiSC-Medium-57" transform="translate(78.796875 0)"/>
     <use xlink:href="#STHeitiSC-Medium-a" transform="translate(139.59375 0)"/>
     <use xlink:href="#STHeitiSC-Medium-43" transform="translate(176.5 0)"/>
     <use xlink:href="#DejaVuSans-8c4" transform="translate(244.796875 0)"/>
     <use xlink:href="#STHeitiSC-Medium-b" transform="translate(262.671875 0)"/>
     <use xlink:href="#STHeitiSC-Medium-94" transform="translate(299.578125 0)"/>
     <use xlink:href="#STHeitiSC-Medium-44" transform="translate(399.578125 0)"/>
     <use xlink:href="#DejaVuSans-8c4" transform="translate(467.78125 0)"/>
    </g>
   </g>
   <g id="patch_19">
    <path d="M 184.625316 169.995898 
Q 316.082907 132.466115 446.250402 95.30464 
" style="fill: none; stroke: #1565c0; stroke-width: 1.2; stroke-linecap: round"/>
    <path d="M 441.855035 94.479564 
L 446.250402 95.30464 
L 442.953121 98.325888 
" style="fill: none; stroke: #1565c0; stroke-width: 1.2; stroke-linecap: round"/>
   </g>
   <g id="patch_20">
    <path d="M 184.698583 186.361247 
Q 316.079407 190.241371 446.119174 194.08189 
" style="fill: none; stroke: #1565c0; stroke-width: 1.2; stroke-linecap: round"/>
    <path d="M 442.179959 191.964679 
L 446.119174 194.08189 
L 442.061877 195.962936 
" style="fill: none; stroke: #1565c0; stroke-width: 1.2; stroke-linecap: round"/>
   </g>
   <g id="patch_21">
    <path d="M 449.46 256.578424 
Q 449.46 276.900881 449.46 295.546288 
" style="fill: none; stroke: #ef6c00; stroke-width: 1.5; stroke-linecap: round"/>
    <path d="M 451.46 291.546288 
L 449.46 295.546288 
L 447.46 291.546288 
" style="fill: none; stroke: #ef6c00; stroke-width: 1.5; stroke-linecap: round"/>
   </g>
   <g id="patch_22">
    <path d="M 449.46 148.913959 
Q 449.46 223.067192 449.46 295.543374 
" style="fill: none; stroke: #ef6c00; stroke-width: 1.5; stroke-linecap: round"/>
    <path d="M 451.46 291.543374 
L 449.46 295.543374 
L 447.46 291.543374 
" style="fill: none; stroke: #ef6c00; stroke-width: 1.5; stroke-linecap: round"/>
   </g>
   <g id="text_8">
    <!-- w1 -->
    <g transform="translate(584.32 116.611458) scale(0.08 -0.08)">
     <use xlink:href="#STHeitiSC-Medium-59"/>
     <use xlink:href="#STHeitiSC-Medium-13" transform="translate(83.09375 0)"/>
    </g>
    <!-- 列 [I/2:3I/4) -->
    <g transform="translate(568.919375 125.195208) scale(0.08 -0.08)">
     <use xlink:href="#STHeitiSC-Medium-509"/>
     <use xlink:href="#STHeitiSC-Medium-3" transform="translate(100 0)"/>
     <use xlink:href="#STHeitiSC-Medium-3d" transform="translate(125 0)"/>
     <use xlink:href="#STHeitiSC-Medium-2b" transform="translate(160.09375 0)"/>
     <use xlink:href="#STHeitiSC-Medium-11" transform="translate(182.6875 0)"/>
     <use xlink:href="#STHeitiSC-Medium-14" transform="translate(226.390625 0)"/>
     <use xlink:href="#STHeitiSC-Medium-1c" transform="translate(281.796875 0)"/>
     <use xlink:href="#STHeitiSC-Medium-15" transform="translate(309.5 0)"/>
     <use xlink:href="#STHeitiSC-Medium-2b" transform="translate(364.90625 0)"/>
     <use xlink:href="#STHeitiSC-Medium-11" transform="translate(387.5 0)"/>
     <use xlink:href="#STHeitiSC-Medium-16" transform="translate(431.203125 0)"/>
     <use xlink:href="#STHeitiSC-Medium-b" transform="translate(486.609375 0)"/>
    </g>
   </g>
   <g id="text_9">
    <!-- w3 -->
    <g transform="translate(584.32 221.655903) scale(0.08 -0.08)">
     <use xlink:href="#STHeitiSC-Medium-59"/>
     <use xlink:href="#STHeitiSC-Medium-15" transform="translate(83.09375 0)"/>
    </g>
    <!-- 列 [I/2:3I/4) -->
    <g transform="translate(568.919375 230.239653) scale(0.08 -0.08)">
     <use xlink:href="#STHeitiSC-Medium-509"/>
     <use xlink:href="#STHeitiSC-Medium-3" transform="translate(100 0)"/>
     <use xlink:href="#STHeitiSC-Medium-3d" transform="translate(125 0)"/>
     <use xlink:href="#STHeitiSC-Medium-2b" transform="translate(160.09375 0)"/>
     <use xlink:href="#STHeitiSC-Medium-11" transform="translate(182.6875 0)"/>
     <use xlink:href="#STHeitiSC-Medium-14" transform="translate(226.390625 0)"/>
     <use xlink:href="#STHeitiSC-Medium-1c" transform="translate(281.796875 0)"/>
     <use xlink:href="#STHeitiSC-Medium-15" transform="translate(309.5 0)"/>
     <use xlink:href="#STHeitiSC-Medium-2b" transform="translate(364.90625 0)"/>
     <use xlink:href="#STHeitiSC-Medium-11" transform="translate(387.5 0)"/>
     <use xlink:href="#STHeitiSC-Medium-16" transform="translate(431.203125 0)"/>
     <use xlink:href="#STHeitiSC-Medium-b" transform="translate(486.609375 0)"/>
    </g>
   </g>
   <g id="text_10">
    <!-- GPU 2 -->
    <g transform="translate(578.1675 339.830903) scale(0.08 -0.08)">
     <use xlink:href="#STHeitiSC-Medium-29"/>
     <use xlink:href="#STHeitiSC-Medium-32" transform="translate(87.203125 0)"/>
     <use xlink:href="#STHeitiSC-Medium-37" transform="translate(146.40625 0)"/>
     <use xlink:href="#STHeitiSC-Medium-3" transform="translate(211.90625 0)"/>
     <use xlink:href="#STHeitiSC-Medium-14" transform="translate(236.90625 0)"/>
    </g>
    <!-- silu(aᵢ)·bᵢ -->
    <g transform="translate(570.43375 348.414653) scale(0.08 -0.08)">
     <use xlink:href="#STHeitiSC-Medium-55"/>
     <use xlink:href="#STHeitiSC-Medium-4b" transform="translate(38.796875 0)"/>
     <use xlink:href="#STHeitiSC-Medium-4e" transform="translate(58.796875 0)"/>
     <use xlink:href="#STHeitiSC-Medium-57" transform="translate(78.796875 0)"/>
     <use xlink:href="#STHeitiSC-Medium-a" transform="translate(139.59375 0)"/>
     <use xlink:href="#STHeitiSC-Medium-43" transform="translate(176.5 0)"/>
     <use xlink:href="#DejaVuSans-8c4" transform="translate(244.796875 0)"/>
     <use xlink:href="#STHeitiSC-Medium-b" transform="translate(262.671875 0)"/>
     <use xlink:href="#STHeitiSC-Medium-94" transform="translate(299.578125 0)"/>
     <use xlink:href="#STHeitiSC-Medium-44" transform="translate(399.578125 0)"/>
     <use xlink:href="#DejaVuSans-8c4" transform="translate(467.78125 0)"/>
    </g>
   </g>
   <g id="patch_23">
    <path d="M 184.666341 170.177761 
Q 386.281657 132.466635 586.578202 95.002177 
" style="fill: none; stroke: #1565c0; stroke-width: 1.2; stroke-linecap: round"/>
    <path d="M 582.278677 93.771696 
L 586.578202 95.002177 
L 583.014103 97.703509 
" style="fill: none; stroke: #1565c0; stroke-width: 1.2; stroke-linecap: round"/>
   </g>
   <g id="patch_24">
    <path d="M 184.697405 186.340871 
Q 386.278717 190.241364 586.518639 194.115902 
" style="fill: none; stroke: #1565c0; stroke-width: 1.2; stroke-linecap: round"/>
    <path d="M 582.55808 192.038893 
L 586.518639 194.115902 
L 582.480696 196.038144 
" style="fill: none; stroke: #1565c0; stroke-width: 1.2; stroke-linecap: round"/>
   </g>
   <g id="patch_25">
    <path d="M 589.86 256.578424 
Q 589.86 276.900881 589.86 295.546288 
" style="fill: none; stroke: #ef6c00; stroke-width: 1.5; stroke-linecap: round"/>
    <path d="M 591.86 291.546288 
L 589.86 295.546288 
L 587.86 291.546288 
" style="fill: none; stroke: #ef6c00; stroke-width: 1.5; stroke-linecap: round"/>
   </g>
   <g id="patch_26">
    <path d="M 589.86 148.913959 
Q 589.86 223.067192 589.86 295.543374 
" style="fill: none; stroke: #ef6c00; stroke-width: 1.5; stroke-linecap: round"/>
    <path d="M 591.86 291.543374 
L 589.86 295.543374 
L 587.86 291.543374 
" style="fill: none; stroke: #ef6c00; stroke-width: 1.5; stroke-linecap: round"/>
   </g>
   <g id="text_11">
    <!-- w1 -->
    <g transform="translate(724.72 116.611458) scale(0.08 -0.08)">
     <use xlink:href="#STHeitiSC-Medium-59"/>
     <use xlink:href="#STHeitiSC-Medium-13" transform="translate(83.09375 0)"/>
    </g>
    <!-- 列 [3I/4:I) -->
    <g transform="translate(713.28375 125.195208) scale(0.08 -0.08)">
     <use xlink:href="#STHeitiSC-Medium-509"/>
     <use xlink:href="#STHeitiSC-Medium-3" transform="translate(100 0)"/>
     <use xlink:href="#STHeitiSC-Medium-3d" transform="translate(125 0)"/>
     <use xlink:href="#STHeitiSC-Medium-15" transform="translate(160.09375 0)"/>
     <use xlink:href="#STHeitiSC-Medium-2b" transform="translate(215.5 0)"/>
     <use xlink:href="#STHeitiSC-Medium-11" transform="translate(238.09375 0)"/>
     <use xlink:href="#STHeitiSC-Medium-16" transform="translate(281.796875 0)"/>
     <use xlink:href="#STHeitiSC-Medium-1c" transform="translate(337.203125 0)"/>
     <use xlink:href="#STHeitiSC-Medium-2b" transform="translate(364.90625 0)"/>
     <use xlink:href="#STHeitiSC-Medium-b" transform="translate(387.5 0)"/>
    </g>
   </g>
   <g id="text_12">
    <!-- w3 -->
    <g transform="translate(724.72 221.655903) scale(0.08 -0.08)">
     <use xlink:href="#STHeitiSC-Medium-59"/>
     <use xlink:href="#STHeitiSC-Medium-15" transform="translate(83.09375 0)"/>
    </g>
    <!-- 列 [3I/4:I) -->
    <g transform="translate(713.28375 230.239653) scale(0.08 -0.08)">
     <use xlink:href="#STHeitiSC-Medium-509"/>
     <use xlink:href="#STHeitiSC-Medium-3" transform="translate(100 0)"/>
     <use xlink:href="#STHeitiSC-Medium-3d" transform="translate(125 0)"/>
     <use xlink:href="#STHeitiSC-Medium-15" transform="translate(160.09375 0)"/>
     <use xlink:href="#STHeitiSC-Medium-2b" transform="translate(215.5 0)"/>
     <use xlink:href="#STHeitiSC-Medium-11" transform="translate(238.09375 0)"/>
     <use xlink:href="#STHeitiSC-Medium-16" transform="translate(281.796875 0)"/>
     <use xlink:href="#STHeitiSC-Medium-1c" transform="translate(337.203125 0)"/>
     <use xlink:href="#STHeitiSC-Medium-2b" transform="translate(364.90625 0)"/>
     <use xlink:href="#STHeitiSC-Medium-b" transform="translate(387.5 0)"/>
    </g>
   </g>
   <g id="text_13">
    <!-- GPU 3 -->
    <g transform="translate(718.5675 339.830903) scale(0.08 -0.08)">
     <use xlink:href="#STHeitiSC-Medium-29"/>
     <use xlink:href="#STHeitiSC-Medium-32" transform="translate(87.203125 0)"/>
     <use xlink:href="#STHeitiSC-Medium-37" transform="translate(146.40625 0)"/>
     <use xlink:href="#STHeitiSC-Medium-3" transform="translate(211.90625 0)"/>
     <use xlink:href="#STHeitiSC-Medium-15" transform="translate(236.90625 0)"/>
    </g>
    <!-- silu(aᵢ)·bᵢ -->
    <g transform="translate(710.83375 348.414653) scale(0.08 -0.08)">
     <use xlink:href="#STHeitiSC-Medium-55"/>
     <use xlink:href="#STHeitiSC-Medium-4b" transform="translate(38.796875 0)"/>
     <use xlink:href="#STHeitiSC-Medium-4e" transform="translate(58.796875 0)"/>
     <use xlink:href="#STHeitiSC-Medium-57" transform="translate(78.796875 0)"/>
     <use xlink:href="#STHeitiSC-Medium-a" transform="translate(139.59375 0)"/>
     <use xlink:href="#STHeitiSC-Medium-43" transform="translate(176.5 0)"/>
     <use xlink:href="#DejaVuSans-8c4" transform="translate(244.796875 0)"/>
     <use xlink:href="#STHeitiSC-Medium-b" transform="translate(262.671875 0)"/>
     <use xlink:href="#STHeitiSC-Medium-94" transform="translate(299.578125 0)"/>
     <use xlink:href="#STHeitiSC-Medium-44" transform="translate(399.578125 0)"/>
     <use xlink:href="#DejaVuSans-8c4" transform="translate(467.78125 0)"/>
    </g>
   </g>
   <g id="patch_27">
    <path d="M 184.684337 170.269565 
Q 456.483596 132.466444 726.954005 94.848147 
" style="fill: none; stroke: #1565c0; stroke-width: 1.2; stroke-linecap: round"/>
    <path d="M 722.716624 93.41825 
L 726.954005 94.848147 
L 723.267659 97.380113 
" style="fill: none; stroke: #1565c0; stroke-width: 1.2; stroke-linecap: round"/>
   </g>
   <g id="patch_28">
    <path d="M 184.701047 186.331013 
Q 456.479494 190.241382 726.916439 194.132448 
" style="fill: none; stroke: #1565c0; stroke-width: 1.2; stroke-linecap: round"/>
    <path d="M 722.945626 192.075109 
L 726.916439 194.132448 
L 722.88808 196.074695 
" style="fill: none; stroke: #1565c0; stroke-width: 1.2; stroke-linecap: round"/>
   </g>
   <g id="patch_29">
    <path d="M 730.26 256.578424 
Q 730.26 276.900881 730.26 295.546288 
" style="fill: none; stroke: #ef6c00; stroke-width: 1.5; stroke-linecap: round"/>
    <path d="M 732.26 291.546288 
L 730.26 295.546288 
L 728.26 291.546288 
" style="fill: none; stroke: #ef6c00; stroke-width: 1.5; stroke-linecap: round"/>
   </g>
   <g id="patch_30">
    <path d="M 730.26 148.913959 
Q 730.26 223.067192 730.26 295.543374 
" style="fill: none; stroke: #ef6c00; stroke-width: 1.5; stroke-linecap: round"/>
    <path d="M 732.26 291.543374 
L 730.26 295.543374 
L 728.26 291.543374 
" style="fill: none; stroke: #ef6c00; stroke-width: 1.5; stroke-linecap: round"/>
   </g>
   <g id="text_14">
    <!-- w1 / w3: ColwiseParallel -->
    <g style="fill: #d84315" transform="translate(324.420937 76.005556) scale(0.12 -0.12)">
     <defs>
      <path id="STHeitiSC-Medium-25" d="M 4909 1242 
Q 4154 269 2835 269 
Q 1722 269 1011 973 
Q 301 1677 301 2752 
Q 301 3418 630 3981 
Q 960 4544 1542 4864 
Q 2125 5184 2800 5184 
Q 3475 5184 4009 4925 
Q 4544 4666 4902 4166 
L 4480 3840 
Q 3814 4646 2835 4646 
Q 2035 4646 1456 4083 
Q 877 3520 877 2704 
Q 877 1888 1443 1341 
Q 2010 794 2912 794 
Q 3814 794 4480 1568 
L 4909 1242 
z
" transform="scale(0.015625)"/>
      <path id="STHeitiSC-Medium-51" d="M 2099 3962 
Q 2854 3962 3382 3418 
Q 3910 2874 3910 2112 
Q 3910 1350 3388 809 
Q 2867 269 2099 269 
Q 1331 269 806 809 
Q 282 1350 282 2112 
Q 282 2874 810 3418 
Q 1338 3962 2099 3962 
z
M 2099 774 
Q 2630 774 3004 1161 
Q 3379 1549 3379 2096 
Q 3379 2643 2998 3043 
Q 2618 3443 2096 3443 
Q 1574 3443 1196 3043 
Q 819 2643 819 2092 
Q 819 1542 1184 1158 
Q 1549 774 2099 774 
z
" transform="scale(0.015625)"/>
      <path id="STHeitiSC-Medium-54" d="M 1914 3821 
L 1638 3373 
Q 1530 3430 1427 3430 
Q 1229 3430 1069 3235 
Q 909 3040 829 2723 
Q 749 2406 749 1581 
L 749 384 
L 211 384 
L 211 3872 
L 749 3872 
L 749 3494 
Q 909 3731 1072 3846 
Q 1235 3962 1443 3962 
Q 1651 3962 1914 3821 
z
" transform="scale(0.015625)"/>
     </defs>
     <use xlink:href="#STHeitiSC-Medium-59"/>
     <use xlink:href="#STHeitiSC-Medium-13" transform="translate(83.09375 0)"/>
     <use xlink:href="#STHeitiSC-Medium-3" transform="translate(138.5 0)"/>
     <use xlink:href="#STHeitiSC-Medium-11" transform="translate(163.5 0)"/>
     <use xlink:href="#STHeitiSC-Medium-3" transform="translate(207.203125 0)"/>
     <use xlink:href="#STHeitiSC-Medium-59" transform="translate(232.203125 0)"/>
     <use xlink:href="#STHeitiSC-Medium-15" transform="translate(315.296875 0)"/>
     <use xlink:href="#STHeitiSC-Medium-1c" transform="translate(370.703125 0)"/>
     <use xlink:href="#STHeitiSC-Medium-3" transform="translate(398.40625 0)"/>
     <use xlink:href="#STHeitiSC-Medium-25" transform="translate(423.40625 0)"/>
     <use xlink:href="#STHeitiSC-Medium-51" transform="translate(504.703125 0)"/>
     <use xlink:href="#STHeitiSC-Medium-4e" transform="translate(570.203125 0)"/>
     <use xlink:href="#STHeitiSC-Medium-59" transform="translate(590.203125 0)"/>
     <use xlink:href="#STHeitiSC-Medium-4b" transform="translate(673.296875 0)"/>
     <use xlink:href="#STHeitiSC-Medium-55" transform="translate(693.296875 0)"/>
     <use xlink:href="#STHeitiSC-Medium-47" transform="translate(732.09375 0)"/>
     <use xlink:href="#STHeitiSC-Medium-32" transform="translate(797.09375 0)"/>
     <use xlink:href="#STHeitiSC-Medium-43" transform="translate(856.296875 0)"/>
     <use xlink:href="#STHeitiSC-Medium-54" transform="translate(924.59375 0)"/>
     <use xlink:href="#STHeitiSC-Medium-43" transform="translate(954.6875 0)"/>
     <use xlink:href="#STHeitiSC-Medium-4e" transform="translate(1022.984375 0)"/>
     <use xlink:href="#STHeitiSC-Medium-4e" transform="translate(1042.984375 0)"/>
     <use xlink:href="#STHeitiSC-Medium-47" transform="translate(1062.984375 0)"/>
     <use xlink:href="#STHeitiSC-Medium-4e" transform="translate(1127.984375 0)"/>
    </g>
   </g>
   <g id="text_15">
    <!-- MLP w1/w3: ColwiseParallel -->
    <g transform="translate(335.979219 19.24) scale(0.14 -0.14)">
     <defs>
      <path id="STHeitiSC-Medium-2f" d="M 5581 384 
L 5037 384 
L 4602 3571 
L 3027 384 
L 2861 384 
L 1267 3597 
L 832 384 
L 301 384 
L 966 5069 
L 1101 5069 
L 2944 1350 
L 4774 5069 
L 4909 5069 
L 5581 384 
z
" transform="scale(0.015625)"/>
      <path id="STHeitiSC-Medium-2e" d="M 2835 384 
L 512 384 
L 512 5069 
L 1069 5069 
L 1069 915 
L 2835 915 
L 2835 384 
z
" transform="scale(0.015625)"/>
     </defs>
     <use xlink:href="#STHeitiSC-Medium-2f"/>
     <use xlink:href="#STHeitiSC-Medium-2e" transform="translate(91.90625 0)"/>
     <use xlink:href="#STHeitiSC-Medium-32" transform="translate(138.109375 0)"/>
     <use xlink:href="#STHeitiSC-Medium-3" transform="translate(197.3125 0)"/>
     <use xlink:href="#STHeitiSC-Medium-59" transform="translate(222.3125 0)"/>
     <use xlink:href="#STHeitiSC-Medium-13" transform="translate(305.40625 0)"/>
     <use xlink:href="#STHeitiSC-Medium-11" transform="translate(360.8125 0)"/>
     <use xlink:href="#STHeitiSC-Medium-59" transform="translate(404.515625 0)"/>
     <use xlink:href="#STHeitiSC-Medium-15" transform="translate(487.609375 0)"/>
     <use xlink:href="#STHeitiSC-Medium-1c" transform="translate(543.015625 0)"/>
     <use xlink:href="#STHeitiSC-Medium-3" transform="translate(570.71875 0)"/>
     <use xlink:href="#STHeitiSC-Medium-25" transform="translate(595.71875 0)"/>
     <use xlink:href="#STHeitiSC-Medium-51" transform="translate(677.015625 0)"/>
     <use xlink:href="#STHeitiSC-Medium-4e" transform="translate(742.515625 0)"/>
     <use xlink:href="#STHeitiSC-Medium-59" transform="translate(762.515625 0)"/>
     <use xlink:href="#STHeitiSC-Medium-4b" transform="translate(845.609375 0)"/>
     <use xlink:href="#STHeitiSC-Medium-55" transform="translate(865.609375 0)"/>
     <use xlink:href="#STHeitiSC-Medium-47" transform="translate(904.40625 0)"/>
     <use xlink:href="#STHeitiSC-Medium-32" transform="translate(969.40625 0)"/>
     <use xlink:href="#STHeitiSC-Medium-43" transform="translate(1028.609375 0)"/>
     <use xlink:href="#STHeitiSC-Medium-54" transform="translate(1096.90625 0)"/>
     <use xlink:href="#STHeitiSC-Medium-43" transform="translate(1127 0)"/>
     <use xlink:href="#STHeitiSC-Medium-4e" transform="translate(1195.296875 0)"/>
     <use xlink:href="#STHeitiSC-Medium-4e" transform="translate(1215.296875 0)"/>
     <use xlink:href="#STHeitiSC-Medium-47" transform="translate(1235.296875 0)"/>
     <use xlink:href="#STHeitiSC-Medium-4e" transform="translate(1300.296875 0)"/>
    </g>
   </g>
  </g>
 </g>
 <defs>
  <clipPath id="p00d88bd77c">
   <rect x="7.2" y="39.24" width="842.4" height="378.16"/>
  </clipPath>
 </defs>
</svg>
