<?xml version="1.0" encoding="utf-8" standalone="no"?>
<!DOCTYPE svg PUBLIC "-//W3C//DTD SVG 1.1//EN"
  "http://www.w3.org/Graphics/SVG/1.1/DTD/svg11.dtd">
<svg xmlns:xlink="http://www.w3.org/1999/xlink" width="856.8pt" height="208.6pt" viewBox="0 0 856.8 208.6" xmlns="http://www.w3.org/2000/svg" version="1.1">
 <metadata>
  <rdf:RDF xmlns:dc="http://purl.org/dc/elements/1.1/" xmlns:cc="http://creativecommons.org/ns#" xmlns:rdf="http://www.w3.org/1999/02/22-rdf-syntax-ns#">
   <cc:Work>
    <dc:type rdf:resource="http://purl.org/dc/dcmitype/StillImage"/>
    <dc:date>2026-07-13T11:07:55.856624</dc:date>
    <dc:format>image/svg+xml</dc:format>
    <dc:creator>
     <cc:Agent>
      <dc:title>Matplotlib v3.11.0, https://matplotlib.org/</dc:title>
     </cc:Agent>
    </dc:creator>
   </cc:Work>
  </rdf:RDF>
 </metadata>
 <defs>
  <style type="text/css">*{stroke-linejoin: round; stroke-linecap: butt}</style>
 </defs>
 <g id="figure_1">
  <g id="patch_1">
   <path d="M 0 208.6 
L 856.8 208.6 
L 856.8 0 
L 0 0 
z
" style="fill: #ffffff"/>
  </g>
  <g id="axes_1">
   <g id="patch_2">
    <path d="M 40.896 177.076 
L 209.376 177.076 
Q 212.7456 177.076 212.7456 174.373333 
L 212.7456 77.077333 
Q 212.7456 74.374667 209.376 74.374667 
L 40.896 74.374667 
Q 37.5264 74.374667 37.5264 77.077333 
L 37.5264 174.373333 
Q 37.5264 177.076 40.896 177.076 
z
" clip-path="url(#p8697891a8d)" style="fill: #e0f7fa; stroke: #00838f; stroke-width: 2; stroke-linejoin: miter"/>
   </g>
   <g id="patch_3">
    <path d="M 243.072 177.076 
L 411.552 177.076 
Q 414.9216 177.076 414.9216 174.373333 
L 414.9216 77.077333 
Q 414.9216 74.374667 411.552 74.374667 
L 243.072 74.374667 
Q 239.7024 74.374667 239.7024 77.077333 
L 239.7024 174.373333 
Q 239.7024 177.076 243.072 177.076 
z
" clip-path="url(#p8697891a8d)" style="fill: #f3e5f5; stroke: #6a1b9a; stroke-width: 2; stroke-linejoin: miter"/>
   </g>
   <g id="patch_4">
    <path d="M 445.248 177.076 
L 613.728 177.076 
Q 617.0976 177.076 617.0976 174.373333 
L 617.0976 77.077333 
Q 617.0976 74.374667 613.728 74.374667 
L 445.248 74.374667 
Q 441.8784 74.374667 441.8784 77.077333 
L 441.8784 174.373333 
Q 441.8784 177.076 445.248 177.076 
z
" clip-path="url(#p8697891a8d)" style="fill: #fff3e0; stroke: #ef6c00; stroke-width: 2; stroke-linejoin: miter"/>
   </g>
   <g id="patch_5">
    <path d="M 647.424 177.076 
L 815.904 177.076 
Q 819.2736 177.076 819.2736 174.373333 
L 819.2736 77.077333 
Q 819.2736 74.374667 815.904 74.374667 
L 647.424 74.374667 
Q 644.0544 74.374667 644.0544 77.077333 
L 644.0544 174.373333 
Q 644.0544 177.076 647.424 177.076 
z
" clip-path="url(#p8697891a8d)" style="fill: #e0f7fa; stroke: #00838f; stroke-width: 2; stroke-linejoin: miter"/>
   </g>
   <g id="text_1">
    <!-- attention_norm -->
    <g transform="translate(91.705219 108.114333) scale(0.09 -0.09)">
     <defs>
      <path id="STHeitiSC-Medium-43" d="M 3917 384 
L 3398 384 
L 3398 896 
Q 2829 269 2086 269 
Q 1344 269 816 816 
Q 288 1363 288 2121 
Q 288 2880 819 3421 
Q 1350 3962 2115 3962 
Q 2880 3962 3398 3341 
L 3398 3872 
L 3917 3872 
L 3917 384 
z
M 2125 762 
Q 2656 762 3040 1146 
Q 3424 1530 3424 2102 
Q 3424 2675 3046 3062 
Q 2669 3450 2121 3450 
Q 1574 3450 1196 3050 
Q 819 2650 819 2106 
Q 819 1562 1203 1162 
Q 1587 762 2125 762 
z
" transform="scale(0.015625)"/>
      <path id="STHeitiSC-Medium-56" d="M 2048 3411 
L 1357 3411 
L 1357 966 
Q 1357 832 1395 803 
Q 1434 774 1587 774 
L 1894 774 
L 1894 320 
Q 1587 269 1427 269 
Q 1120 269 973 419 
Q 826 570 826 896 
L 826 3411 
L 224 3411 
L 224 3872 
L 826 3872 
L 826 5184 
L 1357 5184 
L 1357 3872 
L 2048 3872 
L 2048 3411 
z
" transform="scale(0.015625)"/>
      <path id="STHeitiSC-Medium-47" d="M 3878 2035 
L 819 2035 
Q 851 1459 1206 1110 
Q 1562 762 2054 762 
Q 2893 762 3334 1587 
L 3782 1357 
Q 3482 800 3072 534 
Q 2662 269 2093 269 
Q 1306 269 794 809 
Q 282 1350 282 2112 
Q 282 2874 797 3418 
Q 1312 3962 2073 3962 
Q 2835 3962 3347 3446 
Q 3859 2931 3878 2035 
z
M 3290 2502 
Q 3194 2950 2854 3200 
Q 2515 3450 2074 3450 
Q 1178 3450 883 2502 
L 3290 2502 
z
" transform="scale(0.015625)"/>
      <path id="STHeitiSC-Medium-50" d="M 3501 384 
L 2976 384 
L 2976 2048 
Q 2976 2624 2921 2832 
Q 2867 3040 2761 3184 
Q 2656 3328 2493 3398 
Q 2330 3469 2096 3469 
Q 1862 3469 1638 3353 
Q 1414 3238 1254 3033 
Q 1094 2829 1033 2598 
Q 973 2368 973 1677 
L 973 384 
L 442 384 
L 442 3872 
L 973 3872 
L 973 3347 
Q 1491 3962 2202 3962 
Q 2579 3962 2886 3766 
Q 3194 3571 3347 3228 
Q 3501 2886 3501 2176 
L 3501 384 
z
" transform="scale(0.015625)"/>
      <path id="STHeitiSC-Medium-4b" d="M 640 5184 
Q 813 5184 931 5065 
Q 1050 4947 1050 4777 
Q 1050 4608 931 4489 
Q 813 4371 643 4371 
Q 474 4371 355 4492 
Q 237 4614 237 4777 
Q 237 4941 355 5062 
Q 474 5184 640 5184 
z
M 909 384 
L 378 384 
L 378 3872 
L 909 3872 
L 909 384 
z
" transform="scale(0.015625)"/>
      <path id="STHeitiSC-Medium-51" d="M 2099 3962 
Q 2854 3962 3382 3418 
Q 3910 2874 3910 2112 
Q 3910 1350 3388 809 
Q 2867 269 2099 269 
Q 1331 269 806 809 
Q 282 1350 282 2112 
Q 282 2874 810 3418 
Q 1338 3962 2099 3962 
z
M 2099 774 
Q 2630 774 3004 1161 
Q 3379 1549 3379 2096 
Q 3379 2643 2998 3043 
Q 2618 3443 2096 3443 
Q 1574 3443 1196 3043 
Q 819 2643 819 2092 
Q 819 1542 1184 1158 
Q 1549 774 2099 774 
z
" transform="scale(0.015625)"/>
      <path id="STHeitiSC-Medium-41" d="M 3200 -416 
L 0 -416 
L 0 -6 
L 3200 -6 
L 3200 -416 
z
" transform="scale(0.015625)"/>
      <path id="STHeitiSC-Medium-54" d="M 1914 3821 
L 1638 3373 
Q 1530 3430 1427 3430 
Q 1229 3430 1069 3235 
Q 909 3040 829 2723 
Q 749 2406 749 1581 
L 749 384 
L 211 384 
L 211 3872 
L 749 3872 
L 749 3494 
Q 909 3731 1072 3846 
Q 1235 3962 1443 3962 
Q 1651 3962 1914 3821 
z
" transform="scale(0.015625)"/>
      <path id="STHeitiSC-Medium-4f" d="M 5613 384 
L 5075 384 
L 5075 2285 
Q 5075 2739 5020 2950 
Q 4966 3162 4784 3306 
Q 4602 3450 4304 3450 
Q 4006 3450 3744 3258 
Q 3482 3066 3379 2736 
Q 3277 2406 3277 1760 
L 3277 384 
L 2758 384 
L 2758 2170 
Q 2758 2694 2704 2924 
Q 2650 3155 2464 3302 
Q 2278 3450 1996 3450 
Q 1715 3450 1462 3274 
Q 1210 3098 1088 2813 
Q 966 2528 966 1869 
L 966 384 
L 442 384 
L 442 3872 
L 966 3872 
L 966 3379 
Q 1414 3962 2086 3962 
Q 2451 3962 2748 3766 
Q 3046 3571 3174 3213 
Q 3392 3578 3718 3770 
Q 4045 3962 4410 3962 
Q 4909 3962 5261 3610 
Q 5613 3258 5613 2285 
L 5613 384 
z
" transform="scale(0.015625)"/>
     </defs>
     <use xlink:href="#STHeitiSC-Medium-43"/>
     <use xlink:href="#STHeitiSC-Medium-56" transform="translate(68.296875 0)"/>
     <use xlink:href="#STHeitiSC-Medium-56" transform="translate(102.203125 0)"/>
     <use xlink:href="#STHeitiSC-Medium-47" transform="translate(136.109375 0)"/>
     <use xlink:href="#STHeitiSC-Medium-50" transform="translate(201.109375 0)"/>
     <use xlink:href="#STHeitiSC-Medium-56" transform="translate(262.109375 0)"/>
     <use xlink:href="#STHeitiSC-Medium-4b" transform="translate(296.015625 0)"/>
     <use xlink:href="#STHeitiSC-Medium-51" transform="translate(316.015625 0)"/>
     <use xlink:href="#STHeitiSC-Medium-50" transform="translate(381.515625 0)"/>
     <use xlink:href="#STHeitiSC-Medium-41" transform="translate(442.515625 0)"/>
     <use xlink:href="#STHeitiSC-Medium-50" transform="translate(492.515625 0)"/>
     <use xlink:href="#STHeitiSC-Medium-51" transform="translate(553.515625 0)"/>
     <use xlink:href="#STHeitiSC-Medium-54" transform="translate(619.015625 0)"/>
     <use xlink:href="#STHeitiSC-Medium-4f" transform="translate(649.109375 0)"/>
    </g>
    <!-- SequenceParallel -->
    <g transform="translate(86.868422 117.384333) scale(0.09 -0.09)">
     <defs>
      <path id="STHeitiSC-Medium-35" d="M 2317 4038 
Q 2061 4384 1881 4502 
Q 1702 4621 1462 4621 
Q 1222 4621 1059 4467 
Q 896 4314 896 4074 
Q 896 3834 1049 3654 
Q 1203 3475 1756 3068 
Q 2310 2662 2566 2304 
Q 2822 1946 2822 1549 
Q 2822 1030 2422 649 
Q 2022 269 1491 269 
Q 557 269 26 1312 
L 493 1581 
Q 909 806 1427 806 
Q 1760 806 1997 1017 
Q 2234 1229 2234 1510 
Q 2234 1792 2035 2045 
Q 1837 2298 1350 2666 
Q 864 3034 681 3226 
Q 499 3418 416 3635 
Q 333 3853 333 4070 
Q 333 4538 656 4861 
Q 979 5184 1491 5184 
Q 1888 5184 2182 4982 
Q 2477 4781 2758 4384 
L 2317 4038 
z
" transform="scale(0.015625)"/>
      <path id="STHeitiSC-Medium-53" d="M 3917 -851 
L 3398 -851 
L 3398 896 
Q 2835 269 2086 269 
Q 1338 269 813 816 
Q 288 1363 288 2121 
Q 288 2880 819 3421 
Q 1350 3962 2112 3962 
Q 2874 3962 3398 3341 
L 3398 3872 
L 3917 3872 
L 3917 -851 
z
M 2118 762 
Q 2630 762 3030 1149 
Q 3430 1536 3430 2093 
Q 3430 2650 3056 3050 
Q 2682 3450 2131 3450 
Q 1581 3450 1200 3046 
Q 819 2643 819 2099 
Q 819 1555 1206 1158 
Q 1594 762 2118 762 
z
" transform="scale(0.015625)"/>
      <path id="STHeitiSC-Medium-57" d="M 3450 384 
L 2918 384 
L 2918 909 
Q 2400 294 1690 294 
Q 1312 294 1005 489 
Q 698 685 544 1027 
Q 390 1370 390 2080 
L 390 3872 
L 915 3872 
L 915 2208 
Q 915 1632 969 1424 
Q 1024 1216 1129 1072 
Q 1235 928 1398 857 
Q 1562 787 1795 787 
Q 2029 787 2253 902 
Q 2477 1018 2637 1222 
Q 2797 1427 2857 1657 
Q 2918 1888 2918 2579 
L 2918 3872 
L 3450 3872 
L 3450 384 
z
" transform="scale(0.015625)"/>
      <path id="STHeitiSC-Medium-45" d="M 3853 1094 
Q 3578 691 3133 480 
Q 2688 269 2170 269 
Q 1363 269 822 800 
Q 282 1331 282 2099 
Q 282 2867 826 3414 
Q 1370 3962 2234 3962 
Q 2746 3962 3178 3738 
Q 3610 3514 3853 3110 
L 3437 2848 
Q 2970 3456 2214 3456 
Q 1619 3456 1216 3075 
Q 813 2694 813 2131 
Q 813 1568 1209 1165 
Q 1606 762 2214 762 
Q 2944 762 3443 1376 
L 3853 1094 
z
" transform="scale(0.015625)"/>
      <path id="STHeitiSC-Medium-32" d="M 512 5069 
L 1472 5069 
Q 2291 5069 2547 5005 
Q 2803 4941 3017 4774 
Q 3232 4608 3353 4358 
Q 3475 4109 3475 3795 
Q 3475 3482 3356 3232 
Q 3238 2982 3017 2819 
Q 2797 2656 2477 2589 
Q 2157 2522 1344 2522 
L 1062 2522 
L 1062 384 
L 512 384 
L 512 5069 
z
M 1062 3053 
L 1792 3053 
Q 2438 3040 2672 3257 
Q 2906 3475 2906 3802 
Q 2906 4531 1830 4531 
L 1062 4531 
L 1062 3053 
z
" transform="scale(0.015625)"/>
      <path id="STHeitiSC-Medium-4e" d="M 902 384 
L 378 384 
L 378 5184 
L 902 5184 
L 902 384 
z
" transform="scale(0.015625)"/>
     </defs>
     <use xlink:href="#STHeitiSC-Medium-35"/>
     <use xlink:href="#STHeitiSC-Medium-47" transform="translate(49.796875 0)"/>
     <use xlink:href="#STHeitiSC-Medium-53" transform="translate(114.796875 0)"/>
     <use xlink:href="#STHeitiSC-Medium-57" transform="translate(183 0)"/>
     <use xlink:href="#STHeitiSC-Medium-47" transform="translate(243.796875 0)"/>
     <use xlink:href="#STHeitiSC-Medium-50" transform="translate(308.796875 0)"/>
     <use xlink:href="#STHeitiSC-Medium-45" transform="translate(369.796875 0)"/>
     <use xlink:href="#STHeitiSC-Medium-47" transform="translate(434.5 0)"/>
     <use xlink:href="#STHeitiSC-Medium-32" transform="translate(499.5 0)"/>
     <use xlink:href="#STHeitiSC-Medium-43" transform="translate(558.703125 0)"/>
     <use xlink:href="#STHeitiSC-Medium-54" transform="translate(627 0)"/>
     <use xlink:href="#STHeitiSC-Medium-43" transform="translate(657.09375 0)"/>
     <use xlink:href="#STHeitiSC-Medium-4e" transform="translate(725.390625 0)"/>
     <use xlink:href="#STHeitiSC-Medium-4e" transform="translate(745.390625 0)"/>
     <use xlink:href="#STHeitiSC-Medium-47" transform="translate(765.390625 0)"/>
     <use xlink:href="#STHeitiSC-Medium-4e" transform="translate(830.390625 0)"/>
    </g>
   </g>
   <g id="text_2">
    <!-- Shard(1) -->
    <g transform="translate(108.85975 140.873208) scale(0.08 -0.08)">
     <defs>
      <path id="STHeitiSC-Medium-4a" d="M 3501 384 
L 2970 384 
L 2970 2048 
Q 2970 2534 2941 2732 
Q 2912 2931 2809 3107 
Q 2707 3283 2531 3376 
Q 2355 3469 2108 3469 
Q 1862 3469 1638 3353 
Q 1414 3238 1254 3033 
Q 1094 2829 1033 2598 
Q 973 2368 973 1677 
L 973 384 
L 442 384 
L 442 5184 
L 973 5184 
L 973 3347 
Q 1491 3962 2202 3962 
Q 2579 3962 2886 3766 
Q 3194 3571 3347 3228 
Q 3501 2886 3501 2176 
L 3501 384 
z
" transform="scale(0.015625)"/>
      <path id="STHeitiSC-Medium-46" d="M 3923 384 
L 3405 384 
L 3405 896 
Q 2835 269 2089 269 
Q 1344 269 819 813 
Q 294 1357 294 2118 
Q 294 2880 825 3421 
Q 1357 3962 2121 3962 
Q 2886 3962 3405 3341 
L 3405 5184 
L 3923 5184 
L 3923 384 
z
M 2131 762 
Q 2637 762 3033 1139 
Q 3430 1517 3430 2096 
Q 3430 2675 3062 3062 
Q 2694 3450 2134 3450 
Q 1574 3450 1200 3050 
Q 826 2650 826 2109 
Q 826 1568 1210 1165 
Q 1594 762 2131 762 
z
" transform="scale(0.015625)"/>
      <path id="STHeitiSC-Medium-a" d="M 2048 5779 
Q 1709 5082 1526 4237 
Q 1344 3392 1344 2541 
Q 1344 877 1888 -442 
L 1312 -442 
Q 787 819 787 2483 
Q 787 4275 1440 5779 
L 2048 5779 
z
" transform="scale(0.015625)"/>
      <path id="STHeitiSC-Medium-13" d="M 2131 384 
L 1587 384 
L 1587 4531 
L 826 4531 
L 1158 5069 
L 2131 5069 
L 2131 384 
z
" transform="scale(0.015625)"/>
      <path id="STHeitiSC-Medium-b" d="M 922 5779 
Q 1574 4275 1574 2483 
Q 1574 819 1050 -442 
L 474 -442 
Q 1018 877 1018 2541 
Q 1018 3392 835 4237 
Q 653 5082 314 5779 
L 922 5779 
z
" transform="scale(0.015625)"/>
     </defs>
     <use xlink:href="#STHeitiSC-Medium-35"/>
     <use xlink:href="#STHeitiSC-Medium-4a" transform="translate(49.796875 0)"/>
     <use xlink:href="#STHeitiSC-Medium-43" transform="translate(110.796875 0)"/>
     <use xlink:href="#STHeitiSC-Medium-54" transform="translate(179.09375 0)"/>
     <use xlink:href="#STHeitiSC-Medium-46" transform="translate(209.1875 0)"/>
     <use xlink:href="#STHeitiSC-Medium-a" transform="translate(277.6875 0)"/>
     <use xlink:href="#STHeitiSC-Medium-13" transform="translate(314.59375 0)"/>
     <use xlink:href="#STHeitiSC-Medium-b" transform="translate(370 0)"/>
    </g>
    <!-- 各 GPU 持 1/4 token -->
    <g transform="translate(87.45475 149.113208) scale(0.08 -0.08)">
     <defs>
      <path id="STHeitiSC-Medium-368" d="M 4576 1165 
L 2118 1165 
L 2118 218 
L 4576 218 
L 4576 1165 
z
M 2118 -691 
L 1549 -691 
Q 1562 -563 1571 -464 
Q 1581 -365 1587 -272 
Q 1594 -179 1597 -89 
Q 1600 0 1600 109 
L 1600 1133 
Q 1600 1299 1590 1424 
Q 1581 1549 1562 1651 
Q 1683 1638 1824 1625 
Q 1965 1613 2166 1603 
Q 2368 1594 2656 1590 
Q 2944 1587 3360 1587 
Q 3789 1587 4083 1590 
Q 4378 1594 4576 1603 
Q 4774 1613 4905 1625 
Q 5037 1638 5146 1651 
Q 5120 1562 5110 1440 
Q 5101 1318 5101 1133 
L 5101 186 
Q 5101 -32 5113 -214 
Q 5126 -397 5152 -614 
L 4576 -614 
L 4576 -198 
L 2118 -198 
L 2118 -691 
z
M 3347 2432 
Q 2778 2086 2086 1868 
Q 1395 1651 640 1504 
Q 589 1632 499 1766 
Q 410 1901 269 2035 
Q 1024 2125 1705 2278 
Q 2387 2432 2944 2714 
Q 2637 2963 2416 3244 
Q 2195 3526 2042 3834 
Q 1862 3565 1676 3318 
Q 1491 3072 1331 2899 
Q 1222 3008 1113 3078 
Q 1005 3149 864 3200 
Q 1082 3366 1293 3600 
Q 1504 3834 1693 4099 
Q 1882 4365 2032 4649 
Q 2182 4934 2278 5216 
Q 2400 5146 2550 5091 
Q 2701 5037 2822 5011 
Q 2893 4998 2896 4963 
Q 2899 4928 2854 4902 
Q 2803 4870 2697 4764 
Q 2592 4659 2490 4525 
L 5344 4525 
Q 5242 4294 5110 4076 
Q 4979 3859 4796 3638 
Q 4614 3418 4368 3194 
Q 4122 2970 3795 2726 
Q 4237 2522 4813 2410 
Q 5389 2298 6125 2298 
Q 6029 2157 5958 1971 
Q 5888 1786 5856 1619 
Q 5037 1734 4422 1942 
Q 3808 2150 3347 2432 
z
M 3360 2963 
Q 3725 3206 3993 3478 
Q 4262 3750 4506 4083 
L 2355 4083 
Q 2528 3750 2774 3468 
Q 3021 3187 3360 2963 
z
" transform="scale(0.015625)"/>
      <path id="STHeitiSC-Medium-3" transform="scale(0.015625)"/>
      <path id="STHeitiSC-Medium-29" d="M 5325 2675 
Q 5306 1536 4662 902 
Q 4019 269 2970 269 
Q 1766 269 1049 1008 
Q 333 1747 333 2739 
Q 333 3731 1049 4457 
Q 1766 5184 2899 5184 
Q 3514 5184 4042 4957 
Q 4570 4730 5075 4262 
L 4653 3859 
Q 4262 4237 3808 4438 
Q 3354 4640 2874 4640 
Q 2394 4640 1920 4384 
Q 1446 4128 1177 3693 
Q 909 3258 909 2752 
Q 909 1965 1501 1379 
Q 2093 794 2982 794 
Q 3642 794 4122 1155 
Q 4602 1517 4710 2144 
L 3251 2144 
L 3251 2675 
L 5325 2675 
z
" transform="scale(0.015625)"/>
      <path id="STHeitiSC-Medium-37" d="M 3661 2253 
Q 3661 1542 3517 1161 
Q 3373 781 3005 525 
Q 2637 269 2144 269 
Q 1754 269 1440 393 
Q 1126 518 918 745 
Q 710 973 620 1251 
Q 531 1530 531 2253 
L 531 5069 
L 1082 5069 
L 1082 2253 
Q 1082 1798 1107 1596 
Q 1133 1395 1254 1206 
Q 1376 1018 1603 906 
Q 1830 794 2118 794 
Q 2464 794 2717 995 
Q 2970 1197 3043 1462 
Q 3117 1728 3117 2253 
L 3117 5069 
L 3661 5069 
L 3661 2253 
z
" transform="scale(0.015625)"/>
      <path id="STHeitiSC-Medium-330" d="M 3110 58 
Q 3072 333 2992 589 
Q 2912 845 2803 1050 
L 3341 1222 
Q 3418 992 3498 752 
Q 3578 512 3667 269 
L 3110 58 
z
M 1190 3258 
Q 685 3245 390 3200 
L 390 3744 
Q 538 3718 739 3708 
Q 941 3699 1190 3693 
Q 1190 4224 1174 4534 
Q 1158 4845 1120 5005 
Q 1293 4973 1443 4963 
Q 1594 4954 1728 4960 
Q 2035 4973 1824 4800 
Q 1754 4749 1731 4701 
Q 1709 4653 1709 4570 
L 1709 3693 
Q 1926 3699 2102 3708 
Q 2278 3718 2413 3744 
L 2413 3200 
Q 2278 3226 2102 3235 
Q 1926 3245 1709 3251 
L 1709 2253 
Q 1843 2323 1990 2400 
Q 2138 2477 2310 2566 
Q 2298 2419 2317 2297 
Q 2336 2176 2381 2054 
Q 2234 1990 2064 1910 
Q 1894 1830 1709 1734 
L 1709 6 
Q 1709 -166 1689 -272 
Q 1670 -378 1580 -445 
Q 1491 -512 1308 -553 
Q 1126 -595 794 -640 
Q 749 -461 691 -323 
Q 634 -186 499 19 
Q 736 -6 877 -9 
Q 1018 -13 1085 6 
Q 1152 26 1171 74 
Q 1190 122 1190 205 
L 1190 1440 
Q 826 1222 531 1005 
Q 499 1146 438 1344 
Q 378 1542 307 1683 
Q 544 1754 752 1830 
Q 960 1907 1190 2010 
L 1190 3258 
z
M 3757 3757 
Q 3411 3750 3148 3734 
Q 2886 3718 2682 3686 
L 2682 4256 
Q 3098 4205 3757 4198 
Q 3757 4614 3744 4819 
Q 3731 5024 3712 5133 
Q 3853 5114 4013 5104 
Q 4173 5094 4339 5101 
Q 4518 5101 4378 4998 
Q 4339 4966 4313 4902 
Q 4288 4838 4288 4781 
L 4288 4198 
Q 4691 4205 4995 4217 
Q 5299 4230 5530 4256 
L 5530 3706 
Q 5299 3731 4995 3744 
Q 4691 3757 4288 3763 
L 4288 2976 
Q 5459 2976 6093 3034 
L 6093 2483 
Q 6003 2490 5884 2496 
Q 5766 2502 5638 2508 
Q 5510 2515 5379 2521 
Q 5248 2528 5126 2528 
L 5126 1830 
Q 5389 1837 5619 1853 
Q 5850 1869 5939 1901 
L 5939 1325 
Q 5850 1344 5619 1353 
Q 5389 1363 5126 1370 
L 5126 -58 
Q 5126 -243 5104 -352 
Q 5082 -461 4982 -531 
Q 4883 -602 4684 -646 
Q 4486 -691 4141 -749 
Q 4141 -563 4083 -403 
Q 4026 -243 3910 -70 
Q 4147 -102 4284 -108 
Q 4422 -115 4489 -92 
Q 4557 -70 4573 -9 
Q 4589 51 4589 147 
L 4589 1370 
L 3424 1370 
Q 3136 1370 2941 1357 
Q 2746 1344 2566 1312 
L 2566 1894 
Q 2733 1862 2934 1846 
Q 3136 1830 3424 1830 
L 4589 1830 
L 4589 2541 
Q 4288 2541 3981 2534 
Q 3674 2528 3392 2518 
Q 3110 2509 2864 2496 
Q 2618 2483 2438 2464 
L 2438 3034 
Q 2682 3008 3027 2998 
Q 3373 2989 3757 2976 
L 3757 3757 
z
" transform="scale(0.015625)"/>
      <path id="STHeitiSC-Medium-11" d="M 2675 5504 
L 736 77 
L 160 77 
L 2099 5504 
L 2675 5504 
z
" transform="scale(0.015625)"/>
      <path id="STHeitiSC-Medium-16" d="M 3418 1453 
L 2861 1453 
L 2861 384 
L 2317 384 
L 2317 1453 
L 70 1453 
L 2701 5184 
L 2861 5184 
L 2861 1984 
L 3418 1984 
L 3418 1453 
z
M 2317 1984 
L 2317 3712 
L 1094 1984 
L 2317 1984 
z
" transform="scale(0.015625)"/>
      <path id="STHeitiSC-Medium-4d" d="M 3181 384 
L 2419 384 
L 781 1856 
L 781 384 
L 250 384 
L 250 5184 
L 781 5184 
L 781 2554 
L 2285 3866 
L 3072 3872 
L 1152 2208 
L 3181 384 
z
" transform="scale(0.015625)"/>
     </defs>
     <use xlink:href="#STHeitiSC-Medium-368"/>
     <use xlink:href="#STHeitiSC-Medium-3" transform="translate(100 0)"/>
     <use xlink:href="#STHeitiSC-Medium-29" transform="translate(125 0)"/>
     <use xlink:href="#STHeitiSC-Medium-32" transform="translate(212.203125 0)"/>
     <use xlink:href="#STHeitiSC-Medium-37" transform="translate(271.40625 0)"/>
     <use xlink:href="#STHeitiSC-Medium-3" transform="translate(336.90625 0)"/>
     <use xlink:href="#STHeitiSC-Medium-330" transform="translate(361.90625 0)"/>
     <use xlink:href="#STHeitiSC-Medium-3" transform="translate(461.90625 0)"/>
     <use xlink:href="#STHeitiSC-Medium-13" transform="translate(486.90625 0)"/>
     <use xlink:href="#STHeitiSC-Medium-11" transform="translate(542.3125 0)"/>
     <use xlink:href="#STHeitiSC-Medium-16" transform="translate(586.015625 0)"/>
     <use xlink:href="#STHeitiSC-Medium-3" transform="translate(641.421875 0)"/>
     <use xlink:href="#STHeitiSC-Medium-56" transform="translate(666.421875 0)"/>
     <use xlink:href="#STHeitiSC-Medium-51" transform="translate(700.328125 0)"/>
     <use xlink:href="#STHeitiSC-Medium-4d" transform="translate(765.828125 0)"/>
     <use xlink:href="#STHeitiSC-Medium-47" transform="translate(816.03125 0)"/>
     <use xlink:href="#STHeitiSC-Medium-50" transform="translate(881.03125 0)"/>
    </g>
   </g>
   <g id="patch_6">
    <path d="M 214.743009 125.725333 
Q 215.429105 125.725333 213.879132 125.725333 
" style="fill: none; stroke: #424242; stroke-width: 2; stroke-linecap: round"/>
    <path d="M 209.879132 123.725333 
L 213.879132 125.725333 
L 209.879132 127.725333 
" style="fill: none; stroke: #424242; stroke-width: 2; stroke-linecap: round"/>
   </g>
   <g id="text_3">
    <!-- PrepareModuleInput -->
    <g transform="translate(282.127781 112.749333) scale(0.09 -0.09)">
     <defs>
      <path id="STHeitiSC-Medium-52" d="M 973 3341 
Q 1491 3962 2252 3962 
Q 3014 3962 3545 3421 
Q 4077 2880 4077 2118 
Q 4077 1357 3552 813 
Q 3027 269 2284 269 
Q 1542 269 973 896 
L 973 -851 
L 448 -851 
L 448 3872 
L 973 3872 
L 973 3341 
z
M 2253 762 
Q 2778 762 3165 1155 
Q 3552 1549 3552 2105 
Q 3552 2662 3171 3056 
Q 2790 3450 2240 3450 
Q 1690 3450 1315 3062 
Q 941 2675 941 2105 
Q 941 1536 1325 1149 
Q 1709 762 2253 762 
z
" transform="scale(0.015625)"/>
      <path id="STHeitiSC-Medium-2f" d="M 5581 384 
L 5037 384 
L 4602 3571 
L 3027 384 
L 2861 384 
L 1267 3597 
L 832 384 
L 301 384 
L 966 5069 
L 1101 5069 
L 2944 1350 
L 4774 5069 
L 4909 5069 
L 5581 384 
z
" transform="scale(0.015625)"/>
      <path id="STHeitiSC-Medium-2b" d="M 998 384 
L 448 384 
L 448 5069 
L 998 5069 
L 998 384 
z
" transform="scale(0.015625)"/>
     </defs>
     <use xlink:href="#STHeitiSC-Medium-32"/>
     <use xlink:href="#STHeitiSC-Medium-54" transform="translate(59.203125 0)"/>
     <use xlink:href="#STHeitiSC-Medium-47" transform="translate(89.296875 0)"/>
     <use xlink:href="#STHeitiSC-Medium-52" transform="translate(154.296875 0)"/>
     <use xlink:href="#STHeitiSC-Medium-43" transform="translate(222.5 0)"/>
     <use xlink:href="#STHeitiSC-Medium-54" transform="translate(290.796875 0)"/>
     <use xlink:href="#STHeitiSC-Medium-47" transform="translate(320.890625 0)"/>
     <use xlink:href="#STHeitiSC-Medium-2f" transform="translate(385.890625 0)"/>
     <use xlink:href="#STHeitiSC-Medium-51" transform="translate(477.796875 0)"/>
     <use xlink:href="#STHeitiSC-Medium-46" transform="translate(543.296875 0)"/>
     <use xlink:href="#STHeitiSC-Medium-57" transform="translate(611.796875 0)"/>
     <use xlink:href="#STHeitiSC-Medium-4e" transform="translate(672.59375 0)"/>
     <use xlink:href="#STHeitiSC-Medium-47" transform="translate(692.59375 0)"/>
     <use xlink:href="#STHeitiSC-Medium-2b" transform="translate(757.59375 0)"/>
     <use xlink:href="#STHeitiSC-Medium-50" transform="translate(780.1875 0)"/>
     <use xlink:href="#STHeitiSC-Medium-52" transform="translate(841.1875 0)"/>
     <use xlink:href="#STHeitiSC-Medium-57" transform="translate(909.390625 0)"/>
     <use xlink:href="#STHeitiSC-Medium-56" transform="translate(970.1875 0)"/>
    </g>
   </g>
   <g id="text_4">
    <!-- all_gather -->
    <g transform="translate(307.956375 140.529458) scale(0.08 -0.08)">
     <defs>
      <path id="STHeitiSC-Medium-49" d="M 3930 1203 
Q 3930 512 3811 179 
Q 3693 -154 3453 -384 
Q 3213 -614 2877 -732 
Q 2541 -851 2138 -851 
Q 774 -851 320 301 
L 883 301 
Q 1254 -365 2118 -365 
Q 2515 -365 2828 -211 
Q 3142 -58 3270 198 
Q 3398 454 3398 986 
L 3398 1018 
Q 3149 736 2797 589 
Q 2445 442 2067 442 
Q 1312 442 803 960 
Q 294 1478 301 2182 
Q 294 2918 832 3440 
Q 1370 3962 2109 3962 
Q 2848 3962 3398 3360 
L 3398 3872 
L 3930 3872 
L 3930 1203 
z
M 3418 2182 
Q 3418 2733 3050 3091 
Q 2682 3450 2150 3450 
Q 1587 3450 1206 3062 
Q 826 2675 826 2163 
Q 826 1651 1190 1296 
Q 1555 941 2124 941 
Q 2694 941 3056 1289 
Q 3418 1638 3418 2182 
z
" transform="scale(0.015625)"/>
     </defs>
     <use xlink:href="#STHeitiSC-Medium-43"/>
     <use xlink:href="#STHeitiSC-Medium-4e" transform="translate(68.296875 0)"/>
     <use xlink:href="#STHeitiSC-Medium-4e" transform="translate(88.296875 0)"/>
     <use xlink:href="#STHeitiSC-Medium-41" transform="translate(108.296875 0)"/>
     <use xlink:href="#STHeitiSC-Medium-49" transform="translate(158.296875 0)"/>
     <use xlink:href="#STHeitiSC-Medium-43" transform="translate(225.59375 0)"/>
     <use xlink:href="#STHeitiSC-Medium-56" transform="translate(293.890625 0)"/>
     <use xlink:href="#STHeitiSC-Medium-4a" transform="translate(327.796875 0)"/>
     <use xlink:href="#STHeitiSC-Medium-47" transform="translate(388.796875 0)"/>
     <use xlink:href="#STHeitiSC-Medium-54" transform="translate(453.796875 0)"/>
    </g>
    <!-- Shard(1) → Replicate -->
    <g transform="translate(286.40325 149.113208) scale(0.08 -0.08)">
     <defs>
      <path id="STHeitiSC-Medium-c0c6" d="M 6086 2285 
L 4115 1114 
L 4115 2131 
L 262 2131 
L 262 2477 
L 4115 2477 
L 4115 3526 
L 6086 2285 
z
" transform="scale(0.015625)"/>
      <path id="STHeitiSC-Medium-34" d="M 3622 384 
L 2931 384 
L 1280 2522 
L 1088 2522 
L 1088 384 
L 538 384 
L 538 5069 
L 1498 5069 
Q 2266 5069 2554 5001 
Q 2842 4934 3053 4774 
Q 3264 4614 3385 4361 
Q 3507 4109 3507 3802 
Q 3507 3219 3110 2870 
Q 2714 2522 1965 2522 
L 3622 384 
z
M 1088 3059 
L 1837 3059 
Q 2400 3053 2669 3229 
Q 2938 3405 2938 3792 
Q 2938 4179 2675 4355 
Q 2413 4531 1856 4531 
L 1088 4531 
L 1088 3059 
z
" transform="scale(0.015625)"/>
     </defs>
     <use xlink:href="#STHeitiSC-Medium-35"/>
     <use xlink:href="#STHeitiSC-Medium-4a" transform="translate(49.796875 0)"/>
     <use xlink:href="#STHeitiSC-Medium-43" transform="translate(110.796875 0)"/>
     <use xlink:href="#STHeitiSC-Medium-54" transform="translate(179.09375 0)"/>
     <use xlink:href="#STHeitiSC-Medium-46" transform="translate(209.1875 0)"/>
     <use xlink:href="#STHeitiSC-Medium-a" transform="translate(277.6875 0)"/>
     <use xlink:href="#STHeitiSC-Medium-13" transform="translate(314.59375 0)"/>
     <use xlink:href="#STHeitiSC-Medium-b" transform="translate(370 0)"/>
     <use xlink:href="#STHeitiSC-Medium-3" transform="translate(406.90625 0)"/>
     <use xlink:href="#STHeitiSC-Medium-c0c6" transform="translate(431.90625 0)"/>
     <use xlink:href="#STHeitiSC-Medium-3" transform="translate(531.90625 0)"/>
     <use xlink:href="#STHeitiSC-Medium-34" transform="translate(556.90625 0)"/>
     <use xlink:href="#STHeitiSC-Medium-47" transform="translate(617.609375 0)"/>
     <use xlink:href="#STHeitiSC-Medium-52" transform="translate(682.609375 0)"/>
     <use xlink:href="#STHeitiSC-Medium-4e" transform="translate(750.8125 0)"/>
     <use xlink:href="#STHeitiSC-Medium-4b" transform="translate(770.8125 0)"/>
     <use xlink:href="#STHeitiSC-Medium-45" transform="translate(790.8125 0)"/>
     <use xlink:href="#STHeitiSC-Medium-43" transform="translate(855.515625 0)"/>
     <use xlink:href="#STHeitiSC-Medium-56" transform="translate(923.8125 0)"/>
     <use xlink:href="#STHeitiSC-Medium-47" transform="translate(957.71875 0)"/>
    </g>
   </g>
   <g id="patch_7">
    <path d="M 416.919009 125.725333 
Q 417.605105 125.725333 416.055132 125.725333 
" style="fill: none; stroke: #424242; stroke-width: 2; stroke-linecap: round"/>
    <path d="M 412.055132 123.725333 
L 416.055132 125.725333 
L 412.055132 127.725333 
" style="fill: none; stroke: #424242; stroke-width: 2; stroke-linecap: round"/>
   </g>
   <g id="text_5">
    <!-- Attention / FeedForward -->
    <g transform="translate(476.253 112.749333) scale(0.09 -0.09)">
     <defs>
      <path id="STHeitiSC-Medium-23" d="M 4646 384 
L 4064 384 
L 3341 1952 
L 1408 1952 
L 691 384 
L 83 384 
L 2298 5254 
L 2464 5254 
L 4646 384 
z
M 3091 2509 
L 2381 4090 
L 1664 2509 
L 3091 2509 
z
" transform="scale(0.015625)"/>
      <path id="STHeitiSC-Medium-28" d="M 2906 2637 
L 1062 2637 
L 1062 384 
L 512 384 
L 512 5069 
L 2906 5069 
L 2906 4525 
L 1062 4525 
L 1062 3181 
L 2906 3181 
L 2906 2637 
z
" transform="scale(0.015625)"/>
      <path id="STHeitiSC-Medium-59" d="M 5299 3872 
L 3808 269 
L 3674 269 
L 2650 2752 
L 1619 269 
L 1485 269 
L 19 3872 
L 563 3872 
L 1549 1363 
L 2586 3872 
L 2714 3872 
L 3744 1357 
L 4749 3872 
L 5299 3872 
z
" transform="scale(0.015625)"/>
     </defs>
     <use xlink:href="#STHeitiSC-Medium-23"/>
     <use xlink:href="#STHeitiSC-Medium-56" transform="translate(74 0)"/>
     <use xlink:href="#STHeitiSC-Medium-56" transform="translate(107.90625 0)"/>
     <use xlink:href="#STHeitiSC-Medium-47" transform="translate(141.8125 0)"/>
     <use xlink:href="#STHeitiSC-Medium-50" transform="translate(206.8125 0)"/>
     <use xlink:href="#STHeitiSC-Medium-56" transform="translate(267.8125 0)"/>
     <use xlink:href="#STHeitiSC-Medium-4b" transform="translate(301.71875 0)"/>
     <use xlink:href="#STHeitiSC-Medium-51" transform="translate(321.71875 0)"/>
     <use xlink:href="#STHeitiSC-Medium-50" transform="translate(387.21875 0)"/>
     <use xlink:href="#STHeitiSC-Medium-3" transform="translate(448.21875 0)"/>
     <use xlink:href="#STHeitiSC-Medium-11" transform="translate(473.21875 0)"/>
     <use xlink:href="#STHeitiSC-Medium-3" transform="translate(516.921875 0)"/>
     <use xlink:href="#STHeitiSC-Medium-28" transform="translate(541.921875 0)"/>
     <use xlink:href="#STHeitiSC-Medium-47" transform="translate(590.421875 0)"/>
     <use xlink:href="#STHeitiSC-Medium-47" transform="translate(655.421875 0)"/>
     <use xlink:href="#STHeitiSC-Medium-46" transform="translate(720.421875 0)"/>
     <use xlink:href="#STHeitiSC-Medium-28" transform="translate(788.921875 0)"/>
     <use xlink:href="#STHeitiSC-Medium-51" transform="translate(837.421875 0)"/>
     <use xlink:href="#STHeitiSC-Medium-54" transform="translate(902.921875 0)"/>
     <use xlink:href="#STHeitiSC-Medium-59" transform="translate(933.015625 0)"/>
     <use xlink:href="#STHeitiSC-Medium-43" transform="translate(1016.109375 0)"/>
     <use xlink:href="#STHeitiSC-Medium-54" transform="translate(1084.40625 0)"/>
     <use xlink:href="#STHeitiSC-Medium-46" transform="translate(1114.5 0)"/>
    </g>
   </g>
   <g id="text_6">
    <!-- ColwiseParallel -->
    <g transform="translate(500.504875 140.701333) scale(0.08 -0.08)">
     <defs>
      <path id="STHeitiSC-Medium-25" d="M 4909 1242 
Q 4154 269 2835 269 
Q 1722 269 1011 973 
Q 301 1677 301 2752 
Q 301 3418 630 3981 
Q 960 4544 1542 4864 
Q 2125 5184 2800 5184 
Q 3475 5184 4009 4925 
Q 4544 4666 4902 4166 
L 4480 3840 
Q 3814 4646 2835 4646 
Q 2035 4646 1456 4083 
Q 877 3520 877 2704 
Q 877 1888 1443 1341 
Q 2010 794 2912 794 
Q 3814 794 4480 1568 
L 4909 1242 
z
" transform="scale(0.015625)"/>
      <path id="STHeitiSC-Medium-55" d="M 2259 3462 
L 1920 3110 
Q 1542 3462 1229 3462 
Q 1030 3462 896 3337 
Q 762 3213 762 3030 
Q 762 2848 912 2710 
Q 1062 2573 1446 2371 
Q 1830 2170 2038 1926 
Q 2246 1683 2246 1331 
Q 2246 883 1936 576 
Q 1626 269 1171 269 
Q 538 269 115 806 
L 448 1178 
Q 794 774 1152 774 
Q 1395 774 1568 934 
Q 1741 1094 1741 1308 
Q 1741 1523 1584 1667 
Q 1427 1811 1046 2003 
Q 666 2195 470 2428 
Q 275 2662 275 3043 
Q 275 3424 553 3693 
Q 832 3962 1289 3962 
Q 1747 3962 2259 3462 
z
" transform="scale(0.015625)"/>
     </defs>
     <use xlink:href="#STHeitiSC-Medium-25"/>
     <use xlink:href="#STHeitiSC-Medium-51" transform="translate(81.296875 0)"/>
     <use xlink:href="#STHeitiSC-Medium-4e" transform="translate(146.796875 0)"/>
     <use xlink:href="#STHeitiSC-Medium-59" transform="translate(166.796875 0)"/>
     <use xlink:href="#STHeitiSC-Medium-4b" transform="translate(249.890625 0)"/>
     <use xlink:href="#STHeitiSC-Medium-55" transform="translate(269.890625 0)"/>
     <use xlink:href="#STHeitiSC-Medium-47" transform="translate(308.6875 0)"/>
     <use xlink:href="#STHeitiSC-Medium-32" transform="translate(373.6875 0)"/>
     <use xlink:href="#STHeitiSC-Medium-43" transform="translate(432.890625 0)"/>
     <use xlink:href="#STHeitiSC-Medium-54" transform="translate(501.1875 0)"/>
     <use xlink:href="#STHeitiSC-Medium-43" transform="translate(531.28125 0)"/>
     <use xlink:href="#STHeitiSC-Medium-4e" transform="translate(599.578125 0)"/>
     <use xlink:href="#STHeitiSC-Medium-4e" transform="translate(619.578125 0)"/>
     <use xlink:href="#STHeitiSC-Medium-47" transform="translate(639.578125 0)"/>
     <use xlink:href="#STHeitiSC-Medium-4e" transform="translate(704.578125 0)"/>
    </g>
    <!-- + RowwiseParallel -->
    <g transform="translate(495.381125 148.941333) scale(0.08 -0.08)">
     <defs>
      <path id="STHeitiSC-Medium-d" d="M 3565 2790 
L 2195 2790 
L 2195 1434 
L 1683 1434 
L 1683 2790 
L 314 2790 
L 314 3309 
L 1683 3309 
L 1683 4659 
L 2195 4659 
L 2195 3309 
L 3565 3309 
L 3565 2790 
z
" transform="scale(0.015625)"/>
     </defs>
     <use xlink:href="#STHeitiSC-Medium-d"/>
     <use xlink:href="#STHeitiSC-Medium-3" transform="translate(60.59375 0)"/>
     <use xlink:href="#STHeitiSC-Medium-34" transform="translate(85.59375 0)"/>
     <use xlink:href="#STHeitiSC-Medium-51" transform="translate(146.296875 0)"/>
     <use xlink:href="#STHeitiSC-Medium-59" transform="translate(211.796875 0)"/>
     <use xlink:href="#STHeitiSC-Medium-59" transform="translate(294.890625 0)"/>
     <use xlink:href="#STHeitiSC-Medium-4b" transform="translate(377.984375 0)"/>
     <use xlink:href="#STHeitiSC-Medium-55" transform="translate(397.984375 0)"/>
     <use xlink:href="#STHeitiSC-Medium-47" transform="translate(436.78125 0)"/>
     <use xlink:href="#STHeitiSC-Medium-32" transform="translate(501.78125 0)"/>
     <use xlink:href="#STHeitiSC-Medium-43" transform="translate(560.984375 0)"/>
     <use xlink:href="#STHeitiSC-Medium-54" transform="translate(629.28125 0)"/>
     <use xlink:href="#STHeitiSC-Medium-43" transform="translate(659.375 0)"/>
     <use xlink:href="#STHeitiSC-Medium-4e" transform="translate(727.671875 0)"/>
     <use xlink:href="#STHeitiSC-Medium-4e" transform="translate(747.671875 0)"/>
     <use xlink:href="#STHeitiSC-Medium-47" transform="translate(767.671875 0)"/>
     <use xlink:href="#STHeitiSC-Medium-4e" transform="translate(832.671875 0)"/>
    </g>
   </g>
   <g id="patch_8">
    <path d="M 619.095009 125.725333 
Q 619.781105 125.725333 618.231132 125.725333 
" style="fill: none; stroke: #424242; stroke-width: 2; stroke-linecap: round"/>
    <path d="M 614.231132 123.725333 
L 618.231132 125.725333 
L 614.231132 127.725333 
" style="fill: none; stroke: #424242; stroke-width: 2; stroke-linecap: round"/>
   </g>
   <g id="text_7">
    <!-- 输出转换 -->
    <g transform="translate(713.664 112.749333) scale(0.09 -0.09)">
     <defs>
      <path id="STHeitiSC-Medium-8a9" d="M 5747 2758 
Q 5709 2726 5699 2672 
Q 5690 2618 5690 2522 
L 5690 51 
Q 5690 -102 5674 -201 
Q 5658 -301 5584 -371 
Q 5510 -442 5363 -493 
Q 5216 -544 4960 -602 
Q 4941 -493 4880 -345 
Q 4819 -198 4736 -115 
Q 4915 -141 5020 -141 
Q 5126 -141 5180 -105 
Q 5235 -70 5248 6 
Q 5261 83 5261 218 
L 5261 1894 
Q 5261 2259 5241 2528 
Q 5222 2797 5197 2925 
Q 5312 2899 5462 2886 
Q 5613 2874 5702 2880 
Q 5901 2893 5747 2758 
z
M 4941 2541 
Q 4909 2522 4899 2470 
Q 4890 2419 4890 2349 
L 4890 1190 
Q 4890 832 4928 403 
L 4429 403 
Q 4448 627 4457 816 
Q 4467 1005 4467 1190 
L 4467 2003 
Q 4467 2234 4457 2397 
Q 4448 2560 4422 2694 
Q 4570 2662 4691 2656 
Q 4813 2650 4909 2662 
Q 4992 2675 5001 2630 
Q 5011 2586 4941 2541 
z
M 1350 2342 
Q 1350 2573 1350 2717 
Q 1350 2861 1347 2953 
Q 1344 3046 1337 3100 
Q 1331 3155 1325 3200 
Q 1421 3174 1561 3158 
Q 1702 3142 1811 3155 
Q 1875 3162 1878 3117 
Q 1882 3072 1830 3046 
Q 1773 3008 1773 2867 
L 1773 2387 
Q 2054 2426 2202 2470 
L 2202 1990 
Q 2022 2016 1773 2010 
L 1773 1133 
Q 1920 1184 2057 1232 
Q 2195 1280 2278 1318 
Q 2272 1274 2265 1206 
Q 2259 1139 2259 1068 
Q 2259 998 2259 931 
Q 2259 864 2266 813 
Q 2163 813 2048 797 
Q 1933 781 1773 736 
Q 1773 384 1785 48 
Q 1798 -288 1818 -602 
L 1293 -602 
Q 1318 -307 1331 -12 
Q 1344 282 1350 608 
Q 1043 518 838 448 
Q 634 378 518 326 
Q 486 461 432 605 
Q 378 749 320 845 
Q 518 851 761 892 
Q 1005 934 1350 1018 
L 1350 1984 
Q 1088 1965 864 1923 
Q 640 1882 506 1824 
Q 474 1926 413 2057 
Q 352 2189 275 2298 
Q 365 2336 432 2403 
Q 499 2470 569 2627 
Q 640 2784 729 3075 
Q 819 3366 954 3859 
Q 774 3853 665 3843 
Q 557 3834 467 3821 
L 467 4307 
Q 563 4288 691 4278 
Q 819 4269 1043 4262 
Q 1094 4518 1116 4752 
Q 1139 4986 1133 5152 
Q 1210 5126 1302 5104 
Q 1395 5082 1484 5062 
Q 1574 5043 1651 5030 
Q 1728 5018 1773 5018 
Q 1837 5018 1843 4992 
Q 1850 4966 1786 4928 
Q 1734 4896 1670 4749 
Q 1606 4602 1498 4262 
Q 1805 4262 1974 4275 
Q 2144 4288 2259 4307 
L 2259 3821 
Q 2138 3840 1939 3853 
Q 1741 3866 1370 3866 
L 877 2298 
L 1350 2342 
z
M 2963 653 
L 2963 -454 
L 2483 -454 
Q 2515 -198 2528 51 
Q 2541 301 2541 493 
L 2541 2374 
Q 2541 2496 2528 2656 
Q 2515 2816 2496 2912 
Q 2829 2874 3296 2874 
Q 3398 2874 3513 2877 
Q 3629 2880 3737 2886 
Q 3846 2893 3945 2899 
Q 4045 2906 4115 2912 
Q 4102 2829 4092 2685 
Q 4083 2541 4083 2374 
L 4083 141 
Q 4083 -38 4070 -153 
Q 4058 -269 3994 -345 
Q 3930 -422 3805 -467 
Q 3680 -512 3462 -550 
Q 3450 -435 3398 -310 
Q 3347 -186 3277 -77 
Q 3405 -96 3481 -93 
Q 3558 -90 3600 -51 
Q 3642 -13 3654 70 
Q 3667 154 3667 301 
L 3667 653 
L 2963 653 
z
M 3667 1952 
L 3667 2490 
L 2963 2490 
L 2963 1952 
L 3667 1952 
z
M 2963 1574 
L 2963 1024 
L 3667 1024 
L 3667 1574 
L 2963 1574 
z
M 4691 3245 
Q 4550 3270 4387 3283 
Q 4224 3296 3955 3296 
Q 3686 3296 3539 3283 
Q 3392 3270 3251 3245 
L 3251 3738 
Q 3398 3712 3542 3699 
Q 3686 3686 3955 3686 
Q 4186 3686 4336 3696 
Q 4486 3706 4614 3725 
Q 4192 4090 3910 4582 
Q 3712 4320 3529 4099 
Q 3347 3878 3161 3676 
Q 2976 3475 2774 3283 
Q 2573 3091 2342 2886 
Q 2272 2970 2150 3066 
Q 2029 3162 1939 3194 
Q 2400 3488 2851 3993 
Q 3302 4499 3667 5203 
Q 3795 5152 3968 5104 
Q 4141 5056 4250 5050 
Q 4307 5043 4316 5004 
Q 4326 4966 4282 4941 
L 4166 4864 
Q 4365 4557 4582 4339 
Q 4800 4122 5043 3971 
Q 5286 3821 5552 3728 
Q 5818 3635 6118 3578 
Q 6003 3488 5900 3331 
Q 5798 3174 5754 3059 
Q 5184 3258 4691 3661 
L 4691 3245 
z
" transform="scale(0.015625)"/>
      <path id="STHeitiSC-Medium-15c" d="M 3430 2438 
L 3430 262 
L 4909 307 
L 4909 1267 
Q 4909 1466 4899 1610 
Q 4890 1754 4870 1888 
Q 5056 1856 5193 1843 
Q 5331 1830 5491 1843 
Q 5613 1850 5542 1779 
Q 5498 1734 5478 1580 
Q 5459 1427 5459 1261 
L 5459 38 
Q 5459 -147 5465 -313 
Q 5472 -480 5485 -672 
L 4870 -672 
Q 4896 -435 4909 -166 
L 2970 -224 
Q 2394 -243 2035 -256 
Q 1677 -269 1446 -281 
Q 1216 -294 1072 -307 
Q 928 -320 781 -333 
Q 794 -224 803 -83 
Q 813 58 813 192 
L 813 1459 
Q 813 1613 806 1744 
Q 800 1875 787 1952 
Q 947 1920 1104 1901 
Q 1261 1882 1408 1894 
Q 1517 1901 1453 1805 
Q 1414 1741 1392 1587 
Q 1370 1434 1370 1325 
L 1370 198 
L 2874 243 
L 2874 2438 
L 2099 2438 
Q 1984 2438 1837 2432 
Q 1690 2426 1546 2416 
Q 1402 2406 1264 2393 
Q 1126 2381 1030 2368 
Q 1056 2515 1069 2656 
Q 1082 2797 1082 2938 
L 1082 3942 
Q 1082 4096 1072 4240 
Q 1062 4384 1030 4512 
Q 1235 4480 1427 4473 
Q 1619 4467 1702 4480 
Q 1792 4493 1798 4477 
Q 1805 4461 1741 4390 
Q 1722 4371 1702 4313 
Q 1683 4256 1664 4189 
Q 1645 4122 1635 4054 
Q 1626 3987 1626 3949 
L 1626 2899 
L 2874 2899 
L 2874 4262 
Q 2874 4358 2870 4476 
Q 2867 4595 2864 4710 
Q 2861 4826 2851 4931 
Q 2842 5037 2829 5114 
Q 3258 5024 3514 5043 
Q 3603 5050 3612 5030 
Q 3622 5011 3565 4954 
Q 3539 4928 3513 4854 
Q 3488 4781 3469 4681 
Q 3450 4582 3440 4473 
Q 3430 4365 3430 4269 
L 3430 2899 
L 4794 2899 
L 4794 3942 
Q 4794 4141 4781 4285 
Q 4768 4429 4736 4563 
Q 5114 4493 5357 4525 
Q 5440 4538 5453 4518 
Q 5466 4499 5434 4442 
Q 5382 4352 5360 4227 
Q 5338 4102 5338 3936 
L 5338 2778 
Q 5338 2592 5344 2445 
Q 5350 2298 5363 2138 
L 4749 2138 
Q 4762 2208 4774 2288 
Q 4787 2368 4794 2438 
L 3430 2438 
z
" transform="scale(0.015625)"/>
      <path id="STHeitiSC-Medium-2bd" d="M 1594 2413 
Q 1587 2758 1574 2998 
Q 1562 3238 1549 3379 
Q 1606 3366 1683 3360 
Q 1760 3354 1843 3347 
Q 1926 3341 2006 3337 
Q 2086 3334 2144 3334 
Q 2208 3334 2211 3308 
Q 2214 3283 2163 3258 
Q 2125 3238 2102 3196 
Q 2080 3155 2080 3078 
L 2080 2413 
Q 2285 2419 2409 2428 
Q 2534 2438 2656 2464 
L 2656 1984 
Q 2566 1997 2425 2003 
Q 2285 2010 2080 2016 
L 2080 1126 
Q 2381 1178 2576 1219 
Q 2771 1261 2880 1293 
Q 2848 1165 2835 1021 
Q 2822 877 2822 768 
Q 2714 755 2547 732 
Q 2381 710 2080 666 
Q 2080 288 2093 -41 
Q 2106 -371 2138 -710 
L 1536 -710 
Q 1568 -384 1581 -73 
Q 1594 237 1594 589 
Q 1210 518 947 454 
Q 685 390 499 320 
Q 480 461 448 643 
Q 416 826 384 966 
Q 480 966 624 976 
Q 768 986 937 998 
Q 1107 1011 1276 1024 
Q 1446 1037 1594 1056 
L 1594 2010 
Q 1222 1997 979 1968 
Q 736 1939 563 1894 
Q 506 2150 352 2374 
Q 410 2413 474 2486 
Q 538 2560 618 2713 
Q 698 2867 797 3126 
Q 896 3386 1030 3789 
Q 794 3782 678 3772 
Q 563 3763 448 3744 
L 448 4282 
Q 576 4256 736 4246 
Q 896 4237 1171 4230 
Q 1274 4563 1322 4784 
Q 1370 5005 1382 5210 
Q 1459 5178 1548 5149 
Q 1638 5120 1728 5091 
Q 1818 5062 1898 5040 
Q 1978 5018 2035 5005 
Q 2170 4973 2029 4883 
Q 2003 4870 1974 4832 
Q 1946 4794 1907 4717 
Q 1869 4640 1817 4521 
Q 1766 4403 1690 4230 
Q 2118 4230 2352 4243 
Q 2586 4256 2733 4282 
L 2733 3744 
Q 2656 3757 2576 3766 
Q 2496 3776 2368 3779 
Q 2240 3782 2035 3785 
Q 1830 3789 1510 3789 
L 986 2413 
L 1594 2413 
z
M 4640 134 
Q 4819 0 4988 -137 
Q 5158 -275 5344 -429 
L 4922 -870 
Q 4698 -646 4506 -464 
Q 4314 -282 4122 -125 
Q 3930 32 3722 176 
Q 3514 320 3264 467 
L 3578 858 
Q 3782 730 3948 618 
Q 4115 506 4262 403 
L 4915 1350 
L 3341 1350 
Q 3392 1594 3443 1843 
Q 3494 2093 3558 2490 
Q 3328 2477 3097 2467 
Q 2867 2458 2733 2432 
L 2733 2976 
Q 2893 2957 3139 2944 
Q 3386 2931 3616 2925 
Q 3648 3162 3670 3357 
Q 3693 3552 3718 3718 
Q 3514 3712 3296 3699 
Q 3078 3686 2957 3667 
L 2957 4211 
Q 3021 4198 3117 4188 
Q 3213 4179 3321 4172 
Q 3430 4166 3548 4160 
Q 3667 4154 3770 4154 
Q 3795 4352 3808 4496 
Q 3821 4640 3830 4752 
Q 3840 4864 3846 4957 
Q 3853 5050 3853 5146 
Q 4013 5094 4192 5062 
Q 4371 5030 4474 5030 
Q 4550 5030 4556 5001 
Q 4563 4973 4474 4890 
Q 4454 4877 4438 4838 
Q 4422 4800 4400 4717 
Q 4378 4634 4349 4496 
Q 4320 4358 4288 4147 
L 4973 4147 
Q 5158 4147 5334 4163 
Q 5510 4179 5677 4211 
L 5677 3667 
Q 5338 3725 4973 3725 
L 4218 3725 
Q 4192 3558 4163 3360 
Q 4134 3162 4102 2918 
L 5184 2918 
Q 5645 2918 6042 2976 
L 6042 2432 
Q 5843 2464 5625 2480 
Q 5408 2496 5184 2496 
L 4045 2496 
Q 4026 2336 4003 2160 
Q 3981 1984 3955 1792 
L 4992 1792 
Q 5434 1792 5734 1830 
L 5734 1389 
Q 5619 1344 5478 1232 
Q 5338 1120 5248 992 
L 4640 134 
z
" transform="scale(0.015625)"/>
      <path id="STHeitiSC-Medium-495" d="M 1139 3194 
Q 890 3187 682 3174 
Q 474 3162 333 3136 
L 333 3667 
Q 474 3642 682 3632 
Q 890 3622 1139 3616 
Q 1139 4154 1120 4554 
Q 1101 4954 1069 5094 
Q 1242 5062 1370 5052 
Q 1498 5043 1632 5050 
Q 1939 5062 1728 4890 
Q 1658 4838 1635 4790 
Q 1613 4742 1613 4659 
L 1613 3616 
Q 1798 3622 1948 3635 
Q 2099 3648 2221 3667 
L 2221 3136 
Q 2099 3155 1948 3168 
Q 1798 3181 1613 3187 
L 1613 2125 
Q 1754 2202 1891 2288 
Q 2029 2374 2176 2464 
Q 2157 2317 2182 2185 
Q 2208 2054 2278 1971 
Q 2112 1894 1945 1808 
Q 1779 1722 1613 1632 
L 1613 -115 
Q 1613 -256 1590 -345 
Q 1568 -435 1481 -496 
Q 1395 -557 1219 -601 
Q 1043 -646 736 -704 
Q 698 -538 640 -390 
Q 582 -243 480 -96 
Q 794 -160 966 -105 
Q 1139 -51 1139 96 
L 1139 1376 
Q 941 1261 768 1152 
Q 595 1043 448 934 
Q 429 1120 387 1280 
Q 346 1440 294 1568 
Q 512 1638 723 1715 
Q 934 1792 1139 1888 
L 1139 3194 
z
M 3808 1658 
Q 3846 1926 3856 2249 
Q 3866 2573 3853 2963 
L 3085 2963 
L 3085 1658 
L 3808 1658 
z
M 4339 2963 
Q 4339 2867 4336 2720 
Q 4333 2573 4323 2400 
Q 4314 2227 4301 2038 
Q 4288 1850 4269 1658 
L 5114 1658 
L 5114 2963 
L 4339 2963 
z
M 4294 4525 
Q 4416 4525 4569 4531 
Q 4723 4538 4873 4544 
Q 5024 4550 5145 4560 
Q 5267 4570 5338 4576 
L 4608 3341 
Q 4819 3341 4969 3344 
Q 5120 3347 5235 3353 
Q 5350 3360 5436 3366 
Q 5523 3373 5613 3386 
Q 5594 3200 5594 2893 
L 5594 1664 
Q 5696 1670 5792 1676 
Q 5888 1683 6016 1696 
L 6016 1229 
Q 5894 1242 5798 1251 
Q 5702 1261 5606 1264 
Q 5510 1267 5404 1267 
Q 5299 1267 5165 1267 
L 4499 1267 
Q 4608 966 4736 755 
Q 4864 544 5049 393 
Q 5235 243 5491 140 
Q 5747 38 6106 -38 
Q 6035 -128 5987 -201 
Q 5939 -275 5900 -342 
Q 5862 -410 5830 -477 
Q 5798 -544 5773 -627 
Q 5139 -422 4761 -9 
Q 4384 403 4166 1062 
Q 4109 858 3984 624 
Q 3859 390 3654 156 
Q 3450 -77 3149 -288 
Q 2848 -499 2438 -653 
Q 2355 -506 2265 -400 
Q 2176 -294 2042 -173 
Q 2419 -51 2704 83 
Q 2989 218 3190 387 
Q 3392 557 3523 771 
Q 3654 986 3731 1267 
L 2989 1267 
Q 2790 1267 2569 1260 
Q 2349 1254 2150 1229 
L 2150 1696 
Q 2266 1683 2384 1673 
Q 2502 1664 2624 1664 
L 2624 2893 
Q 2624 3200 2605 3386 
Q 2720 3373 2841 3363 
Q 2963 3354 3129 3347 
Q 3296 3341 3529 3341 
Q 3763 3341 4109 3341 
L 4544 4141 
L 3462 4141 
Q 3334 3885 3209 3705 
Q 3085 3526 2963 3392 
Q 2835 3482 2729 3546 
Q 2624 3610 2515 3642 
Q 2669 3782 2819 3984 
Q 2970 4186 3094 4400 
Q 3219 4614 3305 4822 
Q 3392 5030 3418 5197 
Q 3539 5146 3715 5094 
Q 3891 5043 4019 5011 
Q 4090 4992 4099 4957 
Q 4109 4922 4032 4877 
Q 3962 4838 3869 4748 
Q 3776 4659 3674 4525 
L 4294 4525 
z
" transform="scale(0.015625)"/>
     </defs>
     <use xlink:href="#STHeitiSC-Medium-8a9"/>
     <use xlink:href="#STHeitiSC-Medium-15c" transform="translate(100 0)"/>
     <use xlink:href="#STHeitiSC-Medium-2bd" transform="translate(200 0)"/>
     <use xlink:href="#STHeitiSC-Medium-495" transform="translate(300 0)"/>
    </g>
   </g>
   <g id="text_8">
    <!-- Replicate → Shard(1) -->
    <g transform="translate(690.75525 144.993208) scale(0.08 -0.08)">
     <use xlink:href="#STHeitiSC-Medium-34"/>
     <use xlink:href="#STHeitiSC-Medium-47" transform="translate(60.703125 0)"/>
     <use xlink:href="#STHeitiSC-Medium-52" transform="translate(125.703125 0)"/>
     <use xlink:href="#STHeitiSC-Medium-4e" transform="translate(193.90625 0)"/>
     <use xlink:href="#STHeitiSC-Medium-4b" transform="translate(213.90625 0)"/>
     <use xlink:href="#STHeitiSC-Medium-45" transform="translate(233.90625 0)"/>
     <use xlink:href="#STHeitiSC-Medium-43" transform="translate(298.609375 0)"/>
     <use xlink:href="#STHeitiSC-Medium-56" transform="translate(366.90625 0)"/>
     <use xlink:href="#STHeitiSC-Medium-47" transform="translate(400.8125 0)"/>
     <use xlink:href="#STHeitiSC-Medium-3" transform="translate(465.8125 0)"/>
     <use xlink:href="#STHeitiSC-Medium-c0c6" transform="translate(490.8125 0)"/>
     <use xlink:href="#STHeitiSC-Medium-3" transform="translate(590.8125 0)"/>
     <use xlink:href="#STHeitiSC-Medium-35" transform="translate(615.8125 0)"/>
     <use xlink:href="#STHeitiSC-Medium-4a" transform="translate(665.609375 0)"/>
     <use xlink:href="#STHeitiSC-Medium-43" transform="translate(726.609375 0)"/>
     <use xlink:href="#STHeitiSC-Medium-54" transform="translate(794.90625 0)"/>
     <use xlink:href="#STHeitiSC-Medium-46" transform="translate(825 0)"/>
     <use xlink:href="#STHeitiSC-Medium-a" transform="translate(893.5 0)"/>
     <use xlink:href="#STHeitiSC-Medium-13" transform="translate(930.40625 0)"/>
     <use xlink:href="#STHeitiSC-Medium-b" transform="translate(985.8125 0)"/>
    </g>
   </g>
   <g id="text_9">
    <!-- 序列并行与 Attention/FeedForward 的衔接 -->
    <g transform="translate(289.59 19.24) scale(0.14 -0.14)">
     <defs>
      <path id="STHeitiSC-Medium-6d6" d="M 4723 3085 
L 3360 3085 
Q 3200 3085 3033 3081 
Q 2867 3078 2713 3075 
Q 2560 3072 2429 3062 
Q 2298 3053 2202 3040 
L 2202 3558 
Q 2406 3533 2844 3517 
Q 3283 3501 3885 3501 
Q 4474 3501 4918 3517 
Q 5363 3533 5574 3558 
L 5574 3021 
Q 5491 3014 5385 2976 
Q 5280 2938 5113 2842 
Q 4947 2746 4704 2582 
Q 4461 2419 4109 2163 
Q 4154 2125 4192 2080 
Q 4230 2035 4262 1990 
Q 4550 1990 4793 1993 
Q 5037 1997 5245 2003 
Q 5453 2010 5638 2022 
Q 5824 2035 6003 2054 
L 5594 858 
L 5037 960 
L 5293 1568 
L 4147 1568 
L 4147 -192 
Q 4147 -307 4092 -403 
Q 4038 -499 3910 -566 
Q 3782 -634 3561 -672 
Q 3341 -710 3014 -717 
Q 3002 -582 2938 -406 
Q 2874 -230 2752 -70 
Q 3027 -102 3200 -105 
Q 3373 -109 3462 -86 
Q 3552 -64 3584 -13 
Q 3616 38 3616 109 
L 3616 1568 
Q 2957 1568 2534 1555 
Q 2112 1542 1843 1530 
L 1843 2042 
Q 1971 2029 2166 2022 
Q 2362 2016 2598 2006 
Q 2835 1997 3100 1993 
Q 3366 1990 3635 1990 
Q 3514 2138 3334 2291 
Q 3155 2445 2989 2541 
L 3283 2874 
Q 3533 2726 3827 2438 
L 4723 3085 
z
M 3386 4493 
Q 3341 4659 3283 4822 
Q 3226 4986 3155 5133 
L 3763 5254 
Q 3821 5069 3875 4873 
Q 3930 4678 3981 4493 
Q 4461 4493 4806 4499 
Q 5152 4506 5392 4512 
Q 5632 4518 5789 4531 
Q 5946 4544 6054 4557 
L 6054 3981 
Q 5830 4006 5398 4016 
Q 4966 4026 4397 4026 
L 1587 4026 
Q 1587 3296 1577 2742 
Q 1568 2189 1542 1769 
Q 1517 1350 1472 1030 
Q 1427 710 1350 444 
Q 1274 179 1168 -57 
Q 1062 -294 915 -550 
Q 787 -448 659 -371 
Q 531 -294 346 -256 
Q 512 -19 637 211 
Q 762 442 842 714 
Q 922 986 966 1328 
Q 1011 1670 1024 2124 
Q 1037 2579 1021 3174 
Q 1005 3770 966 4557 
Q 1158 4538 1376 4528 
Q 1594 4518 1872 4508 
Q 2150 4499 2518 4496 
Q 2886 4493 3386 4493 
z
" transform="scale(0.015625)"/>
      <path id="STHeitiSC-Medium-509" d="M 5837 4954 
Q 5792 4922 5779 4886 
Q 5766 4851 5766 4762 
L 5766 250 
Q 5766 6 5734 -147 
Q 5702 -301 5590 -397 
Q 5478 -493 5264 -553 
Q 5050 -614 4678 -678 
Q 4627 -346 4352 6 
Q 4653 -6 4829 0 
Q 5005 6 5097 51 
Q 5190 96 5216 179 
Q 5242 262 5242 397 
L 5242 4070 
Q 5242 4448 5232 4713 
Q 5222 4979 5210 5133 
Q 5338 5107 5501 5094 
Q 5664 5082 5779 5088 
Q 5875 5094 5888 5052 
Q 5901 5011 5837 4954 
z
M 4614 4154 
Q 4544 4109 4544 3949 
L 4544 1747 
Q 4544 1555 4550 1356 
Q 4557 1158 4576 934 
L 4013 934 
Q 4026 1171 4032 1363 
Q 4038 1555 4038 1747 
L 4038 3590 
Q 4038 3834 4032 4003 
Q 4026 4173 4013 4301 
Q 4160 4275 4310 4272 
Q 4461 4269 4582 4282 
Q 4666 4294 4675 4249 
Q 4685 4205 4614 4154 
z
M 3507 3379 
Q 3424 2656 3264 2067 
Q 3104 1478 2886 1062 
Q 2778 864 2602 643 
Q 2426 422 2198 208 
Q 1971 -6 1705 -208 
Q 1440 -410 1165 -576 
Q 1133 -531 1075 -467 
Q 1018 -403 950 -339 
Q 883 -275 812 -220 
Q 742 -166 691 -134 
Q 890 -58 1114 70 
Q 1338 198 1555 358 
Q 1773 518 1965 700 
Q 2157 883 2291 1069 
Q 2221 1146 2125 1248 
Q 2029 1350 1923 1449 
Q 1818 1549 1709 1641 
Q 1600 1734 1517 1798 
L 1888 2163 
Q 2061 2022 2224 1878 
Q 2387 1734 2560 1568 
Q 2637 1728 2691 1872 
Q 2746 2016 2790 2169 
Q 2835 2323 2867 2502 
Q 2899 2682 2931 2912 
L 1894 2912 
Q 1811 2714 1702 2506 
Q 1594 2298 1472 2096 
Q 1350 1894 1219 1708 
Q 1088 1523 966 1382 
Q 877 1491 752 1574 
Q 627 1658 493 1696 
Q 736 1907 941 2188 
Q 1146 2470 1306 2796 
Q 1466 3123 1571 3481 
Q 1677 3840 1728 4205 
Q 1363 4198 1097 4185 
Q 832 4173 608 4147 
L 608 4730 
Q 896 4698 1261 4682 
Q 1626 4666 2163 4666 
Q 2707 4666 3068 4682 
Q 3430 4698 3718 4730 
L 3718 4147 
Q 3443 4179 3097 4195 
Q 2752 4211 2246 4211 
Q 2202 3821 2054 3379 
L 3507 3379 
z
" transform="scale(0.015625)"/>
      <path id="STHeitiSC-Medium-2c4" d="M 2163 4000 
Q 2054 4256 1942 4454 
Q 1830 4653 1664 4858 
L 2234 5133 
Q 2342 4909 2460 4704 
Q 2579 4499 2758 4250 
L 2163 4000 
z
M 2093 3475 
Q 1933 3469 1753 3465 
Q 1574 3462 1401 3456 
Q 1229 3450 1075 3440 
Q 922 3430 813 3418 
L 813 3949 
Q 954 3936 1168 3923 
Q 1382 3910 1612 3904 
Q 1843 3898 2060 3894 
Q 2278 3891 2438 3891 
L 3539 3891 
Q 3654 4128 3734 4307 
Q 3814 4486 3868 4636 
Q 3923 4787 3948 4915 
Q 3974 5043 3987 5178 
Q 4058 5133 4154 5094 
Q 4250 5056 4349 5027 
Q 4448 4998 4544 4982 
Q 4640 4966 4704 4960 
Q 4787 4954 4790 4915 
Q 4794 4877 4704 4832 
Q 4659 4813 4598 4758 
Q 4538 4704 4451 4595 
Q 4365 4486 4246 4316 
Q 4128 4147 3968 3891 
Q 4378 3898 4643 3901 
Q 4909 3904 5094 3910 
Q 5280 3917 5411 3926 
Q 5542 3936 5683 3949 
L 5683 3418 
Q 5568 3430 5411 3440 
Q 5254 3450 5078 3456 
Q 4902 3462 4720 3468 
Q 4538 3475 4378 3475 
L 4378 1965 
Q 4563 1965 4787 1968 
Q 5011 1971 5235 1980 
Q 5459 1990 5670 2003 
Q 5882 2016 6048 2029 
L 6048 1466 
Q 5882 1478 5670 1488 
Q 5459 1498 5235 1504 
Q 5011 1510 4787 1513 
Q 4563 1517 4378 1517 
L 4378 550 
Q 4378 269 4394 -60 
Q 4410 -390 4435 -730 
L 3827 -730 
Q 3853 -390 3865 -60 
Q 3878 269 3878 550 
L 3878 1517 
L 2579 1517 
Q 2547 1184 2444 896 
Q 2342 608 2150 349 
Q 1958 90 1670 -150 
Q 1382 -390 973 -627 
Q 883 -480 771 -387 
Q 659 -294 467 -218 
Q 890 -51 1181 134 
Q 1472 320 1661 531 
Q 1850 742 1946 988 
Q 2042 1235 2074 1517 
Q 1882 1517 1654 1513 
Q 1427 1510 1193 1504 
Q 960 1498 739 1488 
Q 518 1478 352 1466 
L 352 2029 
Q 512 2016 733 2003 
Q 954 1990 1190 1980 
Q 1427 1971 1664 1968 
Q 1901 1965 2093 1965 
L 2093 3475 
z
M 2598 3475 
L 2598 1965 
L 3878 1965 
L 3878 3475 
L 2598 3475 
z
" transform="scale(0.015625)"/>
      <path id="STHeitiSC-Medium-1c4" d="M 2266 4749 
Q 2355 4710 2348 4672 
Q 2342 4634 2253 4614 
Q 2221 4608 2176 4582 
Q 2131 4557 2064 4499 
Q 1997 4442 1904 4339 
Q 1811 4237 1683 4083 
Q 1626 4013 1523 3904 
Q 1421 3795 1299 3673 
Q 1178 3552 1050 3433 
Q 922 3315 826 3226 
Q 755 3334 649 3427 
Q 544 3520 435 3584 
Q 678 3750 873 3955 
Q 1069 4160 1254 4416 
Q 1421 4627 1526 4800 
Q 1632 4973 1702 5120 
Q 1760 5069 1833 5014 
Q 1907 4960 1987 4909 
Q 2067 4858 2140 4813 
Q 2214 4768 2266 4749 
z
M 5683 4096 
Q 5440 4128 5120 4141 
Q 4800 4154 4358 4154 
Q 3917 4154 3593 4141 
Q 3270 4128 3027 4096 
L 3027 4685 
Q 3270 4653 3593 4643 
Q 3917 4634 4358 4634 
Q 4800 4634 5120 4643 
Q 5440 4653 5683 4685 
L 5683 4096 
z
M 4960 64 
Q 4960 -122 4918 -250 
Q 4877 -378 4742 -461 
Q 4608 -544 4361 -585 
Q 4115 -627 3706 -646 
Q 3693 -493 3622 -339 
Q 3552 -186 3405 26 
Q 3712 -13 3907 -9 
Q 4102 -6 4211 29 
Q 4320 64 4361 125 
Q 4403 186 4403 262 
L 4403 2509 
Q 3795 2509 3385 2493 
Q 2976 2477 2656 2451 
L 2656 3040 
Q 2816 3027 2998 3017 
Q 3181 3008 3392 3001 
Q 3603 2995 3856 2992 
Q 4109 2989 4410 2989 
Q 4710 2989 4950 2992 
Q 5190 2995 5388 3001 
Q 5587 3008 5756 3017 
Q 5926 3027 6093 3040 
L 6093 2451 
Q 5843 2477 5580 2486 
Q 5318 2496 4960 2502 
L 4960 64 
z
M 1773 -640 
L 1184 -640 
Q 1216 -371 1229 -131 
Q 1242 109 1242 390 
L 1242 1830 
Q 1101 1670 957 1516 
Q 813 1363 678 1216 
Q 570 1466 307 1696 
Q 570 1894 842 2172 
Q 1114 2451 1318 2752 
Q 1498 3014 1626 3222 
Q 1754 3430 1850 3635 
Q 1907 3590 1977 3539 
Q 2048 3488 2121 3440 
Q 2195 3392 2265 3350 
Q 2336 3309 2387 3283 
Q 2470 3238 2467 3203 
Q 2464 3168 2374 3149 
Q 2336 3136 2173 2979 
Q 2010 2822 1773 2496 
L 1773 -640 
z
" transform="scale(0.015625)"/>
      <path id="STHeitiSC-Medium-209" d="M 2099 3776 
Q 2086 3533 2076 3277 
Q 2067 3021 2061 2765 
L 4013 2765 
Q 5024 2765 5555 2842 
Q 5542 2650 5523 2413 
Q 5504 2176 5481 1907 
Q 5459 1638 5430 1347 
Q 5402 1056 5376 768 
Q 5331 333 5276 73 
Q 5222 -186 5078 -333 
Q 4934 -480 4659 -547 
Q 4384 -614 3904 -672 
Q 3878 -525 3811 -345 
Q 3744 -166 3635 -19 
Q 3917 -45 4115 -51 
Q 4314 -58 4448 3 
Q 4582 64 4665 205 
Q 4749 346 4800 611 
Q 4851 877 4880 1289 
Q 4909 1702 4934 2298 
L 3091 2298 
Q 2720 2298 2294 2278 
Q 1869 2259 1478 2221 
Q 1498 2336 1514 2557 
Q 1530 2778 1542 3050 
Q 1555 3322 1561 3622 
Q 1568 3923 1568 4204 
Q 1568 4486 1561 4723 
Q 1555 4960 1536 5107 
Q 1587 5088 1680 5072 
Q 1773 5056 1875 5043 
Q 1978 5030 2077 5024 
Q 2176 5018 2240 5024 
Q 2310 5030 2320 5001 
Q 2330 4973 2259 4890 
Q 2227 4858 2204 4720 
Q 2182 4582 2144 4243 
L 3853 4243 
Q 4506 4243 4957 4259 
Q 5408 4275 5734 4307 
L 5734 3712 
Q 5446 3738 4976 3757 
Q 4506 3776 3853 3776 
L 2099 3776 
z
M 4320 774 
Q 3994 800 3530 816 
Q 3066 832 2464 832 
Q 1862 832 1427 819 
Q 992 806 659 774 
L 659 1376 
Q 986 1344 1424 1334 
Q 1862 1325 2464 1325 
Q 3066 1325 3530 1344 
Q 3994 1363 4320 1395 
L 4320 774 
z
" transform="scale(0.015625)"/>
      <path id="STHeitiSC-Medium-100" d="M 4032 1120 
Q 3994 1267 3933 1433 
Q 3872 1600 3798 1760 
Q 3725 1920 3648 2064 
Q 3571 2208 3494 2317 
L 4013 2541 
Q 4064 2413 4131 2265 
Q 4198 2118 4275 1971 
Q 4352 1824 4435 1680 
Q 4518 1536 4595 1414 
L 4032 1120 
z
M 5107 3981 
Q 5293 3981 5501 3997 
Q 5709 4013 5830 4032 
Q 5805 3891 5795 3728 
Q 5786 3565 5779 3398 
L 5645 179 
Q 5638 6 5574 -131 
Q 5510 -269 5369 -374 
Q 5229 -480 4995 -547 
Q 4762 -614 4410 -640 
Q 4390 -467 4300 -265 
Q 4211 -64 4058 70 
Q 4384 32 4585 38 
Q 4787 45 4902 93 
Q 5018 141 5062 233 
Q 5107 326 5114 467 
L 5235 3488 
L 3878 3488 
Q 3770 3174 3654 2937 
Q 3539 2701 3398 2445 
Q 3155 2694 2925 2765 
Q 3200 3130 3417 3702 
Q 3635 4275 3770 5056 
Q 3904 5005 4096 4973 
Q 4288 4941 4435 4947 
Q 4525 4954 4531 4906 
Q 4538 4858 4442 4787 
Q 4371 4736 4262 4512 
Q 4154 4288 4045 3981 
L 5107 3981 
z
M 2304 3469 
L 1152 3469 
L 1152 2342 
L 2304 2342 
L 2304 3469 
z
M 2304 1907 
L 1152 1907 
L 1152 634 
L 2304 634 
L 2304 1907 
z
M 1152 -422 
L 563 -422 
Q 582 -275 592 -156 
Q 602 -38 605 67 
Q 608 173 611 278 
Q 614 384 614 518 
L 614 3379 
Q 614 3526 604 3683 
Q 595 3840 570 3962 
Q 698 3949 870 3939 
Q 1043 3930 1235 3917 
Q 1363 4576 1363 5062 
Q 1517 5024 1709 4998 
Q 1901 4973 2054 4966 
Q 2131 4960 2137 4918 
Q 2144 4877 2067 4806 
Q 2029 4774 1997 4723 
Q 1965 4672 1929 4573 
Q 1894 4474 1849 4317 
Q 1805 4160 1741 3910 
Q 2099 3910 2374 3920 
Q 2650 3930 2893 3962 
Q 2867 3834 2857 3677 
Q 2848 3520 2848 3379 
L 2848 563 
Q 2848 429 2851 320 
Q 2854 211 2860 105 
Q 2867 0 2876 -115 
Q 2886 -230 2899 -371 
L 2304 -371 
L 2304 198 
L 1152 198 
L 1152 -422 
z
" transform="scale(0.015625)"/>
      <path id="STHeitiSC-Medium-15b6" d="M 2003 4877 
Q 2086 4851 2080 4812 
Q 2074 4774 1997 4736 
Q 1946 4704 1843 4598 
Q 1741 4493 1574 4282 
Q 1478 4160 1395 4057 
Q 1312 3955 1232 3862 
Q 1152 3770 1065 3677 
Q 979 3584 877 3475 
Q 787 3578 688 3654 
Q 589 3731 435 3802 
Q 538 3878 618 3948 
Q 698 4019 778 4099 
Q 858 4179 944 4288 
Q 1030 4397 1146 4550 
Q 1184 4595 1229 4675 
Q 1274 4755 1322 4848 
Q 1370 4941 1411 5040 
Q 1453 5139 1485 5229 
Q 1549 5171 1625 5113 
Q 1702 5056 1776 5008 
Q 1850 4960 1910 4921 
Q 1971 4883 2003 4877 
z
M 5971 4192 
Q 5882 4205 5805 4214 
Q 5728 4224 5641 4227 
Q 5555 4230 5456 4233 
Q 5357 4237 5229 4237 
Q 5094 4237 4998 4233 
Q 4902 4230 4819 4227 
Q 4736 4224 4662 4214 
Q 4589 4205 4499 4192 
L 4499 4736 
Q 4589 4723 4665 4716 
Q 4742 4710 4822 4704 
Q 4902 4698 4998 4698 
Q 5094 4698 5229 4698 
Q 5363 4698 5462 4698 
Q 5562 4698 5645 4704 
Q 5728 4710 5805 4716 
Q 5882 4723 5971 4736 
L 5971 4192 
z
M 3238 474 
Q 3494 646 3702 812 
Q 3910 979 4102 1152 
Q 4115 986 4147 886 
Q 4179 787 4250 659 
L 3322 -51 
Q 3187 -154 3056 -275 
Q 2925 -397 2842 -486 
Q 2790 -378 2720 -262 
Q 2650 -147 2528 -13 
Q 2630 83 2691 259 
Q 2752 435 2752 653 
L 2752 1600 
Q 2490 1594 2285 1584 
Q 2080 1574 1926 1555 
L 1926 2067 
Q 2086 2048 2288 2038 
Q 2490 2029 2752 2022 
L 2752 2739 
Q 2598 2733 2476 2720 
Q 2355 2707 2246 2694 
L 2246 3206 
Q 2419 3181 2624 3168 
Q 2829 3155 3149 3155 
Q 3462 3155 3654 3168 
Q 3846 3181 4013 3206 
L 4013 2694 
Q 3859 2720 3686 2733 
Q 3514 2746 3238 2746 
L 3238 2016 
Q 3584 2016 3833 2029 
Q 4083 2042 4275 2067 
L 4275 1555 
Q 4083 1581 3833 1593 
Q 3584 1606 3238 1606 
L 3238 474 
z
M 2790 3840 
Q 2701 3712 2589 3571 
Q 2477 3430 2368 3302 
Q 2278 3392 2172 3462 
Q 2067 3533 1901 3590 
Q 2266 3904 2528 4301 
Q 2790 4698 2912 5139 
Q 3046 5062 3187 5001 
Q 3328 4941 3437 4909 
Q 3546 4877 3549 4848 
Q 3552 4819 3462 4749 
Q 3341 4666 3072 4256 
L 3654 4256 
Q 3802 4256 3920 4262 
Q 4038 4269 4160 4288 
L 4160 3814 
Q 4038 3827 3920 3833 
Q 3802 3840 3654 3840 
L 2790 3840 
z
M 5568 32 
Q 5568 -173 5545 -288 
Q 5523 -403 5424 -473 
Q 5325 -544 5123 -582 
Q 4922 -621 4570 -659 
Q 4570 -538 4525 -387 
Q 4480 -237 4352 -13 
Q 4589 -38 4729 -35 
Q 4870 -32 4944 0 
Q 5018 32 5040 99 
Q 5062 166 5062 269 
L 5062 2886 
Q 4934 2886 4835 2880 
Q 4736 2874 4653 2867 
Q 4570 2861 4496 2851 
Q 4422 2842 4346 2829 
L 4346 3379 
Q 4442 3366 4528 3356 
Q 4614 3347 4716 3340 
Q 4819 3334 4947 3331 
Q 5075 3328 5254 3328 
Q 5434 3328 5565 3331 
Q 5696 3334 5798 3340 
Q 5901 3347 5987 3356 
Q 6074 3366 6170 3379 
L 6170 2829 
Q 6022 2854 5894 2864 
Q 5766 2874 5568 2880 
L 5568 32 
z
M 1498 -691 
L 954 -691 
Q 986 -422 998 -182 
Q 1011 58 1011 339 
L 1011 1946 
Q 915 1830 816 1724 
Q 717 1619 621 1523 
Q 563 1632 460 1734 
Q 358 1837 230 1914 
Q 442 2054 643 2256 
Q 845 2458 1088 2835 
Q 1210 3021 1293 3193 
Q 1376 3366 1446 3571 
Q 1510 3526 1590 3481 
Q 1670 3437 1747 3398 
Q 1824 3360 1885 3334 
Q 1946 3309 1978 3302 
Q 2061 3283 2057 3244 
Q 2054 3206 1958 3162 
Q 1939 3155 1913 3126 
Q 1888 3098 1837 3034 
Q 1786 2970 1702 2861 
Q 1619 2752 1498 2579 
L 1498 -691 
z
" transform="scale(0.015625)"/>
      <path id="STHeitiSC-Medium-2c8" d="M 3379 2989 
Q 3322 3136 3254 3273 
Q 3187 3411 3091 3558 
L 3571 3814 
Q 3622 3686 3718 3526 
Q 3814 3366 3904 3251 
L 3379 2989 
z
M 1210 3392 
Q 960 3392 752 3382 
Q 544 3373 403 3360 
L 403 3885 
Q 544 3872 752 3859 
Q 960 3846 1210 3840 
Q 1210 4096 1206 4288 
Q 1203 4480 1200 4624 
Q 1197 4768 1187 4867 
Q 1178 4966 1171 5037 
Q 1344 5005 1478 4992 
Q 1613 4979 1747 4986 
Q 2022 4998 1811 4832 
Q 1747 4781 1728 4726 
Q 1709 4672 1709 4589 
L 1709 3846 
Q 1914 3853 2080 3862 
Q 2246 3872 2368 3885 
L 2368 3360 
Q 2246 3373 2080 3379 
Q 1914 3386 1709 3392 
L 1709 2374 
Q 1843 2445 1971 2512 
Q 2099 2579 2227 2669 
Q 2240 2541 2262 2425 
Q 2285 2310 2323 2189 
Q 2195 2118 2038 2035 
Q 1882 1952 1709 1856 
L 1709 83 
Q 1709 -134 1683 -262 
Q 1658 -390 1565 -464 
Q 1472 -538 1286 -579 
Q 1101 -621 781 -666 
Q 768 -506 726 -368 
Q 685 -230 595 -58 
Q 813 -70 934 -67 
Q 1056 -64 1117 -29 
Q 1178 6 1194 80 
Q 1210 154 1210 282 
L 1210 1568 
Q 813 1344 512 1165 
Q 480 1318 429 1484 
Q 378 1651 307 1792 
Q 525 1856 752 1939 
Q 979 2022 1210 2125 
L 1210 3392 
z
M 4634 397 
Q 4992 237 5325 83 
Q 5658 -70 5914 -198 
Q 5805 -320 5718 -435 
Q 5632 -550 5542 -698 
Q 5325 -531 5001 -332 
Q 4678 -134 4282 70 
Q 3936 -192 3475 -361 
Q 3014 -531 2406 -621 
Q 2342 -499 2268 -396 
Q 2195 -294 2080 -173 
Q 3168 -90 3802 301 
Q 3565 410 3318 509 
Q 3072 608 2816 691 
Q 2899 800 2953 880 
Q 3008 960 3049 1033 
Q 3091 1107 3132 1193 
Q 3174 1280 3232 1395 
Q 3059 1395 2931 1388 
Q 2803 1382 2691 1379 
Q 2579 1376 2480 1366 
Q 2381 1357 2272 1350 
L 2272 1875 
Q 2394 1862 2509 1852 
Q 2624 1843 2752 1840 
Q 2880 1837 3046 1833 
Q 3213 1830 3443 1830 
Q 3552 2054 3590 2169 
Q 3629 2285 3642 2400 
Q 3936 2272 4141 2246 
Q 4224 2234 4230 2195 
Q 4237 2157 4147 2093 
Q 4122 2074 4093 2029 
Q 4064 1984 3974 1830 
L 4845 1830 
Q 5094 1830 5270 1830 
Q 5446 1830 5587 1836 
Q 5728 1843 5846 1852 
Q 5965 1862 6093 1875 
L 6093 1350 
Q 5984 1363 5891 1369 
Q 5798 1376 5692 1382 
Q 5587 1389 5465 1392 
Q 5344 1395 5184 1395 
Q 5011 806 4634 397 
z
M 3462 883 
Q 3616 826 3798 752 
Q 3981 678 4173 595 
Q 4346 762 4464 963 
Q 4582 1165 4653 1395 
L 3738 1395 
L 3462 883 
z
M 4320 2899 
Q 4454 3174 4547 3440 
Q 4640 3706 4678 3923 
Q 4800 3853 4960 3795 
Q 5120 3738 5261 3712 
Q 5293 3706 5299 3686 
Q 5306 3667 5274 3648 
Q 5184 3578 5069 3405 
Q 4954 3232 4787 2899 
Q 5005 2899 5161 2902 
Q 5318 2906 5449 2909 
Q 5581 2912 5696 2921 
Q 5811 2931 5946 2944 
L 5946 2432 
Q 5818 2445 5683 2454 
Q 5549 2464 5363 2467 
Q 5178 2470 4909 2473 
Q 4640 2477 4237 2477 
Q 3834 2477 3568 2473 
Q 3302 2470 3113 2467 
Q 2925 2464 2793 2454 
Q 2662 2445 2528 2432 
L 2528 2944 
Q 2662 2931 2777 2921 
Q 2893 2912 3027 2909 
Q 3162 2906 3325 2902 
Q 3488 2899 3712 2899 
L 4320 2899 
z
M 4026 4467 
Q 3994 4602 3958 4749 
Q 3923 4896 3872 5030 
L 4461 5165 
Q 4493 5011 4531 4828 
Q 4570 4646 4621 4467 
Q 4902 4467 5100 4470 
Q 5299 4474 5446 4477 
Q 5594 4480 5702 4489 
Q 5811 4499 5914 4512 
L 5914 3974 
Q 5798 3987 5667 3996 
Q 5536 4006 5350 4012 
Q 5165 4019 4896 4022 
Q 4627 4026 4237 4026 
Q 3846 4026 3580 4022 
Q 3315 4019 3126 4012 
Q 2938 4006 2810 3996 
Q 2682 3987 2566 3974 
L 2566 4512 
Q 2675 4499 2793 4489 
Q 2912 4480 3075 4477 
Q 3238 4474 3465 4470 
Q 3693 4467 4026 4467 
z
" transform="scale(0.015625)"/>
     </defs>
     <use xlink:href="#STHeitiSC-Medium-6d6"/>
     <use xlink:href="#STHeitiSC-Medium-509" transform="translate(100 0)"/>
     <use xlink:href="#STHeitiSC-Medium-2c4" transform="translate(200 0)"/>
     <use xlink:href="#STHeitiSC-Medium-1c4" transform="translate(300 0)"/>
     <use xlink:href="#STHeitiSC-Medium-209" transform="translate(400 0)"/>
     <use xlink:href="#STHeitiSC-Medium-3" transform="translate(500 0)"/>
     <use xlink:href="#STHeitiSC-Medium-23" transform="translate(525 0)"/>
     <use xlink:href="#STHeitiSC-Medium-56" transform="translate(599 0)"/>
     <use xlink:href="#STHeitiSC-Medium-56" transform="translate(632.90625 0)"/>
     <use xlink:href="#STHeitiSC-Medium-47" transform="translate(666.8125 0)"/>
     <use xlink:href="#STHeitiSC-Medium-50" transform="translate(731.8125 0)"/>
     <use xlink:href="#STHeitiSC-Medium-56" transform="translate(792.8125 0)"/>
     <use xlink:href="#STHeitiSC-Medium-4b" transform="translate(826.71875 0)"/>
     <use xlink:href="#STHeitiSC-Medium-51" transform="translate(846.71875 0)"/>
     <use xlink:href="#STHeitiSC-Medium-50" transform="translate(912.21875 0)"/>
     <use xlink:href="#STHeitiSC-Medium-11" transform="translate(973.21875 0)"/>
     <use xlink:href="#STHeitiSC-Medium-28" transform="translate(1016.921875 0)"/>
     <use xlink:href="#STHeitiSC-Medium-47" transform="translate(1065.421875 0)"/>
     <use xlink:href="#STHeitiSC-Medium-47" transform="translate(1130.421875 0)"/>
     <use xlink:href="#STHeitiSC-Medium-46" transform="translate(1195.421875 0)"/>
     <use xlink:href="#STHeitiSC-Medium-28" transform="translate(1263.921875 0)"/>
     <use xlink:href="#STHeitiSC-Medium-51" transform="translate(1312.421875 0)"/>
     <use xlink:href="#STHeitiSC-Medium-54" transform="translate(1377.921875 0)"/>
     <use xlink:href="#STHeitiSC-Medium-59" transform="translate(1408.015625 0)"/>
     <use xlink:href="#STHeitiSC-Medium-43" transform="translate(1491.109375 0)"/>
     <use xlink:href="#STHeitiSC-Medium-54" transform="translate(1559.40625 0)"/>
     <use xlink:href="#STHeitiSC-Medium-46" transform="translate(1589.5 0)"/>
     <use xlink:href="#STHeitiSC-Medium-3" transform="translate(1658 0)"/>
     <use xlink:href="#STHeitiSC-Medium-100" transform="translate(1683 0)"/>
     <use xlink:href="#STHeitiSC-Medium-15b6" transform="translate(1783 0)"/>
     <use xlink:href="#STHeitiSC-Medium-2c8" transform="translate(1883 0)"/>
    </g>
   </g>
  </g>
 </g>
 <defs>
  <clipPath id="p8697891a8d">
   <rect x="7.2" y="39.24" width="842.4" height="162.16"/>
  </clipPath>
 </defs>
</svg>
