<?xml version="1.0" encoding="utf-8" standalone="no"?>
<!DOCTYPE svg PUBLIC "-//W3C//DTD SVG 1.1//EN"
  "http://www.w3.org/Graphics/SVG/1.1/DTD/svg11.dtd">
<svg xmlns:xlink="http://www.w3.org/1999/xlink" width="1000.8pt" height="460.8pt" viewBox="0 0 1000.8 460.8" xmlns="http://www.w3.org/2000/svg" version="1.1">
 <metadata>
  <rdf:RDF xmlns:dc="http://purl.org/dc/elements/1.1/" xmlns:cc="http://creativecommons.org/ns#" xmlns:rdf="http://www.w3.org/1999/02/22-rdf-syntax-ns#">
   <cc:Work>
    <dc:type rdf:resource="http://purl.org/dc/dcmitype/StillImage"/>
    <dc:date>2026-07-13T16:24:13.192964</dc:date>
    <dc:format>image/svg+xml</dc:format>
    <dc:creator>
     <cc:Agent>
      <dc:title>Matplotlib v3.11.0, https://matplotlib.org/</dc:title>
     </cc:Agent>
    </dc:creator>
   </cc:Work>
  </rdf:RDF>
 </metadata>
 <defs>
  <style type="text/css">*{stroke-linejoin: round; stroke-linecap: butt}</style>
 </defs>
 <g id="figure_1">
  <g id="patch_1">
   <path d="M 0 460.8 
L 1000.8 460.8 
L 1000.8 0 
L 0 0 
z
" style="fill: #ffffff"/>
  </g>
  <g id="axes_1">
   <g id="patch_2">
    <path d="M 55.98 420.0512 
L 446.22 420.0512 
Q 455.976 420.0512 455.976 411.664 
L 455.976 55.208 
Q 455.976 46.8208 446.22 46.8208 
L 55.98 46.8208 
Q 46.224 46.8208 46.224 55.208 
L 46.224 411.664 
Q 46.224 420.0512 55.98 420.0512 
z
" clip-path="url(#pc37048318b)" style="fill: #fafafa; stroke: #bdbdbd; stroke-width: 1.5; stroke-linejoin: miter"/>
   </g>
   <g id="patch_3">
    <path d="M 104.76 160.048 
L 397.44 160.048 
Q 407.196 160.048 407.196 151.6608 
L 407.196 101.3376 
Q 407.196 92.9504 397.44 92.9504 
L 104.76 92.9504 
Q 95.004 92.9504 95.004 101.3376 
L 95.004 151.6608 
Q 95.004 160.048 104.76 160.048 
z
" clip-path="url(#pc37048318b)" style="fill: #e3f2fd; stroke: #1565c0; stroke-width: 2; stroke-linejoin: miter"/>
   </g>
   <g id="patch_4">
    <path d="M 104.76 285.856 
L 397.44 285.856 
Q 407.196 285.856 407.196 277.4688 
L 407.196 227.1456 
Q 407.196 218.7584 397.44 218.7584 
L 104.76 218.7584 
Q 95.004 218.7584 95.004 227.1456 
L 95.004 277.4688 
Q 95.004 285.856 104.76 285.856 
z
" clip-path="url(#pc37048318b)" style="fill: #fff3e0; stroke: #ef6c00; stroke-width: 2; stroke-linejoin: miter"/>
   </g>
   <g id="patch_5">
    <path d="M 104.76 411.664 
L 397.44 411.664 
Q 407.196 411.664 407.196 403.2768 
L 407.196 352.9536 
Q 407.196 344.5664 397.44 344.5664 
L 104.76 344.5664 
Q 95.004 344.5664 95.004 352.9536 
L 95.004 403.2768 
Q 95.004 411.664 104.76 411.664 
z
" clip-path="url(#pc37048318b)" style="fill: #e3f2fd; stroke: #1565c0; stroke-width: 2; stroke-linejoin: miter"/>
   </g>
   <g id="text_1">
    <text style="font-weight: 700; font-size: 9px; font-family: 'Heiti SC', 'Arial Unicode MS', 'DejaVu Sans', 'Bitstream Vera Sans', 'Computer Modern Sans Serif', 'Lucida Grande', 'Verdana', 'Geneva', 'Lucid', 'Arial', 'Helvetica', 'Avant Garde', sans-serif; fill: #212121" transform="translate(242.1 125.1042)">输入</text>
    <text style="font-weight: 700; font-size: 9px; font-family: 'Heiti SC', 'Arial Unicode MS', 'DejaVu Sans', 'Bitstream Vera Sans', 'Computer Modern Sans Serif', 'Lucida Grande', 'Verdana', 'Geneva', 'Lucid', 'Arial', 'Helvetica', 'Avant Garde', sans-serif; fill: #212121" transform="translate(215.464219 134.3742)">[B,S,H] Replicate</text>
   </g>
   <g id="patch_6">
    <path d="M 251.1 157.857008 
Q 251.1 189.405274 251.1 219.276488 
" style="fill: none; stroke: #424242; stroke-width: 1.5; stroke-linecap: round"/>
    <path d="M 253.1 215.276488 
L 251.1 219.276488 
L 249.1 215.276488 
" style="fill: none; stroke: #424242; stroke-width: 1.5; stroke-linecap: round"/>
   </g>
   <g id="text_2">
    <text style="font-weight: 700; font-size: 9px; font-family: 'Heiti SC', 'Arial Unicode MS', 'DejaVu Sans', 'Bitstream Vera Sans', 'Computer Modern Sans Serif', 'Lucida Grande', 'Verdana', 'Geneva', 'Lucid', 'Arial', 'Helvetica', 'Avant Garde', sans-serif; fill: #212121" transform="translate(219.018516 250.9122)">Attention / FFN</text>
    <text style="font-weight: 700; font-size: 9px; font-family: 'Heiti SC', 'Arial Unicode MS', 'DejaVu Sans', 'Bitstream Vera Sans', 'Computer Modern Sans Serif', 'Lucida Grande', 'Verdana', 'Geneva', 'Lucid', 'Arial', 'Helvetica', 'Avant Garde', sans-serif; fill: #212121" transform="translate(224.1 260.1822)">内部分片计算</text>
   </g>
   <g id="patch_7">
    <path d="M 251.1 283.665008 
Q 251.1 315.213274 251.1 345.084488 
" style="fill: none; stroke: #424242; stroke-width: 1.5; stroke-linecap: round"/>
    <path d="M 253.1 341.084488 
L 251.1 345.084488 
L 249.1 341.084488 
" style="fill: none; stroke: #424242; stroke-width: 1.5; stroke-linecap: round"/>
   </g>
   <g id="text_3">
    <text style="font-weight: 700; font-size: 9px; font-family: 'Heiti SC', 'Arial Unicode MS', 'DejaVu Sans', 'Bitstream Vera Sans', 'Computer Modern Sans Serif', 'Lucida Grande', 'Verdana', 'Geneva', 'Lucid', 'Arial', 'Helvetica', 'Avant Garde', sans-serif; fill: #212121" transform="translate(242.1 376.7202)">输出</text>
    <text style="font-weight: 700; font-size: 9px; font-family: 'Heiti SC', 'Arial Unicode MS', 'DejaVu Sans', 'Bitstream Vera Sans', 'Computer Modern Sans Serif', 'Lucida Grande', 'Verdana', 'Geneva', 'Lucid', 'Arial', 'Helvetica', 'Avant Garde', sans-serif; fill: #212121" transform="translate(215.464219 385.9902)">[B,S,H] Replicate</text>
   </g>
   <g id="text_4">
    <text style="font-weight: 700; font-size: 14px; font-family: 'Heiti SC', 'Arial Unicode MS', 'DejaVu Sans', 'Bitstream Vera Sans', 'Computer Modern Sans Serif', 'Lucida Grande', 'Verdana', 'Geneva', 'Lucid', 'Arial', 'Helvetica', 'Avant Garde', sans-serif; text-anchor: middle" x="251.1" y="19.24" transform="rotate(-0 251.1 19.24)">基本张量并行</text>
   </g>
  </g>
  <g id="axes_2">
   <g id="patch_8">
    <path d="M 554.58 420.0512 
L 944.82 420.0512 
Q 954.576 420.0512 954.576 411.664 
L 954.576 55.208 
Q 954.576 46.8208 944.82 46.8208 
L 554.58 46.8208 
Q 544.824 46.8208 544.824 55.208 
L 544.824 411.664 
Q 544.824 420.0512 554.58 420.0512 
z
" clip-path="url(#pfce085488d)" style="fill: #fafafa; stroke: #bdbdbd; stroke-width: 1.5; stroke-linejoin: miter"/>
   </g>
   <g id="patch_9">
    <path d="M 603.36 160.048 
L 896.04 160.048 
Q 905.796 160.048 905.796 151.6608 
L 905.796 101.3376 
Q 905.796 92.9504 896.04 92.9504 
L 603.36 92.9504 
Q 593.604 92.9504 593.604 101.3376 
L 593.604 151.6608 
Q 593.604 160.048 603.36 160.048 
z
" clip-path="url(#pfce085488d)" style="fill: #e0f7fa; stroke: #00838f; stroke-width: 2; stroke-linejoin: miter"/>
   </g>
   <g id="patch_10">
    <path d="M 603.36 222.952 
L 896.04 222.952 
Q 905.796 222.952 905.796 214.5648 
L 905.796 164.2416 
Q 905.796 155.8544 896.04 155.8544 
L 603.36 155.8544 
Q 593.604 155.8544 593.604 164.2416 
L 593.604 214.5648 
Q 593.604 222.952 603.36 222.952 
z
" clip-path="url(#pfce085488d)" style="fill: #e0f7fa; stroke: #00838f; stroke-width: 2; stroke-linejoin: miter"/>
   </g>
   <g id="patch_11">
    <path d="M 603.36 285.856 
L 896.04 285.856 
Q 905.796 285.856 905.796 277.4688 
L 905.796 227.1456 
Q 905.796 218.7584 896.04 218.7584 
L 603.36 218.7584 
Q 593.604 218.7584 593.604 227.1456 
L 593.604 277.4688 
Q 593.604 285.856 603.36 285.856 
z
" clip-path="url(#pfce085488d)" style="fill: #f3e5f5; stroke: #6a1b9a; stroke-width: 2; stroke-linejoin: miter"/>
   </g>
   <g id="patch_12">
    <path d="M 603.36 348.76 
L 896.04 348.76 
Q 905.796 348.76 905.796 340.3728 
L 905.796 290.0496 
Q 905.796 281.6624 896.04 281.6624 
L 603.36 281.6624 
Q 593.604 281.6624 593.604 290.0496 
L 593.604 340.3728 
Q 593.604 348.76 603.36 348.76 
z
" clip-path="url(#pfce085488d)" style="fill: #fff3e0; stroke: #ef6c00; stroke-width: 2; stroke-linejoin: miter"/>
   </g>
   <g id="patch_13">
    <path d="M 603.36 411.664 
L 896.04 411.664 
Q 905.796 411.664 905.796 403.2768 
L 905.796 352.9536 
Q 905.796 344.5664 896.04 344.5664 
L 603.36 344.5664 
Q 593.604 344.5664 593.604 352.9536 
L 593.604 403.2768 
Q 593.604 411.664 603.36 411.664 
z
" clip-path="url(#pfce085488d)" style="fill: #e0f7fa; stroke: #00838f; stroke-width: 2; stroke-linejoin: miter"/>
   </g>
   <g id="text_5">
    <text style="font-weight: 700; font-size: 9px; font-family: 'Heiti SC', 'Arial Unicode MS', 'DejaVu Sans', 'Bitstream Vera Sans', 'Computer Modern Sans Serif', 'Lucida Grande', 'Verdana', 'Geneva', 'Lucid', 'Arial', 'Helvetica', 'Avant Garde', sans-serif; fill: #212121" transform="translate(740.7 124.910841)">输入</text>
    <text style="font-weight: 700; font-size: 9px; font-family: 'Heiti SC', 'Arial Unicode MS', 'DejaVu Sans', 'Bitstream Vera Sans', 'Computer Modern Sans Serif', 'Lucida Grande', 'Verdana', 'Geneva', 'Lucid', 'Arial', 'Helvetica', 'Avant Garde', sans-serif; fill: #212121" transform="translate(710.153437 134.567559)">[B,S/tp,H] Shard(1)</text>
   </g>
   <g id="patch_14">
    <path d="M 749.7 157.857008 
Q 749.7 157.953292 749.7 156.372525 
" style="fill: none; stroke: #424242; stroke-width: 1.5; stroke-linecap: round"/>
    <path d="M 751.7 152.372525 
L 749.7 156.372525 
L 747.7 152.372525 
" style="fill: none; stroke: #424242; stroke-width: 1.5; stroke-linecap: round"/>
   </g>
   <g id="text_6">
    <text style="font-weight: 700; font-size: 9px; font-family: 'Heiti SC', 'Arial Unicode MS', 'DejaVu Sans', 'Bitstream Vera Sans', 'Computer Modern Sans Serif', 'Lucida Grande', 'Verdana', 'Geneva', 'Lucid', 'Arial', 'Helvetica', 'Avant Garde', sans-serif; fill: #212121" transform="translate(728.739141 188.0082)">RMSNorm</text>
    <text style="font-weight: 700; font-size: 9px; font-family: 'Heiti SC', 'Arial Unicode MS', 'DejaVu Sans', 'Bitstream Vera Sans', 'Computer Modern Sans Serif', 'Lucida Grande', 'Verdana', 'Geneva', 'Lucid', 'Arial', 'Helvetica', 'Avant Garde', sans-serif; fill: #212121" transform="translate(731.7 197.2782)">分片计算</text>
   </g>
   <g id="patch_15">
    <path d="M 749.7 220.761008 
Q 749.7 220.857292 749.7 219.276525 
" style="fill: none; stroke: #424242; stroke-width: 1.5; stroke-linecap: round"/>
    <path d="M 751.7 215.276525 
L 749.7 219.276525 
L 747.7 215.276525 
" style="fill: none; stroke: #424242; stroke-width: 1.5; stroke-linecap: round"/>
   </g>
   <g id="text_7">
    <text style="font-weight: 700; font-size: 9px; font-family: 'Heiti SC', 'Arial Unicode MS', 'DejaVu Sans', 'Bitstream Vera Sans', 'Computer Modern Sans Serif', 'Lucida Grande', 'Verdana', 'Geneva', 'Lucid', 'Arial', 'Helvetica', 'Avant Garde', sans-serif; fill: #212121" transform="translate(704.515781 250.718841)">PrepareModuleInput</text>
    <text style="font-weight: 700; font-size: 9px; font-family: 'Heiti SC', 'Arial Unicode MS', 'DejaVu Sans', 'Bitstream Vera Sans', 'Computer Modern Sans Serif', 'Lucida Grande', 'Verdana', 'Geneva', 'Lucid', 'Arial', 'Helvetica', 'Avant Garde', sans-serif; fill: #212121" transform="translate(703.677656 260.375559)">Shard(1) → Replicate</text>
   </g>
   <g id="patch_16">
    <path d="M 749.7 283.665008 
Q 749.7 283.761292 749.7 282.180525 
" style="fill: none; stroke: #424242; stroke-width: 1.5; stroke-linecap: round"/>
    <path d="M 751.7 278.180525 
L 749.7 282.180525 
L 747.7 278.180525 
" style="fill: none; stroke: #424242; stroke-width: 1.5; stroke-linecap: round"/>
   </g>
   <g id="text_8">
    <text style="font-weight: 700; font-size: 9px; font-family: 'Heiti SC', 'Arial Unicode MS', 'DejaVu Sans', 'Bitstream Vera Sans', 'Computer Modern Sans Serif', 'Lucida Grande', 'Verdana', 'Geneva', 'Lucid', 'Arial', 'Helvetica', 'Avant Garde', sans-serif; fill: #212121" transform="translate(717.618516 313.8162)">Attention / FFN</text>
    <text style="font-weight: 700; font-size: 9px; font-family: 'Heiti SC', 'Arial Unicode MS', 'DejaVu Sans', 'Bitstream Vera Sans', 'Computer Modern Sans Serif', 'Lucida Grande', 'Verdana', 'Geneva', 'Lucid', 'Arial', 'Helvetica', 'Avant Garde', sans-serif; fill: #212121" transform="translate(722.7 323.0862)">内部分片计算</text>
   </g>
   <g id="patch_17">
    <path d="M 749.7 346.569008 
Q 749.7 346.665292 749.7 345.084525 
" style="fill: none; stroke: #424242; stroke-width: 1.5; stroke-linecap: round"/>
    <path d="M 751.7 341.084525 
L 749.7 345.084525 
L 747.7 341.084525 
" style="fill: none; stroke: #424242; stroke-width: 1.5; stroke-linecap: round"/>
   </g>
   <g id="text_9">
    <text style="font-weight: 700; font-size: 9px; font-family: 'Heiti SC', 'Arial Unicode MS', 'DejaVu Sans', 'Bitstream Vera Sans', 'Computer Modern Sans Serif', 'Lucida Grande', 'Verdana', 'Geneva', 'Lucid', 'Arial', 'Helvetica', 'Avant Garde', sans-serif; fill: #212121" transform="translate(740.7 376.526841)">输出</text>
    <text style="font-weight: 700; font-size: 9px; font-family: 'Heiti SC', 'Arial Unicode MS', 'DejaVu Sans', 'Bitstream Vera Sans', 'Computer Modern Sans Serif', 'Lucida Grande', 'Verdana', 'Geneva', 'Lucid', 'Arial', 'Helvetica', 'Avant Garde', sans-serif; fill: #212121" transform="translate(710.153437 386.183559)">[B,S/tp,H] Shard(1)</text>
   </g>
   <g id="text_10">
    <text style="font-weight: 700; font-size: 14px; font-family: 'Heiti SC', 'Arial Unicode MS', 'DejaVu Sans', 'Bitstream Vera Sans', 'Computer Modern Sans Serif', 'Lucida Grande', 'Verdana', 'Geneva', 'Lucid', 'Arial', 'Helvetica', 'Avant Garde', sans-serif; text-anchor: middle" x="749.7" y="19.24" transform="rotate(-0 749.7 19.24)">序列并行</text>
   </g>
  </g>
  <g id="text_11">
   <g id="patch_18">
    <path d="M 485.4 253.26 
L 515.4 253.26 
Q 521.4 253.26 521.4 247.26 
L 521.4 232.26 
Q 521.4 226.26 515.4 226.26 
L 485.4 226.26 
Q 479.4 226.26 479.4 232.26 
L 479.4 247.26 
Q 479.4 253.26 485.4 253.26 
z
" style="fill: #fff9c4; stroke: #f9a825; stroke-width: 2; stroke-linejoin: miter"/>
   </g>
   <text style="font-weight: 700; font-size: 15px; font-family: 'Heiti SC', 'Arial Unicode MS', 'DejaVu Sans', 'Bitstream Vera Sans', 'Computer Modern Sans Serif', 'Lucida Grande', 'Verdana', 'Geneva', 'Lucid', 'Arial', 'Helvetica', 'Avant Garde', sans-serif; text-anchor: middle; fill: #424242" x="500.4" y="245.16" transform="rotate(-0 500.4 245.16)">进化</text>
  </g>
 </g>
 <defs>
  <clipPath id="pc37048318b">
   <rect x="7.2" y="34.24" width="487.8" height="419.36"/>
  </clipPath>
  <clipPath id="pfce085488d">
   <rect x="505.8" y="34.24" width="487.8" height="419.36"/>
  </clipPath>
 </defs>
</svg>
