<?xml version="1.0" encoding="utf-8" standalone="no"?>
<!DOCTYPE svg PUBLIC "-//W3C//DTD SVG 1.1//EN"
  "http://www.w3.org/Graphics/SVG/1.1/DTD/svg11.dtd">
<svg xmlns:xlink="http://www.w3.org/1999/xlink" width="572.4pt" height="790.56pt" viewBox="0 0 572.4 790.56" xmlns="http://www.w3.org/2000/svg" version="1.1">
 <metadata>
  <rdf:RDF xmlns:dc="http://purl.org/dc/elements/1.1/" xmlns:cc="http://creativecommons.org/ns#" xmlns:rdf="http://www.w3.org/1999/02/22-rdf-syntax-ns#">
   <cc:Work>
    <dc:type rdf:resource="http://purl.org/dc/dcmitype/StillImage"/>
    <dc:date>2026-07-13T16:24:12.773925</dc:date>
    <dc:format>image/svg+xml</dc:format>
    <dc:creator>
     <cc:Agent>
      <dc:title>Matplotlib v3.11.0, https://matplotlib.org/</dc:title>
     </cc:Agent>
    </dc:creator>
   </cc:Work>
  </rdf:RDF>
 </metadata>
 <defs>
  <style type="text/css">*{stroke-linejoin: round; stroke-linecap: butt}</style>
 </defs>
 <g id="figure_1">
  <g id="patch_1">
   <path d="M 0 790.56 
L 572.4 790.56 
L 572.4 0 
L 0 0 
z
" style="fill: #ffffff"/>
  </g>
  <g id="axes_1">
   <g id="patch_2">
    <path d="M 123.264 97.0128 
L 449.136 97.0128 
Q 454.716 97.0128 454.716 91.4688 
L 454.716 61.5312 
Q 454.716 55.9872 449.136 55.9872 
L 123.264 55.9872 
Q 117.684 55.9872 117.684 61.5312 
L 117.684 91.4688 
Q 117.684 97.0128 123.264 97.0128 
z
" clip-path="url(#p95a25739ad)" style="fill: #e3f2fd; stroke: #1565c0; stroke-width: 2; stroke-linejoin: miter"/>
   </g>
   <g id="patch_3">
    <path d="M 123.264 146.9088 
L 449.136 146.9088 
Q 454.716 146.9088 454.716 141.3648 
L 454.716 111.4272 
Q 454.716 105.8832 449.136 105.8832 
L 123.264 105.8832 
Q 117.684 105.8832 117.684 111.4272 
L 117.684 141.3648 
Q 117.684 146.9088 123.264 146.9088 
z
" clip-path="url(#p95a25739ad)" style="fill: #fff9c4; stroke: #f9a825; stroke-width: 2; stroke-linejoin: miter"/>
   </g>
   <g id="patch_4">
    <path d="M 123.264 207.8928 
L 449.136 207.8928 
Q 454.716 207.8928 454.716 202.3488 
L 454.716 172.4112 
Q 454.716 166.8672 449.136 166.8672 
L 123.264 166.8672 
Q 117.684 166.8672 117.684 172.4112 
L 117.684 202.3488 
Q 117.684 207.8928 123.264 207.8928 
z
" clip-path="url(#p95a25739ad)" style="fill: #e0f7fa; stroke: #00838f; stroke-width: 2; stroke-linejoin: miter"/>
   </g>
   <g id="patch_5">
    <path d="M 123.264 257.7888 
L 449.136 257.7888 
Q 454.716 257.7888 454.716 252.2448 
L 454.716 222.3072 
Q 454.716 216.7632 449.136 216.7632 
L 123.264 216.7632 
Q 117.684 216.7632 117.684 222.3072 
L 117.684 252.2448 
Q 117.684 257.7888 123.264 257.7888 
z
" clip-path="url(#p95a25739ad)" style="fill: #f3e5f5; stroke: #6a1b9a; stroke-width: 2; stroke-linejoin: miter"/>
   </g>
   <g id="patch_6">
    <path d="M 123.264 318.7728 
L 449.136 318.7728 
Q 454.716 318.7728 454.716 313.2288 
L 454.716 266.6592 
Q 454.716 261.1152 449.136 261.1152 
L 123.264 261.1152 
Q 117.684 261.1152 117.684 266.6592 
L 117.684 313.2288 
Q 117.684 318.7728 123.264 318.7728 
z
" clip-path="url(#p95a25739ad)" style="fill: #fff3e0; stroke: #ef6c00; stroke-width: 2; stroke-linejoin: miter"/>
   </g>
   <g id="patch_7">
    <path d="M 123.264 396.3888 
L 449.136 396.3888 
Q 454.716 396.3888 454.716 390.8448 
L 454.716 360.9072 
Q 454.716 355.3632 449.136 355.3632 
L 123.264 355.3632 
Q 117.684 355.3632 117.684 360.9072 
L 117.684 390.8448 
Q 117.684 396.3888 123.264 396.3888 
z
" clip-path="url(#p95a25739ad)" style="fill: #fafafa; stroke: #616161; stroke-width: 2; stroke-linejoin: miter"/>
   </g>
   <g id="patch_8">
    <path d="M 123.264 446.2848 
L 449.136 446.2848 
Q 454.716 446.2848 454.716 440.7408 
L 454.716 410.8032 
Q 454.716 405.2592 449.136 405.2592 
L 123.264 405.2592 
Q 117.684 405.2592 117.684 410.8032 
L 117.684 440.7408 
Q 117.684 446.2848 123.264 446.2848 
z
" clip-path="url(#p95a25739ad)" style="fill: #e0f7fa; stroke: #00838f; stroke-width: 2; stroke-linejoin: miter"/>
   </g>
   <g id="patch_9">
    <path d="M 123.264 496.1808 
L 449.136 496.1808 
Q 454.716 496.1808 454.716 490.6368 
L 454.716 460.6992 
Q 454.716 455.1552 449.136 455.1552 
L 123.264 455.1552 
Q 117.684 455.1552 117.684 460.6992 
L 117.684 490.6368 
Q 117.684 496.1808 123.264 496.1808 
z
" clip-path="url(#p95a25739ad)" style="fill: #f3e5f5; stroke: #6a1b9a; stroke-width: 2; stroke-linejoin: miter"/>
   </g>
   <g id="patch_10">
    <path d="M 123.264 557.1648 
L 449.136 557.1648 
Q 454.716 557.1648 454.716 551.6208 
L 454.716 505.0512 
Q 454.716 499.5072 449.136 499.5072 
L 123.264 499.5072 
Q 117.684 499.5072 117.684 505.0512 
L 117.684 551.6208 
Q 117.684 557.1648 123.264 557.1648 
z
" clip-path="url(#p95a25739ad)" style="fill: #fff3e0; stroke: #ef6c00; stroke-width: 2; stroke-linejoin: miter"/>
   </g>
   <g id="patch_11">
    <path d="M 123.264 634.7808 
L 449.136 634.7808 
Q 454.716 634.7808 454.716 629.2368 
L 454.716 599.2992 
Q 454.716 593.7552 449.136 593.7552 
L 123.264 593.7552 
Q 117.684 593.7552 117.684 599.2992 
L 117.684 629.2368 
Q 117.684 634.7808 123.264 634.7808 
z
" clip-path="url(#p95a25739ad)" style="fill: #fafafa; stroke: #616161; stroke-width: 2; stroke-linejoin: miter"/>
   </g>
   <g id="patch_12">
    <path d="M 123.264 695.7648 
L 449.136 695.7648 
Q 454.716 695.7648 454.716 690.2208 
L 454.716 660.2832 
Q 454.716 654.7392 449.136 654.7392 
L 123.264 654.7392 
Q 117.684 654.7392 117.684 660.2832 
L 117.684 690.2208 
Q 117.684 695.7648 123.264 695.7648 
z
" clip-path="url(#p95a25739ad)" style="fill: #fff9c4; stroke: #f9a825; stroke-width: 2; stroke-linejoin: miter"/>
   </g>
   <g id="text_1">
    <text style="font-weight: 700; font-size: 16px; font-family: 'Heiti SC', 'Arial Unicode MS', 'DejaVu Sans', 'Bitstream Vera Sans', 'Computer Modern Sans Serif', 'Lucida Grande', 'Verdana', 'Geneva', 'Lucid', 'Arial', 'Helvetica', 'Avant Garde', sans-serif; text-anchor: middle; fill: #212121" x="286.2" y="29.376" transform="rotate(-0 286.2 29.376)">TransformerBlock ParallelStyle 选择</text>
   </g>
   <g id="text_2">
    <text style="font-size: 9px; font-family: 'Heiti SC', 'Arial Unicode MS', 'DejaVu Sans', 'Bitstream Vera Sans', 'Computer Modern Sans Serif', 'Lucida Grande', 'Verdana', 'Geneva', 'Lucid', 'Arial', 'Helvetica', 'Avant Garde', sans-serif; text-anchor: middle; fill: #616161" x="286.2" y="51.552" transform="rotate(-0 286.2 51.552)">灰色=SequenceParallel | 橙色=ColwiseParallel | 绿色=RowwiseParallel | 紫色=PrepareModuleInput</text>
   </g>
   <g id="text_3">
    <text style="font-weight: 700; font-size: 10px; font-family: 'Heiti SC', 'Arial Unicode MS', 'DejaVu Sans', 'Bitstream Vera Sans', 'Computer Modern Sans Serif', 'Lucida Grande', 'Verdana', 'Geneva', 'Lucid', 'Arial', 'Helvetica', 'Avant Garde', sans-serif; fill: #212121" transform="translate(272.55 74.95)">输入 x</text>
    <text style="font-weight: 700; font-size: 10px; font-family: 'Heiti SC', 'Arial Unicode MS', 'DejaVu Sans', 'Bitstream Vera Sans', 'Computer Modern Sans Serif', 'Lucida Grande', 'Verdana', 'Geneva', 'Lucid', 'Arial', 'Helvetica', 'Avant Garde', sans-serif; fill: #212121" transform="translate(262.909375 85.25)">Replicate</text>
   </g>
   <g id="text_4">
    <text style="font-weight: 700; font-size: 10px; font-family: 'Heiti SC', 'Arial Unicode MS', 'DejaVu Sans', 'Bitstream Vera Sans', 'Computer Modern Sans Serif', 'Lucida Grande', 'Verdana', 'Geneva', 'Lucid', 'Arial', 'Helvetica', 'Avant Garde', sans-serif; fill: #212121" transform="translate(245.414844 124.846)">tok_embeddings</text>
    <text style="font-weight: 700; font-size: 10px; font-family: 'Heiti SC', 'Arial Unicode MS', 'DejaVu Sans', 'Bitstream Vera Sans', 'Computer Modern Sans Serif', 'Lucida Grande', 'Verdana', 'Geneva', 'Lucid', 'Arial', 'Helvetica', 'Avant Garde', sans-serif; fill: #212121" transform="translate(210.346094 135.146)">RowwiseParallel  词表维度行切分</text>
   </g>
   <g id="text_5">
    <text style="font-weight: 700; font-size: 10px; font-family: 'Heiti SC', 'Arial Unicode MS', 'DejaVu Sans', 'Bitstream Vera Sans', 'Computer Modern Sans Serif', 'Lucida Grande', 'Verdana', 'Geneva', 'Lucid', 'Arial', 'Helvetica', 'Avant Garde', sans-serif; fill: #212121" transform="translate(249.054688 185.615156)">attention_norm</text>
    <text style="font-weight: 700; font-size: 10px; font-family: 'Heiti SC', 'Arial Unicode MS', 'DejaVu Sans', 'Bitstream Vera Sans', 'Computer Modern Sans Serif', 'Lucida Grande', 'Verdana', 'Geneva', 'Lucid', 'Arial', 'Helvetica', 'Avant Garde', sans-serif; fill: #212121" transform="translate(220.835156 196.344844)">SequenceParallel  Shard(1)</text>
   </g>
   <g id="text_6">
    <text style="font-weight: 700; font-size: 10px; font-family: 'Heiti SC', 'Arial Unicode MS', 'DejaVu Sans', 'Bitstream Vera Sans', 'Computer Modern Sans Serif', 'Lucida Grande', 'Verdana', 'Geneva', 'Lucid', 'Arial', 'Helvetica', 'Avant Garde', sans-serif; fill: #212121" transform="translate(235.995312 235.511156)">PrepareModuleInput</text>
    <text style="font-weight: 700; font-size: 10px; font-family: 'Heiti SC', 'Arial Unicode MS', 'DejaVu Sans', 'Bitstream Vera Sans', 'Computer Modern Sans Serif', 'Lucida Grande', 'Verdana', 'Geneva', 'Lucid', 'Arial', 'Helvetica', 'Avant Garde', sans-serif; fill: #212121" transform="translate(235.064062 246.240844)">Shard(1) → Replicate</text>
   </g>
   <g id="text_7">
    <text style="font-weight: 700; font-size: 10px; font-family: 'Heiti SC', 'Arial Unicode MS', 'DejaVu Sans', 'Bitstream Vera Sans', 'Computer Modern Sans Serif', 'Lucida Grande', 'Verdana', 'Geneva', 'Lucid', 'Arial', 'Helvetica', 'Avant Garde', sans-serif; fill: #212121" transform="translate(263.789062 288.394)">Attention</text>
    <text style="font-weight: 700; font-size: 10px; font-family: 'Heiti SC', 'Arial Unicode MS', 'DejaVu Sans', 'Bitstream Vera Sans', 'Computer Modern Sans Serif', 'Lucida Grande', 'Verdana', 'Geneva', 'Lucid', 'Arial', 'Helvetica', 'Avant Garde', sans-serif; fill: #212121" transform="translate(206.0875 298.694)">ColwiseParallel + RowwiseParallel</text>
   </g>
   <g id="text_8">
    <text style="font-weight: 700; font-size: 10px; font-family: 'Heiti SC', 'Arial Unicode MS', 'DejaVu Sans', 'Bitstream Vera Sans', 'Computer Modern Sans Serif', 'Lucida Grande', 'Verdana', 'Geneva', 'Lucid', 'Arial', 'Helvetica', 'Avant Garde', sans-serif; text-anchor: middle; fill: #212121" x="286.2" y="379.476" transform="rotate(-0 286.2 379.476)">残差连接</text>
   </g>
   <g id="text_9">
    <text style="font-weight: 700; font-size: 10px; font-family: 'Heiti SC', 'Arial Unicode MS', 'DejaVu Sans', 'Bitstream Vera Sans', 'Computer Modern Sans Serif', 'Lucida Grande', 'Verdana', 'Geneva', 'Lucid', 'Arial', 'Helvetica', 'Avant Garde', sans-serif; fill: #212121" transform="translate(264.989844 424.007156)">ffn_norm</text>
    <text style="font-weight: 700; font-size: 10px; font-family: 'Heiti SC', 'Arial Unicode MS', 'DejaVu Sans', 'Bitstream Vera Sans', 'Computer Modern Sans Serif', 'Lucida Grande', 'Verdana', 'Geneva', 'Lucid', 'Arial', 'Helvetica', 'Avant Garde', sans-serif; fill: #212121" transform="translate(220.835156 434.736844)">SequenceParallel  Shard(1)</text>
   </g>
   <g id="text_10">
    <text style="font-weight: 700; font-size: 10px; font-family: 'Heiti SC', 'Arial Unicode MS', 'DejaVu Sans', 'Bitstream Vera Sans', 'Computer Modern Sans Serif', 'Lucida Grande', 'Verdana', 'Geneva', 'Lucid', 'Arial', 'Helvetica', 'Avant Garde', sans-serif; fill: #212121" transform="translate(235.995312 473.903156)">PrepareModuleInput</text>
    <text style="font-weight: 700; font-size: 10px; font-family: 'Heiti SC', 'Arial Unicode MS', 'DejaVu Sans', 'Bitstream Vera Sans', 'Computer Modern Sans Serif', 'Lucida Grande', 'Verdana', 'Geneva', 'Lucid', 'Arial', 'Helvetica', 'Avant Garde', sans-serif; fill: #212121" transform="translate(235.064062 484.632844)">Shard(1) → Replicate</text>
   </g>
   <g id="text_11">
    <text style="font-weight: 700; font-size: 10px; font-family: 'Heiti SC', 'Arial Unicode MS', 'DejaVu Sans', 'Bitstream Vera Sans', 'Computer Modern Sans Serif', 'Lucida Grande', 'Verdana', 'Geneva', 'Lucid', 'Arial', 'Helvetica', 'Avant Garde', sans-serif; fill: #212121" transform="translate(254.146094 526.786)">FeedForward</text>
    <text style="font-weight: 700; font-size: 10px; font-family: 'Heiti SC', 'Arial Unicode MS', 'DejaVu Sans', 'Bitstream Vera Sans', 'Computer Modern Sans Serif', 'Lucida Grande', 'Verdana', 'Geneva', 'Lucid', 'Arial', 'Helvetica', 'Avant Garde', sans-serif; fill: #212121" transform="translate(206.0875 537.086)">ColwiseParallel + RowwiseParallel</text>
   </g>
   <g id="text_12">
    <text style="font-weight: 700; font-size: 10px; font-family: 'Heiti SC', 'Arial Unicode MS', 'DejaVu Sans', 'Bitstream Vera Sans', 'Computer Modern Sans Serif', 'Lucida Grande', 'Verdana', 'Geneva', 'Lucid', 'Arial', 'Helvetica', 'Avant Garde', sans-serif; text-anchor: middle; fill: #212121" x="286.2" y="617.868" transform="rotate(-0 286.2 617.868)">残差连接</text>
   </g>
   <g id="text_13">
    <text style="font-weight: 700; font-size: 10px; font-family: 'Heiti SC', 'Arial Unicode MS', 'DejaVu Sans', 'Bitstream Vera Sans', 'Computer Modern Sans Serif', 'Lucida Grande', 'Verdana', 'Geneva', 'Lucid', 'Arial', 'Helvetica', 'Avant Garde', sans-serif; fill: #212121" transform="translate(270.044531 673.702)">output</text>
    <text style="font-weight: 700; font-size: 10px; font-family: 'Heiti SC', 'Arial Unicode MS', 'DejaVu Sans', 'Bitstream Vera Sans', 'Computer Modern Sans Serif', 'Lucida Grande', 'Verdana', 'Geneva', 'Lucid', 'Arial', 'Helvetica', 'Avant Garde', sans-serif; fill: #212121" transform="translate(212.471094 684.002)">ColwiseParallel  词表维度列切分</text>
   </g>
   <g id="patch_13">
    <path d="M 286.2 97.904496 
Q 286.2 101.447646 286.2 103.313746 
" style="fill: none; stroke: #424242; stroke-width: 1.5; stroke-linecap: round"/>
    <path d="M 288.2 99.313746 
L 286.2 103.313746 
L 284.2 99.313746 
" style="fill: none; stroke: #424242; stroke-width: 1.5; stroke-linecap: round"/>
   </g>
   <g id="patch_14">
    <path d="M 286.2 147.800496 
Q 286.2 156.885876 286.2 164.294205 
" style="fill: none; stroke: #424242; stroke-width: 1.5; stroke-linecap: round"/>
    <path d="M 288.2 160.294205 
L 286.2 164.294205 
L 284.2 160.294205 
" style="fill: none; stroke: #424242; stroke-width: 1.5; stroke-linecap: round"/>
   </g>
   <g id="patch_15">
    <path d="M 286.2 208.784496 
Q 286.2 212.327646 286.2 214.193746 
" style="fill: none; stroke: #424242; stroke-width: 1.5; stroke-linecap: round"/>
    <path d="M 288.2 210.193746 
L 286.2 214.193746 
L 284.2 210.193746 
" style="fill: none; stroke: #424242; stroke-width: 1.5; stroke-linecap: round"/>
   </g>
   <g id="patch_16">
    <path d="M 286.2 258.679819 
Q 286.2 263.609496 286.2 266.862123 
" style="fill: none; stroke: #424242; stroke-width: 1.5; stroke-linecap: round"/>
    <path d="M 288.2 262.862123 
L 286.2 266.862123 
L 284.2 262.862123 
" style="fill: none; stroke: #424242; stroke-width: 1.5; stroke-linecap: round"/>
   </g>
   <g id="patch_17">
    <path d="M 286.2 311.346973 
Q 286.2 332.90833 286.2 352.792636 
" style="fill: none; stroke: #424242; stroke-width: 1.5; stroke-linecap: round"/>
    <path d="M 288.2 348.792636 
L 286.2 352.792636 
L 284.2 348.792636 
" style="fill: none; stroke: #424242; stroke-width: 1.5; stroke-linecap: round"/>
   </g>
   <g id="patch_18">
    <path d="M 286.2 397.280496 
Q 286.2 400.823646 286.2 402.689746 
" style="fill: none; stroke: #424242; stroke-width: 1.5; stroke-linecap: round"/>
    <path d="M 288.2 398.689746 
L 286.2 402.689746 
L 284.2 398.689746 
" style="fill: none; stroke: #424242; stroke-width: 1.5; stroke-linecap: round"/>
   </g>
   <g id="patch_19">
    <path d="M 286.2 447.176496 
Q 286.2 450.719646 286.2 452.585746 
" style="fill: none; stroke: #424242; stroke-width: 1.5; stroke-linecap: round"/>
    <path d="M 288.2 448.585746 
L 286.2 452.585746 
L 284.2 448.585746 
" style="fill: none; stroke: #424242; stroke-width: 1.5; stroke-linecap: round"/>
   </g>
   <g id="patch_20">
    <path d="M 286.2 497.071819 
Q 286.2 502.001496 286.2 505.254123 
" style="fill: none; stroke: #424242; stroke-width: 1.5; stroke-linecap: round"/>
    <path d="M 288.2 501.254123 
L 286.2 505.254123 
L 284.2 501.254123 
" style="fill: none; stroke: #424242; stroke-width: 1.5; stroke-linecap: round"/>
   </g>
   <g id="patch_21">
    <path d="M 286.2 549.738973 
Q 286.2 571.30033 286.2 591.184636 
" style="fill: none; stroke: #424242; stroke-width: 1.5; stroke-linecap: round"/>
    <path d="M 288.2 587.184636 
L 286.2 591.184636 
L 284.2 587.184636 
" style="fill: none; stroke: #424242; stroke-width: 1.5; stroke-linecap: round"/>
   </g>
   <g id="patch_22">
    <path d="M 286.2 635.672496 
Q 286.2 644.757876 286.2 652.166205 
" style="fill: none; stroke: #424242; stroke-width: 1.5; stroke-linecap: round"/>
    <path d="M 288.2 648.166205 
L 286.2 652.166205 
L 284.2 648.166205 
" style="fill: none; stroke: #424242; stroke-width: 1.5; stroke-linecap: round"/>
   </g>
   <g id="text_14">
    <text style="font-weight: 700; font-size: 9px; font-family: 'Heiti SC', 'Arial Unicode MS', 'DejaVu Sans', 'Bitstream Vera Sans', 'Computer Modern Sans Serif', 'Lucida Grande', 'Verdana', 'Geneva', 'Lucid', 'Arial', 'Helvetica', 'Avant Garde', sans-serif; text-anchor: start; fill: #ef6c00" x="487.08" y="289.944" transform="rotate(-0 487.08 289.944)">内部 all_reduce</text>
   </g>
   <g id="text_15">
    <text style="font-weight: 700; font-size: 9px; font-family: 'Heiti SC', 'Arial Unicode MS', 'DejaVu Sans', 'Bitstream Vera Sans', 'Computer Modern Sans Serif', 'Lucida Grande', 'Verdana', 'Geneva', 'Lucid', 'Arial', 'Helvetica', 'Avant Garde', sans-serif; text-anchor: start; fill: #ef6c00" x="487.08" y="528.336" transform="rotate(-0 487.08 528.336)">内部 all_reduce</text>
   </g>
  </g>
 </g>
 <defs>
  <clipPath id="p95a25739ad">
   <rect x="7.2" y="7.2" width="558" height="776.16"/>
  </clipPath>
 </defs>
</svg>
