<?xml version="1.0" encoding="utf-8" standalone="no"?>
<!DOCTYPE svg PUBLIC "-//W3C//DTD SVG 1.1//EN"
  "http://www.w3.org/Graphics/SVG/1.1/DTD/svg11.dtd">
<svg xmlns:xlink="http://www.w3.org/1999/xlink" width="856.8pt" height="352.8pt" viewBox="0 0 856.8 352.8" xmlns="http://www.w3.org/2000/svg" version="1.1">
 <metadata>
  <rdf:RDF xmlns:dc="http://purl.org/dc/elements/1.1/" xmlns:cc="http://creativecommons.org/ns#" xmlns:rdf="http://www.w3.org/1999/02/22-rdf-syntax-ns#">
   <cc:Work>
    <dc:type rdf:resource="http://purl.org/dc/dcmitype/StillImage"/>
    <dc:date>2026-07-13T11:07:55.947703</dc:date>
    <dc:format>image/svg+xml</dc:format>
    <dc:creator>
     <cc:Agent>
      <dc:title>Matplotlib v3.11.0, https://matplotlib.org/</dc:title>
     </cc:Agent>
    </dc:creator>
   </cc:Work>
  </rdf:RDF>
 </metadata>
 <defs>
  <style type="text/css">*{stroke-linejoin: round; stroke-linecap: butt}</style>
 </defs>
 <g id="figure_1">
  <g id="patch_1">
   <path d="M 0 352.8 
L 856.8 352.8 
L 856.8 0 
L 0 0 
z
" style="fill: #ffffff"/>
  </g>
  <g id="axes_1">
   <g id="patch_2">
    <path d="M 40.365354 189.3564 
L 173.026772 189.3564 
Q 176.343307 189.3564 176.343307 186.2928 
L 176.343307 112.7664 
Q 176.343307 109.7028 173.026772 109.7028 
L 40.365354 109.7028 
Q 37.048819 109.7028 37.048819 112.7664 
L 37.048819 186.2928 
Q 37.048819 189.3564 40.365354 189.3564 
z
" clip-path="url(#pb941ab6e93)" style="fill: #e3f2fd; stroke: #1565c0; stroke-width: 2; stroke-linejoin: miter"/>
   </g>
   <g id="patch_3">
    <path d="M 206.192126 207.738 
L 312.32126 207.738 
Q 315.637795 207.738 315.637795 204.6744 
L 315.637795 94.3848 
Q 315.637795 91.3212 312.32126 91.3212 
L 206.192126 91.3212 
Q 202.875591 91.3212 202.875591 94.3848 
L 202.875591 204.6744 
Q 202.875591 207.738 206.192126 207.738 
z
" clip-path="url(#pb941ab6e93)" style="fill: #fff9c4; stroke: #f9a825; stroke-width: 2; stroke-linejoin: miter"/>
   </g>
   <g id="patch_4">
    <path d="M 338.853543 207.738 
L 444.982677 207.738 
Q 448.299213 207.738 448.299213 204.6744 
L 448.299213 94.3848 
Q 448.299213 91.3212 444.982677 91.3212 
L 338.853543 91.3212 
Q 335.537008 91.3212 335.537008 94.3848 
L 335.537008 204.6744 
Q 335.537008 207.738 338.853543 207.738 
z
" clip-path="url(#pb941ab6e93)" style="fill: #fff9c4; stroke: #f9a825; stroke-width: 2; stroke-linejoin: miter"/>
   </g>
   <g id="patch_5">
    <path d="M 471.514961 207.738 
L 577.644094 207.738 
Q 580.96063 207.738 580.96063 204.6744 
L 580.96063 94.3848 
Q 580.96063 91.3212 577.644094 91.3212 
L 471.514961 91.3212 
Q 468.198425 91.3212 468.198425 94.3848 
L 468.198425 204.6744 
Q 468.198425 207.738 471.514961 207.738 
z
" clip-path="url(#pb941ab6e93)" style="fill: #fff9c4; stroke: #f9a825; stroke-width: 2; stroke-linejoin: miter"/>
   </g>
   <g id="patch_6">
    <path d="M 604.176378 207.738 
L 710.305512 207.738 
Q 713.622047 207.738 713.622047 204.6744 
L 713.622047 94.3848 
Q 713.622047 91.3212 710.305512 91.3212 
L 604.176378 91.3212 
Q 600.859843 91.3212 600.859843 94.3848 
L 600.859843 204.6744 
Q 600.859843 207.738 604.176378 207.738 
z
" clip-path="url(#pb941ab6e93)" style="fill: #fff9c4; stroke: #f9a825; stroke-width: 2; stroke-linejoin: miter"/>
   </g>
   <g id="patch_7">
    <path d="M 650.607874 189.3564 
L 783.269291 189.3564 
Q 786.585827 189.3564 786.585827 186.2928 
L 786.585827 112.7664 
Q 786.585827 109.7028 783.269291 109.7028 
L 650.607874 109.7028 
Q 647.291339 109.7028 647.291339 112.7664 
L 647.291339 186.2928 
Q 647.291339 189.3564 650.607874 189.3564 
z
" clip-path="url(#pb941ab6e93)" style="fill: #e1f5fe; stroke: #1565c0; stroke-width: 2; stroke-linejoin: miter"/>
   </g>
   <g id="patch_8">
    <path d="M 650.607874 311.9004 
L 783.269291 311.9004 
Q 786.585827 311.9004 786.585827 308.8368 
L 786.585827 235.3104 
Q 786.585827 232.2468 783.269291 232.2468 
L 650.607874 232.2468 
Q 647.291339 232.2468 647.291339 235.3104 
L 647.291339 308.8368 
Q 647.291339 311.9004 650.607874 311.9004 
z
" clip-path="url(#pb941ab6e93)" style="fill: #e8f5e9; stroke: #2e7d32; stroke-width: 2; stroke-linejoin: miter"/>
   </g>
   <g id="text_1">
    <!-- 隐藏状态 -->
    <g transform="translate(86.696063 142.614756) scale(0.1 -0.1)">
     <defs>
      <path id="STHeitiSC-Medium-954" d="M 4390 4256 
L 3354 4256 
Q 3104 3936 2848 3661 
L 4013 3661 
L 4390 4256 
z
M 5133 179 
Q 5075 -38 5024 -166 
Q 4973 -294 4918 -368 
Q 4864 -442 4800 -470 
Q 4736 -499 4646 -512 
Q 4365 -557 4067 -557 
Q 3770 -557 3571 -544 
Q 3264 -518 3113 -435 
Q 2963 -352 2963 -186 
L 2963 627 
Q 2963 742 2947 844 
Q 2931 947 2906 1030 
Q 3072 998 3209 982 
Q 3347 966 3475 979 
Q 3565 992 3581 963 
Q 3597 934 3526 877 
Q 3475 832 3459 793 
Q 3443 755 3443 685 
L 3443 32 
Q 3443 -26 3504 -64 
Q 3565 -102 3731 -122 
Q 3814 -134 3977 -128 
Q 4141 -122 4326 -90 
Q 4384 -83 4425 -48 
Q 4467 -13 4505 60 
Q 4544 134 4579 256 
Q 4614 378 4646 563 
Q 4736 403 4861 310 
Q 4986 218 5133 179 
z
M 2726 890 
Q 2586 544 2470 243 
Q 2355 -58 2259 -352 
L 1766 -147 
Q 1933 96 2057 384 
Q 2182 672 2266 1043 
L 2726 890 
z
M 5504 -96 
Q 5453 32 5385 173 
Q 5318 314 5238 451 
Q 5158 589 5068 710 
Q 4979 832 4896 928 
L 5357 1165 
Q 5491 928 5670 659 
Q 5850 390 6022 147 
L 5504 -96 
z
M 3949 448 
Q 3910 634 3833 845 
Q 3757 1056 3667 1216 
L 4147 1350 
Q 4198 1190 4284 985 
Q 4371 781 4461 634 
L 3949 448 
z
M 1677 2829 
Q 1837 2656 1949 2509 
Q 2061 2362 2128 2230 
Q 2195 2099 2227 1971 
Q 2259 1843 2259 1702 
Q 2259 1459 2208 1292 
Q 2157 1126 2048 1011 
Q 1939 896 1756 825 
Q 1574 755 1318 704 
Q 1293 864 1219 1017 
Q 1146 1171 1005 1318 
Q 1222 1286 1363 1296 
Q 1504 1306 1584 1363 
Q 1664 1421 1696 1526 
Q 1728 1632 1728 1792 
Q 1728 1965 1609 2205 
Q 1491 2445 1203 2714 
L 1613 4358 
L 922 4358 
L 922 -531 
L 371 -531 
Q 397 -198 406 86 
Q 416 371 416 627 
L 416 4166 
Q 416 4371 403 4537 
Q 390 4704 371 4819 
Q 557 4794 774 4784 
Q 992 4774 1331 4774 
Q 1670 4774 1875 4784 
Q 2080 4794 2266 4819 
L 1677 2829 
z
M 5011 2419 
Q 4365 2419 3958 2416 
Q 3552 2413 3302 2403 
Q 3053 2394 2912 2384 
Q 2771 2374 2650 2362 
L 2650 2842 
Q 2771 2822 2915 2812 
Q 3059 2803 3308 2796 
Q 3558 2790 3961 2787 
Q 4365 2784 5011 2784 
L 5011 3264 
L 3891 3264 
Q 3469 3264 3209 3251 
Q 2950 3238 2765 3213 
L 2765 3571 
Q 2694 3501 2627 3430 
Q 2560 3360 2483 3290 
Q 2394 3379 2288 3430 
Q 2182 3482 2048 3520 
Q 2285 3699 2473 3888 
Q 2662 4077 2812 4288 
Q 2963 4499 3088 4729 
Q 3213 4960 3322 5216 
Q 3469 5152 3603 5110 
Q 3738 5069 3866 5043 
Q 3955 5024 3964 4985 
Q 3974 4947 3885 4915 
Q 3853 4896 3779 4819 
Q 3706 4742 3642 4653 
L 5222 4653 
L 4518 3661 
Q 4749 3661 4915 3667 
Q 5082 3674 5197 3680 
Q 5312 3686 5392 3696 
Q 5472 3706 5536 3718 
Q 5523 3590 5513 3456 
Q 5504 3322 5504 3213 
L 5504 2067 
Q 5504 1920 5513 1769 
Q 5523 1619 5542 1504 
Q 5216 1523 4864 1529 
Q 4512 1536 4083 1536 
Q 3686 1536 3324 1526 
Q 2963 1517 2598 1485 
L 2598 1990 
Q 2893 1958 3174 1948 
Q 3456 1939 3821 1939 
L 5011 1939 
L 5011 2419 
z
" transform="scale(0.015625)"/>
      <path id="STHeitiSC-Medium-686" d="M 5203 3494 
Q 5146 3590 5082 3660 
Q 5018 3731 4947 3802 
L 5389 4019 
Q 5459 3942 5516 3875 
Q 5574 3808 5651 3718 
L 5203 3494 
z
M 3674 4518 
Q 3667 4678 3654 4812 
Q 3642 4947 3622 5056 
Q 3750 5043 3881 5030 
Q 4013 5018 4134 5018 
Q 4192 5018 4201 4989 
Q 4211 4960 4160 4928 
Q 4115 4902 4105 4876 
Q 4096 4851 4096 4794 
L 4096 4518 
Q 4640 4518 5088 4528 
Q 5536 4538 5862 4570 
L 5862 4090 
Q 5536 4122 5088 4134 
Q 4640 4147 4096 4147 
L 4096 3731 
L 3674 3731 
L 3674 4147 
L 2618 4147 
L 2618 3674 
L 2202 3674 
L 2202 4147 
Q 1696 4141 1267 4131 
Q 838 4122 531 4090 
L 531 4570 
Q 845 4538 1270 4528 
Q 1696 4518 2195 4518 
Q 2195 4672 2182 4809 
Q 2170 4947 2150 5056 
Q 2278 5043 2406 5030 
Q 2534 5018 2656 5018 
Q 2714 5018 2723 4989 
Q 2733 4960 2682 4928 
Q 2650 4909 2634 4880 
Q 2618 4851 2618 4794 
L 2618 4518 
L 3674 4518 
z
M 2618 2400 
L 2618 1882 
L 3104 1882 
L 3104 2400 
L 2618 2400 
z
M 2618 230 
L 3085 230 
L 3085 819 
L 2618 819 
L 2618 230 
z
M 2618 1139 
L 3603 1139 
L 3603 1562 
L 2618 1562 
L 2618 1139 
z
M 1933 3066 
Q 1920 2144 1891 1539 
Q 1862 934 1804 518 
Q 1747 102 1648 -192 
Q 1549 -486 1395 -781 
Q 1267 -717 1161 -691 
Q 1056 -666 896 -653 
Q 1030 -493 1129 -320 
Q 1229 -147 1299 80 
Q 1370 307 1414 611 
Q 1459 915 1485 1331 
L 1114 1331 
Q 1094 1069 1068 851 
Q 1043 634 998 435 
Q 954 237 896 48 
Q 838 -141 762 -346 
Q 659 -275 547 -224 
Q 435 -173 288 -122 
Q 403 32 483 182 
Q 563 333 617 499 
Q 672 666 707 867 
Q 742 1069 762 1318 
Q 672 1312 605 1309 
Q 538 1306 474 1293 
L 474 1760 
Q 550 1747 633 1740 
Q 717 1734 835 1731 
Q 954 1728 1114 1725 
Q 1274 1722 1504 1722 
Q 1510 1837 1513 1961 
Q 1517 2086 1517 2221 
L 1280 2221 
Q 1158 2221 1075 2221 
Q 992 2221 928 2217 
Q 864 2214 809 2211 
Q 755 2208 685 2202 
Q 717 2355 723 2451 
Q 730 2547 730 2682 
L 730 3123 
Q 730 3277 720 3379 
Q 710 3482 698 3590 
Q 826 3578 963 3571 
Q 1101 3565 1210 3578 
Q 1274 3584 1283 3552 
Q 1293 3520 1222 3475 
Q 1133 3424 1133 3258 
L 1133 2573 
L 1523 2573 
Q 1523 2778 1523 3005 
Q 1523 3232 1517 3482 
Q 1645 3469 1856 3462 
Q 2067 3456 2380 3449 
Q 2694 3443 3126 3440 
Q 3558 3437 4134 3437 
Q 4128 3514 4125 3597 
Q 4122 3680 4115 3782 
Q 4237 3763 4342 3756 
Q 4448 3750 4576 3757 
Q 4678 3763 4681 3737 
Q 4685 3712 4608 3635 
Q 4576 3603 4557 3437 
Q 4890 3443 5104 3446 
Q 5318 3450 5456 3456 
Q 5594 3462 5677 3468 
Q 5760 3475 5837 3482 
L 5837 3021 
Q 5741 3034 5629 3043 
Q 5517 3053 5369 3056 
Q 5222 3059 5024 3062 
Q 4826 3066 4557 3066 
Q 4570 2899 4592 2700 
Q 4614 2502 4659 2176 
Q 4698 1888 4736 1657 
Q 4774 1427 4826 1242 
Q 4966 1568 5052 1929 
Q 5139 2291 5152 2656 
Q 5318 2605 5449 2569 
Q 5581 2534 5645 2522 
Q 5779 2502 5664 2432 
Q 5626 2406 5584 2288 
Q 5542 2170 5504 2022 
Q 5472 1882 5417 1709 
Q 5363 1536 5299 1357 
Q 5235 1178 5164 1005 
Q 5094 832 5030 698 
Q 5197 339 5318 156 
Q 5440 -26 5517 -54 
Q 5594 -83 5632 29 
Q 5670 141 5683 365 
Q 5773 218 5885 138 
Q 5997 58 6106 32 
Q 6003 -314 5904 -490 
Q 5805 -666 5689 -698 
Q 5574 -730 5433 -630 
Q 5293 -531 5114 -333 
Q 5030 -243 4934 -89 
Q 4838 64 4749 250 
Q 4634 96 4528 -32 
Q 4422 -160 4310 -275 
Q 4198 -390 4070 -496 
Q 3942 -602 3782 -717 
Q 3635 -608 3532 -550 
Q 3430 -493 3302 -442 
Q 3430 -384 3548 -313 
Q 3667 -243 3776 -166 
Q 3738 -160 3686 -157 
Q 3635 -154 3561 -150 
Q 3488 -147 3376 -147 
Q 3264 -147 3098 -147 
Q 2906 -147 2771 -150 
Q 2637 -154 2537 -157 
Q 2438 -160 2361 -169 
Q 2285 -179 2208 -186 
Q 2221 -19 2227 249 
Q 2234 518 2234 762 
L 2234 1933 
Q 2234 2157 2224 2387 
Q 2214 2618 2195 2803 
Q 2304 2784 2502 2771 
Q 2701 2758 3091 2758 
Q 3270 2758 3398 2761 
Q 3526 2765 3628 2768 
Q 3731 2771 3811 2777 
Q 3891 2784 3981 2797 
L 3981 2355 
Q 3872 2368 3750 2377 
Q 3629 2387 3475 2394 
L 3475 1882 
Q 3667 1888 3788 1897 
Q 3910 1907 3994 1920 
Q 3981 1811 3974 1673 
Q 3968 1536 3968 1382 
Q 3968 1216 3974 1062 
Q 3981 909 3994 794 
Q 3898 806 3773 812 
Q 3648 819 3462 819 
L 3462 230 
Q 3629 237 3702 246 
Q 3776 256 3846 288 
L 3846 -109 
Q 4051 58 4224 259 
Q 4397 461 4563 730 
Q 4371 1312 4272 1888 
Q 4173 2464 4141 3066 
L 1933 3066 
z
" transform="scale(0.015625)"/>
      <path id="STHeitiSC-Medium-795" d="M 1683 2061 
Q 1619 1971 1510 1788 
Q 1402 1606 1216 1280 
Q 1075 1037 956 800 
Q 838 563 749 371 
Q 627 531 518 643 
Q 410 755 275 864 
Q 429 1056 585 1280 
Q 742 1504 922 1786 
Q 1024 1952 1129 2147 
Q 1235 2342 1312 2509 
Q 1382 2381 1468 2278 
Q 1555 2176 1683 2061 
z
M 2387 4954 
Q 2336 4902 2313 4841 
Q 2291 4781 2291 4710 
L 2291 435 
Q 2291 147 2304 -99 
Q 2317 -346 2349 -627 
L 1722 -627 
Q 1754 -352 1763 -102 
Q 1773 147 1773 435 
L 1773 4115 
Q 1773 4461 1757 4729 
Q 1741 4998 1709 5126 
Q 2022 5069 2330 5088 
Q 2432 5094 2448 5056 
Q 2464 5018 2387 4954 
z
M 1005 2861 
Q 883 3162 726 3434 
Q 570 3706 384 3942 
L 845 4237 
Q 1030 4000 1212 3715 
Q 1395 3430 1536 3162 
L 1005 2861 
z
M 5190 3706 
Q 5101 3949 4998 4179 
Q 4896 4410 4774 4614 
L 5267 4845 
Q 5389 4646 5501 4448 
Q 5613 4250 5741 3981 
L 5190 3706 
z
M 4166 2099 
Q 4096 1658 4035 1398 
Q 3974 1139 3923 992 
Q 3750 518 3510 124 
Q 3270 -269 2918 -557 
Q 2816 -448 2694 -355 
Q 2573 -262 2432 -192 
Q 2810 122 3059 467 
Q 3309 813 3456 1178 
Q 3533 1363 3590 1542 
Q 3648 1722 3689 1930 
Q 3731 2138 3763 2387 
Q 3795 2637 3814 2957 
Q 3430 2944 3132 2931 
Q 2835 2918 2598 2893 
L 2598 3462 
Q 2835 3437 3136 3421 
Q 3437 3405 3834 3398 
Q 3840 3635 3837 3900 
Q 3834 4166 3830 4416 
Q 3827 4666 3814 4874 
Q 3802 5082 3789 5210 
Q 4154 5152 4474 5152 
Q 4544 5152 4553 5123 
Q 4563 5094 4506 5050 
Q 4486 5037 4464 4982 
Q 4442 4928 4422 4851 
Q 4403 4774 4390 4694 
Q 4378 4614 4378 4550 
Q 4371 4262 4358 3952 
Q 4346 3642 4326 3398 
Q 4890 3398 5290 3414 
Q 5690 3430 5997 3462 
L 5997 2893 
Q 5690 2925 5296 2941 
Q 4902 2957 4346 2957 
Q 4403 2560 4467 2259 
Q 4531 1958 4614 1721 
Q 4698 1485 4803 1293 
Q 4909 1101 5037 922 
Q 5446 346 6118 134 
Q 6029 45 5971 -28 
Q 5914 -102 5866 -169 
Q 5818 -237 5776 -313 
Q 5734 -390 5690 -493 
Q 5286 -224 5008 73 
Q 4730 371 4557 698 
Q 4454 883 4361 1196 
Q 4269 1510 4166 2099 
z
" transform="scale(0.015625)"/>
      <path id="STHeitiSC-Medium-44f" d="M 4845 275 
Q 4768 32 4697 -118 
Q 4627 -269 4544 -352 
Q 4461 -435 4365 -470 
Q 4269 -506 4147 -518 
Q 4045 -531 3891 -537 
Q 3738 -544 3562 -547 
Q 3386 -550 3200 -550 
Q 3014 -550 2848 -547 
Q 2682 -544 2557 -537 
Q 2432 -531 2374 -518 
Q 2182 -480 2096 -345 
Q 2010 -211 2010 -19 
L 2010 550 
Q 2010 627 2006 723 
Q 2003 819 1996 912 
Q 1990 1005 1977 1088 
Q 1965 1171 1952 1229 
Q 2118 1197 2284 1181 
Q 2451 1165 2579 1178 
Q 2778 1197 2637 1069 
Q 2579 1024 2563 985 
Q 2547 947 2547 870 
L 2547 339 
Q 2547 160 2617 48 
Q 2688 -64 2790 -77 
Q 2995 -109 3296 -93 
Q 3597 -77 3942 -13 
Q 3981 -6 4019 22 
Q 4058 51 4096 124 
Q 4134 198 4172 323 
Q 4211 448 4256 640 
Q 4346 480 4509 390 
Q 4672 301 4845 275 
z
M 1478 1126 
Q 1427 890 1379 701 
Q 1331 512 1286 345 
Q 1242 179 1190 25 
Q 1139 -128 1082 -301 
L 422 -160 
Q 525 6 605 160 
Q 685 314 739 477 
Q 794 640 829 819 
Q 864 998 883 1216 
L 1478 1126 
z
M 5453 -13 
Q 5376 186 5293 355 
Q 5210 525 5110 675 
Q 5011 826 4892 966 
Q 4774 1107 4634 1261 
L 5101 1504 
Q 5389 1178 5606 912 
Q 5824 646 6048 339 
L 5453 -13 
z
M 3341 627 
Q 3283 762 3238 864 
Q 3194 966 3139 1056 
Q 3085 1146 3021 1242 
Q 2957 1338 2867 1453 
L 3373 1664 
Q 3539 1434 3657 1264 
Q 3776 1094 3891 896 
L 3341 627 
z
M 3008 1939 
Q 2950 2163 2870 2361 
Q 2790 2560 2656 2784 
L 3104 3008 
Q 3251 2790 3382 2569 
Q 3514 2349 3603 2157 
L 3008 1939 
z
M 3021 3846 
Q 2797 3168 2233 2582 
Q 1670 1997 806 1549 
Q 608 1850 352 2048 
Q 1197 2368 1689 2803 
Q 2182 3238 2445 3846 
Q 1837 3840 1366 3827 
Q 896 3814 506 3782 
L 506 4378 
Q 909 4346 1408 4333 
Q 1907 4320 2579 4314 
Q 2598 4435 2617 4569 
Q 2637 4704 2653 4832 
Q 2669 4960 2675 5075 
Q 2682 5190 2682 5267 
Q 2861 5210 3056 5171 
Q 3251 5133 3418 5120 
Q 3494 5114 3504 5082 
Q 3514 5050 3443 5018 
Q 3418 5005 3395 4979 
Q 3373 4954 3344 4883 
Q 3315 4813 3270 4678 
Q 3226 4544 3162 4314 
Q 4038 4314 4656 4330 
Q 5274 4346 5741 4378 
L 5741 3795 
Q 5389 3821 4947 3830 
Q 4506 3840 3904 3846 
Q 4032 3565 4211 3350 
Q 4390 3136 4643 2973 
Q 4896 2810 5232 2688 
Q 5568 2566 6003 2464 
Q 5894 2323 5804 2169 
Q 5715 2016 5645 1830 
Q 5171 2010 4819 2205 
Q 4467 2400 4211 2640 
Q 3955 2880 3776 3174 
Q 3597 3469 3462 3846 
L 3021 3846 
z
" transform="scale(0.015625)"/>
     </defs>
     <use xlink:href="#STHeitiSC-Medium-954"/>
     <use xlink:href="#STHeitiSC-Medium-686" transform="translate(100 0)"/>
     <use xlink:href="#STHeitiSC-Medium-795" transform="translate(200 0)"/>
     <use xlink:href="#STHeitiSC-Medium-44f" transform="translate(300 0)"/>
    </g>
    <!-- [batch, seq, hidden] -->
    <g transform="translate(57.310907 152.914756) scale(0.1 -0.1)">
     <defs>
      <path id="STHeitiSC-Medium-3d" d="M 2003 -672 
L 864 -672 
L 864 5370 
L 2003 5370 
L 2003 4838 
L 1389 4838 
L 1389 -154 
L 2003 -154 
L 2003 -672 
z
" transform="scale(0.015625)"/>
      <path id="STHeitiSC-Medium-44" d="M 992 3360 
Q 1536 3962 2297 3962 
Q 3059 3962 3580 3421 
Q 4102 2880 4102 2118 
Q 4102 1357 3571 813 
Q 3040 269 2288 269 
Q 1536 269 992 922 
L 992 384 
L 474 384 
L 474 5184 
L 992 5184 
L 992 3360 
z
M 2266 781 
Q 2810 781 3190 1184 
Q 3571 1587 3571 2128 
Q 3571 2669 3200 3072 
Q 2829 3475 2272 3475 
Q 1715 3475 1340 3097 
Q 966 2720 966 2147 
Q 966 1574 1344 1177 
Q 1722 781 2266 781 
z
" transform="scale(0.015625)"/>
      <path id="STHeitiSC-Medium-43" d="M 3917 384 
L 3398 384 
L 3398 896 
Q 2829 269 2086 269 
Q 1344 269 816 816 
Q 288 1363 288 2121 
Q 288 2880 819 3421 
Q 1350 3962 2115 3962 
Q 2880 3962 3398 3341 
L 3398 3872 
L 3917 3872 
L 3917 384 
z
M 2125 762 
Q 2656 762 3040 1146 
Q 3424 1530 3424 2102 
Q 3424 2675 3046 3062 
Q 2669 3450 2121 3450 
Q 1574 3450 1196 3050 
Q 819 2650 819 2106 
Q 819 1562 1203 1162 
Q 1587 762 2125 762 
z
" transform="scale(0.015625)"/>
      <path id="STHeitiSC-Medium-56" d="M 2048 3411 
L 1357 3411 
L 1357 966 
Q 1357 832 1395 803 
Q 1434 774 1587 774 
L 1894 774 
L 1894 320 
Q 1587 269 1427 269 
Q 1120 269 973 419 
Q 826 570 826 896 
L 826 3411 
L 224 3411 
L 224 3872 
L 826 3872 
L 826 5184 
L 1357 5184 
L 1357 3872 
L 2048 3872 
L 2048 3411 
z
" transform="scale(0.015625)"/>
      <path id="STHeitiSC-Medium-45" d="M 3853 1094 
Q 3578 691 3133 480 
Q 2688 269 2170 269 
Q 1363 269 822 800 
Q 282 1331 282 2099 
Q 282 2867 826 3414 
Q 1370 3962 2234 3962 
Q 2746 3962 3178 3738 
Q 3610 3514 3853 3110 
L 3437 2848 
Q 2970 3456 2214 3456 
Q 1619 3456 1216 3075 
Q 813 2694 813 2131 
Q 813 1568 1209 1165 
Q 1606 762 2214 762 
Q 2944 762 3443 1376 
L 3853 1094 
z
" transform="scale(0.015625)"/>
      <path id="STHeitiSC-Medium-4a" d="M 3501 384 
L 2970 384 
L 2970 2048 
Q 2970 2534 2941 2732 
Q 2912 2931 2809 3107 
Q 2707 3283 2531 3376 
Q 2355 3469 2108 3469 
Q 1862 3469 1638 3353 
Q 1414 3238 1254 3033 
Q 1094 2829 1033 2598 
Q 973 2368 973 1677 
L 973 384 
L 442 384 
L 442 5184 
L 973 5184 
L 973 3347 
Q 1491 3962 2202 3962 
Q 2579 3962 2886 3766 
Q 3194 3571 3347 3228 
Q 3501 2886 3501 2176 
L 3501 384 
z
" transform="scale(0.015625)"/>
      <path id="STHeitiSC-Medium-e" d="M 1408 1414 
L 736 154 
L 346 320 
L 902 1658 
L 1408 1414 
z
" transform="scale(0.015625)"/>
      <path id="STHeitiSC-Medium-3" transform="scale(0.015625)"/>
      <path id="STHeitiSC-Medium-55" d="M 2259 3462 
L 1920 3110 
Q 1542 3462 1229 3462 
Q 1030 3462 896 3337 
Q 762 3213 762 3030 
Q 762 2848 912 2710 
Q 1062 2573 1446 2371 
Q 1830 2170 2038 1926 
Q 2246 1683 2246 1331 
Q 2246 883 1936 576 
Q 1626 269 1171 269 
Q 538 269 115 806 
L 448 1178 
Q 794 774 1152 774 
Q 1395 774 1568 934 
Q 1741 1094 1741 1308 
Q 1741 1523 1584 1667 
Q 1427 1811 1046 2003 
Q 666 2195 470 2428 
Q 275 2662 275 3043 
Q 275 3424 553 3693 
Q 832 3962 1289 3962 
Q 1747 3962 2259 3462 
z
" transform="scale(0.015625)"/>
      <path id="STHeitiSC-Medium-47" d="M 3878 2035 
L 819 2035 
Q 851 1459 1206 1110 
Q 1562 762 2054 762 
Q 2893 762 3334 1587 
L 3782 1357 
Q 3482 800 3072 534 
Q 2662 269 2093 269 
Q 1306 269 794 809 
Q 282 1350 282 2112 
Q 282 2874 797 3418 
Q 1312 3962 2073 3962 
Q 2835 3962 3347 3446 
Q 3859 2931 3878 2035 
z
M 3290 2502 
Q 3194 2950 2854 3200 
Q 2515 3450 2074 3450 
Q 1178 3450 883 2502 
L 3290 2502 
z
" transform="scale(0.015625)"/>
      <path id="STHeitiSC-Medium-53" d="M 3917 -851 
L 3398 -851 
L 3398 896 
Q 2835 269 2086 269 
Q 1338 269 813 816 
Q 288 1363 288 2121 
Q 288 2880 819 3421 
Q 1350 3962 2112 3962 
Q 2874 3962 3398 3341 
L 3398 3872 
L 3917 3872 
L 3917 -851 
z
M 2118 762 
Q 2630 762 3030 1149 
Q 3430 1536 3430 2093 
Q 3430 2650 3056 3050 
Q 2682 3450 2131 3450 
Q 1581 3450 1200 3046 
Q 819 2643 819 2099 
Q 819 1555 1206 1158 
Q 1594 762 2118 762 
z
" transform="scale(0.015625)"/>
      <path id="STHeitiSC-Medium-4b" d="M 640 5184 
Q 813 5184 931 5065 
Q 1050 4947 1050 4777 
Q 1050 4608 931 4489 
Q 813 4371 643 4371 
Q 474 4371 355 4492 
Q 237 4614 237 4777 
Q 237 4941 355 5062 
Q 474 5184 640 5184 
z
M 909 384 
L 378 384 
L 378 3872 
L 909 3872 
L 909 384 
z
" transform="scale(0.015625)"/>
      <path id="STHeitiSC-Medium-46" d="M 3923 384 
L 3405 384 
L 3405 896 
Q 2835 269 2089 269 
Q 1344 269 819 813 
Q 294 1357 294 2118 
Q 294 2880 825 3421 
Q 1357 3962 2121 3962 
Q 2886 3962 3405 3341 
L 3405 5184 
L 3923 5184 
L 3923 384 
z
M 2131 762 
Q 2637 762 3033 1139 
Q 3430 1517 3430 2096 
Q 3430 2675 3062 3062 
Q 2694 3450 2134 3450 
Q 1574 3450 1200 3050 
Q 826 2650 826 2109 
Q 826 1568 1210 1165 
Q 1594 762 2131 762 
z
" transform="scale(0.015625)"/>
      <path id="STHeitiSC-Medium-50" d="M 3501 384 
L 2976 384 
L 2976 2048 
Q 2976 2624 2921 2832 
Q 2867 3040 2761 3184 
Q 2656 3328 2493 3398 
Q 2330 3469 2096 3469 
Q 1862 3469 1638 3353 
Q 1414 3238 1254 3033 
Q 1094 2829 1033 2598 
Q 973 2368 973 1677 
L 973 384 
L 442 384 
L 442 3872 
L 973 3872 
L 973 3347 
Q 1491 3962 2202 3962 
Q 2579 3962 2886 3766 
Q 3194 3571 3347 3228 
Q 3501 2886 3501 2176 
L 3501 384 
z
" transform="scale(0.015625)"/>
      <path id="STHeitiSC-Medium-3f" d="M 1382 -672 
L 243 -672 
L 243 -154 
L 858 -154 
L 858 4838 
L 243 4838 
L 243 5370 
L 1382 5370 
L 1382 -672 
z
" transform="scale(0.015625)"/>
     </defs>
     <use xlink:href="#STHeitiSC-Medium-3d"/>
     <use xlink:href="#STHeitiSC-Medium-44" transform="translate(35.09375 0)"/>
     <use xlink:href="#STHeitiSC-Medium-43" transform="translate(103.296875 0)"/>
     <use xlink:href="#STHeitiSC-Medium-56" transform="translate(171.59375 0)"/>
     <use xlink:href="#STHeitiSC-Medium-45" transform="translate(205.5 0)"/>
     <use xlink:href="#STHeitiSC-Medium-4a" transform="translate(270.203125 0)"/>
     <use xlink:href="#STHeitiSC-Medium-e" transform="translate(331.203125 0)"/>
     <use xlink:href="#STHeitiSC-Medium-3" transform="translate(358.90625 0)"/>
     <use xlink:href="#STHeitiSC-Medium-55" transform="translate(383.90625 0)"/>
     <use xlink:href="#STHeitiSC-Medium-47" transform="translate(422.703125 0)"/>
     <use xlink:href="#STHeitiSC-Medium-53" transform="translate(487.703125 0)"/>
     <use xlink:href="#STHeitiSC-Medium-e" transform="translate(555.90625 0)"/>
     <use xlink:href="#STHeitiSC-Medium-3" transform="translate(583.609375 0)"/>
     <use xlink:href="#STHeitiSC-Medium-4a" transform="translate(608.609375 0)"/>
     <use xlink:href="#STHeitiSC-Medium-4b" transform="translate(669.609375 0)"/>
     <use xlink:href="#STHeitiSC-Medium-46" transform="translate(689.609375 0)"/>
     <use xlink:href="#STHeitiSC-Medium-46" transform="translate(758.109375 0)"/>
     <use xlink:href="#STHeitiSC-Medium-47" transform="translate(826.609375 0)"/>
     <use xlink:href="#STHeitiSC-Medium-50" transform="translate(891.609375 0)"/>
     <use xlink:href="#STHeitiSC-Medium-3f" transform="translate(952.609375 0)"/>
    </g>
    <!-- (Replicate) -->
    <g transform="translate(79.714813 163.644444) scale(0.1 -0.1)">
     <defs>
      <path id="STHeitiSC-Medium-a" d="M 2048 5779 
Q 1709 5082 1526 4237 
Q 1344 3392 1344 2541 
Q 1344 877 1888 -442 
L 1312 -442 
Q 787 819 787 2483 
Q 787 4275 1440 5779 
L 2048 5779 
z
" transform="scale(0.015625)"/>
      <path id="STHeitiSC-Medium-34" d="M 3622 384 
L 2931 384 
L 1280 2522 
L 1088 2522 
L 1088 384 
L 538 384 
L 538 5069 
L 1498 5069 
Q 2266 5069 2554 5001 
Q 2842 4934 3053 4774 
Q 3264 4614 3385 4361 
Q 3507 4109 3507 3802 
Q 3507 3219 3110 2870 
Q 2714 2522 1965 2522 
L 3622 384 
z
M 1088 3059 
L 1837 3059 
Q 2400 3053 2669 3229 
Q 2938 3405 2938 3792 
Q 2938 4179 2675 4355 
Q 2413 4531 1856 4531 
L 1088 4531 
L 1088 3059 
z
" transform="scale(0.015625)"/>
      <path id="STHeitiSC-Medium-52" d="M 973 3341 
Q 1491 3962 2252 3962 
Q 3014 3962 3545 3421 
Q 4077 2880 4077 2118 
Q 4077 1357 3552 813 
Q 3027 269 2284 269 
Q 1542 269 973 896 
L 973 -851 
L 448 -851 
L 448 3872 
L 973 3872 
L 973 3341 
z
M 2253 762 
Q 2778 762 3165 1155 
Q 3552 1549 3552 2105 
Q 3552 2662 3171 3056 
Q 2790 3450 2240 3450 
Q 1690 3450 1315 3062 
Q 941 2675 941 2105 
Q 941 1536 1325 1149 
Q 1709 762 2253 762 
z
" transform="scale(0.015625)"/>
      <path id="STHeitiSC-Medium-4e" d="M 902 384 
L 378 384 
L 378 5184 
L 902 5184 
L 902 384 
z
" transform="scale(0.015625)"/>
      <path id="STHeitiSC-Medium-b" d="M 922 5779 
Q 1574 4275 1574 2483 
Q 1574 819 1050 -442 
L 474 -442 
Q 1018 877 1018 2541 
Q 1018 3392 835 4237 
Q 653 5082 314 5779 
L 922 5779 
z
" transform="scale(0.015625)"/>
     </defs>
     <use xlink:href="#STHeitiSC-Medium-a"/>
     <use xlink:href="#STHeitiSC-Medium-34" transform="translate(36.90625 0)"/>
     <use xlink:href="#STHeitiSC-Medium-47" transform="translate(97.609375 0)"/>
     <use xlink:href="#STHeitiSC-Medium-52" transform="translate(162.609375 0)"/>
     <use xlink:href="#STHeitiSC-Medium-4e" transform="translate(230.8125 0)"/>
     <use xlink:href="#STHeitiSC-Medium-4b" transform="translate(250.8125 0)"/>
     <use xlink:href="#STHeitiSC-Medium-45" transform="translate(270.8125 0)"/>
     <use xlink:href="#STHeitiSC-Medium-43" transform="translate(335.515625 0)"/>
     <use xlink:href="#STHeitiSC-Medium-56" transform="translate(403.8125 0)"/>
     <use xlink:href="#STHeitiSC-Medium-47" transform="translate(437.71875 0)"/>
     <use xlink:href="#STHeitiSC-Medium-b" transform="translate(502.71875 0)"/>
    </g>
   </g>
   <g id="text_2">
    <!-- GPU 0 -->
    <g transform="translate(246.10263 125.1972) scale(0.09 -0.09)">
     <defs>
      <path id="STHeitiSC-Medium-29" d="M 5325 2675 
Q 5306 1536 4662 902 
Q 4019 269 2970 269 
Q 1766 269 1049 1008 
Q 333 1747 333 2739 
Q 333 3731 1049 4457 
Q 1766 5184 2899 5184 
Q 3514 5184 4042 4957 
Q 4570 4730 5075 4262 
L 4653 3859 
Q 4262 4237 3808 4438 
Q 3354 4640 2874 4640 
Q 2394 4640 1920 4384 
Q 1446 4128 1177 3693 
Q 909 3258 909 2752 
Q 909 1965 1501 1379 
Q 2093 794 2982 794 
Q 3642 794 4122 1155 
Q 4602 1517 4710 2144 
L 3251 2144 
L 3251 2675 
L 5325 2675 
z
" transform="scale(0.015625)"/>
      <path id="STHeitiSC-Medium-32" d="M 512 5069 
L 1472 5069 
Q 2291 5069 2547 5005 
Q 2803 4941 3017 4774 
Q 3232 4608 3353 4358 
Q 3475 4109 3475 3795 
Q 3475 3482 3356 3232 
Q 3238 2982 3017 2819 
Q 2797 2656 2477 2589 
Q 2157 2522 1344 2522 
L 1062 2522 
L 1062 384 
L 512 384 
L 512 5069 
z
M 1062 3053 
L 1792 3053 
Q 2438 3040 2672 3257 
Q 2906 3475 2906 3802 
Q 2906 4531 1830 4531 
L 1062 4531 
L 1062 3053 
z
" transform="scale(0.015625)"/>
      <path id="STHeitiSC-Medium-37" d="M 3661 2253 
Q 3661 1542 3517 1161 
Q 3373 781 3005 525 
Q 2637 269 2144 269 
Q 1754 269 1440 393 
Q 1126 518 918 745 
Q 710 973 620 1251 
Q 531 1530 531 2253 
L 531 5069 
L 1082 5069 
L 1082 2253 
Q 1082 1798 1107 1596 
Q 1133 1395 1254 1206 
Q 1376 1018 1603 906 
Q 1830 794 2118 794 
Q 2464 794 2717 995 
Q 2970 1197 3043 1462 
Q 3117 1728 3117 2253 
L 3117 5069 
L 3661 5069 
L 3661 2253 
z
" transform="scale(0.015625)"/>
      <path id="STHeitiSC-Medium-12" d="M 1747 5184 
Q 2502 5184 2944 4547 
Q 3386 3910 3386 2723 
Q 3386 1536 2938 902 
Q 2490 269 1738 269 
Q 986 269 573 893 
Q 160 1517 160 2729 
Q 160 3942 573 4563 
Q 986 5184 1747 5184 
z
M 1760 774 
Q 2285 774 2576 1283 
Q 2867 1792 2867 2726 
Q 2867 3661 2566 4160 
Q 2266 4659 1757 4659 
Q 1248 4659 966 4160 
Q 685 3661 685 2714 
Q 685 774 1760 774 
z
" transform="scale(0.015625)"/>
     </defs>
     <use xlink:href="#STHeitiSC-Medium-29"/>
     <use xlink:href="#STHeitiSC-Medium-32" transform="translate(87.203125 0)"/>
     <use xlink:href="#STHeitiSC-Medium-37" transform="translate(146.40625 0)"/>
     <use xlink:href="#STHeitiSC-Medium-3" transform="translate(211.90625 0)"/>
     <use xlink:href="#STHeitiSC-Medium-12" transform="translate(236.90625 0)"/>
    </g>
   </g>
   <g id="text_3">
    <!-- output -->
    <g transform="translate(244.716771 155.8332) scale(0.09 -0.09)">
     <defs>
      <path id="STHeitiSC-Medium-51" d="M 2099 3962 
Q 2854 3962 3382 3418 
Q 3910 2874 3910 2112 
Q 3910 1350 3388 809 
Q 2867 269 2099 269 
Q 1331 269 806 809 
Q 282 1350 282 2112 
Q 282 2874 810 3418 
Q 1338 3962 2099 3962 
z
M 2099 774 
Q 2630 774 3004 1161 
Q 3379 1549 3379 2096 
Q 3379 2643 2998 3043 
Q 2618 3443 2096 3443 
Q 1574 3443 1196 3043 
Q 819 2643 819 2092 
Q 819 1542 1184 1158 
Q 1549 774 2099 774 
z
" transform="scale(0.015625)"/>
      <path id="STHeitiSC-Medium-57" d="M 3450 384 
L 2918 384 
L 2918 909 
Q 2400 294 1690 294 
Q 1312 294 1005 489 
Q 698 685 544 1027 
Q 390 1370 390 2080 
L 390 3872 
L 915 3872 
L 915 2208 
Q 915 1632 969 1424 
Q 1024 1216 1129 1072 
Q 1235 928 1398 857 
Q 1562 787 1795 787 
Q 2029 787 2253 902 
Q 2477 1018 2637 1222 
Q 2797 1427 2857 1657 
Q 2918 1888 2918 2579 
L 2918 3872 
L 3450 3872 
L 3450 384 
z
" transform="scale(0.015625)"/>
     </defs>
     <use xlink:href="#STHeitiSC-Medium-51"/>
     <use xlink:href="#STHeitiSC-Medium-57" transform="translate(65.5 0)"/>
     <use xlink:href="#STHeitiSC-Medium-56" transform="translate(126.296875 0)"/>
     <use xlink:href="#STHeitiSC-Medium-52" transform="translate(160.203125 0)"/>
     <use xlink:href="#STHeitiSC-Medium-57" transform="translate(228.40625 0)"/>
     <use xlink:href="#STHeitiSC-Medium-56" transform="translate(289.203125 0)"/>
    </g>
   </g>
   <g id="text_4">
    <!-- ColwiseParallel -->
    <g style="fill: #f9a825" transform="translate(230.273568 179.982) scale(0.08 -0.08)">
     <defs>
      <path id="STHeitiSC-Medium-25" d="M 4909 1242 
Q 4154 269 2835 269 
Q 1722 269 1011 973 
Q 301 1677 301 2752 
Q 301 3418 630 3981 
Q 960 4544 1542 4864 
Q 2125 5184 2800 5184 
Q 3475 5184 4009 4925 
Q 4544 4666 4902 4166 
L 4480 3840 
Q 3814 4646 2835 4646 
Q 2035 4646 1456 4083 
Q 877 3520 877 2704 
Q 877 1888 1443 1341 
Q 2010 794 2912 794 
Q 3814 794 4480 1568 
L 4909 1242 
z
" transform="scale(0.015625)"/>
      <path id="STHeitiSC-Medium-59" d="M 5299 3872 
L 3808 269 
L 3674 269 
L 2650 2752 
L 1619 269 
L 1485 269 
L 19 3872 
L 563 3872 
L 1549 1363 
L 2586 3872 
L 2714 3872 
L 3744 1357 
L 4749 3872 
L 5299 3872 
z
" transform="scale(0.015625)"/>
      <path id="STHeitiSC-Medium-54" d="M 1914 3821 
L 1638 3373 
Q 1530 3430 1427 3430 
Q 1229 3430 1069 3235 
Q 909 3040 829 2723 
Q 749 2406 749 1581 
L 749 384 
L 211 384 
L 211 3872 
L 749 3872 
L 749 3494 
Q 909 3731 1072 3846 
Q 1235 3962 1443 3962 
Q 1651 3962 1914 3821 
z
" transform="scale(0.015625)"/>
     </defs>
     <use xlink:href="#STHeitiSC-Medium-25"/>
     <use xlink:href="#STHeitiSC-Medium-51" transform="translate(81.296875 0)"/>
     <use xlink:href="#STHeitiSC-Medium-4e" transform="translate(146.796875 0)"/>
     <use xlink:href="#STHeitiSC-Medium-59" transform="translate(166.796875 0)"/>
     <use xlink:href="#STHeitiSC-Medium-4b" transform="translate(249.890625 0)"/>
     <use xlink:href="#STHeitiSC-Medium-55" transform="translate(269.890625 0)"/>
     <use xlink:href="#STHeitiSC-Medium-47" transform="translate(308.6875 0)"/>
     <use xlink:href="#STHeitiSC-Medium-32" transform="translate(373.6875 0)"/>
     <use xlink:href="#STHeitiSC-Medium-43" transform="translate(432.890625 0)"/>
     <use xlink:href="#STHeitiSC-Medium-54" transform="translate(501.1875 0)"/>
     <use xlink:href="#STHeitiSC-Medium-43" transform="translate(531.28125 0)"/>
     <use xlink:href="#STHeitiSC-Medium-4e" transform="translate(599.578125 0)"/>
     <use xlink:href="#STHeitiSC-Medium-4e" transform="translate(619.578125 0)"/>
     <use xlink:href="#STHeitiSC-Medium-47" transform="translate(639.578125 0)"/>
     <use xlink:href="#STHeitiSC-Medium-4e" transform="translate(704.578125 0)"/>
    </g>
   </g>
   <g id="text_5">
    <!-- 词表列 [0:V/4) -->
    <g transform="translate(233.279818 204.662675) scale(0.08 -0.08)">
     <defs>
      <path id="STHeitiSC-Medium-80d" d="M 3194 653 
L 3194 51 
L 2618 51 
Q 2662 256 2678 483 
Q 2694 710 2694 954 
L 2694 1869 
Q 2694 2054 2681 2252 
Q 2669 2451 2650 2560 
Q 2726 2547 2816 2537 
Q 2906 2528 3024 2525 
Q 3142 2522 3302 2518 
Q 3462 2515 3680 2515 
Q 3891 2515 4038 2515 
Q 4186 2515 4291 2521 
Q 4397 2528 4470 2537 
Q 4544 2547 4614 2560 
Q 4589 2458 4573 2269 
Q 4557 2080 4557 1875 
L 4557 1062 
Q 4557 998 4560 905 
Q 4563 813 4572 713 
Q 4582 614 4592 515 
Q 4602 416 4614 333 
L 4058 333 
L 4058 653 
L 3194 653 
z
M 4058 1062 
L 4058 2054 
L 3194 2054 
L 3194 1062 
L 4058 1062 
z
M 1728 -32 
Q 1658 -102 1600 -163 
Q 1542 -224 1494 -285 
Q 1446 -346 1398 -413 
Q 1350 -480 1293 -563 
Q 1203 -397 1110 -269 
Q 1018 -141 902 -32 
Q 1075 134 1148 355 
Q 1222 576 1222 826 
L 1222 2778 
Q 915 2778 742 2768 
Q 570 2758 448 2739 
L 448 3334 
Q 582 3302 736 3292 
Q 890 3283 1107 3283 
Q 1325 3283 1497 3292 
Q 1670 3302 1811 3334 
Q 1779 3174 1763 2969 
Q 1747 2765 1747 2534 
L 1747 627 
Q 1914 794 2045 931 
Q 2176 1069 2298 1216 
Q 2330 1030 2374 921 
Q 2419 813 2502 736 
L 1728 -32 
z
M 5946 4762 
Q 5933 4685 5929 4614 
Q 5926 4544 5920 4461 
Q 5914 4378 5914 4269 
Q 5914 4160 5914 4006 
L 5914 64 
Q 5914 -128 5885 -253 
Q 5856 -378 5747 -454 
Q 5638 -531 5427 -582 
Q 5216 -634 4845 -678 
Q 4845 -506 4774 -304 
Q 4704 -102 4557 70 
Q 4819 38 4976 25 
Q 5133 13 5216 29 
Q 5299 45 5324 93 
Q 5350 141 5350 237 
L 5350 4250 
L 4000 4250 
Q 3776 4250 3593 4243 
Q 3411 4237 3244 4227 
Q 3078 4218 2921 4202 
Q 2765 4186 2598 4160 
L 2598 4742 
Q 2752 4730 2889 4720 
Q 3027 4710 3196 4707 
Q 3366 4704 3577 4704 
Q 3789 4704 4090 4704 
Q 4467 4704 4736 4707 
Q 5005 4710 5209 4713 
Q 5414 4717 5587 4729 
Q 5760 4742 5946 4762 
z
M 4915 3046 
Q 4781 3059 4665 3068 
Q 4550 3078 4422 3081 
Q 4294 3085 4124 3088 
Q 3955 3091 3712 3091 
Q 3475 3091 3302 3088 
Q 3130 3085 2986 3081 
Q 2842 3078 2701 3068 
Q 2560 3059 2387 3046 
L 2387 3616 
Q 2566 3603 2710 3590 
Q 2854 3578 3004 3571 
Q 3155 3565 3321 3561 
Q 3488 3558 3712 3558 
Q 3949 3558 4115 3561 
Q 4282 3565 4413 3568 
Q 4544 3571 4659 3584 
Q 4774 3597 4915 3616 
L 4915 3046 
z
M 1517 3866 
Q 1370 4154 1229 4390 
Q 1088 4627 947 4819 
L 1472 5126 
Q 1619 4922 1766 4691 
Q 1914 4461 2080 4192 
L 1517 3866 
z
" transform="scale(0.015625)"/>
      <path id="STHeitiSC-Medium-22a" d="M 4077 992 
Q 4403 1190 4684 1411 
Q 4966 1632 5114 1824 
Q 5158 1792 5232 1741 
Q 5306 1690 5379 1632 
Q 5453 1574 5513 1526 
Q 5574 1478 5600 1459 
Q 5664 1402 5648 1379 
Q 5632 1357 5542 1344 
Q 5504 1338 5433 1315 
Q 5363 1293 5228 1225 
Q 5094 1158 4876 1043 
Q 4659 928 4320 736 
Q 4480 602 4691 483 
Q 4902 365 5142 269 
Q 5382 173 5638 105 
Q 5894 38 6138 13 
Q 5965 -122 5837 -301 
Q 5709 -480 5683 -595 
Q 5133 -442 4681 -157 
Q 4230 128 3866 525 
Q 3776 614 3680 752 
Q 3584 890 3485 1046 
Q 3386 1203 3290 1376 
Q 3194 1549 3104 1715 
L 3552 1946 
Q 3642 1741 3766 1504 
Q 3891 1267 4077 992 
z
M 2912 3987 
Q 2496 3987 2166 3984 
Q 1837 3981 1561 3974 
Q 1286 3968 1049 3958 
Q 813 3949 589 3936 
L 589 4461 
Q 819 4448 1059 4438 
Q 1299 4429 1571 4425 
Q 1843 4422 2169 4419 
Q 2496 4416 2912 4416 
Q 2906 4672 2893 4861 
Q 2880 5050 2867 5152 
Q 2938 5139 3037 5129 
Q 3136 5120 3229 5110 
Q 3322 5101 3395 5097 
Q 3469 5094 3501 5094 
Q 3603 5101 3612 5078 
Q 3622 5056 3539 4986 
Q 3494 4947 3462 4835 
Q 3430 4723 3430 4653 
L 3430 4416 
Q 3859 4416 4201 4419 
Q 4544 4422 4822 4425 
Q 5101 4429 5328 4438 
Q 5555 4448 5766 4461 
L 5766 3936 
Q 5344 3962 4765 3971 
Q 4186 3981 3430 3987 
L 3430 3456 
Q 3789 3456 4057 3459 
Q 4326 3462 4547 3468 
Q 4768 3475 4960 3488 
Q 5152 3501 5363 3514 
L 5363 3014 
Q 5152 3027 4960 3036 
Q 4768 3046 4547 3049 
Q 4326 3053 4057 3056 
Q 3789 3059 3430 3059 
L 3430 2554 
Q 3968 2554 4320 2557 
Q 4672 2560 4934 2566 
Q 5197 2573 5433 2582 
Q 5670 2592 5978 2611 
L 5978 2106 
Q 5638 2118 5392 2128 
Q 5146 2138 4867 2141 
Q 4589 2144 4211 2147 
Q 3834 2150 3226 2150 
Q 3066 1926 2838 1683 
Q 2611 1440 2323 1203 
L 2323 -64 
Q 2445 -51 2601 -3 
Q 2758 45 2918 105 
Q 3078 166 3225 240 
Q 3373 314 3482 378 
Q 3482 237 3494 96 
Q 3507 -45 3526 -154 
Q 2918 -346 2528 -493 
Q 2138 -640 1869 -806 
Q 1818 -678 1754 -560 
Q 1690 -442 1581 -314 
Q 1728 -262 1779 -172 
Q 1830 -83 1830 115 
L 1830 832 
Q 1498 608 1174 435 
Q 851 262 627 173 
Q 544 378 464 499 
Q 384 621 262 723 
Q 557 768 873 893 
Q 1190 1018 1497 1203 
Q 1805 1389 2086 1629 
Q 2368 1869 2598 2150 
Q 2118 2150 1811 2147 
Q 1504 2144 1277 2141 
Q 1050 2138 848 2128 
Q 646 2118 371 2106 
L 371 2611 
Q 570 2598 730 2588 
Q 890 2579 1040 2572 
Q 1190 2566 1356 2563 
Q 1523 2560 1737 2557 
Q 1952 2554 2237 2554 
Q 2522 2554 2912 2554 
L 2912 3059 
Q 2566 3059 2297 3056 
Q 2029 3053 1805 3049 
Q 1581 3046 1382 3036 
Q 1184 3027 979 3014 
L 979 3514 
Q 1190 3501 1385 3488 
Q 1581 3475 1805 3468 
Q 2029 3462 2297 3459 
Q 2566 3456 2912 3456 
L 2912 3987 
z
" transform="scale(0.015625)"/>
      <path id="STHeitiSC-Medium-509" d="M 5837 4954 
Q 5792 4922 5779 4886 
Q 5766 4851 5766 4762 
L 5766 250 
Q 5766 6 5734 -147 
Q 5702 -301 5590 -397 
Q 5478 -493 5264 -553 
Q 5050 -614 4678 -678 
Q 4627 -346 4352 6 
Q 4653 -6 4829 0 
Q 5005 6 5097 51 
Q 5190 96 5216 179 
Q 5242 262 5242 397 
L 5242 4070 
Q 5242 4448 5232 4713 
Q 5222 4979 5210 5133 
Q 5338 5107 5501 5094 
Q 5664 5082 5779 5088 
Q 5875 5094 5888 5052 
Q 5901 5011 5837 4954 
z
M 4614 4154 
Q 4544 4109 4544 3949 
L 4544 1747 
Q 4544 1555 4550 1356 
Q 4557 1158 4576 934 
L 4013 934 
Q 4026 1171 4032 1363 
Q 4038 1555 4038 1747 
L 4038 3590 
Q 4038 3834 4032 4003 
Q 4026 4173 4013 4301 
Q 4160 4275 4310 4272 
Q 4461 4269 4582 4282 
Q 4666 4294 4675 4249 
Q 4685 4205 4614 4154 
z
M 3507 3379 
Q 3424 2656 3264 2067 
Q 3104 1478 2886 1062 
Q 2778 864 2602 643 
Q 2426 422 2198 208 
Q 1971 -6 1705 -208 
Q 1440 -410 1165 -576 
Q 1133 -531 1075 -467 
Q 1018 -403 950 -339 
Q 883 -275 812 -220 
Q 742 -166 691 -134 
Q 890 -58 1114 70 
Q 1338 198 1555 358 
Q 1773 518 1965 700 
Q 2157 883 2291 1069 
Q 2221 1146 2125 1248 
Q 2029 1350 1923 1449 
Q 1818 1549 1709 1641 
Q 1600 1734 1517 1798 
L 1888 2163 
Q 2061 2022 2224 1878 
Q 2387 1734 2560 1568 
Q 2637 1728 2691 1872 
Q 2746 2016 2790 2169 
Q 2835 2323 2867 2502 
Q 2899 2682 2931 2912 
L 1894 2912 
Q 1811 2714 1702 2506 
Q 1594 2298 1472 2096 
Q 1350 1894 1219 1708 
Q 1088 1523 966 1382 
Q 877 1491 752 1574 
Q 627 1658 493 1696 
Q 736 1907 941 2188 
Q 1146 2470 1306 2796 
Q 1466 3123 1571 3481 
Q 1677 3840 1728 4205 
Q 1363 4198 1097 4185 
Q 832 4173 608 4147 
L 608 4730 
Q 896 4698 1261 4682 
Q 1626 4666 2163 4666 
Q 2707 4666 3068 4682 
Q 3430 4698 3718 4730 
L 3718 4147 
Q 3443 4179 3097 4195 
Q 2752 4211 2246 4211 
Q 2202 3821 2054 3379 
L 3507 3379 
z
" transform="scale(0.015625)"/>
      <path id="STHeitiSC-Medium-1c" d="M 966 4282 
Q 1146 4282 1270 4157 
Q 1395 4032 1395 3849 
Q 1395 3667 1273 3542 
Q 1152 3418 969 3418 
Q 787 3418 662 3542 
Q 538 3667 538 3846 
Q 538 4026 666 4154 
Q 794 4282 966 4282 
z
M 966 1478 
Q 1146 1478 1270 1353 
Q 1395 1229 1395 1046 
Q 1395 864 1270 739 
Q 1146 614 970 614 
Q 794 614 666 742 
Q 538 870 538 1049 
Q 538 1229 666 1353 
Q 794 1478 966 1478 
z
" transform="scale(0.015625)"/>
      <path id="STHeitiSC-Medium-38" d="M 4346 5069 
L 2304 269 
L 2157 269 
L 147 5069 
L 736 5069 
L 2234 1466 
L 3757 5069 
L 4346 5069 
z
" transform="scale(0.015625)"/>
      <path id="STHeitiSC-Medium-11" d="M 2675 5504 
L 736 77 
L 160 77 
L 2099 5504 
L 2675 5504 
z
" transform="scale(0.015625)"/>
      <path id="STHeitiSC-Medium-16" d="M 3418 1453 
L 2861 1453 
L 2861 384 
L 2317 384 
L 2317 1453 
L 70 1453 
L 2701 5184 
L 2861 5184 
L 2861 1984 
L 3418 1984 
L 3418 1453 
z
M 2317 1984 
L 2317 3712 
L 1094 1984 
L 2317 1984 
z
" transform="scale(0.015625)"/>
     </defs>
     <use xlink:href="#STHeitiSC-Medium-80d"/>
     <use xlink:href="#STHeitiSC-Medium-22a" transform="translate(100 0)"/>
     <use xlink:href="#STHeitiSC-Medium-509" transform="translate(200 0)"/>
     <use xlink:href="#STHeitiSC-Medium-3" transform="translate(300 0)"/>
     <use xlink:href="#STHeitiSC-Medium-3d" transform="translate(325 0)"/>
     <use xlink:href="#STHeitiSC-Medium-12" transform="translate(360.09375 0)"/>
     <use xlink:href="#STHeitiSC-Medium-1c" transform="translate(415.5 0)"/>
     <use xlink:href="#STHeitiSC-Medium-38" transform="translate(443.203125 0)"/>
     <use xlink:href="#STHeitiSC-Medium-11" transform="translate(513.40625 0)"/>
     <use xlink:href="#STHeitiSC-Medium-16" transform="translate(557.109375 0)"/>
     <use xlink:href="#STHeitiSC-Medium-b" transform="translate(612.515625 0)"/>
    </g>
   </g>
   <g id="text_6">
    <!-- GPU 1 -->
    <g transform="translate(378.764048 125.1972) scale(0.09 -0.09)">
     <defs>
      <path id="STHeitiSC-Medium-13" d="M 2131 384 
L 1587 384 
L 1587 4531 
L 826 4531 
L 1158 5069 
L 2131 5069 
L 2131 384 
z
" transform="scale(0.015625)"/>
     </defs>
     <use xlink:href="#STHeitiSC-Medium-29"/>
     <use xlink:href="#STHeitiSC-Medium-32" transform="translate(87.203125 0)"/>
     <use xlink:href="#STHeitiSC-Medium-37" transform="translate(146.40625 0)"/>
     <use xlink:href="#STHeitiSC-Medium-3" transform="translate(211.90625 0)"/>
     <use xlink:href="#STHeitiSC-Medium-13" transform="translate(236.90625 0)"/>
    </g>
   </g>
   <g id="text_7">
    <!-- output -->
    <g transform="translate(377.378188 155.8332) scale(0.09 -0.09)">
     <use xlink:href="#STHeitiSC-Medium-51"/>
     <use xlink:href="#STHeitiSC-Medium-57" transform="translate(65.5 0)"/>
     <use xlink:href="#STHeitiSC-Medium-56" transform="translate(126.296875 0)"/>
     <use xlink:href="#STHeitiSC-Medium-52" transform="translate(160.203125 0)"/>
     <use xlink:href="#STHeitiSC-Medium-57" transform="translate(228.40625 0)"/>
     <use xlink:href="#STHeitiSC-Medium-56" transform="translate(289.203125 0)"/>
    </g>
   </g>
   <g id="text_8">
    <!-- ColwiseParallel -->
    <g style="fill: #f9a825" transform="translate(362.934985 179.982) scale(0.08 -0.08)">
     <use xlink:href="#STHeitiSC-Medium-25"/>
     <use xlink:href="#STHeitiSC-Medium-51" transform="translate(81.296875 0)"/>
     <use xlink:href="#STHeitiSC-Medium-4e" transform="translate(146.796875 0)"/>
     <use xlink:href="#STHeitiSC-Medium-59" transform="translate(166.796875 0)"/>
     <use xlink:href="#STHeitiSC-Medium-4b" transform="translate(249.890625 0)"/>
     <use xlink:href="#STHeitiSC-Medium-55" transform="translate(269.890625 0)"/>
     <use xlink:href="#STHeitiSC-Medium-47" transform="translate(308.6875 0)"/>
     <use xlink:href="#STHeitiSC-Medium-32" transform="translate(373.6875 0)"/>
     <use xlink:href="#STHeitiSC-Medium-43" transform="translate(432.890625 0)"/>
     <use xlink:href="#STHeitiSC-Medium-54" transform="translate(501.1875 0)"/>
     <use xlink:href="#STHeitiSC-Medium-43" transform="translate(531.28125 0)"/>
     <use xlink:href="#STHeitiSC-Medium-4e" transform="translate(599.578125 0)"/>
     <use xlink:href="#STHeitiSC-Medium-4e" transform="translate(619.578125 0)"/>
     <use xlink:href="#STHeitiSC-Medium-47" transform="translate(639.578125 0)"/>
     <use xlink:href="#STHeitiSC-Medium-4e" transform="translate(704.578125 0)"/>
    </g>
   </g>
   <g id="text_9">
    <!-- 词表列 [V/4:V/2) -->
    <g transform="translate(361.384985 204.662675) scale(0.08 -0.08)">
     <defs>
      <path id="STHeitiSC-Medium-14" d="M 3360 384 
L 90 384 
L 1914 2355 
Q 2374 2842 2566 3123 
Q 2758 3405 2758 3763 
Q 2758 4122 2480 4390 
Q 2202 4659 1789 4659 
Q 1376 4659 1101 4368 
Q 826 4077 787 3539 
L 256 3539 
Q 288 4294 736 4739 
Q 1184 5184 1821 5184 
Q 2458 5184 2877 4771 
Q 3296 4358 3296 3763 
Q 3296 3328 3065 2950 
Q 2835 2573 2368 2074 
L 1293 915 
L 3360 915 
L 3360 384 
z
" transform="scale(0.015625)"/>
     </defs>
     <use xlink:href="#STHeitiSC-Medium-80d"/>
     <use xlink:href="#STHeitiSC-Medium-22a" transform="translate(100 0)"/>
     <use xlink:href="#STHeitiSC-Medium-509" transform="translate(200 0)"/>
     <use xlink:href="#STHeitiSC-Medium-3" transform="translate(300 0)"/>
     <use xlink:href="#STHeitiSC-Medium-3d" transform="translate(325 0)"/>
     <use xlink:href="#STHeitiSC-Medium-38" transform="translate(360.09375 0)"/>
     <use xlink:href="#STHeitiSC-Medium-11" transform="translate(430.296875 0)"/>
     <use xlink:href="#STHeitiSC-Medium-16" transform="translate(474 0)"/>
     <use xlink:href="#STHeitiSC-Medium-1c" transform="translate(529.40625 0)"/>
     <use xlink:href="#STHeitiSC-Medium-38" transform="translate(557.109375 0)"/>
     <use xlink:href="#STHeitiSC-Medium-11" transform="translate(627.3125 0)"/>
     <use xlink:href="#STHeitiSC-Medium-14" transform="translate(671.015625 0)"/>
     <use xlink:href="#STHeitiSC-Medium-b" transform="translate(726.421875 0)"/>
    </g>
   </g>
   <g id="text_10">
    <!-- GPU 2 -->
    <g transform="translate(511.425465 125.1972) scale(0.09 -0.09)">
     <use xlink:href="#STHeitiSC-Medium-29"/>
     <use xlink:href="#STHeitiSC-Medium-32" transform="translate(87.203125 0)"/>
     <use xlink:href="#STHeitiSC-Medium-37" transform="translate(146.40625 0)"/>
     <use xlink:href="#STHeitiSC-Medium-3" transform="translate(211.90625 0)"/>
     <use xlink:href="#STHeitiSC-Medium-14" transform="translate(236.90625 0)"/>
    </g>
   </g>
   <g id="text_11">
    <!-- output -->
    <g transform="translate(510.039606 155.8332) scale(0.09 -0.09)">
     <use xlink:href="#STHeitiSC-Medium-51"/>
     <use xlink:href="#STHeitiSC-Medium-57" transform="translate(65.5 0)"/>
     <use xlink:href="#STHeitiSC-Medium-56" transform="translate(126.296875 0)"/>
     <use xlink:href="#STHeitiSC-Medium-52" transform="translate(160.203125 0)"/>
     <use xlink:href="#STHeitiSC-Medium-57" transform="translate(228.40625 0)"/>
     <use xlink:href="#STHeitiSC-Medium-56" transform="translate(289.203125 0)"/>
    </g>
   </g>
   <g id="text_12">
    <!-- ColwiseParallel -->
    <g style="fill: #f9a825" transform="translate(495.596403 179.982) scale(0.08 -0.08)">
     <use xlink:href="#STHeitiSC-Medium-25"/>
     <use xlink:href="#STHeitiSC-Medium-51" transform="translate(81.296875 0)"/>
     <use xlink:href="#STHeitiSC-Medium-4e" transform="translate(146.796875 0)"/>
     <use xlink:href="#STHeitiSC-Medium-59" transform="translate(166.796875 0)"/>
     <use xlink:href="#STHeitiSC-Medium-4b" transform="translate(249.890625 0)"/>
     <use xlink:href="#STHeitiSC-Medium-55" transform="translate(269.890625 0)"/>
     <use xlink:href="#STHeitiSC-Medium-47" transform="translate(308.6875 0)"/>
     <use xlink:href="#STHeitiSC-Medium-32" transform="translate(373.6875 0)"/>
     <use xlink:href="#STHeitiSC-Medium-43" transform="translate(432.890625 0)"/>
     <use xlink:href="#STHeitiSC-Medium-54" transform="translate(501.1875 0)"/>
     <use xlink:href="#STHeitiSC-Medium-43" transform="translate(531.28125 0)"/>
     <use xlink:href="#STHeitiSC-Medium-4e" transform="translate(599.578125 0)"/>
     <use xlink:href="#STHeitiSC-Medium-4e" transform="translate(619.578125 0)"/>
     <use xlink:href="#STHeitiSC-Medium-47" transform="translate(639.578125 0)"/>
     <use xlink:href="#STHeitiSC-Medium-4e" transform="translate(704.578125 0)"/>
    </g>
   </g>
   <g id="text_13">
    <!-- 词表列 [V/2:3V/4) -->
    <g transform="translate(491.830153 204.662675) scale(0.08 -0.08)">
     <defs>
      <path id="STHeitiSC-Medium-15" d="M 2554 3021 
Q 2931 2835 3139 2508 
Q 3347 2182 3347 1798 
Q 3347 1171 2889 720 
Q 2432 269 1734 269 
Q 1107 269 707 630 
Q 307 992 166 1702 
L 710 1702 
Q 832 1248 1072 1027 
Q 1312 806 1757 806 
Q 2202 806 2502 1084 
Q 2803 1363 2803 1785 
Q 2803 2208 2460 2457 
Q 2118 2707 1453 2720 
L 1453 3232 
Q 1933 3232 2227 3437 
Q 2522 3642 2522 3946 
Q 2522 4250 2294 4451 
Q 2067 4653 1744 4653 
Q 1421 4653 1219 4470 
Q 1018 4288 877 3917 
L 320 3917 
Q 461 4531 832 4857 
Q 1203 5184 1747 5184 
Q 2291 5184 2691 4825 
Q 3091 4467 3091 3955 
Q 3091 3366 2554 3021 
z
" transform="scale(0.015625)"/>
     </defs>
     <use xlink:href="#STHeitiSC-Medium-80d"/>
     <use xlink:href="#STHeitiSC-Medium-22a" transform="translate(100 0)"/>
     <use xlink:href="#STHeitiSC-Medium-509" transform="translate(200 0)"/>
     <use xlink:href="#STHeitiSC-Medium-3" transform="translate(300 0)"/>
     <use xlink:href="#STHeitiSC-Medium-3d" transform="translate(325 0)"/>
     <use xlink:href="#STHeitiSC-Medium-38" transform="translate(360.09375 0)"/>
     <use xlink:href="#STHeitiSC-Medium-11" transform="translate(430.296875 0)"/>
     <use xlink:href="#STHeitiSC-Medium-14" transform="translate(474 0)"/>
     <use xlink:href="#STHeitiSC-Medium-1c" transform="translate(529.40625 0)"/>
     <use xlink:href="#STHeitiSC-Medium-15" transform="translate(557.109375 0)"/>
     <use xlink:href="#STHeitiSC-Medium-38" transform="translate(612.515625 0)"/>
     <use xlink:href="#STHeitiSC-Medium-11" transform="translate(682.71875 0)"/>
     <use xlink:href="#STHeitiSC-Medium-16" transform="translate(726.421875 0)"/>
     <use xlink:href="#STHeitiSC-Medium-b" transform="translate(781.828125 0)"/>
    </g>
   </g>
   <g id="text_14">
    <!-- GPU 3 -->
    <g transform="translate(644.086882 125.1972) scale(0.09 -0.09)">
     <use xlink:href="#STHeitiSC-Medium-29"/>
     <use xlink:href="#STHeitiSC-Medium-32" transform="translate(87.203125 0)"/>
     <use xlink:href="#STHeitiSC-Medium-37" transform="translate(146.40625 0)"/>
     <use xlink:href="#STHeitiSC-Medium-3" transform="translate(211.90625 0)"/>
     <use xlink:href="#STHeitiSC-Medium-15" transform="translate(236.90625 0)"/>
    </g>
   </g>
   <g id="text_15">
    <!-- output -->
    <g transform="translate(642.701023 155.8332) scale(0.09 -0.09)">
     <use xlink:href="#STHeitiSC-Medium-51"/>
     <use xlink:href="#STHeitiSC-Medium-57" transform="translate(65.5 0)"/>
     <use xlink:href="#STHeitiSC-Medium-56" transform="translate(126.296875 0)"/>
     <use xlink:href="#STHeitiSC-Medium-52" transform="translate(160.203125 0)"/>
     <use xlink:href="#STHeitiSC-Medium-57" transform="translate(228.40625 0)"/>
     <use xlink:href="#STHeitiSC-Medium-56" transform="translate(289.203125 0)"/>
    </g>
   </g>
   <g id="text_16">
    <!-- ColwiseParallel -->
    <g style="fill: #f9a825" transform="translate(628.25782 179.982) scale(0.08 -0.08)">
     <use xlink:href="#STHeitiSC-Medium-25"/>
     <use xlink:href="#STHeitiSC-Medium-51" transform="translate(81.296875 0)"/>
     <use xlink:href="#STHeitiSC-Medium-4e" transform="translate(146.796875 0)"/>
     <use xlink:href="#STHeitiSC-Medium-59" transform="translate(166.796875 0)"/>
     <use xlink:href="#STHeitiSC-Medium-4b" transform="translate(249.890625 0)"/>
     <use xlink:href="#STHeitiSC-Medium-55" transform="translate(269.890625 0)"/>
     <use xlink:href="#STHeitiSC-Medium-47" transform="translate(308.6875 0)"/>
     <use xlink:href="#STHeitiSC-Medium-32" transform="translate(373.6875 0)"/>
     <use xlink:href="#STHeitiSC-Medium-43" transform="translate(432.890625 0)"/>
     <use xlink:href="#STHeitiSC-Medium-54" transform="translate(501.1875 0)"/>
     <use xlink:href="#STHeitiSC-Medium-43" transform="translate(531.28125 0)"/>
     <use xlink:href="#STHeitiSC-Medium-4e" transform="translate(599.578125 0)"/>
     <use xlink:href="#STHeitiSC-Medium-4e" transform="translate(619.578125 0)"/>
     <use xlink:href="#STHeitiSC-Medium-47" transform="translate(639.578125 0)"/>
     <use xlink:href="#STHeitiSC-Medium-4e" transform="translate(704.578125 0)"/>
    </g>
   </g>
   <g id="text_17">
    <!-- 词表列 [3V/4:V) -->
    <g transform="translate(628.455945 204.662675) scale(0.08 -0.08)">
     <use xlink:href="#STHeitiSC-Medium-80d"/>
     <use xlink:href="#STHeitiSC-Medium-22a" transform="translate(100 0)"/>
     <use xlink:href="#STHeitiSC-Medium-509" transform="translate(200 0)"/>
     <use xlink:href="#STHeitiSC-Medium-3" transform="translate(300 0)"/>
     <use xlink:href="#STHeitiSC-Medium-3d" transform="translate(325 0)"/>
     <use xlink:href="#STHeitiSC-Medium-15" transform="translate(360.09375 0)"/>
     <use xlink:href="#STHeitiSC-Medium-38" transform="translate(415.5 0)"/>
     <use xlink:href="#STHeitiSC-Medium-11" transform="translate(485.703125 0)"/>
     <use xlink:href="#STHeitiSC-Medium-16" transform="translate(529.40625 0)"/>
     <use xlink:href="#STHeitiSC-Medium-1c" transform="translate(584.8125 0)"/>
     <use xlink:href="#STHeitiSC-Medium-38" transform="translate(612.515625 0)"/>
     <use xlink:href="#STHeitiSC-Medium-b" transform="translate(682.71875 0)"/>
    </g>
   </g>
   <g id="text_18">
    <!-- all_gather -->
    <g transform="translate(692.744051 147.9796) scale(0.1 -0.1)">
     <defs>
      <path id="STHeitiSC-Medium-41" d="M 3200 -416 
L 0 -416 
L 0 -6 
L 3200 -6 
L 3200 -416 
z
" transform="scale(0.015625)"/>
      <path id="STHeitiSC-Medium-49" d="M 3930 1203 
Q 3930 512 3811 179 
Q 3693 -154 3453 -384 
Q 3213 -614 2877 -732 
Q 2541 -851 2138 -851 
Q 774 -851 320 301 
L 883 301 
Q 1254 -365 2118 -365 
Q 2515 -365 2828 -211 
Q 3142 -58 3270 198 
Q 3398 454 3398 986 
L 3398 1018 
Q 3149 736 2797 589 
Q 2445 442 2067 442 
Q 1312 442 803 960 
Q 294 1478 301 2182 
Q 294 2918 832 3440 
Q 1370 3962 2109 3962 
Q 2848 3962 3398 3360 
L 3398 3872 
L 3930 3872 
L 3930 1203 
z
M 3418 2182 
Q 3418 2733 3050 3091 
Q 2682 3450 2150 3450 
Q 1587 3450 1206 3062 
Q 826 2675 826 2163 
Q 826 1651 1190 1296 
Q 1555 941 2124 941 
Q 2694 941 3056 1289 
Q 3418 1638 3418 2182 
z
" transform="scale(0.015625)"/>
     </defs>
     <use xlink:href="#STHeitiSC-Medium-43"/>
     <use xlink:href="#STHeitiSC-Medium-4e" transform="translate(68.296875 0)"/>
     <use xlink:href="#STHeitiSC-Medium-4e" transform="translate(88.296875 0)"/>
     <use xlink:href="#STHeitiSC-Medium-41" transform="translate(108.296875 0)"/>
     <use xlink:href="#STHeitiSC-Medium-49" transform="translate(158.296875 0)"/>
     <use xlink:href="#STHeitiSC-Medium-43" transform="translate(225.59375 0)"/>
     <use xlink:href="#STHeitiSC-Medium-56" transform="translate(293.890625 0)"/>
     <use xlink:href="#STHeitiSC-Medium-4a" transform="translate(327.796875 0)"/>
     <use xlink:href="#STHeitiSC-Medium-47" transform="translate(388.796875 0)"/>
     <use xlink:href="#STHeitiSC-Medium-54" transform="translate(453.796875 0)"/>
    </g>
    <!-- 拼接词表维度 -->
    <g transform="translate(686.938583 158.2796) scale(0.1 -0.1)">
     <defs>
      <path id="STHeitiSC-Medium-8b9" d="M 3488 3968 
Q 3379 4211 3264 4403 
Q 3149 4595 2989 4781 
L 3488 5037 
Q 3597 4832 3718 4637 
Q 3840 4442 3994 4237 
L 3488 3968 
z
M 3309 3379 
Q 3123 3373 2944 3363 
Q 2765 3354 2650 3334 
L 2650 3859 
Q 2842 3834 3098 3821 
Q 3354 3808 3763 3808 
L 4269 3808 
Q 4371 3987 4448 4150 
Q 4525 4314 4585 4474 
Q 4646 4634 4694 4803 
Q 4742 4973 4794 5178 
Q 4966 5088 5126 5033 
Q 5286 4979 5434 4947 
Q 5504 4934 5504 4886 
Q 5504 4838 5421 4794 
Q 5370 4762 5312 4710 
Q 5254 4659 5171 4553 
Q 5088 4448 4976 4269 
Q 4864 4090 4704 3808 
Q 4960 3808 5142 3811 
Q 5325 3814 5459 3820 
Q 5594 3827 5696 3836 
Q 5798 3846 5894 3859 
L 5894 3334 
Q 5760 3354 5539 3366 
Q 5318 3379 5107 3386 
L 5107 2093 
Q 5331 2093 5577 2102 
Q 5824 2112 6010 2138 
L 6010 1613 
Q 5824 1632 5577 1645 
Q 5331 1658 5107 1664 
L 5107 467 
Q 5107 218 5116 -80 
Q 5126 -378 5152 -685 
L 4570 -685 
Q 4595 -378 4608 -80 
Q 4621 218 4621 467 
L 4621 1664 
L 3795 1664 
Q 3782 1210 3721 883 
Q 3661 557 3520 291 
Q 3379 26 3139 -211 
Q 2899 -448 2528 -723 
Q 2438 -602 2329 -522 
Q 2221 -442 2054 -365 
Q 2381 -192 2608 -6 
Q 2835 179 2985 412 
Q 3136 646 3209 947 
Q 3283 1248 3302 1658 
Q 3098 1658 2880 1645 
Q 2662 1632 2496 1613 
L 2496 2138 
Q 2662 2112 2883 2102 
Q 3104 2093 3309 2093 
L 3309 3379 
z
M 3802 3392 
L 3802 2093 
L 4621 2093 
L 4621 3392 
L 3802 3392 
z
M 1254 3226 
Q 979 3219 777 3206 
Q 576 3194 416 3168 
L 416 3712 
Q 576 3686 777 3673 
Q 979 3661 1254 3661 
Q 1254 3994 1251 4214 
Q 1248 4435 1241 4585 
Q 1235 4736 1222 4835 
Q 1210 4934 1184 5030 
Q 1338 4998 1485 4988 
Q 1632 4979 1760 4992 
Q 1882 5005 1894 4966 
Q 1907 4928 1830 4826 
Q 1786 4774 1763 4649 
Q 1741 4525 1741 4410 
L 1741 3667 
Q 1920 3674 2064 3683 
Q 2208 3693 2323 3712 
L 2323 3168 
Q 2208 3187 2064 3200 
Q 1920 3213 1741 3219 
L 1741 2259 
Q 2074 2381 2355 2509 
Q 2323 2330 2329 2221 
Q 2336 2112 2387 1990 
Q 2240 1939 2073 1884 
Q 1907 1830 1741 1760 
L 1741 26 
Q 1741 -134 1705 -246 
Q 1670 -358 1564 -435 
Q 1459 -512 1264 -569 
Q 1069 -627 755 -678 
Q 723 -525 675 -371 
Q 627 -218 518 -51 
Q 781 -70 928 -70 
Q 1075 -70 1148 -44 
Q 1222 -19 1238 35 
Q 1254 90 1254 186 
L 1254 1562 
Q 1050 1472 874 1389 
Q 698 1306 563 1229 
Q 531 1376 489 1542 
Q 448 1709 390 1862 
Q 614 1920 832 1977 
Q 1050 2035 1254 2099 
L 1254 3226 
z
" transform="scale(0.015625)"/>
      <path id="STHeitiSC-Medium-2c8" d="M 3379 2989 
Q 3322 3136 3254 3273 
Q 3187 3411 3091 3558 
L 3571 3814 
Q 3622 3686 3718 3526 
Q 3814 3366 3904 3251 
L 3379 2989 
z
M 1210 3392 
Q 960 3392 752 3382 
Q 544 3373 403 3360 
L 403 3885 
Q 544 3872 752 3859 
Q 960 3846 1210 3840 
Q 1210 4096 1206 4288 
Q 1203 4480 1200 4624 
Q 1197 4768 1187 4867 
Q 1178 4966 1171 5037 
Q 1344 5005 1478 4992 
Q 1613 4979 1747 4986 
Q 2022 4998 1811 4832 
Q 1747 4781 1728 4726 
Q 1709 4672 1709 4589 
L 1709 3846 
Q 1914 3853 2080 3862 
Q 2246 3872 2368 3885 
L 2368 3360 
Q 2246 3373 2080 3379 
Q 1914 3386 1709 3392 
L 1709 2374 
Q 1843 2445 1971 2512 
Q 2099 2579 2227 2669 
Q 2240 2541 2262 2425 
Q 2285 2310 2323 2189 
Q 2195 2118 2038 2035 
Q 1882 1952 1709 1856 
L 1709 83 
Q 1709 -134 1683 -262 
Q 1658 -390 1565 -464 
Q 1472 -538 1286 -579 
Q 1101 -621 781 -666 
Q 768 -506 726 -368 
Q 685 -230 595 -58 
Q 813 -70 934 -67 
Q 1056 -64 1117 -29 
Q 1178 6 1194 80 
Q 1210 154 1210 282 
L 1210 1568 
Q 813 1344 512 1165 
Q 480 1318 429 1484 
Q 378 1651 307 1792 
Q 525 1856 752 1939 
Q 979 2022 1210 2125 
L 1210 3392 
z
M 4634 397 
Q 4992 237 5325 83 
Q 5658 -70 5914 -198 
Q 5805 -320 5718 -435 
Q 5632 -550 5542 -698 
Q 5325 -531 5001 -332 
Q 4678 -134 4282 70 
Q 3936 -192 3475 -361 
Q 3014 -531 2406 -621 
Q 2342 -499 2268 -396 
Q 2195 -294 2080 -173 
Q 3168 -90 3802 301 
Q 3565 410 3318 509 
Q 3072 608 2816 691 
Q 2899 800 2953 880 
Q 3008 960 3049 1033 
Q 3091 1107 3132 1193 
Q 3174 1280 3232 1395 
Q 3059 1395 2931 1388 
Q 2803 1382 2691 1379 
Q 2579 1376 2480 1366 
Q 2381 1357 2272 1350 
L 2272 1875 
Q 2394 1862 2509 1852 
Q 2624 1843 2752 1840 
Q 2880 1837 3046 1833 
Q 3213 1830 3443 1830 
Q 3552 2054 3590 2169 
Q 3629 2285 3642 2400 
Q 3936 2272 4141 2246 
Q 4224 2234 4230 2195 
Q 4237 2157 4147 2093 
Q 4122 2074 4093 2029 
Q 4064 1984 3974 1830 
L 4845 1830 
Q 5094 1830 5270 1830 
Q 5446 1830 5587 1836 
Q 5728 1843 5846 1852 
Q 5965 1862 6093 1875 
L 6093 1350 
Q 5984 1363 5891 1369 
Q 5798 1376 5692 1382 
Q 5587 1389 5465 1392 
Q 5344 1395 5184 1395 
Q 5011 806 4634 397 
z
M 3462 883 
Q 3616 826 3798 752 
Q 3981 678 4173 595 
Q 4346 762 4464 963 
Q 4582 1165 4653 1395 
L 3738 1395 
L 3462 883 
z
M 4320 2899 
Q 4454 3174 4547 3440 
Q 4640 3706 4678 3923 
Q 4800 3853 4960 3795 
Q 5120 3738 5261 3712 
Q 5293 3706 5299 3686 
Q 5306 3667 5274 3648 
Q 5184 3578 5069 3405 
Q 4954 3232 4787 2899 
Q 5005 2899 5161 2902 
Q 5318 2906 5449 2909 
Q 5581 2912 5696 2921 
Q 5811 2931 5946 2944 
L 5946 2432 
Q 5818 2445 5683 2454 
Q 5549 2464 5363 2467 
Q 5178 2470 4909 2473 
Q 4640 2477 4237 2477 
Q 3834 2477 3568 2473 
Q 3302 2470 3113 2467 
Q 2925 2464 2793 2454 
Q 2662 2445 2528 2432 
L 2528 2944 
Q 2662 2931 2777 2921 
Q 2893 2912 3027 2909 
Q 3162 2906 3325 2902 
Q 3488 2899 3712 2899 
L 4320 2899 
z
M 4026 4467 
Q 3994 4602 3958 4749 
Q 3923 4896 3872 5030 
L 4461 5165 
Q 4493 5011 4531 4828 
Q 4570 4646 4621 4467 
Q 4902 4467 5100 4470 
Q 5299 4474 5446 4477 
Q 5594 4480 5702 4489 
Q 5811 4499 5914 4512 
L 5914 3974 
Q 5798 3987 5667 3996 
Q 5536 4006 5350 4012 
Q 5165 4019 4896 4022 
Q 4627 4026 4237 4026 
Q 3846 4026 3580 4022 
Q 3315 4019 3126 4012 
Q 2938 4006 2810 3996 
Q 2682 3987 2566 3974 
L 2566 4512 
Q 2675 4499 2793 4489 
Q 2912 4480 3075 4477 
Q 3238 4474 3465 4470 
Q 3693 4467 4026 4467 
z
" transform="scale(0.015625)"/>
      <path id="STHeitiSC-Medium-3ac" d="M 2630 666 
Q 2579 499 2566 368 
Q 2554 237 2566 128 
Q 2125 38 1811 -32 
Q 1498 -102 1277 -160 
Q 1056 -218 909 -266 
Q 762 -314 640 -358 
Q 608 -198 550 -25 
Q 493 147 416 314 
Q 653 320 886 342 
Q 1120 365 1382 406 
Q 1645 448 1949 512 
Q 2253 576 2630 666 
z
M 4506 4160 
Q 4442 4346 4346 4544 
Q 4250 4742 4141 4896 
L 4659 5107 
Q 4800 4781 5043 4397 
L 4506 4160 
z
M 1741 3174 
Q 1869 3443 1942 3622 
Q 2016 3802 2061 3917 
Q 2170 3834 2310 3779 
Q 2451 3725 2554 3712 
Q 2630 3699 2630 3670 
Q 2630 3642 2547 3597 
Q 2515 3584 2464 3510 
Q 2413 3437 2291 3225 
Q 2170 3014 1958 2620 
Q 1747 2227 1402 1574 
Q 1638 1600 1900 1632 
Q 2163 1664 2426 1709 
Q 2323 1421 2330 1184 
L 1325 1082 
Q 1197 1069 1037 1040 
Q 877 1011 774 979 
Q 736 1267 595 1504 
Q 685 1542 781 1612 
Q 877 1683 989 1824 
Q 1101 1965 1235 2189 
Q 1370 2413 1542 2765 
Q 1229 2752 992 2713 
Q 755 2675 602 2624 
Q 531 2931 416 3110 
Q 525 3181 637 3305 
Q 749 3430 870 3657 
Q 992 3885 1120 4240 
Q 1248 4595 1395 5120 
Q 1658 4960 1971 4902 
Q 2144 4864 1990 4774 
Q 1965 4762 1926 4714 
Q 1888 4666 1798 4502 
Q 1709 4339 1539 4019 
Q 1370 3699 1082 3136 
L 1741 3174 
z
M 3334 1606 
L 4186 1606 
L 4186 2426 
L 3334 2426 
L 3334 1606 
z
M 3334 2842 
L 4186 2842 
L 4186 3578 
L 3334 3578 
L 3334 2842 
z
M 3334 -691 
L 2797 -691 
Q 2835 -422 2851 -92 
Q 2867 237 2867 685 
L 2867 2842 
Q 2797 2726 2726 2604 
Q 2656 2483 2586 2368 
Q 2458 2541 2240 2720 
Q 2451 2989 2636 3347 
Q 2822 3706 2970 4083 
Q 3059 4307 3132 4601 
Q 3206 4896 3245 5165 
Q 3386 5107 3555 5062 
Q 3725 5018 3827 5005 
Q 3930 4992 3939 4944 
Q 3949 4896 3840 4838 
Q 3821 4826 3792 4787 
Q 3763 4749 3718 4656 
Q 3674 4563 3600 4412 
Q 3526 4262 3424 4026 
L 4474 4026 
Q 4838 4026 5078 4029 
Q 5318 4032 5475 4035 
Q 5632 4038 5725 4044 
Q 5818 4051 5875 4058 
L 5875 3546 
Q 5818 3552 5738 3558 
Q 5658 3565 5520 3568 
Q 5382 3571 5177 3574 
Q 4973 3578 4666 3578 
L 4666 2842 
Q 4909 2842 5075 2845 
Q 5242 2848 5357 2854 
Q 5472 2861 5542 2867 
Q 5613 2874 5664 2880 
L 5664 2394 
Q 5613 2400 5542 2406 
Q 5472 2413 5357 2416 
Q 5242 2419 5075 2419 
Q 4909 2419 4666 2419 
L 4666 1606 
Q 4902 1606 5068 1609 
Q 5235 1613 5347 1616 
Q 5459 1619 5529 1625 
Q 5600 1632 5651 1638 
L 5651 1152 
Q 5600 1158 5529 1164 
Q 5459 1171 5347 1174 
Q 5235 1178 5068 1181 
Q 4902 1184 4666 1184 
L 4666 320 
Q 5005 320 5232 323 
Q 5459 326 5606 329 
Q 5754 333 5840 339 
Q 5926 346 5984 352 
L 5984 -166 
Q 5920 -160 5830 -153 
Q 5741 -147 5587 -144 
Q 5434 -141 5190 -137 
Q 4947 -134 4582 -134 
L 3334 -134 
L 3334 -691 
z
M 3334 320 
L 4186 320 
L 4186 1184 
L 3334 1184 
L 3334 320 
z
" transform="scale(0.015625)"/>
      <path id="STHeitiSC-Medium-287" d="M 2982 2458 
L 4269 2458 
L 4269 3008 
L 2982 3008 
L 2982 2458 
z
M 2522 3366 
Q 2515 3552 2505 3693 
Q 2496 3834 2464 3923 
Q 2592 3891 2758 3872 
Q 2925 3853 3040 3866 
Q 3142 3878 3059 3782 
Q 2989 3706 2982 3366 
L 4269 3366 
Q 4269 3603 4262 3737 
Q 4256 3872 4230 3981 
Q 4397 3930 4557 3917 
Q 4717 3904 4806 3917 
Q 4922 3936 4838 3846 
Q 4774 3776 4768 3366 
Q 5190 3373 5446 3385 
Q 5702 3398 5888 3418 
L 5888 2950 
Q 5702 2970 5436 2986 
Q 5171 3002 4768 3008 
L 4768 2682 
Q 4768 2483 4774 2339 
Q 4781 2195 4813 2022 
Q 4736 2035 4649 2044 
Q 4563 2054 4435 2060 
Q 4307 2067 4115 2070 
Q 3923 2074 3648 2074 
Q 3379 2074 3193 2070 
Q 3008 2067 2873 2060 
Q 2739 2054 2646 2044 
Q 2554 2035 2477 2022 
Q 2490 2106 2499 2176 
Q 2509 2246 2512 2316 
Q 2515 2387 2518 2464 
Q 2522 2541 2522 2643 
L 2522 3002 
Q 2253 2995 2080 2982 
Q 1907 2970 1773 2950 
L 1773 3418 
Q 1914 3398 2083 3385 
Q 2253 3373 2522 3366 
z
M 3661 4493 
Q 4134 4493 4483 4499 
Q 4832 4506 5081 4512 
Q 5331 4518 5497 4528 
Q 5664 4538 5779 4550 
L 5779 4026 
Q 5504 4051 5145 4067 
Q 4787 4083 4275 4083 
L 1510 4083 
Q 1555 3130 1532 2406 
Q 1510 1683 1424 1123 
Q 1338 563 1194 140 
Q 1050 -282 858 -621 
Q 730 -493 602 -393 
Q 474 -294 326 -224 
Q 544 90 701 502 
Q 858 915 938 1481 
Q 1018 2048 1018 2800 
Q 1018 3552 934 4550 
Q 1069 4538 1241 4528 
Q 1414 4518 1657 4512 
Q 1901 4506 2243 4499 
Q 2586 4493 3059 4493 
Q 3027 4634 2976 4765 
Q 2925 4896 2854 5037 
L 3437 5146 
Q 3482 5005 3539 4832 
Q 3597 4659 3661 4493 
z
M 2880 1325 
Q 3008 1082 3200 874 
Q 3392 666 3622 518 
Q 3878 685 4080 883 
Q 4282 1082 4435 1325 
L 2880 1325 
z
M 2336 1318 
Q 2214 1306 2086 1299 
Q 1958 1293 1843 1280 
L 1843 1760 
Q 2010 1747 2224 1734 
Q 2438 1722 2675 1715 
Q 2912 1709 3161 1705 
Q 3411 1702 3642 1702 
Q 4102 1702 4521 1715 
Q 4941 1728 5267 1760 
Q 5139 1510 5014 1305 
Q 4890 1101 4749 925 
Q 4608 749 4448 595 
Q 4288 442 4090 301 
Q 4525 134 4992 67 
Q 5459 0 6067 26 
Q 5952 -109 5878 -265 
Q 5805 -422 5779 -621 
Q 5178 -557 4643 -413 
Q 4109 -269 3629 0 
Q 3328 -173 2877 -342 
Q 2426 -512 1869 -646 
Q 1830 -538 1728 -390 
Q 1626 -243 1459 -90 
Q 1664 -83 1891 -48 
Q 2118 -13 2345 38 
Q 2573 90 2784 157 
Q 2995 224 3168 294 
Q 3066 371 2950 489 
Q 2835 608 2723 745 
Q 2611 883 2508 1033 
Q 2406 1184 2336 1318 
z
" transform="scale(0.015625)"/>
     </defs>
     <use xlink:href="#STHeitiSC-Medium-8b9"/>
     <use xlink:href="#STHeitiSC-Medium-2c8" transform="translate(100 0)"/>
     <use xlink:href="#STHeitiSC-Medium-80d" transform="translate(200 0)"/>
     <use xlink:href="#STHeitiSC-Medium-22a" transform="translate(300 0)"/>
     <use xlink:href="#STHeitiSC-Medium-3ac" transform="translate(400 0)"/>
     <use xlink:href="#STHeitiSC-Medium-287" transform="translate(500 0)"/>
    </g>
   </g>
   <g id="text_19">
    <!-- 完整 logits -->
    <g transform="translate(695.766083 265.850241) scale(0.09 -0.09)">
     <defs>
      <path id="STHeitiSC-Medium-225" d="M 3219 2912 
Q 2720 2912 2320 2899 
Q 1920 2886 1670 2854 
L 1670 3411 
Q 1926 3379 2336 3366 
Q 2746 3354 3219 3354 
Q 3693 3354 4109 3366 
Q 4525 3379 4774 3411 
L 4774 2854 
Q 4525 2886 4109 2899 
Q 3693 2912 3219 2912 
z
M 2240 1824 
Q 1862 1818 1468 1805 
Q 1075 1792 672 1760 
L 672 2342 
Q 922 2323 1181 2313 
Q 1440 2304 1744 2294 
Q 2048 2285 2413 2281 
Q 2778 2278 3238 2278 
Q 3699 2278 4064 2281 
Q 4429 2285 4733 2294 
Q 5037 2304 5296 2313 
Q 5555 2323 5805 2342 
L 5805 1760 
Q 5357 1792 4921 1808 
Q 4486 1824 4045 1824 
L 4045 346 
Q 4045 256 4057 201 
Q 4070 147 4124 118 
Q 4179 90 4284 83 
Q 4390 77 4582 77 
Q 4774 77 4899 109 
Q 5024 141 5104 227 
Q 5184 314 5235 467 
Q 5286 621 5331 870 
Q 5440 755 5600 665 
Q 5760 576 5907 525 
Q 5818 218 5728 35 
Q 5638 -147 5497 -246 
Q 5357 -346 5136 -378 
Q 4915 -410 4563 -410 
Q 4262 -410 4064 -384 
Q 3866 -358 3741 -297 
Q 3616 -237 3565 -141 
Q 3514 -45 3514 102 
L 3514 1824 
L 2771 1824 
Q 2752 1242 2646 842 
Q 2541 442 2320 163 
Q 2099 -115 1744 -300 
Q 1389 -486 883 -640 
Q 819 -512 713 -352 
Q 608 -192 486 -58 
Q 954 19 1286 140 
Q 1619 262 1830 476 
Q 2042 691 2141 1017 
Q 2240 1344 2240 1824 
z
M 3091 4493 
Q 3046 4672 2985 4854 
Q 2925 5037 2854 5165 
L 3494 5280 
Q 3546 5094 3606 4896 
Q 3667 4698 3750 4493 
Q 4173 4493 4477 4496 
Q 4781 4499 5005 4505 
Q 5229 4512 5392 4515 
Q 5555 4518 5709 4531 
L 5709 3277 
L 5178 3277 
L 5178 4038 
L 1286 4038 
L 1286 3194 
L 755 3194 
L 755 4531 
Q 922 4518 1107 4512 
Q 1293 4506 1555 4502 
Q 1818 4499 2186 4496 
Q 2554 4493 3091 4493 
z
" transform="scale(0.015625)"/>
      <path id="STHeitiSC-Medium-452" d="M 2982 1875 
Q 2854 2022 2691 2160 
Q 2528 2298 2368 2394 
L 2675 2643 
Q 2822 2534 2982 2412 
Q 3142 2291 3296 2163 
L 2982 1875 
z
M 2227 3072 
L 2918 3072 
L 2918 3494 
L 2227 3494 
L 2227 3072 
z
M 1824 3494 
L 1120 3494 
L 1120 3072 
L 1824 3072 
L 1824 3494 
z
M 1824 2746 
Q 1581 2304 1318 2038 
Q 1056 1773 755 1587 
Q 653 1709 579 1763 
Q 506 1818 358 1875 
Q 704 2022 982 2246 
Q 1261 2470 1466 2771 
Q 1222 2771 1043 2771 
Q 864 2771 691 2758 
Q 730 2957 730 3251 
Q 730 3411 720 3561 
Q 710 3712 691 3821 
Q 806 3814 924 3808 
Q 1043 3802 1177 3798 
Q 1312 3795 1469 3795 
Q 1626 3795 1824 3795 
L 1824 4186 
Q 1382 4186 1081 4176 
Q 781 4166 538 4141 
L 538 4589 
Q 800 4557 1094 4547 
Q 1389 4538 1824 4538 
Q 1824 4800 1814 4915 
Q 1805 5030 1779 5120 
Q 2048 5082 2234 5101 
Q 2342 5114 2352 5088 
Q 2362 5062 2298 4992 
Q 2266 4960 2246 4838 
Q 2227 4717 2227 4538 
Q 2630 4538 2912 4547 
Q 3194 4557 3430 4576 
L 3430 4141 
Q 3194 4160 2912 4169 
Q 2630 4179 2227 4186 
L 2227 3795 
Q 2611 3795 2864 3801 
Q 3117 3808 3347 3821 
Q 3334 3712 3328 3565 
Q 3322 3418 3322 3251 
Q 3322 3104 3328 2973 
Q 3334 2842 3347 2746 
Q 3123 2758 2867 2764 
Q 2611 2771 2227 2771 
Q 2227 2483 2240 2268 
Q 2253 2054 2285 1875 
L 1766 1875 
Q 1798 2048 1811 2259 
Q 1824 2470 1824 2746 
z
M 4653 2445 
Q 4454 2259 4217 2118 
Q 3981 1978 3706 1856 
Q 3661 1958 3581 2054 
Q 3501 2150 3392 2221 
Q 3987 2432 4346 2733 
Q 4224 2874 4121 3037 
Q 4019 3200 3942 3386 
L 4307 3539 
Q 4429 3238 4614 3014 
Q 4922 3418 5005 3987 
L 4218 3987 
Q 4109 3750 3987 3552 
Q 3866 3354 3731 3162 
Q 3565 3290 3379 3334 
Q 3533 3558 3648 3763 
Q 3763 3968 3846 4179 
Q 3930 4390 3987 4620 
Q 4045 4851 4083 5126 
Q 4230 5075 4368 5040 
Q 4506 5005 4621 4992 
Q 4691 4979 4694 4953 
Q 4698 4928 4614 4858 
Q 4582 4832 4534 4739 
Q 4486 4646 4384 4384 
L 5210 4384 
Q 5478 4384 5651 4393 
Q 5824 4403 5933 4422 
L 5933 3962 
Q 5837 3974 5741 3977 
Q 5645 3981 5478 3987 
Q 5389 3590 5254 3289 
Q 5120 2989 4934 2746 
Q 5139 2618 5404 2534 
Q 5670 2451 6035 2394 
Q 5907 2291 5843 2169 
Q 5779 2048 5728 1875 
Q 5434 1978 5162 2118 
Q 4890 2259 4653 2445 
z
M 3418 13 
Q 3846 13 4198 16 
Q 4550 19 4851 25 
Q 5152 32 5411 41 
Q 5670 51 5907 64 
L 5907 -461 
Q 5658 -448 5382 -438 
Q 5107 -429 4784 -422 
Q 4461 -416 4073 -413 
Q 3686 -410 3219 -410 
Q 2746 -410 2362 -413 
Q 1978 -416 1654 -422 
Q 1331 -429 1056 -438 
Q 781 -448 531 -461 
L 531 64 
Q 774 51 1043 44 
Q 1312 38 1619 26 
L 1619 410 
Q 1619 582 1609 752 
Q 1600 922 1581 1024 
Q 1715 998 1872 992 
Q 2029 986 2106 992 
Q 2253 998 2150 896 
Q 2106 851 2090 755 
Q 2074 659 2074 550 
L 2074 13 
L 2957 13 
L 2957 1338 
Q 2650 1338 2390 1331 
Q 2131 1325 1907 1321 
Q 1683 1318 1491 1308 
Q 1299 1299 1120 1286 
L 1120 1754 
Q 1318 1741 1532 1731 
Q 1747 1722 2000 1718 
Q 2253 1715 2553 1712 
Q 2854 1709 3226 1709 
Q 3597 1709 3897 1712 
Q 4198 1715 4448 1721 
Q 4698 1728 4912 1734 
Q 5126 1741 5325 1754 
L 5325 1286 
Q 5139 1299 4940 1308 
Q 4742 1318 4512 1324 
Q 4282 1331 4013 1334 
Q 3744 1338 3418 1338 
L 3418 902 
Q 3808 902 4077 902 
Q 4346 902 4547 905 
Q 4749 909 4902 912 
Q 5056 915 5216 928 
L 5216 499 
Q 5069 506 4915 512 
Q 4762 518 4560 521 
Q 4358 525 4083 528 
Q 3808 531 3418 531 
L 3418 13 
z
" transform="scale(0.015625)"/>
     </defs>
     <use xlink:href="#STHeitiSC-Medium-225"/>
     <use xlink:href="#STHeitiSC-Medium-452" transform="translate(100 0)"/>
     <use xlink:href="#STHeitiSC-Medium-3" transform="translate(200 0)"/>
     <use xlink:href="#STHeitiSC-Medium-4e" transform="translate(225 0)"/>
     <use xlink:href="#STHeitiSC-Medium-51" transform="translate(245 0)"/>
     <use xlink:href="#STHeitiSC-Medium-49" transform="translate(310.5 0)"/>
     <use xlink:href="#STHeitiSC-Medium-4b" transform="translate(377.796875 0)"/>
     <use xlink:href="#STHeitiSC-Medium-56" transform="translate(397.796875 0)"/>
     <use xlink:href="#STHeitiSC-Medium-55" transform="translate(431.703125 0)"/>
    </g>
    <!-- [batch, seq, vocab_size] -->
    <g transform="translate(663.743661 275.120241) scale(0.09 -0.09)">
     <defs>
      <path id="STHeitiSC-Medium-58" d="M 3430 3872 
L 1837 269 
L 1709 269 
L 102 3872 
L 659 3872 
L 1766 1350 
L 2874 3872 
L 3430 3872 
z
" transform="scale(0.015625)"/>
      <path id="STHeitiSC-Medium-5c" d="M 2714 3872 
L 934 864 
L 2688 864 
L 2688 384 
L 13 384 
L 1792 3398 
L 166 3398 
L 166 3872 
L 2714 3872 
z
" transform="scale(0.015625)"/>
     </defs>
     <use xlink:href="#STHeitiSC-Medium-3d"/>
     <use xlink:href="#STHeitiSC-Medium-44" transform="translate(35.09375 0)"/>
     <use xlink:href="#STHeitiSC-Medium-43" transform="translate(103.296875 0)"/>
     <use xlink:href="#STHeitiSC-Medium-56" transform="translate(171.59375 0)"/>
     <use xlink:href="#STHeitiSC-Medium-45" transform="translate(205.5 0)"/>
     <use xlink:href="#STHeitiSC-Medium-4a" transform="translate(270.203125 0)"/>
     <use xlink:href="#STHeitiSC-Medium-e" transform="translate(331.203125 0)"/>
     <use xlink:href="#STHeitiSC-Medium-3" transform="translate(358.90625 0)"/>
     <use xlink:href="#STHeitiSC-Medium-55" transform="translate(383.90625 0)"/>
     <use xlink:href="#STHeitiSC-Medium-47" transform="translate(422.703125 0)"/>
     <use xlink:href="#STHeitiSC-Medium-53" transform="translate(487.703125 0)"/>
     <use xlink:href="#STHeitiSC-Medium-e" transform="translate(555.90625 0)"/>
     <use xlink:href="#STHeitiSC-Medium-3" transform="translate(583.609375 0)"/>
     <use xlink:href="#STHeitiSC-Medium-58" transform="translate(608.609375 0)"/>
     <use xlink:href="#STHeitiSC-Medium-51" transform="translate(664.015625 0)"/>
     <use xlink:href="#STHeitiSC-Medium-45" transform="translate(729.515625 0)"/>
     <use xlink:href="#STHeitiSC-Medium-43" transform="translate(794.21875 0)"/>
     <use xlink:href="#STHeitiSC-Medium-44" transform="translate(862.515625 0)"/>
     <use xlink:href="#STHeitiSC-Medium-41" transform="translate(930.71875 0)"/>
     <use xlink:href="#STHeitiSC-Medium-55" transform="translate(980.71875 0)"/>
     <use xlink:href="#STHeitiSC-Medium-4b" transform="translate(1019.515625 0)"/>
     <use xlink:href="#STHeitiSC-Medium-5c" transform="translate(1039.515625 0)"/>
     <use xlink:href="#STHeitiSC-Medium-47" transform="translate(1082.015625 0)"/>
     <use xlink:href="#STHeitiSC-Medium-3f" transform="translate(1147.015625 0)"/>
    </g>
    <!-- (Replicate) -->
    <g transform="translate(692.655458 284.776959) scale(0.09 -0.09)">
     <use xlink:href="#STHeitiSC-Medium-a"/>
     <use xlink:href="#STHeitiSC-Medium-34" transform="translate(36.90625 0)"/>
     <use xlink:href="#STHeitiSC-Medium-47" transform="translate(97.609375 0)"/>
     <use xlink:href="#STHeitiSC-Medium-52" transform="translate(162.609375 0)"/>
     <use xlink:href="#STHeitiSC-Medium-4e" transform="translate(230.8125 0)"/>
     <use xlink:href="#STHeitiSC-Medium-4b" transform="translate(250.8125 0)"/>
     <use xlink:href="#STHeitiSC-Medium-45" transform="translate(270.8125 0)"/>
     <use xlink:href="#STHeitiSC-Medium-43" transform="translate(335.515625 0)"/>
     <use xlink:href="#STHeitiSC-Medium-56" transform="translate(403.8125 0)"/>
     <use xlink:href="#STHeitiSC-Medium-47" transform="translate(437.71875 0)"/>
     <use xlink:href="#STHeitiSC-Medium-b" transform="translate(502.71875 0)"/>
    </g>
   </g>
   <g id="patch_9">
    <path d="M 178.171286 148.716722 
Q 223.400384 128.401269 256.706381 93.968519 
" style="fill: none; stroke: #1565c0; stroke-width: 1.5; stroke-linecap: round"/>
    <path d="M 252.487847 95.453098 
L 256.706381 93.968519 
L 255.362924 98.234093 
" style="fill: none; stroke: #1565c0; stroke-width: 1.5; stroke-linecap: round"/>
   </g>
   <g id="patch_10">
    <path d="M 317.638845 149.5296 
Q 483.123731 149.5296 646.931566 149.5296 
" style="fill: none; stroke: #f9a825; stroke-width: 1.5; stroke-linecap: round"/>
    <path d="M 642.931566 147.5296 
L 646.931566 149.5296 
L 642.931566 151.5296 
" style="fill: none; stroke: #f9a825; stroke-width: 1.5; stroke-linecap: round"/>
   </g>
   <g id="patch_11">
    <path d="M 178.335964 149.393854 
Q 289.84874 141.608026 388.620729 92.949381 
" style="fill: none; stroke: #1565c0; stroke-width: 1.5; stroke-linecap: round"/>
    <path d="M 384.148671 92.922958 
L 388.620729 92.949381 
L 385.916355 96.511174 
" style="fill: none; stroke: #1565c0; stroke-width: 1.5; stroke-linecap: round"/>
   </g>
   <g id="patch_12">
    <path d="M 450.296492 149.5296 
Q 549.451176 149.5296 646.92881 149.5296 
" style="fill: none; stroke: #f9a825; stroke-width: 1.5; stroke-linecap: round"/>
    <path d="M 642.92881 147.5296 
L 646.92881 149.5296 
L 642.92881 151.5296 
" style="fill: none; stroke: #f9a825; stroke-width: 1.5; stroke-linecap: round"/>
   </g>
   <g id="patch_13">
    <path d="M 178.344526 149.591066 
Q 356.217974 154.863814 521.138255 92.62224 
" style="fill: none; stroke: #1565c0; stroke-width: 1.5; stroke-linecap: round"/>
    <path d="M 516.689716 92.163443 
L 521.138255 92.62224 
L 518.102094 95.905793 
" style="fill: none; stroke: #1565c0; stroke-width: 1.5; stroke-linecap: round"/>
   </g>
   <g id="patch_14">
    <path d="M 582.962818 149.5296 
Q 615.78413 149.5296 646.928391 149.5296 
" style="fill: none; stroke: #f9a825; stroke-width: 1.5; stroke-linecap: round"/>
    <path d="M 642.928391 147.5296 
L 646.928391 149.5296 
L 642.928391 151.5296 
" style="fill: none; stroke: #f9a825; stroke-width: 1.5; stroke-linecap: round"/>
   </g>
   <g id="patch_15">
    <path d="M 178.338495 149.68185 
Q 422.566293 168.127122 653.746409 92.466531 
" style="fill: none; stroke: #1565c0; stroke-width: 1.5; stroke-linecap: round"/>
    <path d="M 649.322739 91.809921 
L 653.746409 92.466531 
L 650.566919 95.611502 
" style="fill: none; stroke: #1565c0; stroke-width: 1.5; stroke-linecap: round"/>
   </g>
   <g id="patch_16">
    <path d="M 711.61824 149.5296 
Q 682.112891 149.5296 654.284593 149.5296 
" style="fill: none; stroke: #f9a825; stroke-width: 1.5; stroke-linecap: round"/>
    <path d="M 658.284593 151.5296 
L 654.284593 149.5296 
L 658.284593 147.5296 
" style="fill: none; stroke: #f9a825; stroke-width: 1.5; stroke-linecap: round"/>
   </g>
   <g id="patch_17">
    <path d="M 716.938583 191.353798 
Q 716.938583 210.799439 716.938583 228.009012 
" style="fill: none; stroke: #2e7d32; stroke-width: 2; stroke-linecap: round"/>
    <path d="M 718.938583 224.009012 
L 716.938583 228.009012 
L 714.938583 224.009012 
" style="fill: none; stroke: #2e7d32; stroke-width: 2; stroke-linecap: round"/>
   </g>
   <g id="text_20">
    <!-- 输出层 output: ColwiseParallel -->
    <g transform="translate(328.622656 19.24) scale(0.14 -0.14)">
     <defs>
      <path id="STHeitiSC-Medium-8a9" d="M 5747 2758 
Q 5709 2726 5699 2672 
Q 5690 2618 5690 2522 
L 5690 51 
Q 5690 -102 5674 -201 
Q 5658 -301 5584 -371 
Q 5510 -442 5363 -493 
Q 5216 -544 4960 -602 
Q 4941 -493 4880 -345 
Q 4819 -198 4736 -115 
Q 4915 -141 5020 -141 
Q 5126 -141 5180 -105 
Q 5235 -70 5248 6 
Q 5261 83 5261 218 
L 5261 1894 
Q 5261 2259 5241 2528 
Q 5222 2797 5197 2925 
Q 5312 2899 5462 2886 
Q 5613 2874 5702 2880 
Q 5901 2893 5747 2758 
z
M 4941 2541 
Q 4909 2522 4899 2470 
Q 4890 2419 4890 2349 
L 4890 1190 
Q 4890 832 4928 403 
L 4429 403 
Q 4448 627 4457 816 
Q 4467 1005 4467 1190 
L 4467 2003 
Q 4467 2234 4457 2397 
Q 4448 2560 4422 2694 
Q 4570 2662 4691 2656 
Q 4813 2650 4909 2662 
Q 4992 2675 5001 2630 
Q 5011 2586 4941 2541 
z
M 1350 2342 
Q 1350 2573 1350 2717 
Q 1350 2861 1347 2953 
Q 1344 3046 1337 3100 
Q 1331 3155 1325 3200 
Q 1421 3174 1561 3158 
Q 1702 3142 1811 3155 
Q 1875 3162 1878 3117 
Q 1882 3072 1830 3046 
Q 1773 3008 1773 2867 
L 1773 2387 
Q 2054 2426 2202 2470 
L 2202 1990 
Q 2022 2016 1773 2010 
L 1773 1133 
Q 1920 1184 2057 1232 
Q 2195 1280 2278 1318 
Q 2272 1274 2265 1206 
Q 2259 1139 2259 1068 
Q 2259 998 2259 931 
Q 2259 864 2266 813 
Q 2163 813 2048 797 
Q 1933 781 1773 736 
Q 1773 384 1785 48 
Q 1798 -288 1818 -602 
L 1293 -602 
Q 1318 -307 1331 -12 
Q 1344 282 1350 608 
Q 1043 518 838 448 
Q 634 378 518 326 
Q 486 461 432 605 
Q 378 749 320 845 
Q 518 851 761 892 
Q 1005 934 1350 1018 
L 1350 1984 
Q 1088 1965 864 1923 
Q 640 1882 506 1824 
Q 474 1926 413 2057 
Q 352 2189 275 2298 
Q 365 2336 432 2403 
Q 499 2470 569 2627 
Q 640 2784 729 3075 
Q 819 3366 954 3859 
Q 774 3853 665 3843 
Q 557 3834 467 3821 
L 467 4307 
Q 563 4288 691 4278 
Q 819 4269 1043 4262 
Q 1094 4518 1116 4752 
Q 1139 4986 1133 5152 
Q 1210 5126 1302 5104 
Q 1395 5082 1484 5062 
Q 1574 5043 1651 5030 
Q 1728 5018 1773 5018 
Q 1837 5018 1843 4992 
Q 1850 4966 1786 4928 
Q 1734 4896 1670 4749 
Q 1606 4602 1498 4262 
Q 1805 4262 1974 4275 
Q 2144 4288 2259 4307 
L 2259 3821 
Q 2138 3840 1939 3853 
Q 1741 3866 1370 3866 
L 877 2298 
L 1350 2342 
z
M 2963 653 
L 2963 -454 
L 2483 -454 
Q 2515 -198 2528 51 
Q 2541 301 2541 493 
L 2541 2374 
Q 2541 2496 2528 2656 
Q 2515 2816 2496 2912 
Q 2829 2874 3296 2874 
Q 3398 2874 3513 2877 
Q 3629 2880 3737 2886 
Q 3846 2893 3945 2899 
Q 4045 2906 4115 2912 
Q 4102 2829 4092 2685 
Q 4083 2541 4083 2374 
L 4083 141 
Q 4083 -38 4070 -153 
Q 4058 -269 3994 -345 
Q 3930 -422 3805 -467 
Q 3680 -512 3462 -550 
Q 3450 -435 3398 -310 
Q 3347 -186 3277 -77 
Q 3405 -96 3481 -93 
Q 3558 -90 3600 -51 
Q 3642 -13 3654 70 
Q 3667 154 3667 301 
L 3667 653 
L 2963 653 
z
M 3667 1952 
L 3667 2490 
L 2963 2490 
L 2963 1952 
L 3667 1952 
z
M 2963 1574 
L 2963 1024 
L 3667 1024 
L 3667 1574 
L 2963 1574 
z
M 4691 3245 
Q 4550 3270 4387 3283 
Q 4224 3296 3955 3296 
Q 3686 3296 3539 3283 
Q 3392 3270 3251 3245 
L 3251 3738 
Q 3398 3712 3542 3699 
Q 3686 3686 3955 3686 
Q 4186 3686 4336 3696 
Q 4486 3706 4614 3725 
Q 4192 4090 3910 4582 
Q 3712 4320 3529 4099 
Q 3347 3878 3161 3676 
Q 2976 3475 2774 3283 
Q 2573 3091 2342 2886 
Q 2272 2970 2150 3066 
Q 2029 3162 1939 3194 
Q 2400 3488 2851 3993 
Q 3302 4499 3667 5203 
Q 3795 5152 3968 5104 
Q 4141 5056 4250 5050 
Q 4307 5043 4316 5004 
Q 4326 4966 4282 4941 
L 4166 4864 
Q 4365 4557 4582 4339 
Q 4800 4122 5043 3971 
Q 5286 3821 5552 3728 
Q 5818 3635 6118 3578 
Q 6003 3488 5900 3331 
Q 5798 3174 5754 3059 
Q 5184 3258 4691 3661 
L 4691 3245 
z
" transform="scale(0.015625)"/>
      <path id="STHeitiSC-Medium-15c" d="M 3430 2438 
L 3430 262 
L 4909 307 
L 4909 1267 
Q 4909 1466 4899 1610 
Q 4890 1754 4870 1888 
Q 5056 1856 5193 1843 
Q 5331 1830 5491 1843 
Q 5613 1850 5542 1779 
Q 5498 1734 5478 1580 
Q 5459 1427 5459 1261 
L 5459 38 
Q 5459 -147 5465 -313 
Q 5472 -480 5485 -672 
L 4870 -672 
Q 4896 -435 4909 -166 
L 2970 -224 
Q 2394 -243 2035 -256 
Q 1677 -269 1446 -281 
Q 1216 -294 1072 -307 
Q 928 -320 781 -333 
Q 794 -224 803 -83 
Q 813 58 813 192 
L 813 1459 
Q 813 1613 806 1744 
Q 800 1875 787 1952 
Q 947 1920 1104 1901 
Q 1261 1882 1408 1894 
Q 1517 1901 1453 1805 
Q 1414 1741 1392 1587 
Q 1370 1434 1370 1325 
L 1370 198 
L 2874 243 
L 2874 2438 
L 2099 2438 
Q 1984 2438 1837 2432 
Q 1690 2426 1546 2416 
Q 1402 2406 1264 2393 
Q 1126 2381 1030 2368 
Q 1056 2515 1069 2656 
Q 1082 2797 1082 2938 
L 1082 3942 
Q 1082 4096 1072 4240 
Q 1062 4384 1030 4512 
Q 1235 4480 1427 4473 
Q 1619 4467 1702 4480 
Q 1792 4493 1798 4477 
Q 1805 4461 1741 4390 
Q 1722 4371 1702 4313 
Q 1683 4256 1664 4189 
Q 1645 4122 1635 4054 
Q 1626 3987 1626 3949 
L 1626 2899 
L 2874 2899 
L 2874 4262 
Q 2874 4358 2870 4476 
Q 2867 4595 2864 4710 
Q 2861 4826 2851 4931 
Q 2842 5037 2829 5114 
Q 3258 5024 3514 5043 
Q 3603 5050 3612 5030 
Q 3622 5011 3565 4954 
Q 3539 4928 3513 4854 
Q 3488 4781 3469 4681 
Q 3450 4582 3440 4473 
Q 3430 4365 3430 4269 
L 3430 2899 
L 4794 2899 
L 4794 3942 
Q 4794 4141 4781 4285 
Q 4768 4429 4736 4563 
Q 5114 4493 5357 4525 
Q 5440 4538 5453 4518 
Q 5466 4499 5434 4442 
Q 5382 4352 5360 4227 
Q 5338 4102 5338 3936 
L 5338 2778 
Q 5338 2592 5344 2445 
Q 5350 2298 5363 2138 
L 4749 2138 
Q 4762 2208 4774 2288 
Q 4787 2368 4794 2438 
L 3430 2438 
z
" transform="scale(0.015625)"/>
      <path id="STHeitiSC-Medium-69d" d="M 5101 4352 
L 1626 4352 
L 1626 3744 
L 5101 3744 
L 5101 4352 
z
M 5638 3251 
Q 5485 3264 5302 3273 
Q 5120 3283 4883 3286 
Q 4646 3290 4348 3293 
Q 4051 3296 3680 3296 
Q 3258 3296 2762 3286 
Q 2266 3277 1626 3264 
Q 1606 2560 1568 2006 
Q 1530 1453 1450 998 
Q 1370 544 1238 160 
Q 1107 -224 909 -589 
Q 794 -442 666 -342 
Q 538 -243 416 -205 
Q 595 38 723 348 
Q 851 659 934 1065 
Q 1018 1472 1059 1981 
Q 1101 2490 1101 3136 
Q 1101 3750 1094 4153 
Q 1088 4557 1075 4851 
Q 1408 4826 1952 4813 
Q 2496 4800 3328 4800 
Q 4173 4800 4733 4809 
Q 5293 4819 5638 4851 
Q 5581 4038 5638 3251 
z
M 5498 2317 
Q 5286 2330 5097 2339 
Q 4909 2349 4717 2355 
Q 4525 2362 4317 2365 
Q 4109 2368 3853 2368 
Q 3610 2368 3395 2365 
Q 3181 2362 2979 2355 
Q 2778 2349 2579 2339 
Q 2381 2330 2170 2310 
L 2170 2861 
Q 2400 2842 2601 2832 
Q 2803 2822 3001 2819 
Q 3200 2816 3408 2813 
Q 3616 2810 3859 2810 
Q 4115 2810 4323 2813 
Q 4531 2816 4720 2819 
Q 4909 2822 5094 2832 
Q 5280 2842 5498 2861 
L 5498 2317 
z
M 3213 1299 
Q 2970 1299 2765 1296 
Q 2560 1293 2377 1286 
Q 2195 1280 2032 1273 
Q 1869 1267 1702 1254 
L 1702 1792 
Q 1914 1779 2122 1769 
Q 2330 1760 2573 1757 
Q 2816 1754 3113 1750 
Q 3411 1747 3795 1747 
Q 4186 1747 4496 1750 
Q 4806 1754 5065 1757 
Q 5325 1760 5545 1769 
Q 5766 1779 5978 1792 
L 5978 1254 
Q 5779 1267 5574 1276 
Q 5370 1286 5126 1289 
Q 4883 1293 4585 1296 
Q 4288 1299 3917 1299 
Q 3680 1018 3401 714 
Q 3123 410 2803 77 
L 4742 186 
Q 4595 378 4438 557 
Q 4282 736 4128 864 
L 4634 1114 
Q 4915 774 5200 441 
Q 5485 109 5830 -275 
L 5248 -595 
Q 5203 -512 5145 -416 
Q 5088 -320 5018 -211 
L 3398 -333 
Q 3213 -346 3033 -371 
Q 2854 -397 2691 -429 
Q 2528 -461 2393 -496 
Q 2259 -531 2163 -570 
Q 2125 -442 2041 -256 
Q 1958 -70 1869 77 
Q 2074 115 2230 201 
Q 2387 288 2541 454 
Q 2669 595 2768 707 
Q 2867 819 2947 918 
Q 3027 1018 3091 1110 
Q 3155 1203 3213 1299 
z
" transform="scale(0.015625)"/>
     </defs>
     <use xlink:href="#STHeitiSC-Medium-8a9"/>
     <use xlink:href="#STHeitiSC-Medium-15c" transform="translate(100 0)"/>
     <use xlink:href="#STHeitiSC-Medium-69d" transform="translate(200 0)"/>
     <use xlink:href="#STHeitiSC-Medium-3" transform="translate(300 0)"/>
     <use xlink:href="#STHeitiSC-Medium-51" transform="translate(325 0)"/>
     <use xlink:href="#STHeitiSC-Medium-57" transform="translate(390.5 0)"/>
     <use xlink:href="#STHeitiSC-Medium-56" transform="translate(451.296875 0)"/>
     <use xlink:href="#STHeitiSC-Medium-52" transform="translate(485.203125 0)"/>
     <use xlink:href="#STHeitiSC-Medium-57" transform="translate(553.40625 0)"/>
     <use xlink:href="#STHeitiSC-Medium-56" transform="translate(614.203125 0)"/>
     <use xlink:href="#STHeitiSC-Medium-1c" transform="translate(648.109375 0)"/>
     <use xlink:href="#STHeitiSC-Medium-3" transform="translate(675.8125 0)"/>
     <use xlink:href="#STHeitiSC-Medium-25" transform="translate(700.8125 0)"/>
     <use xlink:href="#STHeitiSC-Medium-51" transform="translate(782.109375 0)"/>
     <use xlink:href="#STHeitiSC-Medium-4e" transform="translate(847.609375 0)"/>
     <use xlink:href="#STHeitiSC-Medium-59" transform="translate(867.609375 0)"/>
     <use xlink:href="#STHeitiSC-Medium-4b" transform="translate(950.703125 0)"/>
     <use xlink:href="#STHeitiSC-Medium-55" transform="translate(970.703125 0)"/>
     <use xlink:href="#STHeitiSC-Medium-47" transform="translate(1009.5 0)"/>
     <use xlink:href="#STHeitiSC-Medium-32" transform="translate(1074.5 0)"/>
     <use xlink:href="#STHeitiSC-Medium-43" transform="translate(1133.703125 0)"/>
     <use xlink:href="#STHeitiSC-Medium-54" transform="translate(1202 0)"/>
     <use xlink:href="#STHeitiSC-Medium-43" transform="translate(1232.09375 0)"/>
     <use xlink:href="#STHeitiSC-Medium-4e" transform="translate(1300.390625 0)"/>
     <use xlink:href="#STHeitiSC-Medium-4e" transform="translate(1320.390625 0)"/>
     <use xlink:href="#STHeitiSC-Medium-47" transform="translate(1340.390625 0)"/>
     <use xlink:href="#STHeitiSC-Medium-4e" transform="translate(1405.390625 0)"/>
    </g>
   </g>
  </g>
 </g>
 <defs>
  <clipPath id="pb941ab6e93">
   <rect x="7.2" y="39.24" width="842.4" height="306.36"/>
  </clipPath>
 </defs>
</svg>
