<?xml version="1.0" encoding="utf-8" standalone="no"?>
<!DOCTYPE svg PUBLIC "-//W3C//DTD SVG 1.1//EN"
  "http://www.w3.org/Graphics/SVG/1.1/DTD/svg11.dtd">
<svg xmlns:xlink="http://www.w3.org/1999/xlink" width="964.8pt" height="367.2pt" viewBox="0 0 964.8 367.2" xmlns="http://www.w3.org/2000/svg" version="1.1">
 <metadata>
  <rdf:RDF xmlns:dc="http://purl.org/dc/elements/1.1/" xmlns:cc="http://creativecommons.org/ns#" xmlns:rdf="http://www.w3.org/1999/02/22-rdf-syntax-ns#">
   <cc:Work>
    <dc:type rdf:resource="http://purl.org/dc/dcmitype/StillImage"/>
    <dc:date>2026-07-13T11:07:56.022701</dc:date>
    <dc:format>image/svg+xml</dc:format>
    <dc:creator>
     <cc:Agent>
      <dc:title>Matplotlib v3.11.0, https://matplotlib.org/</dc:title>
     </cc:Agent>
    </dc:creator>
   </cc:Work>
  </rdf:RDF>
 </metadata>
 <defs>
  <style type="text/css">*{stroke-linejoin: round; stroke-linecap: butt}</style>
 </defs>
 <g id="figure_1">
  <g id="patch_1">
   <path d="M 0 367.2 
L 964.8 367.2 
L 964.8 0 
L 0 0 
z
" style="fill: #ffffff"/>
  </g>
  <g id="axes_1">
   <g id="patch_2">
    <path d="M 41.886131 294.845625 
L 166.756204 294.845625 
Q 170.224818 294.845625 170.224818 289.83375 
L 170.224818 169.54875 
Q 170.224818 164.536875 166.756204 164.536875 
L 41.886131 164.536875 
Q 38.417518 164.536875 38.417518 169.54875 
L 38.417518 289.83375 
Q 38.417518 294.845625 41.886131 294.845625 
z
" clip-path="url(#p6a716a367c)" style="fill: #e3f2fd; stroke: #1565c0; stroke-width: 2; stroke-linejoin: miter"/>
   </g>
   <g id="patch_3">
    <path d="M 215.316788 294.845625 
L 340.186861 294.845625 
Q 343.655474 294.845625 343.655474 289.83375 
L 343.655474 169.54875 
Q 343.655474 164.536875 340.186861 164.536875 
L 215.316788 164.536875 
Q 211.848175 164.536875 211.848175 169.54875 
L 211.848175 289.83375 
Q 211.848175 294.845625 215.316788 294.845625 
z
" clip-path="url(#p6a716a367c)" style="fill: #fff9c4; stroke: #f9a825; stroke-width: 2; stroke-linejoin: miter"/>
   </g>
   <g id="patch_4">
    <path d="M 388.747445 294.845625 
L 513.617518 294.845625 
Q 517.086131 294.845625 517.086131 289.83375 
L 517.086131 169.54875 
Q 517.086131 164.536875 513.617518 164.536875 
L 388.747445 164.536875 
Q 385.278832 164.536875 385.278832 169.54875 
L 385.278832 289.83375 
Q 385.278832 294.845625 388.747445 294.845625 
z
" clip-path="url(#p6a716a367c)" style="fill: #fff9c4; stroke: #f9a825; stroke-width: 2; stroke-linejoin: miter"/>
   </g>
   <g id="patch_5">
    <path d="M 576.052555 314.893125 
L 714.79708 314.893125 
Q 718.265693 314.893125 718.265693 309.88125 
L 718.265693 149.50125 
Q 718.265693 144.489375 714.79708 144.489375 
L 576.052555 144.489375 
Q 572.583942 144.489375 572.583942 149.50125 
L 572.583942 309.88125 
Q 572.583942 314.893125 576.052555 314.893125 
z
" clip-path="url(#p6a716a367c)" style="fill: #e8f5e9; stroke: #2e7d32; stroke-width: 2; stroke-linejoin: miter"/>
   </g>
   <g id="patch_6">
    <path d="M 749.483212 314.893125 
L 888.227737 314.893125 
Q 891.69635 314.893125 891.69635 309.88125 
L 891.69635 149.50125 
Q 891.69635 144.489375 888.227737 144.489375 
L 749.483212 144.489375 
Q 746.014599 144.489375 746.014599 149.50125 
L 746.014599 309.88125 
Q 746.014599 314.893125 749.483212 314.893125 
z
" clip-path="url(#p6a716a367c)" style="fill: #e8f5e9; stroke: #2e7d32; stroke-width: 2; stroke-linejoin: miter"/>
   </g>
   <g id="line2d_1">
    <path d="M 562.178102 124.441875 
L 562.178102 99.3825 
" clip-path="url(#p6a716a367c)" style="fill: none; stroke: #2e7d32; stroke-width: 2; stroke-linecap: square"/>
   </g>
   <g id="line2d_2">
    <path d="M 895.164964 124.441875 
L 895.164964 99.3825 
" clip-path="url(#p6a716a367c)" style="fill: none; stroke: #2e7d32; stroke-width: 2; stroke-linecap: square"/>
   </g>
   <g id="line2d_3">
    <path d="M 562.178102 99.3825 
L 895.164964 99.3825 
" clip-path="url(#p6a716a367c)" style="fill: none; stroke: #2e7d32; stroke-width: 2; stroke-linecap: square"/>
   </g>
   <g id="text_1">
    <!-- 隐藏状态 -->
    <g transform="translate(86.321168 223.467891) scale(0.09 -0.09)">
     <defs>
      <path id="STHeitiSC-Medium-954" d="M 4390 4256 
L 3354 4256 
Q 3104 3936 2848 3661 
L 4013 3661 
L 4390 4256 
z
M 5133 179 
Q 5075 -38 5024 -166 
Q 4973 -294 4918 -368 
Q 4864 -442 4800 -470 
Q 4736 -499 4646 -512 
Q 4365 -557 4067 -557 
Q 3770 -557 3571 -544 
Q 3264 -518 3113 -435 
Q 2963 -352 2963 -186 
L 2963 627 
Q 2963 742 2947 844 
Q 2931 947 2906 1030 
Q 3072 998 3209 982 
Q 3347 966 3475 979 
Q 3565 992 3581 963 
Q 3597 934 3526 877 
Q 3475 832 3459 793 
Q 3443 755 3443 685 
L 3443 32 
Q 3443 -26 3504 -64 
Q 3565 -102 3731 -122 
Q 3814 -134 3977 -128 
Q 4141 -122 4326 -90 
Q 4384 -83 4425 -48 
Q 4467 -13 4505 60 
Q 4544 134 4579 256 
Q 4614 378 4646 563 
Q 4736 403 4861 310 
Q 4986 218 5133 179 
z
M 2726 890 
Q 2586 544 2470 243 
Q 2355 -58 2259 -352 
L 1766 -147 
Q 1933 96 2057 384 
Q 2182 672 2266 1043 
L 2726 890 
z
M 5504 -96 
Q 5453 32 5385 173 
Q 5318 314 5238 451 
Q 5158 589 5068 710 
Q 4979 832 4896 928 
L 5357 1165 
Q 5491 928 5670 659 
Q 5850 390 6022 147 
L 5504 -96 
z
M 3949 448 
Q 3910 634 3833 845 
Q 3757 1056 3667 1216 
L 4147 1350 
Q 4198 1190 4284 985 
Q 4371 781 4461 634 
L 3949 448 
z
M 1677 2829 
Q 1837 2656 1949 2509 
Q 2061 2362 2128 2230 
Q 2195 2099 2227 1971 
Q 2259 1843 2259 1702 
Q 2259 1459 2208 1292 
Q 2157 1126 2048 1011 
Q 1939 896 1756 825 
Q 1574 755 1318 704 
Q 1293 864 1219 1017 
Q 1146 1171 1005 1318 
Q 1222 1286 1363 1296 
Q 1504 1306 1584 1363 
Q 1664 1421 1696 1526 
Q 1728 1632 1728 1792 
Q 1728 1965 1609 2205 
Q 1491 2445 1203 2714 
L 1613 4358 
L 922 4358 
L 922 -531 
L 371 -531 
Q 397 -198 406 86 
Q 416 371 416 627 
L 416 4166 
Q 416 4371 403 4537 
Q 390 4704 371 4819 
Q 557 4794 774 4784 
Q 992 4774 1331 4774 
Q 1670 4774 1875 4784 
Q 2080 4794 2266 4819 
L 1677 2829 
z
M 5011 2419 
Q 4365 2419 3958 2416 
Q 3552 2413 3302 2403 
Q 3053 2394 2912 2384 
Q 2771 2374 2650 2362 
L 2650 2842 
Q 2771 2822 2915 2812 
Q 3059 2803 3308 2796 
Q 3558 2790 3961 2787 
Q 4365 2784 5011 2784 
L 5011 3264 
L 3891 3264 
Q 3469 3264 3209 3251 
Q 2950 3238 2765 3213 
L 2765 3571 
Q 2694 3501 2627 3430 
Q 2560 3360 2483 3290 
Q 2394 3379 2288 3430 
Q 2182 3482 2048 3520 
Q 2285 3699 2473 3888 
Q 2662 4077 2812 4288 
Q 2963 4499 3088 4729 
Q 3213 4960 3322 5216 
Q 3469 5152 3603 5110 
Q 3738 5069 3866 5043 
Q 3955 5024 3964 4985 
Q 3974 4947 3885 4915 
Q 3853 4896 3779 4819 
Q 3706 4742 3642 4653 
L 5222 4653 
L 4518 3661 
Q 4749 3661 4915 3667 
Q 5082 3674 5197 3680 
Q 5312 3686 5392 3696 
Q 5472 3706 5536 3718 
Q 5523 3590 5513 3456 
Q 5504 3322 5504 3213 
L 5504 2067 
Q 5504 1920 5513 1769 
Q 5523 1619 5542 1504 
Q 5216 1523 4864 1529 
Q 4512 1536 4083 1536 
Q 3686 1536 3324 1526 
Q 2963 1517 2598 1485 
L 2598 1990 
Q 2893 1958 3174 1948 
Q 3456 1939 3821 1939 
L 5011 1939 
L 5011 2419 
z
" transform="scale(0.015625)"/>
      <path id="STHeitiSC-Medium-686" d="M 5203 3494 
Q 5146 3590 5082 3660 
Q 5018 3731 4947 3802 
L 5389 4019 
Q 5459 3942 5516 3875 
Q 5574 3808 5651 3718 
L 5203 3494 
z
M 3674 4518 
Q 3667 4678 3654 4812 
Q 3642 4947 3622 5056 
Q 3750 5043 3881 5030 
Q 4013 5018 4134 5018 
Q 4192 5018 4201 4989 
Q 4211 4960 4160 4928 
Q 4115 4902 4105 4876 
Q 4096 4851 4096 4794 
L 4096 4518 
Q 4640 4518 5088 4528 
Q 5536 4538 5862 4570 
L 5862 4090 
Q 5536 4122 5088 4134 
Q 4640 4147 4096 4147 
L 4096 3731 
L 3674 3731 
L 3674 4147 
L 2618 4147 
L 2618 3674 
L 2202 3674 
L 2202 4147 
Q 1696 4141 1267 4131 
Q 838 4122 531 4090 
L 531 4570 
Q 845 4538 1270 4528 
Q 1696 4518 2195 4518 
Q 2195 4672 2182 4809 
Q 2170 4947 2150 5056 
Q 2278 5043 2406 5030 
Q 2534 5018 2656 5018 
Q 2714 5018 2723 4989 
Q 2733 4960 2682 4928 
Q 2650 4909 2634 4880 
Q 2618 4851 2618 4794 
L 2618 4518 
L 3674 4518 
z
M 2618 2400 
L 2618 1882 
L 3104 1882 
L 3104 2400 
L 2618 2400 
z
M 2618 230 
L 3085 230 
L 3085 819 
L 2618 819 
L 2618 230 
z
M 2618 1139 
L 3603 1139 
L 3603 1562 
L 2618 1562 
L 2618 1139 
z
M 1933 3066 
Q 1920 2144 1891 1539 
Q 1862 934 1804 518 
Q 1747 102 1648 -192 
Q 1549 -486 1395 -781 
Q 1267 -717 1161 -691 
Q 1056 -666 896 -653 
Q 1030 -493 1129 -320 
Q 1229 -147 1299 80 
Q 1370 307 1414 611 
Q 1459 915 1485 1331 
L 1114 1331 
Q 1094 1069 1068 851 
Q 1043 634 998 435 
Q 954 237 896 48 
Q 838 -141 762 -346 
Q 659 -275 547 -224 
Q 435 -173 288 -122 
Q 403 32 483 182 
Q 563 333 617 499 
Q 672 666 707 867 
Q 742 1069 762 1318 
Q 672 1312 605 1309 
Q 538 1306 474 1293 
L 474 1760 
Q 550 1747 633 1740 
Q 717 1734 835 1731 
Q 954 1728 1114 1725 
Q 1274 1722 1504 1722 
Q 1510 1837 1513 1961 
Q 1517 2086 1517 2221 
L 1280 2221 
Q 1158 2221 1075 2221 
Q 992 2221 928 2217 
Q 864 2214 809 2211 
Q 755 2208 685 2202 
Q 717 2355 723 2451 
Q 730 2547 730 2682 
L 730 3123 
Q 730 3277 720 3379 
Q 710 3482 698 3590 
Q 826 3578 963 3571 
Q 1101 3565 1210 3578 
Q 1274 3584 1283 3552 
Q 1293 3520 1222 3475 
Q 1133 3424 1133 3258 
L 1133 2573 
L 1523 2573 
Q 1523 2778 1523 3005 
Q 1523 3232 1517 3482 
Q 1645 3469 1856 3462 
Q 2067 3456 2380 3449 
Q 2694 3443 3126 3440 
Q 3558 3437 4134 3437 
Q 4128 3514 4125 3597 
Q 4122 3680 4115 3782 
Q 4237 3763 4342 3756 
Q 4448 3750 4576 3757 
Q 4678 3763 4681 3737 
Q 4685 3712 4608 3635 
Q 4576 3603 4557 3437 
Q 4890 3443 5104 3446 
Q 5318 3450 5456 3456 
Q 5594 3462 5677 3468 
Q 5760 3475 5837 3482 
L 5837 3021 
Q 5741 3034 5629 3043 
Q 5517 3053 5369 3056 
Q 5222 3059 5024 3062 
Q 4826 3066 4557 3066 
Q 4570 2899 4592 2700 
Q 4614 2502 4659 2176 
Q 4698 1888 4736 1657 
Q 4774 1427 4826 1242 
Q 4966 1568 5052 1929 
Q 5139 2291 5152 2656 
Q 5318 2605 5449 2569 
Q 5581 2534 5645 2522 
Q 5779 2502 5664 2432 
Q 5626 2406 5584 2288 
Q 5542 2170 5504 2022 
Q 5472 1882 5417 1709 
Q 5363 1536 5299 1357 
Q 5235 1178 5164 1005 
Q 5094 832 5030 698 
Q 5197 339 5318 156 
Q 5440 -26 5517 -54 
Q 5594 -83 5632 29 
Q 5670 141 5683 365 
Q 5773 218 5885 138 
Q 5997 58 6106 32 
Q 6003 -314 5904 -490 
Q 5805 -666 5689 -698 
Q 5574 -730 5433 -630 
Q 5293 -531 5114 -333 
Q 5030 -243 4934 -89 
Q 4838 64 4749 250 
Q 4634 96 4528 -32 
Q 4422 -160 4310 -275 
Q 4198 -390 4070 -496 
Q 3942 -602 3782 -717 
Q 3635 -608 3532 -550 
Q 3430 -493 3302 -442 
Q 3430 -384 3548 -313 
Q 3667 -243 3776 -166 
Q 3738 -160 3686 -157 
Q 3635 -154 3561 -150 
Q 3488 -147 3376 -147 
Q 3264 -147 3098 -147 
Q 2906 -147 2771 -150 
Q 2637 -154 2537 -157 
Q 2438 -160 2361 -169 
Q 2285 -179 2208 -186 
Q 2221 -19 2227 249 
Q 2234 518 2234 762 
L 2234 1933 
Q 2234 2157 2224 2387 
Q 2214 2618 2195 2803 
Q 2304 2784 2502 2771 
Q 2701 2758 3091 2758 
Q 3270 2758 3398 2761 
Q 3526 2765 3628 2768 
Q 3731 2771 3811 2777 
Q 3891 2784 3981 2797 
L 3981 2355 
Q 3872 2368 3750 2377 
Q 3629 2387 3475 2394 
L 3475 1882 
Q 3667 1888 3788 1897 
Q 3910 1907 3994 1920 
Q 3981 1811 3974 1673 
Q 3968 1536 3968 1382 
Q 3968 1216 3974 1062 
Q 3981 909 3994 794 
Q 3898 806 3773 812 
Q 3648 819 3462 819 
L 3462 230 
Q 3629 237 3702 246 
Q 3776 256 3846 288 
L 3846 -109 
Q 4051 58 4224 259 
Q 4397 461 4563 730 
Q 4371 1312 4272 1888 
Q 4173 2464 4141 3066 
L 1933 3066 
z
" transform="scale(0.015625)"/>
      <path id="STHeitiSC-Medium-795" d="M 1683 2061 
Q 1619 1971 1510 1788 
Q 1402 1606 1216 1280 
Q 1075 1037 956 800 
Q 838 563 749 371 
Q 627 531 518 643 
Q 410 755 275 864 
Q 429 1056 585 1280 
Q 742 1504 922 1786 
Q 1024 1952 1129 2147 
Q 1235 2342 1312 2509 
Q 1382 2381 1468 2278 
Q 1555 2176 1683 2061 
z
M 2387 4954 
Q 2336 4902 2313 4841 
Q 2291 4781 2291 4710 
L 2291 435 
Q 2291 147 2304 -99 
Q 2317 -346 2349 -627 
L 1722 -627 
Q 1754 -352 1763 -102 
Q 1773 147 1773 435 
L 1773 4115 
Q 1773 4461 1757 4729 
Q 1741 4998 1709 5126 
Q 2022 5069 2330 5088 
Q 2432 5094 2448 5056 
Q 2464 5018 2387 4954 
z
M 1005 2861 
Q 883 3162 726 3434 
Q 570 3706 384 3942 
L 845 4237 
Q 1030 4000 1212 3715 
Q 1395 3430 1536 3162 
L 1005 2861 
z
M 5190 3706 
Q 5101 3949 4998 4179 
Q 4896 4410 4774 4614 
L 5267 4845 
Q 5389 4646 5501 4448 
Q 5613 4250 5741 3981 
L 5190 3706 
z
M 4166 2099 
Q 4096 1658 4035 1398 
Q 3974 1139 3923 992 
Q 3750 518 3510 124 
Q 3270 -269 2918 -557 
Q 2816 -448 2694 -355 
Q 2573 -262 2432 -192 
Q 2810 122 3059 467 
Q 3309 813 3456 1178 
Q 3533 1363 3590 1542 
Q 3648 1722 3689 1930 
Q 3731 2138 3763 2387 
Q 3795 2637 3814 2957 
Q 3430 2944 3132 2931 
Q 2835 2918 2598 2893 
L 2598 3462 
Q 2835 3437 3136 3421 
Q 3437 3405 3834 3398 
Q 3840 3635 3837 3900 
Q 3834 4166 3830 4416 
Q 3827 4666 3814 4874 
Q 3802 5082 3789 5210 
Q 4154 5152 4474 5152 
Q 4544 5152 4553 5123 
Q 4563 5094 4506 5050 
Q 4486 5037 4464 4982 
Q 4442 4928 4422 4851 
Q 4403 4774 4390 4694 
Q 4378 4614 4378 4550 
Q 4371 4262 4358 3952 
Q 4346 3642 4326 3398 
Q 4890 3398 5290 3414 
Q 5690 3430 5997 3462 
L 5997 2893 
Q 5690 2925 5296 2941 
Q 4902 2957 4346 2957 
Q 4403 2560 4467 2259 
Q 4531 1958 4614 1721 
Q 4698 1485 4803 1293 
Q 4909 1101 5037 922 
Q 5446 346 6118 134 
Q 6029 45 5971 -28 
Q 5914 -102 5866 -169 
Q 5818 -237 5776 -313 
Q 5734 -390 5690 -493 
Q 5286 -224 5008 73 
Q 4730 371 4557 698 
Q 4454 883 4361 1196 
Q 4269 1510 4166 2099 
z
" transform="scale(0.015625)"/>
      <path id="STHeitiSC-Medium-44f" d="M 4845 275 
Q 4768 32 4697 -118 
Q 4627 -269 4544 -352 
Q 4461 -435 4365 -470 
Q 4269 -506 4147 -518 
Q 4045 -531 3891 -537 
Q 3738 -544 3562 -547 
Q 3386 -550 3200 -550 
Q 3014 -550 2848 -547 
Q 2682 -544 2557 -537 
Q 2432 -531 2374 -518 
Q 2182 -480 2096 -345 
Q 2010 -211 2010 -19 
L 2010 550 
Q 2010 627 2006 723 
Q 2003 819 1996 912 
Q 1990 1005 1977 1088 
Q 1965 1171 1952 1229 
Q 2118 1197 2284 1181 
Q 2451 1165 2579 1178 
Q 2778 1197 2637 1069 
Q 2579 1024 2563 985 
Q 2547 947 2547 870 
L 2547 339 
Q 2547 160 2617 48 
Q 2688 -64 2790 -77 
Q 2995 -109 3296 -93 
Q 3597 -77 3942 -13 
Q 3981 -6 4019 22 
Q 4058 51 4096 124 
Q 4134 198 4172 323 
Q 4211 448 4256 640 
Q 4346 480 4509 390 
Q 4672 301 4845 275 
z
M 1478 1126 
Q 1427 890 1379 701 
Q 1331 512 1286 345 
Q 1242 179 1190 25 
Q 1139 -128 1082 -301 
L 422 -160 
Q 525 6 605 160 
Q 685 314 739 477 
Q 794 640 829 819 
Q 864 998 883 1216 
L 1478 1126 
z
M 5453 -13 
Q 5376 186 5293 355 
Q 5210 525 5110 675 
Q 5011 826 4892 966 
Q 4774 1107 4634 1261 
L 5101 1504 
Q 5389 1178 5606 912 
Q 5824 646 6048 339 
L 5453 -13 
z
M 3341 627 
Q 3283 762 3238 864 
Q 3194 966 3139 1056 
Q 3085 1146 3021 1242 
Q 2957 1338 2867 1453 
L 3373 1664 
Q 3539 1434 3657 1264 
Q 3776 1094 3891 896 
L 3341 627 
z
M 3008 1939 
Q 2950 2163 2870 2361 
Q 2790 2560 2656 2784 
L 3104 3008 
Q 3251 2790 3382 2569 
Q 3514 2349 3603 2157 
L 3008 1939 
z
M 3021 3846 
Q 2797 3168 2233 2582 
Q 1670 1997 806 1549 
Q 608 1850 352 2048 
Q 1197 2368 1689 2803 
Q 2182 3238 2445 3846 
Q 1837 3840 1366 3827 
Q 896 3814 506 3782 
L 506 4378 
Q 909 4346 1408 4333 
Q 1907 4320 2579 4314 
Q 2598 4435 2617 4569 
Q 2637 4704 2653 4832 
Q 2669 4960 2675 5075 
Q 2682 5190 2682 5267 
Q 2861 5210 3056 5171 
Q 3251 5133 3418 5120 
Q 3494 5114 3504 5082 
Q 3514 5050 3443 5018 
Q 3418 5005 3395 4979 
Q 3373 4954 3344 4883 
Q 3315 4813 3270 4678 
Q 3226 4544 3162 4314 
Q 4038 4314 4656 4330 
Q 5274 4346 5741 4378 
L 5741 3795 
Q 5389 3821 4947 3830 
Q 4506 3840 3904 3846 
Q 4032 3565 4211 3350 
Q 4390 3136 4643 2973 
Q 4896 2810 5232 2688 
Q 5568 2566 6003 2464 
Q 5894 2323 5804 2169 
Q 5715 2016 5645 1830 
Q 5171 2010 4819 2205 
Q 4467 2400 4211 2640 
Q 3955 2880 3776 3174 
Q 3597 3469 3462 3846 
L 3021 3846 
z
" transform="scale(0.015625)"/>
     </defs>
     <use xlink:href="#STHeitiSC-Medium-954"/>
     <use xlink:href="#STHeitiSC-Medium-686" transform="translate(100 0)"/>
     <use xlink:href="#STHeitiSC-Medium-795" transform="translate(200 0)"/>
     <use xlink:href="#STHeitiSC-Medium-44f" transform="translate(300 0)"/>
    </g>
    <!-- [B,S/tp,H] -->
    <g transform="translate(84.210387 232.737891) scale(0.09 -0.09)">
     <defs>
      <path id="STHeitiSC-Medium-3d" d="M 2003 -672 
L 864 -672 
L 864 5370 
L 2003 5370 
L 2003 4838 
L 1389 4838 
L 1389 -154 
L 2003 -154 
L 2003 -672 
z
" transform="scale(0.015625)"/>
      <path id="STHeitiSC-Medium-24" d="M 2470 2950 
Q 2918 2784 3145 2477 
Q 3373 2170 3373 1747 
Q 3373 1158 2947 771 
Q 2522 384 1837 384 
L 525 384 
L 525 5069 
L 1478 5069 
Q 2221 5069 2608 4765 
Q 2995 4461 2995 3898 
Q 2995 3283 2470 2950 
z
M 1069 3149 
L 1286 3149 
Q 1862 3149 2147 3328 
Q 2432 3507 2432 3898 
Q 2432 4531 1555 4531 
L 1069 4531 
L 1069 3149 
z
M 1069 922 
L 1594 922 
Q 2086 922 2310 1018 
Q 2534 1114 2668 1312 
Q 2803 1510 2803 1715 
Q 2803 1920 2723 2077 
Q 2643 2234 2486 2355 
Q 2330 2477 2102 2537 
Q 1875 2598 1280 2598 
L 1069 2598 
L 1069 922 
z
" transform="scale(0.015625)"/>
      <path id="STHeitiSC-Medium-e" d="M 1408 1414 
L 736 154 
L 346 320 
L 902 1658 
L 1408 1414 
z
" transform="scale(0.015625)"/>
      <path id="STHeitiSC-Medium-35" d="M 2317 4038 
Q 2061 4384 1881 4502 
Q 1702 4621 1462 4621 
Q 1222 4621 1059 4467 
Q 896 4314 896 4074 
Q 896 3834 1049 3654 
Q 1203 3475 1756 3068 
Q 2310 2662 2566 2304 
Q 2822 1946 2822 1549 
Q 2822 1030 2422 649 
Q 2022 269 1491 269 
Q 557 269 26 1312 
L 493 1581 
Q 909 806 1427 806 
Q 1760 806 1997 1017 
Q 2234 1229 2234 1510 
Q 2234 1792 2035 2045 
Q 1837 2298 1350 2666 
Q 864 3034 681 3226 
Q 499 3418 416 3635 
Q 333 3853 333 4070 
Q 333 4538 656 4861 
Q 979 5184 1491 5184 
Q 1888 5184 2182 4982 
Q 2477 4781 2758 4384 
L 2317 4038 
z
" transform="scale(0.015625)"/>
      <path id="STHeitiSC-Medium-11" d="M 2675 5504 
L 736 77 
L 160 77 
L 2099 5504 
L 2675 5504 
z
" transform="scale(0.015625)"/>
      <path id="STHeitiSC-Medium-56" d="M 2048 3411 
L 1357 3411 
L 1357 966 
Q 1357 832 1395 803 
Q 1434 774 1587 774 
L 1894 774 
L 1894 320 
Q 1587 269 1427 269 
Q 1120 269 973 419 
Q 826 570 826 896 
L 826 3411 
L 224 3411 
L 224 3872 
L 826 3872 
L 826 5184 
L 1357 5184 
L 1357 3872 
L 2048 3872 
L 2048 3411 
z
" transform="scale(0.015625)"/>
      <path id="STHeitiSC-Medium-52" d="M 973 3341 
Q 1491 3962 2252 3962 
Q 3014 3962 3545 3421 
Q 4077 2880 4077 2118 
Q 4077 1357 3552 813 
Q 3027 269 2284 269 
Q 1542 269 973 896 
L 973 -851 
L 448 -851 
L 448 3872 
L 973 3872 
L 973 3341 
z
M 2253 762 
Q 2778 762 3165 1155 
Q 3552 1549 3552 2105 
Q 3552 2662 3171 3056 
Q 2790 3450 2240 3450 
Q 1690 3450 1315 3062 
Q 941 2675 941 2105 
Q 941 1536 1325 1149 
Q 1709 762 2253 762 
z
" transform="scale(0.015625)"/>
      <path id="STHeitiSC-Medium-2a" d="M 3859 384 
L 3309 384 
L 3309 2605 
L 1062 2605 
L 1062 384 
L 506 384 
L 506 5069 
L 1062 5069 
L 1062 3142 
L 3309 3142 
L 3309 5069 
L 3859 5069 
L 3859 384 
z
" transform="scale(0.015625)"/>
      <path id="STHeitiSC-Medium-3f" d="M 1382 -672 
L 243 -672 
L 243 -154 
L 858 -154 
L 858 4838 
L 243 4838 
L 243 5370 
L 1382 5370 
L 1382 -672 
z
" transform="scale(0.015625)"/>
     </defs>
     <use xlink:href="#STHeitiSC-Medium-3d"/>
     <use xlink:href="#STHeitiSC-Medium-24" transform="translate(35.09375 0)"/>
     <use xlink:href="#STHeitiSC-Medium-e" transform="translate(92.5 0)"/>
     <use xlink:href="#STHeitiSC-Medium-35" transform="translate(120.203125 0)"/>
     <use xlink:href="#STHeitiSC-Medium-11" transform="translate(170 0)"/>
     <use xlink:href="#STHeitiSC-Medium-56" transform="translate(213.703125 0)"/>
     <use xlink:href="#STHeitiSC-Medium-52" transform="translate(247.609375 0)"/>
     <use xlink:href="#STHeitiSC-Medium-e" transform="translate(315.8125 0)"/>
     <use xlink:href="#STHeitiSC-Medium-2a" transform="translate(343.515625 0)"/>
     <use xlink:href="#STHeitiSC-Medium-3f" transform="translate(411.8125 0)"/>
    </g>
    <!-- Shard(1) -->
    <g transform="translate(86.010387 242.394609) scale(0.09 -0.09)">
     <defs>
      <path id="STHeitiSC-Medium-4a" d="M 3501 384 
L 2970 384 
L 2970 2048 
Q 2970 2534 2941 2732 
Q 2912 2931 2809 3107 
Q 2707 3283 2531 3376 
Q 2355 3469 2108 3469 
Q 1862 3469 1638 3353 
Q 1414 3238 1254 3033 
Q 1094 2829 1033 2598 
Q 973 2368 973 1677 
L 973 384 
L 442 384 
L 442 5184 
L 973 5184 
L 973 3347 
Q 1491 3962 2202 3962 
Q 2579 3962 2886 3766 
Q 3194 3571 3347 3228 
Q 3501 2886 3501 2176 
L 3501 384 
z
" transform="scale(0.015625)"/>
      <path id="STHeitiSC-Medium-43" d="M 3917 384 
L 3398 384 
L 3398 896 
Q 2829 269 2086 269 
Q 1344 269 816 816 
Q 288 1363 288 2121 
Q 288 2880 819 3421 
Q 1350 3962 2115 3962 
Q 2880 3962 3398 3341 
L 3398 3872 
L 3917 3872 
L 3917 384 
z
M 2125 762 
Q 2656 762 3040 1146 
Q 3424 1530 3424 2102 
Q 3424 2675 3046 3062 
Q 2669 3450 2121 3450 
Q 1574 3450 1196 3050 
Q 819 2650 819 2106 
Q 819 1562 1203 1162 
Q 1587 762 2125 762 
z
" transform="scale(0.015625)"/>
      <path id="STHeitiSC-Medium-54" d="M 1914 3821 
L 1638 3373 
Q 1530 3430 1427 3430 
Q 1229 3430 1069 3235 
Q 909 3040 829 2723 
Q 749 2406 749 1581 
L 749 384 
L 211 384 
L 211 3872 
L 749 3872 
L 749 3494 
Q 909 3731 1072 3846 
Q 1235 3962 1443 3962 
Q 1651 3962 1914 3821 
z
" transform="scale(0.015625)"/>
      <path id="STHeitiSC-Medium-46" d="M 3923 384 
L 3405 384 
L 3405 896 
Q 2835 269 2089 269 
Q 1344 269 819 813 
Q 294 1357 294 2118 
Q 294 2880 825 3421 
Q 1357 3962 2121 3962 
Q 2886 3962 3405 3341 
L 3405 5184 
L 3923 5184 
L 3923 384 
z
M 2131 762 
Q 2637 762 3033 1139 
Q 3430 1517 3430 2096 
Q 3430 2675 3062 3062 
Q 2694 3450 2134 3450 
Q 1574 3450 1200 3050 
Q 826 2650 826 2109 
Q 826 1568 1210 1165 
Q 1594 762 2131 762 
z
" transform="scale(0.015625)"/>
      <path id="STHeitiSC-Medium-a" d="M 2048 5779 
Q 1709 5082 1526 4237 
Q 1344 3392 1344 2541 
Q 1344 877 1888 -442 
L 1312 -442 
Q 787 819 787 2483 
Q 787 4275 1440 5779 
L 2048 5779 
z
" transform="scale(0.015625)"/>
      <path id="STHeitiSC-Medium-13" d="M 2131 384 
L 1587 384 
L 1587 4531 
L 826 4531 
L 1158 5069 
L 2131 5069 
L 2131 384 
z
" transform="scale(0.015625)"/>
      <path id="STHeitiSC-Medium-b" d="M 922 5779 
Q 1574 4275 1574 2483 
Q 1574 819 1050 -442 
L 474 -442 
Q 1018 877 1018 2541 
Q 1018 3392 835 4237 
Q 653 5082 314 5779 
L 922 5779 
z
" transform="scale(0.015625)"/>
     </defs>
     <use xlink:href="#STHeitiSC-Medium-35"/>
     <use xlink:href="#STHeitiSC-Medium-4a" transform="translate(49.796875 0)"/>
     <use xlink:href="#STHeitiSC-Medium-43" transform="translate(110.796875 0)"/>
     <use xlink:href="#STHeitiSC-Medium-54" transform="translate(179.09375 0)"/>
     <use xlink:href="#STHeitiSC-Medium-46" transform="translate(209.1875 0)"/>
     <use xlink:href="#STHeitiSC-Medium-a" transform="translate(277.6875 0)"/>
     <use xlink:href="#STHeitiSC-Medium-13" transform="translate(314.59375 0)"/>
     <use xlink:href="#STHeitiSC-Medium-b" transform="translate(370 0)"/>
    </g>
   </g>
   <g id="text_2">
    <!-- GPU 0 -->
    <g transform="translate(266.059325 224.159375) scale(0.08 -0.08)">
     <defs>
      <path id="STHeitiSC-Medium-29" d="M 5325 2675 
Q 5306 1536 4662 902 
Q 4019 269 2970 269 
Q 1766 269 1049 1008 
Q 333 1747 333 2739 
Q 333 3731 1049 4457 
Q 1766 5184 2899 5184 
Q 3514 5184 4042 4957 
Q 4570 4730 5075 4262 
L 4653 3859 
Q 4262 4237 3808 4438 
Q 3354 4640 2874 4640 
Q 2394 4640 1920 4384 
Q 1446 4128 1177 3693 
Q 909 3258 909 2752 
Q 909 1965 1501 1379 
Q 2093 794 2982 794 
Q 3642 794 4122 1155 
Q 4602 1517 4710 2144 
L 3251 2144 
L 3251 2675 
L 5325 2675 
z
" transform="scale(0.015625)"/>
      <path id="STHeitiSC-Medium-32" d="M 512 5069 
L 1472 5069 
Q 2291 5069 2547 5005 
Q 2803 4941 3017 4774 
Q 3232 4608 3353 4358 
Q 3475 4109 3475 3795 
Q 3475 3482 3356 3232 
Q 3238 2982 3017 2819 
Q 2797 2656 2477 2589 
Q 2157 2522 1344 2522 
L 1062 2522 
L 1062 384 
L 512 384 
L 512 5069 
z
M 1062 3053 
L 1792 3053 
Q 2438 3040 2672 3257 
Q 2906 3475 2906 3802 
Q 2906 4531 1830 4531 
L 1062 4531 
L 1062 3053 
z
" transform="scale(0.015625)"/>
      <path id="STHeitiSC-Medium-37" d="M 3661 2253 
Q 3661 1542 3517 1161 
Q 3373 781 3005 525 
Q 2637 269 2144 269 
Q 1754 269 1440 393 
Q 1126 518 918 745 
Q 710 973 620 1251 
Q 531 1530 531 2253 
L 531 5069 
L 1082 5069 
L 1082 2253 
Q 1082 1798 1107 1596 
Q 1133 1395 1254 1206 
Q 1376 1018 1603 906 
Q 1830 794 2118 794 
Q 2464 794 2717 995 
Q 2970 1197 3043 1462 
Q 3117 1728 3117 2253 
L 3117 5069 
L 3661 5069 
L 3661 2253 
z
" transform="scale(0.015625)"/>
      <path id="STHeitiSC-Medium-3" transform="scale(0.015625)"/>
      <path id="STHeitiSC-Medium-12" d="M 1747 5184 
Q 2502 5184 2944 4547 
Q 3386 3910 3386 2723 
Q 3386 1536 2938 902 
Q 2490 269 1738 269 
Q 986 269 573 893 
Q 160 1517 160 2729 
Q 160 3942 573 4563 
Q 986 5184 1747 5184 
z
M 1760 774 
Q 2285 774 2576 1283 
Q 2867 1792 2867 2726 
Q 2867 3661 2566 4160 
Q 2266 4659 1757 4659 
Q 1248 4659 966 4160 
Q 685 3661 685 2714 
Q 685 774 1760 774 
z
" transform="scale(0.015625)"/>
     </defs>
     <use xlink:href="#STHeitiSC-Medium-29"/>
     <use xlink:href="#STHeitiSC-Medium-32" transform="translate(87.203125 0)"/>
     <use xlink:href="#STHeitiSC-Medium-37" transform="translate(146.40625 0)"/>
     <use xlink:href="#STHeitiSC-Medium-3" transform="translate(211.90625 0)"/>
     <use xlink:href="#STHeitiSC-Medium-12" transform="translate(236.90625 0)"/>
    </g>
    <!-- output -->
    <g transform="translate(264.82745 232.399375) scale(0.08 -0.08)">
     <defs>
      <path id="STHeitiSC-Medium-51" d="M 2099 3962 
Q 2854 3962 3382 3418 
Q 3910 2874 3910 2112 
Q 3910 1350 3388 809 
Q 2867 269 2099 269 
Q 1331 269 806 809 
Q 282 1350 282 2112 
Q 282 2874 810 3418 
Q 1338 3962 2099 3962 
z
M 2099 774 
Q 2630 774 3004 1161 
Q 3379 1549 3379 2096 
Q 3379 2643 2998 3043 
Q 2618 3443 2096 3443 
Q 1574 3443 1196 3043 
Q 819 2643 819 2092 
Q 819 1542 1184 1158 
Q 1549 774 2099 774 
z
" transform="scale(0.015625)"/>
      <path id="STHeitiSC-Medium-57" d="M 3450 384 
L 2918 384 
L 2918 909 
Q 2400 294 1690 294 
Q 1312 294 1005 489 
Q 698 685 544 1027 
Q 390 1370 390 2080 
L 390 3872 
L 915 3872 
L 915 2208 
Q 915 1632 969 1424 
Q 1024 1216 1129 1072 
Q 1235 928 1398 857 
Q 1562 787 1795 787 
Q 2029 787 2253 902 
Q 2477 1018 2637 1222 
Q 2797 1427 2857 1657 
Q 2918 1888 2918 2579 
L 2918 3872 
L 3450 3872 
L 3450 384 
z
" transform="scale(0.015625)"/>
     </defs>
     <use xlink:href="#STHeitiSC-Medium-51"/>
     <use xlink:href="#STHeitiSC-Medium-57" transform="translate(65.5 0)"/>
     <use xlink:href="#STHeitiSC-Medium-56" transform="translate(126.296875 0)"/>
     <use xlink:href="#STHeitiSC-Medium-52" transform="translate(160.203125 0)"/>
     <use xlink:href="#STHeitiSC-Medium-57" transform="translate(228.40625 0)"/>
     <use xlink:href="#STHeitiSC-Medium-56" transform="translate(289.203125 0)"/>
    </g>
    <!-- 词表列 [0:V/2) -->
    <g transform="translate(251.77495 240.983125) scale(0.08 -0.08)">
     <defs>
      <path id="STHeitiSC-Medium-80d" d="M 3194 653 
L 3194 51 
L 2618 51 
Q 2662 256 2678 483 
Q 2694 710 2694 954 
L 2694 1869 
Q 2694 2054 2681 2252 
Q 2669 2451 2650 2560 
Q 2726 2547 2816 2537 
Q 2906 2528 3024 2525 
Q 3142 2522 3302 2518 
Q 3462 2515 3680 2515 
Q 3891 2515 4038 2515 
Q 4186 2515 4291 2521 
Q 4397 2528 4470 2537 
Q 4544 2547 4614 2560 
Q 4589 2458 4573 2269 
Q 4557 2080 4557 1875 
L 4557 1062 
Q 4557 998 4560 905 
Q 4563 813 4572 713 
Q 4582 614 4592 515 
Q 4602 416 4614 333 
L 4058 333 
L 4058 653 
L 3194 653 
z
M 4058 1062 
L 4058 2054 
L 3194 2054 
L 3194 1062 
L 4058 1062 
z
M 1728 -32 
Q 1658 -102 1600 -163 
Q 1542 -224 1494 -285 
Q 1446 -346 1398 -413 
Q 1350 -480 1293 -563 
Q 1203 -397 1110 -269 
Q 1018 -141 902 -32 
Q 1075 134 1148 355 
Q 1222 576 1222 826 
L 1222 2778 
Q 915 2778 742 2768 
Q 570 2758 448 2739 
L 448 3334 
Q 582 3302 736 3292 
Q 890 3283 1107 3283 
Q 1325 3283 1497 3292 
Q 1670 3302 1811 3334 
Q 1779 3174 1763 2969 
Q 1747 2765 1747 2534 
L 1747 627 
Q 1914 794 2045 931 
Q 2176 1069 2298 1216 
Q 2330 1030 2374 921 
Q 2419 813 2502 736 
L 1728 -32 
z
M 5946 4762 
Q 5933 4685 5929 4614 
Q 5926 4544 5920 4461 
Q 5914 4378 5914 4269 
Q 5914 4160 5914 4006 
L 5914 64 
Q 5914 -128 5885 -253 
Q 5856 -378 5747 -454 
Q 5638 -531 5427 -582 
Q 5216 -634 4845 -678 
Q 4845 -506 4774 -304 
Q 4704 -102 4557 70 
Q 4819 38 4976 25 
Q 5133 13 5216 29 
Q 5299 45 5324 93 
Q 5350 141 5350 237 
L 5350 4250 
L 4000 4250 
Q 3776 4250 3593 4243 
Q 3411 4237 3244 4227 
Q 3078 4218 2921 4202 
Q 2765 4186 2598 4160 
L 2598 4742 
Q 2752 4730 2889 4720 
Q 3027 4710 3196 4707 
Q 3366 4704 3577 4704 
Q 3789 4704 4090 4704 
Q 4467 4704 4736 4707 
Q 5005 4710 5209 4713 
Q 5414 4717 5587 4729 
Q 5760 4742 5946 4762 
z
M 4915 3046 
Q 4781 3059 4665 3068 
Q 4550 3078 4422 3081 
Q 4294 3085 4124 3088 
Q 3955 3091 3712 3091 
Q 3475 3091 3302 3088 
Q 3130 3085 2986 3081 
Q 2842 3078 2701 3068 
Q 2560 3059 2387 3046 
L 2387 3616 
Q 2566 3603 2710 3590 
Q 2854 3578 3004 3571 
Q 3155 3565 3321 3561 
Q 3488 3558 3712 3558 
Q 3949 3558 4115 3561 
Q 4282 3565 4413 3568 
Q 4544 3571 4659 3584 
Q 4774 3597 4915 3616 
L 4915 3046 
z
M 1517 3866 
Q 1370 4154 1229 4390 
Q 1088 4627 947 4819 
L 1472 5126 
Q 1619 4922 1766 4691 
Q 1914 4461 2080 4192 
L 1517 3866 
z
" transform="scale(0.015625)"/>
      <path id="STHeitiSC-Medium-22a" d="M 4077 992 
Q 4403 1190 4684 1411 
Q 4966 1632 5114 1824 
Q 5158 1792 5232 1741 
Q 5306 1690 5379 1632 
Q 5453 1574 5513 1526 
Q 5574 1478 5600 1459 
Q 5664 1402 5648 1379 
Q 5632 1357 5542 1344 
Q 5504 1338 5433 1315 
Q 5363 1293 5228 1225 
Q 5094 1158 4876 1043 
Q 4659 928 4320 736 
Q 4480 602 4691 483 
Q 4902 365 5142 269 
Q 5382 173 5638 105 
Q 5894 38 6138 13 
Q 5965 -122 5837 -301 
Q 5709 -480 5683 -595 
Q 5133 -442 4681 -157 
Q 4230 128 3866 525 
Q 3776 614 3680 752 
Q 3584 890 3485 1046 
Q 3386 1203 3290 1376 
Q 3194 1549 3104 1715 
L 3552 1946 
Q 3642 1741 3766 1504 
Q 3891 1267 4077 992 
z
M 2912 3987 
Q 2496 3987 2166 3984 
Q 1837 3981 1561 3974 
Q 1286 3968 1049 3958 
Q 813 3949 589 3936 
L 589 4461 
Q 819 4448 1059 4438 
Q 1299 4429 1571 4425 
Q 1843 4422 2169 4419 
Q 2496 4416 2912 4416 
Q 2906 4672 2893 4861 
Q 2880 5050 2867 5152 
Q 2938 5139 3037 5129 
Q 3136 5120 3229 5110 
Q 3322 5101 3395 5097 
Q 3469 5094 3501 5094 
Q 3603 5101 3612 5078 
Q 3622 5056 3539 4986 
Q 3494 4947 3462 4835 
Q 3430 4723 3430 4653 
L 3430 4416 
Q 3859 4416 4201 4419 
Q 4544 4422 4822 4425 
Q 5101 4429 5328 4438 
Q 5555 4448 5766 4461 
L 5766 3936 
Q 5344 3962 4765 3971 
Q 4186 3981 3430 3987 
L 3430 3456 
Q 3789 3456 4057 3459 
Q 4326 3462 4547 3468 
Q 4768 3475 4960 3488 
Q 5152 3501 5363 3514 
L 5363 3014 
Q 5152 3027 4960 3036 
Q 4768 3046 4547 3049 
Q 4326 3053 4057 3056 
Q 3789 3059 3430 3059 
L 3430 2554 
Q 3968 2554 4320 2557 
Q 4672 2560 4934 2566 
Q 5197 2573 5433 2582 
Q 5670 2592 5978 2611 
L 5978 2106 
Q 5638 2118 5392 2128 
Q 5146 2138 4867 2141 
Q 4589 2144 4211 2147 
Q 3834 2150 3226 2150 
Q 3066 1926 2838 1683 
Q 2611 1440 2323 1203 
L 2323 -64 
Q 2445 -51 2601 -3 
Q 2758 45 2918 105 
Q 3078 166 3225 240 
Q 3373 314 3482 378 
Q 3482 237 3494 96 
Q 3507 -45 3526 -154 
Q 2918 -346 2528 -493 
Q 2138 -640 1869 -806 
Q 1818 -678 1754 -560 
Q 1690 -442 1581 -314 
Q 1728 -262 1779 -172 
Q 1830 -83 1830 115 
L 1830 832 
Q 1498 608 1174 435 
Q 851 262 627 173 
Q 544 378 464 499 
Q 384 621 262 723 
Q 557 768 873 893 
Q 1190 1018 1497 1203 
Q 1805 1389 2086 1629 
Q 2368 1869 2598 2150 
Q 2118 2150 1811 2147 
Q 1504 2144 1277 2141 
Q 1050 2138 848 2128 
Q 646 2118 371 2106 
L 371 2611 
Q 570 2598 730 2588 
Q 890 2579 1040 2572 
Q 1190 2566 1356 2563 
Q 1523 2560 1737 2557 
Q 1952 2554 2237 2554 
Q 2522 2554 2912 2554 
L 2912 3059 
Q 2566 3059 2297 3056 
Q 2029 3053 1805 3049 
Q 1581 3046 1382 3036 
Q 1184 3027 979 3014 
L 979 3514 
Q 1190 3501 1385 3488 
Q 1581 3475 1805 3468 
Q 2029 3462 2297 3459 
Q 2566 3456 2912 3456 
L 2912 3987 
z
" transform="scale(0.015625)"/>
      <path id="STHeitiSC-Medium-509" d="M 5837 4954 
Q 5792 4922 5779 4886 
Q 5766 4851 5766 4762 
L 5766 250 
Q 5766 6 5734 -147 
Q 5702 -301 5590 -397 
Q 5478 -493 5264 -553 
Q 5050 -614 4678 -678 
Q 4627 -346 4352 6 
Q 4653 -6 4829 0 
Q 5005 6 5097 51 
Q 5190 96 5216 179 
Q 5242 262 5242 397 
L 5242 4070 
Q 5242 4448 5232 4713 
Q 5222 4979 5210 5133 
Q 5338 5107 5501 5094 
Q 5664 5082 5779 5088 
Q 5875 5094 5888 5052 
Q 5901 5011 5837 4954 
z
M 4614 4154 
Q 4544 4109 4544 3949 
L 4544 1747 
Q 4544 1555 4550 1356 
Q 4557 1158 4576 934 
L 4013 934 
Q 4026 1171 4032 1363 
Q 4038 1555 4038 1747 
L 4038 3590 
Q 4038 3834 4032 4003 
Q 4026 4173 4013 4301 
Q 4160 4275 4310 4272 
Q 4461 4269 4582 4282 
Q 4666 4294 4675 4249 
Q 4685 4205 4614 4154 
z
M 3507 3379 
Q 3424 2656 3264 2067 
Q 3104 1478 2886 1062 
Q 2778 864 2602 643 
Q 2426 422 2198 208 
Q 1971 -6 1705 -208 
Q 1440 -410 1165 -576 
Q 1133 -531 1075 -467 
Q 1018 -403 950 -339 
Q 883 -275 812 -220 
Q 742 -166 691 -134 
Q 890 -58 1114 70 
Q 1338 198 1555 358 
Q 1773 518 1965 700 
Q 2157 883 2291 1069 
Q 2221 1146 2125 1248 
Q 2029 1350 1923 1449 
Q 1818 1549 1709 1641 
Q 1600 1734 1517 1798 
L 1888 2163 
Q 2061 2022 2224 1878 
Q 2387 1734 2560 1568 
Q 2637 1728 2691 1872 
Q 2746 2016 2790 2169 
Q 2835 2323 2867 2502 
Q 2899 2682 2931 2912 
L 1894 2912 
Q 1811 2714 1702 2506 
Q 1594 2298 1472 2096 
Q 1350 1894 1219 1708 
Q 1088 1523 966 1382 
Q 877 1491 752 1574 
Q 627 1658 493 1696 
Q 736 1907 941 2188 
Q 1146 2470 1306 2796 
Q 1466 3123 1571 3481 
Q 1677 3840 1728 4205 
Q 1363 4198 1097 4185 
Q 832 4173 608 4147 
L 608 4730 
Q 896 4698 1261 4682 
Q 1626 4666 2163 4666 
Q 2707 4666 3068 4682 
Q 3430 4698 3718 4730 
L 3718 4147 
Q 3443 4179 3097 4195 
Q 2752 4211 2246 4211 
Q 2202 3821 2054 3379 
L 3507 3379 
z
" transform="scale(0.015625)"/>
      <path id="STHeitiSC-Medium-1c" d="M 966 4282 
Q 1146 4282 1270 4157 
Q 1395 4032 1395 3849 
Q 1395 3667 1273 3542 
Q 1152 3418 969 3418 
Q 787 3418 662 3542 
Q 538 3667 538 3846 
Q 538 4026 666 4154 
Q 794 4282 966 4282 
z
M 966 1478 
Q 1146 1478 1270 1353 
Q 1395 1229 1395 1046 
Q 1395 864 1270 739 
Q 1146 614 970 614 
Q 794 614 666 742 
Q 538 870 538 1049 
Q 538 1229 666 1353 
Q 794 1478 966 1478 
z
" transform="scale(0.015625)"/>
      <path id="STHeitiSC-Medium-38" d="M 4346 5069 
L 2304 269 
L 2157 269 
L 147 5069 
L 736 5069 
L 2234 1466 
L 3757 5069 
L 4346 5069 
z
" transform="scale(0.015625)"/>
      <path id="STHeitiSC-Medium-14" d="M 3360 384 
L 90 384 
L 1914 2355 
Q 2374 2842 2566 3123 
Q 2758 3405 2758 3763 
Q 2758 4122 2480 4390 
Q 2202 4659 1789 4659 
Q 1376 4659 1101 4368 
Q 826 4077 787 3539 
L 256 3539 
Q 288 4294 736 4739 
Q 1184 5184 1821 5184 
Q 2458 5184 2877 4771 
Q 3296 4358 3296 3763 
Q 3296 3328 3065 2950 
Q 2835 2573 2368 2074 
L 1293 915 
L 3360 915 
L 3360 384 
z
" transform="scale(0.015625)"/>
     </defs>
     <use xlink:href="#STHeitiSC-Medium-80d"/>
     <use xlink:href="#STHeitiSC-Medium-22a" transform="translate(100 0)"/>
     <use xlink:href="#STHeitiSC-Medium-509" transform="translate(200 0)"/>
     <use xlink:href="#STHeitiSC-Medium-3" transform="translate(300 0)"/>
     <use xlink:href="#STHeitiSC-Medium-3d" transform="translate(325 0)"/>
     <use xlink:href="#STHeitiSC-Medium-12" transform="translate(360.09375 0)"/>
     <use xlink:href="#STHeitiSC-Medium-1c" transform="translate(415.5 0)"/>
     <use xlink:href="#STHeitiSC-Medium-38" transform="translate(443.203125 0)"/>
     <use xlink:href="#STHeitiSC-Medium-11" transform="translate(513.40625 0)"/>
     <use xlink:href="#STHeitiSC-Medium-14" transform="translate(557.109375 0)"/>
     <use xlink:href="#STHeitiSC-Medium-b" transform="translate(612.515625 0)"/>
    </g>
   </g>
   <g id="text_3">
    <!-- GPU 1 -->
    <g transform="translate(439.489982 224.159375) scale(0.08 -0.08)">
     <use xlink:href="#STHeitiSC-Medium-29"/>
     <use xlink:href="#STHeitiSC-Medium-32" transform="translate(87.203125 0)"/>
     <use xlink:href="#STHeitiSC-Medium-37" transform="translate(146.40625 0)"/>
     <use xlink:href="#STHeitiSC-Medium-3" transform="translate(211.90625 0)"/>
     <use xlink:href="#STHeitiSC-Medium-13" transform="translate(236.90625 0)"/>
    </g>
    <!-- output -->
    <g transform="translate(438.258107 232.399375) scale(0.08 -0.08)">
     <use xlink:href="#STHeitiSC-Medium-51"/>
     <use xlink:href="#STHeitiSC-Medium-57" transform="translate(65.5 0)"/>
     <use xlink:href="#STHeitiSC-Medium-56" transform="translate(126.296875 0)"/>
     <use xlink:href="#STHeitiSC-Medium-52" transform="translate(160.203125 0)"/>
     <use xlink:href="#STHeitiSC-Medium-57" transform="translate(228.40625 0)"/>
     <use xlink:href="#STHeitiSC-Medium-56" transform="translate(289.203125 0)"/>
    </g>
    <!-- 词表列 [V/2:V) -->
    <g transform="translate(424.613732 240.983125) scale(0.08 -0.08)">
     <use xlink:href="#STHeitiSC-Medium-80d"/>
     <use xlink:href="#STHeitiSC-Medium-22a" transform="translate(100 0)"/>
     <use xlink:href="#STHeitiSC-Medium-509" transform="translate(200 0)"/>
     <use xlink:href="#STHeitiSC-Medium-3" transform="translate(300 0)"/>
     <use xlink:href="#STHeitiSC-Medium-3d" transform="translate(325 0)"/>
     <use xlink:href="#STHeitiSC-Medium-38" transform="translate(360.09375 0)"/>
     <use xlink:href="#STHeitiSC-Medium-11" transform="translate(430.296875 0)"/>
     <use xlink:href="#STHeitiSC-Medium-14" transform="translate(474 0)"/>
     <use xlink:href="#STHeitiSC-Medium-1c" transform="translate(529.40625 0)"/>
     <use xlink:href="#STHeitiSC-Medium-38" transform="translate(557.109375 0)"/>
     <use xlink:href="#STHeitiSC-Medium-b" transform="translate(627.3125 0)"/>
    </g>
   </g>
   <g id="text_4">
    <!-- GPU 0 -->
    <g transform="translate(633.732318 224.33125) scale(0.08 -0.08)">
     <use xlink:href="#STHeitiSC-Medium-29"/>
     <use xlink:href="#STHeitiSC-Medium-32" transform="translate(87.203125 0)"/>
     <use xlink:href="#STHeitiSC-Medium-37" transform="translate(146.40625 0)"/>
     <use xlink:href="#STHeitiSC-Medium-3" transform="translate(211.90625 0)"/>
     <use xlink:href="#STHeitiSC-Medium-12" transform="translate(236.90625 0)"/>
    </g>
    <!-- 本地 token × 本地词表列 -->
    <g transform="translate(600.484193 232.57125) scale(0.08 -0.08)">
     <defs>
      <path id="STHeitiSC-Medium-1d5" d="M 3507 877 
Q 3885 883 4163 892 
Q 4442 902 4640 928 
L 4640 371 
Q 4442 390 4150 403 
Q 3859 416 3507 422 
Q 3507 307 3513 166 
Q 3520 26 3526 -124 
Q 3533 -275 3542 -422 
Q 3552 -570 3565 -698 
L 2912 -698 
Q 2925 -570 2934 -422 
Q 2944 -275 2947 -124 
Q 2950 26 2953 166 
Q 2957 307 2957 422 
Q 2592 416 2288 403 
Q 1984 390 1779 371 
L 1779 928 
Q 1990 902 2291 892 
Q 2592 883 2957 877 
L 2957 3424 
L 2925 3424 
Q 2803 2970 2588 2512 
Q 2374 2054 2089 1628 
Q 1805 1203 1465 819 
Q 1126 435 755 128 
Q 653 262 496 384 
Q 339 506 218 557 
Q 1011 1056 1587 1750 
Q 2163 2445 2509 3424 
Q 1869 3418 1376 3408 
Q 883 3398 499 3366 
L 499 3962 
Q 960 3930 1552 3914 
Q 2144 3898 2957 3898 
L 2957 4224 
Q 2957 4666 2947 4886 
Q 2938 5107 2906 5229 
Q 2976 5216 3069 5206 
Q 3162 5197 3258 5190 
Q 3354 5184 3440 5184 
Q 3526 5184 3597 5190 
Q 3706 5203 3718 5155 
Q 3731 5107 3635 5050 
Q 3597 5030 3571 5001 
Q 3546 4973 3533 4918 
Q 3520 4864 3513 4777 
Q 3507 4691 3507 4550 
L 3507 3898 
Q 4275 3904 4848 3917 
Q 5421 3930 5856 3962 
L 5856 3366 
Q 5485 3392 5014 3405 
Q 4544 3418 3936 3424 
Q 4218 2464 4755 1824 
Q 5293 1184 6176 877 
Q 5997 755 5872 601 
Q 5747 448 5658 262 
Q 5267 512 4937 809 
Q 4608 1107 4345 1484 
Q 4083 1862 3881 2339 
Q 3680 2816 3552 3424 
L 3507 3424 
L 3507 877 
z
" transform="scale(0.015625)"/>
      <path id="STHeitiSC-Medium-15e" d="M 4282 3546 
Q 4486 3616 4684 3693 
Q 4883 3770 5062 3840 
Q 5242 3910 5386 3977 
Q 5530 4045 5626 4096 
L 5542 1875 
Q 5536 1702 5510 1590 
Q 5485 1478 5401 1392 
Q 5318 1306 5158 1235 
Q 4998 1165 4730 1088 
Q 4704 1254 4643 1411 
Q 4582 1568 4461 1715 
Q 4653 1696 4771 1702 
Q 4890 1709 4954 1741 
Q 5018 1773 5040 1833 
Q 5062 1894 5062 1984 
L 5101 3334 
L 4282 3053 
L 4282 1555 
Q 4282 1389 4291 1149 
Q 4301 909 4320 666 
L 3750 666 
Q 3776 902 3789 1145 
Q 3802 1389 3802 1555 
L 3802 2886 
L 3110 2643 
L 3110 544 
Q 3110 397 3123 310 
Q 3136 224 3184 173 
Q 3232 122 3315 99 
Q 3398 77 3546 70 
Q 3635 64 3801 67 
Q 3968 70 4160 73 
Q 4352 77 4544 86 
Q 4736 96 4877 109 
Q 5037 122 5136 157 
Q 5235 192 5296 285 
Q 5357 378 5395 538 
Q 5434 698 5472 966 
Q 5587 787 5737 700 
Q 5888 614 6067 589 
Q 5958 269 5884 89 
Q 5811 -90 5718 -182 
Q 5626 -275 5494 -310 
Q 5363 -346 5146 -365 
Q 4998 -378 4768 -390 
Q 4538 -403 4275 -409 
Q 4013 -416 3747 -416 
Q 3482 -416 3258 -410 
Q 3059 -403 2937 -368 
Q 2816 -333 2749 -253 
Q 2682 -173 2659 -38 
Q 2637 96 2637 301 
L 2637 2470 
Q 2451 2394 2329 2336 
Q 2208 2278 2138 2234 
L 1984 2797 
Q 2080 2816 2253 2864 
Q 2426 2912 2637 2982 
Q 2637 3206 2630 3446 
Q 2624 3686 2617 3897 
Q 2611 4109 2598 4265 
Q 2586 4422 2579 4486 
Q 2726 4461 2867 4454 
Q 3008 4448 3200 4461 
Q 3302 4474 3312 4416 
Q 3322 4358 3232 4326 
Q 3181 4301 3145 4227 
Q 3110 4154 3110 4096 
L 3110 3142 
L 3802 3379 
L 3802 4435 
Q 3802 4672 3782 4886 
Q 3763 5101 3731 5184 
Q 3917 5158 4057 5148 
Q 4198 5139 4371 5139 
Q 4499 5139 4505 5110 
Q 4512 5082 4416 5037 
Q 4346 5005 4314 4905 
Q 4282 4806 4282 4678 
L 4282 3546 
z
M 1472 902 
Q 1658 973 1837 1053 
Q 2016 1133 2221 1242 
Q 2170 1030 2182 899 
Q 2195 768 2272 646 
Q 2112 614 1885 531 
Q 1658 448 1418 339 
Q 1178 230 947 105 
Q 717 -19 550 -128 
Q 512 38 454 233 
Q 397 429 333 582 
Q 672 653 986 742 
L 986 2893 
Q 781 2893 617 2880 
Q 454 2867 326 2848 
L 326 3411 
Q 467 3386 624 3376 
Q 781 3366 986 3360 
Q 986 4122 970 4512 
Q 954 4902 922 5037 
Q 1184 4992 1530 4992 
Q 1606 4992 1616 4960 
Q 1626 4928 1555 4890 
Q 1510 4864 1491 4822 
Q 1472 4781 1472 4730 
L 1472 3360 
Q 1664 3366 1814 3376 
Q 1965 3386 2093 3411 
L 2093 2848 
Q 1965 2867 1814 2876 
Q 1664 2886 1472 2893 
L 1472 902 
z
" transform="scale(0.015625)"/>
      <path id="STHeitiSC-Medium-4d" d="M 3181 384 
L 2419 384 
L 781 1856 
L 781 384 
L 250 384 
L 250 5184 
L 781 5184 
L 781 2554 
L 2285 3866 
L 3072 3872 
L 1152 2208 
L 3181 384 
z
" transform="scale(0.015625)"/>
      <path id="STHeitiSC-Medium-47" d="M 3878 2035 
L 819 2035 
Q 851 1459 1206 1110 
Q 1562 762 2054 762 
Q 2893 762 3334 1587 
L 3782 1357 
Q 3482 800 3072 534 
Q 2662 269 2093 269 
Q 1306 269 794 809 
Q 282 1350 282 2112 
Q 282 2874 797 3418 
Q 1312 3962 2073 3962 
Q 2835 3962 3347 3446 
Q 3859 2931 3878 2035 
z
M 3290 2502 
Q 3194 2950 2854 3200 
Q 2515 3450 2074 3450 
Q 1178 3450 883 2502 
L 3290 2502 
z
" transform="scale(0.015625)"/>
      <path id="STHeitiSC-Medium-50" d="M 3501 384 
L 2976 384 
L 2976 2048 
Q 2976 2624 2921 2832 
Q 2867 3040 2761 3184 
Q 2656 3328 2493 3398 
Q 2330 3469 2096 3469 
Q 1862 3469 1638 3353 
Q 1414 3238 1254 3033 
Q 1094 2829 1033 2598 
Q 973 2368 973 1677 
L 973 384 
L 442 384 
L 442 3872 
L 973 3872 
L 973 3347 
Q 1491 3962 2202 3962 
Q 2579 3962 2886 3766 
Q 3194 3571 3347 3228 
Q 3501 2886 3501 2176 
L 3501 384 
z
" transform="scale(0.015625)"/>
      <path id="STHeitiSC-Medium-b4" d="M 4288 4550 
L 2624 2886 
L 4282 1229 
L 3962 909 
L 2304 2566 
L 646 909 
L 320 1229 
L 1984 2886 
L 320 4550 
L 640 4870 
L 2304 3206 
L 3968 4870 
L 4288 4550 
z
" transform="scale(0.015625)"/>
     </defs>
     <use xlink:href="#STHeitiSC-Medium-1d5"/>
     <use xlink:href="#STHeitiSC-Medium-15e" transform="translate(100 0)"/>
     <use xlink:href="#STHeitiSC-Medium-3" transform="translate(200 0)"/>
     <use xlink:href="#STHeitiSC-Medium-56" transform="translate(225 0)"/>
     <use xlink:href="#STHeitiSC-Medium-51" transform="translate(258.90625 0)"/>
     <use xlink:href="#STHeitiSC-Medium-4d" transform="translate(324.40625 0)"/>
     <use xlink:href="#STHeitiSC-Medium-47" transform="translate(374.609375 0)"/>
     <use xlink:href="#STHeitiSC-Medium-50" transform="translate(439.609375 0)"/>
     <use xlink:href="#STHeitiSC-Medium-3" transform="translate(500.609375 0)"/>
     <use xlink:href="#STHeitiSC-Medium-b4" transform="translate(525.609375 0)"/>
     <use xlink:href="#STHeitiSC-Medium-3" transform="translate(598.515625 0)"/>
     <use xlink:href="#STHeitiSC-Medium-1d5" transform="translate(623.515625 0)"/>
     <use xlink:href="#STHeitiSC-Medium-15e" transform="translate(723.515625 0)"/>
     <use xlink:href="#STHeitiSC-Medium-80d" transform="translate(823.515625 0)"/>
     <use xlink:href="#STHeitiSC-Medium-22a" transform="translate(923.515625 0)"/>
     <use xlink:href="#STHeitiSC-Medium-509" transform="translate(1023.515625 0)"/>
    </g>
    <!-- 计算交叉熵 -->
    <g transform="translate(625.424818 240.81125) scale(0.08 -0.08)">
     <defs>
      <path id="STHeitiSC-Medium-374" d="M 1946 109 
Q 1869 32 1782 -67 
Q 1696 -166 1616 -265 
Q 1536 -365 1472 -454 
Q 1408 -544 1370 -602 
Q 1280 -474 1161 -330 
Q 1043 -186 922 -77 
Q 1043 64 1091 208 
Q 1139 352 1139 595 
L 1139 2675 
Q 832 2675 621 2662 
Q 410 2650 262 2630 
L 262 3251 
Q 429 3226 617 3216 
Q 806 3206 1018 3206 
Q 1210 3206 1411 3219 
Q 1613 3232 1766 3251 
Q 1728 3085 1705 2867 
Q 1683 2650 1683 2419 
L 1683 550 
Q 1773 640 1875 752 
Q 1978 864 2080 985 
Q 2182 1107 2272 1228 
Q 2362 1350 2432 1459 
Q 2470 1293 2544 1117 
Q 2618 941 2688 845 
L 1946 109 
z
M 1523 3750 
Q 1414 4006 1254 4284 
Q 1094 4563 890 4832 
L 1427 5133 
Q 1581 4858 1757 4582 
Q 1933 4307 2099 4083 
L 1523 3750 
z
M 4646 3245 
Q 5126 3251 5488 3264 
Q 5850 3277 6138 3302 
L 6138 2662 
Q 5850 2682 5488 2698 
Q 5126 2714 4646 2714 
L 4646 442 
Q 4646 198 4659 -74 
Q 4672 -346 4704 -710 
L 3994 -710 
Q 4026 -365 4038 -86 
Q 4051 192 4051 442 
L 4051 2720 
Q 3475 2714 3068 2701 
Q 2662 2688 2336 2662 
L 2336 3302 
Q 2662 3277 3068 3264 
Q 3475 3251 4051 3245 
L 4051 4224 
Q 4051 4557 4032 4825 
Q 4013 5094 3981 5203 
Q 4166 5171 4339 5155 
Q 4512 5139 4691 5152 
Q 4813 5158 4829 5120 
Q 4845 5082 4736 5018 
Q 4685 4986 4665 4896 
Q 4646 4806 4646 4544 
L 4646 3245 
z
" transform="scale(0.015625)"/>
      <path id="STHeitiSC-Medium-39a" d="M 1734 1542 
L 4685 1542 
L 4685 1888 
L 1734 1888 
L 1734 1542 
z
M 1734 2522 
L 1734 2221 
L 4685 2221 
L 4685 2522 
L 1734 2522 
z
M 4685 3168 
L 1734 3168 
L 1734 2874 
L 4685 2874 
L 4685 3168 
z
M 4563 762 
Q 4998 762 5382 774 
Q 5766 787 6003 819 
L 6003 320 
Q 5766 352 5388 365 
Q 5011 378 4563 378 
Q 4563 122 4576 -185 
Q 4589 -493 4621 -710 
L 4026 -710 
Q 4058 -493 4070 -192 
Q 4083 109 4083 378 
L 2458 378 
Q 2336 -19 1936 -323 
Q 1536 -627 934 -781 
Q 858 -627 771 -528 
Q 685 -429 531 -333 
Q 1126 -256 1475 -73 
Q 1824 109 1946 378 
Q 851 365 390 320 
L 390 819 
Q 858 762 2003 762 
L 2003 1190 
Q 1709 1184 1539 1181 
Q 1370 1178 1254 1171 
Q 1267 1280 1280 1389 
Q 1293 1498 1293 1645 
L 1293 3027 
Q 1293 3366 1254 3571 
Q 1376 3558 1529 3552 
Q 1683 3546 1904 3539 
Q 2125 3533 2435 3529 
Q 2746 3526 3181 3526 
Q 3616 3526 3945 3529 
Q 4275 3533 4515 3539 
Q 4755 3546 4912 3552 
Q 5069 3558 5158 3571 
Q 5139 3469 5132 3318 
Q 5126 3168 5126 2963 
L 5126 1709 
Q 5126 1421 5171 1178 
Q 5094 1184 4947 1187 
Q 4800 1190 4563 1190 
L 4563 762 
z
M 4083 762 
L 4083 1197 
L 2509 1197 
L 2509 762 
L 4083 762 
z
M 1402 4160 
Q 1312 4051 1245 3971 
Q 1178 3891 1117 3820 
Q 1056 3750 995 3689 
Q 934 3629 870 3558 
Q 794 3661 678 3728 
Q 563 3795 410 3808 
Q 544 3866 701 4010 
Q 858 4154 1011 4346 
Q 1165 4538 1305 4762 
Q 1446 4986 1542 5210 
Q 1664 5158 1821 5104 
Q 1978 5050 2112 5018 
Q 2246 4986 2125 4928 
Q 1990 4864 1690 4518 
L 2253 4518 
Q 2624 4518 2902 4544 
Q 3181 4570 3251 4602 
L 3251 4096 
Q 3155 4109 2937 4128 
Q 2720 4147 2317 4160 
Q 2406 3955 2515 3763 
L 2003 3654 
Q 1971 3782 1945 3897 
Q 1920 4013 1869 4160 
L 1402 4160 
z
M 3866 4179 
Q 3718 3981 3638 3862 
Q 3558 3744 3514 3661 
Q 3405 3744 3302 3792 
Q 3200 3840 3040 3885 
Q 3174 3974 3315 4137 
Q 3456 4301 3574 4493 
Q 3693 4685 3779 4883 
Q 3866 5082 3904 5235 
Q 4013 5184 4166 5133 
Q 4320 5082 4480 5050 
Q 4621 5018 4486 4954 
Q 4454 4934 4374 4844 
Q 4294 4755 4128 4538 
L 4640 4538 
Q 5018 4538 5322 4582 
Q 5626 4627 5798 4678 
L 5798 4128 
Q 5677 4141 5446 4153 
Q 5216 4166 4890 4179 
Q 4934 4070 4976 3984 
Q 5018 3898 5075 3795 
L 4538 3699 
Q 4518 3840 4492 3949 
Q 4467 4058 4435 4179 
L 3866 4179 
z
" transform="scale(0.015625)"/>
      <path id="STHeitiSC-Medium-3b9" d="M 2707 3245 
Q 2829 3194 2813 3152 
Q 2797 3110 2662 3091 
Q 2630 3085 2528 3005 
Q 2426 2925 2317 2816 
Q 2003 2502 1664 2227 
Q 1325 1952 1043 1760 
Q 947 1888 825 1984 
Q 704 2080 570 2144 
Q 832 2285 1072 2454 
Q 1312 2624 1517 2806 
Q 1722 2989 1882 3181 
Q 2042 3373 2144 3565 
Q 2291 3456 2435 3376 
Q 2579 3296 2707 3245 
z
M 5421 1850 
Q 5082 2234 4685 2573 
Q 4288 2912 3917 3174 
L 4307 3539 
Q 4710 3258 5104 2954 
Q 5498 2650 5875 2336 
L 5421 1850 
z
M 5920 3706 
Q 5555 3718 4912 3731 
Q 4269 3744 3283 3744 
Q 2259 3744 1568 3731 
Q 877 3718 608 3699 
L 608 4294 
Q 870 4275 1558 4262 
Q 2246 4250 3296 4250 
Q 5216 4250 5920 4288 
L 5920 3706 
z
M 3040 4320 
Q 2995 4480 2931 4643 
Q 2867 4806 2758 5037 
L 3437 5235 
Q 3488 5050 3555 4854 
Q 3622 4659 3706 4480 
L 3040 4320 
z
M 2778 749 
Q 2650 877 2541 1017 
Q 2432 1158 2329 1328 
Q 2227 1498 2124 1706 
Q 2022 1914 1914 2176 
L 2419 2362 
Q 2605 1926 2793 1619 
Q 2982 1312 3194 1088 
Q 3462 1350 3689 1708 
Q 3917 2067 4032 2426 
Q 4115 2374 4204 2326 
Q 4294 2278 4374 2236 
Q 4454 2195 4521 2166 
Q 4589 2138 4627 2131 
Q 4736 2099 4736 2073 
Q 4736 2048 4621 1978 
Q 4576 1952 4531 1907 
Q 4486 1862 4422 1754 
Q 4294 1549 4073 1277 
Q 3853 1005 3603 749 
Q 3821 595 4048 476 
Q 4275 358 4550 268 
Q 4826 179 5165 124 
Q 5504 70 5946 45 
Q 5805 -141 5715 -310 
Q 5626 -480 5555 -678 
Q 4794 -461 4218 -221 
Q 3642 19 3200 371 
Q 2982 186 2755 32 
Q 2528 -122 2256 -250 
Q 1984 -378 1645 -486 
Q 1306 -595 864 -698 
Q 781 -538 672 -384 
Q 563 -230 448 -109 
Q 1107 -58 1692 172 
Q 2278 403 2778 749 
z
" transform="scale(0.015625)"/>
      <path id="STHeitiSC-Medium-106b" d="M 3162 2464 
Q 3053 2733 2915 2973 
Q 2778 3213 2630 3405 
L 3149 3680 
Q 3296 3475 3430 3232 
Q 3565 2989 3686 2720 
L 3162 2464 
z
M 1312 4077 
Q 1184 4064 1043 4051 
Q 902 4038 755 4026 
L 755 4691 
Q 1056 4659 1619 4630 
Q 2182 4602 3053 4602 
Q 3910 4602 4448 4627 
Q 4986 4653 5274 4691 
Q 5069 3392 4640 2473 
Q 4211 1555 3590 934 
Q 4461 339 5997 64 
Q 5856 -83 5760 -259 
Q 5664 -435 5613 -608 
Q 5165 -493 4803 -355 
Q 4442 -218 4144 -70 
Q 3846 77 3603 233 
Q 3360 390 3149 544 
Q 2688 179 2083 -141 
Q 1478 -461 781 -685 
Q 730 -531 637 -393 
Q 544 -256 397 -128 
Q 1018 32 1626 307 
Q 2234 582 2714 928 
Q 2253 1370 1891 2150 
Q 1530 2931 1312 4077 
z
M 1914 4096 
Q 2093 3104 2406 2409 
Q 2720 1715 3155 1293 
Q 3648 1766 4009 2448 
Q 4371 3130 4518 4096 
L 1914 4096 
z
" transform="scale(0.015625)"/>
      <path id="STHeitiSC-Medium-54b2" d="M 4454 1280 
L 3827 1280 
L 3827 736 
L 4454 736 
L 4454 1280 
z
M 4870 365 
Q 4736 378 4576 381 
Q 4416 384 4147 384 
Q 3878 384 3712 384 
Q 3546 384 3411 371 
Q 3424 506 3424 672 
Q 3424 838 3424 1011 
Q 3424 1190 3424 1356 
Q 3424 1523 3411 1658 
Q 3546 1645 3712 1638 
Q 3878 1632 4147 1632 
Q 4416 1632 4576 1638 
Q 4736 1645 4870 1658 
Q 4864 1523 4861 1356 
Q 4858 1190 4858 1011 
Q 4858 838 4858 665 
Q 4858 493 4870 365 
z
M 4986 1658 
Q 4896 1773 4813 1862 
Q 4730 1952 4650 2029 
Q 4570 2106 4483 2179 
Q 4397 2253 4294 2330 
L 4595 2579 
Q 4742 2458 4924 2307 
Q 5107 2157 5293 1990 
L 4986 1658 
z
M 1011 3680 
Q 1024 3283 1008 2886 
Q 992 2490 947 2086 
L 422 2112 
Q 474 2272 506 2435 
Q 538 2598 557 2784 
Q 576 2970 576 3190 
Q 576 3411 557 3686 
L 1011 3680 
z
M 3693 2618 
Q 3802 2515 3875 2464 
Q 3949 2413 4070 2374 
Q 4122 2362 4125 2333 
Q 4128 2304 4083 2285 
Q 4032 2266 3981 2230 
Q 3930 2195 3843 2121 
Q 3757 2048 3629 1923 
Q 3501 1798 3302 1600 
L 3034 1856 
Q 3238 2042 3395 2218 
Q 3552 2394 3693 2618 
z
M 3910 4422 
Q 3885 4608 3849 4781 
Q 3814 4954 3770 5075 
L 4333 5158 
Q 4352 4973 4381 4784 
Q 4410 4595 4442 4422 
Q 4723 4422 4953 4425 
Q 5184 4429 5382 4438 
Q 5581 4448 5747 4457 
Q 5914 4467 6074 4486 
L 6074 3968 
Q 5907 3987 5728 3996 
Q 5549 4006 5337 4016 
Q 5126 4026 4876 4029 
Q 4627 4032 4314 4032 
Q 3686 4032 3257 4016 
Q 2829 4000 2490 3968 
L 2490 4486 
Q 2778 4454 3114 4441 
Q 3450 4429 3910 4422 
z
M 1779 3149 
Q 1926 3354 2057 3562 
Q 2189 3770 2266 3962 
Q 2342 3866 2444 3782 
Q 2547 3699 2682 3629 
Q 2720 3610 2720 3578 
Q 2720 3546 2650 3526 
Q 2624 3520 2569 3478 
Q 2515 3437 2416 3341 
Q 2317 3245 2160 3091 
Q 2003 2938 1773 2707 
Q 1760 2451 1737 2217 
Q 1715 1984 1683 1766 
Q 1946 1504 2147 1280 
Q 2349 1056 2554 781 
L 2554 2208 
Q 2554 2368 2554 2518 
Q 2554 2669 2550 2797 
Q 2547 2925 2544 3024 
Q 2541 3123 2534 3181 
Q 2592 3168 2659 3161 
Q 2726 3155 2832 3148 
Q 2938 3142 3094 3136 
Q 3251 3130 3501 3130 
Q 3437 3277 3347 3424 
Q 3258 3571 3155 3686 
L 3539 3885 
Q 3616 3757 3705 3622 
Q 3795 3488 3904 3341 
L 3533 3130 
L 4333 3130 
Q 4384 3232 4438 3344 
Q 4493 3456 4541 3568 
Q 4589 3680 4630 3779 
Q 4672 3878 4691 3955 
Q 4794 3904 4861 3875 
Q 4928 3846 4985 3827 
Q 5043 3808 5091 3795 
Q 5139 3782 5203 3770 
Q 5318 3744 5216 3693 
Q 5126 3648 5011 3526 
Q 4896 3405 4723 3130 
Q 5203 3136 5452 3149 
Q 5702 3162 5830 3181 
Q 5818 3059 5814 2806 
Q 5811 2554 5811 2208 
L 5811 -38 
Q 5811 -198 5788 -304 
Q 5766 -410 5686 -480 
Q 5606 -550 5452 -592 
Q 5299 -634 5037 -672 
Q 5030 -512 4979 -390 
Q 4928 -269 4806 -115 
Q 4979 -134 5084 -137 
Q 5190 -141 5244 -115 
Q 5299 -90 5315 -38 
Q 5331 13 5331 90 
L 5331 2746 
L 3021 2746 
L 3021 -538 
L 2490 -538 
Q 2509 -352 2518 -198 
Q 2528 -45 2537 99 
Q 2547 243 2550 380 
Q 2554 518 2554 678 
L 2195 390 
Q 2086 614 1932 864 
Q 1779 1114 1606 1357 
Q 1491 858 1292 445 
Q 1094 32 800 -358 
Q 608 -186 320 -45 
Q 512 109 685 352 
Q 858 595 995 902 
Q 1133 1210 1222 1565 
Q 1312 1920 1331 2298 
Q 1370 3008 1370 3712 
Q 1370 4416 1318 5088 
Q 1485 5056 1616 5040 
Q 1747 5024 1882 5011 
Q 2029 4998 1914 4883 
Q 1888 4858 1865 4714 
Q 1843 4570 1824 4339 
Q 1805 4109 1792 3805 
Q 1779 3501 1779 3149 
z
" transform="scale(0.015625)"/>
     </defs>
     <use xlink:href="#STHeitiSC-Medium-374"/>
     <use xlink:href="#STHeitiSC-Medium-39a" transform="translate(100 0)"/>
     <use xlink:href="#STHeitiSC-Medium-3b9" transform="translate(200 0)"/>
     <use xlink:href="#STHeitiSC-Medium-106b" transform="translate(300 0)"/>
     <use xlink:href="#STHeitiSC-Medium-54b2" transform="translate(400 0)"/>
    </g>
   </g>
   <g id="text_5">
    <!-- GPU 1 -->
    <g transform="translate(807.162974 224.33125) scale(0.08 -0.08)">
     <use xlink:href="#STHeitiSC-Medium-29"/>
     <use xlink:href="#STHeitiSC-Medium-32" transform="translate(87.203125 0)"/>
     <use xlink:href="#STHeitiSC-Medium-37" transform="translate(146.40625 0)"/>
     <use xlink:href="#STHeitiSC-Medium-3" transform="translate(211.90625 0)"/>
     <use xlink:href="#STHeitiSC-Medium-13" transform="translate(236.90625 0)"/>
    </g>
    <!-- 本地 token × 本地词表列 -->
    <g transform="translate(773.914849 232.57125) scale(0.08 -0.08)">
     <use xlink:href="#STHeitiSC-Medium-1d5"/>
     <use xlink:href="#STHeitiSC-Medium-15e" transform="translate(100 0)"/>
     <use xlink:href="#STHeitiSC-Medium-3" transform="translate(200 0)"/>
     <use xlink:href="#STHeitiSC-Medium-56" transform="translate(225 0)"/>
     <use xlink:href="#STHeitiSC-Medium-51" transform="translate(258.90625 0)"/>
     <use xlink:href="#STHeitiSC-Medium-4d" transform="translate(324.40625 0)"/>
     <use xlink:href="#STHeitiSC-Medium-47" transform="translate(374.609375 0)"/>
     <use xlink:href="#STHeitiSC-Medium-50" transform="translate(439.609375 0)"/>
     <use xlink:href="#STHeitiSC-Medium-3" transform="translate(500.609375 0)"/>
     <use xlink:href="#STHeitiSC-Medium-b4" transform="translate(525.609375 0)"/>
     <use xlink:href="#STHeitiSC-Medium-3" transform="translate(598.515625 0)"/>
     <use xlink:href="#STHeitiSC-Medium-1d5" transform="translate(623.515625 0)"/>
     <use xlink:href="#STHeitiSC-Medium-15e" transform="translate(723.515625 0)"/>
     <use xlink:href="#STHeitiSC-Medium-80d" transform="translate(823.515625 0)"/>
     <use xlink:href="#STHeitiSC-Medium-22a" transform="translate(923.515625 0)"/>
     <use xlink:href="#STHeitiSC-Medium-509" transform="translate(1023.515625 0)"/>
    </g>
    <!-- 计算交叉熵 -->
    <g transform="translate(798.855474 240.81125) scale(0.08 -0.08)">
     <use xlink:href="#STHeitiSC-Medium-374"/>
     <use xlink:href="#STHeitiSC-Medium-39a" transform="translate(100 0)"/>
     <use xlink:href="#STHeitiSC-Medium-3b9" transform="translate(200 0)"/>
     <use xlink:href="#STHeitiSC-Medium-106b" transform="translate(300 0)"/>
     <use xlink:href="#STHeitiSC-Medium-54b2" transform="translate(400 0)"/>
    </g>
   </g>
   <g id="patch_7">
    <path d="M 172.224182 229.69125 
Q 191.037356 229.69125 208.173479 229.69125 
" style="fill: none; stroke: #1565c0; stroke-width: 1.5; stroke-linecap: round"/>
    <path d="M 204.173479 227.69125 
L 208.173479 229.69125 
L 204.173479 231.69125 
" style="fill: none; stroke: #1565c0; stroke-width: 1.5; stroke-linecap: round"/>
   </g>
   <g id="patch_8">
    <path d="M 172.144474 230.262006 
Q 277.753888 261.379204 381.754632 230.734794 
" style="fill: none; stroke: #1565c0; stroke-width: 1.5; stroke-linecap: round"/>
    <path d="M 377.352447 229.946908 
L 381.754632 230.734794 
L 378.483012 233.783811 
" style="fill: none; stroke: #1565c0; stroke-width: 1.5; stroke-linecap: round"/>
   </g>
   <g id="patch_9">
    <path d="M 345.657062 229.69125 
Q 458.121533 229.69125 568.908953 229.69125 
" style="fill: none; stroke: #f9a825; stroke-width: 1.5; stroke-linecap: round"/>
    <path d="M 564.908953 227.69125 
L 568.908953 229.69125 
L 564.908953 231.69125 
" style="fill: none; stroke: #f9a825; stroke-width: 1.5; stroke-linecap: round"/>
   </g>
   <g id="patch_10">
    <path d="M 519.087718 229.69125 
Q 631.55219 229.69125 742.33961 229.69125 
" style="fill: none; stroke: #f9a825; stroke-width: 1.5; stroke-linecap: round"/>
    <path d="M 738.33961 227.69125 
L 742.33961 229.69125 
L 738.33961 231.69125 
" style="fill: none; stroke: #f9a825; stroke-width: 1.5; stroke-linecap: round"/>
   </g>
   <g id="text_6">
    <!-- loss_parallel() 上下文 -->
    <g style="fill: #2e7d32" transform="translate(680.081689 79.335) scale(0.1 -0.1)">
     <defs>
      <path id="STHeitiSC-Medium-4e" d="M 902 384 
L 378 384 
L 378 5184 
L 902 5184 
L 902 384 
z
" transform="scale(0.015625)"/>
      <path id="STHeitiSC-Medium-55" d="M 2259 3462 
L 1920 3110 
Q 1542 3462 1229 3462 
Q 1030 3462 896 3337 
Q 762 3213 762 3030 
Q 762 2848 912 2710 
Q 1062 2573 1446 2371 
Q 1830 2170 2038 1926 
Q 2246 1683 2246 1331 
Q 2246 883 1936 576 
Q 1626 269 1171 269 
Q 538 269 115 806 
L 448 1178 
Q 794 774 1152 774 
Q 1395 774 1568 934 
Q 1741 1094 1741 1308 
Q 1741 1523 1584 1667 
Q 1427 1811 1046 2003 
Q 666 2195 470 2428 
Q 275 2662 275 3043 
Q 275 3424 553 3693 
Q 832 3962 1289 3962 
Q 1747 3962 2259 3462 
z
" transform="scale(0.015625)"/>
      <path id="STHeitiSC-Medium-41" d="M 3200 -416 
L 0 -416 
L 0 -6 
L 3200 -6 
L 3200 -416 
z
" transform="scale(0.015625)"/>
      <path id="STHeitiSC-Medium-118" d="M 3245 326 
Q 3712 326 4105 329 
Q 4499 333 4835 342 
Q 5171 352 5456 361 
Q 5741 371 5997 390 
L 5997 -250 
Q 5734 -230 5446 -220 
Q 5158 -211 4819 -201 
Q 4480 -192 4083 -189 
Q 3686 -186 3206 -186 
Q 2253 -186 1581 -202 
Q 909 -218 397 -250 
L 397 390 
Q 838 358 1379 345 
Q 1920 333 2650 326 
L 2650 3424 
Q 2650 3808 2646 4083 
Q 2643 4358 2636 4547 
Q 2630 4736 2620 4851 
Q 2611 4966 2598 5037 
Q 2758 5005 2956 4992 
Q 3155 4979 3341 4979 
Q 3430 4979 3440 4940 
Q 3450 4902 3366 4845 
Q 3315 4806 3280 4643 
Q 3245 4480 3245 4262 
L 3245 3418 
L 4090 3418 
Q 4525 3418 4854 3430 
Q 5184 3443 5446 3469 
L 5446 2835 
Q 5190 2867 4857 2876 
Q 4525 2886 4090 2886 
L 3245 2886 
L 3245 326 
z
" transform="scale(0.015625)"/>
      <path id="STHeitiSC-Medium-12a" d="M 5139 1184 
Q 4954 1421 4778 1625 
Q 4602 1830 4416 2016 
Q 4230 2202 4022 2378 
Q 3814 2554 3571 2726 
L 3994 3123 
Q 4314 2874 4547 2678 
Q 4781 2483 4973 2313 
Q 5165 2144 5328 1981 
Q 5491 1818 5664 1632 
L 5139 1184 
z
M 3296 397 
Q 3296 250 3299 134 
Q 3302 19 3305 -96 
Q 3309 -211 3318 -336 
Q 3328 -461 3347 -621 
L 2675 -621 
Q 2688 -467 2694 -342 
Q 2701 -218 2707 -102 
Q 2714 13 2714 131 
Q 2714 250 2714 397 
L 2714 4083 
Q 2336 4083 2019 4076 
Q 1702 4070 1427 4064 
Q 1152 4058 915 4045 
Q 678 4032 461 4019 
L 461 4646 
Q 717 4627 998 4617 
Q 1280 4608 1613 4598 
Q 1946 4589 2336 4585 
Q 2726 4582 3200 4582 
Q 3667 4582 4060 4585 
Q 4454 4589 4787 4598 
Q 5120 4608 5405 4617 
Q 5690 4627 5939 4646 
L 5939 4019 
Q 5696 4038 5421 4048 
Q 5146 4058 4822 4067 
Q 4499 4077 4121 4080 
Q 3744 4083 3296 4083 
L 3296 397 
z
" transform="scale(0.015625)"/>
      <path id="STHeitiSC-Medium-1ca" d="M 2061 3699 
Q 2093 3456 2173 3158 
Q 2253 2861 2381 2557 
Q 2509 2253 2681 1965 
Q 2854 1677 3078 1459 
Q 3238 1626 3379 1830 
Q 3520 2035 3632 2304 
Q 3744 2573 3827 2915 
Q 3910 3258 3962 3699 
L 2061 3699 
z
M 2995 4192 
Q 2886 4576 2675 4986 
L 3373 5146 
Q 3398 4941 3452 4685 
Q 3507 4429 3578 4192 
Q 4320 4198 4861 4211 
Q 5402 4224 5837 4256 
L 5837 3642 
Q 5568 3661 5261 3670 
Q 4954 3680 4582 3693 
Q 4435 2771 4156 2156 
Q 3878 1542 3494 1126 
Q 4672 294 6067 333 
Q 5939 230 5852 147 
Q 5766 64 5705 -19 
Q 5645 -102 5603 -185 
Q 5562 -269 5530 -371 
Q 5184 -314 4832 -198 
Q 4480 -83 4157 64 
Q 3834 211 3549 377 
Q 3264 544 3046 717 
Q 2822 550 2534 380 
Q 2246 211 1939 60 
Q 1632 -90 1331 -205 
Q 1030 -320 787 -378 
Q 755 -192 646 -38 
Q 538 115 333 243 
Q 992 314 1597 541 
Q 2202 768 2643 1088 
Q 2413 1344 2227 1670 
Q 2042 1997 1898 2342 
Q 1754 2688 1658 3037 
Q 1562 3386 1517 3693 
Q 1190 3686 902 3673 
Q 614 3661 358 3642 
L 358 4256 
Q 851 4224 1475 4208 
Q 2099 4192 2995 4192 
z
" transform="scale(0.015625)"/>
     </defs>
     <use xlink:href="#STHeitiSC-Medium-4e"/>
     <use xlink:href="#STHeitiSC-Medium-51" transform="translate(20 0)"/>
     <use xlink:href="#STHeitiSC-Medium-55" transform="translate(85.5 0)"/>
     <use xlink:href="#STHeitiSC-Medium-55" transform="translate(124.296875 0)"/>
     <use xlink:href="#STHeitiSC-Medium-41" transform="translate(163.09375 0)"/>
     <use xlink:href="#STHeitiSC-Medium-52" transform="translate(213.09375 0)"/>
     <use xlink:href="#STHeitiSC-Medium-43" transform="translate(281.296875 0)"/>
     <use xlink:href="#STHeitiSC-Medium-54" transform="translate(349.59375 0)"/>
     <use xlink:href="#STHeitiSC-Medium-43" transform="translate(379.6875 0)"/>
     <use xlink:href="#STHeitiSC-Medium-4e" transform="translate(447.984375 0)"/>
     <use xlink:href="#STHeitiSC-Medium-4e" transform="translate(467.984375 0)"/>
     <use xlink:href="#STHeitiSC-Medium-47" transform="translate(487.984375 0)"/>
     <use xlink:href="#STHeitiSC-Medium-4e" transform="translate(552.984375 0)"/>
     <use xlink:href="#STHeitiSC-Medium-a" transform="translate(572.984375 0)"/>
     <use xlink:href="#STHeitiSC-Medium-b" transform="translate(609.890625 0)"/>
     <use xlink:href="#STHeitiSC-Medium-3" transform="translate(646.796875 0)"/>
     <use xlink:href="#STHeitiSC-Medium-118" transform="translate(671.796875 0)"/>
     <use xlink:href="#STHeitiSC-Medium-12a" transform="translate(771.796875 0)"/>
     <use xlink:href="#STHeitiSC-Medium-1ca" transform="translate(871.796875 0)"/>
    </g>
   </g>
   <g id="text_7">
    <!-- Loss Parallel：分片计算交叉熵，无需 all_gather 完整 logits -->
    <g transform="translate(295.529531 19.24) scale(0.14 -0.14)">
     <defs>
      <path id="STHeitiSC-Medium-2e" d="M 2835 384 
L 512 384 
L 512 5069 
L 1069 5069 
L 1069 915 
L 2835 915 
L 2835 384 
z
" transform="scale(0.015625)"/>
      <path id="STHeitiSC-Medium-beed" d="M 1926 3008 
L 1261 3008 
L 1261 3686 
L 1926 3686 
L 1926 3008 
z
M 1926 384 
L 1261 384 
L 1261 1062 
L 1926 1062 
L 1926 384 
z
" transform="scale(0.015625)"/>
      <path id="STHeitiSC-Medium-153" d="M 2886 4659 
Q 2758 4608 2691 4531 
Q 2624 4454 2547 4282 
Q 2426 4019 2227 3705 
Q 2029 3392 1792 3072 
Q 1555 2752 1289 2451 
Q 1024 2150 768 1907 
Q 678 2029 544 2144 
Q 410 2259 269 2349 
Q 768 2694 1136 3129 
Q 1504 3565 1747 3987 
Q 1914 4282 2026 4531 
Q 2138 4781 2227 5030 
Q 2304 4992 2393 4950 
Q 2483 4909 2576 4877 
Q 2669 4845 2749 4822 
Q 2829 4800 2880 4794 
Q 2957 4781 2963 4736 
Q 2970 4691 2886 4659 
z
M 6131 2720 
Q 5875 2490 5658 2086 
Q 4794 2688 4294 3347 
Q 4077 3635 3888 4080 
Q 3699 4525 3571 5011 
L 4109 5120 
Q 4237 4640 4403 4269 
Q 4570 3898 4768 3674 
Q 5107 3302 5430 3088 
Q 5754 2874 6131 2720 
z
M 2381 2074 
Q 2227 2074 2108 2070 
Q 1990 2067 1894 2064 
Q 1798 2061 1712 2051 
Q 1626 2042 1523 2029 
L 1523 2624 
Q 1677 2598 2013 2585 
Q 2349 2573 2854 2573 
Q 3155 2573 3481 2576 
Q 3808 2579 4096 2582 
Q 4384 2586 4614 2589 
Q 4845 2592 4954 2598 
L 4736 109 
Q 4717 -90 4659 -218 
Q 4602 -346 4470 -432 
Q 4339 -518 4121 -576 
Q 3904 -634 3565 -678 
Q 3533 -506 3462 -330 
Q 3392 -154 3270 6 
Q 3539 -19 3712 -12 
Q 3885 -6 3990 58 
Q 4096 122 4147 250 
Q 4198 378 4218 589 
L 4346 2074 
L 2912 2074 
Q 2880 1632 2768 1235 
Q 2656 838 2470 563 
Q 2317 339 2173 163 
Q 2029 -13 1875 -157 
Q 1722 -301 1549 -422 
Q 1376 -544 1165 -666 
Q 1056 -538 902 -426 
Q 749 -314 576 -243 
Q 1107 -26 1456 249 
Q 1805 525 1958 768 
Q 2144 1062 2246 1363 
Q 2349 1664 2381 2074 
z
" transform="scale(0.015625)"/>
      <path id="STHeitiSC-Medium-1e6" d="M 2074 2912 
Q 2067 2650 2054 2422 
Q 2042 2195 2022 1997 
Q 2534 1997 2905 1997 
Q 3277 1997 3545 1997 
Q 3814 1997 4000 2000 
Q 4186 2003 4323 2006 
Q 4461 2010 4576 2016 
Q 4691 2022 4813 2029 
Q 4774 1856 4774 1203 
L 4774 160 
Q 4774 -102 4780 -284 
Q 4787 -467 4806 -672 
L 4166 -672 
L 4166 1485 
L 1965 1485 
Q 1920 1184 1856 934 
Q 1792 685 1696 454 
Q 1600 224 1465 -6 
Q 1331 -237 1139 -499 
Q 1024 -410 880 -342 
Q 736 -275 550 -205 
Q 742 13 889 211 
Q 1037 410 1142 624 
Q 1248 838 1321 1088 
Q 1395 1338 1436 1661 
Q 1478 1984 1500 2400 
Q 1523 2816 1536 3366 
Q 1542 3680 1542 3913 
Q 1542 4147 1542 4329 
Q 1542 4512 1532 4669 
Q 1523 4826 1510 4992 
Q 1606 4973 1708 4953 
Q 1811 4934 1904 4921 
Q 1997 4909 2070 4902 
Q 2144 4896 2182 4902 
Q 2266 4915 2272 4889 
Q 2278 4864 2227 4800 
Q 2208 4768 2189 4691 
Q 2170 4614 2150 4454 
Q 2131 4294 2118 4041 
Q 2106 3789 2093 3405 
L 3789 3405 
L 3789 4301 
Q 3789 4582 3782 4761 
Q 3776 4941 3757 5075 
Q 3942 5043 4131 5024 
Q 4320 5005 4467 4998 
Q 4678 4986 4544 4915 
Q 4378 4826 4378 4659 
L 4378 3405 
L 5222 3405 
Q 5357 3405 5453 3405 
Q 5549 3405 5619 3411 
Q 5690 3418 5741 3424 
Q 5792 3430 5850 3443 
L 5850 2874 
Q 5741 2893 5613 2902 
Q 5485 2912 5216 2912 
L 2074 2912 
z
" transform="scale(0.015625)"/>
      <path id="STHeitiSC-Medium-bedf" d="M 1952 435 
Q 1952 0 1776 -253 
Q 1600 -506 1286 -557 
L 1286 -262 
Q 1626 -224 1626 384 
L 1286 384 
L 1286 1062 
L 1952 1062 
L 1952 435 
z
" transform="scale(0.015625)"/>
      <path id="STHeitiSC-Medium-184" d="M 3162 2957 
Q 3546 2957 3936 2960 
Q 4326 2963 4678 2966 
Q 5030 2970 5331 2979 
Q 5632 2989 5837 3002 
L 5837 2432 
Q 5530 2451 5040 2460 
Q 4550 2470 3987 2470 
L 3987 448 
Q 3987 301 4080 249 
Q 4173 198 4416 198 
Q 4742 198 4921 214 
Q 5101 230 5197 310 
Q 5293 390 5334 563 
Q 5376 736 5427 1056 
Q 5600 877 5763 777 
Q 5926 678 6022 685 
Q 5926 333 5840 128 
Q 5754 -77 5597 -182 
Q 5440 -288 5174 -317 
Q 4909 -346 4448 -346 
Q 4128 -346 3933 -326 
Q 3738 -307 3629 -240 
Q 3520 -173 3481 -48 
Q 3443 77 3443 288 
L 3443 2477 
L 3072 2477 
Q 2944 1888 2774 1453 
Q 2605 1018 2349 672 
Q 2093 326 1731 38 
Q 1370 -250 870 -544 
Q 787 -429 652 -291 
Q 518 -154 378 -51 
Q 845 128 1200 368 
Q 1555 608 1817 918 
Q 2080 1229 2253 1613 
Q 2426 1997 2522 2477 
Q 1914 2470 1424 2460 
Q 934 2451 582 2432 
L 582 3002 
Q 947 2982 1456 2972 
Q 1965 2963 2598 2957 
Q 2624 3213 2643 3558 
Q 2662 3904 2669 4275 
Q 2189 4269 1805 4259 
Q 1421 4250 1146 4230 
L 1146 4806 
Q 1485 4781 1990 4771 
Q 2496 4762 3123 4762 
Q 3430 4762 3747 4765 
Q 4064 4768 4349 4774 
Q 4634 4781 4877 4787 
Q 5120 4794 5286 4806 
L 5286 4230 
Q 5133 4243 4905 4252 
Q 4678 4262 4409 4265 
Q 4141 4269 3846 4272 
Q 3552 4275 3258 4275 
Q 3258 3949 3232 3606 
Q 3206 3264 3162 2957 
z
" transform="scale(0.015625)"/>
      <path id="STHeitiSC-Medium-300" d="M 2522 2310 
Q 2432 2317 2269 2323 
Q 2106 2330 1926 2330 
Q 1747 2330 1577 2323 
Q 1408 2317 1306 2310 
L 1306 2707 
Q 1402 2694 1565 2691 
Q 1728 2688 1907 2688 
Q 2086 2688 2249 2694 
Q 2413 2701 2522 2707 
L 2522 2310 
z
M 5005 2349 
Q 4915 2355 4748 2358 
Q 4582 2362 4400 2362 
Q 4218 2362 4045 2358 
Q 3872 2355 3770 2349 
L 3770 2726 
Q 3866 2720 4032 2717 
Q 4198 2714 4377 2714 
Q 4557 2714 4726 2717 
Q 4896 2720 5005 2726 
L 5005 2349 
z
M 2541 2989 
Q 2451 2995 2294 3001 
Q 2138 3008 1962 3008 
Q 1786 3008 1622 3001 
Q 1459 2995 1357 2989 
L 1357 3366 
Q 1453 3354 1619 3350 
Q 1786 3347 1965 3347 
Q 2144 3347 2304 3350 
Q 2464 3354 2541 3366 
L 2541 2989 
z
M 4947 2989 
Q 4864 2995 4710 3001 
Q 4557 3008 4384 3008 
Q 4211 3008 4041 3001 
Q 3872 2995 3770 2989 
L 3770 3379 
Q 3866 3366 4035 3363 
Q 4205 3360 4384 3360 
Q 4563 3360 4720 3363 
Q 4877 3366 4947 3379 
L 4947 2989 
z
M 2816 1715 
Q 1965 1715 1366 1702 
Q 768 1690 538 1664 
L 538 2150 
Q 666 2131 918 2118 
Q 1171 2106 1516 2096 
Q 1862 2086 2294 2083 
Q 2726 2080 3219 2080 
Q 3648 2080 4067 2083 
Q 4486 2086 4844 2096 
Q 5203 2106 5472 2118 
Q 5741 2131 5875 2150 
L 5875 1670 
Q 5741 1677 5481 1686 
Q 5222 1696 4880 1702 
Q 4538 1709 4138 1712 
Q 3738 1715 3322 1715 
L 3162 1274 
Q 3475 1274 3792 1280 
Q 4109 1286 4400 1296 
Q 4691 1306 4950 1315 
Q 5210 1325 5408 1338 
Q 5376 1210 5366 1101 
Q 5357 992 5357 864 
L 5357 230 
Q 5357 -26 5331 -179 
Q 5306 -333 5210 -429 
Q 5114 -525 4925 -579 
Q 4736 -634 4416 -698 
Q 4442 -576 4400 -422 
Q 4358 -269 4179 -58 
Q 4525 -134 4685 -86 
Q 4845 -38 4845 109 
L 4845 915 
L 3891 915 
Q 3891 45 3910 -397 
L 3437 -397 
Q 3450 -179 3456 150 
Q 3462 480 3462 915 
L 2707 915 
Q 2707 474 2710 134 
Q 2714 -205 2726 -429 
L 2259 -429 
Q 2272 -211 2278 131 
Q 2285 474 2285 915 
L 1510 915 
L 1510 -570 
L 979 -570 
Q 998 -422 1008 -300 
Q 1018 -179 1018 -38 
L 1018 890 
Q 1018 1030 1008 1136 
Q 998 1242 979 1344 
Q 1286 1312 1747 1293 
Q 2208 1274 2707 1274 
L 2816 1715 
z
M 3405 4064 
Q 3930 4064 4317 4070 
Q 4704 4077 4995 4086 
Q 5286 4096 5494 4109 
Q 5702 4122 5869 4134 
L 5869 3027 
L 5370 3027 
L 5370 3706 
L 3405 3706 
L 3405 3194 
Q 3405 2938 3408 2742 
Q 3411 2547 3424 2323 
L 2893 2323 
Q 2906 2560 2912 2755 
Q 2918 2950 2918 3194 
L 2918 3706 
L 998 3706 
L 998 2925 
L 518 2925 
L 518 4134 
Q 678 4115 886 4105 
Q 1094 4096 1379 4086 
Q 1664 4077 2041 4070 
Q 2419 4064 2918 4064 
L 2918 4506 
Q 2336 4499 1904 4486 
Q 1472 4474 1139 4454 
L 1139 4941 
Q 1523 4909 2035 4899 
Q 2547 4890 3258 4890 
Q 3974 4890 4486 4899 
Q 4998 4909 5382 4941 
L 5382 4454 
Q 5018 4480 4541 4493 
Q 4064 4506 3405 4506 
L 3405 4064 
z
" transform="scale(0.015625)"/>
      <path id="STHeitiSC-Medium-49" d="M 3930 1203 
Q 3930 512 3811 179 
Q 3693 -154 3453 -384 
Q 3213 -614 2877 -732 
Q 2541 -851 2138 -851 
Q 774 -851 320 301 
L 883 301 
Q 1254 -365 2118 -365 
Q 2515 -365 2828 -211 
Q 3142 -58 3270 198 
Q 3398 454 3398 986 
L 3398 1018 
Q 3149 736 2797 589 
Q 2445 442 2067 442 
Q 1312 442 803 960 
Q 294 1478 301 2182 
Q 294 2918 832 3440 
Q 1370 3962 2109 3962 
Q 2848 3962 3398 3360 
L 3398 3872 
L 3930 3872 
L 3930 1203 
z
M 3418 2182 
Q 3418 2733 3050 3091 
Q 2682 3450 2150 3450 
Q 1587 3450 1206 3062 
Q 826 2675 826 2163 
Q 826 1651 1190 1296 
Q 1555 941 2124 941 
Q 2694 941 3056 1289 
Q 3418 1638 3418 2182 
z
" transform="scale(0.015625)"/>
      <path id="STHeitiSC-Medium-225" d="M 3219 2912 
Q 2720 2912 2320 2899 
Q 1920 2886 1670 2854 
L 1670 3411 
Q 1926 3379 2336 3366 
Q 2746 3354 3219 3354 
Q 3693 3354 4109 3366 
Q 4525 3379 4774 3411 
L 4774 2854 
Q 4525 2886 4109 2899 
Q 3693 2912 3219 2912 
z
M 2240 1824 
Q 1862 1818 1468 1805 
Q 1075 1792 672 1760 
L 672 2342 
Q 922 2323 1181 2313 
Q 1440 2304 1744 2294 
Q 2048 2285 2413 2281 
Q 2778 2278 3238 2278 
Q 3699 2278 4064 2281 
Q 4429 2285 4733 2294 
Q 5037 2304 5296 2313 
Q 5555 2323 5805 2342 
L 5805 1760 
Q 5357 1792 4921 1808 
Q 4486 1824 4045 1824 
L 4045 346 
Q 4045 256 4057 201 
Q 4070 147 4124 118 
Q 4179 90 4284 83 
Q 4390 77 4582 77 
Q 4774 77 4899 109 
Q 5024 141 5104 227 
Q 5184 314 5235 467 
Q 5286 621 5331 870 
Q 5440 755 5600 665 
Q 5760 576 5907 525 
Q 5818 218 5728 35 
Q 5638 -147 5497 -246 
Q 5357 -346 5136 -378 
Q 4915 -410 4563 -410 
Q 4262 -410 4064 -384 
Q 3866 -358 3741 -297 
Q 3616 -237 3565 -141 
Q 3514 -45 3514 102 
L 3514 1824 
L 2771 1824 
Q 2752 1242 2646 842 
Q 2541 442 2320 163 
Q 2099 -115 1744 -300 
Q 1389 -486 883 -640 
Q 819 -512 713 -352 
Q 608 -192 486 -58 
Q 954 19 1286 140 
Q 1619 262 1830 476 
Q 2042 691 2141 1017 
Q 2240 1344 2240 1824 
z
M 3091 4493 
Q 3046 4672 2985 4854 
Q 2925 5037 2854 5165 
L 3494 5280 
Q 3546 5094 3606 4896 
Q 3667 4698 3750 4493 
Q 4173 4493 4477 4496 
Q 4781 4499 5005 4505 
Q 5229 4512 5392 4515 
Q 5555 4518 5709 4531 
L 5709 3277 
L 5178 3277 
L 5178 4038 
L 1286 4038 
L 1286 3194 
L 755 3194 
L 755 4531 
Q 922 4518 1107 4512 
Q 1293 4506 1555 4502 
Q 1818 4499 2186 4496 
Q 2554 4493 3091 4493 
z
" transform="scale(0.015625)"/>
      <path id="STHeitiSC-Medium-452" d="M 2982 1875 
Q 2854 2022 2691 2160 
Q 2528 2298 2368 2394 
L 2675 2643 
Q 2822 2534 2982 2412 
Q 3142 2291 3296 2163 
L 2982 1875 
z
M 2227 3072 
L 2918 3072 
L 2918 3494 
L 2227 3494 
L 2227 3072 
z
M 1824 3494 
L 1120 3494 
L 1120 3072 
L 1824 3072 
L 1824 3494 
z
M 1824 2746 
Q 1581 2304 1318 2038 
Q 1056 1773 755 1587 
Q 653 1709 579 1763 
Q 506 1818 358 1875 
Q 704 2022 982 2246 
Q 1261 2470 1466 2771 
Q 1222 2771 1043 2771 
Q 864 2771 691 2758 
Q 730 2957 730 3251 
Q 730 3411 720 3561 
Q 710 3712 691 3821 
Q 806 3814 924 3808 
Q 1043 3802 1177 3798 
Q 1312 3795 1469 3795 
Q 1626 3795 1824 3795 
L 1824 4186 
Q 1382 4186 1081 4176 
Q 781 4166 538 4141 
L 538 4589 
Q 800 4557 1094 4547 
Q 1389 4538 1824 4538 
Q 1824 4800 1814 4915 
Q 1805 5030 1779 5120 
Q 2048 5082 2234 5101 
Q 2342 5114 2352 5088 
Q 2362 5062 2298 4992 
Q 2266 4960 2246 4838 
Q 2227 4717 2227 4538 
Q 2630 4538 2912 4547 
Q 3194 4557 3430 4576 
L 3430 4141 
Q 3194 4160 2912 4169 
Q 2630 4179 2227 4186 
L 2227 3795 
Q 2611 3795 2864 3801 
Q 3117 3808 3347 3821 
Q 3334 3712 3328 3565 
Q 3322 3418 3322 3251 
Q 3322 3104 3328 2973 
Q 3334 2842 3347 2746 
Q 3123 2758 2867 2764 
Q 2611 2771 2227 2771 
Q 2227 2483 2240 2268 
Q 2253 2054 2285 1875 
L 1766 1875 
Q 1798 2048 1811 2259 
Q 1824 2470 1824 2746 
z
M 4653 2445 
Q 4454 2259 4217 2118 
Q 3981 1978 3706 1856 
Q 3661 1958 3581 2054 
Q 3501 2150 3392 2221 
Q 3987 2432 4346 2733 
Q 4224 2874 4121 3037 
Q 4019 3200 3942 3386 
L 4307 3539 
Q 4429 3238 4614 3014 
Q 4922 3418 5005 3987 
L 4218 3987 
Q 4109 3750 3987 3552 
Q 3866 3354 3731 3162 
Q 3565 3290 3379 3334 
Q 3533 3558 3648 3763 
Q 3763 3968 3846 4179 
Q 3930 4390 3987 4620 
Q 4045 4851 4083 5126 
Q 4230 5075 4368 5040 
Q 4506 5005 4621 4992 
Q 4691 4979 4694 4953 
Q 4698 4928 4614 4858 
Q 4582 4832 4534 4739 
Q 4486 4646 4384 4384 
L 5210 4384 
Q 5478 4384 5651 4393 
Q 5824 4403 5933 4422 
L 5933 3962 
Q 5837 3974 5741 3977 
Q 5645 3981 5478 3987 
Q 5389 3590 5254 3289 
Q 5120 2989 4934 2746 
Q 5139 2618 5404 2534 
Q 5670 2451 6035 2394 
Q 5907 2291 5843 2169 
Q 5779 2048 5728 1875 
Q 5434 1978 5162 2118 
Q 4890 2259 4653 2445 
z
M 3418 13 
Q 3846 13 4198 16 
Q 4550 19 4851 25 
Q 5152 32 5411 41 
Q 5670 51 5907 64 
L 5907 -461 
Q 5658 -448 5382 -438 
Q 5107 -429 4784 -422 
Q 4461 -416 4073 -413 
Q 3686 -410 3219 -410 
Q 2746 -410 2362 -413 
Q 1978 -416 1654 -422 
Q 1331 -429 1056 -438 
Q 781 -448 531 -461 
L 531 64 
Q 774 51 1043 44 
Q 1312 38 1619 26 
L 1619 410 
Q 1619 582 1609 752 
Q 1600 922 1581 1024 
Q 1715 998 1872 992 
Q 2029 986 2106 992 
Q 2253 998 2150 896 
Q 2106 851 2090 755 
Q 2074 659 2074 550 
L 2074 13 
L 2957 13 
L 2957 1338 
Q 2650 1338 2390 1331 
Q 2131 1325 1907 1321 
Q 1683 1318 1491 1308 
Q 1299 1299 1120 1286 
L 1120 1754 
Q 1318 1741 1532 1731 
Q 1747 1722 2000 1718 
Q 2253 1715 2553 1712 
Q 2854 1709 3226 1709 
Q 3597 1709 3897 1712 
Q 4198 1715 4448 1721 
Q 4698 1728 4912 1734 
Q 5126 1741 5325 1754 
L 5325 1286 
Q 5139 1299 4940 1308 
Q 4742 1318 4512 1324 
Q 4282 1331 4013 1334 
Q 3744 1338 3418 1338 
L 3418 902 
Q 3808 902 4077 902 
Q 4346 902 4547 905 
Q 4749 909 4902 912 
Q 5056 915 5216 928 
L 5216 499 
Q 5069 506 4915 512 
Q 4762 518 4560 521 
Q 4358 525 4083 528 
Q 3808 531 3418 531 
L 3418 13 
z
" transform="scale(0.015625)"/>
      <path id="STHeitiSC-Medium-4b" d="M 640 5184 
Q 813 5184 931 5065 
Q 1050 4947 1050 4777 
Q 1050 4608 931 4489 
Q 813 4371 643 4371 
Q 474 4371 355 4492 
Q 237 4614 237 4777 
Q 237 4941 355 5062 
Q 474 5184 640 5184 
z
M 909 384 
L 378 384 
L 378 3872 
L 909 3872 
L 909 384 
z
" transform="scale(0.015625)"/>
     </defs>
     <use xlink:href="#STHeitiSC-Medium-2e"/>
     <use xlink:href="#STHeitiSC-Medium-51" transform="translate(46.203125 0)"/>
     <use xlink:href="#STHeitiSC-Medium-55" transform="translate(111.703125 0)"/>
     <use xlink:href="#STHeitiSC-Medium-55" transform="translate(150.5 0)"/>
     <use xlink:href="#STHeitiSC-Medium-3" transform="translate(189.296875 0)"/>
     <use xlink:href="#STHeitiSC-Medium-32" transform="translate(214.296875 0)"/>
     <use xlink:href="#STHeitiSC-Medium-43" transform="translate(273.5 0)"/>
     <use xlink:href="#STHeitiSC-Medium-54" transform="translate(341.796875 0)"/>
     <use xlink:href="#STHeitiSC-Medium-43" transform="translate(371.890625 0)"/>
     <use xlink:href="#STHeitiSC-Medium-4e" transform="translate(440.1875 0)"/>
     <use xlink:href="#STHeitiSC-Medium-4e" transform="translate(460.1875 0)"/>
     <use xlink:href="#STHeitiSC-Medium-47" transform="translate(480.1875 0)"/>
     <use xlink:href="#STHeitiSC-Medium-4e" transform="translate(545.1875 0)"/>
     <use xlink:href="#STHeitiSC-Medium-beed" transform="translate(565.1875 0)"/>
     <use xlink:href="#STHeitiSC-Medium-153" transform="translate(665.1875 0)"/>
     <use xlink:href="#STHeitiSC-Medium-1e6" transform="translate(765.1875 0)"/>
     <use xlink:href="#STHeitiSC-Medium-374" transform="translate(865.1875 0)"/>
     <use xlink:href="#STHeitiSC-Medium-39a" transform="translate(965.1875 0)"/>
     <use xlink:href="#STHeitiSC-Medium-3b9" transform="translate(1065.1875 0)"/>
     <use xlink:href="#STHeitiSC-Medium-106b" transform="translate(1165.1875 0)"/>
     <use xlink:href="#STHeitiSC-Medium-54b2" transform="translate(1265.1875 0)"/>
     <use xlink:href="#STHeitiSC-Medium-bedf" transform="translate(1365.1875 0)"/>
     <use xlink:href="#STHeitiSC-Medium-184" transform="translate(1465.1875 0)"/>
     <use xlink:href="#STHeitiSC-Medium-300" transform="translate(1565.1875 0)"/>
     <use xlink:href="#STHeitiSC-Medium-3" transform="translate(1665.1875 0)"/>
     <use xlink:href="#STHeitiSC-Medium-43" transform="translate(1690.1875 0)"/>
     <use xlink:href="#STHeitiSC-Medium-4e" transform="translate(1758.484375 0)"/>
     <use xlink:href="#STHeitiSC-Medium-4e" transform="translate(1778.484375 0)"/>
     <use xlink:href="#STHeitiSC-Medium-41" transform="translate(1798.484375 0)"/>
     <use xlink:href="#STHeitiSC-Medium-49" transform="translate(1848.484375 0)"/>
     <use xlink:href="#STHeitiSC-Medium-43" transform="translate(1915.78125 0)"/>
     <use xlink:href="#STHeitiSC-Medium-56" transform="translate(1984.078125 0)"/>
     <use xlink:href="#STHeitiSC-Medium-4a" transform="translate(2017.984375 0)"/>
     <use xlink:href="#STHeitiSC-Medium-47" transform="translate(2078.984375 0)"/>
     <use xlink:href="#STHeitiSC-Medium-54" transform="translate(2143.984375 0)"/>
     <use xlink:href="#STHeitiSC-Medium-3" transform="translate(2174.078125 0)"/>
     <use xlink:href="#STHeitiSC-Medium-225" transform="translate(2199.078125 0)"/>
     <use xlink:href="#STHeitiSC-Medium-452" transform="translate(2299.078125 0)"/>
     <use xlink:href="#STHeitiSC-Medium-3" transform="translate(2399.078125 0)"/>
     <use xlink:href="#STHeitiSC-Medium-4e" transform="translate(2424.078125 0)"/>
     <use xlink:href="#STHeitiSC-Medium-51" transform="translate(2444.078125 0)"/>
     <use xlink:href="#STHeitiSC-Medium-49" transform="translate(2509.578125 0)"/>
     <use xlink:href="#STHeitiSC-Medium-4b" transform="translate(2576.875 0)"/>
     <use xlink:href="#STHeitiSC-Medium-56" transform="translate(2596.875 0)"/>
     <use xlink:href="#STHeitiSC-Medium-55" transform="translate(2630.78125 0)"/>
    </g>
   </g>
  </g>
 </g>
 <defs>
  <clipPath id="p6a716a367c">
   <rect x="7.2" y="39.24" width="950.4" height="320.76"/>
  </clipPath>
 </defs>
</svg>
