<?xml version="1.0" encoding="utf-8" standalone="no"?>
<!DOCTYPE svg PUBLIC "-//W3C//DTD SVG 1.1//EN"
  "http://www.w3.org/Graphics/SVG/1.1/DTD/svg11.dtd">
<svg xmlns:xlink="http://www.w3.org/1999/xlink" width="1000.8pt" height="424.8pt" viewBox="0 0 1000.8 424.8" xmlns="http://www.w3.org/2000/svg" version="1.1">
 <metadata>
  <rdf:RDF xmlns:dc="http://purl.org/dc/elements/1.1/" xmlns:cc="http://creativecommons.org/ns#" xmlns:rdf="http://www.w3.org/1999/02/22-rdf-syntax-ns#">
   <cc:Work>
    <dc:type rdf:resource="http://purl.org/dc/dcmitype/StillImage"/>
    <dc:date>2026-07-13T11:07:56.111594</dc:date>
    <dc:format>image/svg+xml</dc:format>
    <dc:creator>
     <cc:Agent>
      <dc:title>Matplotlib v3.11.0, https://matplotlib.org/</dc:title>
     </cc:Agent>
    </dc:creator>
   </cc:Work>
  </rdf:RDF>
 </metadata>
 <defs>
  <style type="text/css">*{stroke-linejoin: round; stroke-linecap: butt}</style>
 </defs>
 <g id="figure_1">
  <g id="patch_1">
   <path d="M 0 424.8 
L 1000.8 424.8 
L 1000.8 0 
L 0 0 
z
" style="fill: #ffffff"/>
  </g>
  <g id="axes_1">
   <g id="patch_2">
    <path d="M 55.98 386.8624 
L 446.22 386.8624 
Q 455.976 386.8624 455.976 379.178 
L 455.976 52.591 
Q 455.976 44.9066 446.22 44.9066 
L 55.98 44.9066 
Q 46.224 44.9066 46.224 52.591 
L 46.224 379.178 
Q 46.224 386.8624 55.98 386.8624 
z
" clip-path="url(#p2998ec2f73)" style="fill: #fafafa; stroke: #bdbdbd; stroke-width: 1.5; stroke-linejoin: miter"/>
   </g>
   <g id="patch_3">
    <path d="M 104.76 152.4882 
L 397.44 152.4882 
Q 402.318 152.4882 402.318 148.646 
L 402.318 110.224 
Q 402.318 106.3818 397.44 106.3818 
L 104.76 106.3818 
Q 99.882 106.3818 99.882 110.224 
L 99.882 148.646 
Q 99.882 152.4882 104.76 152.4882 
z
" clip-path="url(#p2998ec2f73)" style="fill: #e3f2fd; stroke: #1565c0; stroke-width: 2; stroke-linejoin: miter"/>
   </g>
   <g id="patch_4">
    <path d="M 104.76 258.1487 
L 397.44 258.1487 
Q 402.318 258.1487 402.318 254.3065 
L 402.318 215.8845 
Q 402.318 212.0423 397.44 212.0423 
L 104.76 212.0423 
Q 99.882 212.0423 99.882 215.8845 
L 99.882 254.3065 
Q 99.882 258.1487 104.76 258.1487 
z
" clip-path="url(#p2998ec2f73)" style="fill: #fff3e0; stroke: #ef6c00; stroke-width: 2; stroke-linejoin: miter"/>
   </g>
   <g id="patch_5">
    <path d="M 104.76 363.8092 
L 397.44 363.8092 
Q 402.318 363.8092 402.318 359.967 
L 402.318 321.545 
Q 402.318 317.7028 397.44 317.7028 
L 104.76 317.7028 
Q 99.882 317.7028 99.882 321.545 
L 99.882 359.967 
Q 99.882 363.8092 104.76 363.8092 
z
" clip-path="url(#p2998ec2f73)" style="fill: #e3f2fd; stroke: #1565c0; stroke-width: 2; stroke-linejoin: miter"/>
   </g>
   <g id="text_1">
    <!-- 输入 -->
    <g transform="translate(242.1 128.04) scale(0.09 -0.09)">
     <defs>
      <path id="STHeitiSC-Medium-8a9" d="M 5747 2758 
Q 5709 2726 5699 2672 
Q 5690 2618 5690 2522 
L 5690 51 
Q 5690 -102 5674 -201 
Q 5658 -301 5584 -371 
Q 5510 -442 5363 -493 
Q 5216 -544 4960 -602 
Q 4941 -493 4880 -345 
Q 4819 -198 4736 -115 
Q 4915 -141 5020 -141 
Q 5126 -141 5180 -105 
Q 5235 -70 5248 6 
Q 5261 83 5261 218 
L 5261 1894 
Q 5261 2259 5241 2528 
Q 5222 2797 5197 2925 
Q 5312 2899 5462 2886 
Q 5613 2874 5702 2880 
Q 5901 2893 5747 2758 
z
M 4941 2541 
Q 4909 2522 4899 2470 
Q 4890 2419 4890 2349 
L 4890 1190 
Q 4890 832 4928 403 
L 4429 403 
Q 4448 627 4457 816 
Q 4467 1005 4467 1190 
L 4467 2003 
Q 4467 2234 4457 2397 
Q 4448 2560 4422 2694 
Q 4570 2662 4691 2656 
Q 4813 2650 4909 2662 
Q 4992 2675 5001 2630 
Q 5011 2586 4941 2541 
z
M 1350 2342 
Q 1350 2573 1350 2717 
Q 1350 2861 1347 2953 
Q 1344 3046 1337 3100 
Q 1331 3155 1325 3200 
Q 1421 3174 1561 3158 
Q 1702 3142 1811 3155 
Q 1875 3162 1878 3117 
Q 1882 3072 1830 3046 
Q 1773 3008 1773 2867 
L 1773 2387 
Q 2054 2426 2202 2470 
L 2202 1990 
Q 2022 2016 1773 2010 
L 1773 1133 
Q 1920 1184 2057 1232 
Q 2195 1280 2278 1318 
Q 2272 1274 2265 1206 
Q 2259 1139 2259 1068 
Q 2259 998 2259 931 
Q 2259 864 2266 813 
Q 2163 813 2048 797 
Q 1933 781 1773 736 
Q 1773 384 1785 48 
Q 1798 -288 1818 -602 
L 1293 -602 
Q 1318 -307 1331 -12 
Q 1344 282 1350 608 
Q 1043 518 838 448 
Q 634 378 518 326 
Q 486 461 432 605 
Q 378 749 320 845 
Q 518 851 761 892 
Q 1005 934 1350 1018 
L 1350 1984 
Q 1088 1965 864 1923 
Q 640 1882 506 1824 
Q 474 1926 413 2057 
Q 352 2189 275 2298 
Q 365 2336 432 2403 
Q 499 2470 569 2627 
Q 640 2784 729 3075 
Q 819 3366 954 3859 
Q 774 3853 665 3843 
Q 557 3834 467 3821 
L 467 4307 
Q 563 4288 691 4278 
Q 819 4269 1043 4262 
Q 1094 4518 1116 4752 
Q 1139 4986 1133 5152 
Q 1210 5126 1302 5104 
Q 1395 5082 1484 5062 
Q 1574 5043 1651 5030 
Q 1728 5018 1773 5018 
Q 1837 5018 1843 4992 
Q 1850 4966 1786 4928 
Q 1734 4896 1670 4749 
Q 1606 4602 1498 4262 
Q 1805 4262 1974 4275 
Q 2144 4288 2259 4307 
L 2259 3821 
Q 2138 3840 1939 3853 
Q 1741 3866 1370 3866 
L 877 2298 
L 1350 2342 
z
M 2963 653 
L 2963 -454 
L 2483 -454 
Q 2515 -198 2528 51 
Q 2541 301 2541 493 
L 2541 2374 
Q 2541 2496 2528 2656 
Q 2515 2816 2496 2912 
Q 2829 2874 3296 2874 
Q 3398 2874 3513 2877 
Q 3629 2880 3737 2886 
Q 3846 2893 3945 2899 
Q 4045 2906 4115 2912 
Q 4102 2829 4092 2685 
Q 4083 2541 4083 2374 
L 4083 141 
Q 4083 -38 4070 -153 
Q 4058 -269 3994 -345 
Q 3930 -422 3805 -467 
Q 3680 -512 3462 -550 
Q 3450 -435 3398 -310 
Q 3347 -186 3277 -77 
Q 3405 -96 3481 -93 
Q 3558 -90 3600 -51 
Q 3642 -13 3654 70 
Q 3667 154 3667 301 
L 3667 653 
L 2963 653 
z
M 3667 1952 
L 3667 2490 
L 2963 2490 
L 2963 1952 
L 3667 1952 
z
M 2963 1574 
L 2963 1024 
L 3667 1024 
L 3667 1574 
L 2963 1574 
z
M 4691 3245 
Q 4550 3270 4387 3283 
Q 4224 3296 3955 3296 
Q 3686 3296 3539 3283 
Q 3392 3270 3251 3245 
L 3251 3738 
Q 3398 3712 3542 3699 
Q 3686 3686 3955 3686 
Q 4186 3686 4336 3696 
Q 4486 3706 4614 3725 
Q 4192 4090 3910 4582 
Q 3712 4320 3529 4099 
Q 3347 3878 3161 3676 
Q 2976 3475 2774 3283 
Q 2573 3091 2342 2886 
Q 2272 2970 2150 3066 
Q 2029 3162 1939 3194 
Q 2400 3488 2851 3993 
Q 3302 4499 3667 5203 
Q 3795 5152 3968 5104 
Q 4141 5056 4250 5050 
Q 4307 5043 4316 5004 
Q 4326 4966 4282 4941 
L 4166 4864 
Q 4365 4557 4582 4339 
Q 4800 4122 5043 3971 
Q 5286 3821 5552 3728 
Q 5818 3635 6118 3578 
Q 6003 3488 5900 3331 
Q 5798 3174 5754 3059 
Q 5184 3258 4691 3661 
L 4691 3245 
z
" transform="scale(0.015625)"/>
      <path id="STHeitiSC-Medium-24d" d="M 2842 3834 
Q 2637 4096 2403 4301 
Q 2170 4506 1933 4634 
L 2374 5069 
Q 2707 4800 2944 4557 
Q 3181 4314 3350 4061 
Q 3520 3808 3645 3523 
Q 3770 3238 3885 2874 
Q 4077 2285 4269 1881 
Q 4461 1478 4704 1184 
Q 4947 890 5264 678 
Q 5581 467 6022 262 
Q 5824 96 5715 -41 
Q 5606 -179 5498 -378 
Q 5101 -102 4813 154 
Q 4525 410 4301 733 
Q 4077 1056 3891 1488 
Q 3706 1920 3520 2541 
Q 3405 2918 3213 3277 
Q 3149 3008 3059 2733 
Q 2970 2458 2864 2198 
Q 2758 1939 2640 1699 
Q 2522 1459 2400 1267 
Q 2067 749 1686 326 
Q 1306 -96 934 -371 
Q 806 -224 678 -128 
Q 550 -32 371 38 
Q 614 186 825 349 
Q 1037 512 1225 697 
Q 1414 883 1590 1097 
Q 1766 1312 1933 1574 
Q 2093 1818 2240 2112 
Q 2387 2406 2508 2710 
Q 2630 3014 2716 3305 
Q 2803 3597 2842 3834 
z
" transform="scale(0.015625)"/>
     </defs>
     <use xlink:href="#STHeitiSC-Medium-8a9"/>
     <use xlink:href="#STHeitiSC-Medium-24d" transform="translate(100 0)"/>
    </g>
    <!-- [B,S,H] Replicate -->
    <g transform="translate(215.464219 137.31) scale(0.09 -0.09)">
     <defs>
      <path id="STHeitiSC-Medium-3d" d="M 2003 -672 
L 864 -672 
L 864 5370 
L 2003 5370 
L 2003 4838 
L 1389 4838 
L 1389 -154 
L 2003 -154 
L 2003 -672 
z
" transform="scale(0.015625)"/>
      <path id="STHeitiSC-Medium-24" d="M 2470 2950 
Q 2918 2784 3145 2477 
Q 3373 2170 3373 1747 
Q 3373 1158 2947 771 
Q 2522 384 1837 384 
L 525 384 
L 525 5069 
L 1478 5069 
Q 2221 5069 2608 4765 
Q 2995 4461 2995 3898 
Q 2995 3283 2470 2950 
z
M 1069 3149 
L 1286 3149 
Q 1862 3149 2147 3328 
Q 2432 3507 2432 3898 
Q 2432 4531 1555 4531 
L 1069 4531 
L 1069 3149 
z
M 1069 922 
L 1594 922 
Q 2086 922 2310 1018 
Q 2534 1114 2668 1312 
Q 2803 1510 2803 1715 
Q 2803 1920 2723 2077 
Q 2643 2234 2486 2355 
Q 2330 2477 2102 2537 
Q 1875 2598 1280 2598 
L 1069 2598 
L 1069 922 
z
" transform="scale(0.015625)"/>
      <path id="STHeitiSC-Medium-e" d="M 1408 1414 
L 736 154 
L 346 320 
L 902 1658 
L 1408 1414 
z
" transform="scale(0.015625)"/>
      <path id="STHeitiSC-Medium-35" d="M 2317 4038 
Q 2061 4384 1881 4502 
Q 1702 4621 1462 4621 
Q 1222 4621 1059 4467 
Q 896 4314 896 4074 
Q 896 3834 1049 3654 
Q 1203 3475 1756 3068 
Q 2310 2662 2566 2304 
Q 2822 1946 2822 1549 
Q 2822 1030 2422 649 
Q 2022 269 1491 269 
Q 557 269 26 1312 
L 493 1581 
Q 909 806 1427 806 
Q 1760 806 1997 1017 
Q 2234 1229 2234 1510 
Q 2234 1792 2035 2045 
Q 1837 2298 1350 2666 
Q 864 3034 681 3226 
Q 499 3418 416 3635 
Q 333 3853 333 4070 
Q 333 4538 656 4861 
Q 979 5184 1491 5184 
Q 1888 5184 2182 4982 
Q 2477 4781 2758 4384 
L 2317 4038 
z
" transform="scale(0.015625)"/>
      <path id="STHeitiSC-Medium-2a" d="M 3859 384 
L 3309 384 
L 3309 2605 
L 1062 2605 
L 1062 384 
L 506 384 
L 506 5069 
L 1062 5069 
L 1062 3142 
L 3309 3142 
L 3309 5069 
L 3859 5069 
L 3859 384 
z
" transform="scale(0.015625)"/>
      <path id="STHeitiSC-Medium-3f" d="M 1382 -672 
L 243 -672 
L 243 -154 
L 858 -154 
L 858 4838 
L 243 4838 
L 243 5370 
L 1382 5370 
L 1382 -672 
z
" transform="scale(0.015625)"/>
      <path id="STHeitiSC-Medium-3" transform="scale(0.015625)"/>
      <path id="STHeitiSC-Medium-34" d="M 3622 384 
L 2931 384 
L 1280 2522 
L 1088 2522 
L 1088 384 
L 538 384 
L 538 5069 
L 1498 5069 
Q 2266 5069 2554 5001 
Q 2842 4934 3053 4774 
Q 3264 4614 3385 4361 
Q 3507 4109 3507 3802 
Q 3507 3219 3110 2870 
Q 2714 2522 1965 2522 
L 3622 384 
z
M 1088 3059 
L 1837 3059 
Q 2400 3053 2669 3229 
Q 2938 3405 2938 3792 
Q 2938 4179 2675 4355 
Q 2413 4531 1856 4531 
L 1088 4531 
L 1088 3059 
z
" transform="scale(0.015625)"/>
      <path id="STHeitiSC-Medium-47" d="M 3878 2035 
L 819 2035 
Q 851 1459 1206 1110 
Q 1562 762 2054 762 
Q 2893 762 3334 1587 
L 3782 1357 
Q 3482 800 3072 534 
Q 2662 269 2093 269 
Q 1306 269 794 809 
Q 282 1350 282 2112 
Q 282 2874 797 3418 
Q 1312 3962 2073 3962 
Q 2835 3962 3347 3446 
Q 3859 2931 3878 2035 
z
M 3290 2502 
Q 3194 2950 2854 3200 
Q 2515 3450 2074 3450 
Q 1178 3450 883 2502 
L 3290 2502 
z
" transform="scale(0.015625)"/>
      <path id="STHeitiSC-Medium-52" d="M 973 3341 
Q 1491 3962 2252 3962 
Q 3014 3962 3545 3421 
Q 4077 2880 4077 2118 
Q 4077 1357 3552 813 
Q 3027 269 2284 269 
Q 1542 269 973 896 
L 973 -851 
L 448 -851 
L 448 3872 
L 973 3872 
L 973 3341 
z
M 2253 762 
Q 2778 762 3165 1155 
Q 3552 1549 3552 2105 
Q 3552 2662 3171 3056 
Q 2790 3450 2240 3450 
Q 1690 3450 1315 3062 
Q 941 2675 941 2105 
Q 941 1536 1325 1149 
Q 1709 762 2253 762 
z
" transform="scale(0.015625)"/>
      <path id="STHeitiSC-Medium-4e" d="M 902 384 
L 378 384 
L 378 5184 
L 902 5184 
L 902 384 
z
" transform="scale(0.015625)"/>
      <path id="STHeitiSC-Medium-4b" d="M 640 5184 
Q 813 5184 931 5065 
Q 1050 4947 1050 4777 
Q 1050 4608 931 4489 
Q 813 4371 643 4371 
Q 474 4371 355 4492 
Q 237 4614 237 4777 
Q 237 4941 355 5062 
Q 474 5184 640 5184 
z
M 909 384 
L 378 384 
L 378 3872 
L 909 3872 
L 909 384 
z
" transform="scale(0.015625)"/>
      <path id="STHeitiSC-Medium-45" d="M 3853 1094 
Q 3578 691 3133 480 
Q 2688 269 2170 269 
Q 1363 269 822 800 
Q 282 1331 282 2099 
Q 282 2867 826 3414 
Q 1370 3962 2234 3962 
Q 2746 3962 3178 3738 
Q 3610 3514 3853 3110 
L 3437 2848 
Q 2970 3456 2214 3456 
Q 1619 3456 1216 3075 
Q 813 2694 813 2131 
Q 813 1568 1209 1165 
Q 1606 762 2214 762 
Q 2944 762 3443 1376 
L 3853 1094 
z
" transform="scale(0.015625)"/>
      <path id="STHeitiSC-Medium-43" d="M 3917 384 
L 3398 384 
L 3398 896 
Q 2829 269 2086 269 
Q 1344 269 816 816 
Q 288 1363 288 2121 
Q 288 2880 819 3421 
Q 1350 3962 2115 3962 
Q 2880 3962 3398 3341 
L 3398 3872 
L 3917 3872 
L 3917 384 
z
M 2125 762 
Q 2656 762 3040 1146 
Q 3424 1530 3424 2102 
Q 3424 2675 3046 3062 
Q 2669 3450 2121 3450 
Q 1574 3450 1196 3050 
Q 819 2650 819 2106 
Q 819 1562 1203 1162 
Q 1587 762 2125 762 
z
" transform="scale(0.015625)"/>
      <path id="STHeitiSC-Medium-56" d="M 2048 3411 
L 1357 3411 
L 1357 966 
Q 1357 832 1395 803 
Q 1434 774 1587 774 
L 1894 774 
L 1894 320 
Q 1587 269 1427 269 
Q 1120 269 973 419 
Q 826 570 826 896 
L 826 3411 
L 224 3411 
L 224 3872 
L 826 3872 
L 826 5184 
L 1357 5184 
L 1357 3872 
L 2048 3872 
L 2048 3411 
z
" transform="scale(0.015625)"/>
     </defs>
     <use xlink:href="#STHeitiSC-Medium-3d"/>
     <use xlink:href="#STHeitiSC-Medium-24" transform="translate(35.09375 0)"/>
     <use xlink:href="#STHeitiSC-Medium-e" transform="translate(92.5 0)"/>
     <use xlink:href="#STHeitiSC-Medium-35" transform="translate(120.203125 0)"/>
     <use xlink:href="#STHeitiSC-Medium-e" transform="translate(170 0)"/>
     <use xlink:href="#STHeitiSC-Medium-2a" transform="translate(197.703125 0)"/>
     <use xlink:href="#STHeitiSC-Medium-3f" transform="translate(266 0)"/>
     <use xlink:href="#STHeitiSC-Medium-3" transform="translate(301.09375 0)"/>
     <use xlink:href="#STHeitiSC-Medium-34" transform="translate(326.09375 0)"/>
     <use xlink:href="#STHeitiSC-Medium-47" transform="translate(386.796875 0)"/>
     <use xlink:href="#STHeitiSC-Medium-52" transform="translate(451.796875 0)"/>
     <use xlink:href="#STHeitiSC-Medium-4e" transform="translate(520 0)"/>
     <use xlink:href="#STHeitiSC-Medium-4b" transform="translate(540 0)"/>
     <use xlink:href="#STHeitiSC-Medium-45" transform="translate(560 0)"/>
     <use xlink:href="#STHeitiSC-Medium-43" transform="translate(624.703125 0)"/>
     <use xlink:href="#STHeitiSC-Medium-56" transform="translate(693 0)"/>
     <use xlink:href="#STHeitiSC-Medium-47" transform="translate(726.90625 0)"/>
    </g>
   </g>
   <g id="patch_6">
    <path d="M 251.1 154.491026 
Q 251.1 182.267314 251.1 208.366551 
" style="fill: none; stroke: #424242; stroke-width: 1.5; stroke-linecap: round"/>
    <path d="M 253.1 204.366551 
L 251.1 208.366551 
L 249.1 204.366551 
" style="fill: none; stroke: #424242; stroke-width: 1.5; stroke-linecap: round"/>
   </g>
   <g id="text_2">
    <!-- Attention / FFN -->
    <g transform="translate(219.018516 233.7005) scale(0.09 -0.09)">
     <defs>
      <path id="STHeitiSC-Medium-23" d="M 4646 384 
L 4064 384 
L 3341 1952 
L 1408 1952 
L 691 384 
L 83 384 
L 2298 5254 
L 2464 5254 
L 4646 384 
z
M 3091 2509 
L 2381 4090 
L 1664 2509 
L 3091 2509 
z
" transform="scale(0.015625)"/>
      <path id="STHeitiSC-Medium-50" d="M 3501 384 
L 2976 384 
L 2976 2048 
Q 2976 2624 2921 2832 
Q 2867 3040 2761 3184 
Q 2656 3328 2493 3398 
Q 2330 3469 2096 3469 
Q 1862 3469 1638 3353 
Q 1414 3238 1254 3033 
Q 1094 2829 1033 2598 
Q 973 2368 973 1677 
L 973 384 
L 442 384 
L 442 3872 
L 973 3872 
L 973 3347 
Q 1491 3962 2202 3962 
Q 2579 3962 2886 3766 
Q 3194 3571 3347 3228 
Q 3501 2886 3501 2176 
L 3501 384 
z
" transform="scale(0.015625)"/>
      <path id="STHeitiSC-Medium-51" d="M 2099 3962 
Q 2854 3962 3382 3418 
Q 3910 2874 3910 2112 
Q 3910 1350 3388 809 
Q 2867 269 2099 269 
Q 1331 269 806 809 
Q 282 1350 282 2112 
Q 282 2874 810 3418 
Q 1338 3962 2099 3962 
z
M 2099 774 
Q 2630 774 3004 1161 
Q 3379 1549 3379 2096 
Q 3379 2643 2998 3043 
Q 2618 3443 2096 3443 
Q 1574 3443 1196 3043 
Q 819 2643 819 2092 
Q 819 1542 1184 1158 
Q 1549 774 2099 774 
z
" transform="scale(0.015625)"/>
      <path id="STHeitiSC-Medium-11" d="M 2675 5504 
L 736 77 
L 160 77 
L 2099 5504 
L 2675 5504 
z
" transform="scale(0.015625)"/>
      <path id="STHeitiSC-Medium-28" d="M 2906 2637 
L 1062 2637 
L 1062 384 
L 512 384 
L 512 5069 
L 2906 5069 
L 2906 4525 
L 1062 4525 
L 1062 3181 
L 2906 3181 
L 2906 2637 
z
" transform="scale(0.015625)"/>
      <path id="STHeitiSC-Medium-30" d="M 4218 384 
L 4051 384 
L 1082 3782 
L 1082 384 
L 518 384 
L 518 5069 
L 685 5069 
L 3674 1626 
L 3674 5069 
L 4218 5069 
L 4218 384 
z
" transform="scale(0.015625)"/>
     </defs>
     <use xlink:href="#STHeitiSC-Medium-23"/>
     <use xlink:href="#STHeitiSC-Medium-56" transform="translate(74 0)"/>
     <use xlink:href="#STHeitiSC-Medium-56" transform="translate(107.90625 0)"/>
     <use xlink:href="#STHeitiSC-Medium-47" transform="translate(141.8125 0)"/>
     <use xlink:href="#STHeitiSC-Medium-50" transform="translate(206.8125 0)"/>
     <use xlink:href="#STHeitiSC-Medium-56" transform="translate(267.8125 0)"/>
     <use xlink:href="#STHeitiSC-Medium-4b" transform="translate(301.71875 0)"/>
     <use xlink:href="#STHeitiSC-Medium-51" transform="translate(321.71875 0)"/>
     <use xlink:href="#STHeitiSC-Medium-50" transform="translate(387.21875 0)"/>
     <use xlink:href="#STHeitiSC-Medium-3" transform="translate(448.21875 0)"/>
     <use xlink:href="#STHeitiSC-Medium-11" transform="translate(473.21875 0)"/>
     <use xlink:href="#STHeitiSC-Medium-3" transform="translate(516.921875 0)"/>
     <use xlink:href="#STHeitiSC-Medium-28" transform="translate(541.921875 0)"/>
     <use xlink:href="#STHeitiSC-Medium-28" transform="translate(590.421875 0)"/>
     <use xlink:href="#STHeitiSC-Medium-30" transform="translate(638.921875 0)"/>
    </g>
    <!-- 内部分片计算 -->
    <g transform="translate(224.1 242.9705) scale(0.09 -0.09)">
     <defs>
      <path id="STHeitiSC-Medium-2ad" d="M 3277 2669 
Q 3437 2547 3635 2384 
Q 3834 2221 4035 2038 
Q 4237 1856 4425 1670 
Q 4614 1485 4762 1312 
L 4275 928 
Q 4141 1107 3981 1305 
Q 3821 1504 3667 1686 
Q 3514 1869 3376 2019 
Q 3238 2170 3149 2253 
Q 3066 2029 2973 1846 
Q 2880 1664 2755 1485 
Q 2630 1306 2464 1120 
Q 2298 934 2067 717 
Q 1837 902 1555 1024 
Q 1901 1274 2131 1494 
Q 2362 1715 2509 1984 
Q 2656 2253 2736 2608 
Q 2816 2963 2861 3482 
L 1446 3482 
L 1446 -525 
L 864 -525 
Q 896 -314 909 -96 
Q 922 122 922 422 
L 922 3066 
Q 922 3373 909 3600 
Q 896 3827 870 4013 
Q 1056 3994 1264 3981 
Q 1472 3968 1715 3961 
Q 1958 3955 2249 3955 
Q 2541 3955 2893 3955 
Q 2899 4051 2899 4201 
Q 2899 4352 2892 4515 
Q 2886 4678 2876 4832 
Q 2867 4986 2854 5094 
Q 3040 5075 3219 5065 
Q 3398 5056 3565 5069 
Q 3782 5082 3597 4941 
Q 3565 4915 3520 4636 
Q 3475 4358 3450 3955 
Q 3827 3955 4131 3958 
Q 4435 3962 4684 3965 
Q 4934 3968 5142 3981 
Q 5350 3994 5536 4013 
Q 5517 3846 5504 3590 
Q 5491 3334 5491 3066 
L 5491 77 
Q 5491 -102 5459 -224 
Q 5427 -346 5312 -432 
Q 5197 -518 4976 -572 
Q 4755 -627 4384 -672 
Q 4378 -525 4317 -368 
Q 4256 -211 4128 -51 
Q 4384 -77 4544 -67 
Q 4704 -58 4797 -16 
Q 4890 26 4922 96 
Q 4954 166 4954 262 
L 4954 3482 
L 3405 3482 
Q 3373 3264 3341 3043 
Q 3309 2822 3277 2669 
z
" transform="scale(0.015625)"/>
      <path id="STHeitiSC-Medium-2cc" d="M 3488 3840 
Q 3200 3859 2854 3872 
Q 2509 3885 1997 3885 
Q 1485 3885 1133 3875 
Q 781 3866 499 3840 
L 499 4365 
Q 781 4346 1133 4333 
Q 1485 4320 1997 4320 
Q 2509 4320 2857 4329 
Q 3206 4339 3488 4365 
L 3488 3840 
z
M 6067 954 
Q 6067 474 5747 224 
Q 5427 -26 4864 -58 
Q 4838 102 4784 265 
Q 4730 429 4640 563 
Q 5101 512 5315 614 
Q 5530 717 5530 1005 
Q 5530 1427 5299 1792 
Q 5069 2157 4717 2464 
L 5280 4269 
L 4371 4269 
L 4371 730 
Q 4371 499 4374 310 
Q 4378 122 4384 -51 
Q 4390 -224 4400 -390 
Q 4410 -557 4429 -730 
L 3802 -730 
Q 3827 -544 3843 -374 
Q 3859 -205 3868 -32 
Q 3878 141 3881 323 
Q 3885 506 3885 730 
L 3885 4083 
Q 3885 4250 3885 4365 
Q 3885 4480 3878 4553 
Q 3872 4627 3865 4675 
Q 3859 4723 3853 4755 
Q 4077 4742 4365 4732 
Q 4653 4723 4909 4723 
Q 5158 4723 5449 4732 
Q 5741 4742 5965 4755 
L 5235 2586 
Q 5606 2182 5836 1760 
Q 6067 1338 6067 954 
z
M 1286 2790 
Q 1274 2867 1251 2963 
Q 1229 3059 1190 3161 
Q 1152 3264 1104 3366 
Q 1056 3469 998 3552 
L 1536 3763 
Q 1555 3693 1590 3584 
Q 1626 3475 1667 3369 
Q 1709 3264 1747 3171 
Q 1786 3078 1811 3034 
L 1286 2790 
z
M 1875 4339 
Q 1856 4442 1795 4586 
Q 1734 4730 1600 4973 
L 2246 5190 
Q 2336 4966 2403 4822 
Q 2470 4678 2541 4582 
L 1875 4339 
z
M 2675 1318 
L 1331 1318 
L 1331 474 
L 2675 474 
L 2675 1318 
z
M 1331 -538 
L 781 -538 
Q 813 -320 822 -141 
Q 832 38 832 256 
L 832 1094 
Q 832 1178 829 1277 
Q 826 1376 822 1472 
Q 819 1568 809 1651 
Q 800 1734 794 1786 
Q 877 1773 966 1763 
Q 1056 1754 1190 1750 
Q 1325 1747 1517 1744 
Q 1709 1741 1997 1741 
Q 2285 1741 2483 1744 
Q 2682 1747 2822 1750 
Q 2963 1754 3056 1763 
Q 3149 1773 3219 1786 
Q 3213 1747 3203 1664 
Q 3194 1581 3187 1481 
Q 3181 1382 3177 1280 
Q 3174 1178 3174 1094 
L 3174 346 
Q 3174 128 3184 -64 
Q 3194 -256 3226 -454 
L 2675 -454 
L 2675 38 
L 1331 38 
L 1331 -538 
z
M 2579 2733 
Q 2906 2733 3155 2739 
Q 3405 2746 3610 2778 
L 3610 2234 
Q 3309 2266 2902 2282 
Q 2496 2298 1939 2298 
Q 1389 2298 1005 2282 
Q 621 2266 326 2234 
L 326 2778 
Q 410 2765 522 2758 
Q 634 2752 758 2745 
Q 883 2739 1011 2736 
Q 1139 2733 1254 2733 
L 2170 2733 
Q 2278 2950 2374 3184 
Q 2470 3418 2579 3770 
Q 2630 3738 2700 3706 
Q 2771 3674 2848 3645 
Q 2925 3616 2995 3590 
Q 3066 3565 3117 3558 
Q 3168 3546 3165 3517 
Q 3162 3488 3091 3437 
Q 3059 3411 2940 3254 
Q 2822 3098 2579 2733 
z
" transform="scale(0.015625)"/>
      <path id="STHeitiSC-Medium-153" d="M 2886 4659 
Q 2758 4608 2691 4531 
Q 2624 4454 2547 4282 
Q 2426 4019 2227 3705 
Q 2029 3392 1792 3072 
Q 1555 2752 1289 2451 
Q 1024 2150 768 1907 
Q 678 2029 544 2144 
Q 410 2259 269 2349 
Q 768 2694 1136 3129 
Q 1504 3565 1747 3987 
Q 1914 4282 2026 4531 
Q 2138 4781 2227 5030 
Q 2304 4992 2393 4950 
Q 2483 4909 2576 4877 
Q 2669 4845 2749 4822 
Q 2829 4800 2880 4794 
Q 2957 4781 2963 4736 
Q 2970 4691 2886 4659 
z
M 6131 2720 
Q 5875 2490 5658 2086 
Q 4794 2688 4294 3347 
Q 4077 3635 3888 4080 
Q 3699 4525 3571 5011 
L 4109 5120 
Q 4237 4640 4403 4269 
Q 4570 3898 4768 3674 
Q 5107 3302 5430 3088 
Q 5754 2874 6131 2720 
z
M 2381 2074 
Q 2227 2074 2108 2070 
Q 1990 2067 1894 2064 
Q 1798 2061 1712 2051 
Q 1626 2042 1523 2029 
L 1523 2624 
Q 1677 2598 2013 2585 
Q 2349 2573 2854 2573 
Q 3155 2573 3481 2576 
Q 3808 2579 4096 2582 
Q 4384 2586 4614 2589 
Q 4845 2592 4954 2598 
L 4736 109 
Q 4717 -90 4659 -218 
Q 4602 -346 4470 -432 
Q 4339 -518 4121 -576 
Q 3904 -634 3565 -678 
Q 3533 -506 3462 -330 
Q 3392 -154 3270 6 
Q 3539 -19 3712 -12 
Q 3885 -6 3990 58 
Q 4096 122 4147 250 
Q 4198 378 4218 589 
L 4346 2074 
L 2912 2074 
Q 2880 1632 2768 1235 
Q 2656 838 2470 563 
Q 2317 339 2173 163 
Q 2029 -13 1875 -157 
Q 1722 -301 1549 -422 
Q 1376 -544 1165 -666 
Q 1056 -538 902 -426 
Q 749 -314 576 -243 
Q 1107 -26 1456 249 
Q 1805 525 1958 768 
Q 2144 1062 2246 1363 
Q 2349 1664 2381 2074 
z
" transform="scale(0.015625)"/>
      <path id="STHeitiSC-Medium-1e6" d="M 2074 2912 
Q 2067 2650 2054 2422 
Q 2042 2195 2022 1997 
Q 2534 1997 2905 1997 
Q 3277 1997 3545 1997 
Q 3814 1997 4000 2000 
Q 4186 2003 4323 2006 
Q 4461 2010 4576 2016 
Q 4691 2022 4813 2029 
Q 4774 1856 4774 1203 
L 4774 160 
Q 4774 -102 4780 -284 
Q 4787 -467 4806 -672 
L 4166 -672 
L 4166 1485 
L 1965 1485 
Q 1920 1184 1856 934 
Q 1792 685 1696 454 
Q 1600 224 1465 -6 
Q 1331 -237 1139 -499 
Q 1024 -410 880 -342 
Q 736 -275 550 -205 
Q 742 13 889 211 
Q 1037 410 1142 624 
Q 1248 838 1321 1088 
Q 1395 1338 1436 1661 
Q 1478 1984 1500 2400 
Q 1523 2816 1536 3366 
Q 1542 3680 1542 3913 
Q 1542 4147 1542 4329 
Q 1542 4512 1532 4669 
Q 1523 4826 1510 4992 
Q 1606 4973 1708 4953 
Q 1811 4934 1904 4921 
Q 1997 4909 2070 4902 
Q 2144 4896 2182 4902 
Q 2266 4915 2272 4889 
Q 2278 4864 2227 4800 
Q 2208 4768 2189 4691 
Q 2170 4614 2150 4454 
Q 2131 4294 2118 4041 
Q 2106 3789 2093 3405 
L 3789 3405 
L 3789 4301 
Q 3789 4582 3782 4761 
Q 3776 4941 3757 5075 
Q 3942 5043 4131 5024 
Q 4320 5005 4467 4998 
Q 4678 4986 4544 4915 
Q 4378 4826 4378 4659 
L 4378 3405 
L 5222 3405 
Q 5357 3405 5453 3405 
Q 5549 3405 5619 3411 
Q 5690 3418 5741 3424 
Q 5792 3430 5850 3443 
L 5850 2874 
Q 5741 2893 5613 2902 
Q 5485 2912 5216 2912 
L 2074 2912 
z
" transform="scale(0.015625)"/>
      <path id="STHeitiSC-Medium-374" d="M 1946 109 
Q 1869 32 1782 -67 
Q 1696 -166 1616 -265 
Q 1536 -365 1472 -454 
Q 1408 -544 1370 -602 
Q 1280 -474 1161 -330 
Q 1043 -186 922 -77 
Q 1043 64 1091 208 
Q 1139 352 1139 595 
L 1139 2675 
Q 832 2675 621 2662 
Q 410 2650 262 2630 
L 262 3251 
Q 429 3226 617 3216 
Q 806 3206 1018 3206 
Q 1210 3206 1411 3219 
Q 1613 3232 1766 3251 
Q 1728 3085 1705 2867 
Q 1683 2650 1683 2419 
L 1683 550 
Q 1773 640 1875 752 
Q 1978 864 2080 985 
Q 2182 1107 2272 1228 
Q 2362 1350 2432 1459 
Q 2470 1293 2544 1117 
Q 2618 941 2688 845 
L 1946 109 
z
M 1523 3750 
Q 1414 4006 1254 4284 
Q 1094 4563 890 4832 
L 1427 5133 
Q 1581 4858 1757 4582 
Q 1933 4307 2099 4083 
L 1523 3750 
z
M 4646 3245 
Q 5126 3251 5488 3264 
Q 5850 3277 6138 3302 
L 6138 2662 
Q 5850 2682 5488 2698 
Q 5126 2714 4646 2714 
L 4646 442 
Q 4646 198 4659 -74 
Q 4672 -346 4704 -710 
L 3994 -710 
Q 4026 -365 4038 -86 
Q 4051 192 4051 442 
L 4051 2720 
Q 3475 2714 3068 2701 
Q 2662 2688 2336 2662 
L 2336 3302 
Q 2662 3277 3068 3264 
Q 3475 3251 4051 3245 
L 4051 4224 
Q 4051 4557 4032 4825 
Q 4013 5094 3981 5203 
Q 4166 5171 4339 5155 
Q 4512 5139 4691 5152 
Q 4813 5158 4829 5120 
Q 4845 5082 4736 5018 
Q 4685 4986 4665 4896 
Q 4646 4806 4646 4544 
L 4646 3245 
z
" transform="scale(0.015625)"/>
      <path id="STHeitiSC-Medium-39a" d="M 1734 1542 
L 4685 1542 
L 4685 1888 
L 1734 1888 
L 1734 1542 
z
M 1734 2522 
L 1734 2221 
L 4685 2221 
L 4685 2522 
L 1734 2522 
z
M 4685 3168 
L 1734 3168 
L 1734 2874 
L 4685 2874 
L 4685 3168 
z
M 4563 762 
Q 4998 762 5382 774 
Q 5766 787 6003 819 
L 6003 320 
Q 5766 352 5388 365 
Q 5011 378 4563 378 
Q 4563 122 4576 -185 
Q 4589 -493 4621 -710 
L 4026 -710 
Q 4058 -493 4070 -192 
Q 4083 109 4083 378 
L 2458 378 
Q 2336 -19 1936 -323 
Q 1536 -627 934 -781 
Q 858 -627 771 -528 
Q 685 -429 531 -333 
Q 1126 -256 1475 -73 
Q 1824 109 1946 378 
Q 851 365 390 320 
L 390 819 
Q 858 762 2003 762 
L 2003 1190 
Q 1709 1184 1539 1181 
Q 1370 1178 1254 1171 
Q 1267 1280 1280 1389 
Q 1293 1498 1293 1645 
L 1293 3027 
Q 1293 3366 1254 3571 
Q 1376 3558 1529 3552 
Q 1683 3546 1904 3539 
Q 2125 3533 2435 3529 
Q 2746 3526 3181 3526 
Q 3616 3526 3945 3529 
Q 4275 3533 4515 3539 
Q 4755 3546 4912 3552 
Q 5069 3558 5158 3571 
Q 5139 3469 5132 3318 
Q 5126 3168 5126 2963 
L 5126 1709 
Q 5126 1421 5171 1178 
Q 5094 1184 4947 1187 
Q 4800 1190 4563 1190 
L 4563 762 
z
M 4083 762 
L 4083 1197 
L 2509 1197 
L 2509 762 
L 4083 762 
z
M 1402 4160 
Q 1312 4051 1245 3971 
Q 1178 3891 1117 3820 
Q 1056 3750 995 3689 
Q 934 3629 870 3558 
Q 794 3661 678 3728 
Q 563 3795 410 3808 
Q 544 3866 701 4010 
Q 858 4154 1011 4346 
Q 1165 4538 1305 4762 
Q 1446 4986 1542 5210 
Q 1664 5158 1821 5104 
Q 1978 5050 2112 5018 
Q 2246 4986 2125 4928 
Q 1990 4864 1690 4518 
L 2253 4518 
Q 2624 4518 2902 4544 
Q 3181 4570 3251 4602 
L 3251 4096 
Q 3155 4109 2937 4128 
Q 2720 4147 2317 4160 
Q 2406 3955 2515 3763 
L 2003 3654 
Q 1971 3782 1945 3897 
Q 1920 4013 1869 4160 
L 1402 4160 
z
M 3866 4179 
Q 3718 3981 3638 3862 
Q 3558 3744 3514 3661 
Q 3405 3744 3302 3792 
Q 3200 3840 3040 3885 
Q 3174 3974 3315 4137 
Q 3456 4301 3574 4493 
Q 3693 4685 3779 4883 
Q 3866 5082 3904 5235 
Q 4013 5184 4166 5133 
Q 4320 5082 4480 5050 
Q 4621 5018 4486 4954 
Q 4454 4934 4374 4844 
Q 4294 4755 4128 4538 
L 4640 4538 
Q 5018 4538 5322 4582 
Q 5626 4627 5798 4678 
L 5798 4128 
Q 5677 4141 5446 4153 
Q 5216 4166 4890 4179 
Q 4934 4070 4976 3984 
Q 5018 3898 5075 3795 
L 4538 3699 
Q 4518 3840 4492 3949 
Q 4467 4058 4435 4179 
L 3866 4179 
z
" transform="scale(0.015625)"/>
     </defs>
     <use xlink:href="#STHeitiSC-Medium-2ad"/>
     <use xlink:href="#STHeitiSC-Medium-2cc" transform="translate(100 0)"/>
     <use xlink:href="#STHeitiSC-Medium-153" transform="translate(200 0)"/>
     <use xlink:href="#STHeitiSC-Medium-1e6" transform="translate(300 0)"/>
     <use xlink:href="#STHeitiSC-Medium-374" transform="translate(400 0)"/>
     <use xlink:href="#STHeitiSC-Medium-39a" transform="translate(500 0)"/>
    </g>
   </g>
   <g id="patch_7">
    <path d="M 251.1 260.151526 
Q 251.1 287.927814 251.1 314.027051 
" style="fill: none; stroke: #424242; stroke-width: 1.5; stroke-linecap: round"/>
    <path d="M 253.1 310.027051 
L 251.1 314.027051 
L 249.1 310.027051 
" style="fill: none; stroke: #424242; stroke-width: 1.5; stroke-linecap: round"/>
   </g>
   <g id="text_3">
    <!-- 输出 -->
    <g transform="translate(242.1 339.361) scale(0.09 -0.09)">
     <defs>
      <path id="STHeitiSC-Medium-15c" d="M 3430 2438 
L 3430 262 
L 4909 307 
L 4909 1267 
Q 4909 1466 4899 1610 
Q 4890 1754 4870 1888 
Q 5056 1856 5193 1843 
Q 5331 1830 5491 1843 
Q 5613 1850 5542 1779 
Q 5498 1734 5478 1580 
Q 5459 1427 5459 1261 
L 5459 38 
Q 5459 -147 5465 -313 
Q 5472 -480 5485 -672 
L 4870 -672 
Q 4896 -435 4909 -166 
L 2970 -224 
Q 2394 -243 2035 -256 
Q 1677 -269 1446 -281 
Q 1216 -294 1072 -307 
Q 928 -320 781 -333 
Q 794 -224 803 -83 
Q 813 58 813 192 
L 813 1459 
Q 813 1613 806 1744 
Q 800 1875 787 1952 
Q 947 1920 1104 1901 
Q 1261 1882 1408 1894 
Q 1517 1901 1453 1805 
Q 1414 1741 1392 1587 
Q 1370 1434 1370 1325 
L 1370 198 
L 2874 243 
L 2874 2438 
L 2099 2438 
Q 1984 2438 1837 2432 
Q 1690 2426 1546 2416 
Q 1402 2406 1264 2393 
Q 1126 2381 1030 2368 
Q 1056 2515 1069 2656 
Q 1082 2797 1082 2938 
L 1082 3942 
Q 1082 4096 1072 4240 
Q 1062 4384 1030 4512 
Q 1235 4480 1427 4473 
Q 1619 4467 1702 4480 
Q 1792 4493 1798 4477 
Q 1805 4461 1741 4390 
Q 1722 4371 1702 4313 
Q 1683 4256 1664 4189 
Q 1645 4122 1635 4054 
Q 1626 3987 1626 3949 
L 1626 2899 
L 2874 2899 
L 2874 4262 
Q 2874 4358 2870 4476 
Q 2867 4595 2864 4710 
Q 2861 4826 2851 4931 
Q 2842 5037 2829 5114 
Q 3258 5024 3514 5043 
Q 3603 5050 3612 5030 
Q 3622 5011 3565 4954 
Q 3539 4928 3513 4854 
Q 3488 4781 3469 4681 
Q 3450 4582 3440 4473 
Q 3430 4365 3430 4269 
L 3430 2899 
L 4794 2899 
L 4794 3942 
Q 4794 4141 4781 4285 
Q 4768 4429 4736 4563 
Q 5114 4493 5357 4525 
Q 5440 4538 5453 4518 
Q 5466 4499 5434 4442 
Q 5382 4352 5360 4227 
Q 5338 4102 5338 3936 
L 5338 2778 
Q 5338 2592 5344 2445 
Q 5350 2298 5363 2138 
L 4749 2138 
Q 4762 2208 4774 2288 
Q 4787 2368 4794 2438 
L 3430 2438 
z
" transform="scale(0.015625)"/>
     </defs>
     <use xlink:href="#STHeitiSC-Medium-8a9"/>
     <use xlink:href="#STHeitiSC-Medium-15c" transform="translate(100 0)"/>
    </g>
    <!-- [B,S,H] Replicate -->
    <g transform="translate(215.464219 348.631) scale(0.09 -0.09)">
     <use xlink:href="#STHeitiSC-Medium-3d"/>
     <use xlink:href="#STHeitiSC-Medium-24" transform="translate(35.09375 0)"/>
     <use xlink:href="#STHeitiSC-Medium-e" transform="translate(92.5 0)"/>
     <use xlink:href="#STHeitiSC-Medium-35" transform="translate(120.203125 0)"/>
     <use xlink:href="#STHeitiSC-Medium-e" transform="translate(170 0)"/>
     <use xlink:href="#STHeitiSC-Medium-2a" transform="translate(197.703125 0)"/>
     <use xlink:href="#STHeitiSC-Medium-3f" transform="translate(266 0)"/>
     <use xlink:href="#STHeitiSC-Medium-3" transform="translate(301.09375 0)"/>
     <use xlink:href="#STHeitiSC-Medium-34" transform="translate(326.09375 0)"/>
     <use xlink:href="#STHeitiSC-Medium-47" transform="translate(386.796875 0)"/>
     <use xlink:href="#STHeitiSC-Medium-52" transform="translate(451.796875 0)"/>
     <use xlink:href="#STHeitiSC-Medium-4e" transform="translate(520 0)"/>
     <use xlink:href="#STHeitiSC-Medium-4b" transform="translate(540 0)"/>
     <use xlink:href="#STHeitiSC-Medium-45" transform="translate(560 0)"/>
     <use xlink:href="#STHeitiSC-Medium-43" transform="translate(624.703125 0)"/>
     <use xlink:href="#STHeitiSC-Medium-56" transform="translate(693 0)"/>
     <use xlink:href="#STHeitiSC-Medium-47" transform="translate(726.90625 0)"/>
    </g>
   </g>
   <g id="text_4">
    <!-- 基本张量并行 -->
    <g transform="translate(212.1 18.38) scale(0.13 -0.13)">
     <defs>
      <path id="STHeitiSC-Medium-5fc" d="M 3546 934 
Q 3891 941 4137 950 
Q 4384 960 4582 979 
L 4582 525 
Q 4384 544 4137 557 
Q 3891 570 3546 570 
L 3546 26 
Q 4230 26 4729 38 
Q 5229 51 5606 77 
L 5606 -429 
Q 5203 -403 4652 -390 
Q 4102 -378 3328 -378 
Q 2554 -378 2003 -390 
Q 1453 -403 1050 -429 
L 1050 77 
Q 1427 51 1920 38 
Q 2413 26 3091 26 
L 3091 576 
Q 2746 570 2496 557 
Q 2246 544 2042 525 
L 2042 979 
Q 2246 960 2496 950 
Q 2746 941 3091 934 
Q 3091 1120 3078 1293 
Q 3066 1466 3040 1587 
Q 3181 1568 3309 1558 
Q 3437 1549 3603 1549 
Q 3770 1549 3629 1446 
Q 3590 1414 3568 1347 
Q 3546 1280 3546 1222 
L 3546 934 
z
M 2310 2227 
L 4243 2227 
L 4243 2643 
L 2310 2643 
L 2310 2227 
z
M 4243 3725 
L 4243 4115 
L 2310 4115 
L 2310 3725 
L 4243 3725 
z
M 2310 3398 
L 2310 2970 
L 4243 2970 
L 4243 3398 
L 2310 3398 
z
M 2669 1856 
Q 2560 1670 2371 1472 
Q 2182 1274 1939 1072 
Q 1696 870 1405 678 
Q 1114 486 794 314 
Q 685 634 378 742 
Q 864 890 1299 1168 
Q 1734 1446 2182 1850 
Q 1843 1850 1600 1843 
Q 1357 1837 1171 1827 
Q 986 1818 845 1808 
Q 704 1798 570 1786 
L 570 2285 
Q 1171 2234 1837 2227 
L 1837 4115 
Q 1568 4109 1305 4099 
Q 1043 4090 794 4064 
L 794 4576 
Q 1293 4538 1830 4518 
Q 1824 4704 1811 4832 
Q 1798 4960 1766 5069 
Q 1914 5037 2054 5024 
Q 2195 5011 2330 5018 
Q 2400 5024 2416 4992 
Q 2432 4960 2381 4915 
Q 2336 4870 2323 4812 
Q 2310 4755 2310 4653 
L 2310 4518 
L 4237 4518 
Q 4237 4742 4224 4896 
Q 4211 5050 4192 5139 
Q 4499 5082 4781 5082 
Q 4851 5082 4867 5050 
Q 4883 5018 4832 4973 
Q 4755 4915 4729 4854 
Q 4704 4794 4704 4710 
L 4704 4518 
Q 5293 4531 5830 4576 
L 5830 4064 
Q 5562 4090 5280 4099 
Q 4998 4109 4704 4115 
L 4704 2227 
Q 5043 2234 5366 2250 
Q 5690 2266 5997 2285 
L 5997 1786 
Q 5875 1798 5747 1808 
Q 5619 1818 5456 1824 
Q 5293 1830 5081 1836 
Q 4870 1843 4582 1850 
Q 4698 1690 4832 1562 
Q 4966 1434 5136 1328 
Q 5306 1222 5520 1145 
Q 5734 1069 6016 1011 
Q 5741 762 5690 416 
Q 5434 550 5184 713 
Q 4934 877 4720 1059 
Q 4506 1242 4349 1440 
Q 4192 1638 4115 1856 
L 2669 1856 
z
" transform="scale(0.015625)"/>
      <path id="STHeitiSC-Medium-1d5" d="M 3507 877 
Q 3885 883 4163 892 
Q 4442 902 4640 928 
L 4640 371 
Q 4442 390 4150 403 
Q 3859 416 3507 422 
Q 3507 307 3513 166 
Q 3520 26 3526 -124 
Q 3533 -275 3542 -422 
Q 3552 -570 3565 -698 
L 2912 -698 
Q 2925 -570 2934 -422 
Q 2944 -275 2947 -124 
Q 2950 26 2953 166 
Q 2957 307 2957 422 
Q 2592 416 2288 403 
Q 1984 390 1779 371 
L 1779 928 
Q 1990 902 2291 892 
Q 2592 883 2957 877 
L 2957 3424 
L 2925 3424 
Q 2803 2970 2588 2512 
Q 2374 2054 2089 1628 
Q 1805 1203 1465 819 
Q 1126 435 755 128 
Q 653 262 496 384 
Q 339 506 218 557 
Q 1011 1056 1587 1750 
Q 2163 2445 2509 3424 
Q 1869 3418 1376 3408 
Q 883 3398 499 3366 
L 499 3962 
Q 960 3930 1552 3914 
Q 2144 3898 2957 3898 
L 2957 4224 
Q 2957 4666 2947 4886 
Q 2938 5107 2906 5229 
Q 2976 5216 3069 5206 
Q 3162 5197 3258 5190 
Q 3354 5184 3440 5184 
Q 3526 5184 3597 5190 
Q 3706 5203 3718 5155 
Q 3731 5107 3635 5050 
Q 3597 5030 3571 5001 
Q 3546 4973 3533 4918 
Q 3520 4864 3513 4777 
Q 3507 4691 3507 4550 
L 3507 3898 
Q 4275 3904 4848 3917 
Q 5421 3930 5856 3962 
L 5856 3366 
Q 5485 3392 5014 3405 
Q 4544 3418 3936 3424 
Q 4218 2464 4755 1824 
Q 5293 1184 6176 877 
Q 5997 755 5872 601 
Q 5747 448 5658 262 
Q 5267 512 4937 809 
Q 4608 1107 4345 1484 
Q 4083 1862 3881 2339 
Q 3680 2816 3552 3424 
L 3507 3424 
L 3507 877 
z
" transform="scale(0.015625)"/>
      <path id="STHeitiSC-Medium-2da" d="M 5344 4525 
Q 5235 4474 5132 4374 
Q 5030 4275 4896 4058 
Q 4691 3731 4499 3465 
Q 4307 3200 4141 3014 
Q 4032 3123 3923 3177 
Q 3814 3232 3686 3264 
Q 3994 3571 4278 3987 
Q 4563 4403 4755 4947 
Q 4896 4858 5072 4762 
Q 5248 4666 5344 4621 
Q 5459 4576 5344 4525 
z
M 2138 2931 
Q 2086 2938 1993 2941 
Q 1901 2944 1798 2944 
L 966 2944 
L 966 2003 
L 1728 2003 
Q 1856 2003 1974 2009 
Q 2093 2016 2157 2029 
Q 2144 1920 2134 1776 
Q 2125 1632 2112 1424 
Q 2099 1216 2086 931 
Q 2074 646 2061 262 
Q 2054 58 2016 -73 
Q 1978 -205 1862 -294 
Q 1747 -384 1532 -451 
Q 1318 -518 966 -589 
Q 954 -448 902 -320 
Q 851 -192 704 32 
Q 992 0 1161 6 
Q 1331 13 1424 64 
Q 1517 115 1549 227 
Q 1581 339 1594 518 
Q 1613 787 1619 1072 
Q 1626 1357 1626 1562 
L 870 1562 
Q 742 1562 617 1552 
Q 493 1542 435 1530 
Q 454 1722 464 1936 
Q 474 2150 486 2445 
Q 499 2714 496 2963 
Q 493 3213 480 3398 
Q 570 3386 675 3379 
Q 781 3373 909 3373 
L 1638 3373 
L 1638 4294 
L 838 4294 
Q 704 4294 598 4284 
Q 493 4275 365 4262 
L 365 4768 
Q 486 4755 732 4745 
Q 979 4736 1242 4736 
Q 1376 4736 1510 4739 
Q 1645 4742 1763 4745 
Q 1882 4749 1981 4755 
Q 2080 4762 2138 4768 
Q 2125 4582 2121 4329 
Q 2118 4077 2118 3853 
Q 2118 3584 2121 3366 
Q 2125 3149 2138 2931 
z
M 3443 2323 
L 3443 282 
Q 3590 390 3753 521 
Q 3917 653 4013 749 
Q 4032 589 4080 467 
Q 4128 346 4192 256 
L 3328 -365 
Q 3258 -416 3162 -509 
Q 3066 -602 2995 -704 
Q 2944 -557 2867 -445 
Q 2790 -333 2688 -218 
Q 2752 -179 2800 -131 
Q 2848 -83 2880 -6 
Q 2912 70 2928 188 
Q 2944 307 2944 493 
L 2944 2304 
Q 2746 2298 2576 2291 
Q 2406 2285 2253 2272 
L 2253 2803 
Q 2413 2790 2579 2780 
Q 2746 2771 2944 2765 
L 2944 4102 
Q 2944 4403 2937 4672 
Q 2931 4941 2918 5101 
Q 2995 5088 3078 5081 
Q 3162 5075 3242 5068 
Q 3322 5062 3389 5062 
Q 3456 5062 3501 5069 
Q 3667 5088 3565 4954 
Q 3507 4877 3475 4733 
Q 3443 4589 3443 4442 
L 3443 2752 
Q 3757 2746 4073 2746 
Q 4390 2746 4684 2752 
Q 4979 2758 5238 2771 
Q 5498 2784 5696 2803 
L 5696 2272 
Q 5427 2298 5116 2307 
Q 4806 2317 4365 2323 
Q 4442 1869 4592 1520 
Q 4742 1171 4953 915 
Q 5165 659 5437 486 
Q 5709 314 6035 218 
Q 5862 134 5740 -16 
Q 5619 -166 5530 -352 
Q 4826 96 4458 761 
Q 4090 1427 3949 2323 
L 3443 2323 
z
" transform="scale(0.015625)"/>
      <path id="STHeitiSC-Medium-294" d="M 5229 3315 
Q 5165 3322 5062 3328 
Q 4960 3334 4745 3337 
Q 4531 3341 4169 3344 
Q 3808 3347 3226 3347 
Q 2630 3347 2262 3344 
Q 1894 3341 1676 3337 
Q 1459 3334 1360 3328 
Q 1261 3322 1197 3315 
Q 1210 3520 1219 3712 
Q 1229 3904 1229 4102 
Q 1229 4320 1219 4502 
Q 1210 4685 1197 4870 
Q 1280 4858 1392 4848 
Q 1504 4838 1718 4835 
Q 1933 4832 2288 4829 
Q 2643 4826 3226 4826 
Q 3789 4826 4144 4829 
Q 4499 4832 4713 4838 
Q 4928 4845 5037 4851 
Q 5146 4858 5222 4870 
Q 5216 4685 5213 4502 
Q 5210 4320 5210 4102 
Q 5210 3917 5213 3712 
Q 5216 3507 5229 3315 
z
M 1690 3955 
L 1690 3629 
L 4742 3629 
L 4742 3955 
L 1690 3955 
z
M 4742 4224 
L 4742 4531 
L 1690 4531 
L 1690 4224 
L 4742 4224 
z
M 3398 1267 
L 4723 1267 
L 4723 1574 
L 3398 1574 
L 3398 1267 
z
M 2938 1574 
L 1670 1574 
L 1670 1267 
L 2938 1267 
L 2938 1574 
z
M 2938 2157 
L 1670 2157 
L 1670 1843 
L 2938 1843 
L 2938 2157 
z
M 3398 1843 
L 4723 1843 
L 4723 2157 
L 3398 2157 
L 3398 1843 
z
M 3398 -64 
Q 4211 -64 4809 -54 
Q 5408 -45 5875 -13 
L 5875 -448 
Q 5376 -422 4729 -412 
Q 4083 -403 3181 -403 
Q 2259 -403 1609 -412 
Q 960 -422 467 -448 
L 467 -13 
Q 928 -45 1523 -54 
Q 2118 -64 2938 -64 
L 2938 288 
Q 2285 282 1821 266 
Q 1357 250 986 218 
L 986 678 
Q 1370 646 1827 627 
Q 2285 608 2938 602 
L 2938 966 
Q 2534 966 2256 966 
Q 1978 966 1776 963 
Q 1574 960 1436 957 
Q 1299 954 1178 947 
Q 1197 1133 1203 1337 
Q 1210 1542 1210 1728 
Q 1210 1933 1203 2128 
Q 1197 2323 1178 2502 
Q 1267 2490 1376 2480 
Q 1485 2470 1696 2467 
Q 1907 2464 2265 2461 
Q 2624 2458 3206 2458 
Q 3776 2458 4131 2461 
Q 4486 2464 4700 2470 
Q 4915 2477 5024 2483 
Q 5133 2490 5210 2502 
Q 5190 2144 5190 1728 
Q 5190 1542 5196 1347 
Q 5203 1152 5216 947 
Q 5120 954 5005 957 
Q 4890 960 4694 963 
Q 4499 966 4192 966 
Q 3885 966 3398 966 
L 3398 602 
Q 4070 602 4534 621 
Q 4998 640 5363 678 
L 5363 218 
Q 4992 250 4528 269 
Q 4064 288 3398 288 
L 3398 -64 
z
M 5952 2682 
Q 5440 2707 4784 2720 
Q 4128 2733 3206 2733 
Q 2733 2733 2339 2729 
Q 1946 2726 1610 2720 
Q 1274 2714 986 2704 
Q 698 2694 448 2682 
L 448 3110 
Q 704 3098 992 3091 
Q 1280 3085 1616 3078 
Q 1952 3072 2342 3069 
Q 2733 3066 3206 3066 
Q 4128 3066 4784 3075 
Q 5440 3085 5952 3110 
L 5952 2682 
z
" transform="scale(0.015625)"/>
      <path id="STHeitiSC-Medium-2c4" d="M 2163 4000 
Q 2054 4256 1942 4454 
Q 1830 4653 1664 4858 
L 2234 5133 
Q 2342 4909 2460 4704 
Q 2579 4499 2758 4250 
L 2163 4000 
z
M 2093 3475 
Q 1933 3469 1753 3465 
Q 1574 3462 1401 3456 
Q 1229 3450 1075 3440 
Q 922 3430 813 3418 
L 813 3949 
Q 954 3936 1168 3923 
Q 1382 3910 1612 3904 
Q 1843 3898 2060 3894 
Q 2278 3891 2438 3891 
L 3539 3891 
Q 3654 4128 3734 4307 
Q 3814 4486 3868 4636 
Q 3923 4787 3948 4915 
Q 3974 5043 3987 5178 
Q 4058 5133 4154 5094 
Q 4250 5056 4349 5027 
Q 4448 4998 4544 4982 
Q 4640 4966 4704 4960 
Q 4787 4954 4790 4915 
Q 4794 4877 4704 4832 
Q 4659 4813 4598 4758 
Q 4538 4704 4451 4595 
Q 4365 4486 4246 4316 
Q 4128 4147 3968 3891 
Q 4378 3898 4643 3901 
Q 4909 3904 5094 3910 
Q 5280 3917 5411 3926 
Q 5542 3936 5683 3949 
L 5683 3418 
Q 5568 3430 5411 3440 
Q 5254 3450 5078 3456 
Q 4902 3462 4720 3468 
Q 4538 3475 4378 3475 
L 4378 1965 
Q 4563 1965 4787 1968 
Q 5011 1971 5235 1980 
Q 5459 1990 5670 2003 
Q 5882 2016 6048 2029 
L 6048 1466 
Q 5882 1478 5670 1488 
Q 5459 1498 5235 1504 
Q 5011 1510 4787 1513 
Q 4563 1517 4378 1517 
L 4378 550 
Q 4378 269 4394 -60 
Q 4410 -390 4435 -730 
L 3827 -730 
Q 3853 -390 3865 -60 
Q 3878 269 3878 550 
L 3878 1517 
L 2579 1517 
Q 2547 1184 2444 896 
Q 2342 608 2150 349 
Q 1958 90 1670 -150 
Q 1382 -390 973 -627 
Q 883 -480 771 -387 
Q 659 -294 467 -218 
Q 890 -51 1181 134 
Q 1472 320 1661 531 
Q 1850 742 1946 988 
Q 2042 1235 2074 1517 
Q 1882 1517 1654 1513 
Q 1427 1510 1193 1504 
Q 960 1498 739 1488 
Q 518 1478 352 1466 
L 352 2029 
Q 512 2016 733 2003 
Q 954 1990 1190 1980 
Q 1427 1971 1664 1968 
Q 1901 1965 2093 1965 
L 2093 3475 
z
M 2598 3475 
L 2598 1965 
L 3878 1965 
L 3878 3475 
L 2598 3475 
z
" transform="scale(0.015625)"/>
      <path id="STHeitiSC-Medium-1c4" d="M 2266 4749 
Q 2355 4710 2348 4672 
Q 2342 4634 2253 4614 
Q 2221 4608 2176 4582 
Q 2131 4557 2064 4499 
Q 1997 4442 1904 4339 
Q 1811 4237 1683 4083 
Q 1626 4013 1523 3904 
Q 1421 3795 1299 3673 
Q 1178 3552 1050 3433 
Q 922 3315 826 3226 
Q 755 3334 649 3427 
Q 544 3520 435 3584 
Q 678 3750 873 3955 
Q 1069 4160 1254 4416 
Q 1421 4627 1526 4800 
Q 1632 4973 1702 5120 
Q 1760 5069 1833 5014 
Q 1907 4960 1987 4909 
Q 2067 4858 2140 4813 
Q 2214 4768 2266 4749 
z
M 5683 4096 
Q 5440 4128 5120 4141 
Q 4800 4154 4358 4154 
Q 3917 4154 3593 4141 
Q 3270 4128 3027 4096 
L 3027 4685 
Q 3270 4653 3593 4643 
Q 3917 4634 4358 4634 
Q 4800 4634 5120 4643 
Q 5440 4653 5683 4685 
L 5683 4096 
z
M 4960 64 
Q 4960 -122 4918 -250 
Q 4877 -378 4742 -461 
Q 4608 -544 4361 -585 
Q 4115 -627 3706 -646 
Q 3693 -493 3622 -339 
Q 3552 -186 3405 26 
Q 3712 -13 3907 -9 
Q 4102 -6 4211 29 
Q 4320 64 4361 125 
Q 4403 186 4403 262 
L 4403 2509 
Q 3795 2509 3385 2493 
Q 2976 2477 2656 2451 
L 2656 3040 
Q 2816 3027 2998 3017 
Q 3181 3008 3392 3001 
Q 3603 2995 3856 2992 
Q 4109 2989 4410 2989 
Q 4710 2989 4950 2992 
Q 5190 2995 5388 3001 
Q 5587 3008 5756 3017 
Q 5926 3027 6093 3040 
L 6093 2451 
Q 5843 2477 5580 2486 
Q 5318 2496 4960 2502 
L 4960 64 
z
M 1773 -640 
L 1184 -640 
Q 1216 -371 1229 -131 
Q 1242 109 1242 390 
L 1242 1830 
Q 1101 1670 957 1516 
Q 813 1363 678 1216 
Q 570 1466 307 1696 
Q 570 1894 842 2172 
Q 1114 2451 1318 2752 
Q 1498 3014 1626 3222 
Q 1754 3430 1850 3635 
Q 1907 3590 1977 3539 
Q 2048 3488 2121 3440 
Q 2195 3392 2265 3350 
Q 2336 3309 2387 3283 
Q 2470 3238 2467 3203 
Q 2464 3168 2374 3149 
Q 2336 3136 2173 2979 
Q 2010 2822 1773 2496 
L 1773 -640 
z
" transform="scale(0.015625)"/>
     </defs>
     <use xlink:href="#STHeitiSC-Medium-5fc"/>
     <use xlink:href="#STHeitiSC-Medium-1d5" transform="translate(100 0)"/>
     <use xlink:href="#STHeitiSC-Medium-2da" transform="translate(200 0)"/>
     <use xlink:href="#STHeitiSC-Medium-294" transform="translate(300 0)"/>
     <use xlink:href="#STHeitiSC-Medium-2c4" transform="translate(400 0)"/>
     <use xlink:href="#STHeitiSC-Medium-1c4" transform="translate(500 0)"/>
    </g>
   </g>
  </g>
  <g id="axes_2">
   <g id="patch_8">
    <path d="M 554.58 386.8624 
L 944.82 386.8624 
Q 954.576 386.8624 954.576 379.178 
L 954.576 52.591 
Q 954.576 44.9066 944.82 44.9066 
L 554.58 44.9066 
Q 544.824 44.9066 544.824 52.591 
L 544.824 379.178 
Q 544.824 386.8624 554.58 386.8624 
z
" clip-path="url(#pe71d387583)" style="fill: #fafafa; stroke: #bdbdbd; stroke-width: 1.5; stroke-linejoin: miter"/>
   </g>
   <g id="patch_9">
    <path d="M 603.36 152.4882 
L 896.04 152.4882 
Q 900.918 152.4882 900.918 148.646 
L 900.918 110.224 
Q 900.918 106.3818 896.04 106.3818 
L 603.36 106.3818 
Q 598.482 106.3818 598.482 110.224 
L 598.482 148.646 
Q 598.482 152.4882 603.36 152.4882 
z
" clip-path="url(#pe71d387583)" style="fill: #e0f7fa; stroke: #00838f; stroke-width: 2; stroke-linejoin: miter"/>
   </g>
   <g id="patch_10">
    <path d="M 603.36 205.31845 
L 896.04 205.31845 
Q 900.918 205.31845 900.918 201.47625 
L 900.918 163.05425 
Q 900.918 159.21205 896.04 159.21205 
L 603.36 159.21205 
Q 598.482 159.21205 598.482 163.05425 
L 598.482 201.47625 
Q 598.482 205.31845 603.36 205.31845 
z
" clip-path="url(#pe71d387583)" style="fill: #e0f7fa; stroke: #00838f; stroke-width: 2; stroke-linejoin: miter"/>
   </g>
   <g id="patch_11">
    <path d="M 603.36 258.1487 
L 896.04 258.1487 
Q 900.918 258.1487 900.918 254.3065 
L 900.918 215.8845 
Q 900.918 212.0423 896.04 212.0423 
L 603.36 212.0423 
Q 598.482 212.0423 598.482 215.8845 
L 598.482 254.3065 
Q 598.482 258.1487 603.36 258.1487 
z
" clip-path="url(#pe71d387583)" style="fill: #f3e5f5; stroke: #6a1b9a; stroke-width: 2; stroke-linejoin: miter"/>
   </g>
   <g id="patch_12">
    <path d="M 603.36 310.97895 
L 896.04 310.97895 
Q 900.918 310.97895 900.918 307.13675 
L 900.918 268.71475 
Q 900.918 264.87255 896.04 264.87255 
L 603.36 264.87255 
Q 598.482 264.87255 598.482 268.71475 
L 598.482 307.13675 
Q 598.482 310.97895 603.36 310.97895 
z
" clip-path="url(#pe71d387583)" style="fill: #fff3e0; stroke: #ef6c00; stroke-width: 2; stroke-linejoin: miter"/>
   </g>
   <g id="patch_13">
    <path d="M 603.36 363.8092 
L 896.04 363.8092 
Q 900.918 363.8092 900.918 359.967 
L 900.918 321.545 
Q 900.918 317.7028 896.04 317.7028 
L 603.36 317.7028 
Q 598.482 317.7028 598.482 321.545 
L 598.482 359.967 
Q 598.482 363.8092 603.36 363.8092 
z
" clip-path="url(#pe71d387583)" style="fill: #e0f7fa; stroke: #00838f; stroke-width: 2; stroke-linejoin: miter"/>
   </g>
   <g id="text_5">
    <!-- 输入 -->
    <g transform="translate(740.7 127.846641) scale(0.09 -0.09)">
     <use xlink:href="#STHeitiSC-Medium-8a9"/>
     <use xlink:href="#STHeitiSC-Medium-24d" transform="translate(100 0)"/>
    </g>
    <!-- [B,S/tp,H] Shard(1) -->
    <g transform="translate(710.153437 137.503359) scale(0.09 -0.09)">
     <defs>
      <path id="STHeitiSC-Medium-4a" d="M 3501 384 
L 2970 384 
L 2970 2048 
Q 2970 2534 2941 2732 
Q 2912 2931 2809 3107 
Q 2707 3283 2531 3376 
Q 2355 3469 2108 3469 
Q 1862 3469 1638 3353 
Q 1414 3238 1254 3033 
Q 1094 2829 1033 2598 
Q 973 2368 973 1677 
L 973 384 
L 442 384 
L 442 5184 
L 973 5184 
L 973 3347 
Q 1491 3962 2202 3962 
Q 2579 3962 2886 3766 
Q 3194 3571 3347 3228 
Q 3501 2886 3501 2176 
L 3501 384 
z
" transform="scale(0.015625)"/>
      <path id="STHeitiSC-Medium-54" d="M 1914 3821 
L 1638 3373 
Q 1530 3430 1427 3430 
Q 1229 3430 1069 3235 
Q 909 3040 829 2723 
Q 749 2406 749 1581 
L 749 384 
L 211 384 
L 211 3872 
L 749 3872 
L 749 3494 
Q 909 3731 1072 3846 
Q 1235 3962 1443 3962 
Q 1651 3962 1914 3821 
z
" transform="scale(0.015625)"/>
      <path id="STHeitiSC-Medium-46" d="M 3923 384 
L 3405 384 
L 3405 896 
Q 2835 269 2089 269 
Q 1344 269 819 813 
Q 294 1357 294 2118 
Q 294 2880 825 3421 
Q 1357 3962 2121 3962 
Q 2886 3962 3405 3341 
L 3405 5184 
L 3923 5184 
L 3923 384 
z
M 2131 762 
Q 2637 762 3033 1139 
Q 3430 1517 3430 2096 
Q 3430 2675 3062 3062 
Q 2694 3450 2134 3450 
Q 1574 3450 1200 3050 
Q 826 2650 826 2109 
Q 826 1568 1210 1165 
Q 1594 762 2131 762 
z
" transform="scale(0.015625)"/>
      <path id="STHeitiSC-Medium-a" d="M 2048 5779 
Q 1709 5082 1526 4237 
Q 1344 3392 1344 2541 
Q 1344 877 1888 -442 
L 1312 -442 
Q 787 819 787 2483 
Q 787 4275 1440 5779 
L 2048 5779 
z
" transform="scale(0.015625)"/>
      <path id="STHeitiSC-Medium-13" d="M 2131 384 
L 1587 384 
L 1587 4531 
L 826 4531 
L 1158 5069 
L 2131 5069 
L 2131 384 
z
" transform="scale(0.015625)"/>
      <path id="STHeitiSC-Medium-b" d="M 922 5779 
Q 1574 4275 1574 2483 
Q 1574 819 1050 -442 
L 474 -442 
Q 1018 877 1018 2541 
Q 1018 3392 835 4237 
Q 653 5082 314 5779 
L 922 5779 
z
" transform="scale(0.015625)"/>
     </defs>
     <use xlink:href="#STHeitiSC-Medium-3d"/>
     <use xlink:href="#STHeitiSC-Medium-24" transform="translate(35.09375 0)"/>
     <use xlink:href="#STHeitiSC-Medium-e" transform="translate(92.5 0)"/>
     <use xlink:href="#STHeitiSC-Medium-35" transform="translate(120.203125 0)"/>
     <use xlink:href="#STHeitiSC-Medium-11" transform="translate(170 0)"/>
     <use xlink:href="#STHeitiSC-Medium-56" transform="translate(213.703125 0)"/>
     <use xlink:href="#STHeitiSC-Medium-52" transform="translate(247.609375 0)"/>
     <use xlink:href="#STHeitiSC-Medium-e" transform="translate(315.8125 0)"/>
     <use xlink:href="#STHeitiSC-Medium-2a" transform="translate(343.515625 0)"/>
     <use xlink:href="#STHeitiSC-Medium-3f" transform="translate(411.8125 0)"/>
     <use xlink:href="#STHeitiSC-Medium-3" transform="translate(446.90625 0)"/>
     <use xlink:href="#STHeitiSC-Medium-35" transform="translate(471.90625 0)"/>
     <use xlink:href="#STHeitiSC-Medium-4a" transform="translate(521.703125 0)"/>
     <use xlink:href="#STHeitiSC-Medium-43" transform="translate(582.703125 0)"/>
     <use xlink:href="#STHeitiSC-Medium-54" transform="translate(651 0)"/>
     <use xlink:href="#STHeitiSC-Medium-46" transform="translate(681.09375 0)"/>
     <use xlink:href="#STHeitiSC-Medium-a" transform="translate(749.59375 0)"/>
     <use xlink:href="#STHeitiSC-Medium-13" transform="translate(786.5 0)"/>
     <use xlink:href="#STHeitiSC-Medium-b" transform="translate(841.90625 0)"/>
    </g>
   </g>
   <g id="patch_14">
    <path d="M 749.7 154.487626 
Q 749.7 155.850973 749.7 155.537269 
" style="fill: none; stroke: #424242; stroke-width: 1.5; stroke-linecap: round"/>
    <path d="M 751.7 151.537269 
L 749.7 155.537269 
L 747.7 151.537269 
" style="fill: none; stroke: #424242; stroke-width: 1.5; stroke-linecap: round"/>
   </g>
   <g id="text_6">
    <!-- RMSNorm -->
    <g transform="translate(728.739141 180.87025) scale(0.09 -0.09)">
     <defs>
      <path id="STHeitiSC-Medium-2f" d="M 5581 384 
L 5037 384 
L 4602 3571 
L 3027 384 
L 2861 384 
L 1267 3597 
L 832 384 
L 301 384 
L 966 5069 
L 1101 5069 
L 2944 1350 
L 4774 5069 
L 4909 5069 
L 5581 384 
z
" transform="scale(0.015625)"/>
      <path id="STHeitiSC-Medium-4f" d="M 5613 384 
L 5075 384 
L 5075 2285 
Q 5075 2739 5020 2950 
Q 4966 3162 4784 3306 
Q 4602 3450 4304 3450 
Q 4006 3450 3744 3258 
Q 3482 3066 3379 2736 
Q 3277 2406 3277 1760 
L 3277 384 
L 2758 384 
L 2758 2170 
Q 2758 2694 2704 2924 
Q 2650 3155 2464 3302 
Q 2278 3450 1996 3450 
Q 1715 3450 1462 3274 
Q 1210 3098 1088 2813 
Q 966 2528 966 1869 
L 966 384 
L 442 384 
L 442 3872 
L 966 3872 
L 966 3379 
Q 1414 3962 2086 3962 
Q 2451 3962 2748 3766 
Q 3046 3571 3174 3213 
Q 3392 3578 3718 3770 
Q 4045 3962 4410 3962 
Q 4909 3962 5261 3610 
Q 5613 3258 5613 2285 
L 5613 384 
z
" transform="scale(0.015625)"/>
     </defs>
     <use xlink:href="#STHeitiSC-Medium-34"/>
     <use xlink:href="#STHeitiSC-Medium-2f" transform="translate(60.703125 0)"/>
     <use xlink:href="#STHeitiSC-Medium-35" transform="translate(152.609375 0)"/>
     <use xlink:href="#STHeitiSC-Medium-30" transform="translate(202.40625 0)"/>
     <use xlink:href="#STHeitiSC-Medium-51" transform="translate(276.40625 0)"/>
     <use xlink:href="#STHeitiSC-Medium-54" transform="translate(341.90625 0)"/>
     <use xlink:href="#STHeitiSC-Medium-4f" transform="translate(372 0)"/>
    </g>
    <!-- 分片计算 -->
    <g transform="translate(731.7 190.14025) scale(0.09 -0.09)">
     <use xlink:href="#STHeitiSC-Medium-153"/>
     <use xlink:href="#STHeitiSC-Medium-1e6" transform="translate(100 0)"/>
     <use xlink:href="#STHeitiSC-Medium-374" transform="translate(200 0)"/>
     <use xlink:href="#STHeitiSC-Medium-39a" transform="translate(300 0)"/>
    </g>
   </g>
   <g id="patch_15">
    <path d="M 749.7 207.317876 
Q 749.7 208.681223 749.7 208.367519 
" style="fill: none; stroke: #424242; stroke-width: 1.5; stroke-linecap: round"/>
    <path d="M 751.7 204.367519 
L 749.7 208.367519 
L 747.7 204.367519 
" style="fill: none; stroke: #424242; stroke-width: 1.5; stroke-linecap: round"/>
   </g>
   <g id="text_7">
    <!-- PrepareModuleInput -->
    <g transform="translate(704.515781 233.507141) scale(0.09 -0.09)">
     <defs>
      <path id="STHeitiSC-Medium-32" d="M 512 5069 
L 1472 5069 
Q 2291 5069 2547 5005 
Q 2803 4941 3017 4774 
Q 3232 4608 3353 4358 
Q 3475 4109 3475 3795 
Q 3475 3482 3356 3232 
Q 3238 2982 3017 2819 
Q 2797 2656 2477 2589 
Q 2157 2522 1344 2522 
L 1062 2522 
L 1062 384 
L 512 384 
L 512 5069 
z
M 1062 3053 
L 1792 3053 
Q 2438 3040 2672 3257 
Q 2906 3475 2906 3802 
Q 2906 4531 1830 4531 
L 1062 4531 
L 1062 3053 
z
" transform="scale(0.015625)"/>
      <path id="STHeitiSC-Medium-57" d="M 3450 384 
L 2918 384 
L 2918 909 
Q 2400 294 1690 294 
Q 1312 294 1005 489 
Q 698 685 544 1027 
Q 390 1370 390 2080 
L 390 3872 
L 915 3872 
L 915 2208 
Q 915 1632 969 1424 
Q 1024 1216 1129 1072 
Q 1235 928 1398 857 
Q 1562 787 1795 787 
Q 2029 787 2253 902 
Q 2477 1018 2637 1222 
Q 2797 1427 2857 1657 
Q 2918 1888 2918 2579 
L 2918 3872 
L 3450 3872 
L 3450 384 
z
" transform="scale(0.015625)"/>
      <path id="STHeitiSC-Medium-2b" d="M 998 384 
L 448 384 
L 448 5069 
L 998 5069 
L 998 384 
z
" transform="scale(0.015625)"/>
     </defs>
     <use xlink:href="#STHeitiSC-Medium-32"/>
     <use xlink:href="#STHeitiSC-Medium-54" transform="translate(59.203125 0)"/>
     <use xlink:href="#STHeitiSC-Medium-47" transform="translate(89.296875 0)"/>
     <use xlink:href="#STHeitiSC-Medium-52" transform="translate(154.296875 0)"/>
     <use xlink:href="#STHeitiSC-Medium-43" transform="translate(222.5 0)"/>
     <use xlink:href="#STHeitiSC-Medium-54" transform="translate(290.796875 0)"/>
     <use xlink:href="#STHeitiSC-Medium-47" transform="translate(320.890625 0)"/>
     <use xlink:href="#STHeitiSC-Medium-2f" transform="translate(385.890625 0)"/>
     <use xlink:href="#STHeitiSC-Medium-51" transform="translate(477.796875 0)"/>
     <use xlink:href="#STHeitiSC-Medium-46" transform="translate(543.296875 0)"/>
     <use xlink:href="#STHeitiSC-Medium-57" transform="translate(611.796875 0)"/>
     <use xlink:href="#STHeitiSC-Medium-4e" transform="translate(672.59375 0)"/>
     <use xlink:href="#STHeitiSC-Medium-47" transform="translate(692.59375 0)"/>
     <use xlink:href="#STHeitiSC-Medium-2b" transform="translate(757.59375 0)"/>
     <use xlink:href="#STHeitiSC-Medium-50" transform="translate(780.1875 0)"/>
     <use xlink:href="#STHeitiSC-Medium-52" transform="translate(841.1875 0)"/>
     <use xlink:href="#STHeitiSC-Medium-57" transform="translate(909.390625 0)"/>
     <use xlink:href="#STHeitiSC-Medium-56" transform="translate(970.1875 0)"/>
    </g>
    <!-- Shard(1) → Replicate -->
    <g transform="translate(703.677656 243.163859) scale(0.09 -0.09)">
     <defs>
      <path id="STHeitiSC-Medium-c0c6" d="M 6086 2285 
L 4115 1114 
L 4115 2131 
L 262 2131 
L 262 2477 
L 4115 2477 
L 4115 3526 
L 6086 2285 
z
" transform="scale(0.015625)"/>
     </defs>
     <use xlink:href="#STHeitiSC-Medium-35"/>
     <use xlink:href="#STHeitiSC-Medium-4a" transform="translate(49.796875 0)"/>
     <use xlink:href="#STHeitiSC-Medium-43" transform="translate(110.796875 0)"/>
     <use xlink:href="#STHeitiSC-Medium-54" transform="translate(179.09375 0)"/>
     <use xlink:href="#STHeitiSC-Medium-46" transform="translate(209.1875 0)"/>
     <use xlink:href="#STHeitiSC-Medium-a" transform="translate(277.6875 0)"/>
     <use xlink:href="#STHeitiSC-Medium-13" transform="translate(314.59375 0)"/>
     <use xlink:href="#STHeitiSC-Medium-b" transform="translate(370 0)"/>
     <use xlink:href="#STHeitiSC-Medium-3" transform="translate(406.90625 0)"/>
     <use xlink:href="#STHeitiSC-Medium-c0c6" transform="translate(431.90625 0)"/>
     <use xlink:href="#STHeitiSC-Medium-3" transform="translate(531.90625 0)"/>
     <use xlink:href="#STHeitiSC-Medium-34" transform="translate(556.90625 0)"/>
     <use xlink:href="#STHeitiSC-Medium-47" transform="translate(617.609375 0)"/>
     <use xlink:href="#STHeitiSC-Medium-52" transform="translate(682.609375 0)"/>
     <use xlink:href="#STHeitiSC-Medium-4e" transform="translate(750.8125 0)"/>
     <use xlink:href="#STHeitiSC-Medium-4b" transform="translate(770.8125 0)"/>
     <use xlink:href="#STHeitiSC-Medium-45" transform="translate(790.8125 0)"/>
     <use xlink:href="#STHeitiSC-Medium-43" transform="translate(855.515625 0)"/>
     <use xlink:href="#STHeitiSC-Medium-56" transform="translate(923.8125 0)"/>
     <use xlink:href="#STHeitiSC-Medium-47" transform="translate(957.71875 0)"/>
    </g>
   </g>
   <g id="patch_16">
    <path d="M 749.7 260.148126 
Q 749.7 261.511473 749.7 261.197769 
" style="fill: none; stroke: #424242; stroke-width: 1.5; stroke-linecap: round"/>
    <path d="M 751.7 257.197769 
L 749.7 261.197769 
L 747.7 257.197769 
" style="fill: none; stroke: #424242; stroke-width: 1.5; stroke-linecap: round"/>
   </g>
   <g id="text_8">
    <!-- Attention / FFN -->
    <g transform="translate(717.618516 286.53075) scale(0.09 -0.09)">
     <use xlink:href="#STHeitiSC-Medium-23"/>
     <use xlink:href="#STHeitiSC-Medium-56" transform="translate(74 0)"/>
     <use xlink:href="#STHeitiSC-Medium-56" transform="translate(107.90625 0)"/>
     <use xlink:href="#STHeitiSC-Medium-47" transform="translate(141.8125 0)"/>
     <use xlink:href="#STHeitiSC-Medium-50" transform="translate(206.8125 0)"/>
     <use xlink:href="#STHeitiSC-Medium-56" transform="translate(267.8125 0)"/>
     <use xlink:href="#STHeitiSC-Medium-4b" transform="translate(301.71875 0)"/>
     <use xlink:href="#STHeitiSC-Medium-51" transform="translate(321.71875 0)"/>
     <use xlink:href="#STHeitiSC-Medium-50" transform="translate(387.21875 0)"/>
     <use xlink:href="#STHeitiSC-Medium-3" transform="translate(448.21875 0)"/>
     <use xlink:href="#STHeitiSC-Medium-11" transform="translate(473.21875 0)"/>
     <use xlink:href="#STHeitiSC-Medium-3" transform="translate(516.921875 0)"/>
     <use xlink:href="#STHeitiSC-Medium-28" transform="translate(541.921875 0)"/>
     <use xlink:href="#STHeitiSC-Medium-28" transform="translate(590.421875 0)"/>
     <use xlink:href="#STHeitiSC-Medium-30" transform="translate(638.921875 0)"/>
    </g>
    <!-- 内部分片计算 -->
    <g transform="translate(722.7 295.80075) scale(0.09 -0.09)">
     <use xlink:href="#STHeitiSC-Medium-2ad"/>
     <use xlink:href="#STHeitiSC-Medium-2cc" transform="translate(100 0)"/>
     <use xlink:href="#STHeitiSC-Medium-153" transform="translate(200 0)"/>
     <use xlink:href="#STHeitiSC-Medium-1e6" transform="translate(300 0)"/>
     <use xlink:href="#STHeitiSC-Medium-374" transform="translate(400 0)"/>
     <use xlink:href="#STHeitiSC-Medium-39a" transform="translate(500 0)"/>
    </g>
   </g>
   <g id="patch_17">
    <path d="M 749.7 312.978376 
Q 749.7 314.341723 749.7 314.028019 
" style="fill: none; stroke: #424242; stroke-width: 1.5; stroke-linecap: round"/>
    <path d="M 751.7 310.028019 
L 749.7 314.028019 
L 747.7 310.028019 
" style="fill: none; stroke: #424242; stroke-width: 1.5; stroke-linecap: round"/>
   </g>
   <g id="text_9">
    <!-- 输出 -->
    <g transform="translate(740.7 339.167641) scale(0.09 -0.09)">
     <use xlink:href="#STHeitiSC-Medium-8a9"/>
     <use xlink:href="#STHeitiSC-Medium-15c" transform="translate(100 0)"/>
    </g>
    <!-- [B,S/tp,H] Shard(1) -->
    <g transform="translate(710.153437 348.824359) scale(0.09 -0.09)">
     <use xlink:href="#STHeitiSC-Medium-3d"/>
     <use xlink:href="#STHeitiSC-Medium-24" transform="translate(35.09375 0)"/>
     <use xlink:href="#STHeitiSC-Medium-e" transform="translate(92.5 0)"/>
     <use xlink:href="#STHeitiSC-Medium-35" transform="translate(120.203125 0)"/>
     <use xlink:href="#STHeitiSC-Medium-11" transform="translate(170 0)"/>
     <use xlink:href="#STHeitiSC-Medium-56" transform="translate(213.703125 0)"/>
     <use xlink:href="#STHeitiSC-Medium-52" transform="translate(247.609375 0)"/>
     <use xlink:href="#STHeitiSC-Medium-e" transform="translate(315.8125 0)"/>
     <use xlink:href="#STHeitiSC-Medium-2a" transform="translate(343.515625 0)"/>
     <use xlink:href="#STHeitiSC-Medium-3f" transform="translate(411.8125 0)"/>
     <use xlink:href="#STHeitiSC-Medium-3" transform="translate(446.90625 0)"/>
     <use xlink:href="#STHeitiSC-Medium-35" transform="translate(471.90625 0)"/>
     <use xlink:href="#STHeitiSC-Medium-4a" transform="translate(521.703125 0)"/>
     <use xlink:href="#STHeitiSC-Medium-43" transform="translate(582.703125 0)"/>
     <use xlink:href="#STHeitiSC-Medium-54" transform="translate(651 0)"/>
     <use xlink:href="#STHeitiSC-Medium-46" transform="translate(681.09375 0)"/>
     <use xlink:href="#STHeitiSC-Medium-a" transform="translate(749.59375 0)"/>
     <use xlink:href="#STHeitiSC-Medium-13" transform="translate(786.5 0)"/>
     <use xlink:href="#STHeitiSC-Medium-b" transform="translate(841.90625 0)"/>
    </g>
   </g>
   <g id="text_10">
    <!-- 序列并行 -->
    <g transform="translate(723.7 18.38) scale(0.13 -0.13)">
     <defs>
      <path id="STHeitiSC-Medium-6d6" d="M 4723 3085 
L 3360 3085 
Q 3200 3085 3033 3081 
Q 2867 3078 2713 3075 
Q 2560 3072 2429 3062 
Q 2298 3053 2202 3040 
L 2202 3558 
Q 2406 3533 2844 3517 
Q 3283 3501 3885 3501 
Q 4474 3501 4918 3517 
Q 5363 3533 5574 3558 
L 5574 3021 
Q 5491 3014 5385 2976 
Q 5280 2938 5113 2842 
Q 4947 2746 4704 2582 
Q 4461 2419 4109 2163 
Q 4154 2125 4192 2080 
Q 4230 2035 4262 1990 
Q 4550 1990 4793 1993 
Q 5037 1997 5245 2003 
Q 5453 2010 5638 2022 
Q 5824 2035 6003 2054 
L 5594 858 
L 5037 960 
L 5293 1568 
L 4147 1568 
L 4147 -192 
Q 4147 -307 4092 -403 
Q 4038 -499 3910 -566 
Q 3782 -634 3561 -672 
Q 3341 -710 3014 -717 
Q 3002 -582 2938 -406 
Q 2874 -230 2752 -70 
Q 3027 -102 3200 -105 
Q 3373 -109 3462 -86 
Q 3552 -64 3584 -13 
Q 3616 38 3616 109 
L 3616 1568 
Q 2957 1568 2534 1555 
Q 2112 1542 1843 1530 
L 1843 2042 
Q 1971 2029 2166 2022 
Q 2362 2016 2598 2006 
Q 2835 1997 3100 1993 
Q 3366 1990 3635 1990 
Q 3514 2138 3334 2291 
Q 3155 2445 2989 2541 
L 3283 2874 
Q 3533 2726 3827 2438 
L 4723 3085 
z
M 3386 4493 
Q 3341 4659 3283 4822 
Q 3226 4986 3155 5133 
L 3763 5254 
Q 3821 5069 3875 4873 
Q 3930 4678 3981 4493 
Q 4461 4493 4806 4499 
Q 5152 4506 5392 4512 
Q 5632 4518 5789 4531 
Q 5946 4544 6054 4557 
L 6054 3981 
Q 5830 4006 5398 4016 
Q 4966 4026 4397 4026 
L 1587 4026 
Q 1587 3296 1577 2742 
Q 1568 2189 1542 1769 
Q 1517 1350 1472 1030 
Q 1427 710 1350 444 
Q 1274 179 1168 -57 
Q 1062 -294 915 -550 
Q 787 -448 659 -371 
Q 531 -294 346 -256 
Q 512 -19 637 211 
Q 762 442 842 714 
Q 922 986 966 1328 
Q 1011 1670 1024 2124 
Q 1037 2579 1021 3174 
Q 1005 3770 966 4557 
Q 1158 4538 1376 4528 
Q 1594 4518 1872 4508 
Q 2150 4499 2518 4496 
Q 2886 4493 3386 4493 
z
" transform="scale(0.015625)"/>
      <path id="STHeitiSC-Medium-509" d="M 5837 4954 
Q 5792 4922 5779 4886 
Q 5766 4851 5766 4762 
L 5766 250 
Q 5766 6 5734 -147 
Q 5702 -301 5590 -397 
Q 5478 -493 5264 -553 
Q 5050 -614 4678 -678 
Q 4627 -346 4352 6 
Q 4653 -6 4829 0 
Q 5005 6 5097 51 
Q 5190 96 5216 179 
Q 5242 262 5242 397 
L 5242 4070 
Q 5242 4448 5232 4713 
Q 5222 4979 5210 5133 
Q 5338 5107 5501 5094 
Q 5664 5082 5779 5088 
Q 5875 5094 5888 5052 
Q 5901 5011 5837 4954 
z
M 4614 4154 
Q 4544 4109 4544 3949 
L 4544 1747 
Q 4544 1555 4550 1356 
Q 4557 1158 4576 934 
L 4013 934 
Q 4026 1171 4032 1363 
Q 4038 1555 4038 1747 
L 4038 3590 
Q 4038 3834 4032 4003 
Q 4026 4173 4013 4301 
Q 4160 4275 4310 4272 
Q 4461 4269 4582 4282 
Q 4666 4294 4675 4249 
Q 4685 4205 4614 4154 
z
M 3507 3379 
Q 3424 2656 3264 2067 
Q 3104 1478 2886 1062 
Q 2778 864 2602 643 
Q 2426 422 2198 208 
Q 1971 -6 1705 -208 
Q 1440 -410 1165 -576 
Q 1133 -531 1075 -467 
Q 1018 -403 950 -339 
Q 883 -275 812 -220 
Q 742 -166 691 -134 
Q 890 -58 1114 70 
Q 1338 198 1555 358 
Q 1773 518 1965 700 
Q 2157 883 2291 1069 
Q 2221 1146 2125 1248 
Q 2029 1350 1923 1449 
Q 1818 1549 1709 1641 
Q 1600 1734 1517 1798 
L 1888 2163 
Q 2061 2022 2224 1878 
Q 2387 1734 2560 1568 
Q 2637 1728 2691 1872 
Q 2746 2016 2790 2169 
Q 2835 2323 2867 2502 
Q 2899 2682 2931 2912 
L 1894 2912 
Q 1811 2714 1702 2506 
Q 1594 2298 1472 2096 
Q 1350 1894 1219 1708 
Q 1088 1523 966 1382 
Q 877 1491 752 1574 
Q 627 1658 493 1696 
Q 736 1907 941 2188 
Q 1146 2470 1306 2796 
Q 1466 3123 1571 3481 
Q 1677 3840 1728 4205 
Q 1363 4198 1097 4185 
Q 832 4173 608 4147 
L 608 4730 
Q 896 4698 1261 4682 
Q 1626 4666 2163 4666 
Q 2707 4666 3068 4682 
Q 3430 4698 3718 4730 
L 3718 4147 
Q 3443 4179 3097 4195 
Q 2752 4211 2246 4211 
Q 2202 3821 2054 3379 
L 3507 3379 
z
" transform="scale(0.015625)"/>
     </defs>
     <use xlink:href="#STHeitiSC-Medium-6d6"/>
     <use xlink:href="#STHeitiSC-Medium-509" transform="translate(100 0)"/>
     <use xlink:href="#STHeitiSC-Medium-2c4" transform="translate(200 0)"/>
     <use xlink:href="#STHeitiSC-Medium-1c4" transform="translate(300 0)"/>
    </g>
   </g>
  </g>
  <g id="text_11">
   <g id="patch_18">
    <path d="M 486.4 223.6 
L 514.4 223.6 
Q 518.6 223.6 518.6 219.4 
L 518.6 205.4 
Q 518.6 201.2 514.4 201.2 
L 486.4 201.2 
Q 482.2 201.2 482.2 205.4 
L 482.2 219.4 
Q 482.2 223.6 486.4 223.6 
z
" style="fill: #fff9c4; stroke: #f9a825; stroke-width: 2; stroke-linejoin: miter"/>
   </g>
   <!-- 进化 -->
   <g transform="translate(486.4 217.44) scale(0.14 -0.14)">
    <defs>
     <path id="STHeitiSC-Medium-258" d="M 1152 3642 
Q 1082 3930 944 4227 
Q 806 4525 653 4736 
L 1216 4954 
Q 1274 4845 1341 4704 
Q 1408 4563 1478 4419 
Q 1549 4275 1613 4134 
Q 1677 3994 1728 3891 
L 1152 3642 
z
M 1587 499 
Q 1658 467 1750 425 
Q 1843 384 1952 320 
Q 2176 192 2563 115 
Q 2950 38 3478 19 
Q 4006 0 4662 45 
Q 5318 90 6086 211 
Q 5978 0 5942 -137 
Q 5907 -275 5907 -442 
Q 4979 -493 4320 -499 
Q 3661 -506 3181 -458 
Q 2701 -410 2355 -307 
Q 2010 -205 1702 -45 
Q 1549 32 1446 64 
Q 1344 96 1245 54 
Q 1146 13 1030 -115 
Q 915 -243 736 -480 
Q 634 -352 534 -253 
Q 435 -154 307 -64 
Q 582 192 755 326 
Q 928 461 1062 512 
L 1062 2554 
Q 794 2554 672 2550 
Q 550 2547 435 2528 
L 435 3078 
Q 563 3059 716 3052 
Q 870 3046 1027 3046 
Q 1184 3046 1341 3056 
Q 1498 3066 1632 3078 
Q 1606 2906 1596 2746 
Q 1587 2586 1587 2330 
L 1587 499 
z
M 3533 3629 
Q 3533 3392 3526 3129 
Q 3520 2867 3501 2598 
L 4384 2598 
L 4384 3629 
L 3533 3629 
z
M 4870 4051 
Q 5114 4051 5366 4064 
Q 5619 4077 5837 4102 
L 5837 3578 
Q 5619 3603 5366 3616 
Q 5114 3629 4870 3629 
L 4870 2598 
Q 5158 2598 5456 2611 
Q 5754 2624 5978 2650 
L 5978 2125 
Q 5754 2150 5459 2163 
Q 5165 2176 4870 2176 
L 4870 1466 
Q 4870 1152 4880 854 
Q 4890 557 4915 314 
L 4339 314 
Q 4358 557 4371 857 
Q 4384 1158 4384 1466 
L 4384 2176 
L 3462 2176 
Q 3430 1888 3379 1657 
Q 3328 1427 3241 1212 
Q 3155 998 3024 780 
Q 2893 563 2714 294 
Q 2566 403 2380 480 
Q 2195 557 2029 570 
Q 2771 973 2976 2176 
Q 2701 2170 2441 2157 
Q 2182 2144 1984 2125 
L 1984 2650 
Q 2189 2624 2464 2611 
Q 2739 2598 3027 2598 
Q 3040 2778 3046 3021 
Q 3053 3264 3059 3629 
Q 2829 3629 2585 3616 
Q 2342 3603 2138 3578 
L 2138 4102 
Q 2342 4077 2585 4064 
Q 2829 4051 3053 4051 
Q 3053 4205 3043 4371 
Q 3034 4538 3021 4691 
Q 3008 4845 2995 4973 
Q 2982 5101 2976 5171 
Q 3110 5146 3260 5136 
Q 3411 5126 3578 5126 
Q 3654 5126 3660 5100 
Q 3667 5075 3597 4992 
Q 3565 4954 3542 4704 
Q 3520 4454 3526 4051 
L 4384 4051 
Q 4384 4307 4381 4486 
Q 4378 4666 4368 4794 
Q 4358 4922 4348 5008 
Q 4339 5094 4333 5171 
Q 4480 5152 4624 5145 
Q 4768 5139 4915 5146 
Q 5101 5158 4960 4998 
Q 4941 4986 4925 4931 
Q 4909 4877 4896 4806 
Q 4883 4736 4876 4656 
Q 4870 4576 4870 4512 
L 4870 4051 
z
" transform="scale(0.015625)"/>
     <path id="STHeitiSC-Medium-354" d="M 1293 2848 
Q 1146 2618 1002 2406 
Q 858 2195 730 2022 
Q 666 2138 557 2256 
Q 448 2374 314 2464 
Q 442 2566 570 2713 
Q 698 2861 819 3027 
Q 941 3194 1043 3376 
Q 1146 3558 1229 3725 
Q 1427 4141 1539 4541 
Q 1651 4941 1683 5210 
Q 2003 5056 2317 4986 
Q 2445 4960 2467 4905 
Q 2490 4851 2362 4781 
Q 2342 4768 2310 4729 
Q 2278 4691 2220 4585 
Q 2163 4480 2070 4291 
Q 1978 4102 1824 3795 
L 1824 -595 
L 1222 -595 
Q 1254 -390 1273 -108 
Q 1293 173 1293 435 
L 1293 2848 
z
M 3283 1331 
Q 3110 1203 2924 1072 
Q 2739 941 2534 794 
Q 2483 902 2342 1040 
Q 2202 1178 2054 1248 
Q 2157 1280 2297 1344 
Q 2438 1408 2598 1501 
Q 2758 1594 2934 1712 
Q 3110 1830 3283 1971 
L 3283 4358 
Q 3283 4589 3273 4813 
Q 3264 5037 3232 5165 
Q 3302 5146 3395 5133 
Q 3488 5120 3584 5110 
Q 3680 5101 3769 5094 
Q 3859 5088 3917 5088 
Q 4006 5088 4016 5043 
Q 4026 4998 3955 4947 
Q 3904 4915 3865 4825 
Q 3827 4736 3827 4672 
L 3827 2458 
Q 4000 2630 4166 2816 
Q 4333 3002 4496 3219 
Q 4659 3437 4822 3686 
Q 4986 3936 5158 4243 
Q 5286 4134 5452 4019 
Q 5619 3904 5766 3827 
Q 5837 3789 5837 3753 
Q 5837 3718 5754 3706 
Q 5722 3699 5664 3657 
Q 5606 3616 5536 3558 
Q 5466 3501 5395 3430 
Q 5325 3360 5280 3302 
Q 4883 2822 4534 2457 
Q 4186 2093 3827 1779 
L 3827 384 
Q 3827 262 3846 188 
Q 3866 115 3936 76 
Q 4006 38 4144 28 
Q 4282 19 4518 19 
Q 4774 19 4937 38 
Q 5101 58 5203 150 
Q 5306 243 5363 428 
Q 5421 614 5472 941 
Q 5549 845 5613 781 
Q 5677 717 5747 669 
Q 5818 621 5894 585 
Q 5971 550 6080 512 
Q 5971 147 5881 -54 
Q 5792 -256 5641 -355 
Q 5491 -454 5232 -473 
Q 4973 -493 4518 -493 
Q 4083 -493 3836 -467 
Q 3590 -442 3468 -374 
Q 3347 -307 3315 -182 
Q 3283 -58 3283 134 
L 3283 1331 
z
" transform="scale(0.015625)"/>
    </defs>
    <use xlink:href="#STHeitiSC-Medium-258"/>
    <use xlink:href="#STHeitiSC-Medium-354" transform="translate(100 0)"/>
   </g>
  </g>
 </g>
 <defs>
  <clipPath id="p2998ec2f73">
   <rect x="7.2" y="33.38" width="487.8" height="384.22"/>
  </clipPath>
  <clipPath id="pe71d387583">
   <rect x="505.8" y="33.38" width="487.8" height="384.22"/>
  </clipPath>
 </defs>
</svg>
