<?xml version="1.0" encoding="utf-8" standalone="no"?>
<!DOCTYPE svg PUBLIC "-//W3C//DTD SVG 1.1//EN"
  "http://www.w3.org/Graphics/SVG/1.1/DTD/svg11.dtd">
<svg xmlns:xlink="http://www.w3.org/1999/xlink" width="963pt" height="296.78pt" viewBox="0 0 963 296.78" xmlns="http://www.w3.org/2000/svg" version="1.1">
 <metadata>
  <rdf:RDF xmlns:dc="http://purl.org/dc/elements/1.1/" xmlns:cc="http://creativecommons.org/ns#" xmlns:rdf="http://www.w3.org/1999/02/22-rdf-syntax-ns#">
   <cc:Work>
    <dc:type rdf:resource="http://purl.org/dc/dcmitype/StillImage"/>
    <dc:date>2026-07-13T16:24:13.108890</dc:date>
    <dc:format>image/svg+xml</dc:format>
    <dc:creator>
     <cc:Agent>
      <dc:title>Matplotlib v3.11.0, https://matplotlib.org/</dc:title>
     </cc:Agent>
    </dc:creator>
   </cc:Work>
  </rdf:RDF>
 </metadata>
 <defs>
  <style type="text/css">*{stroke-linejoin: round; stroke-linecap: butt}</style>
 </defs>
 <g id="figure_1">
  <g id="patch_1">
   <path d="M 0 296.78 
L 963 296.78 
L 963 -0 
L 0 -0 
z
" style="fill: #ffffff"/>
  </g>
  <g id="axes_1">
   <g id="patch_2">
    <path d="M 35.1 146.5448 
L 124.38 146.5448 
Q 131.076 146.5448 131.076 139.892 
L 131.076 95.54 
Q 131.076 88.8872 124.38 88.8872 
L 35.1 88.8872 
Q 28.404 88.8872 28.404 95.54 
L 28.404 139.892 
Q 28.404 146.5448 35.1 146.5448 
z
" clip-path="url(#p0df5c0229c)" style="fill: #fff9c4; stroke: #f9a825; stroke-width: 2; stroke-linejoin: miter"/>
   </g>
   <g id="patch_3">
    <path d="M 157.86 146.5448 
L 247.14 146.5448 
Q 253.836 146.5448 253.836 139.892 
L 253.836 95.54 
Q 253.836 88.8872 247.14 88.8872 
L 157.86 88.8872 
Q 151.164 88.8872 151.164 95.54 
L 151.164 139.892 
Q 151.164 146.5448 157.86 146.5448 
z
" clip-path="url(#p0df5c0229c)" style="fill: #fff9c4; stroke: #f9a825; stroke-width: 2; stroke-linejoin: miter"/>
   </g>
   <g id="patch_4">
    <path d="M 280.62 146.5448 
L 369.9 146.5448 
Q 376.596 146.5448 376.596 139.892 
L 376.596 95.54 
Q 376.596 88.8872 369.9 88.8872 
L 280.62 88.8872 
Q 273.924 88.8872 273.924 95.54 
L 273.924 139.892 
Q 273.924 146.5448 280.62 146.5448 
z
" clip-path="url(#p0df5c0229c)" style="fill: #fff9c4; stroke: #f9a825; stroke-width: 2; stroke-linejoin: miter"/>
   </g>
   <g id="patch_5">
    <path d="M 403.38 146.5448 
L 492.66 146.5448 
Q 499.356 146.5448 499.356 139.892 
L 499.356 95.54 
Q 499.356 88.8872 492.66 88.8872 
L 403.38 88.8872 
Q 396.684 88.8872 396.684 95.54 
L 396.684 139.892 
Q 396.684 146.5448 403.38 146.5448 
z
" clip-path="url(#p0df5c0229c)" style="fill: #fff9c4; stroke: #f9a825; stroke-width: 2; stroke-linejoin: miter"/>
   </g>
   <g id="patch_6">
    <path d="M 559.62 146.5448 
L 660.06 146.5448 
Q 666.756 146.5448 666.756 139.892 
L 666.756 95.54 
Q 666.756 88.8872 660.06 88.8872 
L 559.62 88.8872 
Q 552.924 88.8872 552.924 95.54 
L 552.924 139.892 
Q 552.924 146.5448 559.62 146.5448 
z
" clip-path="url(#p0df5c0229c)" style="fill: #e1f5fe; stroke: #1565c0; stroke-width: 2; stroke-linejoin: miter"/>
   </g>
   <g id="patch_7">
    <path d="M 682.38 146.5448 
L 738.18 146.5448 
Q 744.876 146.5448 744.876 139.892 
L 744.876 95.54 
Q 744.876 88.8872 738.18 88.8872 
L 682.38 88.8872 
Q 675.684 88.8872 675.684 95.54 
L 675.684 139.892 
Q 675.684 146.5448 682.38 146.5448 
z
" clip-path="url(#p0df5c0229c)" style="fill: #e8f5e9; stroke: #2e7d32; stroke-width: 2; stroke-linejoin: miter"/>
   </g>
   <g id="patch_8">
    <path d="M 749.34 146.5448 
L 805.14 146.5448 
Q 811.836 146.5448 811.836 139.892 
L 811.836 95.54 
Q 811.836 88.8872 805.14 88.8872 
L 749.34 88.8872 
Q 742.644 88.8872 742.644 95.54 
L 742.644 139.892 
Q 742.644 146.5448 749.34 146.5448 
z
" clip-path="url(#p0df5c0229c)" style="fill: #e8f5e9; stroke: #2e7d32; stroke-width: 2; stroke-linejoin: miter"/>
   </g>
   <g id="patch_9">
    <path d="M 816.3 146.5448 
L 872.1 146.5448 
Q 878.796 146.5448 878.796 139.892 
L 878.796 95.54 
Q 878.796 88.8872 872.1 88.8872 
L 816.3 88.8872 
Q 809.604 88.8872 809.604 95.54 
L 809.604 139.892 
Q 809.604 146.5448 816.3 146.5448 
z
" clip-path="url(#p0df5c0229c)" style="fill: #e8f5e9; stroke: #2e7d32; stroke-width: 2; stroke-linejoin: miter"/>
   </g>
   <g id="patch_10">
    <path d="M 883.26 146.5448 
L 939.06 146.5448 
Q 945.756 146.5448 945.756 139.892 
L 945.756 95.54 
Q 945.756 88.8872 939.06 88.8872 
L 883.26 88.8872 
Q 876.564 88.8872 876.564 95.54 
L 876.564 139.892 
Q 876.564 146.5448 883.26 146.5448 
z
" clip-path="url(#p0df5c0229c)" style="fill: #e8f5e9; stroke: #2e7d32; stroke-width: 2; stroke-linejoin: miter"/>
   </g>
   <g id="text_1">
    <text style="font-weight: 700; font-size: 9px; font-family: 'Heiti SC', 'Arial Unicode MS', 'DejaVu Sans', 'Bitstream Vera Sans', 'Computer Modern Sans Serif', 'Lucida Grande', 'Verdana', 'Geneva', 'Lucid', 'Arial', 'Helvetica', 'Avant Garde', sans-serif; fill: #212121" transform="translate(66.585938 116.127641)">GPU 0</text>
    <text style="font-weight: 700; font-size: 9px; font-family: 'Heiti SC', 'Arial Unicode MS', 'DejaVu Sans', 'Bitstream Vera Sans', 'Computer Modern Sans Serif', 'Lucida Grande', 'Verdana', 'Geneva', 'Lucid', 'Arial', 'Helvetica', 'Avant Garde', sans-serif; fill: #212121" transform="translate(49.521094 125.784359)">vocab [0:V/4)</text>
   </g>
   <g id="text_2">
    <text style="font-weight: 700; font-size: 9px; font-family: 'Heiti SC', 'Arial Unicode MS', 'DejaVu Sans', 'Bitstream Vera Sans', 'Computer Modern Sans Serif', 'Lucida Grande', 'Verdana', 'Geneva', 'Lucid', 'Arial', 'Helvetica', 'Avant Garde', sans-serif; fill: #212121" transform="translate(189.345938 116.127641)">GPU 1</text>
    <text style="font-weight: 700; font-size: 9px; font-family: 'Heiti SC', 'Arial Unicode MS', 'DejaVu Sans', 'Bitstream Vera Sans', 'Computer Modern Sans Serif', 'Lucida Grande', 'Verdana', 'Geneva', 'Lucid', 'Arial', 'Helvetica', 'Avant Garde', sans-serif; fill: #212121" transform="translate(167.155313 125.784359)">vocab [V/4:V/2)</text>
   </g>
   <g id="text_3">
    <text style="font-weight: 700; font-size: 9px; font-family: 'Heiti SC', 'Arial Unicode MS', 'DejaVu Sans', 'Bitstream Vera Sans', 'Computer Modern Sans Serif', 'Lucida Grande', 'Verdana', 'Geneva', 'Lucid', 'Arial', 'Helvetica', 'Avant Garde', sans-serif; fill: #212121" transform="translate(312.105938 116.127641)">GPU 2</text>
    <text style="font-weight: 700; font-size: 9px; font-family: 'Heiti SC', 'Arial Unicode MS', 'DejaVu Sans', 'Bitstream Vera Sans', 'Computer Modern Sans Serif', 'Lucida Grande', 'Verdana', 'Geneva', 'Lucid', 'Arial', 'Helvetica', 'Avant Garde', sans-serif; fill: #212121" transform="translate(287.422031 125.784359)">vocab [V/2:3V/4)</text>
   </g>
   <g id="text_4">
    <text style="font-weight: 700; font-size: 9px; font-family: 'Heiti SC', 'Arial Unicode MS', 'DejaVu Sans', 'Bitstream Vera Sans', 'Computer Modern Sans Serif', 'Lucida Grande', 'Verdana', 'Geneva', 'Lucid', 'Arial', 'Helvetica', 'Avant Garde', sans-serif; fill: #212121" transform="translate(434.865938 116.127641)">GPU 3</text>
    <text style="font-weight: 700; font-size: 9px; font-family: 'Heiti SC', 'Arial Unicode MS', 'DejaVu Sans', 'Bitstream Vera Sans', 'Computer Modern Sans Serif', 'Lucida Grande', 'Verdana', 'Geneva', 'Lucid', 'Arial', 'Helvetica', 'Avant Garde', sans-serif; fill: #212121" transform="translate(414.641953 125.784359)">vocab [3V/4:V)</text>
   </g>
   <g id="text_5">
    <text style="font-weight: 700; font-size: 9px; font-family: 'Heiti SC', 'Arial Unicode MS', 'DejaVu Sans', 'Bitstream Vera Sans', 'Computer Modern Sans Serif', 'Lucida Grande', 'Verdana', 'Geneva', 'Lucid', 'Arial', 'Helvetica', 'Avant Garde', sans-serif; fill: #212121" transform="translate(588.064922 116.321)">all_gather</text>
    <text style="font-weight: 700; font-size: 9px; font-family: 'Heiti SC', 'Arial Unicode MS', 'DejaVu Sans', 'Bitstream Vera Sans', 'Computer Modern Sans Serif', 'Lucida Grande', 'Verdana', 'Geneva', 'Lucid', 'Arial', 'Helvetica', 'Avant Garde', sans-serif; fill: #212121" transform="translate(582.84 125.591)">拼接词表分片</text>
   </g>
   <g id="text_6">
    <text style="font-weight: 700; font-size: 8px; font-family: 'Heiti SC', 'Arial Unicode MS', 'DejaVu Sans', 'Bitstream Vera Sans', 'Computer Modern Sans Serif', 'Lucida Grande', 'Verdana', 'Geneva', 'Lucid', 'Arial', 'Helvetica', 'Avant Garde', sans-serif; fill: #212121" transform="translate(698.5875 116.476)">GPU 0</text>
    <text style="font-weight: 700; font-size: 8px; font-family: 'Heiti SC', 'Arial Unicode MS', 'DejaVu Sans', 'Bitstream Vera Sans', 'Computer Modern Sans Serif', 'Lucida Grande', 'Verdana', 'Geneva', 'Lucid', 'Arial', 'Helvetica', 'Avant Garde', sans-serif; fill: #212121" transform="translate(691.46 124.716)">完整 logits</text>
   </g>
   <g id="text_7">
    <text style="font-weight: 700; font-size: 8px; font-family: 'Heiti SC', 'Arial Unicode MS', 'DejaVu Sans', 'Bitstream Vera Sans', 'Computer Modern Sans Serif', 'Lucida Grande', 'Verdana', 'Geneva', 'Lucid', 'Arial', 'Helvetica', 'Avant Garde', sans-serif; fill: #212121" transform="translate(765.5475 116.476)">GPU 1</text>
    <text style="font-weight: 700; font-size: 8px; font-family: 'Heiti SC', 'Arial Unicode MS', 'DejaVu Sans', 'Bitstream Vera Sans', 'Computer Modern Sans Serif', 'Lucida Grande', 'Verdana', 'Geneva', 'Lucid', 'Arial', 'Helvetica', 'Avant Garde', sans-serif; fill: #212121" transform="translate(758.42 124.716)">完整 logits</text>
   </g>
   <g id="text_8">
    <text style="font-weight: 700; font-size: 8px; font-family: 'Heiti SC', 'Arial Unicode MS', 'DejaVu Sans', 'Bitstream Vera Sans', 'Computer Modern Sans Serif', 'Lucida Grande', 'Verdana', 'Geneva', 'Lucid', 'Arial', 'Helvetica', 'Avant Garde', sans-serif; fill: #212121" transform="translate(832.5075 116.476)">GPU 2</text>
    <text style="font-weight: 700; font-size: 8px; font-family: 'Heiti SC', 'Arial Unicode MS', 'DejaVu Sans', 'Bitstream Vera Sans', 'Computer Modern Sans Serif', 'Lucida Grande', 'Verdana', 'Geneva', 'Lucid', 'Arial', 'Helvetica', 'Avant Garde', sans-serif; fill: #212121" transform="translate(825.38 124.716)">完整 logits</text>
   </g>
   <g id="text_9">
    <text style="font-weight: 700; font-size: 8px; font-family: 'Heiti SC', 'Arial Unicode MS', 'DejaVu Sans', 'Bitstream Vera Sans', 'Computer Modern Sans Serif', 'Lucida Grande', 'Verdana', 'Geneva', 'Lucid', 'Arial', 'Helvetica', 'Avant Garde', sans-serif; fill: #212121" transform="translate(899.4675 116.476)">GPU 3</text>
    <text style="font-weight: 700; font-size: 8px; font-family: 'Heiti SC', 'Arial Unicode MS', 'DejaVu Sans', 'Bitstream Vera Sans', 'Computer Modern Sans Serif', 'Lucida Grande', 'Verdana', 'Geneva', 'Lucid', 'Arial', 'Helvetica', 'Avant Garde', sans-serif; fill: #212121" transform="translate(892.34 124.716)">完整 logits</text>
   </g>
   <g id="patch_11">
    <path d="M 131.940754 118.005093 
Q 341.040303 148.424162 550.369336 137.315719 
" style="fill: none; stroke: #1565c0; stroke-width: 1.5; stroke-linecap: round"/>
    <path d="M 546.268972 135.530499 
L 550.369336 137.315719 
L 546.480941 139.524879 
" style="fill: none; stroke: #1565c0; stroke-width: 1.5; stroke-linecap: round"/>
   </g>
   <g id="patch_12">
    <path d="M 254.701741 118.005342 
Q 402.698097 139.514522 550.369353 131.769816 
" style="fill: none; stroke: #1565c0; stroke-width: 1.5; stroke-linecap: round"/>
    <path d="M 546.270095 129.982055 
L 550.369353 131.769816 
L 546.47959 133.976566 
" style="fill: none; stroke: #1565c0; stroke-width: 1.5; stroke-linecap: round"/>
   </g>
   <g id="patch_13">
    <path d="M 377.457093 118.004919 
Q 464.353616 130.605624 550.370278 126.221253 
" style="fill: none; stroke: #1565c0; stroke-width: 1.5; stroke-linecap: round"/>
    <path d="M 546.273654 124.427466 
L 550.370278 126.221253 
L 546.477274 128.42228 
" style="fill: none; stroke: #1565c0; stroke-width: 1.5; stroke-linecap: round"/>
   </g>
   <g id="patch_14">
    <path d="M 500.216046 118.006128 
Q 526.010113 121.700395 550.367811 120.652972 
" style="fill: none; stroke: #1565c0; stroke-width: 1.5; stroke-linecap: round"/>
    <path d="M 546.28558 118.826667 
L 550.367811 120.652972 
L 546.457428 122.822974 
" style="fill: none; stroke: #1565c0; stroke-width: 1.5; stroke-linecap: round"/>
   </g>
   <g id="patch_15">
    <path d="M 667.631689 117.879624 
Q 671.219776 118.110362 673.134267 117.987263 
" style="fill: none; stroke: #2e7d32; stroke-width: 1.5; stroke-linecap: round"/>
    <path d="M 669.014178 116.248048 
L 673.134267 117.987263 
L 669.270843 120.239805 
" style="fill: none; stroke: #2e7d32; stroke-width: 1.5; stroke-linecap: round"/>
   </g>
   <g id="patch_16">
    <path d="M 667.628284 117.909768 
Q 704.697422 121.427987 740.09701 118.068692 
" style="fill: none; stroke: #2e7d32; stroke-width: 1.5; stroke-linecap: round"/>
    <path d="M 735.925956 116.455525 
L 740.09701 118.068692 
L 736.303845 120.437635 
" style="fill: none; stroke: #2e7d32; stroke-width: 1.5; stroke-linecap: round"/>
   </g>
   <g id="patch_17">
    <path d="M 667.627943 117.91207 
Q 738.180519 124.77398 807.063921 118.074315 
" style="fill: none; stroke: #2e7d32; stroke-width: 1.5; stroke-linecap: round"/>
    <path d="M 802.889099 116.470925 
L 807.063921 118.074315 
L 803.276315 120.452138 
" style="fill: none; stroke: #2e7d32; stroke-width: 1.5; stroke-linecap: round"/>
   </g>
   <g id="patch_18">
    <path d="M 667.629816 117.913114 
Q 771.659721 128.120858 874.02059 118.076939 
" style="fill: none; stroke: #2e7d32; stroke-width: 1.5; stroke-linecap: round"/>
    <path d="M 869.844401 116.477113 
L 874.02059 118.076939 
L 870.235016 120.457995 
" style="fill: none; stroke: #2e7d32; stroke-width: 1.5; stroke-linecap: round"/>
   </g>
   <g id="text_10">
    <text style="font-weight: 700; font-size: 15px; font-family: 'Heiti SC', 'Arial Unicode MS', 'DejaVu Sans', 'Bitstream Vera Sans', 'Computer Modern Sans Serif', 'Lucida Grande', 'Verdana', 'Geneva', 'Lucid', 'Arial', 'Helvetica', 'Avant Garde', sans-serif; text-anchor: middle" x="481.5" y="20.1" transform="rotate(-0 481.5 20.1)">输出 logits all_gather：分片 → 完整 Replicate</text>
   </g>
  </g>
 </g>
 <defs>
  <clipPath id="p0df5c0229c">
   <rect x="7.2" y="40.1" width="948.6" height="249.48"/>
  </clipPath>
 </defs>
</svg>
