<?xml version="1.0" encoding="utf-8" standalone="no"?>
<!DOCTYPE svg PUBLIC "-//W3C//DTD SVG 1.1//EN"
  "http://www.w3.org/Graphics/SVG/1.1/DTD/svg11.dtd">
<svg xmlns:xlink="http://www.w3.org/1999/xlink" width="856.8pt" height="352.8pt" viewBox="0 0 856.8 352.8" xmlns="http://www.w3.org/2000/svg" version="1.1">
 <metadata>
  <rdf:RDF xmlns:dc="http://purl.org/dc/elements/1.1/" xmlns:cc="http://creativecommons.org/ns#" xmlns:rdf="http://www.w3.org/1999/02/22-rdf-syntax-ns#">
   <cc:Work>
    <dc:type rdf:resource="http://purl.org/dc/dcmitype/StillImage"/>
    <dc:date>2026-07-13T11:07:55.817576</dc:date>
    <dc:format>image/svg+xml</dc:format>
    <dc:creator>
     <cc:Agent>
      <dc:title>Matplotlib v3.11.0, https://matplotlib.org/</dc:title>
     </cc:Agent>
    </dc:creator>
   </cc:Work>
  </rdf:RDF>
 </metadata>
 <defs>
  <style type="text/css">*{stroke-linejoin: round; stroke-linecap: butt}</style>
 </defs>
 <g id="figure_1">
  <g id="patch_1">
   <path d="M 0 352.8 
L 856.8 352.8 
L 856.8 0 
L 0 0 
z
" style="fill: #ffffff"/>
  </g>
  <g id="axes_1">
   <g id="patch_2">
    <path d="M 87.428571 131.148 
L 167.657143 131.148 
Q 170.064 131.148 170.064 129.641311 
L 170.064 89.462951 
Q 170.064 87.956262 167.657143 87.956262 
L 87.428571 87.956262 
Q 85.021714 87.956262 85.021714 89.462951 
L 85.021714 129.641311 
Q 85.021714 131.148 87.428571 131.148 
z
" clip-path="url(#pd88704a663)" style="fill: #e3f2fd; stroke: #1565c0; stroke-width: 1.5; stroke-linejoin: miter"/>
   </g>
   <g id="patch_3">
    <path d="M 183.702857 131.148 
L 263.931429 131.148 
Q 266.338286 131.148 266.338286 129.641311 
L 266.338286 89.462951 
Q 266.338286 87.956262 263.931429 87.956262 
L 183.702857 87.956262 
Q 181.296 87.956262 181.296 89.462951 
L 181.296 129.641311 
Q 181.296 131.148 183.702857 131.148 
z
" clip-path="url(#pd88704a663)" style="fill: #bbdefb; stroke: #1565c0; stroke-width: 1.5; stroke-linejoin: miter"/>
   </g>
   <g id="patch_4">
    <path d="M 279.977143 131.148 
L 360.205714 131.148 
Q 362.612571 131.148 362.612571 129.641311 
L 362.612571 89.462951 
Q 362.612571 87.956262 360.205714 87.956262 
L 279.977143 87.956262 
Q 277.570286 87.956262 277.570286 89.462951 
L 277.570286 129.641311 
Q 277.570286 131.148 279.977143 131.148 
z
" clip-path="url(#pd88704a663)" style="fill: #90caf9; stroke: #1565c0; stroke-width: 1.5; stroke-linejoin: miter"/>
   </g>
   <g id="patch_5">
    <path d="M 376.251429 131.148 
L 456.48 131.148 
Q 458.886857 131.148 458.886857 129.641311 
L 458.886857 89.462951 
Q 458.886857 87.956262 456.48 87.956262 
L 376.251429 87.956262 
Q 373.844571 87.956262 373.844571 89.462951 
L 373.844571 129.641311 
Q 373.844571 131.148 376.251429 131.148 
z
" clip-path="url(#pd88704a663)" style="fill: #64b5f6; stroke: #1565c0; stroke-width: 1.5; stroke-linejoin: miter"/>
   </g>
   <g id="patch_6">
    <path d="M 87.428571 242.642951 
L 231.84 242.642951 
Q 235.851429 242.642951 235.851429 240.131803 
L 235.851429 164.797377 
Q 235.851429 162.28623 231.84 162.28623 
L 87.428571 162.28623 
Q 83.417143 162.28623 83.417143 164.797377 
L 83.417143 240.131803 
Q 83.417143 242.642951 87.428571 242.642951 
z
" clip-path="url(#pd88704a663)" style="fill: #e0f7fa; stroke: #00838f; stroke-width: 2; stroke-linejoin: miter"/>
   </g>
   <g id="patch_7">
    <path d="M 263.931429 242.642951 
L 408.342857 242.642951 
Q 412.354286 242.642951 412.354286 240.131803 
L 412.354286 164.797377 
Q 412.354286 162.28623 408.342857 162.28623 
L 263.931429 162.28623 
Q 259.92 162.28623 259.92 164.797377 
L 259.92 240.131803 
Q 259.92 242.642951 263.931429 242.642951 
z
" clip-path="url(#pd88704a663)" style="fill: #e0f7fa; stroke: #00838f; stroke-width: 2; stroke-linejoin: miter"/>
   </g>
   <g id="patch_8">
    <path d="M 440.434286 242.642951 
L 584.845714 242.642951 
Q 588.857143 242.642951 588.857143 240.131803 
L 588.857143 164.797377 
Q 588.857143 162.28623 584.845714 162.28623 
L 440.434286 162.28623 
Q 436.422857 162.28623 436.422857 164.797377 
L 436.422857 240.131803 
Q 436.422857 242.642951 440.434286 242.642951 
z
" clip-path="url(#pd88704a663)" style="fill: #e0f7fa; stroke: #00838f; stroke-width: 2; stroke-linejoin: miter"/>
   </g>
   <g id="patch_9">
    <path d="M 616.937143 242.642951 
L 761.348571 242.642951 
Q 765.36 242.642951 765.36 240.131803 
L 765.36 164.797377 
Q 765.36 162.28623 761.348571 162.28623 
L 616.937143 162.28623 
Q 612.925714 162.28623 612.925714 164.797377 
L 612.925714 240.131803 
Q 612.925714 242.642951 616.937143 242.642951 
z
" clip-path="url(#pd88704a663)" style="fill: #e0f7fa; stroke: #00838f; stroke-width: 2; stroke-linejoin: miter"/>
   </g>
   <g id="patch_10">
    <path d="M 87.428571 322.999672 
L 231.84 322.999672 
Q 235.851429 322.999672 235.851429 320.488525 
L 235.851429 270.265574 
Q 235.851429 267.754426 231.84 267.754426 
L 87.428571 267.754426 
Q 83.417143 267.754426 83.417143 270.265574 
L 83.417143 320.488525 
Q 83.417143 322.999672 87.428571 322.999672 
z
" clip-path="url(#pd88704a663)" style="fill: #e8f5e9; stroke: #2e7d32; stroke-width: 2; stroke-linejoin: miter"/>
   </g>
   <g id="patch_11">
    <path d="M 263.931429 322.999672 
L 408.342857 322.999672 
Q 412.354286 322.999672 412.354286 320.488525 
L 412.354286 270.265574 
Q 412.354286 267.754426 408.342857 267.754426 
L 263.931429 267.754426 
Q 259.92 267.754426 259.92 270.265574 
L 259.92 320.488525 
Q 259.92 322.999672 263.931429 322.999672 
z
" clip-path="url(#pd88704a663)" style="fill: #e8f5e9; stroke: #2e7d32; stroke-width: 2; stroke-linejoin: miter"/>
   </g>
   <g id="patch_12">
    <path d="M 440.434286 322.999672 
L 584.845714 322.999672 
Q 588.857143 322.999672 588.857143 320.488525 
L 588.857143 270.265574 
Q 588.857143 267.754426 584.845714 267.754426 
L 440.434286 267.754426 
Q 436.422857 267.754426 436.422857 270.265574 
L 436.422857 320.488525 
Q 436.422857 322.999672 440.434286 322.999672 
z
" clip-path="url(#pd88704a663)" style="fill: #e8f5e9; stroke: #2e7d32; stroke-width: 2; stroke-linejoin: miter"/>
   </g>
   <g id="patch_13">
    <path d="M 616.937143 322.999672 
L 761.348571 322.999672 
Q 765.36 322.999672 765.36 320.488525 
L 765.36 270.265574 
Q 765.36 267.754426 761.348571 267.754426 
L 616.937143 267.754426 
Q 612.925714 267.754426 612.925714 270.265574 
L 612.925714 320.488525 
Q 612.925714 322.999672 616.937143 322.999672 
z
" clip-path="url(#pd88704a663)" style="fill: #e8f5e9; stroke: #2e7d32; stroke-width: 2; stroke-linejoin: miter"/>
   </g>
   <g id="text_1">
    <!-- t₀ -->
    <g transform="translate(124.182701 113.152131) scale(0.1 -0.1)">
     <defs>
      <path id="STHeitiSC-Medium-56" d="M 2048 3411 
L 1357 3411 
L 1357 966 
Q 1357 832 1395 803 
Q 1434 774 1587 774 
L 1894 774 
L 1894 320 
Q 1587 269 1427 269 
Q 1120 269 973 419 
Q 826 570 826 896 
L 826 3411 
L 224 3411 
L 224 3872 
L 826 3872 
L 826 5184 
L 1357 5184 
L 1357 3872 
L 2048 3872 
L 2048 3411 
z
" transform="scale(0.015625)"/>
      <path id="ArialUnicodeMS-ce1" d="M 1063 2253 
Q 1506 2253 1770 1928 
Q 2034 1603 2034 1050 
Q 2034 497 1770 172 
Q 1506 -153 1063 -153 
Q 622 -153 359 172 
Q 97 497 97 1050 
Q 97 1606 356 1929 
Q 616 2253 1063 2253 
z
M 1063 238 
Q 1306 238 1428 441 
Q 1550 644 1550 1050 
Q 1550 1456 1428 1659 
Q 1306 1863 1063 1863 
Q 822 1863 701 1659 
Q 581 1456 581 1050 
Q 581 644 701 441 
Q 822 238 1063 238 
z
" transform="scale(0.015625)"/>
     </defs>
     <use xlink:href="#STHeitiSC-Medium-56"/>
     <use xlink:href="#ArialUnicodeMS-ce1" transform="translate(33.90625 0)"/>
    </g>
   </g>
   <g id="text_2">
    <!-- t₁ -->
    <g transform="translate(220.456987 113.152131) scale(0.1 -0.1)">
     <defs>
      <path id="ArialUnicodeMS-ce2" d="M 1484 -97 
L 1031 -97 
L 1031 1638 
Q 722 1388 331 1281 
L 331 1672 
Q 813 1838 1147 2253 
L 1484 2253 
L 1484 -97 
z
" transform="scale(0.015625)"/>
     </defs>
     <use xlink:href="#STHeitiSC-Medium-56"/>
     <use xlink:href="#ArialUnicodeMS-ce2" transform="translate(33.90625 0)"/>
    </g>
   </g>
   <g id="text_3">
    <!-- ... -->
    <g transform="translate(315.93596 113.152131) scale(0.1 -0.1)">
     <defs>
      <path id="STHeitiSC-Medium-10" d="M 966 1478 
Q 1146 1478 1270 1353 
Q 1395 1229 1395 1046 
Q 1395 864 1270 739 
Q 1146 614 970 614 
Q 794 614 666 742 
Q 538 870 538 1049 
Q 538 1229 666 1353 
Q 794 1478 966 1478 
z
" transform="scale(0.015625)"/>
     </defs>
     <use xlink:href="#STHeitiSC-Medium-10"/>
     <use xlink:href="#STHeitiSC-Medium-10" transform="translate(27.703125 0)"/>
     <use xlink:href="#STHeitiSC-Medium-10" transform="translate(55.40625 0)"/>
    </g>
   </g>
   <g id="text_4">
    <!-- tₛ₋₁ -->
    <g transform="translate(409.475089 113.152131) scale(0.1 -0.1)">
     <defs>
      <path id="DejaVuSans-b75" d="M 1931 1953 
L 1931 1650 
Q 1778 1718 1613 1753 
Q 1450 1787 1272 1787 
Q 1000 1787 866 1715 
Q 731 1640 731 1493 
Q 731 1381 828 1318 
Q 925 1253 1216 1196 
L 1341 1171 
Q 1731 1096 1888 965 
Q 2050 831 2050 590 
Q 2050 318 1806 159 
Q 1566 0 1141 0 
Q 963 0 769 31 
Q 578 62 366 121 
L 366 456 
Q 566 362 763 315 
Q 956 268 1147 268 
Q 1403 268 1540 346 
Q 1678 425 1678 565 
Q 1678 696 1578 768 
Q 1491 831 1144 903 
L 1019 928 
Q 681 993 531 1121 
Q 381 1253 381 1481 
Q 381 1756 603 1906 
Q 822 2059 1228 2059 
Q 1428 2059 1606 2031 
Q 1784 2006 1931 1953 
z
" transform="scale(0.015625)"/>
      <path id="ArialUnicodeMS-cec" d="M 1894 788 
L 238 788 
L 238 1153 
L 1894 1153 
L 1894 788 
z
" transform="scale(0.015625)"/>
     </defs>
     <use xlink:href="#STHeitiSC-Medium-56"/>
     <use xlink:href="#DejaVuSans-b75" transform="translate(33.90625 0)"/>
     <use xlink:href="#ArialUnicodeMS-cec" transform="translate(71.21875 0)"/>
     <use xlink:href="#ArialUnicodeMS-ce2" transform="translate(104.515625 0)"/>
    </g>
   </g>
   <g id="text_5">
    <!-- 完整 token 序列 (Replicate) -->
    <g transform="translate(209.014252 68.088361) scale(0.11 -0.11)">
     <defs>
      <path id="STHeitiSC-Medium-225" d="M 3219 2912 
Q 2720 2912 2320 2899 
Q 1920 2886 1670 2854 
L 1670 3411 
Q 1926 3379 2336 3366 
Q 2746 3354 3219 3354 
Q 3693 3354 4109 3366 
Q 4525 3379 4774 3411 
L 4774 2854 
Q 4525 2886 4109 2899 
Q 3693 2912 3219 2912 
z
M 2240 1824 
Q 1862 1818 1468 1805 
Q 1075 1792 672 1760 
L 672 2342 
Q 922 2323 1181 2313 
Q 1440 2304 1744 2294 
Q 2048 2285 2413 2281 
Q 2778 2278 3238 2278 
Q 3699 2278 4064 2281 
Q 4429 2285 4733 2294 
Q 5037 2304 5296 2313 
Q 5555 2323 5805 2342 
L 5805 1760 
Q 5357 1792 4921 1808 
Q 4486 1824 4045 1824 
L 4045 346 
Q 4045 256 4057 201 
Q 4070 147 4124 118 
Q 4179 90 4284 83 
Q 4390 77 4582 77 
Q 4774 77 4899 109 
Q 5024 141 5104 227 
Q 5184 314 5235 467 
Q 5286 621 5331 870 
Q 5440 755 5600 665 
Q 5760 576 5907 525 
Q 5818 218 5728 35 
Q 5638 -147 5497 -246 
Q 5357 -346 5136 -378 
Q 4915 -410 4563 -410 
Q 4262 -410 4064 -384 
Q 3866 -358 3741 -297 
Q 3616 -237 3565 -141 
Q 3514 -45 3514 102 
L 3514 1824 
L 2771 1824 
Q 2752 1242 2646 842 
Q 2541 442 2320 163 
Q 2099 -115 1744 -300 
Q 1389 -486 883 -640 
Q 819 -512 713 -352 
Q 608 -192 486 -58 
Q 954 19 1286 140 
Q 1619 262 1830 476 
Q 2042 691 2141 1017 
Q 2240 1344 2240 1824 
z
M 3091 4493 
Q 3046 4672 2985 4854 
Q 2925 5037 2854 5165 
L 3494 5280 
Q 3546 5094 3606 4896 
Q 3667 4698 3750 4493 
Q 4173 4493 4477 4496 
Q 4781 4499 5005 4505 
Q 5229 4512 5392 4515 
Q 5555 4518 5709 4531 
L 5709 3277 
L 5178 3277 
L 5178 4038 
L 1286 4038 
L 1286 3194 
L 755 3194 
L 755 4531 
Q 922 4518 1107 4512 
Q 1293 4506 1555 4502 
Q 1818 4499 2186 4496 
Q 2554 4493 3091 4493 
z
" transform="scale(0.015625)"/>
      <path id="STHeitiSC-Medium-452" d="M 2982 1875 
Q 2854 2022 2691 2160 
Q 2528 2298 2368 2394 
L 2675 2643 
Q 2822 2534 2982 2412 
Q 3142 2291 3296 2163 
L 2982 1875 
z
M 2227 3072 
L 2918 3072 
L 2918 3494 
L 2227 3494 
L 2227 3072 
z
M 1824 3494 
L 1120 3494 
L 1120 3072 
L 1824 3072 
L 1824 3494 
z
M 1824 2746 
Q 1581 2304 1318 2038 
Q 1056 1773 755 1587 
Q 653 1709 579 1763 
Q 506 1818 358 1875 
Q 704 2022 982 2246 
Q 1261 2470 1466 2771 
Q 1222 2771 1043 2771 
Q 864 2771 691 2758 
Q 730 2957 730 3251 
Q 730 3411 720 3561 
Q 710 3712 691 3821 
Q 806 3814 924 3808 
Q 1043 3802 1177 3798 
Q 1312 3795 1469 3795 
Q 1626 3795 1824 3795 
L 1824 4186 
Q 1382 4186 1081 4176 
Q 781 4166 538 4141 
L 538 4589 
Q 800 4557 1094 4547 
Q 1389 4538 1824 4538 
Q 1824 4800 1814 4915 
Q 1805 5030 1779 5120 
Q 2048 5082 2234 5101 
Q 2342 5114 2352 5088 
Q 2362 5062 2298 4992 
Q 2266 4960 2246 4838 
Q 2227 4717 2227 4538 
Q 2630 4538 2912 4547 
Q 3194 4557 3430 4576 
L 3430 4141 
Q 3194 4160 2912 4169 
Q 2630 4179 2227 4186 
L 2227 3795 
Q 2611 3795 2864 3801 
Q 3117 3808 3347 3821 
Q 3334 3712 3328 3565 
Q 3322 3418 3322 3251 
Q 3322 3104 3328 2973 
Q 3334 2842 3347 2746 
Q 3123 2758 2867 2764 
Q 2611 2771 2227 2771 
Q 2227 2483 2240 2268 
Q 2253 2054 2285 1875 
L 1766 1875 
Q 1798 2048 1811 2259 
Q 1824 2470 1824 2746 
z
M 4653 2445 
Q 4454 2259 4217 2118 
Q 3981 1978 3706 1856 
Q 3661 1958 3581 2054 
Q 3501 2150 3392 2221 
Q 3987 2432 4346 2733 
Q 4224 2874 4121 3037 
Q 4019 3200 3942 3386 
L 4307 3539 
Q 4429 3238 4614 3014 
Q 4922 3418 5005 3987 
L 4218 3987 
Q 4109 3750 3987 3552 
Q 3866 3354 3731 3162 
Q 3565 3290 3379 3334 
Q 3533 3558 3648 3763 
Q 3763 3968 3846 4179 
Q 3930 4390 3987 4620 
Q 4045 4851 4083 5126 
Q 4230 5075 4368 5040 
Q 4506 5005 4621 4992 
Q 4691 4979 4694 4953 
Q 4698 4928 4614 4858 
Q 4582 4832 4534 4739 
Q 4486 4646 4384 4384 
L 5210 4384 
Q 5478 4384 5651 4393 
Q 5824 4403 5933 4422 
L 5933 3962 
Q 5837 3974 5741 3977 
Q 5645 3981 5478 3987 
Q 5389 3590 5254 3289 
Q 5120 2989 4934 2746 
Q 5139 2618 5404 2534 
Q 5670 2451 6035 2394 
Q 5907 2291 5843 2169 
Q 5779 2048 5728 1875 
Q 5434 1978 5162 2118 
Q 4890 2259 4653 2445 
z
M 3418 13 
Q 3846 13 4198 16 
Q 4550 19 4851 25 
Q 5152 32 5411 41 
Q 5670 51 5907 64 
L 5907 -461 
Q 5658 -448 5382 -438 
Q 5107 -429 4784 -422 
Q 4461 -416 4073 -413 
Q 3686 -410 3219 -410 
Q 2746 -410 2362 -413 
Q 1978 -416 1654 -422 
Q 1331 -429 1056 -438 
Q 781 -448 531 -461 
L 531 64 
Q 774 51 1043 44 
Q 1312 38 1619 26 
L 1619 410 
Q 1619 582 1609 752 
Q 1600 922 1581 1024 
Q 1715 998 1872 992 
Q 2029 986 2106 992 
Q 2253 998 2150 896 
Q 2106 851 2090 755 
Q 2074 659 2074 550 
L 2074 13 
L 2957 13 
L 2957 1338 
Q 2650 1338 2390 1331 
Q 2131 1325 1907 1321 
Q 1683 1318 1491 1308 
Q 1299 1299 1120 1286 
L 1120 1754 
Q 1318 1741 1532 1731 
Q 1747 1722 2000 1718 
Q 2253 1715 2553 1712 
Q 2854 1709 3226 1709 
Q 3597 1709 3897 1712 
Q 4198 1715 4448 1721 
Q 4698 1728 4912 1734 
Q 5126 1741 5325 1754 
L 5325 1286 
Q 5139 1299 4940 1308 
Q 4742 1318 4512 1324 
Q 4282 1331 4013 1334 
Q 3744 1338 3418 1338 
L 3418 902 
Q 3808 902 4077 902 
Q 4346 902 4547 905 
Q 4749 909 4902 912 
Q 5056 915 5216 928 
L 5216 499 
Q 5069 506 4915 512 
Q 4762 518 4560 521 
Q 4358 525 4083 528 
Q 3808 531 3418 531 
L 3418 13 
z
" transform="scale(0.015625)"/>
      <path id="STHeitiSC-Medium-3" transform="scale(0.015625)"/>
      <path id="STHeitiSC-Medium-51" d="M 2099 3962 
Q 2854 3962 3382 3418 
Q 3910 2874 3910 2112 
Q 3910 1350 3388 809 
Q 2867 269 2099 269 
Q 1331 269 806 809 
Q 282 1350 282 2112 
Q 282 2874 810 3418 
Q 1338 3962 2099 3962 
z
M 2099 774 
Q 2630 774 3004 1161 
Q 3379 1549 3379 2096 
Q 3379 2643 2998 3043 
Q 2618 3443 2096 3443 
Q 1574 3443 1196 3043 
Q 819 2643 819 2092 
Q 819 1542 1184 1158 
Q 1549 774 2099 774 
z
" transform="scale(0.015625)"/>
      <path id="STHeitiSC-Medium-4d" d="M 3181 384 
L 2419 384 
L 781 1856 
L 781 384 
L 250 384 
L 250 5184 
L 781 5184 
L 781 2554 
L 2285 3866 
L 3072 3872 
L 1152 2208 
L 3181 384 
z
" transform="scale(0.015625)"/>
      <path id="STHeitiSC-Medium-47" d="M 3878 2035 
L 819 2035 
Q 851 1459 1206 1110 
Q 1562 762 2054 762 
Q 2893 762 3334 1587 
L 3782 1357 
Q 3482 800 3072 534 
Q 2662 269 2093 269 
Q 1306 269 794 809 
Q 282 1350 282 2112 
Q 282 2874 797 3418 
Q 1312 3962 2073 3962 
Q 2835 3962 3347 3446 
Q 3859 2931 3878 2035 
z
M 3290 2502 
Q 3194 2950 2854 3200 
Q 2515 3450 2074 3450 
Q 1178 3450 883 2502 
L 3290 2502 
z
" transform="scale(0.015625)"/>
      <path id="STHeitiSC-Medium-50" d="M 3501 384 
L 2976 384 
L 2976 2048 
Q 2976 2624 2921 2832 
Q 2867 3040 2761 3184 
Q 2656 3328 2493 3398 
Q 2330 3469 2096 3469 
Q 1862 3469 1638 3353 
Q 1414 3238 1254 3033 
Q 1094 2829 1033 2598 
Q 973 2368 973 1677 
L 973 384 
L 442 384 
L 442 3872 
L 973 3872 
L 973 3347 
Q 1491 3962 2202 3962 
Q 2579 3962 2886 3766 
Q 3194 3571 3347 3228 
Q 3501 2886 3501 2176 
L 3501 384 
z
" transform="scale(0.015625)"/>
      <path id="STHeitiSC-Medium-6d6" d="M 4723 3085 
L 3360 3085 
Q 3200 3085 3033 3081 
Q 2867 3078 2713 3075 
Q 2560 3072 2429 3062 
Q 2298 3053 2202 3040 
L 2202 3558 
Q 2406 3533 2844 3517 
Q 3283 3501 3885 3501 
Q 4474 3501 4918 3517 
Q 5363 3533 5574 3558 
L 5574 3021 
Q 5491 3014 5385 2976 
Q 5280 2938 5113 2842 
Q 4947 2746 4704 2582 
Q 4461 2419 4109 2163 
Q 4154 2125 4192 2080 
Q 4230 2035 4262 1990 
Q 4550 1990 4793 1993 
Q 5037 1997 5245 2003 
Q 5453 2010 5638 2022 
Q 5824 2035 6003 2054 
L 5594 858 
L 5037 960 
L 5293 1568 
L 4147 1568 
L 4147 -192 
Q 4147 -307 4092 -403 
Q 4038 -499 3910 -566 
Q 3782 -634 3561 -672 
Q 3341 -710 3014 -717 
Q 3002 -582 2938 -406 
Q 2874 -230 2752 -70 
Q 3027 -102 3200 -105 
Q 3373 -109 3462 -86 
Q 3552 -64 3584 -13 
Q 3616 38 3616 109 
L 3616 1568 
Q 2957 1568 2534 1555 
Q 2112 1542 1843 1530 
L 1843 2042 
Q 1971 2029 2166 2022 
Q 2362 2016 2598 2006 
Q 2835 1997 3100 1993 
Q 3366 1990 3635 1990 
Q 3514 2138 3334 2291 
Q 3155 2445 2989 2541 
L 3283 2874 
Q 3533 2726 3827 2438 
L 4723 3085 
z
M 3386 4493 
Q 3341 4659 3283 4822 
Q 3226 4986 3155 5133 
L 3763 5254 
Q 3821 5069 3875 4873 
Q 3930 4678 3981 4493 
Q 4461 4493 4806 4499 
Q 5152 4506 5392 4512 
Q 5632 4518 5789 4531 
Q 5946 4544 6054 4557 
L 6054 3981 
Q 5830 4006 5398 4016 
Q 4966 4026 4397 4026 
L 1587 4026 
Q 1587 3296 1577 2742 
Q 1568 2189 1542 1769 
Q 1517 1350 1472 1030 
Q 1427 710 1350 444 
Q 1274 179 1168 -57 
Q 1062 -294 915 -550 
Q 787 -448 659 -371 
Q 531 -294 346 -256 
Q 512 -19 637 211 
Q 762 442 842 714 
Q 922 986 966 1328 
Q 1011 1670 1024 2124 
Q 1037 2579 1021 3174 
Q 1005 3770 966 4557 
Q 1158 4538 1376 4528 
Q 1594 4518 1872 4508 
Q 2150 4499 2518 4496 
Q 2886 4493 3386 4493 
z
" transform="scale(0.015625)"/>
      <path id="STHeitiSC-Medium-509" d="M 5837 4954 
Q 5792 4922 5779 4886 
Q 5766 4851 5766 4762 
L 5766 250 
Q 5766 6 5734 -147 
Q 5702 -301 5590 -397 
Q 5478 -493 5264 -553 
Q 5050 -614 4678 -678 
Q 4627 -346 4352 6 
Q 4653 -6 4829 0 
Q 5005 6 5097 51 
Q 5190 96 5216 179 
Q 5242 262 5242 397 
L 5242 4070 
Q 5242 4448 5232 4713 
Q 5222 4979 5210 5133 
Q 5338 5107 5501 5094 
Q 5664 5082 5779 5088 
Q 5875 5094 5888 5052 
Q 5901 5011 5837 4954 
z
M 4614 4154 
Q 4544 4109 4544 3949 
L 4544 1747 
Q 4544 1555 4550 1356 
Q 4557 1158 4576 934 
L 4013 934 
Q 4026 1171 4032 1363 
Q 4038 1555 4038 1747 
L 4038 3590 
Q 4038 3834 4032 4003 
Q 4026 4173 4013 4301 
Q 4160 4275 4310 4272 
Q 4461 4269 4582 4282 
Q 4666 4294 4675 4249 
Q 4685 4205 4614 4154 
z
M 3507 3379 
Q 3424 2656 3264 2067 
Q 3104 1478 2886 1062 
Q 2778 864 2602 643 
Q 2426 422 2198 208 
Q 1971 -6 1705 -208 
Q 1440 -410 1165 -576 
Q 1133 -531 1075 -467 
Q 1018 -403 950 -339 
Q 883 -275 812 -220 
Q 742 -166 691 -134 
Q 890 -58 1114 70 
Q 1338 198 1555 358 
Q 1773 518 1965 700 
Q 2157 883 2291 1069 
Q 2221 1146 2125 1248 
Q 2029 1350 1923 1449 
Q 1818 1549 1709 1641 
Q 1600 1734 1517 1798 
L 1888 2163 
Q 2061 2022 2224 1878 
Q 2387 1734 2560 1568 
Q 2637 1728 2691 1872 
Q 2746 2016 2790 2169 
Q 2835 2323 2867 2502 
Q 2899 2682 2931 2912 
L 1894 2912 
Q 1811 2714 1702 2506 
Q 1594 2298 1472 2096 
Q 1350 1894 1219 1708 
Q 1088 1523 966 1382 
Q 877 1491 752 1574 
Q 627 1658 493 1696 
Q 736 1907 941 2188 
Q 1146 2470 1306 2796 
Q 1466 3123 1571 3481 
Q 1677 3840 1728 4205 
Q 1363 4198 1097 4185 
Q 832 4173 608 4147 
L 608 4730 
Q 896 4698 1261 4682 
Q 1626 4666 2163 4666 
Q 2707 4666 3068 4682 
Q 3430 4698 3718 4730 
L 3718 4147 
Q 3443 4179 3097 4195 
Q 2752 4211 2246 4211 
Q 2202 3821 2054 3379 
L 3507 3379 
z
" transform="scale(0.015625)"/>
      <path id="STHeitiSC-Medium-a" d="M 2048 5779 
Q 1709 5082 1526 4237 
Q 1344 3392 1344 2541 
Q 1344 877 1888 -442 
L 1312 -442 
Q 787 819 787 2483 
Q 787 4275 1440 5779 
L 2048 5779 
z
" transform="scale(0.015625)"/>
      <path id="STHeitiSC-Medium-34" d="M 3622 384 
L 2931 384 
L 1280 2522 
L 1088 2522 
L 1088 384 
L 538 384 
L 538 5069 
L 1498 5069 
Q 2266 5069 2554 5001 
Q 2842 4934 3053 4774 
Q 3264 4614 3385 4361 
Q 3507 4109 3507 3802 
Q 3507 3219 3110 2870 
Q 2714 2522 1965 2522 
L 3622 384 
z
M 1088 3059 
L 1837 3059 
Q 2400 3053 2669 3229 
Q 2938 3405 2938 3792 
Q 2938 4179 2675 4355 
Q 2413 4531 1856 4531 
L 1088 4531 
L 1088 3059 
z
" transform="scale(0.015625)"/>
      <path id="STHeitiSC-Medium-52" d="M 973 3341 
Q 1491 3962 2252 3962 
Q 3014 3962 3545 3421 
Q 4077 2880 4077 2118 
Q 4077 1357 3552 813 
Q 3027 269 2284 269 
Q 1542 269 973 896 
L 973 -851 
L 448 -851 
L 448 3872 
L 973 3872 
L 973 3341 
z
M 2253 762 
Q 2778 762 3165 1155 
Q 3552 1549 3552 2105 
Q 3552 2662 3171 3056 
Q 2790 3450 2240 3450 
Q 1690 3450 1315 3062 
Q 941 2675 941 2105 
Q 941 1536 1325 1149 
Q 1709 762 2253 762 
z
" transform="scale(0.015625)"/>
      <path id="STHeitiSC-Medium-4e" d="M 902 384 
L 378 384 
L 378 5184 
L 902 5184 
L 902 384 
z
" transform="scale(0.015625)"/>
      <path id="STHeitiSC-Medium-4b" d="M 640 5184 
Q 813 5184 931 5065 
Q 1050 4947 1050 4777 
Q 1050 4608 931 4489 
Q 813 4371 643 4371 
Q 474 4371 355 4492 
Q 237 4614 237 4777 
Q 237 4941 355 5062 
Q 474 5184 640 5184 
z
M 909 384 
L 378 384 
L 378 3872 
L 909 3872 
L 909 384 
z
" transform="scale(0.015625)"/>
      <path id="STHeitiSC-Medium-45" d="M 3853 1094 
Q 3578 691 3133 480 
Q 2688 269 2170 269 
Q 1363 269 822 800 
Q 282 1331 282 2099 
Q 282 2867 826 3414 
Q 1370 3962 2234 3962 
Q 2746 3962 3178 3738 
Q 3610 3514 3853 3110 
L 3437 2848 
Q 2970 3456 2214 3456 
Q 1619 3456 1216 3075 
Q 813 2694 813 2131 
Q 813 1568 1209 1165 
Q 1606 762 2214 762 
Q 2944 762 3443 1376 
L 3853 1094 
z
" transform="scale(0.015625)"/>
      <path id="STHeitiSC-Medium-43" d="M 3917 384 
L 3398 384 
L 3398 896 
Q 2829 269 2086 269 
Q 1344 269 816 816 
Q 288 1363 288 2121 
Q 288 2880 819 3421 
Q 1350 3962 2115 3962 
Q 2880 3962 3398 3341 
L 3398 3872 
L 3917 3872 
L 3917 384 
z
M 2125 762 
Q 2656 762 3040 1146 
Q 3424 1530 3424 2102 
Q 3424 2675 3046 3062 
Q 2669 3450 2121 3450 
Q 1574 3450 1196 3050 
Q 819 2650 819 2106 
Q 819 1562 1203 1162 
Q 1587 762 2125 762 
z
" transform="scale(0.015625)"/>
      <path id="STHeitiSC-Medium-b" d="M 922 5779 
Q 1574 4275 1574 2483 
Q 1574 819 1050 -442 
L 474 -442 
Q 1018 877 1018 2541 
Q 1018 3392 835 4237 
Q 653 5082 314 5779 
L 922 5779 
z
" transform="scale(0.015625)"/>
     </defs>
     <use xlink:href="#STHeitiSC-Medium-225"/>
     <use xlink:href="#STHeitiSC-Medium-452" transform="translate(100 0)"/>
     <use xlink:href="#STHeitiSC-Medium-3" transform="translate(200 0)"/>
     <use xlink:href="#STHeitiSC-Medium-56" transform="translate(225 0)"/>
     <use xlink:href="#STHeitiSC-Medium-51" transform="translate(258.90625 0)"/>
     <use xlink:href="#STHeitiSC-Medium-4d" transform="translate(324.40625 0)"/>
     <use xlink:href="#STHeitiSC-Medium-47" transform="translate(374.609375 0)"/>
     <use xlink:href="#STHeitiSC-Medium-50" transform="translate(439.609375 0)"/>
     <use xlink:href="#STHeitiSC-Medium-3" transform="translate(500.609375 0)"/>
     <use xlink:href="#STHeitiSC-Medium-6d6" transform="translate(525.609375 0)"/>
     <use xlink:href="#STHeitiSC-Medium-509" transform="translate(625.609375 0)"/>
     <use xlink:href="#STHeitiSC-Medium-3" transform="translate(725.609375 0)"/>
     <use xlink:href="#STHeitiSC-Medium-a" transform="translate(750.609375 0)"/>
     <use xlink:href="#STHeitiSC-Medium-34" transform="translate(787.515625 0)"/>
     <use xlink:href="#STHeitiSC-Medium-47" transform="translate(848.21875 0)"/>
     <use xlink:href="#STHeitiSC-Medium-52" transform="translate(913.21875 0)"/>
     <use xlink:href="#STHeitiSC-Medium-4e" transform="translate(981.421875 0)"/>
     <use xlink:href="#STHeitiSC-Medium-4b" transform="translate(1001.421875 0)"/>
     <use xlink:href="#STHeitiSC-Medium-45" transform="translate(1021.421875 0)"/>
     <use xlink:href="#STHeitiSC-Medium-43" transform="translate(1086.125 0)"/>
     <use xlink:href="#STHeitiSC-Medium-56" transform="translate(1154.421875 0)"/>
     <use xlink:href="#STHeitiSC-Medium-47" transform="translate(1188.328125 0)"/>
     <use xlink:href="#STHeitiSC-Medium-b" transform="translate(1253.328125 0)"/>
    </g>
    <!-- [batch, seq, hidden] -->
    <g transform="translate(225.653471 79.418361) scale(0.11 -0.11)">
     <defs>
      <path id="STHeitiSC-Medium-3d" d="M 2003 -672 
L 864 -672 
L 864 5370 
L 2003 5370 
L 2003 4838 
L 1389 4838 
L 1389 -154 
L 2003 -154 
L 2003 -672 
z
" transform="scale(0.015625)"/>
      <path id="STHeitiSC-Medium-44" d="M 992 3360 
Q 1536 3962 2297 3962 
Q 3059 3962 3580 3421 
Q 4102 2880 4102 2118 
Q 4102 1357 3571 813 
Q 3040 269 2288 269 
Q 1536 269 992 922 
L 992 384 
L 474 384 
L 474 5184 
L 992 5184 
L 992 3360 
z
M 2266 781 
Q 2810 781 3190 1184 
Q 3571 1587 3571 2128 
Q 3571 2669 3200 3072 
Q 2829 3475 2272 3475 
Q 1715 3475 1340 3097 
Q 966 2720 966 2147 
Q 966 1574 1344 1177 
Q 1722 781 2266 781 
z
" transform="scale(0.015625)"/>
      <path id="STHeitiSC-Medium-4a" d="M 3501 384 
L 2970 384 
L 2970 2048 
Q 2970 2534 2941 2732 
Q 2912 2931 2809 3107 
Q 2707 3283 2531 3376 
Q 2355 3469 2108 3469 
Q 1862 3469 1638 3353 
Q 1414 3238 1254 3033 
Q 1094 2829 1033 2598 
Q 973 2368 973 1677 
L 973 384 
L 442 384 
L 442 5184 
L 973 5184 
L 973 3347 
Q 1491 3962 2202 3962 
Q 2579 3962 2886 3766 
Q 3194 3571 3347 3228 
Q 3501 2886 3501 2176 
L 3501 384 
z
" transform="scale(0.015625)"/>
      <path id="STHeitiSC-Medium-e" d="M 1408 1414 
L 736 154 
L 346 320 
L 902 1658 
L 1408 1414 
z
" transform="scale(0.015625)"/>
      <path id="STHeitiSC-Medium-55" d="M 2259 3462 
L 1920 3110 
Q 1542 3462 1229 3462 
Q 1030 3462 896 3337 
Q 762 3213 762 3030 
Q 762 2848 912 2710 
Q 1062 2573 1446 2371 
Q 1830 2170 2038 1926 
Q 2246 1683 2246 1331 
Q 2246 883 1936 576 
Q 1626 269 1171 269 
Q 538 269 115 806 
L 448 1178 
Q 794 774 1152 774 
Q 1395 774 1568 934 
Q 1741 1094 1741 1308 
Q 1741 1523 1584 1667 
Q 1427 1811 1046 2003 
Q 666 2195 470 2428 
Q 275 2662 275 3043 
Q 275 3424 553 3693 
Q 832 3962 1289 3962 
Q 1747 3962 2259 3462 
z
" transform="scale(0.015625)"/>
      <path id="STHeitiSC-Medium-53" d="M 3917 -851 
L 3398 -851 
L 3398 896 
Q 2835 269 2086 269 
Q 1338 269 813 816 
Q 288 1363 288 2121 
Q 288 2880 819 3421 
Q 1350 3962 2112 3962 
Q 2874 3962 3398 3341 
L 3398 3872 
L 3917 3872 
L 3917 -851 
z
M 2118 762 
Q 2630 762 3030 1149 
Q 3430 1536 3430 2093 
Q 3430 2650 3056 3050 
Q 2682 3450 2131 3450 
Q 1581 3450 1200 3046 
Q 819 2643 819 2099 
Q 819 1555 1206 1158 
Q 1594 762 2118 762 
z
" transform="scale(0.015625)"/>
      <path id="STHeitiSC-Medium-46" d="M 3923 384 
L 3405 384 
L 3405 896 
Q 2835 269 2089 269 
Q 1344 269 819 813 
Q 294 1357 294 2118 
Q 294 2880 825 3421 
Q 1357 3962 2121 3962 
Q 2886 3962 3405 3341 
L 3405 5184 
L 3923 5184 
L 3923 384 
z
M 2131 762 
Q 2637 762 3033 1139 
Q 3430 1517 3430 2096 
Q 3430 2675 3062 3062 
Q 2694 3450 2134 3450 
Q 1574 3450 1200 3050 
Q 826 2650 826 2109 
Q 826 1568 1210 1165 
Q 1594 762 2131 762 
z
" transform="scale(0.015625)"/>
      <path id="STHeitiSC-Medium-3f" d="M 1382 -672 
L 243 -672 
L 243 -154 
L 858 -154 
L 858 4838 
L 243 4838 
L 243 5370 
L 1382 5370 
L 1382 -672 
z
" transform="scale(0.015625)"/>
     </defs>
     <use xlink:href="#STHeitiSC-Medium-3d"/>
     <use xlink:href="#STHeitiSC-Medium-44" transform="translate(35.09375 0)"/>
     <use xlink:href="#STHeitiSC-Medium-43" transform="translate(103.296875 0)"/>
     <use xlink:href="#STHeitiSC-Medium-56" transform="translate(171.59375 0)"/>
     <use xlink:href="#STHeitiSC-Medium-45" transform="translate(205.5 0)"/>
     <use xlink:href="#STHeitiSC-Medium-4a" transform="translate(270.203125 0)"/>
     <use xlink:href="#STHeitiSC-Medium-e" transform="translate(331.203125 0)"/>
     <use xlink:href="#STHeitiSC-Medium-3" transform="translate(358.90625 0)"/>
     <use xlink:href="#STHeitiSC-Medium-55" transform="translate(383.90625 0)"/>
     <use xlink:href="#STHeitiSC-Medium-47" transform="translate(422.703125 0)"/>
     <use xlink:href="#STHeitiSC-Medium-53" transform="translate(487.703125 0)"/>
     <use xlink:href="#STHeitiSC-Medium-e" transform="translate(555.90625 0)"/>
     <use xlink:href="#STHeitiSC-Medium-3" transform="translate(583.609375 0)"/>
     <use xlink:href="#STHeitiSC-Medium-4a" transform="translate(608.609375 0)"/>
     <use xlink:href="#STHeitiSC-Medium-4b" transform="translate(669.609375 0)"/>
     <use xlink:href="#STHeitiSC-Medium-46" transform="translate(689.609375 0)"/>
     <use xlink:href="#STHeitiSC-Medium-46" transform="translate(758.109375 0)"/>
     <use xlink:href="#STHeitiSC-Medium-47" transform="translate(826.609375 0)"/>
     <use xlink:href="#STHeitiSC-Medium-50" transform="translate(891.609375 0)"/>
     <use xlink:href="#STHeitiSC-Medium-3f" transform="translate(952.609375 0)"/>
    </g>
   </g>
   <g id="text_6">
    <!-- GPU 0 -->
    <g transform="translate(147.941786 197.10459) scale(0.08 -0.08)">
     <defs>
      <path id="STHeitiSC-Medium-29" d="M 5325 2675 
Q 5306 1536 4662 902 
Q 4019 269 2970 269 
Q 1766 269 1049 1008 
Q 333 1747 333 2739 
Q 333 3731 1049 4457 
Q 1766 5184 2899 5184 
Q 3514 5184 4042 4957 
Q 4570 4730 5075 4262 
L 4653 3859 
Q 4262 4237 3808 4438 
Q 3354 4640 2874 4640 
Q 2394 4640 1920 4384 
Q 1446 4128 1177 3693 
Q 909 3258 909 2752 
Q 909 1965 1501 1379 
Q 2093 794 2982 794 
Q 3642 794 4122 1155 
Q 4602 1517 4710 2144 
L 3251 2144 
L 3251 2675 
L 5325 2675 
z
" transform="scale(0.015625)"/>
      <path id="STHeitiSC-Medium-32" d="M 512 5069 
L 1472 5069 
Q 2291 5069 2547 5005 
Q 2803 4941 3017 4774 
Q 3232 4608 3353 4358 
Q 3475 4109 3475 3795 
Q 3475 3482 3356 3232 
Q 3238 2982 3017 2819 
Q 2797 2656 2477 2589 
Q 2157 2522 1344 2522 
L 1062 2522 
L 1062 384 
L 512 384 
L 512 5069 
z
M 1062 3053 
L 1792 3053 
Q 2438 3040 2672 3257 
Q 2906 3475 2906 3802 
Q 2906 4531 1830 4531 
L 1062 4531 
L 1062 3053 
z
" transform="scale(0.015625)"/>
      <path id="STHeitiSC-Medium-37" d="M 3661 2253 
Q 3661 1542 3517 1161 
Q 3373 781 3005 525 
Q 2637 269 2144 269 
Q 1754 269 1440 393 
Q 1126 518 918 745 
Q 710 973 620 1251 
Q 531 1530 531 2253 
L 531 5069 
L 1082 5069 
L 1082 2253 
Q 1082 1798 1107 1596 
Q 1133 1395 1254 1206 
Q 1376 1018 1603 906 
Q 1830 794 2118 794 
Q 2464 794 2717 995 
Q 2970 1197 3043 1462 
Q 3117 1728 3117 2253 
L 3117 5069 
L 3661 5069 
L 3661 2253 
z
" transform="scale(0.015625)"/>
      <path id="STHeitiSC-Medium-12" d="M 1747 5184 
Q 2502 5184 2944 4547 
Q 3386 3910 3386 2723 
Q 3386 1536 2938 902 
Q 2490 269 1738 269 
Q 986 269 573 893 
Q 160 1517 160 2729 
Q 160 3942 573 4563 
Q 986 5184 1747 5184 
z
M 1760 774 
Q 2285 774 2576 1283 
Q 2867 1792 2867 2726 
Q 2867 3661 2566 4160 
Q 2266 4659 1757 4659 
Q 1248 4659 966 4160 
Q 685 3661 685 2714 
Q 685 774 1760 774 
z
" transform="scale(0.015625)"/>
     </defs>
     <use xlink:href="#STHeitiSC-Medium-29"/>
     <use xlink:href="#STHeitiSC-Medium-32" transform="translate(87.203125 0)"/>
     <use xlink:href="#STHeitiSC-Medium-37" transform="translate(146.40625 0)"/>
     <use xlink:href="#STHeitiSC-Medium-3" transform="translate(211.90625 0)"/>
     <use xlink:href="#STHeitiSC-Medium-12" transform="translate(236.90625 0)"/>
    </g>
    <!-- t₀ ~ tₛ/₄₋₁ -->
    <g transform="translate(143.929911 205.34459) scale(0.08 -0.08)">
     <defs>
      <path id="STHeitiSC-Medium-60" d="M 3571 2515 
Q 3206 2310 3049 2252 
Q 2893 2195 2739 2195 
Q 2419 2195 1888 2438 
Q 1530 2598 1398 2646 
Q 1267 2694 1145 2694 
Q 1024 2694 854 2624 
Q 685 2554 307 2330 
L 307 2938 
Q 659 3136 825 3197 
Q 992 3258 1146 3258 
Q 1459 3258 2003 2995 
Q 2541 2739 2739 2739 
Q 2970 2739 3571 3130 
L 3571 2515 
z
" transform="scale(0.015625)"/>
      <path id="STHeitiSC-Medium-11" d="M 2675 5504 
L 736 77 
L 160 77 
L 2099 5504 
L 2675 5504 
z
" transform="scale(0.015625)"/>
      <path id="ArialUnicodeMS-ce5" d="M 2041 384 
L 1716 384 
L 1716 -97 
L 1269 -97 
L 1269 384 
L 72 384 
L 72 769 
L 1331 2253 
L 1716 2253 
L 1716 722 
L 2041 722 
L 2041 384 
z
M 1269 722 
L 1269 1644 
L 488 722 
L 1269 722 
z
" transform="scale(0.015625)"/>
     </defs>
     <use xlink:href="#STHeitiSC-Medium-56"/>
     <use xlink:href="#ArialUnicodeMS-ce1" transform="translate(33.90625 0)"/>
     <use xlink:href="#STHeitiSC-Medium-3" transform="translate(67.203125 0)"/>
     <use xlink:href="#STHeitiSC-Medium-60" transform="translate(92.203125 0)"/>
     <use xlink:href="#STHeitiSC-Medium-3" transform="translate(152.796875 0)"/>
     <use xlink:href="#STHeitiSC-Medium-56" transform="translate(177.796875 0)"/>
     <use xlink:href="#DejaVuSans-b75" transform="translate(211.703125 0)"/>
     <use xlink:href="#STHeitiSC-Medium-11" transform="translate(249.015625 0)"/>
     <use xlink:href="#ArialUnicodeMS-ce5" transform="translate(292.71875 0)"/>
     <use xlink:href="#ArialUnicodeMS-cec" transform="translate(326.015625 0)"/>
     <use xlink:href="#ArialUnicodeMS-ce2" transform="translate(359.3125 0)"/>
    </g>
    <!-- [B, S/tp, H] -->
    <g transform="translate(139.758036 213.58459) scale(0.08 -0.08)">
     <defs>
      <path id="STHeitiSC-Medium-24" d="M 2470 2950 
Q 2918 2784 3145 2477 
Q 3373 2170 3373 1747 
Q 3373 1158 2947 771 
Q 2522 384 1837 384 
L 525 384 
L 525 5069 
L 1478 5069 
Q 2221 5069 2608 4765 
Q 2995 4461 2995 3898 
Q 2995 3283 2470 2950 
z
M 1069 3149 
L 1286 3149 
Q 1862 3149 2147 3328 
Q 2432 3507 2432 3898 
Q 2432 4531 1555 4531 
L 1069 4531 
L 1069 3149 
z
M 1069 922 
L 1594 922 
Q 2086 922 2310 1018 
Q 2534 1114 2668 1312 
Q 2803 1510 2803 1715 
Q 2803 1920 2723 2077 
Q 2643 2234 2486 2355 
Q 2330 2477 2102 2537 
Q 1875 2598 1280 2598 
L 1069 2598 
L 1069 922 
z
" transform="scale(0.015625)"/>
      <path id="STHeitiSC-Medium-35" d="M 2317 4038 
Q 2061 4384 1881 4502 
Q 1702 4621 1462 4621 
Q 1222 4621 1059 4467 
Q 896 4314 896 4074 
Q 896 3834 1049 3654 
Q 1203 3475 1756 3068 
Q 2310 2662 2566 2304 
Q 2822 1946 2822 1549 
Q 2822 1030 2422 649 
Q 2022 269 1491 269 
Q 557 269 26 1312 
L 493 1581 
Q 909 806 1427 806 
Q 1760 806 1997 1017 
Q 2234 1229 2234 1510 
Q 2234 1792 2035 2045 
Q 1837 2298 1350 2666 
Q 864 3034 681 3226 
Q 499 3418 416 3635 
Q 333 3853 333 4070 
Q 333 4538 656 4861 
Q 979 5184 1491 5184 
Q 1888 5184 2182 4982 
Q 2477 4781 2758 4384 
L 2317 4038 
z
" transform="scale(0.015625)"/>
      <path id="STHeitiSC-Medium-2a" d="M 3859 384 
L 3309 384 
L 3309 2605 
L 1062 2605 
L 1062 384 
L 506 384 
L 506 5069 
L 1062 5069 
L 1062 3142 
L 3309 3142 
L 3309 5069 
L 3859 5069 
L 3859 384 
z
" transform="scale(0.015625)"/>
     </defs>
     <use xlink:href="#STHeitiSC-Medium-3d"/>
     <use xlink:href="#STHeitiSC-Medium-24" transform="translate(35.09375 0)"/>
     <use xlink:href="#STHeitiSC-Medium-e" transform="translate(92.5 0)"/>
     <use xlink:href="#STHeitiSC-Medium-3" transform="translate(120.203125 0)"/>
     <use xlink:href="#STHeitiSC-Medium-35" transform="translate(145.203125 0)"/>
     <use xlink:href="#STHeitiSC-Medium-11" transform="translate(195 0)"/>
     <use xlink:href="#STHeitiSC-Medium-56" transform="translate(238.703125 0)"/>
     <use xlink:href="#STHeitiSC-Medium-52" transform="translate(272.609375 0)"/>
     <use xlink:href="#STHeitiSC-Medium-e" transform="translate(340.8125 0)"/>
     <use xlink:href="#STHeitiSC-Medium-3" transform="translate(368.515625 0)"/>
     <use xlink:href="#STHeitiSC-Medium-2a" transform="translate(393.515625 0)"/>
     <use xlink:href="#STHeitiSC-Medium-3f" transform="translate(461.8125 0)"/>
    </g>
   </g>
   <g id="text_7">
    <!-- GPU 1 -->
    <g transform="translate(324.444643 197.10459) scale(0.08 -0.08)">
     <defs>
      <path id="STHeitiSC-Medium-13" d="M 2131 384 
L 1587 384 
L 1587 4531 
L 826 4531 
L 1158 5069 
L 2131 5069 
L 2131 384 
z
" transform="scale(0.015625)"/>
     </defs>
     <use xlink:href="#STHeitiSC-Medium-29"/>
     <use xlink:href="#STHeitiSC-Medium-32" transform="translate(87.203125 0)"/>
     <use xlink:href="#STHeitiSC-Medium-37" transform="translate(146.40625 0)"/>
     <use xlink:href="#STHeitiSC-Medium-3" transform="translate(211.90625 0)"/>
     <use xlink:href="#STHeitiSC-Medium-13" transform="translate(236.90625 0)"/>
    </g>
    <!-- tₛ/₄ ~ tₛ/₂₋₁ -->
    <g transform="translate(317.192143 205.34459) scale(0.08 -0.08)">
     <defs>
      <path id="ArialUnicodeMS-ce3" d="M 2022 -97 
L 78 -97 
Q 113 306 884 863 
Q 1281 1156 1398 1273 
Q 1516 1391 1516 1538 
Q 1516 1700 1403 1790 
Q 1291 1881 1088 1881 
Q 897 1881 786 1809 
Q 675 1738 616 1528 
L 141 1575 
Q 216 1913 455 2083 
Q 694 2253 1094 2253 
Q 1506 2253 1757 2092 
Q 2009 1931 2009 1619 
Q 2009 1409 1909 1239 
Q 1809 1069 1648 931 
Q 1488 794 1088 513 
Q 925 400 813 281 
L 2022 281 
L 2022 -97 
z
" transform="scale(0.015625)"/>
     </defs>
     <use xlink:href="#STHeitiSC-Medium-56"/>
     <use xlink:href="#DejaVuSans-b75" transform="translate(33.90625 0)"/>
     <use xlink:href="#STHeitiSC-Medium-11" transform="translate(71.21875 0)"/>
     <use xlink:href="#ArialUnicodeMS-ce5" transform="translate(114.921875 0)"/>
     <use xlink:href="#STHeitiSC-Medium-3" transform="translate(148.21875 0)"/>
     <use xlink:href="#STHeitiSC-Medium-60" transform="translate(173.21875 0)"/>
     <use xlink:href="#STHeitiSC-Medium-3" transform="translate(233.8125 0)"/>
     <use xlink:href="#STHeitiSC-Medium-56" transform="translate(258.8125 0)"/>
     <use xlink:href="#DejaVuSans-b75" transform="translate(292.71875 0)"/>
     <use xlink:href="#STHeitiSC-Medium-11" transform="translate(330.03125 0)"/>
     <use xlink:href="#ArialUnicodeMS-ce3" transform="translate(373.734375 0)"/>
     <use xlink:href="#ArialUnicodeMS-cec" transform="translate(407.03125 0)"/>
     <use xlink:href="#ArialUnicodeMS-ce2" transform="translate(440.328125 0)"/>
    </g>
    <!-- [B, S/tp, H] -->
    <g transform="translate(316.260893 213.58459) scale(0.08 -0.08)">
     <use xlink:href="#STHeitiSC-Medium-3d"/>
     <use xlink:href="#STHeitiSC-Medium-24" transform="translate(35.09375 0)"/>
     <use xlink:href="#STHeitiSC-Medium-e" transform="translate(92.5 0)"/>
     <use xlink:href="#STHeitiSC-Medium-3" transform="translate(120.203125 0)"/>
     <use xlink:href="#STHeitiSC-Medium-35" transform="translate(145.203125 0)"/>
     <use xlink:href="#STHeitiSC-Medium-11" transform="translate(195 0)"/>
     <use xlink:href="#STHeitiSC-Medium-56" transform="translate(238.703125 0)"/>
     <use xlink:href="#STHeitiSC-Medium-52" transform="translate(272.609375 0)"/>
     <use xlink:href="#STHeitiSC-Medium-e" transform="translate(340.8125 0)"/>
     <use xlink:href="#STHeitiSC-Medium-3" transform="translate(368.515625 0)"/>
     <use xlink:href="#STHeitiSC-Medium-2a" transform="translate(393.515625 0)"/>
     <use xlink:href="#STHeitiSC-Medium-3f" transform="translate(461.8125 0)"/>
    </g>
   </g>
   <g id="text_8">
    <!-- GPU 2 -->
    <g transform="translate(500.9475 197.10459) scale(0.08 -0.08)">
     <defs>
      <path id="STHeitiSC-Medium-14" d="M 3360 384 
L 90 384 
L 1914 2355 
Q 2374 2842 2566 3123 
Q 2758 3405 2758 3763 
Q 2758 4122 2480 4390 
Q 2202 4659 1789 4659 
Q 1376 4659 1101 4368 
Q 826 4077 787 3539 
L 256 3539 
Q 288 4294 736 4739 
Q 1184 5184 1821 5184 
Q 2458 5184 2877 4771 
Q 3296 4358 3296 3763 
Q 3296 3328 3065 2950 
Q 2835 2573 2368 2074 
L 1293 915 
L 3360 915 
L 3360 384 
z
" transform="scale(0.015625)"/>
     </defs>
     <use xlink:href="#STHeitiSC-Medium-29"/>
     <use xlink:href="#STHeitiSC-Medium-32" transform="translate(87.203125 0)"/>
     <use xlink:href="#STHeitiSC-Medium-37" transform="translate(146.40625 0)"/>
     <use xlink:href="#STHeitiSC-Medium-3" transform="translate(211.90625 0)"/>
     <use xlink:href="#STHeitiSC-Medium-14" transform="translate(236.90625 0)"/>
    </g>
    <!-- tₛ/₂ ~ t₃ₛ/₄₋₁ -->
    <g transform="translate(492.363125 205.34459) scale(0.08 -0.08)">
     <defs>
      <path id="ArialUnicodeMS-ce4" d="M 1478 1159 
Q 1747 1097 1881 948 
Q 2016 800 2016 569 
Q 2016 263 1761 55 
Q 1506 -153 1069 -153 
Q 650 -153 409 14 
Q 169 181 103 519 
L 556 563 
Q 609 388 729 300 
Q 850 213 1038 213 
Q 1250 213 1389 330 
Q 1528 447 1528 628 
Q 1528 800 1414 887 
Q 1300 975 1075 975 
Q 1056 975 863 966 
L 928 1306 
Q 1144 1306 1283 1387 
Q 1422 1469 1422 1625 
Q 1422 1741 1326 1820 
Q 1231 1900 1044 1900 
Q 878 1900 767 1822 
Q 656 1744 603 1588 
L 153 1656 
Q 278 1994 483 2123 
Q 688 2253 1050 2253 
Q 1450 2253 1678 2103 
Q 1906 1953 1906 1672 
Q 1906 1481 1798 1356 
Q 1691 1231 1478 1172 
L 1478 1159 
z
" transform="scale(0.015625)"/>
     </defs>
     <use xlink:href="#STHeitiSC-Medium-56"/>
     <use xlink:href="#DejaVuSans-b75" transform="translate(33.90625 0)"/>
     <use xlink:href="#STHeitiSC-Medium-11" transform="translate(71.21875 0)"/>
     <use xlink:href="#ArialUnicodeMS-ce3" transform="translate(114.921875 0)"/>
     <use xlink:href="#STHeitiSC-Medium-3" transform="translate(148.21875 0)"/>
     <use xlink:href="#STHeitiSC-Medium-60" transform="translate(173.21875 0)"/>
     <use xlink:href="#STHeitiSC-Medium-3" transform="translate(233.8125 0)"/>
     <use xlink:href="#STHeitiSC-Medium-56" transform="translate(258.8125 0)"/>
     <use xlink:href="#ArialUnicodeMS-ce4" transform="translate(292.71875 0)"/>
     <use xlink:href="#DejaVuSans-b75" transform="translate(326.015625 0)"/>
     <use xlink:href="#STHeitiSC-Medium-11" transform="translate(363.328125 0)"/>
     <use xlink:href="#ArialUnicodeMS-ce5" transform="translate(407.03125 0)"/>
     <use xlink:href="#ArialUnicodeMS-cec" transform="translate(440.328125 0)"/>
     <use xlink:href="#ArialUnicodeMS-ce2" transform="translate(473.625 0)"/>
    </g>
    <!-- [B, S/tp, H] -->
    <g transform="translate(492.76375 213.58459) scale(0.08 -0.08)">
     <use xlink:href="#STHeitiSC-Medium-3d"/>
     <use xlink:href="#STHeitiSC-Medium-24" transform="translate(35.09375 0)"/>
     <use xlink:href="#STHeitiSC-Medium-e" transform="translate(92.5 0)"/>
     <use xlink:href="#STHeitiSC-Medium-3" transform="translate(120.203125 0)"/>
     <use xlink:href="#STHeitiSC-Medium-35" transform="translate(145.203125 0)"/>
     <use xlink:href="#STHeitiSC-Medium-11" transform="translate(195 0)"/>
     <use xlink:href="#STHeitiSC-Medium-56" transform="translate(238.703125 0)"/>
     <use xlink:href="#STHeitiSC-Medium-52" transform="translate(272.609375 0)"/>
     <use xlink:href="#STHeitiSC-Medium-e" transform="translate(340.8125 0)"/>
     <use xlink:href="#STHeitiSC-Medium-3" transform="translate(368.515625 0)"/>
     <use xlink:href="#STHeitiSC-Medium-2a" transform="translate(393.515625 0)"/>
     <use xlink:href="#STHeitiSC-Medium-3f" transform="translate(461.8125 0)"/>
    </g>
   </g>
   <g id="text_9">
    <!-- GPU 3 -->
    <g transform="translate(677.450357 197.10459) scale(0.08 -0.08)">
     <defs>
      <path id="STHeitiSC-Medium-15" d="M 2554 3021 
Q 2931 2835 3139 2508 
Q 3347 2182 3347 1798 
Q 3347 1171 2889 720 
Q 2432 269 1734 269 
Q 1107 269 707 630 
Q 307 992 166 1702 
L 710 1702 
Q 832 1248 1072 1027 
Q 1312 806 1757 806 
Q 2202 806 2502 1084 
Q 2803 1363 2803 1785 
Q 2803 2208 2460 2457 
Q 2118 2707 1453 2720 
L 1453 3232 
Q 1933 3232 2227 3437 
Q 2522 3642 2522 3946 
Q 2522 4250 2294 4451 
Q 2067 4653 1744 4653 
Q 1421 4653 1219 4470 
Q 1018 4288 877 3917 
L 320 3917 
Q 461 4531 832 4857 
Q 1203 5184 1747 5184 
Q 2291 5184 2691 4825 
Q 3091 4467 3091 3955 
Q 3091 3366 2554 3021 
z
" transform="scale(0.015625)"/>
     </defs>
     <use xlink:href="#STHeitiSC-Medium-29"/>
     <use xlink:href="#STHeitiSC-Medium-32" transform="translate(87.203125 0)"/>
     <use xlink:href="#STHeitiSC-Medium-37" transform="translate(146.40625 0)"/>
     <use xlink:href="#STHeitiSC-Medium-3" transform="translate(211.90625 0)"/>
     <use xlink:href="#STHeitiSC-Medium-15" transform="translate(236.90625 0)"/>
    </g>
    <!-- t₃ₛ/₄ ~ tₛ₋₁ -->
    <g transform="translate(671.945982 205.34459) scale(0.08 -0.08)">
     <use xlink:href="#STHeitiSC-Medium-56"/>
     <use xlink:href="#ArialUnicodeMS-ce4" transform="translate(33.90625 0)"/>
     <use xlink:href="#DejaVuSans-b75" transform="translate(67.203125 0)"/>
     <use xlink:href="#STHeitiSC-Medium-11" transform="translate(104.515625 0)"/>
     <use xlink:href="#ArialUnicodeMS-ce5" transform="translate(148.21875 0)"/>
     <use xlink:href="#STHeitiSC-Medium-3" transform="translate(181.515625 0)"/>
     <use xlink:href="#STHeitiSC-Medium-60" transform="translate(206.515625 0)"/>
     <use xlink:href="#STHeitiSC-Medium-3" transform="translate(267.109375 0)"/>
     <use xlink:href="#STHeitiSC-Medium-56" transform="translate(292.109375 0)"/>
     <use xlink:href="#DejaVuSans-b75" transform="translate(326.015625 0)"/>
     <use xlink:href="#ArialUnicodeMS-cec" transform="translate(363.328125 0)"/>
     <use xlink:href="#ArialUnicodeMS-ce2" transform="translate(396.625 0)"/>
    </g>
    <!-- [B, S/tp, H] -->
    <g transform="translate(669.266607 213.58459) scale(0.08 -0.08)">
     <use xlink:href="#STHeitiSC-Medium-3d"/>
     <use xlink:href="#STHeitiSC-Medium-24" transform="translate(35.09375 0)"/>
     <use xlink:href="#STHeitiSC-Medium-e" transform="translate(92.5 0)"/>
     <use xlink:href="#STHeitiSC-Medium-3" transform="translate(120.203125 0)"/>
     <use xlink:href="#STHeitiSC-Medium-35" transform="translate(145.203125 0)"/>
     <use xlink:href="#STHeitiSC-Medium-11" transform="translate(195 0)"/>
     <use xlink:href="#STHeitiSC-Medium-56" transform="translate(238.703125 0)"/>
     <use xlink:href="#STHeitiSC-Medium-52" transform="translate(272.609375 0)"/>
     <use xlink:href="#STHeitiSC-Medium-e" transform="translate(340.8125 0)"/>
     <use xlink:href="#STHeitiSC-Medium-3" transform="translate(368.515625 0)"/>
     <use xlink:href="#STHeitiSC-Medium-2a" transform="translate(393.515625 0)"/>
     <use xlink:href="#STHeitiSC-Medium-3f" transform="translate(461.8125 0)"/>
    </g>
   </g>
   <g id="text_10">
    <!-- Shard(1) -->
    <g transform="translate(143.358036 294.308924) scale(0.08 -0.08)">
     <defs>
      <path id="STHeitiSC-Medium-54" d="M 1914 3821 
L 1638 3373 
Q 1530 3430 1427 3430 
Q 1229 3430 1069 3235 
Q 909 3040 829 2723 
Q 749 2406 749 1581 
L 749 384 
L 211 384 
L 211 3872 
L 749 3872 
L 749 3494 
Q 909 3731 1072 3846 
Q 1235 3962 1443 3962 
Q 1651 3962 1914 3821 
z
" transform="scale(0.015625)"/>
     </defs>
     <use xlink:href="#STHeitiSC-Medium-35"/>
     <use xlink:href="#STHeitiSC-Medium-4a" transform="translate(49.796875 0)"/>
     <use xlink:href="#STHeitiSC-Medium-43" transform="translate(110.796875 0)"/>
     <use xlink:href="#STHeitiSC-Medium-54" transform="translate(179.09375 0)"/>
     <use xlink:href="#STHeitiSC-Medium-46" transform="translate(209.1875 0)"/>
     <use xlink:href="#STHeitiSC-Medium-a" transform="translate(277.6875 0)"/>
     <use xlink:href="#STHeitiSC-Medium-13" transform="translate(314.59375 0)"/>
     <use xlink:href="#STHeitiSC-Medium-b" transform="translate(370 0)"/>
    </g>
    <!-- GPU 0 -->
    <g transform="translate(147.941786 302.548924) scale(0.08 -0.08)">
     <use xlink:href="#STHeitiSC-Medium-29"/>
     <use xlink:href="#STHeitiSC-Medium-32" transform="translate(87.203125 0)"/>
     <use xlink:href="#STHeitiSC-Medium-37" transform="translate(146.40625 0)"/>
     <use xlink:href="#STHeitiSC-Medium-3" transform="translate(211.90625 0)"/>
     <use xlink:href="#STHeitiSC-Medium-12" transform="translate(236.90625 0)"/>
    </g>
   </g>
   <g id="text_11">
    <!-- Shard(1) -->
    <g transform="translate(319.860893 294.308924) scale(0.08 -0.08)">
     <use xlink:href="#STHeitiSC-Medium-35"/>
     <use xlink:href="#STHeitiSC-Medium-4a" transform="translate(49.796875 0)"/>
     <use xlink:href="#STHeitiSC-Medium-43" transform="translate(110.796875 0)"/>
     <use xlink:href="#STHeitiSC-Medium-54" transform="translate(179.09375 0)"/>
     <use xlink:href="#STHeitiSC-Medium-46" transform="translate(209.1875 0)"/>
     <use xlink:href="#STHeitiSC-Medium-a" transform="translate(277.6875 0)"/>
     <use xlink:href="#STHeitiSC-Medium-13" transform="translate(314.59375 0)"/>
     <use xlink:href="#STHeitiSC-Medium-b" transform="translate(370 0)"/>
    </g>
    <!-- GPU 1 -->
    <g transform="translate(324.444643 302.548924) scale(0.08 -0.08)">
     <use xlink:href="#STHeitiSC-Medium-29"/>
     <use xlink:href="#STHeitiSC-Medium-32" transform="translate(87.203125 0)"/>
     <use xlink:href="#STHeitiSC-Medium-37" transform="translate(146.40625 0)"/>
     <use xlink:href="#STHeitiSC-Medium-3" transform="translate(211.90625 0)"/>
     <use xlink:href="#STHeitiSC-Medium-13" transform="translate(236.90625 0)"/>
    </g>
   </g>
   <g id="text_12">
    <!-- Shard(1) -->
    <g transform="translate(496.36375 294.308924) scale(0.08 -0.08)">
     <use xlink:href="#STHeitiSC-Medium-35"/>
     <use xlink:href="#STHeitiSC-Medium-4a" transform="translate(49.796875 0)"/>
     <use xlink:href="#STHeitiSC-Medium-43" transform="translate(110.796875 0)"/>
     <use xlink:href="#STHeitiSC-Medium-54" transform="translate(179.09375 0)"/>
     <use xlink:href="#STHeitiSC-Medium-46" transform="translate(209.1875 0)"/>
     <use xlink:href="#STHeitiSC-Medium-a" transform="translate(277.6875 0)"/>
     <use xlink:href="#STHeitiSC-Medium-13" transform="translate(314.59375 0)"/>
     <use xlink:href="#STHeitiSC-Medium-b" transform="translate(370 0)"/>
    </g>
    <!-- GPU 2 -->
    <g transform="translate(500.9475 302.548924) scale(0.08 -0.08)">
     <use xlink:href="#STHeitiSC-Medium-29"/>
     <use xlink:href="#STHeitiSC-Medium-32" transform="translate(87.203125 0)"/>
     <use xlink:href="#STHeitiSC-Medium-37" transform="translate(146.40625 0)"/>
     <use xlink:href="#STHeitiSC-Medium-3" transform="translate(211.90625 0)"/>
     <use xlink:href="#STHeitiSC-Medium-14" transform="translate(236.90625 0)"/>
    </g>
   </g>
   <g id="text_13">
    <!-- Shard(1) -->
    <g transform="translate(672.866607 294.308924) scale(0.08 -0.08)">
     <use xlink:href="#STHeitiSC-Medium-35"/>
     <use xlink:href="#STHeitiSC-Medium-4a" transform="translate(49.796875 0)"/>
     <use xlink:href="#STHeitiSC-Medium-43" transform="translate(110.796875 0)"/>
     <use xlink:href="#STHeitiSC-Medium-54" transform="translate(179.09375 0)"/>
     <use xlink:href="#STHeitiSC-Medium-46" transform="translate(209.1875 0)"/>
     <use xlink:href="#STHeitiSC-Medium-a" transform="translate(277.6875 0)"/>
     <use xlink:href="#STHeitiSC-Medium-13" transform="translate(314.59375 0)"/>
     <use xlink:href="#STHeitiSC-Medium-b" transform="translate(370 0)"/>
    </g>
    <!-- GPU 3 -->
    <g transform="translate(677.450357 302.548924) scale(0.08 -0.08)">
     <use xlink:href="#STHeitiSC-Medium-29"/>
     <use xlink:href="#STHeitiSC-Medium-32" transform="translate(87.203125 0)"/>
     <use xlink:href="#STHeitiSC-Medium-37" transform="translate(146.40625 0)"/>
     <use xlink:href="#STHeitiSC-Medium-3" transform="translate(211.90625 0)"/>
     <use xlink:href="#STHeitiSC-Medium-15" transform="translate(236.90625 0)"/>
    </g>
   </g>
   <g id="patch_14">
    <path d="M 128.651704 131.305608 
Q 140.591834 148.908792 156.616529 160.183321 
" style="fill: none; stroke: #00838f; stroke-width: 1.5; stroke-linecap: round"/>
    <path d="M 154.495944 156.245921 
L 156.616529 160.183321 
L 152.194258 159.517349 
" style="fill: none; stroke: #00838f; stroke-width: 1.5; stroke-linecap: round"/>
   </g>
   <g id="patch_15">
    <path d="M 159.634286 242.642951 
Q 159.634286 242.642951 159.634286 242.642951 
" style="fill: none; stroke: #2e7d32; stroke-width: 1.5; stroke-linecap: round"/>
   </g>
   <g id="patch_16">
    <path d="M 225.591414 130.558309 
Q 276.81918 156.825185 332.475493 161.955213 
" style="fill: none; stroke: #00838f; stroke-width: 1.5; stroke-linecap: round"/>
    <path d="M 328.675946 159.596518 
L 332.475493 161.955213 
L 328.308809 163.579633 
" style="fill: none; stroke: #00838f; stroke-width: 1.5; stroke-linecap: round"/>
   </g>
   <g id="patch_17">
    <path d="M 336.137143 242.642951 
Q 336.137143 242.642951 336.137143 242.642951 
" style="fill: none; stroke: #2e7d32; stroke-width: 1.5; stroke-linecap: round"/>
   </g>
   <g id="patch_18">
    <path d="M 321.962617 130.352916 
Q 413.16719 164.835654 508.964411 162.384158 
" style="fill: none; stroke: #00838f; stroke-width: 1.5; stroke-linecap: round"/>
    <path d="M 504.914556 160.487141 
L 508.964411 162.384158 
L 505.016884 164.485832 
" style="fill: none; stroke: #00838f; stroke-width: 1.5; stroke-linecap: round"/>
   </g>
   <g id="patch_19">
    <path d="M 512.64 242.642951 
Q 512.64 242.642951 512.64 242.642951 
" style="fill: none; stroke: #2e7d32; stroke-width: 1.5; stroke-linecap: round"/>
   </g>
   <g id="patch_20">
    <path d="M 418.263291 130.259918 
Q 549.534679 172.855076 685.477883 162.566362 
" style="fill: none; stroke: #00838f; stroke-width: 1.5; stroke-linecap: round"/>
    <path d="M 681.338354 160.873938 
L 685.477883 162.566362 
L 681.640226 164.862531 
" style="fill: none; stroke: #00838f; stroke-width: 1.5; stroke-linecap: round"/>
   </g>
   <g id="patch_21">
    <path d="M 689.142857 242.642951 
Q 689.142857 242.642951 689.142857 242.642951 
" style="fill: none; stroke: #2e7d32; stroke-width: 1.5; stroke-linecap: round"/>
   </g>
   <g id="text_14">
    <!-- SequenceParallel -->
    <g style="fill: #00838f" transform="translate(401.685658 248.418327) scale(0.11 -0.11)">
     <defs>
      <path id="STHeitiSC-Medium-57" d="M 3450 384 
L 2918 384 
L 2918 909 
Q 2400 294 1690 294 
Q 1312 294 1005 489 
Q 698 685 544 1027 
Q 390 1370 390 2080 
L 390 3872 
L 915 3872 
L 915 2208 
Q 915 1632 969 1424 
Q 1024 1216 1129 1072 
Q 1235 928 1398 857 
Q 1562 787 1795 787 
Q 2029 787 2253 902 
Q 2477 1018 2637 1222 
Q 2797 1427 2857 1657 
Q 2918 1888 2918 2579 
L 2918 3872 
L 3450 3872 
L 3450 384 
z
" transform="scale(0.015625)"/>
     </defs>
     <use xlink:href="#STHeitiSC-Medium-35"/>
     <use xlink:href="#STHeitiSC-Medium-47" transform="translate(49.796875 0)"/>
     <use xlink:href="#STHeitiSC-Medium-53" transform="translate(114.796875 0)"/>
     <use xlink:href="#STHeitiSC-Medium-57" transform="translate(183 0)"/>
     <use xlink:href="#STHeitiSC-Medium-47" transform="translate(243.796875 0)"/>
     <use xlink:href="#STHeitiSC-Medium-50" transform="translate(308.796875 0)"/>
     <use xlink:href="#STHeitiSC-Medium-45" transform="translate(369.796875 0)"/>
     <use xlink:href="#STHeitiSC-Medium-47" transform="translate(434.5 0)"/>
     <use xlink:href="#STHeitiSC-Medium-32" transform="translate(499.5 0)"/>
     <use xlink:href="#STHeitiSC-Medium-43" transform="translate(558.703125 0)"/>
     <use xlink:href="#STHeitiSC-Medium-54" transform="translate(627 0)"/>
     <use xlink:href="#STHeitiSC-Medium-43" transform="translate(657.09375 0)"/>
     <use xlink:href="#STHeitiSC-Medium-4e" transform="translate(725.390625 0)"/>
     <use xlink:href="#STHeitiSC-Medium-4e" transform="translate(745.390625 0)"/>
     <use xlink:href="#STHeitiSC-Medium-47" transform="translate(765.390625 0)"/>
     <use xlink:href="#STHeitiSC-Medium-4e" transform="translate(830.390625 0)"/>
    </g>
    <!-- 按序列维度 Shard(1) -->
    <g style="fill: #00838f" transform="translate(397.202299 260.220984) scale(0.11 -0.11)">
     <defs>
      <path id="STHeitiSC-Medium-70d" d="M 1254 3322 
Q 762 3309 493 3264 
L 493 3808 
Q 627 3782 819 3769 
Q 1011 3757 1254 3757 
Q 1254 4307 1235 4630 
Q 1216 4954 1184 5120 
Q 1338 5088 1494 5078 
Q 1651 5069 1754 5075 
Q 2010 5088 1850 4915 
Q 1734 4794 1734 4416 
L 1734 3757 
Q 1920 3763 2064 3772 
Q 2208 3782 2330 3808 
L 2330 3264 
Q 2208 3283 2064 3296 
Q 1920 3309 1734 3315 
L 1734 2214 
Q 2016 2349 2304 2509 
Q 2221 2176 2330 1990 
Q 2208 1939 2057 1875 
Q 1907 1811 1734 1734 
L 1734 154 
Q 1734 -64 1686 -214 
Q 1638 -365 1523 -457 
Q 1408 -550 1216 -595 
Q 1024 -640 736 -646 
Q 723 -493 675 -326 
Q 627 -160 512 26 
Q 749 -26 896 -35 
Q 1043 -45 1123 -9 
Q 1203 26 1228 109 
Q 1254 192 1254 320 
L 1254 1523 
Q 1018 1414 806 1305 
Q 595 1197 454 1107 
Q 435 1254 390 1408 
Q 346 1562 288 1690 
Q 800 1830 1254 2003 
L 1254 3322 
z
M 4710 691 
Q 5158 461 5500 256 
Q 5843 51 6112 -141 
Q 5984 -250 5897 -362 
Q 5811 -474 5741 -627 
Q 5402 -352 5085 -125 
Q 4768 102 4403 314 
Q 4256 179 4051 41 
Q 3846 -96 3593 -221 
Q 3341 -346 3056 -451 
Q 2771 -557 2477 -634 
Q 2438 -486 2352 -326 
Q 2266 -166 2157 -64 
Q 2688 -19 3161 153 
Q 3635 326 3936 563 
Q 3706 685 3437 809 
Q 3168 934 2848 1075 
Q 2976 1261 3120 1520 
Q 3264 1779 3373 1997 
Q 3136 1997 2909 1984 
Q 2682 1971 2483 1952 
L 2483 2464 
Q 2707 2432 2953 2419 
Q 3200 2406 3546 2406 
Q 3674 2714 3744 2944 
Q 3814 3174 3866 3418 
Q 4038 3360 4182 3325 
Q 4326 3290 4442 3270 
Q 4544 3251 4547 3219 
Q 4550 3187 4461 3117 
Q 4429 3091 4317 2899 
Q 4205 2707 4058 2406 
L 5069 2406 
Q 5338 2406 5584 2419 
Q 5830 2432 6093 2464 
L 6093 1952 
Q 5907 1971 5715 1984 
Q 5523 1997 5293 1997 
Q 5210 1760 5139 1571 
Q 5069 1382 5001 1225 
Q 4934 1069 4864 937 
Q 4794 806 4710 691 
z
M 3846 1997 
Q 3757 1824 3667 1641 
Q 3578 1459 3488 1280 
Q 3699 1184 3891 1094 
Q 4083 1005 4262 915 
Q 4339 1011 4400 1113 
Q 4461 1216 4515 1344 
Q 4570 1472 4624 1629 
Q 4678 1786 4736 1997 
L 3846 1997 
z
M 4275 4141 
Q 4608 4141 4851 4144 
Q 5094 4147 5283 4153 
Q 5472 4160 5625 4169 
Q 5779 4179 5946 4192 
L 5946 3027 
L 5402 3027 
L 5402 3718 
L 3053 3718 
L 3053 3002 
L 2547 3002 
L 2547 4192 
Q 2682 4179 2845 4169 
Q 3008 4160 3216 4153 
Q 3424 4147 3683 4144 
Q 3942 4141 4275 4141 
z
M 4320 5203 
Q 4371 5011 4444 4806 
Q 4518 4602 4582 4454 
L 4026 4243 
Q 3981 4448 3910 4646 
Q 3840 4845 3757 5005 
L 4320 5203 
z
" transform="scale(0.015625)"/>
      <path id="STHeitiSC-Medium-3ac" d="M 2630 666 
Q 2579 499 2566 368 
Q 2554 237 2566 128 
Q 2125 38 1811 -32 
Q 1498 -102 1277 -160 
Q 1056 -218 909 -266 
Q 762 -314 640 -358 
Q 608 -198 550 -25 
Q 493 147 416 314 
Q 653 320 886 342 
Q 1120 365 1382 406 
Q 1645 448 1949 512 
Q 2253 576 2630 666 
z
M 4506 4160 
Q 4442 4346 4346 4544 
Q 4250 4742 4141 4896 
L 4659 5107 
Q 4800 4781 5043 4397 
L 4506 4160 
z
M 1741 3174 
Q 1869 3443 1942 3622 
Q 2016 3802 2061 3917 
Q 2170 3834 2310 3779 
Q 2451 3725 2554 3712 
Q 2630 3699 2630 3670 
Q 2630 3642 2547 3597 
Q 2515 3584 2464 3510 
Q 2413 3437 2291 3225 
Q 2170 3014 1958 2620 
Q 1747 2227 1402 1574 
Q 1638 1600 1900 1632 
Q 2163 1664 2426 1709 
Q 2323 1421 2330 1184 
L 1325 1082 
Q 1197 1069 1037 1040 
Q 877 1011 774 979 
Q 736 1267 595 1504 
Q 685 1542 781 1612 
Q 877 1683 989 1824 
Q 1101 1965 1235 2189 
Q 1370 2413 1542 2765 
Q 1229 2752 992 2713 
Q 755 2675 602 2624 
Q 531 2931 416 3110 
Q 525 3181 637 3305 
Q 749 3430 870 3657 
Q 992 3885 1120 4240 
Q 1248 4595 1395 5120 
Q 1658 4960 1971 4902 
Q 2144 4864 1990 4774 
Q 1965 4762 1926 4714 
Q 1888 4666 1798 4502 
Q 1709 4339 1539 4019 
Q 1370 3699 1082 3136 
L 1741 3174 
z
M 3334 1606 
L 4186 1606 
L 4186 2426 
L 3334 2426 
L 3334 1606 
z
M 3334 2842 
L 4186 2842 
L 4186 3578 
L 3334 3578 
L 3334 2842 
z
M 3334 -691 
L 2797 -691 
Q 2835 -422 2851 -92 
Q 2867 237 2867 685 
L 2867 2842 
Q 2797 2726 2726 2604 
Q 2656 2483 2586 2368 
Q 2458 2541 2240 2720 
Q 2451 2989 2636 3347 
Q 2822 3706 2970 4083 
Q 3059 4307 3132 4601 
Q 3206 4896 3245 5165 
Q 3386 5107 3555 5062 
Q 3725 5018 3827 5005 
Q 3930 4992 3939 4944 
Q 3949 4896 3840 4838 
Q 3821 4826 3792 4787 
Q 3763 4749 3718 4656 
Q 3674 4563 3600 4412 
Q 3526 4262 3424 4026 
L 4474 4026 
Q 4838 4026 5078 4029 
Q 5318 4032 5475 4035 
Q 5632 4038 5725 4044 
Q 5818 4051 5875 4058 
L 5875 3546 
Q 5818 3552 5738 3558 
Q 5658 3565 5520 3568 
Q 5382 3571 5177 3574 
Q 4973 3578 4666 3578 
L 4666 2842 
Q 4909 2842 5075 2845 
Q 5242 2848 5357 2854 
Q 5472 2861 5542 2867 
Q 5613 2874 5664 2880 
L 5664 2394 
Q 5613 2400 5542 2406 
Q 5472 2413 5357 2416 
Q 5242 2419 5075 2419 
Q 4909 2419 4666 2419 
L 4666 1606 
Q 4902 1606 5068 1609 
Q 5235 1613 5347 1616 
Q 5459 1619 5529 1625 
Q 5600 1632 5651 1638 
L 5651 1152 
Q 5600 1158 5529 1164 
Q 5459 1171 5347 1174 
Q 5235 1178 5068 1181 
Q 4902 1184 4666 1184 
L 4666 320 
Q 5005 320 5232 323 
Q 5459 326 5606 329 
Q 5754 333 5840 339 
Q 5926 346 5984 352 
L 5984 -166 
Q 5920 -160 5830 -153 
Q 5741 -147 5587 -144 
Q 5434 -141 5190 -137 
Q 4947 -134 4582 -134 
L 3334 -134 
L 3334 -691 
z
M 3334 320 
L 4186 320 
L 4186 1184 
L 3334 1184 
L 3334 320 
z
" transform="scale(0.015625)"/>
      <path id="STHeitiSC-Medium-287" d="M 2982 2458 
L 4269 2458 
L 4269 3008 
L 2982 3008 
L 2982 2458 
z
M 2522 3366 
Q 2515 3552 2505 3693 
Q 2496 3834 2464 3923 
Q 2592 3891 2758 3872 
Q 2925 3853 3040 3866 
Q 3142 3878 3059 3782 
Q 2989 3706 2982 3366 
L 4269 3366 
Q 4269 3603 4262 3737 
Q 4256 3872 4230 3981 
Q 4397 3930 4557 3917 
Q 4717 3904 4806 3917 
Q 4922 3936 4838 3846 
Q 4774 3776 4768 3366 
Q 5190 3373 5446 3385 
Q 5702 3398 5888 3418 
L 5888 2950 
Q 5702 2970 5436 2986 
Q 5171 3002 4768 3008 
L 4768 2682 
Q 4768 2483 4774 2339 
Q 4781 2195 4813 2022 
Q 4736 2035 4649 2044 
Q 4563 2054 4435 2060 
Q 4307 2067 4115 2070 
Q 3923 2074 3648 2074 
Q 3379 2074 3193 2070 
Q 3008 2067 2873 2060 
Q 2739 2054 2646 2044 
Q 2554 2035 2477 2022 
Q 2490 2106 2499 2176 
Q 2509 2246 2512 2316 
Q 2515 2387 2518 2464 
Q 2522 2541 2522 2643 
L 2522 3002 
Q 2253 2995 2080 2982 
Q 1907 2970 1773 2950 
L 1773 3418 
Q 1914 3398 2083 3385 
Q 2253 3373 2522 3366 
z
M 3661 4493 
Q 4134 4493 4483 4499 
Q 4832 4506 5081 4512 
Q 5331 4518 5497 4528 
Q 5664 4538 5779 4550 
L 5779 4026 
Q 5504 4051 5145 4067 
Q 4787 4083 4275 4083 
L 1510 4083 
Q 1555 3130 1532 2406 
Q 1510 1683 1424 1123 
Q 1338 563 1194 140 
Q 1050 -282 858 -621 
Q 730 -493 602 -393 
Q 474 -294 326 -224 
Q 544 90 701 502 
Q 858 915 938 1481 
Q 1018 2048 1018 2800 
Q 1018 3552 934 4550 
Q 1069 4538 1241 4528 
Q 1414 4518 1657 4512 
Q 1901 4506 2243 4499 
Q 2586 4493 3059 4493 
Q 3027 4634 2976 4765 
Q 2925 4896 2854 5037 
L 3437 5146 
Q 3482 5005 3539 4832 
Q 3597 4659 3661 4493 
z
M 2880 1325 
Q 3008 1082 3200 874 
Q 3392 666 3622 518 
Q 3878 685 4080 883 
Q 4282 1082 4435 1325 
L 2880 1325 
z
M 2336 1318 
Q 2214 1306 2086 1299 
Q 1958 1293 1843 1280 
L 1843 1760 
Q 2010 1747 2224 1734 
Q 2438 1722 2675 1715 
Q 2912 1709 3161 1705 
Q 3411 1702 3642 1702 
Q 4102 1702 4521 1715 
Q 4941 1728 5267 1760 
Q 5139 1510 5014 1305 
Q 4890 1101 4749 925 
Q 4608 749 4448 595 
Q 4288 442 4090 301 
Q 4525 134 4992 67 
Q 5459 0 6067 26 
Q 5952 -109 5878 -265 
Q 5805 -422 5779 -621 
Q 5178 -557 4643 -413 
Q 4109 -269 3629 0 
Q 3328 -173 2877 -342 
Q 2426 -512 1869 -646 
Q 1830 -538 1728 -390 
Q 1626 -243 1459 -90 
Q 1664 -83 1891 -48 
Q 2118 -13 2345 38 
Q 2573 90 2784 157 
Q 2995 224 3168 294 
Q 3066 371 2950 489 
Q 2835 608 2723 745 
Q 2611 883 2508 1033 
Q 2406 1184 2336 1318 
z
" transform="scale(0.015625)"/>
     </defs>
     <use xlink:href="#STHeitiSC-Medium-70d"/>
     <use xlink:href="#STHeitiSC-Medium-6d6" transform="translate(100 0)"/>
     <use xlink:href="#STHeitiSC-Medium-509" transform="translate(200 0)"/>
     <use xlink:href="#STHeitiSC-Medium-3ac" transform="translate(300 0)"/>
     <use xlink:href="#STHeitiSC-Medium-287" transform="translate(400 0)"/>
     <use xlink:href="#STHeitiSC-Medium-3" transform="translate(500 0)"/>
     <use xlink:href="#STHeitiSC-Medium-35" transform="translate(525 0)"/>
     <use xlink:href="#STHeitiSC-Medium-4a" transform="translate(574.796875 0)"/>
     <use xlink:href="#STHeitiSC-Medium-43" transform="translate(635.796875 0)"/>
     <use xlink:href="#STHeitiSC-Medium-54" transform="translate(704.09375 0)"/>
     <use xlink:href="#STHeitiSC-Medium-46" transform="translate(734.1875 0)"/>
     <use xlink:href="#STHeitiSC-Medium-a" transform="translate(802.6875 0)"/>
     <use xlink:href="#STHeitiSC-Medium-13" transform="translate(839.59375 0)"/>
     <use xlink:href="#STHeitiSC-Medium-b" transform="translate(895 0)"/>
    </g>
   </g>
   <g id="text_15">
    <!-- SequenceParallel：按 token 序列切分 -->
    <g transform="translate(304.08 19.24) scale(0.14 -0.14)">
     <defs>
      <path id="STHeitiSC-Medium-beed" d="M 1926 3008 
L 1261 3008 
L 1261 3686 
L 1926 3686 
L 1926 3008 
z
M 1926 384 
L 1261 384 
L 1261 1062 
L 1926 1062 
L 1926 384 
z
" transform="scale(0.015625)"/>
      <path id="STHeitiSC-Medium-41e" d="M 3750 4077 
Q 3616 4077 3475 4073 
Q 3334 4070 3206 4064 
Q 3078 4058 2966 4051 
Q 2854 4045 2790 4038 
L 2790 4608 
Q 2989 4595 3369 4582 
Q 3750 4570 4352 4570 
Q 4954 4570 5315 4579 
Q 5677 4589 5920 4608 
L 5690 461 
Q 5677 198 5632 22 
Q 5587 -154 5459 -269 
Q 5331 -384 5097 -454 
Q 4864 -525 4467 -576 
Q 4442 -410 4368 -243 
Q 4294 -77 4186 96 
Q 4493 83 4672 92 
Q 4851 102 4950 163 
Q 5050 224 5085 339 
Q 5120 454 5133 653 
L 5344 4077 
L 4314 4077 
Q 4301 3398 4272 2870 
Q 4243 2342 4172 1920 
Q 4102 1498 3980 1158 
Q 3859 819 3670 521 
Q 3482 224 3206 -61 
Q 2931 -346 2560 -653 
Q 2464 -570 2323 -496 
Q 2182 -422 1952 -346 
Q 2362 -64 2653 185 
Q 2944 435 3139 700 
Q 3334 966 3449 1270 
Q 3565 1574 3629 1971 
Q 3693 2368 3715 2880 
Q 3738 3392 3750 4077 
z
M 1248 2803 
Q 1043 2778 844 2749 
Q 646 2720 531 2688 
L 480 3277 
Q 614 3264 822 3273 
Q 1030 3283 1248 3296 
L 1248 3834 
Q 1248 4013 1248 4147 
Q 1248 4282 1245 4387 
Q 1242 4493 1235 4573 
Q 1229 4653 1222 4723 
Q 1376 4691 1533 4678 
Q 1690 4666 1837 4678 
Q 1933 4685 1949 4649 
Q 1965 4614 1901 4563 
Q 1773 4467 1773 4352 
L 1773 3341 
Q 2042 3373 2282 3405 
Q 2522 3437 2669 3469 
L 2720 2880 
Q 2554 2886 2307 2873 
Q 2061 2861 1773 2842 
L 1773 954 
Q 2016 1158 2259 1376 
Q 2502 1594 2637 1754 
Q 2669 1587 2720 1462 
Q 2771 1338 2861 1235 
L 1888 390 
Q 1779 294 1670 176 
Q 1562 58 1485 -45 
Q 1402 64 1277 198 
Q 1152 333 1043 435 
Q 1114 499 1155 550 
Q 1197 602 1216 666 
Q 1235 730 1241 826 
Q 1248 922 1248 1082 
L 1248 2803 
z
" transform="scale(0.015625)"/>
      <path id="STHeitiSC-Medium-153" d="M 2886 4659 
Q 2758 4608 2691 4531 
Q 2624 4454 2547 4282 
Q 2426 4019 2227 3705 
Q 2029 3392 1792 3072 
Q 1555 2752 1289 2451 
Q 1024 2150 768 1907 
Q 678 2029 544 2144 
Q 410 2259 269 2349 
Q 768 2694 1136 3129 
Q 1504 3565 1747 3987 
Q 1914 4282 2026 4531 
Q 2138 4781 2227 5030 
Q 2304 4992 2393 4950 
Q 2483 4909 2576 4877 
Q 2669 4845 2749 4822 
Q 2829 4800 2880 4794 
Q 2957 4781 2963 4736 
Q 2970 4691 2886 4659 
z
M 6131 2720 
Q 5875 2490 5658 2086 
Q 4794 2688 4294 3347 
Q 4077 3635 3888 4080 
Q 3699 4525 3571 5011 
L 4109 5120 
Q 4237 4640 4403 4269 
Q 4570 3898 4768 3674 
Q 5107 3302 5430 3088 
Q 5754 2874 6131 2720 
z
M 2381 2074 
Q 2227 2074 2108 2070 
Q 1990 2067 1894 2064 
Q 1798 2061 1712 2051 
Q 1626 2042 1523 2029 
L 1523 2624 
Q 1677 2598 2013 2585 
Q 2349 2573 2854 2573 
Q 3155 2573 3481 2576 
Q 3808 2579 4096 2582 
Q 4384 2586 4614 2589 
Q 4845 2592 4954 2598 
L 4736 109 
Q 4717 -90 4659 -218 
Q 4602 -346 4470 -432 
Q 4339 -518 4121 -576 
Q 3904 -634 3565 -678 
Q 3533 -506 3462 -330 
Q 3392 -154 3270 6 
Q 3539 -19 3712 -12 
Q 3885 -6 3990 58 
Q 4096 122 4147 250 
Q 4198 378 4218 589 
L 4346 2074 
L 2912 2074 
Q 2880 1632 2768 1235 
Q 2656 838 2470 563 
Q 2317 339 2173 163 
Q 2029 -13 1875 -157 
Q 1722 -301 1549 -422 
Q 1376 -544 1165 -666 
Q 1056 -538 902 -426 
Q 749 -314 576 -243 
Q 1107 -26 1456 249 
Q 1805 525 1958 768 
Q 2144 1062 2246 1363 
Q 2349 1664 2381 2074 
z
" transform="scale(0.015625)"/>
     </defs>
     <use xlink:href="#STHeitiSC-Medium-35"/>
     <use xlink:href="#STHeitiSC-Medium-47" transform="translate(49.796875 0)"/>
     <use xlink:href="#STHeitiSC-Medium-53" transform="translate(114.796875 0)"/>
     <use xlink:href="#STHeitiSC-Medium-57" transform="translate(183 0)"/>
     <use xlink:href="#STHeitiSC-Medium-47" transform="translate(243.796875 0)"/>
     <use xlink:href="#STHeitiSC-Medium-50" transform="translate(308.796875 0)"/>
     <use xlink:href="#STHeitiSC-Medium-45" transform="translate(369.796875 0)"/>
     <use xlink:href="#STHeitiSC-Medium-47" transform="translate(434.5 0)"/>
     <use xlink:href="#STHeitiSC-Medium-32" transform="translate(499.5 0)"/>
     <use xlink:href="#STHeitiSC-Medium-43" transform="translate(558.703125 0)"/>
     <use xlink:href="#STHeitiSC-Medium-54" transform="translate(627 0)"/>
     <use xlink:href="#STHeitiSC-Medium-43" transform="translate(657.09375 0)"/>
     <use xlink:href="#STHeitiSC-Medium-4e" transform="translate(725.390625 0)"/>
     <use xlink:href="#STHeitiSC-Medium-4e" transform="translate(745.390625 0)"/>
     <use xlink:href="#STHeitiSC-Medium-47" transform="translate(765.390625 0)"/>
     <use xlink:href="#STHeitiSC-Medium-4e" transform="translate(830.390625 0)"/>
     <use xlink:href="#STHeitiSC-Medium-beed" transform="translate(850.390625 0)"/>
     <use xlink:href="#STHeitiSC-Medium-70d" transform="translate(950.390625 0)"/>
     <use xlink:href="#STHeitiSC-Medium-3" transform="translate(1050.390625 0)"/>
     <use xlink:href="#STHeitiSC-Medium-56" transform="translate(1075.390625 0)"/>
     <use xlink:href="#STHeitiSC-Medium-51" transform="translate(1109.296875 0)"/>
     <use xlink:href="#STHeitiSC-Medium-4d" transform="translate(1174.796875 0)"/>
     <use xlink:href="#STHeitiSC-Medium-47" transform="translate(1225 0)"/>
     <use xlink:href="#STHeitiSC-Medium-50" transform="translate(1290 0)"/>
     <use xlink:href="#STHeitiSC-Medium-3" transform="translate(1351 0)"/>
     <use xlink:href="#STHeitiSC-Medium-6d6" transform="translate(1376 0)"/>
     <use xlink:href="#STHeitiSC-Medium-509" transform="translate(1476 0)"/>
     <use xlink:href="#STHeitiSC-Medium-41e" transform="translate(1576 0)"/>
     <use xlink:href="#STHeitiSC-Medium-153" transform="translate(1676 0)"/>
    </g>
   </g>
  </g>
 </g>
 <defs>
  <clipPath id="pd88704a663">
   <rect x="7.2" y="39.24" width="842.4" height="306.36"/>
  </clipPath>
 </defs>
</svg>
