<?xml version="1.0" encoding="utf-8" standalone="no"?>
<!DOCTYPE svg PUBLIC "-//W3C//DTD SVG 1.1//EN"
  "http://www.w3.org/Graphics/SVG/1.1/DTD/svg11.dtd">
<svg xmlns:xlink="http://www.w3.org/1999/xlink" width="516.6pt" height="712.58pt" viewBox="0 0 516.6 712.58" xmlns="http://www.w3.org/2000/svg" version="1.1">
 <metadata>
  <rdf:RDF xmlns:dc="http://purl.org/dc/elements/1.1/" xmlns:cc="http://creativecommons.org/ns#" xmlns:rdf="http://www.w3.org/1999/02/22-rdf-syntax-ns#">
   <cc:Work>
    <dc:type rdf:resource="http://purl.org/dc/dcmitype/StillImage"/>
    <dc:date>2026-07-13T16:24:13.051714</dc:date>
    <dc:format>image/svg+xml</dc:format>
    <dc:creator>
     <cc:Agent>
      <dc:title>Matplotlib v3.11.0, https://matplotlib.org/</dc:title>
     </cc:Agent>
    </dc:creator>
   </cc:Work>
  </rdf:RDF>
 </metadata>
 <defs>
  <style type="text/css">*{stroke-linejoin: round; stroke-linecap: butt}</style>
 </defs>
 <g id="figure_1">
  <g id="patch_1">
   <path d="M 0 712.58 
L 516.6 712.58 
L 516.6 0 
L 0 0 
z
" style="fill: #ffffff"/>
  </g>
  <g id="axes_1">
   <g id="patch_2">
    <path d="M 107.64 661.028 
L 420.12 661.028 
Q 434.07 661.028 434.07 647.168 
L 434.07 181.472 
Q 434.07 167.612 420.12 167.612 
L 107.64 167.612 
Q 93.69 167.612 93.69 181.472 
L 93.69 647.168 
Q 93.69 661.028 107.64 661.028 
z
" clip-path="url(#p3c26085e7f)" style="fill: #e0e0e0; opacity: 0.35"/>
   </g>
   <g id="patch_3">
    <path d="M 102.06 652.712 
L 414.54 652.712 
Q 428.49 652.712 428.49 638.852 
L 428.49 173.156 
Q 428.49 159.296 414.54 159.296 
L 102.06 159.296 
Q 88.11 159.296 88.11 173.156 
L 88.11 638.852 
Q 88.11 652.712 102.06 652.712 
z
" clip-path="url(#p3c26085e7f)" style="fill: #fafafa; stroke: #616161; stroke-width: 2.5; stroke-linejoin: miter"/>
   </g>
   <g id="patch_4">
    <path d="M 134.424 240.7928 
L 382.176 240.7928 
Q 387.756 240.7928 387.756 235.2488 
L 387.756 205.3112 
Q 387.756 199.7672 382.176 199.7672 
L 134.424 199.7672 
Q 128.844 199.7672 128.844 205.3112 
L 128.844 235.2488 
Q 128.844 240.7928 134.424 240.7928 
z
" clip-path="url(#p3c26085e7f)" style="fill: #e0f7fa; stroke: #00838f; stroke-width: 2; stroke-linejoin: miter"/>
   </g>
   <g id="patch_5">
    <path d="M 134.424 290.6888 
L 382.176 290.6888 
Q 387.756 290.6888 387.756 285.1448 
L 387.756 255.2072 
Q 387.756 249.6632 382.176 249.6632 
L 134.424 249.6632 
Q 128.844 249.6632 128.844 255.2072 
L 128.844 285.1448 
Q 128.844 290.6888 134.424 290.6888 
z
" clip-path="url(#p3c26085e7f)" style="fill: #f3e5f5; stroke: #6a1b9a; stroke-width: 2; stroke-linejoin: miter"/>
   </g>
   <g id="patch_6">
    <path d="M 134.424 351.6728 
L 382.176 351.6728 
Q 387.756 351.6728 387.756 346.1288 
L 387.756 316.1912 
Q 387.756 310.6472 382.176 310.6472 
L 134.424 310.6472 
Q 128.844 310.6472 128.844 316.1912 
L 128.844 346.1288 
Q 128.844 351.6728 134.424 351.6728 
z
" clip-path="url(#p3c26085e7f)" style="fill: #fff3e0; stroke: #ef6c00; stroke-width: 2; stroke-linejoin: miter"/>
   </g>
   <g id="patch_7">
    <path d="M 134.424 418.2008 
L 382.176 418.2008 
Q 387.756 418.2008 387.756 412.6568 
L 387.756 382.7192 
Q 387.756 377.1752 382.176 377.1752 
L 134.424 377.1752 
Q 128.844 377.1752 128.844 382.7192 
L 128.844 412.6568 
Q 128.844 418.2008 134.424 418.2008 
z
" clip-path="url(#p3c26085e7f)" style="fill: #fafafa; stroke: #616161; stroke-width: 2; stroke-linejoin: miter"/>
   </g>
   <g id="patch_8">
    <path d="M 134.424 468.0968 
L 382.176 468.0968 
Q 387.756 468.0968 387.756 462.5528 
L 387.756 432.6152 
Q 387.756 427.0712 382.176 427.0712 
L 134.424 427.0712 
Q 128.844 427.0712 128.844 432.6152 
L 128.844 462.5528 
Q 128.844 468.0968 134.424 468.0968 
z
" clip-path="url(#p3c26085e7f)" style="fill: #e0f7fa; stroke: #00838f; stroke-width: 2; stroke-linejoin: miter"/>
   </g>
   <g id="patch_9">
    <path d="M 134.424 517.9928 
L 382.176 517.9928 
Q 387.756 517.9928 387.756 512.4488 
L 387.756 482.5112 
Q 387.756 476.9672 382.176 476.9672 
L 134.424 476.9672 
Q 128.844 476.9672 128.844 482.5112 
L 128.844 512.4488 
Q 128.844 517.9928 134.424 517.9928 
z
" clip-path="url(#p3c26085e7f)" style="fill: #f3e5f5; stroke: #6a1b9a; stroke-width: 2; stroke-linejoin: miter"/>
   </g>
   <g id="patch_10">
    <path d="M 134.424 578.9768 
L 382.176 578.9768 
Q 387.756 578.9768 387.756 573.4328 
L 387.756 543.4952 
Q 387.756 537.9512 382.176 537.9512 
L 134.424 537.9512 
Q 128.844 537.9512 128.844 543.4952 
L 128.844 573.4328 
Q 128.844 578.9768 134.424 578.9768 
z
" clip-path="url(#p3c26085e7f)" style="fill: #fff3e0; stroke: #ef6c00; stroke-width: 2; stroke-linejoin: miter"/>
   </g>
   <g id="patch_11">
    <path d="M 134.424 645.5048 
L 382.176 645.5048 
Q 387.756 645.5048 387.756 639.9608 
L 387.756 610.0232 
Q 387.756 604.4792 382.176 604.4792 
L 134.424 604.4792 
Q 128.844 604.4792 128.844 610.0232 
L 128.844 639.9608 
Q 128.844 645.5048 134.424 645.5048 
z
" clip-path="url(#p3c26085e7f)" style="fill: #fafafa; stroke: #616161; stroke-width: 2; stroke-linejoin: miter"/>
   </g>
   <g id="patch_12">
    <path d="M 180.18 124.3688 
L 336.42 124.3688 
Q 343.116 124.3688 343.116 117.716 
L 343.116 87.224 
Q 343.116 80.5712 336.42 80.5712 
L 180.18 80.5712 
Q 173.484 80.5712 173.484 87.224 
L 173.484 117.716 
Q 173.484 124.3688 180.18 124.3688 
z
" clip-path="url(#p3c26085e7f)" style="fill: #e3f2fd; stroke: #1565c0; stroke-width: 2; stroke-linejoin: miter"/>
   </g>
   <g id="patch_13">
    <path d="M 180.18 698.1728 
L 336.42 698.1728 
Q 343.116 698.1728 343.116 691.52 
L 343.116 661.028 
Q 343.116 654.3752 336.42 654.3752 
L 180.18 654.3752 
Q 173.484 654.3752 173.484 661.028 
L 173.484 691.52 
Q 173.484 698.1728 180.18 698.1728 
z
" clip-path="url(#p3c26085e7f)" style="fill: #e8f5e9; stroke: #2e7d32; stroke-width: 2; stroke-linejoin: miter"/>
   </g>
   <g id="text_1">
    <text style="font-weight: 700; font-size: 15px; font-family: 'Heiti SC', 'Arial Unicode MS', 'DejaVu Sans', 'Bitstream Vera Sans', 'Computer Modern Sans Serif', 'Lucida Grande', 'Verdana', 'Geneva', 'Lucid', 'Arial', 'Helvetica', 'Avant Garde', sans-serif; text-anchor: middle; fill: #424242" x="258.3" y="148.208" transform="rotate(-0 258.3 148.208)">TransformerBlock</text>
   </g>
   <g id="text_2">
    <text style="font-size: 10px; font-family: 'Heiti SC', 'Arial Unicode MS', 'DejaVu Sans', 'Bitstream Vera Sans', 'Computer Modern Sans Serif', 'Lucida Grande', 'Verdana', 'Geneva', 'Lucid', 'Arial', 'Helvetica', 'Avant Garde', sans-serif; text-anchor: middle; fill: #757575" x="258.3" y="170.384" transform="rotate(-0 258.3 170.384)">序列并行下数据流</text>
   </g>
   <g id="text_3">
    <text style="font-weight: 700; font-size: 9px; font-family: 'Heiti SC', 'Arial Unicode MS', 'DejaVu Sans', 'Bitstream Vera Sans', 'Computer Modern Sans Serif', 'Lucida Grande', 'Verdana', 'Geneva', 'Lucid', 'Arial', 'Helvetica', 'Avant Garde', sans-serif; fill: #212121" transform="translate(224.869219 218.691641)">attention_norm</text>
    <text style="font-weight: 700; font-size: 9px; font-family: 'Heiti SC', 'Arial Unicode MS', 'DejaVu Sans', 'Bitstream Vera Sans', 'Computer Modern Sans Serif', 'Lucida Grande', 'Verdana', 'Geneva', 'Lucid', 'Arial', 'Helvetica', 'Avant Garde', sans-serif; fill: #212121" transform="translate(199.471641 228.348359)">SequenceParallel  Shard(1)</text>
   </g>
   <g id="text_4">
    <text style="font-weight: 700; font-size: 9px; font-family: 'Heiti SC', 'Arial Unicode MS', 'DejaVu Sans', 'Bitstream Vera Sans', 'Computer Modern Sans Serif', 'Lucida Grande', 'Verdana', 'Geneva', 'Lucid', 'Arial', 'Helvetica', 'Avant Garde', sans-serif; fill: #212121" transform="translate(213.115781 268.587641)">PrepareModuleInput</text>
    <text style="font-weight: 700; font-size: 9px; font-family: 'Heiti SC', 'Arial Unicode MS', 'DejaVu Sans', 'Bitstream Vera Sans', 'Computer Modern Sans Serif', 'Lucida Grande', 'Verdana', 'Geneva', 'Lucid', 'Arial', 'Helvetica', 'Avant Garde', sans-serif; fill: #212121" transform="translate(212.277656 278.244359)">Shard(1) → Replicate</text>
   </g>
   <g id="text_5">
    <text style="font-weight: 700; font-size: 9px; font-family: 'Heiti SC', 'Arial Unicode MS', 'DejaVu Sans', 'Bitstream Vera Sans', 'Computer Modern Sans Serif', 'Lucida Grande', 'Verdana', 'Geneva', 'Lucid', 'Arial', 'Helvetica', 'Avant Garde', sans-serif; fill: #212121" transform="translate(238.130156 329.765)">Attention</text>
    <text style="font-weight: 700; font-size: 9px; font-family: 'Heiti SC', 'Arial Unicode MS', 'DejaVu Sans', 'Bitstream Vera Sans', 'Computer Modern Sans Serif', 'Lucida Grande', 'Verdana', 'Geneva', 'Lucid', 'Arial', 'Helvetica', 'Avant Garde', sans-serif; fill: #212121" transform="translate(186.19875 339.035)">ColwiseParallel + RowwiseParallel</text>
   </g>
   <g id="text_6">
    <text style="font-weight: 700; font-size: 9px; font-family: 'Heiti SC', 'Arial Unicode MS', 'DejaVu Sans', 'Bitstream Vera Sans', 'Computer Modern Sans Serif', 'Lucida Grande', 'Verdana', 'Geneva', 'Lucid', 'Arial', 'Helvetica', 'Avant Garde', sans-serif; text-anchor: middle; fill: #212121" x="258.3" y="400.928" transform="rotate(-0 258.3 400.928)">残差连接</text>
   </g>
   <g id="text_7">
    <text style="font-weight: 700; font-size: 9px; font-family: 'Heiti SC', 'Arial Unicode MS', 'DejaVu Sans', 'Bitstream Vera Sans', 'Computer Modern Sans Serif', 'Lucida Grande', 'Verdana', 'Geneva', 'Lucid', 'Arial', 'Helvetica', 'Avant Garde', sans-serif; fill: #212121" transform="translate(239.210859 445.995641)">ffn_norm</text>
    <text style="font-weight: 700; font-size: 9px; font-family: 'Heiti SC', 'Arial Unicode MS', 'DejaVu Sans', 'Bitstream Vera Sans', 'Computer Modern Sans Serif', 'Lucida Grande', 'Verdana', 'Geneva', 'Lucid', 'Arial', 'Helvetica', 'Avant Garde', sans-serif; fill: #212121" transform="translate(199.471641 455.652359)">SequenceParallel  Shard(1)</text>
   </g>
   <g id="text_8">
    <text style="font-weight: 700; font-size: 9px; font-family: 'Heiti SC', 'Arial Unicode MS', 'DejaVu Sans', 'Bitstream Vera Sans', 'Computer Modern Sans Serif', 'Lucida Grande', 'Verdana', 'Geneva', 'Lucid', 'Arial', 'Helvetica', 'Avant Garde', sans-serif; fill: #212121" transform="translate(213.115781 495.891641)">PrepareModuleInput</text>
    <text style="font-weight: 700; font-size: 9px; font-family: 'Heiti SC', 'Arial Unicode MS', 'DejaVu Sans', 'Bitstream Vera Sans', 'Computer Modern Sans Serif', 'Lucida Grande', 'Verdana', 'Geneva', 'Lucid', 'Arial', 'Helvetica', 'Avant Garde', sans-serif; fill: #212121" transform="translate(212.277656 505.548359)">Shard(1) → Replicate</text>
   </g>
   <g id="text_9">
    <text style="font-weight: 700; font-size: 9px; font-family: 'Heiti SC', 'Arial Unicode MS', 'DejaVu Sans', 'Bitstream Vera Sans', 'Computer Modern Sans Serif', 'Lucida Grande', 'Verdana', 'Geneva', 'Lucid', 'Arial', 'Helvetica', 'Avant Garde', sans-serif; fill: #212121" transform="translate(229.451484 557.069)">FeedForward</text>
    <text style="font-weight: 700; font-size: 9px; font-family: 'Heiti SC', 'Arial Unicode MS', 'DejaVu Sans', 'Bitstream Vera Sans', 'Computer Modern Sans Serif', 'Lucida Grande', 'Verdana', 'Geneva', 'Lucid', 'Arial', 'Helvetica', 'Avant Garde', sans-serif; fill: #212121" transform="translate(186.19875 566.339)">ColwiseParallel + RowwiseParallel</text>
   </g>
   <g id="text_10">
    <text style="font-weight: 700; font-size: 9px; font-family: 'Heiti SC', 'Arial Unicode MS', 'DejaVu Sans', 'Bitstream Vera Sans', 'Computer Modern Sans Serif', 'Lucida Grande', 'Verdana', 'Geneva', 'Lucid', 'Arial', 'Helvetica', 'Avant Garde', sans-serif; text-anchor: middle; fill: #212121" x="258.3" y="628.232" transform="rotate(-0 258.3 628.232)">残差连接</text>
   </g>
   <g id="text_11">
    <text style="font-weight: 700; font-size: 9px; font-family: 'Heiti SC', 'Arial Unicode MS', 'DejaVu Sans', 'Bitstream Vera Sans', 'Computer Modern Sans Serif', 'Lucida Grande', 'Verdana', 'Geneva', 'Lucid', 'Arial', 'Helvetica', 'Avant Garde', sans-serif; fill: #212121" transform="translate(246.015 100.881641)">输入 x</text>
    <text style="font-weight: 700; font-size: 9px; font-family: 'Heiti SC', 'Arial Unicode MS', 'DejaVu Sans', 'Bitstream Vera Sans', 'Computer Modern Sans Serif', 'Lucida Grande', 'Verdana', 'Geneva', 'Lucid', 'Arial', 'Helvetica', 'Avant Garde', sans-serif; fill: #212121" transform="translate(217.628438 110.538359)">Shard(1)  [B,S/tp,H]</text>
   </g>
   <g id="text_12">
    <text style="font-weight: 700; font-size: 9px; font-family: 'Heiti SC', 'Arial Unicode MS', 'DejaVu Sans', 'Bitstream Vera Sans', 'Computer Modern Sans Serif', 'Lucida Grande', 'Verdana', 'Geneva', 'Lucid', 'Arial', 'Helvetica', 'Avant Garde', sans-serif; fill: #212121" transform="translate(249.3 674.685641)">输出</text>
    <text style="font-weight: 700; font-size: 9px; font-family: 'Heiti SC', 'Arial Unicode MS', 'DejaVu Sans', 'Bitstream Vera Sans', 'Computer Modern Sans Serif', 'Lucida Grande', 'Verdana', 'Geneva', 'Lucid', 'Arial', 'Helvetica', 'Avant Garde', sans-serif; fill: #212121" transform="translate(217.628438 684.342359)">Shard(1)  [B,S/tp,H]</text>
   </g>
   <g id="patch_14">
    <path d="M 258.3 146.329422 
Q 258.3 166.225848 258.3 184.445224 
" style="fill: none; stroke: #424242; stroke-width: 1.5; stroke-linecap: round"/>
    <path d="M 260.3 180.445224 
L 258.3 184.445224 
L 256.3 180.445224 
" style="fill: none; stroke: #424242; stroke-width: 1.5; stroke-linecap: round"/>
   </g>
   <g id="patch_15">
    <path d="M 258.3 232.256448 
Q 258.3 234.138025 258.3 234.342551 
" style="fill: none; stroke: #424242; stroke-width: 1.5; stroke-linecap: round"/>
    <path d="M 260.3 230.342551 
L 258.3 234.342551 
L 256.3 230.342551 
" style="fill: none; stroke: #424242; stroke-width: 1.5; stroke-linecap: round"/>
   </g>
   <g id="patch_16">
    <path d="M 258.3 282.15705 
Q 258.3 289.579356 258.3 295.324611 
" style="fill: none; stroke: #424242; stroke-width: 1.5; stroke-linecap: round"/>
    <path d="M 260.3 291.324611 
L 258.3 295.324611 
L 256.3 291.324611 
" style="fill: none; stroke: #424242; stroke-width: 1.5; stroke-linecap: round"/>
   </g>
   <g id="patch_17">
    <path d="M 258.3 343.139899 
Q 258.3 361.654337 258.3 378.491724 
" style="fill: none; stroke: #424242; stroke-width: 1.5; stroke-linecap: round"/>
    <path d="M 260.3 374.491724 
L 258.3 378.491724 
L 256.3 374.491724 
" style="fill: none; stroke: #424242; stroke-width: 1.5; stroke-linecap: round"/>
   </g>
   <g id="patch_18">
    <path d="M 258.3 415.207906 
Q 258.3 415.318353 258.3 413.751749 
" style="fill: none; stroke: #424242; stroke-width: 1.5; stroke-linecap: round"/>
    <path d="M 260.3 409.751749 
L 258.3 413.751749 
L 256.3 409.751749 
" style="fill: none; stroke: #424242; stroke-width: 1.5; stroke-linecap: round"/>
   </g>
   <g id="patch_19">
    <path d="M 258.3 459.560448 
Q 258.3 461.442025 258.3 461.646551 
" style="fill: none; stroke: #424242; stroke-width: 1.5; stroke-linecap: round"/>
    <path d="M 260.3 457.646551 
L 258.3 461.646551 
L 256.3 457.646551 
" style="fill: none; stroke: #424242; stroke-width: 1.5; stroke-linecap: round"/>
   </g>
   <g id="patch_20">
    <path d="M 258.3 509.46105 
Q 258.3 516.883356 258.3 522.628611 
" style="fill: none; stroke: #424242; stroke-width: 1.5; stroke-linecap: round"/>
    <path d="M 260.3 518.628611 
L 258.3 522.628611 
L 256.3 518.628611 
" style="fill: none; stroke: #424242; stroke-width: 1.5; stroke-linecap: round"/>
   </g>
   <g id="patch_21">
    <path d="M 258.3 570.443899 
Q 258.3 588.958337 258.3 605.795724 
" style="fill: none; stroke: #424242; stroke-width: 1.5; stroke-linecap: round"/>
    <path d="M 260.3 601.795724 
L 258.3 605.795724 
L 256.3 601.795724 
" style="fill: none; stroke: #424242; stroke-width: 1.5; stroke-linecap: round"/>
   </g>
   <g id="patch_22">
    <path d="M 258.3 642.512989 
Q 258.3 647.166142 258.3 650.142244 
" style="fill: none; stroke: #424242; stroke-width: 1.5; stroke-linecap: round"/>
    <path d="M 260.3 646.142244 
L 258.3 650.142244 
L 256.3 646.142244 
" style="fill: none; stroke: #424242; stroke-width: 1.5; stroke-linecap: round"/>
   </g>
   <g id="patch_23">
    <path d="M 409.557244 102.992348 
Q 473.69981 309.600522 277.799183 395.984196 
" style="fill: none; stroke-dasharray: 7.4,3.2; stroke-dashoffset: 0; stroke: #90a4ae; stroke-width: 2; stroke-linecap: round"/>
    <path d="M 282.266095 396.200293 
L 277.799183 395.984196 
L 280.652208 392.540325 
" style="fill: none; stroke-dasharray: 7.4,3.2; stroke-dashoffset: 0; stroke: #90a4ae; stroke-width: 2; stroke-linecap: round"/>
   </g>
   <g id="patch_24">
    <path d="M 398.016753 399.673005 
Q 414.416873 554.14776 277.711943 623.088467 
" style="fill: none; stroke-dasharray: 7.4,3.2; stroke-dashoffset: 0; stroke: #90a4ae; stroke-width: 2; stroke-linecap: round"/>
    <path d="M 282.184052 623.073099 
L 277.711943 623.088467 
L 280.382914 619.501559 
" style="fill: none; stroke-dasharray: 7.4,3.2; stroke-dashoffset: 0; stroke: #90a4ae; stroke-width: 2; stroke-linecap: round"/>
   </g>
   <g id="text_13">
    <text style="font-weight: 700; font-size: 11px; font-family: 'Heiti SC', 'Arial Unicode MS', 'DejaVu Sans', 'Bitstream Vera Sans', 'Computer Modern Sans Serif', 'Lucida Grande', 'Verdana', 'Geneva', 'Lucid', 'Arial', 'Helvetica', 'Avant Garde', sans-serif; text-anchor: start; fill: #90a4ae" x="431.28" y="261.86" transform="rotate(-0 431.28 261.86)">x</text>
   </g>
   <g id="text_14">
    <text style="font-weight: 700; font-size: 11px; font-family: 'Heiti SC', 'Arial Unicode MS', 'DejaVu Sans', 'Bitstream Vera Sans', 'Computer Modern Sans Serif', 'Lucida Grande', 'Verdana', 'Geneva', 'Lucid', 'Arial', 'Helvetica', 'Avant Garde', sans-serif; text-anchor: start; fill: #90a4ae" x="420.12" y="516.884" transform="rotate(-0 420.12 516.884)">h</text>
   </g>
   <g id="text_15">
    <text style="font-weight: 700; font-size: 15px; font-family: 'Heiti SC', 'Arial Unicode MS', 'DejaVu Sans', 'Bitstream Vera Sans', 'Computer Modern Sans Serif', 'Lucida Grande', 'Verdana', 'Geneva', 'Lucid', 'Arial', 'Helvetica', 'Avant Garde', sans-serif; text-anchor: middle" x="258.3" y="20.1" transform="rotate(-0 258.3 20.1)">序列并行下 TransformerBlock 数据流</text>
   </g>
   <g id="patch_25">
    <path d="M 258.3 413.2112 
C 262.443533 413.2112 266.417916 411.575578 269.347836 408.66456 
C 272.277757 405.753542 273.924 401.804801 273.924 397.688 
C 273.924 393.571199 272.277757 389.622458 269.347836 386.71144 
C 266.417916 383.800422 262.443533 382.1648 258.3 382.1648 
C 254.156467 382.1648 250.182084 383.800422 247.252164 386.71144 
C 244.322243 389.622458 242.676 393.571199 242.676 397.688 
C 242.676 401.804801 244.322243 405.753542 247.252164 408.66456 
C 250.182084 411.575578 254.156467 413.2112 258.3 413.2112 
z
" clip-path="url(#p3c26085e7f)" style="fill: #eceff1; stroke: #607d8b; stroke-width: 2; stroke-linejoin: miter"/>
   </g>
   <g id="patch_26">
    <path d="M 258.3 640.5152 
C 262.443533 640.5152 266.417916 638.879578 269.347836 635.96856 
C 272.277757 633.057542 273.924 629.108801 273.924 624.992 
C 273.924 620.875199 272.277757 616.926458 269.347836 614.01544 
C 266.417916 611.104422 262.443533 609.4688 258.3 609.4688 
C 254.156467 609.4688 250.182084 611.104422 247.252164 614.01544 
C 244.322243 616.926458 242.676 620.875199 242.676 624.992 
C 242.676 629.108801 244.322243 633.057542 247.252164 635.96856 
C 250.182084 638.879578 254.156467 640.5152 258.3 640.5152 
z
" clip-path="url(#p3c26085e7f)" style="fill: #eceff1; stroke: #607d8b; stroke-width: 2; stroke-linejoin: miter"/>
   </g>
   <g id="text_16">
    <text style="font-weight: 700; font-size: 14px; font-family: 'Heiti SC', 'Arial Unicode MS', 'DejaVu Sans', 'Bitstream Vera Sans', 'Computer Modern Sans Serif', 'Lucida Grande', 'Verdana', 'Geneva', 'Lucid', 'Arial', 'Helvetica', 'Avant Garde', sans-serif; text-anchor: middle; fill: #607d8b" x="258.3" y="402.728" transform="rotate(-0 258.3 402.728)">+</text>
   </g>
   <g id="text_17">
    <text style="font-weight: 700; font-size: 14px; font-family: 'Heiti SC', 'Arial Unicode MS', 'DejaVu Sans', 'Bitstream Vera Sans', 'Computer Modern Sans Serif', 'Lucida Grande', 'Verdana', 'Geneva', 'Lucid', 'Arial', 'Helvetica', 'Avant Garde', sans-serif; text-anchor: middle; fill: #607d8b" x="258.3" y="630.032" transform="rotate(-0 258.3 630.032)">+</text>
   </g>
  </g>
 </g>
 <defs>
  <clipPath id="p3c26085e7f">
   <rect x="7.2" y="40.1" width="502.2" height="665.28"/>
  </clipPath>
 </defs>
</svg>
