<?xml version="1.0" encoding="utf-8" standalone="no"?>
<!DOCTYPE svg PUBLIC "-//W3C//DTD SVG 1.1//EN"
  "http://www.w3.org/Graphics/SVG/1.1/DTD/svg11.dtd">
<svg xmlns:xlink="http://www.w3.org/1999/xlink" width="1072.8pt" height="338.4pt" viewBox="0 0 1072.8 338.4" xmlns="http://www.w3.org/2000/svg" version="1.1">
 <metadata>
  <rdf:RDF xmlns:dc="http://purl.org/dc/elements/1.1/" xmlns:cc="http://creativecommons.org/ns#" xmlns:rdf="http://www.w3.org/1999/02/22-rdf-syntax-ns#">
   <cc:Work>
    <dc:type rdf:resource="http://purl.org/dc/dcmitype/StillImage"/>
    <dc:date>2026-07-13T11:07:55.987005</dc:date>
    <dc:format>image/svg+xml</dc:format>
    <dc:creator>
     <cc:Agent>
      <dc:title>Matplotlib v3.11.0, https://matplotlib.org/</dc:title>
     </cc:Agent>
    </dc:creator>
   </cc:Work>
  </rdf:RDF>
 </metadata>
 <defs>
  <style type="text/css">*{stroke-linejoin: round; stroke-linecap: butt}</style>
 </defs>
 <g id="figure_1">
  <g id="patch_1">
   <path d="M 0 338.4 
L 1072.8 338.4 
L 1072.8 0 
L 0 0 
z
" style="fill: #ffffff"/>
  </g>
  <g id="axes_1">
   <g id="patch_2">
    <path d="M 43.877228 260.913333 
L 143.429703 260.913333 
Q 146.049505 260.913333 146.049505 255.506667 
L 146.049505 125.746667 
Q 146.049505 120.34 143.429703 120.34 
L 43.877228 120.34 
Q 41.257426 120.34 41.257426 125.746667 
L 41.257426 255.506667 
Q 41.257426 260.913333 43.877228 260.913333 
z
" clip-path="url(#p1331b78d6a)" style="fill: #fff9c4; stroke: #f9a825; stroke-width: 2; stroke-linejoin: miter"/>
   </g>
   <g id="patch_3">
    <path d="M 164.388119 260.913333 
L 263.940594 260.913333 
Q 266.560396 260.913333 266.560396 255.506667 
L 266.560396 125.746667 
Q 266.560396 120.34 263.940594 120.34 
L 164.388119 120.34 
Q 161.768317 120.34 161.768317 125.746667 
L 161.768317 255.506667 
Q 161.768317 260.913333 164.388119 260.913333 
z
" clip-path="url(#p1331b78d6a)" style="fill: #fff9c4; stroke: #f9a825; stroke-width: 2; stroke-linejoin: miter"/>
   </g>
   <g id="patch_4">
    <path d="M 284.89901 260.913333 
L 384.451485 260.913333 
Q 387.071287 260.913333 387.071287 255.506667 
L 387.071287 125.746667 
Q 387.071287 120.34 384.451485 120.34 
L 284.89901 120.34 
Q 282.279208 120.34 282.279208 125.746667 
L 282.279208 255.506667 
Q 282.279208 260.913333 284.89901 260.913333 
z
" clip-path="url(#p1331b78d6a)" style="fill: #fff9c4; stroke: #f9a825; stroke-width: 2; stroke-linejoin: miter"/>
   </g>
   <g id="patch_5">
    <path d="M 405.409901 260.913333 
L 504.962376 260.913333 
Q 507.582178 260.913333 507.582178 255.506667 
L 507.582178 125.746667 
Q 507.582178 120.34 504.962376 120.34 
L 405.409901 120.34 
Q 402.790099 120.34 402.790099 125.746667 
L 402.790099 255.506667 
Q 402.790099 260.913333 405.409901 260.913333 
z
" clip-path="url(#p1331b78d6a)" style="fill: #fff9c4; stroke: #f9a825; stroke-width: 2; stroke-linejoin: miter"/>
   </g>
   <g id="patch_6">
    <path d="M 552.118812 250.1 
L 651.671287 250.1 
Q 654.291089 250.1 654.291089 244.693333 
L 654.291089 136.56 
Q 654.291089 131.153333 651.671287 131.153333 
L 552.118812 131.153333 
Q 549.49901 131.153333 549.49901 136.56 
L 549.49901 244.693333 
Q 549.49901 250.1 552.118812 250.1 
z
" clip-path="url(#p1331b78d6a)" style="fill: #e1f5fe; stroke: #1565c0; stroke-width: 2; stroke-linejoin: miter"/>
   </g>
   <g id="patch_7">
    <path d="M 698.827723 250.1 
L 766.942574 250.1 
Q 769.562376 250.1 769.562376 244.693333 
L 769.562376 136.56 
Q 769.562376 131.153333 766.942574 131.153333 
L 698.827723 131.153333 
Q 696.207921 131.153333 696.207921 136.56 
L 696.207921 244.693333 
Q 696.207921 250.1 698.827723 250.1 
z
" clip-path="url(#p1331b78d6a)" style="fill: #e8f5e9; stroke: #2e7d32; stroke-width: 2; stroke-linejoin: miter"/>
   </g>
   <g id="patch_8">
    <path d="M 782.661386 250.1 
L 850.776238 250.1 
Q 853.39604 250.1 853.39604 244.693333 
L 853.39604 136.56 
Q 853.39604 131.153333 850.776238 131.153333 
L 782.661386 131.153333 
Q 780.041584 131.153333 780.041584 136.56 
L 780.041584 244.693333 
Q 780.041584 250.1 782.661386 250.1 
z
" clip-path="url(#p1331b78d6a)" style="fill: #e8f5e9; stroke: #2e7d32; stroke-width: 2; stroke-linejoin: miter"/>
   </g>
   <g id="patch_9">
    <path d="M 866.49505 250.1 
L 934.609901 250.1 
Q 937.229703 250.1 937.229703 244.693333 
L 937.229703 136.56 
Q 937.229703 131.153333 934.609901 131.153333 
L 866.49505 131.153333 
Q 863.875248 131.153333 863.875248 136.56 
L 863.875248 244.693333 
Q 863.875248 250.1 866.49505 250.1 
z
" clip-path="url(#p1331b78d6a)" style="fill: #e8f5e9; stroke: #2e7d32; stroke-width: 2; stroke-linejoin: miter"/>
   </g>
   <g id="patch_10">
    <path d="M 950.328713 250.1 
L 1018.443564 250.1 
Q 1021.063366 250.1 1021.063366 244.693333 
L 1021.063366 136.56 
Q 1021.063366 131.153333 1018.443564 131.153333 
L 950.328713 131.153333 
Q 947.708911 131.153333 947.708911 136.56 
L 947.708911 244.693333 
Q 947.708911 250.1 950.328713 250.1 
z
" clip-path="url(#p1331b78d6a)" style="fill: #e8f5e9; stroke: #2e7d32; stroke-width: 2; stroke-linejoin: miter"/>
   </g>
   <g id="text_1">
    <!-- GPU 0 -->
    <g transform="translate(80.499403 189.038307) scale(0.09 -0.09)">
     <defs>
      <path id="STHeitiSC-Medium-29" d="M 5325 2675 
Q 5306 1536 4662 902 
Q 4019 269 2970 269 
Q 1766 269 1049 1008 
Q 333 1747 333 2739 
Q 333 3731 1049 4457 
Q 1766 5184 2899 5184 
Q 3514 5184 4042 4957 
Q 4570 4730 5075 4262 
L 4653 3859 
Q 4262 4237 3808 4438 
Q 3354 4640 2874 4640 
Q 2394 4640 1920 4384 
Q 1446 4128 1177 3693 
Q 909 3258 909 2752 
Q 909 1965 1501 1379 
Q 2093 794 2982 794 
Q 3642 794 4122 1155 
Q 4602 1517 4710 2144 
L 3251 2144 
L 3251 2675 
L 5325 2675 
z
" transform="scale(0.015625)"/>
      <path id="STHeitiSC-Medium-32" d="M 512 5069 
L 1472 5069 
Q 2291 5069 2547 5005 
Q 2803 4941 3017 4774 
Q 3232 4608 3353 4358 
Q 3475 4109 3475 3795 
Q 3475 3482 3356 3232 
Q 3238 2982 3017 2819 
Q 2797 2656 2477 2589 
Q 2157 2522 1344 2522 
L 1062 2522 
L 1062 384 
L 512 384 
L 512 5069 
z
M 1062 3053 
L 1792 3053 
Q 2438 3040 2672 3257 
Q 2906 3475 2906 3802 
Q 2906 4531 1830 4531 
L 1062 4531 
L 1062 3053 
z
" transform="scale(0.015625)"/>
      <path id="STHeitiSC-Medium-37" d="M 3661 2253 
Q 3661 1542 3517 1161 
Q 3373 781 3005 525 
Q 2637 269 2144 269 
Q 1754 269 1440 393 
Q 1126 518 918 745 
Q 710 973 620 1251 
Q 531 1530 531 2253 
L 531 5069 
L 1082 5069 
L 1082 2253 
Q 1082 1798 1107 1596 
Q 1133 1395 1254 1206 
Q 1376 1018 1603 906 
Q 1830 794 2118 794 
Q 2464 794 2717 995 
Q 2970 1197 3043 1462 
Q 3117 1728 3117 2253 
L 3117 5069 
L 3661 5069 
L 3661 2253 
z
" transform="scale(0.015625)"/>
      <path id="STHeitiSC-Medium-3" transform="scale(0.015625)"/>
      <path id="STHeitiSC-Medium-12" d="M 1747 5184 
Q 2502 5184 2944 4547 
Q 3386 3910 3386 2723 
Q 3386 1536 2938 902 
Q 2490 269 1738 269 
Q 986 269 573 893 
Q 160 1517 160 2729 
Q 160 3942 573 4563 
Q 986 5184 1747 5184 
z
M 1760 774 
Q 2285 774 2576 1283 
Q 2867 1792 2867 2726 
Q 2867 3661 2566 4160 
Q 2266 4659 1757 4659 
Q 1248 4659 966 4160 
Q 685 3661 685 2714 
Q 685 774 1760 774 
z
" transform="scale(0.015625)"/>
     </defs>
     <use xlink:href="#STHeitiSC-Medium-29"/>
     <use xlink:href="#STHeitiSC-Medium-32" transform="translate(87.203125 0)"/>
     <use xlink:href="#STHeitiSC-Medium-37" transform="translate(146.40625 0)"/>
     <use xlink:href="#STHeitiSC-Medium-3" transform="translate(211.90625 0)"/>
     <use xlink:href="#STHeitiSC-Medium-12" transform="translate(236.90625 0)"/>
    </g>
    <!-- vocab [0:V/4) -->
    <g transform="translate(63.434559 198.695026) scale(0.09 -0.09)">
     <defs>
      <path id="STHeitiSC-Medium-58" d="M 3430 3872 
L 1837 269 
L 1709 269 
L 102 3872 
L 659 3872 
L 1766 1350 
L 2874 3872 
L 3430 3872 
z
" transform="scale(0.015625)"/>
      <path id="STHeitiSC-Medium-51" d="M 2099 3962 
Q 2854 3962 3382 3418 
Q 3910 2874 3910 2112 
Q 3910 1350 3388 809 
Q 2867 269 2099 269 
Q 1331 269 806 809 
Q 282 1350 282 2112 
Q 282 2874 810 3418 
Q 1338 3962 2099 3962 
z
M 2099 774 
Q 2630 774 3004 1161 
Q 3379 1549 3379 2096 
Q 3379 2643 2998 3043 
Q 2618 3443 2096 3443 
Q 1574 3443 1196 3043 
Q 819 2643 819 2092 
Q 819 1542 1184 1158 
Q 1549 774 2099 774 
z
" transform="scale(0.015625)"/>
      <path id="STHeitiSC-Medium-45" d="M 3853 1094 
Q 3578 691 3133 480 
Q 2688 269 2170 269 
Q 1363 269 822 800 
Q 282 1331 282 2099 
Q 282 2867 826 3414 
Q 1370 3962 2234 3962 
Q 2746 3962 3178 3738 
Q 3610 3514 3853 3110 
L 3437 2848 
Q 2970 3456 2214 3456 
Q 1619 3456 1216 3075 
Q 813 2694 813 2131 
Q 813 1568 1209 1165 
Q 1606 762 2214 762 
Q 2944 762 3443 1376 
L 3853 1094 
z
" transform="scale(0.015625)"/>
      <path id="STHeitiSC-Medium-43" d="M 3917 384 
L 3398 384 
L 3398 896 
Q 2829 269 2086 269 
Q 1344 269 816 816 
Q 288 1363 288 2121 
Q 288 2880 819 3421 
Q 1350 3962 2115 3962 
Q 2880 3962 3398 3341 
L 3398 3872 
L 3917 3872 
L 3917 384 
z
M 2125 762 
Q 2656 762 3040 1146 
Q 3424 1530 3424 2102 
Q 3424 2675 3046 3062 
Q 2669 3450 2121 3450 
Q 1574 3450 1196 3050 
Q 819 2650 819 2106 
Q 819 1562 1203 1162 
Q 1587 762 2125 762 
z
" transform="scale(0.015625)"/>
      <path id="STHeitiSC-Medium-44" d="M 992 3360 
Q 1536 3962 2297 3962 
Q 3059 3962 3580 3421 
Q 4102 2880 4102 2118 
Q 4102 1357 3571 813 
Q 3040 269 2288 269 
Q 1536 269 992 922 
L 992 384 
L 474 384 
L 474 5184 
L 992 5184 
L 992 3360 
z
M 2266 781 
Q 2810 781 3190 1184 
Q 3571 1587 3571 2128 
Q 3571 2669 3200 3072 
Q 2829 3475 2272 3475 
Q 1715 3475 1340 3097 
Q 966 2720 966 2147 
Q 966 1574 1344 1177 
Q 1722 781 2266 781 
z
" transform="scale(0.015625)"/>
      <path id="STHeitiSC-Medium-3d" d="M 2003 -672 
L 864 -672 
L 864 5370 
L 2003 5370 
L 2003 4838 
L 1389 4838 
L 1389 -154 
L 2003 -154 
L 2003 -672 
z
" transform="scale(0.015625)"/>
      <path id="STHeitiSC-Medium-1c" d="M 966 4282 
Q 1146 4282 1270 4157 
Q 1395 4032 1395 3849 
Q 1395 3667 1273 3542 
Q 1152 3418 969 3418 
Q 787 3418 662 3542 
Q 538 3667 538 3846 
Q 538 4026 666 4154 
Q 794 4282 966 4282 
z
M 966 1478 
Q 1146 1478 1270 1353 
Q 1395 1229 1395 1046 
Q 1395 864 1270 739 
Q 1146 614 970 614 
Q 794 614 666 742 
Q 538 870 538 1049 
Q 538 1229 666 1353 
Q 794 1478 966 1478 
z
" transform="scale(0.015625)"/>
      <path id="STHeitiSC-Medium-38" d="M 4346 5069 
L 2304 269 
L 2157 269 
L 147 5069 
L 736 5069 
L 2234 1466 
L 3757 5069 
L 4346 5069 
z
" transform="scale(0.015625)"/>
      <path id="STHeitiSC-Medium-11" d="M 2675 5504 
L 736 77 
L 160 77 
L 2099 5504 
L 2675 5504 
z
" transform="scale(0.015625)"/>
      <path id="STHeitiSC-Medium-16" d="M 3418 1453 
L 2861 1453 
L 2861 384 
L 2317 384 
L 2317 1453 
L 70 1453 
L 2701 5184 
L 2861 5184 
L 2861 1984 
L 3418 1984 
L 3418 1453 
z
M 2317 1984 
L 2317 3712 
L 1094 1984 
L 2317 1984 
z
" transform="scale(0.015625)"/>
      <path id="STHeitiSC-Medium-b" d="M 922 5779 
Q 1574 4275 1574 2483 
Q 1574 819 1050 -442 
L 474 -442 
Q 1018 877 1018 2541 
Q 1018 3392 835 4237 
Q 653 5082 314 5779 
L 922 5779 
z
" transform="scale(0.015625)"/>
     </defs>
     <use xlink:href="#STHeitiSC-Medium-58"/>
     <use xlink:href="#STHeitiSC-Medium-51" transform="translate(55.40625 0)"/>
     <use xlink:href="#STHeitiSC-Medium-45" transform="translate(120.90625 0)"/>
     <use xlink:href="#STHeitiSC-Medium-43" transform="translate(185.609375 0)"/>
     <use xlink:href="#STHeitiSC-Medium-44" transform="translate(253.90625 0)"/>
     <use xlink:href="#STHeitiSC-Medium-3" transform="translate(322.109375 0)"/>
     <use xlink:href="#STHeitiSC-Medium-3d" transform="translate(347.109375 0)"/>
     <use xlink:href="#STHeitiSC-Medium-12" transform="translate(382.203125 0)"/>
     <use xlink:href="#STHeitiSC-Medium-1c" transform="translate(437.609375 0)"/>
     <use xlink:href="#STHeitiSC-Medium-38" transform="translate(465.3125 0)"/>
     <use xlink:href="#STHeitiSC-Medium-11" transform="translate(535.515625 0)"/>
     <use xlink:href="#STHeitiSC-Medium-16" transform="translate(579.21875 0)"/>
     <use xlink:href="#STHeitiSC-Medium-b" transform="translate(634.625 0)"/>
    </g>
   </g>
   <g id="text_2">
    <!-- GPU 1 -->
    <g transform="translate(201.010294 189.038307) scale(0.09 -0.09)">
     <defs>
      <path id="STHeitiSC-Medium-13" d="M 2131 384 
L 1587 384 
L 1587 4531 
L 826 4531 
L 1158 5069 
L 2131 5069 
L 2131 384 
z
" transform="scale(0.015625)"/>
     </defs>
     <use xlink:href="#STHeitiSC-Medium-29"/>
     <use xlink:href="#STHeitiSC-Medium-32" transform="translate(87.203125 0)"/>
     <use xlink:href="#STHeitiSC-Medium-37" transform="translate(146.40625 0)"/>
     <use xlink:href="#STHeitiSC-Medium-3" transform="translate(211.90625 0)"/>
     <use xlink:href="#STHeitiSC-Medium-13" transform="translate(236.90625 0)"/>
    </g>
    <!-- vocab [V/4:V/2) -->
    <g transform="translate(178.819669 198.695026) scale(0.09 -0.09)">
     <defs>
      <path id="STHeitiSC-Medium-14" d="M 3360 384 
L 90 384 
L 1914 2355 
Q 2374 2842 2566 3123 
Q 2758 3405 2758 3763 
Q 2758 4122 2480 4390 
Q 2202 4659 1789 4659 
Q 1376 4659 1101 4368 
Q 826 4077 787 3539 
L 256 3539 
Q 288 4294 736 4739 
Q 1184 5184 1821 5184 
Q 2458 5184 2877 4771 
Q 3296 4358 3296 3763 
Q 3296 3328 3065 2950 
Q 2835 2573 2368 2074 
L 1293 915 
L 3360 915 
L 3360 384 
z
" transform="scale(0.015625)"/>
     </defs>
     <use xlink:href="#STHeitiSC-Medium-58"/>
     <use xlink:href="#STHeitiSC-Medium-51" transform="translate(55.40625 0)"/>
     <use xlink:href="#STHeitiSC-Medium-45" transform="translate(120.90625 0)"/>
     <use xlink:href="#STHeitiSC-Medium-43" transform="translate(185.609375 0)"/>
     <use xlink:href="#STHeitiSC-Medium-44" transform="translate(253.90625 0)"/>
     <use xlink:href="#STHeitiSC-Medium-3" transform="translate(322.109375 0)"/>
     <use xlink:href="#STHeitiSC-Medium-3d" transform="translate(347.109375 0)"/>
     <use xlink:href="#STHeitiSC-Medium-38" transform="translate(382.203125 0)"/>
     <use xlink:href="#STHeitiSC-Medium-11" transform="translate(452.40625 0)"/>
     <use xlink:href="#STHeitiSC-Medium-16" transform="translate(496.109375 0)"/>
     <use xlink:href="#STHeitiSC-Medium-1c" transform="translate(551.515625 0)"/>
     <use xlink:href="#STHeitiSC-Medium-38" transform="translate(579.21875 0)"/>
     <use xlink:href="#STHeitiSC-Medium-11" transform="translate(649.421875 0)"/>
     <use xlink:href="#STHeitiSC-Medium-14" transform="translate(693.125 0)"/>
     <use xlink:href="#STHeitiSC-Medium-b" transform="translate(748.53125 0)"/>
    </g>
   </g>
   <g id="text_3">
    <!-- GPU 2 -->
    <g transform="translate(321.521185 189.038307) scale(0.09 -0.09)">
     <use xlink:href="#STHeitiSC-Medium-29"/>
     <use xlink:href="#STHeitiSC-Medium-32" transform="translate(87.203125 0)"/>
     <use xlink:href="#STHeitiSC-Medium-37" transform="translate(146.40625 0)"/>
     <use xlink:href="#STHeitiSC-Medium-3" transform="translate(211.90625 0)"/>
     <use xlink:href="#STHeitiSC-Medium-14" transform="translate(236.90625 0)"/>
    </g>
    <!-- vocab [V/2:3V/4) -->
    <g transform="translate(296.837279 198.695026) scale(0.09 -0.09)">
     <defs>
      <path id="STHeitiSC-Medium-15" d="M 2554 3021 
Q 2931 2835 3139 2508 
Q 3347 2182 3347 1798 
Q 3347 1171 2889 720 
Q 2432 269 1734 269 
Q 1107 269 707 630 
Q 307 992 166 1702 
L 710 1702 
Q 832 1248 1072 1027 
Q 1312 806 1757 806 
Q 2202 806 2502 1084 
Q 2803 1363 2803 1785 
Q 2803 2208 2460 2457 
Q 2118 2707 1453 2720 
L 1453 3232 
Q 1933 3232 2227 3437 
Q 2522 3642 2522 3946 
Q 2522 4250 2294 4451 
Q 2067 4653 1744 4653 
Q 1421 4653 1219 4470 
Q 1018 4288 877 3917 
L 320 3917 
Q 461 4531 832 4857 
Q 1203 5184 1747 5184 
Q 2291 5184 2691 4825 
Q 3091 4467 3091 3955 
Q 3091 3366 2554 3021 
z
" transform="scale(0.015625)"/>
     </defs>
     <use xlink:href="#STHeitiSC-Medium-58"/>
     <use xlink:href="#STHeitiSC-Medium-51" transform="translate(55.40625 0)"/>
     <use xlink:href="#STHeitiSC-Medium-45" transform="translate(120.90625 0)"/>
     <use xlink:href="#STHeitiSC-Medium-43" transform="translate(185.609375 0)"/>
     <use xlink:href="#STHeitiSC-Medium-44" transform="translate(253.90625 0)"/>
     <use xlink:href="#STHeitiSC-Medium-3" transform="translate(322.109375 0)"/>
     <use xlink:href="#STHeitiSC-Medium-3d" transform="translate(347.109375 0)"/>
     <use xlink:href="#STHeitiSC-Medium-38" transform="translate(382.203125 0)"/>
     <use xlink:href="#STHeitiSC-Medium-11" transform="translate(452.40625 0)"/>
     <use xlink:href="#STHeitiSC-Medium-14" transform="translate(496.109375 0)"/>
     <use xlink:href="#STHeitiSC-Medium-1c" transform="translate(551.515625 0)"/>
     <use xlink:href="#STHeitiSC-Medium-15" transform="translate(579.21875 0)"/>
     <use xlink:href="#STHeitiSC-Medium-38" transform="translate(634.625 0)"/>
     <use xlink:href="#STHeitiSC-Medium-11" transform="translate(704.828125 0)"/>
     <use xlink:href="#STHeitiSC-Medium-16" transform="translate(748.53125 0)"/>
     <use xlink:href="#STHeitiSC-Medium-b" transform="translate(803.9375 0)"/>
    </g>
   </g>
   <g id="text_4">
    <!-- GPU 3 -->
    <g transform="translate(442.032076 189.038307) scale(0.09 -0.09)">
     <use xlink:href="#STHeitiSC-Medium-29"/>
     <use xlink:href="#STHeitiSC-Medium-32" transform="translate(87.203125 0)"/>
     <use xlink:href="#STHeitiSC-Medium-37" transform="translate(146.40625 0)"/>
     <use xlink:href="#STHeitiSC-Medium-3" transform="translate(211.90625 0)"/>
     <use xlink:href="#STHeitiSC-Medium-15" transform="translate(236.90625 0)"/>
    </g>
    <!-- vocab [3V/4:V) -->
    <g transform="translate(421.808092 198.695026) scale(0.09 -0.09)">
     <use xlink:href="#STHeitiSC-Medium-58"/>
     <use xlink:href="#STHeitiSC-Medium-51" transform="translate(55.40625 0)"/>
     <use xlink:href="#STHeitiSC-Medium-45" transform="translate(120.90625 0)"/>
     <use xlink:href="#STHeitiSC-Medium-43" transform="translate(185.609375 0)"/>
     <use xlink:href="#STHeitiSC-Medium-44" transform="translate(253.90625 0)"/>
     <use xlink:href="#STHeitiSC-Medium-3" transform="translate(322.109375 0)"/>
     <use xlink:href="#STHeitiSC-Medium-3d" transform="translate(347.109375 0)"/>
     <use xlink:href="#STHeitiSC-Medium-15" transform="translate(382.203125 0)"/>
     <use xlink:href="#STHeitiSC-Medium-38" transform="translate(437.609375 0)"/>
     <use xlink:href="#STHeitiSC-Medium-11" transform="translate(507.8125 0)"/>
     <use xlink:href="#STHeitiSC-Medium-16" transform="translate(551.515625 0)"/>
     <use xlink:href="#STHeitiSC-Medium-1c" transform="translate(606.921875 0)"/>
     <use xlink:href="#STHeitiSC-Medium-38" transform="translate(634.625 0)"/>
     <use xlink:href="#STHeitiSC-Medium-b" transform="translate(704.828125 0)"/>
    </g>
   </g>
   <g id="text_5">
    <!-- all_gather -->
    <g transform="translate(580.119971 189.231667) scale(0.09 -0.09)">
     <defs>
      <path id="STHeitiSC-Medium-4e" d="M 902 384 
L 378 384 
L 378 5184 
L 902 5184 
L 902 384 
z
" transform="scale(0.015625)"/>
      <path id="STHeitiSC-Medium-41" d="M 3200 -416 
L 0 -416 
L 0 -6 
L 3200 -6 
L 3200 -416 
z
" transform="scale(0.015625)"/>
      <path id="STHeitiSC-Medium-49" d="M 3930 1203 
Q 3930 512 3811 179 
Q 3693 -154 3453 -384 
Q 3213 -614 2877 -732 
Q 2541 -851 2138 -851 
Q 774 -851 320 301 
L 883 301 
Q 1254 -365 2118 -365 
Q 2515 -365 2828 -211 
Q 3142 -58 3270 198 
Q 3398 454 3398 986 
L 3398 1018 
Q 3149 736 2797 589 
Q 2445 442 2067 442 
Q 1312 442 803 960 
Q 294 1478 301 2182 
Q 294 2918 832 3440 
Q 1370 3962 2109 3962 
Q 2848 3962 3398 3360 
L 3398 3872 
L 3930 3872 
L 3930 1203 
z
M 3418 2182 
Q 3418 2733 3050 3091 
Q 2682 3450 2150 3450 
Q 1587 3450 1206 3062 
Q 826 2675 826 2163 
Q 826 1651 1190 1296 
Q 1555 941 2124 941 
Q 2694 941 3056 1289 
Q 3418 1638 3418 2182 
z
" transform="scale(0.015625)"/>
      <path id="STHeitiSC-Medium-56" d="M 2048 3411 
L 1357 3411 
L 1357 966 
Q 1357 832 1395 803 
Q 1434 774 1587 774 
L 1894 774 
L 1894 320 
Q 1587 269 1427 269 
Q 1120 269 973 419 
Q 826 570 826 896 
L 826 3411 
L 224 3411 
L 224 3872 
L 826 3872 
L 826 5184 
L 1357 5184 
L 1357 3872 
L 2048 3872 
L 2048 3411 
z
" transform="scale(0.015625)"/>
      <path id="STHeitiSC-Medium-4a" d="M 3501 384 
L 2970 384 
L 2970 2048 
Q 2970 2534 2941 2732 
Q 2912 2931 2809 3107 
Q 2707 3283 2531 3376 
Q 2355 3469 2108 3469 
Q 1862 3469 1638 3353 
Q 1414 3238 1254 3033 
Q 1094 2829 1033 2598 
Q 973 2368 973 1677 
L 973 384 
L 442 384 
L 442 5184 
L 973 5184 
L 973 3347 
Q 1491 3962 2202 3962 
Q 2579 3962 2886 3766 
Q 3194 3571 3347 3228 
Q 3501 2886 3501 2176 
L 3501 384 
z
" transform="scale(0.015625)"/>
      <path id="STHeitiSC-Medium-47" d="M 3878 2035 
L 819 2035 
Q 851 1459 1206 1110 
Q 1562 762 2054 762 
Q 2893 762 3334 1587 
L 3782 1357 
Q 3482 800 3072 534 
Q 2662 269 2093 269 
Q 1306 269 794 809 
Q 282 1350 282 2112 
Q 282 2874 797 3418 
Q 1312 3962 2073 3962 
Q 2835 3962 3347 3446 
Q 3859 2931 3878 2035 
z
M 3290 2502 
Q 3194 2950 2854 3200 
Q 2515 3450 2074 3450 
Q 1178 3450 883 2502 
L 3290 2502 
z
" transform="scale(0.015625)"/>
      <path id="STHeitiSC-Medium-54" d="M 1914 3821 
L 1638 3373 
Q 1530 3430 1427 3430 
Q 1229 3430 1069 3235 
Q 909 3040 829 2723 
Q 749 2406 749 1581 
L 749 384 
L 211 384 
L 211 3872 
L 749 3872 
L 749 3494 
Q 909 3731 1072 3846 
Q 1235 3962 1443 3962 
Q 1651 3962 1914 3821 
z
" transform="scale(0.015625)"/>
     </defs>
     <use xlink:href="#STHeitiSC-Medium-43"/>
     <use xlink:href="#STHeitiSC-Medium-4e" transform="translate(68.296875 0)"/>
     <use xlink:href="#STHeitiSC-Medium-4e" transform="translate(88.296875 0)"/>
     <use xlink:href="#STHeitiSC-Medium-41" transform="translate(108.296875 0)"/>
     <use xlink:href="#STHeitiSC-Medium-49" transform="translate(158.296875 0)"/>
     <use xlink:href="#STHeitiSC-Medium-43" transform="translate(225.59375 0)"/>
     <use xlink:href="#STHeitiSC-Medium-56" transform="translate(293.890625 0)"/>
     <use xlink:href="#STHeitiSC-Medium-4a" transform="translate(327.796875 0)"/>
     <use xlink:href="#STHeitiSC-Medium-47" transform="translate(388.796875 0)"/>
     <use xlink:href="#STHeitiSC-Medium-54" transform="translate(453.796875 0)"/>
    </g>
    <!-- 拼接词表分片 -->
    <g transform="translate(574.89505 198.501667) scale(0.09 -0.09)">
     <defs>
      <path id="STHeitiSC-Medium-8b9" d="M 3488 3968 
Q 3379 4211 3264 4403 
Q 3149 4595 2989 4781 
L 3488 5037 
Q 3597 4832 3718 4637 
Q 3840 4442 3994 4237 
L 3488 3968 
z
M 3309 3379 
Q 3123 3373 2944 3363 
Q 2765 3354 2650 3334 
L 2650 3859 
Q 2842 3834 3098 3821 
Q 3354 3808 3763 3808 
L 4269 3808 
Q 4371 3987 4448 4150 
Q 4525 4314 4585 4474 
Q 4646 4634 4694 4803 
Q 4742 4973 4794 5178 
Q 4966 5088 5126 5033 
Q 5286 4979 5434 4947 
Q 5504 4934 5504 4886 
Q 5504 4838 5421 4794 
Q 5370 4762 5312 4710 
Q 5254 4659 5171 4553 
Q 5088 4448 4976 4269 
Q 4864 4090 4704 3808 
Q 4960 3808 5142 3811 
Q 5325 3814 5459 3820 
Q 5594 3827 5696 3836 
Q 5798 3846 5894 3859 
L 5894 3334 
Q 5760 3354 5539 3366 
Q 5318 3379 5107 3386 
L 5107 2093 
Q 5331 2093 5577 2102 
Q 5824 2112 6010 2138 
L 6010 1613 
Q 5824 1632 5577 1645 
Q 5331 1658 5107 1664 
L 5107 467 
Q 5107 218 5116 -80 
Q 5126 -378 5152 -685 
L 4570 -685 
Q 4595 -378 4608 -80 
Q 4621 218 4621 467 
L 4621 1664 
L 3795 1664 
Q 3782 1210 3721 883 
Q 3661 557 3520 291 
Q 3379 26 3139 -211 
Q 2899 -448 2528 -723 
Q 2438 -602 2329 -522 
Q 2221 -442 2054 -365 
Q 2381 -192 2608 -6 
Q 2835 179 2985 412 
Q 3136 646 3209 947 
Q 3283 1248 3302 1658 
Q 3098 1658 2880 1645 
Q 2662 1632 2496 1613 
L 2496 2138 
Q 2662 2112 2883 2102 
Q 3104 2093 3309 2093 
L 3309 3379 
z
M 3802 3392 
L 3802 2093 
L 4621 2093 
L 4621 3392 
L 3802 3392 
z
M 1254 3226 
Q 979 3219 777 3206 
Q 576 3194 416 3168 
L 416 3712 
Q 576 3686 777 3673 
Q 979 3661 1254 3661 
Q 1254 3994 1251 4214 
Q 1248 4435 1241 4585 
Q 1235 4736 1222 4835 
Q 1210 4934 1184 5030 
Q 1338 4998 1485 4988 
Q 1632 4979 1760 4992 
Q 1882 5005 1894 4966 
Q 1907 4928 1830 4826 
Q 1786 4774 1763 4649 
Q 1741 4525 1741 4410 
L 1741 3667 
Q 1920 3674 2064 3683 
Q 2208 3693 2323 3712 
L 2323 3168 
Q 2208 3187 2064 3200 
Q 1920 3213 1741 3219 
L 1741 2259 
Q 2074 2381 2355 2509 
Q 2323 2330 2329 2221 
Q 2336 2112 2387 1990 
Q 2240 1939 2073 1884 
Q 1907 1830 1741 1760 
L 1741 26 
Q 1741 -134 1705 -246 
Q 1670 -358 1564 -435 
Q 1459 -512 1264 -569 
Q 1069 -627 755 -678 
Q 723 -525 675 -371 
Q 627 -218 518 -51 
Q 781 -70 928 -70 
Q 1075 -70 1148 -44 
Q 1222 -19 1238 35 
Q 1254 90 1254 186 
L 1254 1562 
Q 1050 1472 874 1389 
Q 698 1306 563 1229 
Q 531 1376 489 1542 
Q 448 1709 390 1862 
Q 614 1920 832 1977 
Q 1050 2035 1254 2099 
L 1254 3226 
z
" transform="scale(0.015625)"/>
      <path id="STHeitiSC-Medium-2c8" d="M 3379 2989 
Q 3322 3136 3254 3273 
Q 3187 3411 3091 3558 
L 3571 3814 
Q 3622 3686 3718 3526 
Q 3814 3366 3904 3251 
L 3379 2989 
z
M 1210 3392 
Q 960 3392 752 3382 
Q 544 3373 403 3360 
L 403 3885 
Q 544 3872 752 3859 
Q 960 3846 1210 3840 
Q 1210 4096 1206 4288 
Q 1203 4480 1200 4624 
Q 1197 4768 1187 4867 
Q 1178 4966 1171 5037 
Q 1344 5005 1478 4992 
Q 1613 4979 1747 4986 
Q 2022 4998 1811 4832 
Q 1747 4781 1728 4726 
Q 1709 4672 1709 4589 
L 1709 3846 
Q 1914 3853 2080 3862 
Q 2246 3872 2368 3885 
L 2368 3360 
Q 2246 3373 2080 3379 
Q 1914 3386 1709 3392 
L 1709 2374 
Q 1843 2445 1971 2512 
Q 2099 2579 2227 2669 
Q 2240 2541 2262 2425 
Q 2285 2310 2323 2189 
Q 2195 2118 2038 2035 
Q 1882 1952 1709 1856 
L 1709 83 
Q 1709 -134 1683 -262 
Q 1658 -390 1565 -464 
Q 1472 -538 1286 -579 
Q 1101 -621 781 -666 
Q 768 -506 726 -368 
Q 685 -230 595 -58 
Q 813 -70 934 -67 
Q 1056 -64 1117 -29 
Q 1178 6 1194 80 
Q 1210 154 1210 282 
L 1210 1568 
Q 813 1344 512 1165 
Q 480 1318 429 1484 
Q 378 1651 307 1792 
Q 525 1856 752 1939 
Q 979 2022 1210 2125 
L 1210 3392 
z
M 4634 397 
Q 4992 237 5325 83 
Q 5658 -70 5914 -198 
Q 5805 -320 5718 -435 
Q 5632 -550 5542 -698 
Q 5325 -531 5001 -332 
Q 4678 -134 4282 70 
Q 3936 -192 3475 -361 
Q 3014 -531 2406 -621 
Q 2342 -499 2268 -396 
Q 2195 -294 2080 -173 
Q 3168 -90 3802 301 
Q 3565 410 3318 509 
Q 3072 608 2816 691 
Q 2899 800 2953 880 
Q 3008 960 3049 1033 
Q 3091 1107 3132 1193 
Q 3174 1280 3232 1395 
Q 3059 1395 2931 1388 
Q 2803 1382 2691 1379 
Q 2579 1376 2480 1366 
Q 2381 1357 2272 1350 
L 2272 1875 
Q 2394 1862 2509 1852 
Q 2624 1843 2752 1840 
Q 2880 1837 3046 1833 
Q 3213 1830 3443 1830 
Q 3552 2054 3590 2169 
Q 3629 2285 3642 2400 
Q 3936 2272 4141 2246 
Q 4224 2234 4230 2195 
Q 4237 2157 4147 2093 
Q 4122 2074 4093 2029 
Q 4064 1984 3974 1830 
L 4845 1830 
Q 5094 1830 5270 1830 
Q 5446 1830 5587 1836 
Q 5728 1843 5846 1852 
Q 5965 1862 6093 1875 
L 6093 1350 
Q 5984 1363 5891 1369 
Q 5798 1376 5692 1382 
Q 5587 1389 5465 1392 
Q 5344 1395 5184 1395 
Q 5011 806 4634 397 
z
M 3462 883 
Q 3616 826 3798 752 
Q 3981 678 4173 595 
Q 4346 762 4464 963 
Q 4582 1165 4653 1395 
L 3738 1395 
L 3462 883 
z
M 4320 2899 
Q 4454 3174 4547 3440 
Q 4640 3706 4678 3923 
Q 4800 3853 4960 3795 
Q 5120 3738 5261 3712 
Q 5293 3706 5299 3686 
Q 5306 3667 5274 3648 
Q 5184 3578 5069 3405 
Q 4954 3232 4787 2899 
Q 5005 2899 5161 2902 
Q 5318 2906 5449 2909 
Q 5581 2912 5696 2921 
Q 5811 2931 5946 2944 
L 5946 2432 
Q 5818 2445 5683 2454 
Q 5549 2464 5363 2467 
Q 5178 2470 4909 2473 
Q 4640 2477 4237 2477 
Q 3834 2477 3568 2473 
Q 3302 2470 3113 2467 
Q 2925 2464 2793 2454 
Q 2662 2445 2528 2432 
L 2528 2944 
Q 2662 2931 2777 2921 
Q 2893 2912 3027 2909 
Q 3162 2906 3325 2902 
Q 3488 2899 3712 2899 
L 4320 2899 
z
M 4026 4467 
Q 3994 4602 3958 4749 
Q 3923 4896 3872 5030 
L 4461 5165 
Q 4493 5011 4531 4828 
Q 4570 4646 4621 4467 
Q 4902 4467 5100 4470 
Q 5299 4474 5446 4477 
Q 5594 4480 5702 4489 
Q 5811 4499 5914 4512 
L 5914 3974 
Q 5798 3987 5667 3996 
Q 5536 4006 5350 4012 
Q 5165 4019 4896 4022 
Q 4627 4026 4237 4026 
Q 3846 4026 3580 4022 
Q 3315 4019 3126 4012 
Q 2938 4006 2810 3996 
Q 2682 3987 2566 3974 
L 2566 4512 
Q 2675 4499 2793 4489 
Q 2912 4480 3075 4477 
Q 3238 4474 3465 4470 
Q 3693 4467 4026 4467 
z
" transform="scale(0.015625)"/>
      <path id="STHeitiSC-Medium-80d" d="M 3194 653 
L 3194 51 
L 2618 51 
Q 2662 256 2678 483 
Q 2694 710 2694 954 
L 2694 1869 
Q 2694 2054 2681 2252 
Q 2669 2451 2650 2560 
Q 2726 2547 2816 2537 
Q 2906 2528 3024 2525 
Q 3142 2522 3302 2518 
Q 3462 2515 3680 2515 
Q 3891 2515 4038 2515 
Q 4186 2515 4291 2521 
Q 4397 2528 4470 2537 
Q 4544 2547 4614 2560 
Q 4589 2458 4573 2269 
Q 4557 2080 4557 1875 
L 4557 1062 
Q 4557 998 4560 905 
Q 4563 813 4572 713 
Q 4582 614 4592 515 
Q 4602 416 4614 333 
L 4058 333 
L 4058 653 
L 3194 653 
z
M 4058 1062 
L 4058 2054 
L 3194 2054 
L 3194 1062 
L 4058 1062 
z
M 1728 -32 
Q 1658 -102 1600 -163 
Q 1542 -224 1494 -285 
Q 1446 -346 1398 -413 
Q 1350 -480 1293 -563 
Q 1203 -397 1110 -269 
Q 1018 -141 902 -32 
Q 1075 134 1148 355 
Q 1222 576 1222 826 
L 1222 2778 
Q 915 2778 742 2768 
Q 570 2758 448 2739 
L 448 3334 
Q 582 3302 736 3292 
Q 890 3283 1107 3283 
Q 1325 3283 1497 3292 
Q 1670 3302 1811 3334 
Q 1779 3174 1763 2969 
Q 1747 2765 1747 2534 
L 1747 627 
Q 1914 794 2045 931 
Q 2176 1069 2298 1216 
Q 2330 1030 2374 921 
Q 2419 813 2502 736 
L 1728 -32 
z
M 5946 4762 
Q 5933 4685 5929 4614 
Q 5926 4544 5920 4461 
Q 5914 4378 5914 4269 
Q 5914 4160 5914 4006 
L 5914 64 
Q 5914 -128 5885 -253 
Q 5856 -378 5747 -454 
Q 5638 -531 5427 -582 
Q 5216 -634 4845 -678 
Q 4845 -506 4774 -304 
Q 4704 -102 4557 70 
Q 4819 38 4976 25 
Q 5133 13 5216 29 
Q 5299 45 5324 93 
Q 5350 141 5350 237 
L 5350 4250 
L 4000 4250 
Q 3776 4250 3593 4243 
Q 3411 4237 3244 4227 
Q 3078 4218 2921 4202 
Q 2765 4186 2598 4160 
L 2598 4742 
Q 2752 4730 2889 4720 
Q 3027 4710 3196 4707 
Q 3366 4704 3577 4704 
Q 3789 4704 4090 4704 
Q 4467 4704 4736 4707 
Q 5005 4710 5209 4713 
Q 5414 4717 5587 4729 
Q 5760 4742 5946 4762 
z
M 4915 3046 
Q 4781 3059 4665 3068 
Q 4550 3078 4422 3081 
Q 4294 3085 4124 3088 
Q 3955 3091 3712 3091 
Q 3475 3091 3302 3088 
Q 3130 3085 2986 3081 
Q 2842 3078 2701 3068 
Q 2560 3059 2387 3046 
L 2387 3616 
Q 2566 3603 2710 3590 
Q 2854 3578 3004 3571 
Q 3155 3565 3321 3561 
Q 3488 3558 3712 3558 
Q 3949 3558 4115 3561 
Q 4282 3565 4413 3568 
Q 4544 3571 4659 3584 
Q 4774 3597 4915 3616 
L 4915 3046 
z
M 1517 3866 
Q 1370 4154 1229 4390 
Q 1088 4627 947 4819 
L 1472 5126 
Q 1619 4922 1766 4691 
Q 1914 4461 2080 4192 
L 1517 3866 
z
" transform="scale(0.015625)"/>
      <path id="STHeitiSC-Medium-22a" d="M 4077 992 
Q 4403 1190 4684 1411 
Q 4966 1632 5114 1824 
Q 5158 1792 5232 1741 
Q 5306 1690 5379 1632 
Q 5453 1574 5513 1526 
Q 5574 1478 5600 1459 
Q 5664 1402 5648 1379 
Q 5632 1357 5542 1344 
Q 5504 1338 5433 1315 
Q 5363 1293 5228 1225 
Q 5094 1158 4876 1043 
Q 4659 928 4320 736 
Q 4480 602 4691 483 
Q 4902 365 5142 269 
Q 5382 173 5638 105 
Q 5894 38 6138 13 
Q 5965 -122 5837 -301 
Q 5709 -480 5683 -595 
Q 5133 -442 4681 -157 
Q 4230 128 3866 525 
Q 3776 614 3680 752 
Q 3584 890 3485 1046 
Q 3386 1203 3290 1376 
Q 3194 1549 3104 1715 
L 3552 1946 
Q 3642 1741 3766 1504 
Q 3891 1267 4077 992 
z
M 2912 3987 
Q 2496 3987 2166 3984 
Q 1837 3981 1561 3974 
Q 1286 3968 1049 3958 
Q 813 3949 589 3936 
L 589 4461 
Q 819 4448 1059 4438 
Q 1299 4429 1571 4425 
Q 1843 4422 2169 4419 
Q 2496 4416 2912 4416 
Q 2906 4672 2893 4861 
Q 2880 5050 2867 5152 
Q 2938 5139 3037 5129 
Q 3136 5120 3229 5110 
Q 3322 5101 3395 5097 
Q 3469 5094 3501 5094 
Q 3603 5101 3612 5078 
Q 3622 5056 3539 4986 
Q 3494 4947 3462 4835 
Q 3430 4723 3430 4653 
L 3430 4416 
Q 3859 4416 4201 4419 
Q 4544 4422 4822 4425 
Q 5101 4429 5328 4438 
Q 5555 4448 5766 4461 
L 5766 3936 
Q 5344 3962 4765 3971 
Q 4186 3981 3430 3987 
L 3430 3456 
Q 3789 3456 4057 3459 
Q 4326 3462 4547 3468 
Q 4768 3475 4960 3488 
Q 5152 3501 5363 3514 
L 5363 3014 
Q 5152 3027 4960 3036 
Q 4768 3046 4547 3049 
Q 4326 3053 4057 3056 
Q 3789 3059 3430 3059 
L 3430 2554 
Q 3968 2554 4320 2557 
Q 4672 2560 4934 2566 
Q 5197 2573 5433 2582 
Q 5670 2592 5978 2611 
L 5978 2106 
Q 5638 2118 5392 2128 
Q 5146 2138 4867 2141 
Q 4589 2144 4211 2147 
Q 3834 2150 3226 2150 
Q 3066 1926 2838 1683 
Q 2611 1440 2323 1203 
L 2323 -64 
Q 2445 -51 2601 -3 
Q 2758 45 2918 105 
Q 3078 166 3225 240 
Q 3373 314 3482 378 
Q 3482 237 3494 96 
Q 3507 -45 3526 -154 
Q 2918 -346 2528 -493 
Q 2138 -640 1869 -806 
Q 1818 -678 1754 -560 
Q 1690 -442 1581 -314 
Q 1728 -262 1779 -172 
Q 1830 -83 1830 115 
L 1830 832 
Q 1498 608 1174 435 
Q 851 262 627 173 
Q 544 378 464 499 
Q 384 621 262 723 
Q 557 768 873 893 
Q 1190 1018 1497 1203 
Q 1805 1389 2086 1629 
Q 2368 1869 2598 2150 
Q 2118 2150 1811 2147 
Q 1504 2144 1277 2141 
Q 1050 2138 848 2128 
Q 646 2118 371 2106 
L 371 2611 
Q 570 2598 730 2588 
Q 890 2579 1040 2572 
Q 1190 2566 1356 2563 
Q 1523 2560 1737 2557 
Q 1952 2554 2237 2554 
Q 2522 2554 2912 2554 
L 2912 3059 
Q 2566 3059 2297 3056 
Q 2029 3053 1805 3049 
Q 1581 3046 1382 3036 
Q 1184 3027 979 3014 
L 979 3514 
Q 1190 3501 1385 3488 
Q 1581 3475 1805 3468 
Q 2029 3462 2297 3459 
Q 2566 3456 2912 3456 
L 2912 3987 
z
" transform="scale(0.015625)"/>
      <path id="STHeitiSC-Medium-153" d="M 2886 4659 
Q 2758 4608 2691 4531 
Q 2624 4454 2547 4282 
Q 2426 4019 2227 3705 
Q 2029 3392 1792 3072 
Q 1555 2752 1289 2451 
Q 1024 2150 768 1907 
Q 678 2029 544 2144 
Q 410 2259 269 2349 
Q 768 2694 1136 3129 
Q 1504 3565 1747 3987 
Q 1914 4282 2026 4531 
Q 2138 4781 2227 5030 
Q 2304 4992 2393 4950 
Q 2483 4909 2576 4877 
Q 2669 4845 2749 4822 
Q 2829 4800 2880 4794 
Q 2957 4781 2963 4736 
Q 2970 4691 2886 4659 
z
M 6131 2720 
Q 5875 2490 5658 2086 
Q 4794 2688 4294 3347 
Q 4077 3635 3888 4080 
Q 3699 4525 3571 5011 
L 4109 5120 
Q 4237 4640 4403 4269 
Q 4570 3898 4768 3674 
Q 5107 3302 5430 3088 
Q 5754 2874 6131 2720 
z
M 2381 2074 
Q 2227 2074 2108 2070 
Q 1990 2067 1894 2064 
Q 1798 2061 1712 2051 
Q 1626 2042 1523 2029 
L 1523 2624 
Q 1677 2598 2013 2585 
Q 2349 2573 2854 2573 
Q 3155 2573 3481 2576 
Q 3808 2579 4096 2582 
Q 4384 2586 4614 2589 
Q 4845 2592 4954 2598 
L 4736 109 
Q 4717 -90 4659 -218 
Q 4602 -346 4470 -432 
Q 4339 -518 4121 -576 
Q 3904 -634 3565 -678 
Q 3533 -506 3462 -330 
Q 3392 -154 3270 6 
Q 3539 -19 3712 -12 
Q 3885 -6 3990 58 
Q 4096 122 4147 250 
Q 4198 378 4218 589 
L 4346 2074 
L 2912 2074 
Q 2880 1632 2768 1235 
Q 2656 838 2470 563 
Q 2317 339 2173 163 
Q 2029 -13 1875 -157 
Q 1722 -301 1549 -422 
Q 1376 -544 1165 -666 
Q 1056 -538 902 -426 
Q 749 -314 576 -243 
Q 1107 -26 1456 249 
Q 1805 525 1958 768 
Q 2144 1062 2246 1363 
Q 2349 1664 2381 2074 
z
" transform="scale(0.015625)"/>
      <path id="STHeitiSC-Medium-1e6" d="M 2074 2912 
Q 2067 2650 2054 2422 
Q 2042 2195 2022 1997 
Q 2534 1997 2905 1997 
Q 3277 1997 3545 1997 
Q 3814 1997 4000 2000 
Q 4186 2003 4323 2006 
Q 4461 2010 4576 2016 
Q 4691 2022 4813 2029 
Q 4774 1856 4774 1203 
L 4774 160 
Q 4774 -102 4780 -284 
Q 4787 -467 4806 -672 
L 4166 -672 
L 4166 1485 
L 1965 1485 
Q 1920 1184 1856 934 
Q 1792 685 1696 454 
Q 1600 224 1465 -6 
Q 1331 -237 1139 -499 
Q 1024 -410 880 -342 
Q 736 -275 550 -205 
Q 742 13 889 211 
Q 1037 410 1142 624 
Q 1248 838 1321 1088 
Q 1395 1338 1436 1661 
Q 1478 1984 1500 2400 
Q 1523 2816 1536 3366 
Q 1542 3680 1542 3913 
Q 1542 4147 1542 4329 
Q 1542 4512 1532 4669 
Q 1523 4826 1510 4992 
Q 1606 4973 1708 4953 
Q 1811 4934 1904 4921 
Q 1997 4909 2070 4902 
Q 2144 4896 2182 4902 
Q 2266 4915 2272 4889 
Q 2278 4864 2227 4800 
Q 2208 4768 2189 4691 
Q 2170 4614 2150 4454 
Q 2131 4294 2118 4041 
Q 2106 3789 2093 3405 
L 3789 3405 
L 3789 4301 
Q 3789 4582 3782 4761 
Q 3776 4941 3757 5075 
Q 3942 5043 4131 5024 
Q 4320 5005 4467 4998 
Q 4678 4986 4544 4915 
Q 4378 4826 4378 4659 
L 4378 3405 
L 5222 3405 
Q 5357 3405 5453 3405 
Q 5549 3405 5619 3411 
Q 5690 3418 5741 3424 
Q 5792 3430 5850 3443 
L 5850 2874 
Q 5741 2893 5613 2902 
Q 5485 2912 5216 2912 
L 2074 2912 
z
" transform="scale(0.015625)"/>
     </defs>
     <use xlink:href="#STHeitiSC-Medium-8b9"/>
     <use xlink:href="#STHeitiSC-Medium-2c8" transform="translate(100 0)"/>
     <use xlink:href="#STHeitiSC-Medium-80d" transform="translate(200 0)"/>
     <use xlink:href="#STHeitiSC-Medium-22a" transform="translate(300 0)"/>
     <use xlink:href="#STHeitiSC-Medium-153" transform="translate(400 0)"/>
     <use xlink:href="#STHeitiSC-Medium-1e6" transform="translate(500 0)"/>
    </g>
   </g>
   <g id="text_6">
    <!-- GPU 0 -->
    <g transform="translate(721.192649 189.386667) scale(0.08 -0.08)">
     <use xlink:href="#STHeitiSC-Medium-29"/>
     <use xlink:href="#STHeitiSC-Medium-32" transform="translate(87.203125 0)"/>
     <use xlink:href="#STHeitiSC-Medium-37" transform="translate(146.40625 0)"/>
     <use xlink:href="#STHeitiSC-Medium-3" transform="translate(211.90625 0)"/>
     <use xlink:href="#STHeitiSC-Medium-12" transform="translate(236.90625 0)"/>
    </g>
    <!-- 完整 logits -->
    <g transform="translate(714.065149 197.626667) scale(0.08 -0.08)">
     <defs>
      <path id="STHeitiSC-Medium-225" d="M 3219 2912 
Q 2720 2912 2320 2899 
Q 1920 2886 1670 2854 
L 1670 3411 
Q 1926 3379 2336 3366 
Q 2746 3354 3219 3354 
Q 3693 3354 4109 3366 
Q 4525 3379 4774 3411 
L 4774 2854 
Q 4525 2886 4109 2899 
Q 3693 2912 3219 2912 
z
M 2240 1824 
Q 1862 1818 1468 1805 
Q 1075 1792 672 1760 
L 672 2342 
Q 922 2323 1181 2313 
Q 1440 2304 1744 2294 
Q 2048 2285 2413 2281 
Q 2778 2278 3238 2278 
Q 3699 2278 4064 2281 
Q 4429 2285 4733 2294 
Q 5037 2304 5296 2313 
Q 5555 2323 5805 2342 
L 5805 1760 
Q 5357 1792 4921 1808 
Q 4486 1824 4045 1824 
L 4045 346 
Q 4045 256 4057 201 
Q 4070 147 4124 118 
Q 4179 90 4284 83 
Q 4390 77 4582 77 
Q 4774 77 4899 109 
Q 5024 141 5104 227 
Q 5184 314 5235 467 
Q 5286 621 5331 870 
Q 5440 755 5600 665 
Q 5760 576 5907 525 
Q 5818 218 5728 35 
Q 5638 -147 5497 -246 
Q 5357 -346 5136 -378 
Q 4915 -410 4563 -410 
Q 4262 -410 4064 -384 
Q 3866 -358 3741 -297 
Q 3616 -237 3565 -141 
Q 3514 -45 3514 102 
L 3514 1824 
L 2771 1824 
Q 2752 1242 2646 842 
Q 2541 442 2320 163 
Q 2099 -115 1744 -300 
Q 1389 -486 883 -640 
Q 819 -512 713 -352 
Q 608 -192 486 -58 
Q 954 19 1286 140 
Q 1619 262 1830 476 
Q 2042 691 2141 1017 
Q 2240 1344 2240 1824 
z
M 3091 4493 
Q 3046 4672 2985 4854 
Q 2925 5037 2854 5165 
L 3494 5280 
Q 3546 5094 3606 4896 
Q 3667 4698 3750 4493 
Q 4173 4493 4477 4496 
Q 4781 4499 5005 4505 
Q 5229 4512 5392 4515 
Q 5555 4518 5709 4531 
L 5709 3277 
L 5178 3277 
L 5178 4038 
L 1286 4038 
L 1286 3194 
L 755 3194 
L 755 4531 
Q 922 4518 1107 4512 
Q 1293 4506 1555 4502 
Q 1818 4499 2186 4496 
Q 2554 4493 3091 4493 
z
" transform="scale(0.015625)"/>
      <path id="STHeitiSC-Medium-452" d="M 2982 1875 
Q 2854 2022 2691 2160 
Q 2528 2298 2368 2394 
L 2675 2643 
Q 2822 2534 2982 2412 
Q 3142 2291 3296 2163 
L 2982 1875 
z
M 2227 3072 
L 2918 3072 
L 2918 3494 
L 2227 3494 
L 2227 3072 
z
M 1824 3494 
L 1120 3494 
L 1120 3072 
L 1824 3072 
L 1824 3494 
z
M 1824 2746 
Q 1581 2304 1318 2038 
Q 1056 1773 755 1587 
Q 653 1709 579 1763 
Q 506 1818 358 1875 
Q 704 2022 982 2246 
Q 1261 2470 1466 2771 
Q 1222 2771 1043 2771 
Q 864 2771 691 2758 
Q 730 2957 730 3251 
Q 730 3411 720 3561 
Q 710 3712 691 3821 
Q 806 3814 924 3808 
Q 1043 3802 1177 3798 
Q 1312 3795 1469 3795 
Q 1626 3795 1824 3795 
L 1824 4186 
Q 1382 4186 1081 4176 
Q 781 4166 538 4141 
L 538 4589 
Q 800 4557 1094 4547 
Q 1389 4538 1824 4538 
Q 1824 4800 1814 4915 
Q 1805 5030 1779 5120 
Q 2048 5082 2234 5101 
Q 2342 5114 2352 5088 
Q 2362 5062 2298 4992 
Q 2266 4960 2246 4838 
Q 2227 4717 2227 4538 
Q 2630 4538 2912 4547 
Q 3194 4557 3430 4576 
L 3430 4141 
Q 3194 4160 2912 4169 
Q 2630 4179 2227 4186 
L 2227 3795 
Q 2611 3795 2864 3801 
Q 3117 3808 3347 3821 
Q 3334 3712 3328 3565 
Q 3322 3418 3322 3251 
Q 3322 3104 3328 2973 
Q 3334 2842 3347 2746 
Q 3123 2758 2867 2764 
Q 2611 2771 2227 2771 
Q 2227 2483 2240 2268 
Q 2253 2054 2285 1875 
L 1766 1875 
Q 1798 2048 1811 2259 
Q 1824 2470 1824 2746 
z
M 4653 2445 
Q 4454 2259 4217 2118 
Q 3981 1978 3706 1856 
Q 3661 1958 3581 2054 
Q 3501 2150 3392 2221 
Q 3987 2432 4346 2733 
Q 4224 2874 4121 3037 
Q 4019 3200 3942 3386 
L 4307 3539 
Q 4429 3238 4614 3014 
Q 4922 3418 5005 3987 
L 4218 3987 
Q 4109 3750 3987 3552 
Q 3866 3354 3731 3162 
Q 3565 3290 3379 3334 
Q 3533 3558 3648 3763 
Q 3763 3968 3846 4179 
Q 3930 4390 3987 4620 
Q 4045 4851 4083 5126 
Q 4230 5075 4368 5040 
Q 4506 5005 4621 4992 
Q 4691 4979 4694 4953 
Q 4698 4928 4614 4858 
Q 4582 4832 4534 4739 
Q 4486 4646 4384 4384 
L 5210 4384 
Q 5478 4384 5651 4393 
Q 5824 4403 5933 4422 
L 5933 3962 
Q 5837 3974 5741 3977 
Q 5645 3981 5478 3987 
Q 5389 3590 5254 3289 
Q 5120 2989 4934 2746 
Q 5139 2618 5404 2534 
Q 5670 2451 6035 2394 
Q 5907 2291 5843 2169 
Q 5779 2048 5728 1875 
Q 5434 1978 5162 2118 
Q 4890 2259 4653 2445 
z
M 3418 13 
Q 3846 13 4198 16 
Q 4550 19 4851 25 
Q 5152 32 5411 41 
Q 5670 51 5907 64 
L 5907 -461 
Q 5658 -448 5382 -438 
Q 5107 -429 4784 -422 
Q 4461 -416 4073 -413 
Q 3686 -410 3219 -410 
Q 2746 -410 2362 -413 
Q 1978 -416 1654 -422 
Q 1331 -429 1056 -438 
Q 781 -448 531 -461 
L 531 64 
Q 774 51 1043 44 
Q 1312 38 1619 26 
L 1619 410 
Q 1619 582 1609 752 
Q 1600 922 1581 1024 
Q 1715 998 1872 992 
Q 2029 986 2106 992 
Q 2253 998 2150 896 
Q 2106 851 2090 755 
Q 2074 659 2074 550 
L 2074 13 
L 2957 13 
L 2957 1338 
Q 2650 1338 2390 1331 
Q 2131 1325 1907 1321 
Q 1683 1318 1491 1308 
Q 1299 1299 1120 1286 
L 1120 1754 
Q 1318 1741 1532 1731 
Q 1747 1722 2000 1718 
Q 2253 1715 2553 1712 
Q 2854 1709 3226 1709 
Q 3597 1709 3897 1712 
Q 4198 1715 4448 1721 
Q 4698 1728 4912 1734 
Q 5126 1741 5325 1754 
L 5325 1286 
Q 5139 1299 4940 1308 
Q 4742 1318 4512 1324 
Q 4282 1331 4013 1334 
Q 3744 1338 3418 1338 
L 3418 902 
Q 3808 902 4077 902 
Q 4346 902 4547 905 
Q 4749 909 4902 912 
Q 5056 915 5216 928 
L 5216 499 
Q 5069 506 4915 512 
Q 4762 518 4560 521 
Q 4358 525 4083 528 
Q 3808 531 3418 531 
L 3418 13 
z
" transform="scale(0.015625)"/>
      <path id="STHeitiSC-Medium-4b" d="M 640 5184 
Q 813 5184 931 5065 
Q 1050 4947 1050 4777 
Q 1050 4608 931 4489 
Q 813 4371 643 4371 
Q 474 4371 355 4492 
Q 237 4614 237 4777 
Q 237 4941 355 5062 
Q 474 5184 640 5184 
z
M 909 384 
L 378 384 
L 378 3872 
L 909 3872 
L 909 384 
z
" transform="scale(0.015625)"/>
      <path id="STHeitiSC-Medium-55" d="M 2259 3462 
L 1920 3110 
Q 1542 3462 1229 3462 
Q 1030 3462 896 3337 
Q 762 3213 762 3030 
Q 762 2848 912 2710 
Q 1062 2573 1446 2371 
Q 1830 2170 2038 1926 
Q 2246 1683 2246 1331 
Q 2246 883 1936 576 
Q 1626 269 1171 269 
Q 538 269 115 806 
L 448 1178 
Q 794 774 1152 774 
Q 1395 774 1568 934 
Q 1741 1094 1741 1308 
Q 1741 1523 1584 1667 
Q 1427 1811 1046 2003 
Q 666 2195 470 2428 
Q 275 2662 275 3043 
Q 275 3424 553 3693 
Q 832 3962 1289 3962 
Q 1747 3962 2259 3462 
z
" transform="scale(0.015625)"/>
     </defs>
     <use xlink:href="#STHeitiSC-Medium-225"/>
     <use xlink:href="#STHeitiSC-Medium-452" transform="translate(100 0)"/>
     <use xlink:href="#STHeitiSC-Medium-3" transform="translate(200 0)"/>
     <use xlink:href="#STHeitiSC-Medium-4e" transform="translate(225 0)"/>
     <use xlink:href="#STHeitiSC-Medium-51" transform="translate(245 0)"/>
     <use xlink:href="#STHeitiSC-Medium-49" transform="translate(310.5 0)"/>
     <use xlink:href="#STHeitiSC-Medium-4b" transform="translate(377.796875 0)"/>
     <use xlink:href="#STHeitiSC-Medium-56" transform="translate(397.796875 0)"/>
     <use xlink:href="#STHeitiSC-Medium-55" transform="translate(431.703125 0)"/>
    </g>
   </g>
   <g id="text_7">
    <!-- GPU 1 -->
    <g transform="translate(805.026312 189.386667) scale(0.08 -0.08)">
     <use xlink:href="#STHeitiSC-Medium-29"/>
     <use xlink:href="#STHeitiSC-Medium-32" transform="translate(87.203125 0)"/>
     <use xlink:href="#STHeitiSC-Medium-37" transform="translate(146.40625 0)"/>
     <use xlink:href="#STHeitiSC-Medium-3" transform="translate(211.90625 0)"/>
     <use xlink:href="#STHeitiSC-Medium-13" transform="translate(236.90625 0)"/>
    </g>
    <!-- 完整 logits -->
    <g transform="translate(797.898812 197.626667) scale(0.08 -0.08)">
     <use xlink:href="#STHeitiSC-Medium-225"/>
     <use xlink:href="#STHeitiSC-Medium-452" transform="translate(100 0)"/>
     <use xlink:href="#STHeitiSC-Medium-3" transform="translate(200 0)"/>
     <use xlink:href="#STHeitiSC-Medium-4e" transform="translate(225 0)"/>
     <use xlink:href="#STHeitiSC-Medium-51" transform="translate(245 0)"/>
     <use xlink:href="#STHeitiSC-Medium-49" transform="translate(310.5 0)"/>
     <use xlink:href="#STHeitiSC-Medium-4b" transform="translate(377.796875 0)"/>
     <use xlink:href="#STHeitiSC-Medium-56" transform="translate(397.796875 0)"/>
     <use xlink:href="#STHeitiSC-Medium-55" transform="translate(431.703125 0)"/>
    </g>
   </g>
   <g id="text_8">
    <!-- GPU 2 -->
    <g transform="translate(888.859975 189.386667) scale(0.08 -0.08)">
     <use xlink:href="#STHeitiSC-Medium-29"/>
     <use xlink:href="#STHeitiSC-Medium-32" transform="translate(87.203125 0)"/>
     <use xlink:href="#STHeitiSC-Medium-37" transform="translate(146.40625 0)"/>
     <use xlink:href="#STHeitiSC-Medium-3" transform="translate(211.90625 0)"/>
     <use xlink:href="#STHeitiSC-Medium-14" transform="translate(236.90625 0)"/>
    </g>
    <!-- 完整 logits -->
    <g transform="translate(881.732475 197.626667) scale(0.08 -0.08)">
     <use xlink:href="#STHeitiSC-Medium-225"/>
     <use xlink:href="#STHeitiSC-Medium-452" transform="translate(100 0)"/>
     <use xlink:href="#STHeitiSC-Medium-3" transform="translate(200 0)"/>
     <use xlink:href="#STHeitiSC-Medium-4e" transform="translate(225 0)"/>
     <use xlink:href="#STHeitiSC-Medium-51" transform="translate(245 0)"/>
     <use xlink:href="#STHeitiSC-Medium-49" transform="translate(310.5 0)"/>
     <use xlink:href="#STHeitiSC-Medium-4b" transform="translate(377.796875 0)"/>
     <use xlink:href="#STHeitiSC-Medium-56" transform="translate(397.796875 0)"/>
     <use xlink:href="#STHeitiSC-Medium-55" transform="translate(431.703125 0)"/>
    </g>
   </g>
   <g id="text_9">
    <!-- GPU 3 -->
    <g transform="translate(972.693639 189.386667) scale(0.08 -0.08)">
     <use xlink:href="#STHeitiSC-Medium-29"/>
     <use xlink:href="#STHeitiSC-Medium-32" transform="translate(87.203125 0)"/>
     <use xlink:href="#STHeitiSC-Medium-37" transform="translate(146.40625 0)"/>
     <use xlink:href="#STHeitiSC-Medium-3" transform="translate(211.90625 0)"/>
     <use xlink:href="#STHeitiSC-Medium-15" transform="translate(236.90625 0)"/>
    </g>
    <!-- 完整 logits -->
    <g transform="translate(965.566139 197.626667) scale(0.08 -0.08)">
     <use xlink:href="#STHeitiSC-Medium-225"/>
     <use xlink:href="#STHeitiSC-Medium-452" transform="translate(100 0)"/>
     <use xlink:href="#STHeitiSC-Medium-3" transform="translate(200 0)"/>
     <use xlink:href="#STHeitiSC-Medium-4e" transform="translate(225 0)"/>
     <use xlink:href="#STHeitiSC-Medium-51" transform="translate(245 0)"/>
     <use xlink:href="#STHeitiSC-Medium-49" transform="translate(310.5 0)"/>
     <use xlink:href="#STHeitiSC-Medium-4b" transform="translate(377.796875 0)"/>
     <use xlink:href="#STHeitiSC-Medium-56" transform="translate(397.796875 0)"/>
     <use xlink:href="#STHeitiSC-Medium-55" transform="translate(431.703125 0)"/>
    </g>
   </g>
   <g id="patch_11">
    <path d="M 145.402827 190.955701 
Q 346.437377 224.380419 548.446852 217.78092 
" style="fill: none; stroke: #1565c0; stroke-width: 1.5; stroke-linecap: round"/>
    <path d="M 544.383682 215.912594 
L 548.446852 217.78092 
L 544.514289 219.910461 
" style="fill: none; stroke: #1565c0; stroke-width: 1.5; stroke-linecap: round"/>
   </g>
   <g id="patch_12">
    <path d="M 265.912669 190.935239 
Q 407.227889 212.94833 548.445158 207.002704 
" style="fill: none; stroke: #1565c0; stroke-width: 1.5; stroke-linecap: round"/>
    <path d="M 544.364568 205.172736 
L 548.445158 207.002704 
L 544.53283 209.169196 
" style="fill: none; stroke: #1565c0; stroke-width: 1.5; stroke-linecap: round"/>
   </g>
   <g id="patch_13">
    <path d="M 386.445696 190.758996 
Q 468.548289 196.110213 548.472565 185.697416 
" style="fill: none; stroke: #1565c0; stroke-width: 1.5; stroke-linecap: round"/>
    <path d="M 544.247704 184.230942 
L 548.472565 185.697416 
L 544.76447 188.197421 
" style="fill: none; stroke: #1565c0; stroke-width: 1.5; stroke-linecap: round"/>
   </g>
   <g id="patch_14">
    <path d="M 506.90985 190.159208 
Q 529.291161 184.693059 548.77005 175.923055 
" style="fill: none; stroke: #1565c0; stroke-width: 1.5; stroke-linecap: round"/>
    <path d="M 544.3016 175.74153 
L 548.77005 175.923055 
L 545.94376 179.3889 
" style="fill: none; stroke: #1565c0; stroke-width: 1.5; stroke-linecap: round"/>
   </g>
   <g id="patch_15">
    <path d="M 653.660124 190.817162 
Q 675.247336 192.793794 695.164481 190.970448 
" style="fill: none; stroke: #2e7d32; stroke-width: 1.5; stroke-linecap: round"/>
    <path d="M 690.998807 189.343438 
L 695.164481 190.970448 
L 691.363468 193.326781 
" style="fill: none; stroke: #2e7d32; stroke-width: 1.5; stroke-linecap: round"/>
   </g>
   <g id="patch_16">
    <path d="M 653.658045 190.822329 
Q 717.165656 196.980443 779.004045 190.984316 
" style="fill: none; stroke: #2e7d32; stroke-width: 1.5; stroke-linecap: round"/>
    <path d="M 774.829694 189.3797 
L 779.004045 190.984316 
L 775.215741 193.361027 
" style="fill: none; stroke: #2e7d32; stroke-width: 1.5; stroke-linecap: round"/>
   </g>
   <g id="patch_17">
    <path d="M 653.661003 190.823795 
Q 759.08264 201.170674 862.835245 190.987709 
" style="fill: none; stroke: #2e7d32; stroke-width: 1.5; stroke-linecap: round"/>
    <path d="M 858.659018 189.387982 
L 862.835245 190.987709 
L 859.049727 193.368854 
" style="fill: none; stroke: #2e7d32; stroke-width: 1.5; stroke-linecap: round"/>
   </g>
   <g id="patch_18">
    <path d="M 653.662762 190.824486 
Q 801.002113 205.361927 946.672517 190.988743 
" style="fill: none; stroke: #2e7d32; stroke-width: 1.5; stroke-linecap: round"/>
    <path d="M 942.495463 189.391178 
L 946.672517 190.988743 
L 942.888232 193.371847 
" style="fill: none; stroke: #2e7d32; stroke-width: 1.5; stroke-linecap: round"/>
   </g>
   <g id="text_10">
    <!-- 输出 logits all_gather：分片 → 完整 Replicate -->
    <g transform="translate(387.985781 19.24) scale(0.14 -0.14)">
     <defs>
      <path id="STHeitiSC-Medium-8a9" d="M 5747 2758 
Q 5709 2726 5699 2672 
Q 5690 2618 5690 2522 
L 5690 51 
Q 5690 -102 5674 -201 
Q 5658 -301 5584 -371 
Q 5510 -442 5363 -493 
Q 5216 -544 4960 -602 
Q 4941 -493 4880 -345 
Q 4819 -198 4736 -115 
Q 4915 -141 5020 -141 
Q 5126 -141 5180 -105 
Q 5235 -70 5248 6 
Q 5261 83 5261 218 
L 5261 1894 
Q 5261 2259 5241 2528 
Q 5222 2797 5197 2925 
Q 5312 2899 5462 2886 
Q 5613 2874 5702 2880 
Q 5901 2893 5747 2758 
z
M 4941 2541 
Q 4909 2522 4899 2470 
Q 4890 2419 4890 2349 
L 4890 1190 
Q 4890 832 4928 403 
L 4429 403 
Q 4448 627 4457 816 
Q 4467 1005 4467 1190 
L 4467 2003 
Q 4467 2234 4457 2397 
Q 4448 2560 4422 2694 
Q 4570 2662 4691 2656 
Q 4813 2650 4909 2662 
Q 4992 2675 5001 2630 
Q 5011 2586 4941 2541 
z
M 1350 2342 
Q 1350 2573 1350 2717 
Q 1350 2861 1347 2953 
Q 1344 3046 1337 3100 
Q 1331 3155 1325 3200 
Q 1421 3174 1561 3158 
Q 1702 3142 1811 3155 
Q 1875 3162 1878 3117 
Q 1882 3072 1830 3046 
Q 1773 3008 1773 2867 
L 1773 2387 
Q 2054 2426 2202 2470 
L 2202 1990 
Q 2022 2016 1773 2010 
L 1773 1133 
Q 1920 1184 2057 1232 
Q 2195 1280 2278 1318 
Q 2272 1274 2265 1206 
Q 2259 1139 2259 1068 
Q 2259 998 2259 931 
Q 2259 864 2266 813 
Q 2163 813 2048 797 
Q 1933 781 1773 736 
Q 1773 384 1785 48 
Q 1798 -288 1818 -602 
L 1293 -602 
Q 1318 -307 1331 -12 
Q 1344 282 1350 608 
Q 1043 518 838 448 
Q 634 378 518 326 
Q 486 461 432 605 
Q 378 749 320 845 
Q 518 851 761 892 
Q 1005 934 1350 1018 
L 1350 1984 
Q 1088 1965 864 1923 
Q 640 1882 506 1824 
Q 474 1926 413 2057 
Q 352 2189 275 2298 
Q 365 2336 432 2403 
Q 499 2470 569 2627 
Q 640 2784 729 3075 
Q 819 3366 954 3859 
Q 774 3853 665 3843 
Q 557 3834 467 3821 
L 467 4307 
Q 563 4288 691 4278 
Q 819 4269 1043 4262 
Q 1094 4518 1116 4752 
Q 1139 4986 1133 5152 
Q 1210 5126 1302 5104 
Q 1395 5082 1484 5062 
Q 1574 5043 1651 5030 
Q 1728 5018 1773 5018 
Q 1837 5018 1843 4992 
Q 1850 4966 1786 4928 
Q 1734 4896 1670 4749 
Q 1606 4602 1498 4262 
Q 1805 4262 1974 4275 
Q 2144 4288 2259 4307 
L 2259 3821 
Q 2138 3840 1939 3853 
Q 1741 3866 1370 3866 
L 877 2298 
L 1350 2342 
z
M 2963 653 
L 2963 -454 
L 2483 -454 
Q 2515 -198 2528 51 
Q 2541 301 2541 493 
L 2541 2374 
Q 2541 2496 2528 2656 
Q 2515 2816 2496 2912 
Q 2829 2874 3296 2874 
Q 3398 2874 3513 2877 
Q 3629 2880 3737 2886 
Q 3846 2893 3945 2899 
Q 4045 2906 4115 2912 
Q 4102 2829 4092 2685 
Q 4083 2541 4083 2374 
L 4083 141 
Q 4083 -38 4070 -153 
Q 4058 -269 3994 -345 
Q 3930 -422 3805 -467 
Q 3680 -512 3462 -550 
Q 3450 -435 3398 -310 
Q 3347 -186 3277 -77 
Q 3405 -96 3481 -93 
Q 3558 -90 3600 -51 
Q 3642 -13 3654 70 
Q 3667 154 3667 301 
L 3667 653 
L 2963 653 
z
M 3667 1952 
L 3667 2490 
L 2963 2490 
L 2963 1952 
L 3667 1952 
z
M 2963 1574 
L 2963 1024 
L 3667 1024 
L 3667 1574 
L 2963 1574 
z
M 4691 3245 
Q 4550 3270 4387 3283 
Q 4224 3296 3955 3296 
Q 3686 3296 3539 3283 
Q 3392 3270 3251 3245 
L 3251 3738 
Q 3398 3712 3542 3699 
Q 3686 3686 3955 3686 
Q 4186 3686 4336 3696 
Q 4486 3706 4614 3725 
Q 4192 4090 3910 4582 
Q 3712 4320 3529 4099 
Q 3347 3878 3161 3676 
Q 2976 3475 2774 3283 
Q 2573 3091 2342 2886 
Q 2272 2970 2150 3066 
Q 2029 3162 1939 3194 
Q 2400 3488 2851 3993 
Q 3302 4499 3667 5203 
Q 3795 5152 3968 5104 
Q 4141 5056 4250 5050 
Q 4307 5043 4316 5004 
Q 4326 4966 4282 4941 
L 4166 4864 
Q 4365 4557 4582 4339 
Q 4800 4122 5043 3971 
Q 5286 3821 5552 3728 
Q 5818 3635 6118 3578 
Q 6003 3488 5900 3331 
Q 5798 3174 5754 3059 
Q 5184 3258 4691 3661 
L 4691 3245 
z
" transform="scale(0.015625)"/>
      <path id="STHeitiSC-Medium-15c" d="M 3430 2438 
L 3430 262 
L 4909 307 
L 4909 1267 
Q 4909 1466 4899 1610 
Q 4890 1754 4870 1888 
Q 5056 1856 5193 1843 
Q 5331 1830 5491 1843 
Q 5613 1850 5542 1779 
Q 5498 1734 5478 1580 
Q 5459 1427 5459 1261 
L 5459 38 
Q 5459 -147 5465 -313 
Q 5472 -480 5485 -672 
L 4870 -672 
Q 4896 -435 4909 -166 
L 2970 -224 
Q 2394 -243 2035 -256 
Q 1677 -269 1446 -281 
Q 1216 -294 1072 -307 
Q 928 -320 781 -333 
Q 794 -224 803 -83 
Q 813 58 813 192 
L 813 1459 
Q 813 1613 806 1744 
Q 800 1875 787 1952 
Q 947 1920 1104 1901 
Q 1261 1882 1408 1894 
Q 1517 1901 1453 1805 
Q 1414 1741 1392 1587 
Q 1370 1434 1370 1325 
L 1370 198 
L 2874 243 
L 2874 2438 
L 2099 2438 
Q 1984 2438 1837 2432 
Q 1690 2426 1546 2416 
Q 1402 2406 1264 2393 
Q 1126 2381 1030 2368 
Q 1056 2515 1069 2656 
Q 1082 2797 1082 2938 
L 1082 3942 
Q 1082 4096 1072 4240 
Q 1062 4384 1030 4512 
Q 1235 4480 1427 4473 
Q 1619 4467 1702 4480 
Q 1792 4493 1798 4477 
Q 1805 4461 1741 4390 
Q 1722 4371 1702 4313 
Q 1683 4256 1664 4189 
Q 1645 4122 1635 4054 
Q 1626 3987 1626 3949 
L 1626 2899 
L 2874 2899 
L 2874 4262 
Q 2874 4358 2870 4476 
Q 2867 4595 2864 4710 
Q 2861 4826 2851 4931 
Q 2842 5037 2829 5114 
Q 3258 5024 3514 5043 
Q 3603 5050 3612 5030 
Q 3622 5011 3565 4954 
Q 3539 4928 3513 4854 
Q 3488 4781 3469 4681 
Q 3450 4582 3440 4473 
Q 3430 4365 3430 4269 
L 3430 2899 
L 4794 2899 
L 4794 3942 
Q 4794 4141 4781 4285 
Q 4768 4429 4736 4563 
Q 5114 4493 5357 4525 
Q 5440 4538 5453 4518 
Q 5466 4499 5434 4442 
Q 5382 4352 5360 4227 
Q 5338 4102 5338 3936 
L 5338 2778 
Q 5338 2592 5344 2445 
Q 5350 2298 5363 2138 
L 4749 2138 
Q 4762 2208 4774 2288 
Q 4787 2368 4794 2438 
L 3430 2438 
z
" transform="scale(0.015625)"/>
      <path id="STHeitiSC-Medium-beed" d="M 1926 3008 
L 1261 3008 
L 1261 3686 
L 1926 3686 
L 1926 3008 
z
M 1926 384 
L 1261 384 
L 1261 1062 
L 1926 1062 
L 1926 384 
z
" transform="scale(0.015625)"/>
      <path id="STHeitiSC-Medium-c0c6" d="M 6086 2285 
L 4115 1114 
L 4115 2131 
L 262 2131 
L 262 2477 
L 4115 2477 
L 4115 3526 
L 6086 2285 
z
" transform="scale(0.015625)"/>
      <path id="STHeitiSC-Medium-34" d="M 3622 384 
L 2931 384 
L 1280 2522 
L 1088 2522 
L 1088 384 
L 538 384 
L 538 5069 
L 1498 5069 
Q 2266 5069 2554 5001 
Q 2842 4934 3053 4774 
Q 3264 4614 3385 4361 
Q 3507 4109 3507 3802 
Q 3507 3219 3110 2870 
Q 2714 2522 1965 2522 
L 3622 384 
z
M 1088 3059 
L 1837 3059 
Q 2400 3053 2669 3229 
Q 2938 3405 2938 3792 
Q 2938 4179 2675 4355 
Q 2413 4531 1856 4531 
L 1088 4531 
L 1088 3059 
z
" transform="scale(0.015625)"/>
      <path id="STHeitiSC-Medium-52" d="M 973 3341 
Q 1491 3962 2252 3962 
Q 3014 3962 3545 3421 
Q 4077 2880 4077 2118 
Q 4077 1357 3552 813 
Q 3027 269 2284 269 
Q 1542 269 973 896 
L 973 -851 
L 448 -851 
L 448 3872 
L 973 3872 
L 973 3341 
z
M 2253 762 
Q 2778 762 3165 1155 
Q 3552 1549 3552 2105 
Q 3552 2662 3171 3056 
Q 2790 3450 2240 3450 
Q 1690 3450 1315 3062 
Q 941 2675 941 2105 
Q 941 1536 1325 1149 
Q 1709 762 2253 762 
z
" transform="scale(0.015625)"/>
     </defs>
     <use xlink:href="#STHeitiSC-Medium-8a9"/>
     <use xlink:href="#STHeitiSC-Medium-15c" transform="translate(100 0)"/>
     <use xlink:href="#STHeitiSC-Medium-3" transform="translate(200 0)"/>
     <use xlink:href="#STHeitiSC-Medium-4e" transform="translate(225 0)"/>
     <use xlink:href="#STHeitiSC-Medium-51" transform="translate(245 0)"/>
     <use xlink:href="#STHeitiSC-Medium-49" transform="translate(310.5 0)"/>
     <use xlink:href="#STHeitiSC-Medium-4b" transform="translate(377.796875 0)"/>
     <use xlink:href="#STHeitiSC-Medium-56" transform="translate(397.796875 0)"/>
     <use xlink:href="#STHeitiSC-Medium-55" transform="translate(431.703125 0)"/>
     <use xlink:href="#STHeitiSC-Medium-3" transform="translate(470.5 0)"/>
     <use xlink:href="#STHeitiSC-Medium-43" transform="translate(495.5 0)"/>
     <use xlink:href="#STHeitiSC-Medium-4e" transform="translate(563.796875 0)"/>
     <use xlink:href="#STHeitiSC-Medium-4e" transform="translate(583.796875 0)"/>
     <use xlink:href="#STHeitiSC-Medium-41" transform="translate(603.796875 0)"/>
     <use xlink:href="#STHeitiSC-Medium-49" transform="translate(653.796875 0)"/>
     <use xlink:href="#STHeitiSC-Medium-43" transform="translate(721.09375 0)"/>
     <use xlink:href="#STHeitiSC-Medium-56" transform="translate(789.390625 0)"/>
     <use xlink:href="#STHeitiSC-Medium-4a" transform="translate(823.296875 0)"/>
     <use xlink:href="#STHeitiSC-Medium-47" transform="translate(884.296875 0)"/>
     <use xlink:href="#STHeitiSC-Medium-54" transform="translate(949.296875 0)"/>
     <use xlink:href="#STHeitiSC-Medium-beed" transform="translate(979.390625 0)"/>
     <use xlink:href="#STHeitiSC-Medium-153" transform="translate(1079.390625 0)"/>
     <use xlink:href="#STHeitiSC-Medium-1e6" transform="translate(1179.390625 0)"/>
     <use xlink:href="#STHeitiSC-Medium-3" transform="translate(1279.390625 0)"/>
     <use xlink:href="#STHeitiSC-Medium-c0c6" transform="translate(1304.390625 0)"/>
     <use xlink:href="#STHeitiSC-Medium-3" transform="translate(1404.390625 0)"/>
     <use xlink:href="#STHeitiSC-Medium-225" transform="translate(1429.390625 0)"/>
     <use xlink:href="#STHeitiSC-Medium-452" transform="translate(1529.390625 0)"/>
     <use xlink:href="#STHeitiSC-Medium-3" transform="translate(1629.390625 0)"/>
     <use xlink:href="#STHeitiSC-Medium-34" transform="translate(1654.390625 0)"/>
     <use xlink:href="#STHeitiSC-Medium-47" transform="translate(1715.09375 0)"/>
     <use xlink:href="#STHeitiSC-Medium-52" transform="translate(1780.09375 0)"/>
     <use xlink:href="#STHeitiSC-Medium-4e" transform="translate(1848.296875 0)"/>
     <use xlink:href="#STHeitiSC-Medium-4b" transform="translate(1868.296875 0)"/>
     <use xlink:href="#STHeitiSC-Medium-45" transform="translate(1888.296875 0)"/>
     <use xlink:href="#STHeitiSC-Medium-43" transform="translate(1953 0)"/>
     <use xlink:href="#STHeitiSC-Medium-56" transform="translate(2021.296875 0)"/>
     <use xlink:href="#STHeitiSC-Medium-47" transform="translate(2055.203125 0)"/>
    </g>
   </g>
  </g>
 </g>
 <defs>
  <clipPath id="p1331b78d6a">
   <rect x="7.2" y="39.24" width="1058.4" height="291.96"/>
  </clipPath>
 </defs>
</svg>
