<?xml version="1.0" encoding="utf-8" standalone="no"?>
<!DOCTYPE svg PUBLIC "-//W3C//DTD SVG 1.1//EN"
  "http://www.w3.org/Graphics/SVG/1.1/DTD/svg11.dtd">
<svg xmlns:xlink="http://www.w3.org/1999/xlink" width="516.6pt" height="651.96pt" viewBox="0 0 516.6 651.96" xmlns="http://www.w3.org/2000/svg" version="1.1">
 <metadata>
  <rdf:RDF xmlns:dc="http://purl.org/dc/elements/1.1/" xmlns:cc="http://creativecommons.org/ns#" xmlns:rdf="http://www.w3.org/1999/02/22-rdf-syntax-ns#">
   <cc:Work>
    <dc:type rdf:resource="http://purl.org/dc/dcmitype/StillImage"/>
    <dc:date>2026-07-14T10:42:14.240864</dc:date>
    <dc:format>image/svg+xml</dc:format>
    <dc:creator>
     <cc:Agent>
      <dc:title>Matplotlib v3.11.0, https://matplotlib.org/</dc:title>
     </cc:Agent>
    </dc:creator>
   </cc:Work>
  </rdf:RDF>
 </metadata>
 <defs>
  <style type="text/css">*{stroke-linejoin: round; stroke-linecap: butt}</style>
 </defs>
 <g id="figure_1">
  <g id="patch_1">
   <path d="M 0 651.96 
L 516.6 651.96 
L 516.6 0 
L 0 0 
z
" style="fill: #ffffff"/>
  </g>
  <g id="axes_1">
   <g id="patch_2">
    <path d="M 112.104 91.4688 
L 404.496 91.4688 
Q 410.076 91.4688 410.076 85.9248 
L 410.076 58.7592 
Q 410.076 53.2152 404.496 53.2152 
L 112.104 53.2152 
Q 106.524 53.2152 106.524 58.7592 
L 106.524 85.9248 
Q 106.524 91.4688 112.104 91.4688 
z
" clip-path="url(#pf5127dcc17)" style="fill: #e3f2fd; stroke: #1565c0; stroke-width: 2; stroke-linejoin: miter"/>
   </g>
   <g id="patch_3">
    <path d="M 112.104 135.8208 
L 404.496 135.8208 
Q 410.076 135.8208 410.076 130.2768 
L 410.076 103.1112 
Q 410.076 97.5672 404.496 97.5672 
L 112.104 97.5672 
Q 106.524 97.5672 106.524 103.1112 
L 106.524 130.2768 
Q 106.524 135.8208 112.104 135.8208 
z
" clip-path="url(#pf5127dcc17)" style="fill: #fff9c4; stroke: #f9a825; stroke-width: 2; stroke-linejoin: miter"/>
   </g>
   <g id="patch_4">
    <path d="M 112.104 180.1728 
L 404.496 180.1728 
Q 410.076 180.1728 410.076 174.6288 
L 410.076 147.4632 
Q 410.076 141.9192 404.496 141.9192 
L 112.104 141.9192 
Q 106.524 141.9192 106.524 147.4632 
L 106.524 174.6288 
Q 106.524 180.1728 112.104 180.1728 
z
" clip-path="url(#pf5127dcc17)" style="fill: #e0f7fa; stroke: #00838f; stroke-width: 2; stroke-linejoin: miter"/>
   </g>
   <g id="patch_5">
    <path d="M 112.104 224.5248 
L 404.496 224.5248 
Q 410.076 224.5248 410.076 218.9808 
L 410.076 191.8152 
Q 410.076 186.2712 404.496 186.2712 
L 112.104 186.2712 
Q 106.524 186.2712 106.524 191.8152 
L 106.524 218.9808 
Q 106.524 224.5248 112.104 224.5248 
z
" clip-path="url(#pf5127dcc17)" style="fill: #f3e5f5; stroke: #6a1b9a; stroke-width: 2; stroke-linejoin: miter"/>
   </g>
   <g id="patch_6">
    <path d="M 112.104 279.9648 
L 404.496 279.9648 
Q 410.076 279.9648 410.076 274.4208 
L 410.076 233.3952 
Q 410.076 227.8512 404.496 227.8512 
L 112.104 227.8512 
Q 106.524 227.8512 106.524 233.3952 
L 106.524 274.4208 
Q 106.524 279.9648 112.104 279.9648 
z
" clip-path="url(#pf5127dcc17)" style="fill: #fff3e0; stroke: #ef6c00; stroke-width: 2; stroke-linejoin: miter"/>
   </g>
   <g id="patch_7">
    <path d="M 112.104 340.9488 
L 404.496 340.9488 
Q 410.076 340.9488 410.076 335.4048 
L 410.076 308.2392 
Q 410.076 302.6952 404.496 302.6952 
L 112.104 302.6952 
Q 106.524 302.6952 106.524 308.2392 
L 106.524 335.4048 
Q 106.524 340.9488 112.104 340.9488 
z
" clip-path="url(#pf5127dcc17)" style="fill: #fafafa; stroke: #616161; stroke-width: 2; stroke-linejoin: miter"/>
   </g>
   <g id="patch_8">
    <path d="M 112.104 385.3008 
L 404.496 385.3008 
Q 410.076 385.3008 410.076 379.7568 
L 410.076 352.5912 
Q 410.076 347.0472 404.496 347.0472 
L 112.104 347.0472 
Q 106.524 347.0472 106.524 352.5912 
L 106.524 379.7568 
Q 106.524 385.3008 112.104 385.3008 
z
" clip-path="url(#pf5127dcc17)" style="fill: #e0f7fa; stroke: #00838f; stroke-width: 2; stroke-linejoin: miter"/>
   </g>
   <g id="patch_9">
    <path d="M 112.104 429.6528 
L 404.496 429.6528 
Q 410.076 429.6528 410.076 424.1088 
L 410.076 396.9432 
Q 410.076 391.3992 404.496 391.3992 
L 112.104 391.3992 
Q 106.524 391.3992 106.524 396.9432 
L 106.524 424.1088 
Q 106.524 429.6528 112.104 429.6528 
z
" clip-path="url(#pf5127dcc17)" style="fill: #f3e5f5; stroke: #6a1b9a; stroke-width: 2; stroke-linejoin: miter"/>
   </g>
   <g id="patch_10">
    <path d="M 112.104 485.0928 
L 404.496 485.0928 
Q 410.076 485.0928 410.076 479.5488 
L 410.076 438.5232 
Q 410.076 432.9792 404.496 432.9792 
L 112.104 432.9792 
Q 106.524 432.9792 106.524 438.5232 
L 106.524 479.5488 
Q 106.524 485.0928 112.104 485.0928 
z
" clip-path="url(#pf5127dcc17)" style="fill: #fff3e0; stroke: #ef6c00; stroke-width: 2; stroke-linejoin: miter"/>
   </g>
   <g id="patch_11">
    <path d="M 112.104 546.0768 
L 404.496 546.0768 
Q 410.076 546.0768 410.076 540.5328 
L 410.076 513.3672 
Q 410.076 507.8232 404.496 507.8232 
L 112.104 507.8232 
Q 106.524 507.8232 106.524 513.3672 
L 106.524 540.5328 
Q 106.524 546.0768 112.104 546.0768 
z
" clip-path="url(#pf5127dcc17)" style="fill: #fafafa; stroke: #616161; stroke-width: 2; stroke-linejoin: miter"/>
   </g>
   <g id="patch_12">
    <path d="M 112.104 593.2008 
L 404.496 593.2008 
Q 410.076 593.2008 410.076 587.6568 
L 410.076 560.4912 
Q 410.076 554.9472 404.496 554.9472 
L 112.104 554.9472 
Q 106.524 554.9472 106.524 560.4912 
L 106.524 587.6568 
Q 106.524 593.2008 112.104 593.2008 
z
" clip-path="url(#pf5127dcc17)" style="fill: #fff9c4; stroke: #f9a825; stroke-width: 2; stroke-linejoin: miter"/>
   </g>
   <g id="text_1">
    <text style="font-weight: 700; font-size: 16px; font-family: 'Heiti SC', 'Arial Unicode MS', 'DejaVu Sans', 'Bitstream Vera Sans', 'Computer Modern Sans Serif', 'Lucida Grande', 'Verdana', 'Geneva', 'Lucid', 'Arial', 'Helvetica', 'Avant Garde', sans-serif; text-anchor: middle; fill: #212121" x="258.3" y="32.148" transform="rotate(-0 258.3 32.148)">TransformerBlock ParallelStyle 选择</text>
   </g>
   <g id="text_2">
    <text style="font-size: 9px; font-family: 'Heiti SC', 'Arial Unicode MS', 'DejaVu Sans', 'Bitstream Vera Sans', 'Computer Modern Sans Serif', 'Lucida Grande', 'Verdana', 'Geneva', 'Lucid', 'Arial', 'Helvetica', 'Avant Garde', sans-serif; text-anchor: middle; fill: #616161" x="258.3" y="51.552" transform="rotate(-0 258.3 51.552)">灰色=SequenceParallel | 橙色=ColwiseParallel | 绿色=RowwiseParallel | 紫色=PrepareModuleInput</text>
   </g>
   <g id="text_3">
    <text style="font-weight: 700; font-size: 10px; font-family: 'Heiti SC', 'Arial Unicode MS', 'DejaVu Sans', 'Bitstream Vera Sans', 'Computer Modern Sans Serif', 'Lucida Grande', 'Verdana', 'Geneva', 'Lucid', 'Arial', 'Helvetica', 'Avant Garde', sans-serif; fill: #212121" transform="translate(244.65 70.792)">输入 x</text>
    <text style="font-weight: 700; font-size: 10px; font-family: 'Heiti SC', 'Arial Unicode MS', 'DejaVu Sans', 'Bitstream Vera Sans', 'Computer Modern Sans Serif', 'Lucida Grande', 'Verdana', 'Geneva', 'Lucid', 'Arial', 'Helvetica', 'Avant Garde', sans-serif; fill: #212121" transform="translate(235.009375 81.092)">Replicate</text>
   </g>
   <g id="text_4">
    <text style="font-weight: 700; font-size: 10px; font-family: 'Heiti SC', 'Arial Unicode MS', 'DejaVu Sans', 'Bitstream Vera Sans', 'Computer Modern Sans Serif', 'Lucida Grande', 'Verdana', 'Geneva', 'Lucid', 'Arial', 'Helvetica', 'Avant Garde', sans-serif; fill: #212121" transform="translate(217.514844 115.144)">tok_embeddings</text>
    <text style="font-weight: 700; font-size: 10px; font-family: 'Heiti SC', 'Arial Unicode MS', 'DejaVu Sans', 'Bitstream Vera Sans', 'Computer Modern Sans Serif', 'Lucida Grande', 'Verdana', 'Geneva', 'Lucid', 'Arial', 'Helvetica', 'Avant Garde', sans-serif; fill: #212121" transform="translate(182.446094 125.444)">RowwiseParallel  词表维度行切分</text>
   </g>
   <g id="text_5">
    <text style="font-weight: 700; font-size: 10px; font-family: 'Heiti SC', 'Arial Unicode MS', 'DejaVu Sans', 'Bitstream Vera Sans', 'Computer Modern Sans Serif', 'Lucida Grande', 'Verdana', 'Geneva', 'Lucid', 'Arial', 'Helvetica', 'Avant Garde', sans-serif; fill: #212121" transform="translate(221.154688 159.281156)">attention_norm</text>
    <text style="font-weight: 700; font-size: 10px; font-family: 'Heiti SC', 'Arial Unicode MS', 'DejaVu Sans', 'Bitstream Vera Sans', 'Computer Modern Sans Serif', 'Lucida Grande', 'Verdana', 'Geneva', 'Lucid', 'Arial', 'Helvetica', 'Avant Garde', sans-serif; fill: #212121" transform="translate(192.935156 170.010844)">SequenceParallel  Shard(1)</text>
   </g>
   <g id="text_6">
    <text style="font-weight: 700; font-size: 10px; font-family: 'Heiti SC', 'Arial Unicode MS', 'DejaVu Sans', 'Bitstream Vera Sans', 'Computer Modern Sans Serif', 'Lucida Grande', 'Verdana', 'Geneva', 'Lucid', 'Arial', 'Helvetica', 'Avant Garde', sans-serif; fill: #212121" transform="translate(208.095313 203.633156)">PrepareModuleInput</text>
    <text style="font-weight: 700; font-size: 10px; font-family: 'Heiti SC', 'Arial Unicode MS', 'DejaVu Sans', 'Bitstream Vera Sans', 'Computer Modern Sans Serif', 'Lucida Grande', 'Verdana', 'Geneva', 'Lucid', 'Arial', 'Helvetica', 'Avant Garde', sans-serif; fill: #212121" transform="translate(207.164062 214.362844)">Shard(1) → Replicate</text>
   </g>
   <g id="text_7">
    <text style="font-weight: 700; font-size: 10px; font-family: 'Heiti SC', 'Arial Unicode MS', 'DejaVu Sans', 'Bitstream Vera Sans', 'Computer Modern Sans Serif', 'Lucida Grande', 'Verdana', 'Geneva', 'Lucid', 'Arial', 'Helvetica', 'Avant Garde', sans-serif; fill: #212121" transform="translate(235.889063 252.358)">Attention</text>
    <text style="font-weight: 700; font-size: 10px; font-family: 'Heiti SC', 'Arial Unicode MS', 'DejaVu Sans', 'Bitstream Vera Sans', 'Computer Modern Sans Serif', 'Lucida Grande', 'Verdana', 'Geneva', 'Lucid', 'Arial', 'Helvetica', 'Avant Garde', sans-serif; fill: #212121" transform="translate(178.1875 262.658)">ColwiseParallel + RowwiseParallel</text>
   </g>
   <g id="text_8">
    <text style="font-weight: 700; font-size: 10px; font-family: 'Heiti SC', 'Arial Unicode MS', 'DejaVu Sans', 'Bitstream Vera Sans', 'Computer Modern Sans Serif', 'Lucida Grande', 'Verdana', 'Geneva', 'Lucid', 'Arial', 'Helvetica', 'Avant Garde', sans-serif; text-anchor: middle; fill: #212121" x="258.3" y="325.422" transform="rotate(-0 258.3 325.422)">残差连接</text>
   </g>
   <g id="text_9">
    <text style="font-weight: 700; font-size: 10px; font-family: 'Heiti SC', 'Arial Unicode MS', 'DejaVu Sans', 'Bitstream Vera Sans', 'Computer Modern Sans Serif', 'Lucida Grande', 'Verdana', 'Geneva', 'Lucid', 'Arial', 'Helvetica', 'Avant Garde', sans-serif; fill: #212121" transform="translate(237.089844 364.409156)">ffn_norm</text>
    <text style="font-weight: 700; font-size: 10px; font-family: 'Heiti SC', 'Arial Unicode MS', 'DejaVu Sans', 'Bitstream Vera Sans', 'Computer Modern Sans Serif', 'Lucida Grande', 'Verdana', 'Geneva', 'Lucid', 'Arial', 'Helvetica', 'Avant Garde', sans-serif; fill: #212121" transform="translate(192.935156 375.138844)">SequenceParallel  Shard(1)</text>
   </g>
   <g id="text_10">
    <text style="font-weight: 700; font-size: 10px; font-family: 'Heiti SC', 'Arial Unicode MS', 'DejaVu Sans', 'Bitstream Vera Sans', 'Computer Modern Sans Serif', 'Lucida Grande', 'Verdana', 'Geneva', 'Lucid', 'Arial', 'Helvetica', 'Avant Garde', sans-serif; fill: #212121" transform="translate(208.095313 408.761156)">PrepareModuleInput</text>
    <text style="font-weight: 700; font-size: 10px; font-family: 'Heiti SC', 'Arial Unicode MS', 'DejaVu Sans', 'Bitstream Vera Sans', 'Computer Modern Sans Serif', 'Lucida Grande', 'Verdana', 'Geneva', 'Lucid', 'Arial', 'Helvetica', 'Avant Garde', sans-serif; fill: #212121" transform="translate(207.164062 419.490844)">Shard(1) → Replicate</text>
   </g>
   <g id="text_11">
    <text style="font-weight: 700; font-size: 10px; font-family: 'Heiti SC', 'Arial Unicode MS', 'DejaVu Sans', 'Bitstream Vera Sans', 'Computer Modern Sans Serif', 'Lucida Grande', 'Verdana', 'Geneva', 'Lucid', 'Arial', 'Helvetica', 'Avant Garde', sans-serif; fill: #212121" transform="translate(226.246094 457.486)">FeedForward</text>
    <text style="font-weight: 700; font-size: 10px; font-family: 'Heiti SC', 'Arial Unicode MS', 'DejaVu Sans', 'Bitstream Vera Sans', 'Computer Modern Sans Serif', 'Lucida Grande', 'Verdana', 'Geneva', 'Lucid', 'Arial', 'Helvetica', 'Avant Garde', sans-serif; fill: #212121" transform="translate(178.1875 467.786)">ColwiseParallel + RowwiseParallel</text>
   </g>
   <g id="text_12">
    <text style="font-weight: 700; font-size: 10px; font-family: 'Heiti SC', 'Arial Unicode MS', 'DejaVu Sans', 'Bitstream Vera Sans', 'Computer Modern Sans Serif', 'Lucida Grande', 'Verdana', 'Geneva', 'Lucid', 'Arial', 'Helvetica', 'Avant Garde', sans-serif; text-anchor: middle; fill: #212121" x="258.3" y="530.55" transform="rotate(-0 258.3 530.55)">残差连接</text>
   </g>
   <g id="text_13">
    <text style="font-weight: 700; font-size: 10px; font-family: 'Heiti SC', 'Arial Unicode MS', 'DejaVu Sans', 'Bitstream Vera Sans', 'Computer Modern Sans Serif', 'Lucida Grande', 'Verdana', 'Geneva', 'Lucid', 'Arial', 'Helvetica', 'Avant Garde', sans-serif; fill: #212121" transform="translate(242.144531 572.524)">output</text>
    <text style="font-weight: 700; font-size: 10px; font-family: 'Heiti SC', 'Arial Unicode MS', 'DejaVu Sans', 'Bitstream Vera Sans', 'Computer Modern Sans Serif', 'Lucida Grande', 'Verdana', 'Geneva', 'Lucid', 'Arial', 'Helvetica', 'Avant Garde', sans-serif; fill: #212121" transform="translate(184.571094 582.824)">ColwiseParallel  词表维度列切分</text>
   </g>
   <g id="patch_13">
    <path d="M 258.3 92.079506 
Q 258.3 94.517855 258.3 95.279153 
" style="fill: none; stroke: #424242; stroke-width: 1.5; stroke-linecap: round"/>
    <path d="M 260.3 91.279153 
L 258.3 95.279153 
L 256.3 91.279153 
" style="fill: none; stroke: #424242; stroke-width: 1.5; stroke-linecap: round"/>
   </g>
   <g id="patch_14">
    <path d="M 258.3 136.431506 
Q 258.3 138.869855 258.3 139.631153 
" style="fill: none; stroke: #424242; stroke-width: 1.5; stroke-linecap: round"/>
    <path d="M 260.3 135.631153 
L 258.3 139.631153 
L 256.3 135.631153 
" style="fill: none; stroke: #424242; stroke-width: 1.5; stroke-linecap: round"/>
   </g>
   <g id="patch_15">
    <path d="M 258.3 180.783506 
Q 258.3 183.221855 258.3 183.983153 
" style="fill: none; stroke: #424242; stroke-width: 1.5; stroke-linecap: round"/>
    <path d="M 260.3 179.983153 
L 258.3 183.983153 
L 256.3 179.983153 
" style="fill: none; stroke: #424242; stroke-width: 1.5; stroke-linecap: round"/>
   </g>
   <g id="patch_16">
    <path d="M 258.3 225.139499 
Q 258.3 229.653156 258.3 232.489763 
" style="fill: none; stroke: #424242; stroke-width: 1.5; stroke-linecap: round"/>
    <path d="M 260.3 228.489763 
L 258.3 232.489763 
L 256.3 228.489763 
" style="fill: none; stroke: #424242; stroke-width: 1.5; stroke-linecap: round"/>
   </g>
   <g id="patch_17">
    <path d="M 258.3 273.648112 
Q 258.3 287.86347 258.3 300.401777 
" style="fill: none; stroke: #424242; stroke-width: 1.5; stroke-linecap: round"/>
    <path d="M 260.3 296.401777 
L 258.3 300.401777 
L 256.3 296.401777 
" style="fill: none; stroke: #424242; stroke-width: 1.5; stroke-linecap: round"/>
   </g>
   <g id="patch_18">
    <path d="M 258.3 341.559506 
Q 258.3 343.997855 258.3 344.759153 
" style="fill: none; stroke: #424242; stroke-width: 1.5; stroke-linecap: round"/>
    <path d="M 260.3 340.759153 
L 258.3 344.759153 
L 256.3 340.759153 
" style="fill: none; stroke: #424242; stroke-width: 1.5; stroke-linecap: round"/>
   </g>
   <g id="patch_19">
    <path d="M 258.3 385.911506 
Q 258.3 388.349855 258.3 389.111153 
" style="fill: none; stroke: #424242; stroke-width: 1.5; stroke-linecap: round"/>
    <path d="M 260.3 385.111153 
L 258.3 389.111153 
L 256.3 385.111153 
" style="fill: none; stroke: #424242; stroke-width: 1.5; stroke-linecap: round"/>
   </g>
   <g id="patch_20">
    <path d="M 258.3 430.267499 
Q 258.3 434.781156 258.3 437.617763 
" style="fill: none; stroke: #424242; stroke-width: 1.5; stroke-linecap: round"/>
    <path d="M 260.3 433.617763 
L 258.3 437.617763 
L 256.3 433.617763 
" style="fill: none; stroke: #424242; stroke-width: 1.5; stroke-linecap: round"/>
   </g>
   <g id="patch_21">
    <path d="M 258.3 478.776112 
Q 258.3 492.99147 258.3 505.529777 
" style="fill: none; stroke: #424242; stroke-width: 1.5; stroke-linecap: round"/>
    <path d="M 260.3 501.529777 
L 258.3 505.529777 
L 256.3 501.529777 
" style="fill: none; stroke: #424242; stroke-width: 1.5; stroke-linecap: round"/>
   </g>
   <g id="patch_22">
    <path d="M 258.3 546.688995 
Q 258.3 550.510417 258.3 552.654788 
" style="fill: none; stroke: #424242; stroke-width: 1.5; stroke-linecap: round"/>
    <path d="M 260.3 548.654788 
L 258.3 552.654788 
L 256.3 548.654788 
" style="fill: none; stroke: #424242; stroke-width: 1.5; stroke-linecap: round"/>
   </g>
   <g id="text_14">
    <text style="font-weight: 700; font-size: 9px; font-family: 'Heiti SC', 'Arial Unicode MS', 'DejaVu Sans', 'Bitstream Vera Sans', 'Computer Modern Sans Serif', 'Lucida Grande', 'Verdana', 'Geneva', 'Lucid', 'Arial', 'Helvetica', 'Avant Garde', sans-serif; text-anchor: start; fill: #ef6c00" x="436.86" y="253.908" transform="rotate(-0 436.86 253.908)">内部 all_reduce</text>
   </g>
   <g id="text_15">
    <text style="font-weight: 700; font-size: 9px; font-family: 'Heiti SC', 'Arial Unicode MS', 'DejaVu Sans', 'Bitstream Vera Sans', 'Computer Modern Sans Serif', 'Lucida Grande', 'Verdana', 'Geneva', 'Lucid', 'Arial', 'Helvetica', 'Avant Garde', sans-serif; text-anchor: start; fill: #ef6c00" x="436.86" y="459.036" transform="rotate(-0 436.86 459.036)">内部 all_reduce</text>
   </g>
  </g>
 </g>
 <defs>
  <clipPath id="pf5127dcc17">
   <rect x="7.2" y="7.2" width="502.2" height="637.56"/>
  </clipPath>
 </defs>
</svg>
