<?xml version="1.0" encoding="utf-8" standalone="no"?>
<!DOCTYPE svg PUBLIC "-//W3C//DTD SVG 1.1//EN"
  "http://www.w3.org/Graphics/SVG/1.1/DTD/svg11.dtd">
<svg xmlns:xlink="http://www.w3.org/1999/xlink" width="739.8pt" height="335.588pt" viewBox="0 0 739.8 335.588" xmlns="http://www.w3.org/2000/svg" version="1.1">
 <metadata>
  <rdf:RDF xmlns:dc="http://purl.org/dc/elements/1.1/" xmlns:cc="http://creativecommons.org/ns#" xmlns:rdf="http://www.w3.org/1999/02/22-rdf-syntax-ns#">
   <cc:Work>
    <dc:type rdf:resource="http://purl.org/dc/dcmitype/StillImage"/>
    <dc:date>2026-07-14T16:56:58.666207</dc:date>
    <dc:format>image/svg+xml</dc:format>
    <dc:creator>
     <cc:Agent>
      <dc:title>Matplotlib v3.11.0, https://matplotlib.org/</dc:title>
     </cc:Agent>
    </dc:creator>
   </cc:Work>
  </rdf:RDF>
 </metadata>
 <defs>
  <style type="text/css">*{stroke-linejoin: round; stroke-linecap: butt}</style>
 </defs>
 <g id="figure_1">
  <g id="patch_1">
   <path d="M 0 335.588 
L 739.8 335.588 
L 739.8 0 
L 0 0 
z
" style="fill: #ffffff"/>
  </g>
  <g id="axes_1">
   <g id="patch_2">
    <path d="M 96.48 107.7368 
L 141.12 107.7368 
Q 147.816 107.7368 147.816 101.084 
L 147.816 70.592 
Q 147.816 63.9392 141.12 63.9392 
L 96.48 63.9392 
Q 89.784 63.9392 89.784 70.592 
L 89.784 101.084 
Q 89.784 107.7368 96.48 107.7368 
z
" clip-path="url(#p49189535da)" style="fill: #e3f2fd; stroke: #1565c0; stroke-width: 2; stroke-linejoin: miter"/>
   </g>
   <g id="patch_3">
    <path d="M 163.44 107.7368 
L 208.08 107.7368 
Q 214.776 107.7368 214.776 101.084 
L 214.776 70.592 
Q 214.776 63.9392 208.08 63.9392 
L 163.44 63.9392 
Q 156.744 63.9392 156.744 70.592 
L 156.744 101.084 
Q 156.744 107.7368 163.44 107.7368 
z
" clip-path="url(#p49189535da)" style="fill: #bbdefb; stroke: #1565c0; stroke-width: 2; stroke-linejoin: miter"/>
   </g>
   <g id="patch_4">
    <path d="M 230.4 107.7368 
L 275.04 107.7368 
Q 281.736 107.7368 281.736 101.084 
L 281.736 70.592 
Q 281.736 63.9392 275.04 63.9392 
L 230.4 63.9392 
Q 223.704 63.9392 223.704 70.592 
L 223.704 101.084 
Q 223.704 107.7368 230.4 107.7368 
z
" clip-path="url(#p49189535da)" style="fill: #90caf9; stroke: #1565c0; stroke-width: 2; stroke-linejoin: miter"/>
   </g>
   <g id="patch_5">
    <path d="M 297.36 107.7368 
L 342 107.7368 
Q 348.696 107.7368 348.696 101.084 
L 348.696 70.592 
Q 348.696 63.9392 342 63.9392 
L 297.36 63.9392 
Q 290.664 63.9392 290.664 70.592 
L 290.664 101.084 
Q 290.664 107.7368 297.36 107.7368 
z
" clip-path="url(#p49189535da)" style="fill: #64b5f6; stroke: #1565c0; stroke-width: 2; stroke-linejoin: miter"/>
   </g>
   <g id="patch_6">
    <path d="M 96.48 224.1608 
L 208.08 224.1608 
Q 214.776 224.1608 214.776 217.508 
L 214.776 145.436 
Q 214.776 138.7832 208.08 138.7832 
L 96.48 138.7832 
Q 89.784 138.7832 89.784 145.436 
L 89.784 217.508 
Q 89.784 224.1608 96.48 224.1608 
z
" clip-path="url(#p49189535da)" style="fill: #e0f7fa; stroke: #00838f; stroke-width: 2; stroke-linejoin: miter"/>
   </g>
   <g id="patch_7">
    <path d="M 96.48 307.3208 
L 208.08 307.3208 
Q 214.776 307.3208 214.776 300.668 
L 214.776 256.316 
Q 214.776 249.6632 208.08 249.6632 
L 96.48 249.6632 
Q 89.784 249.6632 89.784 256.316 
L 89.784 300.668 
Q 89.784 307.3208 96.48 307.3208 
z
" clip-path="url(#p49189535da)" style="fill: #e8f5e9; stroke: #2e7d32; stroke-width: 2; stroke-linejoin: miter"/>
   </g>
   <g id="patch_8">
    <path d="M 241.56 224.1608 
L 353.16 224.1608 
Q 359.856 224.1608 359.856 217.508 
L 359.856 145.436 
Q 359.856 138.7832 353.16 138.7832 
L 241.56 138.7832 
Q 234.864 138.7832 234.864 145.436 
L 234.864 217.508 
Q 234.864 224.1608 241.56 224.1608 
z
" clip-path="url(#p49189535da)" style="fill: #e0f7fa; stroke: #00838f; stroke-width: 2; stroke-linejoin: miter"/>
   </g>
   <g id="patch_9">
    <path d="M 241.56 307.3208 
L 353.16 307.3208 
Q 359.856 307.3208 359.856 300.668 
L 359.856 256.316 
Q 359.856 249.6632 353.16 249.6632 
L 241.56 249.6632 
Q 234.864 249.6632 234.864 256.316 
L 234.864 300.668 
Q 234.864 307.3208 241.56 307.3208 
z
" clip-path="url(#p49189535da)" style="fill: #e8f5e9; stroke: #2e7d32; stroke-width: 2; stroke-linejoin: miter"/>
   </g>
   <g id="patch_10">
    <path d="M 386.64 224.1608 
L 498.24 224.1608 
Q 504.936 224.1608 504.936 217.508 
L 504.936 145.436 
Q 504.936 138.7832 498.24 138.7832 
L 386.64 138.7832 
Q 379.944 138.7832 379.944 145.436 
L 379.944 217.508 
Q 379.944 224.1608 386.64 224.1608 
z
" clip-path="url(#p49189535da)" style="fill: #e0f7fa; stroke: #00838f; stroke-width: 2; stroke-linejoin: miter"/>
   </g>
   <g id="patch_11">
    <path d="M 386.64 307.3208 
L 498.24 307.3208 
Q 504.936 307.3208 504.936 300.668 
L 504.936 256.316 
Q 504.936 249.6632 498.24 249.6632 
L 386.64 249.6632 
Q 379.944 249.6632 379.944 256.316 
L 379.944 300.668 
Q 379.944 307.3208 386.64 307.3208 
z
" clip-path="url(#p49189535da)" style="fill: #e8f5e9; stroke: #2e7d32; stroke-width: 2; stroke-linejoin: miter"/>
   </g>
   <g id="patch_12">
    <path d="M 531.72 224.1608 
L 643.32 224.1608 
Q 650.016 224.1608 650.016 217.508 
L 650.016 145.436 
Q 650.016 138.7832 643.32 138.7832 
L 531.72 138.7832 
Q 525.024 138.7832 525.024 145.436 
L 525.024 217.508 
Q 525.024 224.1608 531.72 224.1608 
z
" clip-path="url(#p49189535da)" style="fill: #e0f7fa; stroke: #00838f; stroke-width: 2; stroke-linejoin: miter"/>
   </g>
   <g id="patch_13">
    <path d="M 531.72 307.3208 
L 643.32 307.3208 
Q 650.016 307.3208 650.016 300.668 
L 650.016 256.316 
Q 650.016 249.6632 643.32 249.6632 
L 531.72 249.6632 
Q 525.024 249.6632 525.024 256.316 
L 525.024 300.668 
Q 525.024 307.3208 531.72 307.3208 
z
" clip-path="url(#p49189535da)" style="fill: #e8f5e9; stroke: #2e7d32; stroke-width: 2; stroke-linejoin: miter"/>
   </g>
   <g id="text_1">
    <text style="font-weight: 700; font-size: 10px; font-family: 'Heiti SC', 'Arial Unicode MS', 'DejaVu Sans', 'Bitstream Vera Sans', 'Computer Modern Sans Serif', 'Lucida Grande', 'Verdana', 'Geneva', 'Lucid', 'Arial', 'Helvetica', 'Avant Garde', sans-serif; text-anchor: middle; fill: #212121" x="118.8" y="89.438" transform="rotate(-0 118.8 89.438)">t₀</text>
   </g>
   <g id="text_2">
    <text style="font-weight: 700; font-size: 10px; font-family: 'Heiti SC', 'Arial Unicode MS', 'DejaVu Sans', 'Bitstream Vera Sans', 'Computer Modern Sans Serif', 'Lucida Grande', 'Verdana', 'Geneva', 'Lucid', 'Arial', 'Helvetica', 'Avant Garde', sans-serif; text-anchor: middle; fill: #212121" x="185.76" y="89.438" transform="rotate(-0 185.76 89.438)">t₁</text>
   </g>
   <g id="text_3">
    <text style="font-weight: 700; font-size: 10px; font-family: 'Heiti SC', 'Arial Unicode MS', 'DejaVu Sans', 'Bitstream Vera Sans', 'Computer Modern Sans Serif', 'Lucida Grande', 'Verdana', 'Geneva', 'Lucid', 'Arial', 'Helvetica', 'Avant Garde', sans-serif; text-anchor: middle; fill: #212121" x="252.72" y="89.438" transform="rotate(-0 252.72 89.438)">...</text>
   </g>
   <g id="text_4">
    <text style="font-weight: 700; font-size: 10px; font-family: 'Heiti SC', 'Arial Unicode MS', 'DejaVu Sans', 'Bitstream Vera Sans', 'Computer Modern Sans Serif', 'Lucida Grande', 'Verdana', 'Geneva', 'Lucid', 'Arial', 'Helvetica', 'Avant Garde', sans-serif; text-anchor: middle; fill: #212121" x="319.68" y="89.438" transform="rotate(-0 319.68 89.438)">tₛ₋₁</text>
   </g>
   <g id="text_5">
    <text style="font-weight: 700; font-size: 11px; font-family: 'Heiti SC', 'Arial Unicode MS', 'DejaVu Sans', 'Bitstream Vera Sans', 'Computer Modern Sans Serif', 'Lucida Grande', 'Verdana', 'Geneva', 'Lucid', 'Arial', 'Helvetica', 'Avant Garde', sans-serif" transform="translate(153.857109 42.63)">完整 token 序列 (Replicate)</text>
    <text style="font-weight: 700; font-size: 11px; font-family: 'Heiti SC', 'Arial Unicode MS', 'DejaVu Sans', 'Bitstream Vera Sans', 'Computer Modern Sans Serif', 'Lucida Grande', 'Verdana', 'Geneva', 'Lucid', 'Arial', 'Helvetica', 'Avant Garde', sans-serif" transform="translate(170.496328 53.96)">[batch, seq, hidden]</text>
   </g>
   <g id="text_6">
    <text style="font-weight: 700; font-size: 9px; font-family: 'Heiti SC', 'Arial Unicode MS', 'DejaVu Sans', 'Bitstream Vera Sans', 'Computer Modern Sans Serif', 'Lucida Grande', 'Verdana', 'Geneva', 'Lucid', 'Arial', 'Helvetica', 'Avant Garde', sans-serif; fill: #212121" transform="translate(139.125938 175.442)">GPU 0</text>
    <text style="font-weight: 700; font-size: 9px; font-family: 'Heiti SC', 'Arial Unicode MS', 'DejaVu Sans', 'Bitstream Vera Sans', 'Computer Modern Sans Serif', 'Lucida Grande', 'Verdana', 'Geneva', 'Lucid', 'Arial', 'Helvetica', 'Avant Garde', sans-serif; fill: #212121" transform="translate(134.577422 184.712)">t₀ ~ tₛ/₄₋₁</text>
    <text style="font-weight: 700; font-size: 9px; font-family: 'Heiti SC', 'Arial Unicode MS', 'DejaVu Sans', 'Bitstream Vera Sans', 'Computer Modern Sans Serif', 'Lucida Grande', 'Verdana', 'Geneva', 'Lucid', 'Arial', 'Helvetica', 'Avant Garde', sans-serif; fill: #212121" transform="translate(129.919219 193.982)">[B, S/tp, H]</text>
   </g>
   <g id="text_7">
    <text style="font-weight: 700; font-size: 9px; font-family: 'Heiti SC', 'Arial Unicode MS', 'DejaVu Sans', 'Bitstream Vera Sans', 'Computer Modern Sans Serif', 'Lucida Grande', 'Verdana', 'Geneva', 'Lucid', 'Arial', 'Helvetica', 'Avant Garde', sans-serif; fill: #212121" transform="translate(133.969219 277.290359)">Shard(1)</text>
    <text style="font-weight: 700; font-size: 9px; font-family: 'Heiti SC', 'Arial Unicode MS', 'DejaVu Sans', 'Bitstream Vera Sans', 'Computer Modern Sans Serif', 'Lucida Grande', 'Verdana', 'Geneva', 'Lucid', 'Arial', 'Helvetica', 'Avant Garde', sans-serif; fill: #212121" transform="translate(139.125938 286.560359)">GPU 0</text>
   </g>
   <g id="patch_14">
    <path d="M 119.999736 108.2292 
Q 132.744169 124.944302 149.151912 135.187021 
" style="fill: none; stroke: #00838f; stroke-width: 1.5; stroke-linecap: round"/>
    <path d="M 146.817889 131.372269 
L 149.151912 135.187021 
L 144.699696 134.765388 
" style="fill: none; stroke: #00838f; stroke-width: 1.5; stroke-linecap: round"/>
   </g>
   <g id="patch_15">
    <path d="M 152.28 227.824496 
Q 152.28 236.909876 152.28 244.318205 
" style="fill: none; stroke: #2e7d32; stroke-width: 1.5; stroke-linecap: round"/>
    <path d="M 154.28 240.318205 
L 152.28 244.318205 
L 150.28 240.318205 
" style="fill: none; stroke: #2e7d32; stroke-width: 1.5; stroke-linecap: round"/>
   </g>
   <g id="text_8">
    <text style="font-weight: 700; font-size: 9px; font-family: 'Heiti SC', 'Arial Unicode MS', 'DejaVu Sans', 'Bitstream Vera Sans', 'Computer Modern Sans Serif', 'Lucida Grande', 'Verdana', 'Geneva', 'Lucid', 'Arial', 'Helvetica', 'Avant Garde', sans-serif; fill: #212121" transform="translate(284.205937 175.442)">GPU 1</text>
    <text style="font-weight: 700; font-size: 9px; font-family: 'Heiti SC', 'Arial Unicode MS', 'DejaVu Sans', 'Bitstream Vera Sans', 'Computer Modern Sans Serif', 'Lucida Grande', 'Verdana', 'Geneva', 'Lucid', 'Arial', 'Helvetica', 'Avant Garde', sans-serif; fill: #212121" transform="translate(275.976562 184.712)">tₛ/₄ ~ tₛ/₂₋₁</text>
    <text style="font-weight: 700; font-size: 9px; font-family: 'Heiti SC', 'Arial Unicode MS', 'DejaVu Sans', 'Bitstream Vera Sans', 'Computer Modern Sans Serif', 'Lucida Grande', 'Verdana', 'Geneva', 'Lucid', 'Arial', 'Helvetica', 'Avant Garde', sans-serif; fill: #212121" transform="translate(274.999219 193.982)">[B, S/tp, H]</text>
   </g>
   <g id="text_9">
    <text style="font-weight: 700; font-size: 9px; font-family: 'Heiti SC', 'Arial Unicode MS', 'DejaVu Sans', 'Bitstream Vera Sans', 'Computer Modern Sans Serif', 'Lucida Grande', 'Verdana', 'Geneva', 'Lucid', 'Arial', 'Helvetica', 'Avant Garde', sans-serif; fill: #212121" transform="translate(279.049219 277.290359)">Shard(1)</text>
    <text style="font-weight: 700; font-size: 9px; font-family: 'Heiti SC', 'Arial Unicode MS', 'DejaVu Sans', 'Bitstream Vera Sans', 'Computer Modern Sans Serif', 'Lucida Grande', 'Verdana', 'Geneva', 'Lucid', 'Arial', 'Helvetica', 'Avant Garde', sans-serif; fill: #212121" transform="translate(284.205937 286.560359)">GPU 1</text>
   </g>
   <g id="patch_16">
    <path d="M 187.548657 107.516087 
Q 238.611646 132.662021 293.694489 136.847989 
" style="fill: none; stroke: #00838f; stroke-width: 1.5; stroke-linecap: round"/>
    <path d="M 289.85754 134.550637 
L 293.694489 136.847989 
L 289.554438 138.539137 
" style="fill: none; stroke: #00838f; stroke-width: 1.5; stroke-linecap: round"/>
   </g>
   <g id="patch_17">
    <path d="M 297.36 227.824496 
Q 297.36 236.909876 297.36 244.318205 
" style="fill: none; stroke: #2e7d32; stroke-width: 1.5; stroke-linecap: round"/>
    <path d="M 299.36 240.318205 
L 297.36 244.318205 
L 295.36 240.318205 
" style="fill: none; stroke: #2e7d32; stroke-width: 1.5; stroke-linecap: round"/>
   </g>
   <g id="text_10">
    <text style="font-weight: 700; font-size: 9px; font-family: 'Heiti SC', 'Arial Unicode MS', 'DejaVu Sans', 'Bitstream Vera Sans', 'Computer Modern Sans Serif', 'Lucida Grande', 'Verdana', 'Geneva', 'Lucid', 'Arial', 'Helvetica', 'Avant Garde', sans-serif; fill: #212121" transform="translate(429.285938 175.442)">GPU 2</text>
    <text style="font-weight: 700; font-size: 9px; font-family: 'Heiti SC', 'Arial Unicode MS', 'DejaVu Sans', 'Bitstream Vera Sans', 'Computer Modern Sans Serif', 'Lucida Grande', 'Verdana', 'Geneva', 'Lucid', 'Arial', 'Helvetica', 'Avant Garde', sans-serif; fill: #212121" transform="translate(419.558203 184.712)">tₛ/₂ ~ t₃ₛ/₄₋₁</text>
    <text style="font-weight: 700; font-size: 9px; font-family: 'Heiti SC', 'Arial Unicode MS', 'DejaVu Sans', 'Bitstream Vera Sans', 'Computer Modern Sans Serif', 'Lucida Grande', 'Verdana', 'Geneva', 'Lucid', 'Arial', 'Helvetica', 'Avant Garde', sans-serif; fill: #212121" transform="translate(420.079219 193.982)">[B, S/tp, H]</text>
   </g>
   <g id="text_11">
    <text style="font-weight: 700; font-size: 9px; font-family: 'Heiti SC', 'Arial Unicode MS', 'DejaVu Sans', 'Bitstream Vera Sans', 'Computer Modern Sans Serif', 'Lucida Grande', 'Verdana', 'Geneva', 'Lucid', 'Arial', 'Helvetica', 'Avant Garde', sans-serif; fill: #212121" transform="translate(424.129219 277.290359)">Shard(1)</text>
    <text style="font-weight: 700; font-size: 9px; font-family: 'Heiti SC', 'Arial Unicode MS', 'DejaVu Sans', 'Bitstream Vera Sans', 'Computer Modern Sans Serif', 'Lucida Grande', 'Verdana', 'Geneva', 'Lucid', 'Arial', 'Helvetica', 'Avant Garde', sans-serif; fill: #212121" transform="translate(429.285938 286.560359)">GPU 2</text>
   </g>
   <g id="patch_18">
    <path d="M 254.595069 107.32265 
Q 344.590891 140.462055 438.762368 137.249407 
" style="fill: none; stroke: #00838f; stroke-width: 1.5; stroke-linecap: round"/>
    <path d="M 434.696503 135.38695 
L 438.762368 137.249407 
L 434.832883 139.384624 
" style="fill: none; stroke: #00838f; stroke-width: 1.5; stroke-linecap: round"/>
   </g>
   <g id="patch_19">
    <path d="M 442.44 227.824496 
Q 442.44 236.909876 442.44 244.318205 
" style="fill: none; stroke: #2e7d32; stroke-width: 1.5; stroke-linecap: round"/>
    <path d="M 444.44 240.318205 
L 442.44 244.318205 
L 440.44 240.318205 
" style="fill: none; stroke: #2e7d32; stroke-width: 1.5; stroke-linecap: round"/>
   </g>
   <g id="text_12">
    <text style="font-weight: 700; font-size: 9px; font-family: 'Heiti SC', 'Arial Unicode MS', 'DejaVu Sans', 'Bitstream Vera Sans', 'Computer Modern Sans Serif', 'Lucida Grande', 'Verdana', 'Geneva', 'Lucid', 'Arial', 'Helvetica', 'Avant Garde', sans-serif; fill: #212121" transform="translate(574.365938 175.442)">GPU 3</text>
    <text style="font-weight: 700; font-size: 9px; font-family: 'Heiti SC', 'Arial Unicode MS', 'DejaVu Sans', 'Bitstream Vera Sans', 'Computer Modern Sans Serif', 'Lucida Grande', 'Verdana', 'Geneva', 'Lucid', 'Arial', 'Helvetica', 'Avant Garde', sans-serif; fill: #212121" transform="translate(568.103203 184.712)">t₃ₛ/₄ ~ tₛ₋₁</text>
    <text style="font-weight: 700; font-size: 9px; font-family: 'Heiti SC', 'Arial Unicode MS', 'DejaVu Sans', 'Bitstream Vera Sans', 'Computer Modern Sans Serif', 'Lucida Grande', 'Verdana', 'Geneva', 'Lucid', 'Arial', 'Helvetica', 'Avant Garde', sans-serif; fill: #212121" transform="translate(565.159219 193.982)">[B, S/tp, H]</text>
   </g>
   <g id="text_13">
    <text style="font-weight: 700; font-size: 9px; font-family: 'Heiti SC', 'Arial Unicode MS', 'DejaVu Sans', 'Bitstream Vera Sans', 'Computer Modern Sans Serif', 'Lucida Grande', 'Verdana', 'Geneva', 'Lucid', 'Arial', 'Helvetica', 'Avant Garde', sans-serif; fill: #212121" transform="translate(569.209219 277.290359)">Shard(1)</text>
    <text style="font-weight: 700; font-size: 9px; font-family: 'Heiti SC', 'Arial Unicode MS', 'DejaVu Sans', 'Bitstream Vera Sans', 'Computer Modern Sans Serif', 'Lucida Grande', 'Verdana', 'Geneva', 'Lucid', 'Arial', 'Helvetica', 'Avant Garde', sans-serif; fill: #212121" transform="translate(574.365938 286.560359)">GPU 3</text>
   </g>
   <g id="patch_20">
    <path d="M 321.585394 107.236988 
Q 450.593867 148.270629 583.852872 137.421376 
" style="fill: none; stroke: #00838f; stroke-width: 1.5; stroke-linecap: round"/>
    <path d="M 579.703771 135.752557 
L 583.852872 137.421376 
L 580.028356 139.739365 
" style="fill: none; stroke: #00838f; stroke-width: 1.5; stroke-linecap: round"/>
   </g>
   <g id="patch_21">
    <path d="M 587.52 227.824496 
Q 587.52 236.909876 587.52 244.318205 
" style="fill: none; stroke: #2e7d32; stroke-width: 1.5; stroke-linecap: round"/>
    <path d="M 589.52 240.318205 
L 587.52 244.318205 
L 585.52 240.318205 
" style="fill: none; stroke: #2e7d32; stroke-width: 1.5; stroke-linecap: round"/>
   </g>
   <g id="text_14">
    <text style="font-weight: 700; font-size: 11px; font-family: 'Heiti SC', 'Arial Unicode MS', 'DejaVu Sans', 'Bitstream Vera Sans', 'Computer Modern Sans Serif', 'Lucida Grande', 'Verdana', 'Geneva', 'Lucid', 'Arial', 'Helvetica', 'Avant Garde', sans-serif; fill: #00838f" transform="translate(339.868516 238.969344)">SequenceParallel</text>
    <text style="font-weight: 700; font-size: 11px; font-family: 'Heiti SC', 'Arial Unicode MS', 'DejaVu Sans', 'Bitstream Vera Sans', 'Computer Modern Sans Serif', 'Lucida Grande', 'Verdana', 'Geneva', 'Lucid', 'Arial', 'Helvetica', 'Avant Garde', sans-serif; fill: #00838f" transform="translate(335.385156 250.772)">按序列维度 Shard(1)</text>
   </g>
   <g id="text_15">
    <text style="font-weight: 700; font-size: 15px; font-family: 'Heiti SC', 'Arial Unicode MS', 'DejaVu Sans', 'Bitstream Vera Sans', 'Computer Modern Sans Serif', 'Lucida Grande', 'Verdana', 'Geneva', 'Lucid', 'Arial', 'Helvetica', 'Avant Garde', sans-serif; text-anchor: middle" x="369.9" y="20.1" transform="rotate(-0 369.9 20.1)">SequenceParallel：按 token 序列切分</text>
   </g>
  </g>
 </g>
 <defs>
  <clipPath id="p49189535da">
   <rect x="7.2" y="40.1" width="725.4" height="288.288"/>
  </clipPath>
 </defs>
</svg>
