<?xml version="1.0" encoding="utf-8" standalone="no"?>
<!DOCTYPE svg PUBLIC "-//W3C//DTD SVG 1.1//EN"
  "http://www.w3.org/Graphics/SVG/1.1/DTD/svg11.dtd">
<svg xmlns:xlink="http://www.w3.org/1999/xlink" width="820.8pt" height="367.2pt" viewBox="0 0 820.8 367.2" xmlns="http://www.w3.org/2000/svg" version="1.1">
 <metadata>
  <rdf:RDF xmlns:dc="http://purl.org/dc/elements/1.1/" xmlns:cc="http://creativecommons.org/ns#" xmlns:rdf="http://www.w3.org/1999/02/22-rdf-syntax-ns#">
   <cc:Work>
    <dc:type rdf:resource="http://purl.org/dc/dcmitype/StillImage"/>
    <dc:date>2026-07-14T16:56:58.868304</dc:date>
    <dc:format>image/svg+xml</dc:format>
    <dc:creator>
     <cc:Agent>
      <dc:title>Matplotlib v3.11.0, https://matplotlib.org/</dc:title>
     </cc:Agent>
    </dc:creator>
   </cc:Work>
  </rdf:RDF>
 </metadata>
 <defs>
  <style type="text/css">*{stroke-linejoin: round; stroke-linecap: butt}</style>
 </defs>
 <g id="figure_1">
  <g id="patch_1">
   <path d="M 0 367.2 
L 820.8 367.2 
L 820.8 0 
L 0 0 
z
" style="fill: #ffffff"/>
  </g>
  <g id="axes_1">
   <g id="patch_2">
    <path d="M 31.068 346.8152 
L 381.132 346.8152 
Q 389.088 346.8152 389.088 340.2228 
L 389.088 43.5648 
Q 389.088 36.9724 381.132 36.9724 
L 31.068 36.9724 
Q 23.112 36.9724 23.112 43.5648 
L 23.112 340.2228 
Q 23.112 346.8152 31.068 346.8152 
z
" clip-path="url(#p02c7b8206a)" style="fill: #fafafa; stroke: #bdbdbd; stroke-width: 1.5; stroke-linejoin: miter"/>
   </g>
   <g id="patch_3">
    <path d="M 62.892 116.0812 
L 349.308 116.0812 
Q 357.264 116.0812 357.264 109.4888 
L 357.264 69.9344 
Q 357.264 63.342 349.308 63.342 
L 62.892 63.342 
Q 54.936 63.342 54.936 69.9344 
L 54.936 109.4888 
Q 54.936 116.0812 62.892 116.0812 
z
" clip-path="url(#p02c7b8206a)" style="fill: #e3f2fd; stroke: #1565c0; stroke-width: 2; stroke-linejoin: miter"/>
   </g>
   <g id="patch_4">
    <path d="M 62.892 228.152 
L 349.308 228.152 
Q 357.264 228.152 357.264 221.5596 
L 357.264 182.0052 
Q 357.264 175.4128 349.308 175.4128 
L 62.892 175.4128 
Q 54.936 175.4128 54.936 182.0052 
L 54.936 221.5596 
Q 54.936 228.152 62.892 228.152 
z
" clip-path="url(#p02c7b8206a)" style="fill: #fff3e0; stroke: #ef6c00; stroke-width: 2; stroke-linejoin: miter"/>
   </g>
   <g id="patch_5">
    <path d="M 62.892 340.2228 
L 349.308 340.2228 
Q 357.264 340.2228 357.264 333.6304 
L 357.264 294.076 
Q 357.264 287.4836 349.308 287.4836 
L 62.892 287.4836 
Q 54.936 287.4836 54.936 294.076 
L 54.936 333.6304 
Q 54.936 340.2228 62.892 340.2228 
z
" clip-path="url(#p02c7b8206a)" style="fill: #e3f2fd; stroke: #1565c0; stroke-width: 2; stroke-linejoin: miter"/>
   </g>
   <g id="text_1">
    <text style="font-weight: 700; font-size: 10px; font-family: 'Heiti SC', 'Arial Unicode MS', 'DejaVu Sans', 'Bitstream Vera Sans', 'Computer Modern Sans Serif', 'Lucida Grande', 'Verdana', 'Geneva', 'Lucid', 'Arial', 'Helvetica', 'Avant Garde', sans-serif; fill: #212121" transform="translate(196.1 88.1616)">输入</text>
    <text style="font-weight: 700; font-size: 10px; font-family: 'Heiti SC', 'Arial Unicode MS', 'DejaVu Sans', 'Bitstream Vera Sans', 'Computer Modern Sans Serif', 'Lucida Grande', 'Verdana', 'Geneva', 'Lucid', 'Arial', 'Helvetica', 'Avant Garde', sans-serif; fill: #212121" transform="translate(166.504687 98.4616)">[B,S,H] Replicate</text>
   </g>
   <g id="patch_6">
    <path d="M 206.1 114.78477 
Q 206.1 145.746118 206.1 175.030415 
" style="fill: none; stroke: #424242; stroke-width: 1.5; stroke-linecap: round"/>
    <path d="M 208.1 171.030415 
L 206.1 175.030415 
L 204.1 171.030415 
" style="fill: none; stroke: #424242; stroke-width: 1.5; stroke-linecap: round"/>
   </g>
   <g id="text_2">
    <text style="font-weight: 700; font-size: 10px; font-family: 'Heiti SC', 'Arial Unicode MS', 'DejaVu Sans', 'Bitstream Vera Sans', 'Computer Modern Sans Serif', 'Lucida Grande', 'Verdana', 'Geneva', 'Lucid', 'Arial', 'Helvetica', 'Avant Garde', sans-serif; fill: #212121" transform="translate(170.453906 200.2324)">Attention / FFN</text>
    <text style="font-weight: 700; font-size: 10px; font-family: 'Heiti SC', 'Arial Unicode MS', 'DejaVu Sans', 'Bitstream Vera Sans', 'Computer Modern Sans Serif', 'Lucida Grande', 'Verdana', 'Geneva', 'Lucid', 'Arial', 'Helvetica', 'Avant Garde', sans-serif; fill: #212121" transform="translate(176.1 210.5324)">内部分片计算</text>
   </g>
   <g id="patch_7">
    <path d="M 206.1 226.85557 
Q 206.1 257.816918 206.1 287.101215 
" style="fill: none; stroke: #424242; stroke-width: 1.5; stroke-linecap: round"/>
    <path d="M 208.1 283.101215 
L 206.1 287.101215 
L 204.1 283.101215 
" style="fill: none; stroke: #424242; stroke-width: 1.5; stroke-linecap: round"/>
   </g>
   <g id="text_3">
    <text style="font-weight: 700; font-size: 10px; font-family: 'Heiti SC', 'Arial Unicode MS', 'DejaVu Sans', 'Bitstream Vera Sans', 'Computer Modern Sans Serif', 'Lucida Grande', 'Verdana', 'Geneva', 'Lucid', 'Arial', 'Helvetica', 'Avant Garde', sans-serif; fill: #212121" transform="translate(196.1 312.3032)">输出</text>
    <text style="font-weight: 700; font-size: 10px; font-family: 'Heiti SC', 'Arial Unicode MS', 'DejaVu Sans', 'Bitstream Vera Sans', 'Computer Modern Sans Serif', 'Lucida Grande', 'Verdana', 'Geneva', 'Lucid', 'Arial', 'Helvetica', 'Avant Garde', sans-serif; fill: #212121" transform="translate(166.504687 322.6032)">[B,S,H] Replicate</text>
   </g>
   <g id="text_4">
    <text style="font-weight: 700; font-size: 13px; font-family: 'Heiti SC', 'Arial Unicode MS', 'DejaVu Sans', 'Bitstream Vera Sans', 'Computer Modern Sans Serif', 'Lucida Grande', 'Verdana', 'Geneva', 'Lucid', 'Arial', 'Helvetica', 'Avant Garde', sans-serif; text-anchor: middle" x="206.1" y="18.38" transform="rotate(-0 206.1 18.38)">基本张量并行</text>
   </g>
  </g>
  <g id="axes_2">
   <g id="patch_8">
    <path d="M 439.668 346.8152 
L 789.732 346.8152 
Q 797.688 346.8152 797.688 340.2228 
L 797.688 43.5648 
Q 797.688 36.9724 789.732 36.9724 
L 439.668 36.9724 
Q 431.712 36.9724 431.712 43.5648 
L 431.712 340.2228 
Q 431.712 346.8152 439.668 346.8152 
z
" clip-path="url(#pee62940ed9)" style="fill: #fafafa; stroke: #bdbdbd; stroke-width: 1.5; stroke-linejoin: miter"/>
   </g>
   <g id="patch_9">
    <path d="M 471.492 116.0812 
L 757.908 116.0812 
Q 765.864 116.0812 765.864 109.4888 
L 765.864 69.9344 
Q 765.864 63.342 757.908 63.342 
L 471.492 63.342 
Q 463.536 63.342 463.536 69.9344 
L 463.536 109.4888 
Q 463.536 116.0812 471.492 116.0812 
z
" clip-path="url(#pee62940ed9)" style="fill: #e0f7fa; stroke: #00838f; stroke-width: 2; stroke-linejoin: miter"/>
   </g>
   <g id="patch_10">
    <path d="M 471.492 172.1166 
L 757.908 172.1166 
Q 765.864 172.1166 765.864 165.5242 
L 765.864 125.9698 
Q 765.864 119.3774 757.908 119.3774 
L 471.492 119.3774 
Q 463.536 119.3774 463.536 125.9698 
L 463.536 165.5242 
Q 463.536 172.1166 471.492 172.1166 
z
" clip-path="url(#pee62940ed9)" style="fill: #e0f7fa; stroke: #00838f; stroke-width: 2; stroke-linejoin: miter"/>
   </g>
   <g id="patch_11">
    <path d="M 471.492 228.152 
L 757.908 228.152 
Q 765.864 228.152 765.864 221.5596 
L 765.864 182.0052 
Q 765.864 175.4128 757.908 175.4128 
L 471.492 175.4128 
Q 463.536 175.4128 463.536 182.0052 
L 463.536 221.5596 
Q 463.536 228.152 471.492 228.152 
z
" clip-path="url(#pee62940ed9)" style="fill: #f3e5f5; stroke: #6a1b9a; stroke-width: 2; stroke-linejoin: miter"/>
   </g>
   <g id="patch_12">
    <path d="M 471.492 284.1874 
L 757.908 284.1874 
Q 765.864 284.1874 765.864 277.595 
L 765.864 238.0406 
Q 765.864 231.4482 757.908 231.4482 
L 471.492 231.4482 
Q 463.536 231.4482 463.536 238.0406 
L 463.536 277.595 
Q 463.536 284.1874 471.492 284.1874 
z
" clip-path="url(#pee62940ed9)" style="fill: #fff3e0; stroke: #ef6c00; stroke-width: 2; stroke-linejoin: miter"/>
   </g>
   <g id="patch_13">
    <path d="M 471.492 340.2228 
L 757.908 340.2228 
Q 765.864 340.2228 765.864 333.6304 
L 765.864 294.076 
Q 765.864 287.4836 757.908 287.4836 
L 471.492 287.4836 
Q 463.536 287.4836 463.536 294.076 
L 463.536 333.6304 
Q 463.536 340.2228 471.492 340.2228 
z
" clip-path="url(#pee62940ed9)" style="fill: #e0f7fa; stroke: #00838f; stroke-width: 2; stroke-linejoin: miter"/>
   </g>
   <g id="text_5">
    <text style="font-weight: 700; font-size: 10px; font-family: 'Heiti SC', 'Arial Unicode MS', 'DejaVu Sans', 'Bitstream Vera Sans', 'Computer Modern Sans Serif', 'Lucida Grande', 'Verdana', 'Geneva', 'Lucid', 'Arial', 'Helvetica', 'Avant Garde', sans-serif; fill: #212121" transform="translate(604.7 87.946756)">输入</text>
    <text style="font-weight: 700; font-size: 10px; font-family: 'Heiti SC', 'Arial Unicode MS', 'DejaVu Sans', 'Bitstream Vera Sans', 'Computer Modern Sans Serif', 'Lucida Grande', 'Verdana', 'Geneva', 'Lucid', 'Arial', 'Helvetica', 'Avant Garde', sans-serif; fill: #212121" transform="translate(570.759375 98.676444)">[B,S/tp,H] Shard(1)</text>
   </g>
   <g id="patch_14">
    <path d="M 614.7 114.788793 
Q 614.7 117.732121 614.7 118.998397 
" style="fill: none; stroke: #424242; stroke-width: 1.5; stroke-linecap: round"/>
    <path d="M 616.7 114.998397 
L 614.7 118.998397 
L 612.7 114.998397 
" style="fill: none; stroke: #424242; stroke-width: 1.5; stroke-linecap: round"/>
   </g>
   <g id="text_6">
    <text style="font-weight: 700; font-size: 10px; font-family: 'Heiti SC', 'Arial Unicode MS', 'DejaVu Sans', 'Bitstream Vera Sans', 'Computer Modern Sans Serif', 'Lucida Grande', 'Verdana', 'Geneva', 'Lucid', 'Arial', 'Helvetica', 'Avant Garde', sans-serif; fill: #212121" transform="translate(591.410156 144.197)">RMSNorm</text>
    <text style="font-weight: 700; font-size: 10px; font-family: 'Heiti SC', 'Arial Unicode MS', 'DejaVu Sans', 'Bitstream Vera Sans', 'Computer Modern Sans Serif', 'Lucida Grande', 'Verdana', 'Geneva', 'Lucid', 'Arial', 'Helvetica', 'Avant Garde', sans-serif; fill: #212121" transform="translate(594.7 154.497)">分片计算</text>
   </g>
   <g id="patch_15">
    <path d="M 614.7 170.824193 
Q 614.7 173.767521 614.7 175.033797 
" style="fill: none; stroke: #424242; stroke-width: 1.5; stroke-linecap: round"/>
    <path d="M 616.7 171.033797 
L 614.7 175.033797 
L 612.7 171.033797 
" style="fill: none; stroke: #424242; stroke-width: 1.5; stroke-linecap: round"/>
   </g>
   <g id="text_7">
    <text style="font-weight: 700; font-size: 10px; font-family: 'Heiti SC', 'Arial Unicode MS', 'DejaVu Sans', 'Bitstream Vera Sans', 'Computer Modern Sans Serif', 'Lucida Grande', 'Verdana', 'Geneva', 'Lucid', 'Arial', 'Helvetica', 'Avant Garde', sans-serif; fill: #212121" transform="translate(564.495312 200.017556)">PrepareModuleInput</text>
    <text style="font-weight: 700; font-size: 10px; font-family: 'Heiti SC', 'Arial Unicode MS', 'DejaVu Sans', 'Bitstream Vera Sans', 'Computer Modern Sans Serif', 'Lucida Grande', 'Verdana', 'Geneva', 'Lucid', 'Arial', 'Helvetica', 'Avant Garde', sans-serif; fill: #212121" transform="translate(563.564062 210.747244)">Shard(1) → Replicate</text>
   </g>
   <g id="patch_16">
    <path d="M 614.7 226.859593 
Q 614.7 229.802921 614.7 231.069197 
" style="fill: none; stroke: #424242; stroke-width: 1.5; stroke-linecap: round"/>
    <path d="M 616.7 227.069197 
L 614.7 231.069197 
L 612.7 227.069197 
" style="fill: none; stroke: #424242; stroke-width: 1.5; stroke-linecap: round"/>
   </g>
   <g id="text_8">
    <text style="font-weight: 700; font-size: 10px; font-family: 'Heiti SC', 'Arial Unicode MS', 'DejaVu Sans', 'Bitstream Vera Sans', 'Computer Modern Sans Serif', 'Lucida Grande', 'Verdana', 'Geneva', 'Lucid', 'Arial', 'Helvetica', 'Avant Garde', sans-serif; fill: #212121" transform="translate(579.053906 256.2678)">Attention / FFN</text>
    <text style="font-weight: 700; font-size: 10px; font-family: 'Heiti SC', 'Arial Unicode MS', 'DejaVu Sans', 'Bitstream Vera Sans', 'Computer Modern Sans Serif', 'Lucida Grande', 'Verdana', 'Geneva', 'Lucid', 'Arial', 'Helvetica', 'Avant Garde', sans-serif; fill: #212121" transform="translate(584.7 266.5678)">内部分片计算</text>
   </g>
   <g id="patch_17">
    <path d="M 614.7 282.894993 
Q 614.7 285.838321 614.7 287.104597 
" style="fill: none; stroke: #424242; stroke-width: 1.5; stroke-linecap: round"/>
    <path d="M 616.7 283.104597 
L 614.7 287.104597 
L 612.7 283.104597 
" style="fill: none; stroke: #424242; stroke-width: 1.5; stroke-linecap: round"/>
   </g>
   <g id="text_9">
    <text style="font-weight: 700; font-size: 10px; font-family: 'Heiti SC', 'Arial Unicode MS', 'DejaVu Sans', 'Bitstream Vera Sans', 'Computer Modern Sans Serif', 'Lucida Grande', 'Verdana', 'Geneva', 'Lucid', 'Arial', 'Helvetica', 'Avant Garde', sans-serif; fill: #212121" transform="translate(604.7 312.088356)">输出</text>
    <text style="font-weight: 700; font-size: 10px; font-family: 'Heiti SC', 'Arial Unicode MS', 'DejaVu Sans', 'Bitstream Vera Sans', 'Computer Modern Sans Serif', 'Lucida Grande', 'Verdana', 'Geneva', 'Lucid', 'Arial', 'Helvetica', 'Avant Garde', sans-serif; fill: #212121" transform="translate(570.759375 322.818044)">[B,S/tp,H] Shard(1)</text>
   </g>
   <g id="text_10">
    <text style="font-weight: 700; font-size: 13px; font-family: 'Heiti SC', 'Arial Unicode MS', 'DejaVu Sans', 'Bitstream Vera Sans', 'Computer Modern Sans Serif', 'Lucida Grande', 'Verdana', 'Geneva', 'Lucid', 'Arial', 'Helvetica', 'Avant Garde', sans-serif; text-anchor: middle" x="614.7" y="18.38" transform="rotate(-0 614.7 18.38)">序列并行</text>
   </g>
  </g>
  <g id="text_11">
   <g id="patch_18">
    <path d="M 396.4 196.2 
L 424.4 196.2 
Q 430 196.2 430 190.6 
L 430 176.6 
Q 430 171 424.4 171 
L 396.4 171 
Q 390.8 171 390.8 176.6 
L 390.8 190.6 
Q 390.8 196.2 396.4 196.2 
z
" style="fill: #fff9c4; stroke: #f9a825; stroke-width: 2; stroke-linejoin: miter"/>
   </g>
   <text style="font-weight: 700; font-size: 14px; font-family: 'Heiti SC', 'Arial Unicode MS', 'DejaVu Sans', 'Bitstream Vera Sans', 'Computer Modern Sans Serif', 'Lucida Grande', 'Verdana', 'Geneva', 'Lucid', 'Arial', 'Helvetica', 'Avant Garde', sans-serif; text-anchor: middle; fill: #424242" x="410.4" y="188.64" transform="rotate(-0 410.4 188.64)">进化</text>
  </g>
 </g>
 <defs>
  <clipPath id="p02c7b8206a">
   <rect x="7.2" y="30.38" width="397.8" height="329.62"/>
  </clipPath>
  <clipPath id="pee62940ed9">
   <rect x="415.8" y="30.38" width="397.8" height="329.62"/>
  </clipPath>
 </defs>
</svg>
