<?xml version="1.0" encoding="utf-8" standalone="no"?>
<!DOCTYPE svg PUBLIC "-//W3C//DTD SVG 1.1//EN"
  "http://www.w3.org/Graphics/SVG/1.1/DTD/svg11.dtd">
<svg xmlns:xlink="http://www.w3.org/1999/xlink" width="856.8pt" height="424.6pt" viewBox="0 0 856.8 424.6" xmlns="http://www.w3.org/2000/svg" version="1.1">
 <metadata>
  <rdf:RDF xmlns:dc="http://purl.org/dc/elements/1.1/" xmlns:cc="http://creativecommons.org/ns#" xmlns:rdf="http://www.w3.org/1999/02/22-rdf-syntax-ns#">
   <cc:Work>
    <dc:type rdf:resource="http://purl.org/dc/dcmitype/StillImage"/>
    <dc:date>2026-07-13T11:07:55.640217</dc:date>
    <dc:format>image/svg+xml</dc:format>
    <dc:creator>
     <cc:Agent>
      <dc:title>Matplotlib v3.11.0, https://matplotlib.org/</dc:title>
     </cc:Agent>
    </dc:creator>
   </cc:Work>
  </rdf:RDF>
 </metadata>
 <defs>
  <style type="text/css">*{stroke-linejoin: round; stroke-linecap: butt}</style>
 </defs>
 <g id="figure_1">
  <g id="patch_1">
   <path d="M 0 424.6 
L 856.8 424.6 
L 856.8 0 
L 0 0 
z
" style="fill: #ffffff"/>
  </g>
  <g id="axes_1">
   <g id="patch_2">
    <path d="M 39.6 216.684308 
L 169.2 216.684308 
Q 172.44 216.684308 172.44 213.775385 
L 172.44 155.596923 
Q 172.44 152.688 169.2 152.688 
L 39.6 152.688 
Q 36.36 152.688 36.36 155.596923 
L 36.36 213.775385 
Q 36.36 216.684308 39.6 216.684308 
z
" clip-path="url(#p149a8be0f6)" style="fill: #e3f2fd; stroke: #1565c0; stroke-width: 2; stroke-linejoin: miter"/>
   </g>
   <g id="patch_3">
    <path d="M 234 274.862769 
L 350.64 274.862769 
Q 353.88 274.862769 353.88 271.953846 
L 353.88 97.418462 
Q 353.88 94.509538 350.64 94.509538 
L 234 94.509538 
Q 230.76 94.509538 230.76 97.418462 
L 230.76 271.953846 
Q 230.76 274.862769 234 274.862769 
z
" clip-path="url(#p149a8be0f6)" style="fill: #ffccbc; stroke: #d84315; stroke-width: 2; stroke-linejoin: miter"/>
   </g>
   <g id="patch_4">
    <path d="M 234 391.219692 
L 350.64 391.219692 
Q 353.88 391.219692 353.88 388.310769 
L 353.88 301.043077 
Q 353.88 298.134154 350.64 298.134154 
L 234 298.134154 
Q 230.76 298.134154 230.76 301.043077 
L 230.76 388.310769 
Q 230.76 391.219692 234 391.219692 
z
" clip-path="url(#p149a8be0f6)" style="fill: #fff3e0; stroke: #ef6c00; stroke-width: 2; stroke-linejoin: miter"/>
   </g>
   <g id="patch_5">
    <path d="M 376.56 274.862769 
L 493.2 274.862769 
Q 496.44 274.862769 496.44 271.953846 
L 496.44 97.418462 
Q 496.44 94.509538 493.2 94.509538 
L 376.56 94.509538 
Q 373.32 94.509538 373.32 97.418462 
L 373.32 271.953846 
Q 373.32 274.862769 376.56 274.862769 
z
" clip-path="url(#p149a8be0f6)" style="fill: #ffab91; stroke: #d84315; stroke-width: 2; stroke-linejoin: miter"/>
   </g>
   <g id="patch_6">
    <path d="M 376.56 391.219692 
L 493.2 391.219692 
Q 496.44 391.219692 496.44 388.310769 
L 496.44 301.043077 
Q 496.44 298.134154 493.2 298.134154 
L 376.56 298.134154 
Q 373.32 298.134154 373.32 301.043077 
L 373.32 388.310769 
Q 373.32 391.219692 376.56 391.219692 
z
" clip-path="url(#p149a8be0f6)" style="fill: #fff3e0; stroke: #ef6c00; stroke-width: 2; stroke-linejoin: miter"/>
   </g>
   <g id="patch_7">
    <path d="M 519.12 274.862769 
L 635.76 274.862769 
Q 639 274.862769 639 271.953846 
L 639 97.418462 
Q 639 94.509538 635.76 94.509538 
L 519.12 94.509538 
Q 515.88 94.509538 515.88 97.418462 
L 515.88 271.953846 
Q 515.88 274.862769 519.12 274.862769 
z
" clip-path="url(#p149a8be0f6)" style="fill: #ff8a65; stroke: #d84315; stroke-width: 2; stroke-linejoin: miter"/>
   </g>
   <g id="patch_8">
    <path d="M 519.12 391.219692 
L 635.76 391.219692 
Q 639 391.219692 639 388.310769 
L 639 301.043077 
Q 639 298.134154 635.76 298.134154 
L 519.12 298.134154 
Q 515.88 298.134154 515.88 301.043077 
L 515.88 388.310769 
Q 515.88 391.219692 519.12 391.219692 
z
" clip-path="url(#p149a8be0f6)" style="fill: #fff3e0; stroke: #ef6c00; stroke-width: 2; stroke-linejoin: miter"/>
   </g>
   <g id="patch_9">
    <path d="M 661.68 274.862769 
L 778.32 274.862769 
Q 781.56 274.862769 781.56 271.953846 
L 781.56 97.418462 
Q 781.56 94.509538 778.32 94.509538 
L 661.68 94.509538 
Q 658.44 94.509538 658.44 97.418462 
L 658.44 271.953846 
Q 658.44 274.862769 661.68 274.862769 
z
" clip-path="url(#p149a8be0f6)" style="fill: #ff7043; stroke: #d84315; stroke-width: 2; stroke-linejoin: miter"/>
   </g>
   <g id="patch_10">
    <path d="M 661.68 391.219692 
L 778.32 391.219692 
Q 781.56 391.219692 781.56 388.310769 
L 781.56 301.043077 
Q 781.56 298.134154 778.32 298.134154 
L 661.68 298.134154 
Q 658.44 298.134154 658.44 301.043077 
L 658.44 388.310769 
Q 658.44 391.219692 661.68 391.219692 
z
" clip-path="url(#p149a8be0f6)" style="fill: #fff3e0; stroke: #ef6c00; stroke-width: 2; stroke-linejoin: miter"/>
   </g>
   <g id="text_1">
    <!-- 输入 x -->
    <g transform="translate(90.75 177.77131) scale(0.1 -0.1)">
     <defs>
      <path id="STHeitiSC-Medium-8a9" d="M 5747 2758 
Q 5709 2726 5699 2672 
Q 5690 2618 5690 2522 
L 5690 51 
Q 5690 -102 5674 -201 
Q 5658 -301 5584 -371 
Q 5510 -442 5363 -493 
Q 5216 -544 4960 -602 
Q 4941 -493 4880 -345 
Q 4819 -198 4736 -115 
Q 4915 -141 5020 -141 
Q 5126 -141 5180 -105 
Q 5235 -70 5248 6 
Q 5261 83 5261 218 
L 5261 1894 
Q 5261 2259 5241 2528 
Q 5222 2797 5197 2925 
Q 5312 2899 5462 2886 
Q 5613 2874 5702 2880 
Q 5901 2893 5747 2758 
z
M 4941 2541 
Q 4909 2522 4899 2470 
Q 4890 2419 4890 2349 
L 4890 1190 
Q 4890 832 4928 403 
L 4429 403 
Q 4448 627 4457 816 
Q 4467 1005 4467 1190 
L 4467 2003 
Q 4467 2234 4457 2397 
Q 4448 2560 4422 2694 
Q 4570 2662 4691 2656 
Q 4813 2650 4909 2662 
Q 4992 2675 5001 2630 
Q 5011 2586 4941 2541 
z
M 1350 2342 
Q 1350 2573 1350 2717 
Q 1350 2861 1347 2953 
Q 1344 3046 1337 3100 
Q 1331 3155 1325 3200 
Q 1421 3174 1561 3158 
Q 1702 3142 1811 3155 
Q 1875 3162 1878 3117 
Q 1882 3072 1830 3046 
Q 1773 3008 1773 2867 
L 1773 2387 
Q 2054 2426 2202 2470 
L 2202 1990 
Q 2022 2016 1773 2010 
L 1773 1133 
Q 1920 1184 2057 1232 
Q 2195 1280 2278 1318 
Q 2272 1274 2265 1206 
Q 2259 1139 2259 1068 
Q 2259 998 2259 931 
Q 2259 864 2266 813 
Q 2163 813 2048 797 
Q 1933 781 1773 736 
Q 1773 384 1785 48 
Q 1798 -288 1818 -602 
L 1293 -602 
Q 1318 -307 1331 -12 
Q 1344 282 1350 608 
Q 1043 518 838 448 
Q 634 378 518 326 
Q 486 461 432 605 
Q 378 749 320 845 
Q 518 851 761 892 
Q 1005 934 1350 1018 
L 1350 1984 
Q 1088 1965 864 1923 
Q 640 1882 506 1824 
Q 474 1926 413 2057 
Q 352 2189 275 2298 
Q 365 2336 432 2403 
Q 499 2470 569 2627 
Q 640 2784 729 3075 
Q 819 3366 954 3859 
Q 774 3853 665 3843 
Q 557 3834 467 3821 
L 467 4307 
Q 563 4288 691 4278 
Q 819 4269 1043 4262 
Q 1094 4518 1116 4752 
Q 1139 4986 1133 5152 
Q 1210 5126 1302 5104 
Q 1395 5082 1484 5062 
Q 1574 5043 1651 5030 
Q 1728 5018 1773 5018 
Q 1837 5018 1843 4992 
Q 1850 4966 1786 4928 
Q 1734 4896 1670 4749 
Q 1606 4602 1498 4262 
Q 1805 4262 1974 4275 
Q 2144 4288 2259 4307 
L 2259 3821 
Q 2138 3840 1939 3853 
Q 1741 3866 1370 3866 
L 877 2298 
L 1350 2342 
z
M 2963 653 
L 2963 -454 
L 2483 -454 
Q 2515 -198 2528 51 
Q 2541 301 2541 493 
L 2541 2374 
Q 2541 2496 2528 2656 
Q 2515 2816 2496 2912 
Q 2829 2874 3296 2874 
Q 3398 2874 3513 2877 
Q 3629 2880 3737 2886 
Q 3846 2893 3945 2899 
Q 4045 2906 4115 2912 
Q 4102 2829 4092 2685 
Q 4083 2541 4083 2374 
L 4083 141 
Q 4083 -38 4070 -153 
Q 4058 -269 3994 -345 
Q 3930 -422 3805 -467 
Q 3680 -512 3462 -550 
Q 3450 -435 3398 -310 
Q 3347 -186 3277 -77 
Q 3405 -96 3481 -93 
Q 3558 -90 3600 -51 
Q 3642 -13 3654 70 
Q 3667 154 3667 301 
L 3667 653 
L 2963 653 
z
M 3667 1952 
L 3667 2490 
L 2963 2490 
L 2963 1952 
L 3667 1952 
z
M 2963 1574 
L 2963 1024 
L 3667 1024 
L 3667 1574 
L 2963 1574 
z
M 4691 3245 
Q 4550 3270 4387 3283 
Q 4224 3296 3955 3296 
Q 3686 3296 3539 3283 
Q 3392 3270 3251 3245 
L 3251 3738 
Q 3398 3712 3542 3699 
Q 3686 3686 3955 3686 
Q 4186 3686 4336 3696 
Q 4486 3706 4614 3725 
Q 4192 4090 3910 4582 
Q 3712 4320 3529 4099 
Q 3347 3878 3161 3676 
Q 2976 3475 2774 3283 
Q 2573 3091 2342 2886 
Q 2272 2970 2150 3066 
Q 2029 3162 1939 3194 
Q 2400 3488 2851 3993 
Q 3302 4499 3667 5203 
Q 3795 5152 3968 5104 
Q 4141 5056 4250 5050 
Q 4307 5043 4316 5004 
Q 4326 4966 4282 4941 
L 4166 4864 
Q 4365 4557 4582 4339 
Q 4800 4122 5043 3971 
Q 5286 3821 5552 3728 
Q 5818 3635 6118 3578 
Q 6003 3488 5900 3331 
Q 5798 3174 5754 3059 
Q 5184 3258 4691 3661 
L 4691 3245 
z
" transform="scale(0.015625)"/>
      <path id="STHeitiSC-Medium-24d" d="M 2842 3834 
Q 2637 4096 2403 4301 
Q 2170 4506 1933 4634 
L 2374 5069 
Q 2707 4800 2944 4557 
Q 3181 4314 3350 4061 
Q 3520 3808 3645 3523 
Q 3770 3238 3885 2874 
Q 4077 2285 4269 1881 
Q 4461 1478 4704 1184 
Q 4947 890 5264 678 
Q 5581 467 6022 262 
Q 5824 96 5715 -41 
Q 5606 -179 5498 -378 
Q 5101 -102 4813 154 
Q 4525 410 4301 733 
Q 4077 1056 3891 1488 
Q 3706 1920 3520 2541 
Q 3405 2918 3213 3277 
Q 3149 3008 3059 2733 
Q 2970 2458 2864 2198 
Q 2758 1939 2640 1699 
Q 2522 1459 2400 1267 
Q 2067 749 1686 326 
Q 1306 -96 934 -371 
Q 806 -224 678 -128 
Q 550 -32 371 38 
Q 614 186 825 349 
Q 1037 512 1225 697 
Q 1414 883 1590 1097 
Q 1766 1312 1933 1574 
Q 2093 1818 2240 2112 
Q 2387 2406 2508 2710 
Q 2630 3014 2716 3305 
Q 2803 3597 2842 3834 
z
" transform="scale(0.015625)"/>
      <path id="STHeitiSC-Medium-3" transform="scale(0.015625)"/>
      <path id="STHeitiSC-Medium-5a" d="M 3078 384 
L 2432 384 
L 1530 1766 
L 634 384 
L 0 384 
L 1210 2221 
L 122 3872 
L 762 3872 
L 1530 2682 
L 2291 3872 
L 2931 3872 
L 1850 2227 
L 3078 384 
z
" transform="scale(0.015625)"/>
     </defs>
     <use xlink:href="#STHeitiSC-Medium-8a9"/>
     <use xlink:href="#STHeitiSC-Medium-24d" transform="translate(100 0)"/>
     <use xlink:href="#STHeitiSC-Medium-3" transform="translate(200 0)"/>
     <use xlink:href="#STHeitiSC-Medium-5a" transform="translate(225 0)"/>
    </g>
    <!-- [batch, seq, hidden] -->
    <g transform="translate(55.014844 188.07131) scale(0.1 -0.1)">
     <defs>
      <path id="STHeitiSC-Medium-3d" d="M 2003 -672 
L 864 -672 
L 864 5370 
L 2003 5370 
L 2003 4838 
L 1389 4838 
L 1389 -154 
L 2003 -154 
L 2003 -672 
z
" transform="scale(0.015625)"/>
      <path id="STHeitiSC-Medium-44" d="M 992 3360 
Q 1536 3962 2297 3962 
Q 3059 3962 3580 3421 
Q 4102 2880 4102 2118 
Q 4102 1357 3571 813 
Q 3040 269 2288 269 
Q 1536 269 992 922 
L 992 384 
L 474 384 
L 474 5184 
L 992 5184 
L 992 3360 
z
M 2266 781 
Q 2810 781 3190 1184 
Q 3571 1587 3571 2128 
Q 3571 2669 3200 3072 
Q 2829 3475 2272 3475 
Q 1715 3475 1340 3097 
Q 966 2720 966 2147 
Q 966 1574 1344 1177 
Q 1722 781 2266 781 
z
" transform="scale(0.015625)"/>
      <path id="STHeitiSC-Medium-43" d="M 3917 384 
L 3398 384 
L 3398 896 
Q 2829 269 2086 269 
Q 1344 269 816 816 
Q 288 1363 288 2121 
Q 288 2880 819 3421 
Q 1350 3962 2115 3962 
Q 2880 3962 3398 3341 
L 3398 3872 
L 3917 3872 
L 3917 384 
z
M 2125 762 
Q 2656 762 3040 1146 
Q 3424 1530 3424 2102 
Q 3424 2675 3046 3062 
Q 2669 3450 2121 3450 
Q 1574 3450 1196 3050 
Q 819 2650 819 2106 
Q 819 1562 1203 1162 
Q 1587 762 2125 762 
z
" transform="scale(0.015625)"/>
      <path id="STHeitiSC-Medium-56" d="M 2048 3411 
L 1357 3411 
L 1357 966 
Q 1357 832 1395 803 
Q 1434 774 1587 774 
L 1894 774 
L 1894 320 
Q 1587 269 1427 269 
Q 1120 269 973 419 
Q 826 570 826 896 
L 826 3411 
L 224 3411 
L 224 3872 
L 826 3872 
L 826 5184 
L 1357 5184 
L 1357 3872 
L 2048 3872 
L 2048 3411 
z
" transform="scale(0.015625)"/>
      <path id="STHeitiSC-Medium-45" d="M 3853 1094 
Q 3578 691 3133 480 
Q 2688 269 2170 269 
Q 1363 269 822 800 
Q 282 1331 282 2099 
Q 282 2867 826 3414 
Q 1370 3962 2234 3962 
Q 2746 3962 3178 3738 
Q 3610 3514 3853 3110 
L 3437 2848 
Q 2970 3456 2214 3456 
Q 1619 3456 1216 3075 
Q 813 2694 813 2131 
Q 813 1568 1209 1165 
Q 1606 762 2214 762 
Q 2944 762 3443 1376 
L 3853 1094 
z
" transform="scale(0.015625)"/>
      <path id="STHeitiSC-Medium-4a" d="M 3501 384 
L 2970 384 
L 2970 2048 
Q 2970 2534 2941 2732 
Q 2912 2931 2809 3107 
Q 2707 3283 2531 3376 
Q 2355 3469 2108 3469 
Q 1862 3469 1638 3353 
Q 1414 3238 1254 3033 
Q 1094 2829 1033 2598 
Q 973 2368 973 1677 
L 973 384 
L 442 384 
L 442 5184 
L 973 5184 
L 973 3347 
Q 1491 3962 2202 3962 
Q 2579 3962 2886 3766 
Q 3194 3571 3347 3228 
Q 3501 2886 3501 2176 
L 3501 384 
z
" transform="scale(0.015625)"/>
      <path id="STHeitiSC-Medium-e" d="M 1408 1414 
L 736 154 
L 346 320 
L 902 1658 
L 1408 1414 
z
" transform="scale(0.015625)"/>
      <path id="STHeitiSC-Medium-55" d="M 2259 3462 
L 1920 3110 
Q 1542 3462 1229 3462 
Q 1030 3462 896 3337 
Q 762 3213 762 3030 
Q 762 2848 912 2710 
Q 1062 2573 1446 2371 
Q 1830 2170 2038 1926 
Q 2246 1683 2246 1331 
Q 2246 883 1936 576 
Q 1626 269 1171 269 
Q 538 269 115 806 
L 448 1178 
Q 794 774 1152 774 
Q 1395 774 1568 934 
Q 1741 1094 1741 1308 
Q 1741 1523 1584 1667 
Q 1427 1811 1046 2003 
Q 666 2195 470 2428 
Q 275 2662 275 3043 
Q 275 3424 553 3693 
Q 832 3962 1289 3962 
Q 1747 3962 2259 3462 
z
" transform="scale(0.015625)"/>
      <path id="STHeitiSC-Medium-47" d="M 3878 2035 
L 819 2035 
Q 851 1459 1206 1110 
Q 1562 762 2054 762 
Q 2893 762 3334 1587 
L 3782 1357 
Q 3482 800 3072 534 
Q 2662 269 2093 269 
Q 1306 269 794 809 
Q 282 1350 282 2112 
Q 282 2874 797 3418 
Q 1312 3962 2073 3962 
Q 2835 3962 3347 3446 
Q 3859 2931 3878 2035 
z
M 3290 2502 
Q 3194 2950 2854 3200 
Q 2515 3450 2074 3450 
Q 1178 3450 883 2502 
L 3290 2502 
z
" transform="scale(0.015625)"/>
      <path id="STHeitiSC-Medium-53" d="M 3917 -851 
L 3398 -851 
L 3398 896 
Q 2835 269 2086 269 
Q 1338 269 813 816 
Q 288 1363 288 2121 
Q 288 2880 819 3421 
Q 1350 3962 2112 3962 
Q 2874 3962 3398 3341 
L 3398 3872 
L 3917 3872 
L 3917 -851 
z
M 2118 762 
Q 2630 762 3030 1149 
Q 3430 1536 3430 2093 
Q 3430 2650 3056 3050 
Q 2682 3450 2131 3450 
Q 1581 3450 1200 3046 
Q 819 2643 819 2099 
Q 819 1555 1206 1158 
Q 1594 762 2118 762 
z
" transform="scale(0.015625)"/>
      <path id="STHeitiSC-Medium-4b" d="M 640 5184 
Q 813 5184 931 5065 
Q 1050 4947 1050 4777 
Q 1050 4608 931 4489 
Q 813 4371 643 4371 
Q 474 4371 355 4492 
Q 237 4614 237 4777 
Q 237 4941 355 5062 
Q 474 5184 640 5184 
z
M 909 384 
L 378 384 
L 378 3872 
L 909 3872 
L 909 384 
z
" transform="scale(0.015625)"/>
      <path id="STHeitiSC-Medium-46" d="M 3923 384 
L 3405 384 
L 3405 896 
Q 2835 269 2089 269 
Q 1344 269 819 813 
Q 294 1357 294 2118 
Q 294 2880 825 3421 
Q 1357 3962 2121 3962 
Q 2886 3962 3405 3341 
L 3405 5184 
L 3923 5184 
L 3923 384 
z
M 2131 762 
Q 2637 762 3033 1139 
Q 3430 1517 3430 2096 
Q 3430 2675 3062 3062 
Q 2694 3450 2134 3450 
Q 1574 3450 1200 3050 
Q 826 2650 826 2109 
Q 826 1568 1210 1165 
Q 1594 762 2131 762 
z
" transform="scale(0.015625)"/>
      <path id="STHeitiSC-Medium-50" d="M 3501 384 
L 2976 384 
L 2976 2048 
Q 2976 2624 2921 2832 
Q 2867 3040 2761 3184 
Q 2656 3328 2493 3398 
Q 2330 3469 2096 3469 
Q 1862 3469 1638 3353 
Q 1414 3238 1254 3033 
Q 1094 2829 1033 2598 
Q 973 2368 973 1677 
L 973 384 
L 442 384 
L 442 3872 
L 973 3872 
L 973 3347 
Q 1491 3962 2202 3962 
Q 2579 3962 2886 3766 
Q 3194 3571 3347 3228 
Q 3501 2886 3501 2176 
L 3501 384 
z
" transform="scale(0.015625)"/>
      <path id="STHeitiSC-Medium-3f" d="M 1382 -672 
L 243 -672 
L 243 -154 
L 858 -154 
L 858 4838 
L 243 4838 
L 243 5370 
L 1382 5370 
L 1382 -672 
z
" transform="scale(0.015625)"/>
     </defs>
     <use xlink:href="#STHeitiSC-Medium-3d"/>
     <use xlink:href="#STHeitiSC-Medium-44" transform="translate(35.09375 0)"/>
     <use xlink:href="#STHeitiSC-Medium-43" transform="translate(103.296875 0)"/>
     <use xlink:href="#STHeitiSC-Medium-56" transform="translate(171.59375 0)"/>
     <use xlink:href="#STHeitiSC-Medium-45" transform="translate(205.5 0)"/>
     <use xlink:href="#STHeitiSC-Medium-4a" transform="translate(270.203125 0)"/>
     <use xlink:href="#STHeitiSC-Medium-e" transform="translate(331.203125 0)"/>
     <use xlink:href="#STHeitiSC-Medium-3" transform="translate(358.90625 0)"/>
     <use xlink:href="#STHeitiSC-Medium-55" transform="translate(383.90625 0)"/>
     <use xlink:href="#STHeitiSC-Medium-47" transform="translate(422.703125 0)"/>
     <use xlink:href="#STHeitiSC-Medium-53" transform="translate(487.703125 0)"/>
     <use xlink:href="#STHeitiSC-Medium-e" transform="translate(555.90625 0)"/>
     <use xlink:href="#STHeitiSC-Medium-3" transform="translate(583.609375 0)"/>
     <use xlink:href="#STHeitiSC-Medium-4a" transform="translate(608.609375 0)"/>
     <use xlink:href="#STHeitiSC-Medium-4b" transform="translate(669.609375 0)"/>
     <use xlink:href="#STHeitiSC-Medium-46" transform="translate(689.609375 0)"/>
     <use xlink:href="#STHeitiSC-Medium-46" transform="translate(758.109375 0)"/>
     <use xlink:href="#STHeitiSC-Medium-47" transform="translate(826.609375 0)"/>
     <use xlink:href="#STHeitiSC-Medium-50" transform="translate(891.609375 0)"/>
     <use xlink:href="#STHeitiSC-Medium-3f" transform="translate(952.609375 0)"/>
    </g>
    <!-- (Replicate) -->
    <g transform="translate(77.41875 198.800998) scale(0.1 -0.1)">
     <defs>
      <path id="STHeitiSC-Medium-a" d="M 2048 5779 
Q 1709 5082 1526 4237 
Q 1344 3392 1344 2541 
Q 1344 877 1888 -442 
L 1312 -442 
Q 787 819 787 2483 
Q 787 4275 1440 5779 
L 2048 5779 
z
" transform="scale(0.015625)"/>
      <path id="STHeitiSC-Medium-34" d="M 3622 384 
L 2931 384 
L 1280 2522 
L 1088 2522 
L 1088 384 
L 538 384 
L 538 5069 
L 1498 5069 
Q 2266 5069 2554 5001 
Q 2842 4934 3053 4774 
Q 3264 4614 3385 4361 
Q 3507 4109 3507 3802 
Q 3507 3219 3110 2870 
Q 2714 2522 1965 2522 
L 3622 384 
z
M 1088 3059 
L 1837 3059 
Q 2400 3053 2669 3229 
Q 2938 3405 2938 3792 
Q 2938 4179 2675 4355 
Q 2413 4531 1856 4531 
L 1088 4531 
L 1088 3059 
z
" transform="scale(0.015625)"/>
      <path id="STHeitiSC-Medium-52" d="M 973 3341 
Q 1491 3962 2252 3962 
Q 3014 3962 3545 3421 
Q 4077 2880 4077 2118 
Q 4077 1357 3552 813 
Q 3027 269 2284 269 
Q 1542 269 973 896 
L 973 -851 
L 448 -851 
L 448 3872 
L 973 3872 
L 973 3341 
z
M 2253 762 
Q 2778 762 3165 1155 
Q 3552 1549 3552 2105 
Q 3552 2662 3171 3056 
Q 2790 3450 2240 3450 
Q 1690 3450 1315 3062 
Q 941 2675 941 2105 
Q 941 1536 1325 1149 
Q 1709 762 2253 762 
z
" transform="scale(0.015625)"/>
      <path id="STHeitiSC-Medium-4e" d="M 902 384 
L 378 384 
L 378 5184 
L 902 5184 
L 902 384 
z
" transform="scale(0.015625)"/>
      <path id="STHeitiSC-Medium-b" d="M 922 5779 
Q 1574 4275 1574 2483 
Q 1574 819 1050 -442 
L 474 -442 
Q 1018 877 1018 2541 
Q 1018 3392 835 4237 
Q 653 5082 314 5779 
L 922 5779 
z
" transform="scale(0.015625)"/>
     </defs>
     <use xlink:href="#STHeitiSC-Medium-a"/>
     <use xlink:href="#STHeitiSC-Medium-34" transform="translate(36.90625 0)"/>
     <use xlink:href="#STHeitiSC-Medium-47" transform="translate(97.609375 0)"/>
     <use xlink:href="#STHeitiSC-Medium-52" transform="translate(162.609375 0)"/>
     <use xlink:href="#STHeitiSC-Medium-4e" transform="translate(230.8125 0)"/>
     <use xlink:href="#STHeitiSC-Medium-4b" transform="translate(250.8125 0)"/>
     <use xlink:href="#STHeitiSC-Medium-45" transform="translate(270.8125 0)"/>
     <use xlink:href="#STHeitiSC-Medium-43" transform="translate(335.515625 0)"/>
     <use xlink:href="#STHeitiSC-Medium-56" transform="translate(403.8125 0)"/>
     <use xlink:href="#STHeitiSC-Medium-47" transform="translate(437.71875 0)"/>
     <use xlink:href="#STHeitiSC-Medium-b" transform="translate(502.71875 0)"/>
    </g>
   </g>
   <g id="text_2">
    <!-- GPU 0 -->
    <g transform="translate(277.704375 118.472) scale(0.1 -0.1)">
     <defs>
      <path id="STHeitiSC-Medium-29" d="M 5325 2675 
Q 5306 1536 4662 902 
Q 4019 269 2970 269 
Q 1766 269 1049 1008 
Q 333 1747 333 2739 
Q 333 3731 1049 4457 
Q 1766 5184 2899 5184 
Q 3514 5184 4042 4957 
Q 4570 4730 5075 4262 
L 4653 3859 
Q 4262 4237 3808 4438 
Q 3354 4640 2874 4640 
Q 2394 4640 1920 4384 
Q 1446 4128 1177 3693 
Q 909 3258 909 2752 
Q 909 1965 1501 1379 
Q 2093 794 2982 794 
Q 3642 794 4122 1155 
Q 4602 1517 4710 2144 
L 3251 2144 
L 3251 2675 
L 5325 2675 
z
" transform="scale(0.015625)"/>
      <path id="STHeitiSC-Medium-32" d="M 512 5069 
L 1472 5069 
Q 2291 5069 2547 5005 
Q 2803 4941 3017 4774 
Q 3232 4608 3353 4358 
Q 3475 4109 3475 3795 
Q 3475 3482 3356 3232 
Q 3238 2982 3017 2819 
Q 2797 2656 2477 2589 
Q 2157 2522 1344 2522 
L 1062 2522 
L 1062 384 
L 512 384 
L 512 5069 
z
M 1062 3053 
L 1792 3053 
Q 2438 3040 2672 3257 
Q 2906 3475 2906 3802 
Q 2906 4531 1830 4531 
L 1062 4531 
L 1062 3053 
z
" transform="scale(0.015625)"/>
      <path id="STHeitiSC-Medium-37" d="M 3661 2253 
Q 3661 1542 3517 1161 
Q 3373 781 3005 525 
Q 2637 269 2144 269 
Q 1754 269 1440 393 
Q 1126 518 918 745 
Q 710 973 620 1251 
Q 531 1530 531 2253 
L 531 5069 
L 1082 5069 
L 1082 2253 
Q 1082 1798 1107 1596 
Q 1133 1395 1254 1206 
Q 1376 1018 1603 906 
Q 1830 794 2118 794 
Q 2464 794 2717 995 
Q 2970 1197 3043 1462 
Q 3117 1728 3117 2253 
L 3117 5069 
L 3661 5069 
L 3661 2253 
z
" transform="scale(0.015625)"/>
      <path id="STHeitiSC-Medium-12" d="M 1747 5184 
Q 2502 5184 2944 4547 
Q 3386 3910 3386 2723 
Q 3386 1536 2938 902 
Q 2490 269 1738 269 
Q 986 269 573 893 
Q 160 1517 160 2729 
Q 160 3942 573 4563 
Q 986 5184 1747 5184 
z
M 1760 774 
Q 2285 774 2576 1283 
Q 2867 1792 2867 2726 
Q 2867 3661 2566 4160 
Q 2266 4659 1757 4659 
Q 1248 4659 966 4160 
Q 685 3661 685 2714 
Q 685 774 1760 774 
z
" transform="scale(0.015625)"/>
     </defs>
     <use xlink:href="#STHeitiSC-Medium-29"/>
     <use xlink:href="#STHeitiSC-Medium-32" transform="translate(87.203125 0)"/>
     <use xlink:href="#STHeitiSC-Medium-37" transform="translate(146.40625 0)"/>
     <use xlink:href="#STHeitiSC-Medium-3" transform="translate(211.90625 0)"/>
     <use xlink:href="#STHeitiSC-Medium-12" transform="translate(236.90625 0)"/>
    </g>
   </g>
   <g id="text_3">
    <!-- wq/wk/wv -->
    <g transform="translate(269.3475 153.019077) scale(0.09 -0.09)">
     <defs>
      <path id="STHeitiSC-Medium-59" d="M 5299 3872 
L 3808 269 
L 3674 269 
L 2650 2752 
L 1619 269 
L 1485 269 
L 19 3872 
L 563 3872 
L 1549 1363 
L 2586 3872 
L 2714 3872 
L 3744 1357 
L 4749 3872 
L 5299 3872 
z
" transform="scale(0.015625)"/>
      <path id="STHeitiSC-Medium-11" d="M 2675 5504 
L 736 77 
L 160 77 
L 2099 5504 
L 2675 5504 
z
" transform="scale(0.015625)"/>
      <path id="STHeitiSC-Medium-4d" d="M 3181 384 
L 2419 384 
L 781 1856 
L 781 384 
L 250 384 
L 250 5184 
L 781 5184 
L 781 2554 
L 2285 3866 
L 3072 3872 
L 1152 2208 
L 3181 384 
z
" transform="scale(0.015625)"/>
      <path id="STHeitiSC-Medium-58" d="M 3430 3872 
L 1837 269 
L 1709 269 
L 102 3872 
L 659 3872 
L 1766 1350 
L 2874 3872 
L 3430 3872 
z
" transform="scale(0.015625)"/>
     </defs>
     <use xlink:href="#STHeitiSC-Medium-59"/>
     <use xlink:href="#STHeitiSC-Medium-53" transform="translate(83.09375 0)"/>
     <use xlink:href="#STHeitiSC-Medium-11" transform="translate(151.296875 0)"/>
     <use xlink:href="#STHeitiSC-Medium-59" transform="translate(195 0)"/>
     <use xlink:href="#STHeitiSC-Medium-4d" transform="translate(278.09375 0)"/>
     <use xlink:href="#STHeitiSC-Medium-11" transform="translate(328.296875 0)"/>
     <use xlink:href="#STHeitiSC-Medium-59" transform="translate(372 0)"/>
     <use xlink:href="#STHeitiSC-Medium-58" transform="translate(455.09375 0)"/>
    </g>
   </g>
   <g id="text_4">
    <!-- ColwiseParallel -->
    <g style="fill: #d84315" transform="translate(263.336875 181.748308) scale(0.08 -0.08)">
     <defs>
      <path id="STHeitiSC-Medium-25" d="M 4909 1242 
Q 4154 269 2835 269 
Q 1722 269 1011 973 
Q 301 1677 301 2752 
Q 301 3418 630 3981 
Q 960 4544 1542 4864 
Q 2125 5184 2800 5184 
Q 3475 5184 4009 4925 
Q 4544 4666 4902 4166 
L 4480 3840 
Q 3814 4646 2835 4646 
Q 2035 4646 1456 4083 
Q 877 3520 877 2704 
Q 877 1888 1443 1341 
Q 2010 794 2912 794 
Q 3814 794 4480 1568 
L 4909 1242 
z
" transform="scale(0.015625)"/>
      <path id="STHeitiSC-Medium-51" d="M 2099 3962 
Q 2854 3962 3382 3418 
Q 3910 2874 3910 2112 
Q 3910 1350 3388 809 
Q 2867 269 2099 269 
Q 1331 269 806 809 
Q 282 1350 282 2112 
Q 282 2874 810 3418 
Q 1338 3962 2099 3962 
z
M 2099 774 
Q 2630 774 3004 1161 
Q 3379 1549 3379 2096 
Q 3379 2643 2998 3043 
Q 2618 3443 2096 3443 
Q 1574 3443 1196 3043 
Q 819 2643 819 2092 
Q 819 1542 1184 1158 
Q 1549 774 2099 774 
z
" transform="scale(0.015625)"/>
      <path id="STHeitiSC-Medium-54" d="M 1914 3821 
L 1638 3373 
Q 1530 3430 1427 3430 
Q 1229 3430 1069 3235 
Q 909 3040 829 2723 
Q 749 2406 749 1581 
L 749 384 
L 211 384 
L 211 3872 
L 749 3872 
L 749 3494 
Q 909 3731 1072 3846 
Q 1235 3962 1443 3962 
Q 1651 3962 1914 3821 
z
" transform="scale(0.015625)"/>
     </defs>
     <use xlink:href="#STHeitiSC-Medium-25"/>
     <use xlink:href="#STHeitiSC-Medium-51" transform="translate(81.296875 0)"/>
     <use xlink:href="#STHeitiSC-Medium-4e" transform="translate(146.796875 0)"/>
     <use xlink:href="#STHeitiSC-Medium-59" transform="translate(166.796875 0)"/>
     <use xlink:href="#STHeitiSC-Medium-4b" transform="translate(249.890625 0)"/>
     <use xlink:href="#STHeitiSC-Medium-55" transform="translate(269.890625 0)"/>
     <use xlink:href="#STHeitiSC-Medium-47" transform="translate(308.6875 0)"/>
     <use xlink:href="#STHeitiSC-Medium-32" transform="translate(373.6875 0)"/>
     <use xlink:href="#STHeitiSC-Medium-43" transform="translate(432.890625 0)"/>
     <use xlink:href="#STHeitiSC-Medium-54" transform="translate(501.1875 0)"/>
     <use xlink:href="#STHeitiSC-Medium-43" transform="translate(531.28125 0)"/>
     <use xlink:href="#STHeitiSC-Medium-4e" transform="translate(599.578125 0)"/>
     <use xlink:href="#STHeitiSC-Medium-4e" transform="translate(619.578125 0)"/>
     <use xlink:href="#STHeitiSC-Medium-47" transform="translate(639.578125 0)"/>
     <use xlink:href="#STHeitiSC-Medium-4e" transform="translate(704.578125 0)"/>
    </g>
   </g>
   <g id="text_5">
    <!-- q/k/v -->
    <g transform="translate(280.565156 223.822718) scale(0.09 -0.09)">
     <use xlink:href="#STHeitiSC-Medium-53"/>
     <use xlink:href="#STHeitiSC-Medium-11" transform="translate(68.203125 0)"/>
     <use xlink:href="#STHeitiSC-Medium-4d" transform="translate(111.90625 0)"/>
     <use xlink:href="#STHeitiSC-Medium-11" transform="translate(162.109375 0)"/>
     <use xlink:href="#STHeitiSC-Medium-58" transform="translate(205.8125 0)"/>
    </g>
    <!-- [0:H/4) -->
    <g transform="translate(277.806797 233.479436) scale(0.09 -0.09)">
     <defs>
      <path id="STHeitiSC-Medium-1c" d="M 966 4282 
Q 1146 4282 1270 4157 
Q 1395 4032 1395 3849 
Q 1395 3667 1273 3542 
Q 1152 3418 969 3418 
Q 787 3418 662 3542 
Q 538 3667 538 3846 
Q 538 4026 666 4154 
Q 794 4282 966 4282 
z
M 966 1478 
Q 1146 1478 1270 1353 
Q 1395 1229 1395 1046 
Q 1395 864 1270 739 
Q 1146 614 970 614 
Q 794 614 666 742 
Q 538 870 538 1049 
Q 538 1229 666 1353 
Q 794 1478 966 1478 
z
" transform="scale(0.015625)"/>
      <path id="STHeitiSC-Medium-2a" d="M 3859 384 
L 3309 384 
L 3309 2605 
L 1062 2605 
L 1062 384 
L 506 384 
L 506 5069 
L 1062 5069 
L 1062 3142 
L 3309 3142 
L 3309 5069 
L 3859 5069 
L 3859 384 
z
" transform="scale(0.015625)"/>
      <path id="STHeitiSC-Medium-16" d="M 3418 1453 
L 2861 1453 
L 2861 384 
L 2317 384 
L 2317 1453 
L 70 1453 
L 2701 5184 
L 2861 5184 
L 2861 1984 
L 3418 1984 
L 3418 1453 
z
M 2317 1984 
L 2317 3712 
L 1094 1984 
L 2317 1984 
z
" transform="scale(0.015625)"/>
     </defs>
     <use xlink:href="#STHeitiSC-Medium-3d"/>
     <use xlink:href="#STHeitiSC-Medium-12" transform="translate(35.09375 0)"/>
     <use xlink:href="#STHeitiSC-Medium-1c" transform="translate(90.5 0)"/>
     <use xlink:href="#STHeitiSC-Medium-2a" transform="translate(118.203125 0)"/>
     <use xlink:href="#STHeitiSC-Medium-11" transform="translate(186.5 0)"/>
     <use xlink:href="#STHeitiSC-Medium-16" transform="translate(230.203125 0)"/>
     <use xlink:href="#STHeitiSC-Medium-b" transform="translate(285.609375 0)"/>
    </g>
   </g>
   <g id="text_6">
    <!-- 本地 Attention -->
    <g transform="translate(265.39125 343.265048) scale(0.08 -0.08)">
     <defs>
      <path id="STHeitiSC-Medium-1d5" d="M 3507 877 
Q 3885 883 4163 892 
Q 4442 902 4640 928 
L 4640 371 
Q 4442 390 4150 403 
Q 3859 416 3507 422 
Q 3507 307 3513 166 
Q 3520 26 3526 -124 
Q 3533 -275 3542 -422 
Q 3552 -570 3565 -698 
L 2912 -698 
Q 2925 -570 2934 -422 
Q 2944 -275 2947 -124 
Q 2950 26 2953 166 
Q 2957 307 2957 422 
Q 2592 416 2288 403 
Q 1984 390 1779 371 
L 1779 928 
Q 1990 902 2291 892 
Q 2592 883 2957 877 
L 2957 3424 
L 2925 3424 
Q 2803 2970 2588 2512 
Q 2374 2054 2089 1628 
Q 1805 1203 1465 819 
Q 1126 435 755 128 
Q 653 262 496 384 
Q 339 506 218 557 
Q 1011 1056 1587 1750 
Q 2163 2445 2509 3424 
Q 1869 3418 1376 3408 
Q 883 3398 499 3366 
L 499 3962 
Q 960 3930 1552 3914 
Q 2144 3898 2957 3898 
L 2957 4224 
Q 2957 4666 2947 4886 
Q 2938 5107 2906 5229 
Q 2976 5216 3069 5206 
Q 3162 5197 3258 5190 
Q 3354 5184 3440 5184 
Q 3526 5184 3597 5190 
Q 3706 5203 3718 5155 
Q 3731 5107 3635 5050 
Q 3597 5030 3571 5001 
Q 3546 4973 3533 4918 
Q 3520 4864 3513 4777 
Q 3507 4691 3507 4550 
L 3507 3898 
Q 4275 3904 4848 3917 
Q 5421 3930 5856 3962 
L 5856 3366 
Q 5485 3392 5014 3405 
Q 4544 3418 3936 3424 
Q 4218 2464 4755 1824 
Q 5293 1184 6176 877 
Q 5997 755 5872 601 
Q 5747 448 5658 262 
Q 5267 512 4937 809 
Q 4608 1107 4345 1484 
Q 4083 1862 3881 2339 
Q 3680 2816 3552 3424 
L 3507 3424 
L 3507 877 
z
" transform="scale(0.015625)"/>
      <path id="STHeitiSC-Medium-15e" d="M 4282 3546 
Q 4486 3616 4684 3693 
Q 4883 3770 5062 3840 
Q 5242 3910 5386 3977 
Q 5530 4045 5626 4096 
L 5542 1875 
Q 5536 1702 5510 1590 
Q 5485 1478 5401 1392 
Q 5318 1306 5158 1235 
Q 4998 1165 4730 1088 
Q 4704 1254 4643 1411 
Q 4582 1568 4461 1715 
Q 4653 1696 4771 1702 
Q 4890 1709 4954 1741 
Q 5018 1773 5040 1833 
Q 5062 1894 5062 1984 
L 5101 3334 
L 4282 3053 
L 4282 1555 
Q 4282 1389 4291 1149 
Q 4301 909 4320 666 
L 3750 666 
Q 3776 902 3789 1145 
Q 3802 1389 3802 1555 
L 3802 2886 
L 3110 2643 
L 3110 544 
Q 3110 397 3123 310 
Q 3136 224 3184 173 
Q 3232 122 3315 99 
Q 3398 77 3546 70 
Q 3635 64 3801 67 
Q 3968 70 4160 73 
Q 4352 77 4544 86 
Q 4736 96 4877 109 
Q 5037 122 5136 157 
Q 5235 192 5296 285 
Q 5357 378 5395 538 
Q 5434 698 5472 966 
Q 5587 787 5737 700 
Q 5888 614 6067 589 
Q 5958 269 5884 89 
Q 5811 -90 5718 -182 
Q 5626 -275 5494 -310 
Q 5363 -346 5146 -365 
Q 4998 -378 4768 -390 
Q 4538 -403 4275 -409 
Q 4013 -416 3747 -416 
Q 3482 -416 3258 -410 
Q 3059 -403 2937 -368 
Q 2816 -333 2749 -253 
Q 2682 -173 2659 -38 
Q 2637 96 2637 301 
L 2637 2470 
Q 2451 2394 2329 2336 
Q 2208 2278 2138 2234 
L 1984 2797 
Q 2080 2816 2253 2864 
Q 2426 2912 2637 2982 
Q 2637 3206 2630 3446 
Q 2624 3686 2617 3897 
Q 2611 4109 2598 4265 
Q 2586 4422 2579 4486 
Q 2726 4461 2867 4454 
Q 3008 4448 3200 4461 
Q 3302 4474 3312 4416 
Q 3322 4358 3232 4326 
Q 3181 4301 3145 4227 
Q 3110 4154 3110 4096 
L 3110 3142 
L 3802 3379 
L 3802 4435 
Q 3802 4672 3782 4886 
Q 3763 5101 3731 5184 
Q 3917 5158 4057 5148 
Q 4198 5139 4371 5139 
Q 4499 5139 4505 5110 
Q 4512 5082 4416 5037 
Q 4346 5005 4314 4905 
Q 4282 4806 4282 4678 
L 4282 3546 
z
M 1472 902 
Q 1658 973 1837 1053 
Q 2016 1133 2221 1242 
Q 2170 1030 2182 899 
Q 2195 768 2272 646 
Q 2112 614 1885 531 
Q 1658 448 1418 339 
Q 1178 230 947 105 
Q 717 -19 550 -128 
Q 512 38 454 233 
Q 397 429 333 582 
Q 672 653 986 742 
L 986 2893 
Q 781 2893 617 2880 
Q 454 2867 326 2848 
L 326 3411 
Q 467 3386 624 3376 
Q 781 3366 986 3360 
Q 986 4122 970 4512 
Q 954 4902 922 5037 
Q 1184 4992 1530 4992 
Q 1606 4992 1616 4960 
Q 1626 4928 1555 4890 
Q 1510 4864 1491 4822 
Q 1472 4781 1472 4730 
L 1472 3360 
Q 1664 3366 1814 3376 
Q 1965 3386 2093 3411 
L 2093 2848 
Q 1965 2867 1814 2876 
Q 1664 2886 1472 2893 
L 1472 902 
z
" transform="scale(0.015625)"/>
      <path id="STHeitiSC-Medium-23" d="M 4646 384 
L 4064 384 
L 3341 1952 
L 1408 1952 
L 691 384 
L 83 384 
L 2298 5254 
L 2464 5254 
L 4646 384 
z
M 3091 2509 
L 2381 4090 
L 1664 2509 
L 3091 2509 
z
" transform="scale(0.015625)"/>
     </defs>
     <use xlink:href="#STHeitiSC-Medium-1d5"/>
     <use xlink:href="#STHeitiSC-Medium-15e" transform="translate(100 0)"/>
     <use xlink:href="#STHeitiSC-Medium-3" transform="translate(200 0)"/>
     <use xlink:href="#STHeitiSC-Medium-23" transform="translate(225 0)"/>
     <use xlink:href="#STHeitiSC-Medium-56" transform="translate(299 0)"/>
     <use xlink:href="#STHeitiSC-Medium-56" transform="translate(332.90625 0)"/>
     <use xlink:href="#STHeitiSC-Medium-47" transform="translate(366.8125 0)"/>
     <use xlink:href="#STHeitiSC-Medium-50" transform="translate(431.8125 0)"/>
     <use xlink:href="#STHeitiSC-Medium-56" transform="translate(492.8125 0)"/>
     <use xlink:href="#STHeitiSC-Medium-4b" transform="translate(526.71875 0)"/>
     <use xlink:href="#STHeitiSC-Medium-51" transform="translate(546.71875 0)"/>
     <use xlink:href="#STHeitiSC-Medium-50" transform="translate(612.21875 0)"/>
    </g>
    <!-- heads [0:H/4) -->
    <g transform="translate(266.355625 351.848798) scale(0.08 -0.08)">
     <use xlink:href="#STHeitiSC-Medium-4a"/>
     <use xlink:href="#STHeitiSC-Medium-47" transform="translate(61 0)"/>
     <use xlink:href="#STHeitiSC-Medium-43" transform="translate(126 0)"/>
     <use xlink:href="#STHeitiSC-Medium-46" transform="translate(194.296875 0)"/>
     <use xlink:href="#STHeitiSC-Medium-55" transform="translate(262.796875 0)"/>
     <use xlink:href="#STHeitiSC-Medium-3" transform="translate(301.59375 0)"/>
     <use xlink:href="#STHeitiSC-Medium-3d" transform="translate(326.59375 0)"/>
     <use xlink:href="#STHeitiSC-Medium-12" transform="translate(361.6875 0)"/>
     <use xlink:href="#STHeitiSC-Medium-1c" transform="translate(417.09375 0)"/>
     <use xlink:href="#STHeitiSC-Medium-2a" transform="translate(444.796875 0)"/>
     <use xlink:href="#STHeitiSC-Medium-11" transform="translate(513.09375 0)"/>
     <use xlink:href="#STHeitiSC-Medium-16" transform="translate(556.796875 0)"/>
     <use xlink:href="#STHeitiSC-Medium-b" transform="translate(612.203125 0)"/>
    </g>
   </g>
   <g id="patch_11">
    <path d="M 171.047817 183.927443 
Q 238.691295 155.950811 289.702384 105.816118 
" style="fill: none; stroke: #1565c0; stroke-width: 1.5; stroke-linecap: round"/>
    <path d="M 285.447649 107.193518 
L 289.702384 105.816118 
L 288.251464 110.046346 
" style="fill: none; stroke: #1565c0; stroke-width: 1.5; stroke-linecap: round"/>
   </g>
   <g id="patch_12">
    <path d="M 292.32 276.860168 
Q 292.32 287.952365 292.32 297.367512 
" style="fill: none; stroke: #ef6c00; stroke-width: 1.5; stroke-linecap: round"/>
    <path d="M 294.32 293.367512 
L 292.32 297.367512 
L 290.32 293.367512 
" style="fill: none; stroke: #ef6c00; stroke-width: 1.5; stroke-linecap: round"/>
   </g>
   <g id="text_7">
    <!-- GPU 1 -->
    <g transform="translate(420.264375 118.472) scale(0.1 -0.1)">
     <defs>
      <path id="STHeitiSC-Medium-13" d="M 2131 384 
L 1587 384 
L 1587 4531 
L 826 4531 
L 1158 5069 
L 2131 5069 
L 2131 384 
z
" transform="scale(0.015625)"/>
     </defs>
     <use xlink:href="#STHeitiSC-Medium-29"/>
     <use xlink:href="#STHeitiSC-Medium-32" transform="translate(87.203125 0)"/>
     <use xlink:href="#STHeitiSC-Medium-37" transform="translate(146.40625 0)"/>
     <use xlink:href="#STHeitiSC-Medium-3" transform="translate(211.90625 0)"/>
     <use xlink:href="#STHeitiSC-Medium-13" transform="translate(236.90625 0)"/>
    </g>
   </g>
   <g id="text_8">
    <!-- wq/wk/wv -->
    <g transform="translate(411.9075 153.019077) scale(0.09 -0.09)">
     <use xlink:href="#STHeitiSC-Medium-59"/>
     <use xlink:href="#STHeitiSC-Medium-53" transform="translate(83.09375 0)"/>
     <use xlink:href="#STHeitiSC-Medium-11" transform="translate(151.296875 0)"/>
     <use xlink:href="#STHeitiSC-Medium-59" transform="translate(195 0)"/>
     <use xlink:href="#STHeitiSC-Medium-4d" transform="translate(278.09375 0)"/>
     <use xlink:href="#STHeitiSC-Medium-11" transform="translate(328.296875 0)"/>
     <use xlink:href="#STHeitiSC-Medium-59" transform="translate(372 0)"/>
     <use xlink:href="#STHeitiSC-Medium-58" transform="translate(455.09375 0)"/>
    </g>
   </g>
   <g id="text_9">
    <!-- ColwiseParallel -->
    <g style="fill: #d84315" transform="translate(405.896875 181.748308) scale(0.08 -0.08)">
     <use xlink:href="#STHeitiSC-Medium-25"/>
     <use xlink:href="#STHeitiSC-Medium-51" transform="translate(81.296875 0)"/>
     <use xlink:href="#STHeitiSC-Medium-4e" transform="translate(146.796875 0)"/>
     <use xlink:href="#STHeitiSC-Medium-59" transform="translate(166.796875 0)"/>
     <use xlink:href="#STHeitiSC-Medium-4b" transform="translate(249.890625 0)"/>
     <use xlink:href="#STHeitiSC-Medium-55" transform="translate(269.890625 0)"/>
     <use xlink:href="#STHeitiSC-Medium-47" transform="translate(308.6875 0)"/>
     <use xlink:href="#STHeitiSC-Medium-32" transform="translate(373.6875 0)"/>
     <use xlink:href="#STHeitiSC-Medium-43" transform="translate(432.890625 0)"/>
     <use xlink:href="#STHeitiSC-Medium-54" transform="translate(501.1875 0)"/>
     <use xlink:href="#STHeitiSC-Medium-43" transform="translate(531.28125 0)"/>
     <use xlink:href="#STHeitiSC-Medium-4e" transform="translate(599.578125 0)"/>
     <use xlink:href="#STHeitiSC-Medium-4e" transform="translate(619.578125 0)"/>
     <use xlink:href="#STHeitiSC-Medium-47" transform="translate(639.578125 0)"/>
     <use xlink:href="#STHeitiSC-Medium-4e" transform="translate(704.578125 0)"/>
    </g>
   </g>
   <g id="text_10">
    <!-- q/k/v -->
    <g transform="translate(423.125156 223.822718) scale(0.09 -0.09)">
     <use xlink:href="#STHeitiSC-Medium-53"/>
     <use xlink:href="#STHeitiSC-Medium-11" transform="translate(68.203125 0)"/>
     <use xlink:href="#STHeitiSC-Medium-4d" transform="translate(111.90625 0)"/>
     <use xlink:href="#STHeitiSC-Medium-11" transform="translate(162.109375 0)"/>
     <use xlink:href="#STHeitiSC-Medium-58" transform="translate(205.8125 0)"/>
    </g>
    <!-- [H/4:H/2) -->
    <g transform="translate(415.326797 233.479436) scale(0.09 -0.09)">
     <defs>
      <path id="STHeitiSC-Medium-14" d="M 3360 384 
L 90 384 
L 1914 2355 
Q 2374 2842 2566 3123 
Q 2758 3405 2758 3763 
Q 2758 4122 2480 4390 
Q 2202 4659 1789 4659 
Q 1376 4659 1101 4368 
Q 826 4077 787 3539 
L 256 3539 
Q 288 4294 736 4739 
Q 1184 5184 1821 5184 
Q 2458 5184 2877 4771 
Q 3296 4358 3296 3763 
Q 3296 3328 3065 2950 
Q 2835 2573 2368 2074 
L 1293 915 
L 3360 915 
L 3360 384 
z
" transform="scale(0.015625)"/>
     </defs>
     <use xlink:href="#STHeitiSC-Medium-3d"/>
     <use xlink:href="#STHeitiSC-Medium-2a" transform="translate(35.09375 0)"/>
     <use xlink:href="#STHeitiSC-Medium-11" transform="translate(103.390625 0)"/>
     <use xlink:href="#STHeitiSC-Medium-16" transform="translate(147.09375 0)"/>
     <use xlink:href="#STHeitiSC-Medium-1c" transform="translate(202.5 0)"/>
     <use xlink:href="#STHeitiSC-Medium-2a" transform="translate(230.203125 0)"/>
     <use xlink:href="#STHeitiSC-Medium-11" transform="translate(298.5 0)"/>
     <use xlink:href="#STHeitiSC-Medium-14" transform="translate(342.203125 0)"/>
     <use xlink:href="#STHeitiSC-Medium-b" transform="translate(397.609375 0)"/>
    </g>
   </g>
   <g id="text_11">
    <!-- 本地 Attention -->
    <g transform="translate(407.95125 343.265048) scale(0.08 -0.08)">
     <use xlink:href="#STHeitiSC-Medium-1d5"/>
     <use xlink:href="#STHeitiSC-Medium-15e" transform="translate(100 0)"/>
     <use xlink:href="#STHeitiSC-Medium-3" transform="translate(200 0)"/>
     <use xlink:href="#STHeitiSC-Medium-23" transform="translate(225 0)"/>
     <use xlink:href="#STHeitiSC-Medium-56" transform="translate(299 0)"/>
     <use xlink:href="#STHeitiSC-Medium-56" transform="translate(332.90625 0)"/>
     <use xlink:href="#STHeitiSC-Medium-47" transform="translate(366.8125 0)"/>
     <use xlink:href="#STHeitiSC-Medium-50" transform="translate(431.8125 0)"/>
     <use xlink:href="#STHeitiSC-Medium-56" transform="translate(492.8125 0)"/>
     <use xlink:href="#STHeitiSC-Medium-4b" transform="translate(526.71875 0)"/>
     <use xlink:href="#STHeitiSC-Medium-51" transform="translate(546.71875 0)"/>
     <use xlink:href="#STHeitiSC-Medium-50" transform="translate(612.21875 0)"/>
    </g>
    <!-- heads [H/4:H/2) -->
    <g transform="translate(404.435625 351.848798) scale(0.08 -0.08)">
     <use xlink:href="#STHeitiSC-Medium-4a"/>
     <use xlink:href="#STHeitiSC-Medium-47" transform="translate(61 0)"/>
     <use xlink:href="#STHeitiSC-Medium-43" transform="translate(126 0)"/>
     <use xlink:href="#STHeitiSC-Medium-46" transform="translate(194.296875 0)"/>
     <use xlink:href="#STHeitiSC-Medium-55" transform="translate(262.796875 0)"/>
     <use xlink:href="#STHeitiSC-Medium-3" transform="translate(301.59375 0)"/>
     <use xlink:href="#STHeitiSC-Medium-3d" transform="translate(326.59375 0)"/>
     <use xlink:href="#STHeitiSC-Medium-2a" transform="translate(361.6875 0)"/>
     <use xlink:href="#STHeitiSC-Medium-11" transform="translate(429.984375 0)"/>
     <use xlink:href="#STHeitiSC-Medium-16" transform="translate(473.6875 0)"/>
     <use xlink:href="#STHeitiSC-Medium-1c" transform="translate(529.09375 0)"/>
     <use xlink:href="#STHeitiSC-Medium-2a" transform="translate(556.796875 0)"/>
     <use xlink:href="#STHeitiSC-Medium-11" transform="translate(625.09375 0)"/>
     <use xlink:href="#STHeitiSC-Medium-14" transform="translate(668.796875 0)"/>
     <use xlink:href="#STHeitiSC-Medium-b" transform="translate(724.203125 0)"/>
    </g>
   </g>
   <g id="patch_13">
    <path d="M 171.191254 184.48347 
Q 310.073474 170.156202 431.644177 104.974312 
" style="fill: none; stroke: #1565c0; stroke-width: 1.5; stroke-linecap: round"/>
    <path d="M 427.173858 105.101801 
L 431.644177 104.974312 
L 429.063977 108.62706 
" style="fill: none; stroke: #1565c0; stroke-width: 1.5; stroke-linecap: round"/>
   </g>
   <g id="patch_14">
    <path d="M 434.88 276.860168 
Q 434.88 287.952365 434.88 297.367512 
" style="fill: none; stroke: #ef6c00; stroke-width: 1.5; stroke-linecap: round"/>
    <path d="M 436.88 293.367512 
L 434.88 297.367512 
L 432.88 293.367512 
" style="fill: none; stroke: #ef6c00; stroke-width: 1.5; stroke-linecap: round"/>
   </g>
   <g id="text_12">
    <!-- GPU 2 -->
    <g transform="translate(562.824375 118.472) scale(0.1 -0.1)">
     <use xlink:href="#STHeitiSC-Medium-29"/>
     <use xlink:href="#STHeitiSC-Medium-32" transform="translate(87.203125 0)"/>
     <use xlink:href="#STHeitiSC-Medium-37" transform="translate(146.40625 0)"/>
     <use xlink:href="#STHeitiSC-Medium-3" transform="translate(211.90625 0)"/>
     <use xlink:href="#STHeitiSC-Medium-14" transform="translate(236.90625 0)"/>
    </g>
   </g>
   <g id="text_13">
    <!-- wq/wk/wv -->
    <g transform="translate(554.4675 153.019077) scale(0.09 -0.09)">
     <use xlink:href="#STHeitiSC-Medium-59"/>
     <use xlink:href="#STHeitiSC-Medium-53" transform="translate(83.09375 0)"/>
     <use xlink:href="#STHeitiSC-Medium-11" transform="translate(151.296875 0)"/>
     <use xlink:href="#STHeitiSC-Medium-59" transform="translate(195 0)"/>
     <use xlink:href="#STHeitiSC-Medium-4d" transform="translate(278.09375 0)"/>
     <use xlink:href="#STHeitiSC-Medium-11" transform="translate(328.296875 0)"/>
     <use xlink:href="#STHeitiSC-Medium-59" transform="translate(372 0)"/>
     <use xlink:href="#STHeitiSC-Medium-58" transform="translate(455.09375 0)"/>
    </g>
   </g>
   <g id="text_14">
    <!-- ColwiseParallel -->
    <g style="fill: #d84315" transform="translate(548.456875 181.748308) scale(0.08 -0.08)">
     <use xlink:href="#STHeitiSC-Medium-25"/>
     <use xlink:href="#STHeitiSC-Medium-51" transform="translate(81.296875 0)"/>
     <use xlink:href="#STHeitiSC-Medium-4e" transform="translate(146.796875 0)"/>
     <use xlink:href="#STHeitiSC-Medium-59" transform="translate(166.796875 0)"/>
     <use xlink:href="#STHeitiSC-Medium-4b" transform="translate(249.890625 0)"/>
     <use xlink:href="#STHeitiSC-Medium-55" transform="translate(269.890625 0)"/>
     <use xlink:href="#STHeitiSC-Medium-47" transform="translate(308.6875 0)"/>
     <use xlink:href="#STHeitiSC-Medium-32" transform="translate(373.6875 0)"/>
     <use xlink:href="#STHeitiSC-Medium-43" transform="translate(432.890625 0)"/>
     <use xlink:href="#STHeitiSC-Medium-54" transform="translate(501.1875 0)"/>
     <use xlink:href="#STHeitiSC-Medium-43" transform="translate(531.28125 0)"/>
     <use xlink:href="#STHeitiSC-Medium-4e" transform="translate(599.578125 0)"/>
     <use xlink:href="#STHeitiSC-Medium-4e" transform="translate(619.578125 0)"/>
     <use xlink:href="#STHeitiSC-Medium-47" transform="translate(639.578125 0)"/>
     <use xlink:href="#STHeitiSC-Medium-4e" transform="translate(704.578125 0)"/>
    </g>
   </g>
   <g id="text_15">
    <!-- q/k/v -->
    <g transform="translate(565.685156 223.822718) scale(0.09 -0.09)">
     <use xlink:href="#STHeitiSC-Medium-53"/>
     <use xlink:href="#STHeitiSC-Medium-11" transform="translate(68.203125 0)"/>
     <use xlink:href="#STHeitiSC-Medium-4d" transform="translate(111.90625 0)"/>
     <use xlink:href="#STHeitiSC-Medium-11" transform="translate(162.109375 0)"/>
     <use xlink:href="#STHeitiSC-Medium-58" transform="translate(205.8125 0)"/>
    </g>
    <!-- [H/2:3H/4) -->
    <g transform="translate(555.393516 233.479436) scale(0.09 -0.09)">
     <defs>
      <path id="STHeitiSC-Medium-15" d="M 2554 3021 
Q 2931 2835 3139 2508 
Q 3347 2182 3347 1798 
Q 3347 1171 2889 720 
Q 2432 269 1734 269 
Q 1107 269 707 630 
Q 307 992 166 1702 
L 710 1702 
Q 832 1248 1072 1027 
Q 1312 806 1757 806 
Q 2202 806 2502 1084 
Q 2803 1363 2803 1785 
Q 2803 2208 2460 2457 
Q 2118 2707 1453 2720 
L 1453 3232 
Q 1933 3232 2227 3437 
Q 2522 3642 2522 3946 
Q 2522 4250 2294 4451 
Q 2067 4653 1744 4653 
Q 1421 4653 1219 4470 
Q 1018 4288 877 3917 
L 320 3917 
Q 461 4531 832 4857 
Q 1203 5184 1747 5184 
Q 2291 5184 2691 4825 
Q 3091 4467 3091 3955 
Q 3091 3366 2554 3021 
z
" transform="scale(0.015625)"/>
     </defs>
     <use xlink:href="#STHeitiSC-Medium-3d"/>
     <use xlink:href="#STHeitiSC-Medium-2a" transform="translate(35.09375 0)"/>
     <use xlink:href="#STHeitiSC-Medium-11" transform="translate(103.390625 0)"/>
     <use xlink:href="#STHeitiSC-Medium-14" transform="translate(147.09375 0)"/>
     <use xlink:href="#STHeitiSC-Medium-1c" transform="translate(202.5 0)"/>
     <use xlink:href="#STHeitiSC-Medium-15" transform="translate(230.203125 0)"/>
     <use xlink:href="#STHeitiSC-Medium-2a" transform="translate(285.609375 0)"/>
     <use xlink:href="#STHeitiSC-Medium-11" transform="translate(353.90625 0)"/>
     <use xlink:href="#STHeitiSC-Medium-16" transform="translate(397.609375 0)"/>
     <use xlink:href="#STHeitiSC-Medium-b" transform="translate(453.015625 0)"/>
    </g>
   </g>
   <g id="text_16">
    <!-- 本地 Attention -->
    <g transform="translate(550.51125 343.265048) scale(0.08 -0.08)">
     <use xlink:href="#STHeitiSC-Medium-1d5"/>
     <use xlink:href="#STHeitiSC-Medium-15e" transform="translate(100 0)"/>
     <use xlink:href="#STHeitiSC-Medium-3" transform="translate(200 0)"/>
     <use xlink:href="#STHeitiSC-Medium-23" transform="translate(225 0)"/>
     <use xlink:href="#STHeitiSC-Medium-56" transform="translate(299 0)"/>
     <use xlink:href="#STHeitiSC-Medium-56" transform="translate(332.90625 0)"/>
     <use xlink:href="#STHeitiSC-Medium-47" transform="translate(366.8125 0)"/>
     <use xlink:href="#STHeitiSC-Medium-50" transform="translate(431.8125 0)"/>
     <use xlink:href="#STHeitiSC-Medium-56" transform="translate(492.8125 0)"/>
     <use xlink:href="#STHeitiSC-Medium-4b" transform="translate(526.71875 0)"/>
     <use xlink:href="#STHeitiSC-Medium-51" transform="translate(546.71875 0)"/>
     <use xlink:href="#STHeitiSC-Medium-50" transform="translate(612.21875 0)"/>
    </g>
    <!-- heads [H/2:3H/4) -->
    <g transform="translate(544.779375 351.848798) scale(0.08 -0.08)">
     <use xlink:href="#STHeitiSC-Medium-4a"/>
     <use xlink:href="#STHeitiSC-Medium-47" transform="translate(61 0)"/>
     <use xlink:href="#STHeitiSC-Medium-43" transform="translate(126 0)"/>
     <use xlink:href="#STHeitiSC-Medium-46" transform="translate(194.296875 0)"/>
     <use xlink:href="#STHeitiSC-Medium-55" transform="translate(262.796875 0)"/>
     <use xlink:href="#STHeitiSC-Medium-3" transform="translate(301.59375 0)"/>
     <use xlink:href="#STHeitiSC-Medium-3d" transform="translate(326.59375 0)"/>
     <use xlink:href="#STHeitiSC-Medium-2a" transform="translate(361.6875 0)"/>
     <use xlink:href="#STHeitiSC-Medium-11" transform="translate(429.984375 0)"/>
     <use xlink:href="#STHeitiSC-Medium-14" transform="translate(473.6875 0)"/>
     <use xlink:href="#STHeitiSC-Medium-1c" transform="translate(529.09375 0)"/>
     <use xlink:href="#STHeitiSC-Medium-15" transform="translate(556.796875 0)"/>
     <use xlink:href="#STHeitiSC-Medium-2a" transform="translate(612.203125 0)"/>
     <use xlink:href="#STHeitiSC-Medium-11" transform="translate(680.5 0)"/>
     <use xlink:href="#STHeitiSC-Medium-16" transform="translate(724.203125 0)"/>
     <use xlink:href="#STHeitiSC-Medium-b" transform="translate(779.609375 0)"/>
    </g>
   </g>
   <g id="patch_15">
    <path d="M 171.198044 184.685277 
Q 381.38692 184.402698 574.041863 104.645075 
" style="fill: none; stroke: #1565c0; stroke-width: 1.5; stroke-linecap: round"/>
    <path d="M 569.581038 104.327206 
L 574.041863 104.645075 
L 571.111073 108.023014 
" style="fill: none; stroke: #1565c0; stroke-width: 1.5; stroke-linecap: round"/>
   </g>
   <g id="patch_16">
    <path d="M 577.44 276.860168 
Q 577.44 287.952365 577.44 297.367512 
" style="fill: none; stroke: #ef6c00; stroke-width: 1.5; stroke-linecap: round"/>
    <path d="M 579.44 293.367512 
L 577.44 297.367512 
L 575.44 293.367512 
" style="fill: none; stroke: #ef6c00; stroke-width: 1.5; stroke-linecap: round"/>
   </g>
   <g id="text_17">
    <!-- GPU 3 -->
    <g transform="translate(705.384375 118.472) scale(0.1 -0.1)">
     <use xlink:href="#STHeitiSC-Medium-29"/>
     <use xlink:href="#STHeitiSC-Medium-32" transform="translate(87.203125 0)"/>
     <use xlink:href="#STHeitiSC-Medium-37" transform="translate(146.40625 0)"/>
     <use xlink:href="#STHeitiSC-Medium-3" transform="translate(211.90625 0)"/>
     <use xlink:href="#STHeitiSC-Medium-15" transform="translate(236.90625 0)"/>
    </g>
   </g>
   <g id="text_18">
    <!-- wq/wk/wv -->
    <g transform="translate(697.0275 153.019077) scale(0.09 -0.09)">
     <use xlink:href="#STHeitiSC-Medium-59"/>
     <use xlink:href="#STHeitiSC-Medium-53" transform="translate(83.09375 0)"/>
     <use xlink:href="#STHeitiSC-Medium-11" transform="translate(151.296875 0)"/>
     <use xlink:href="#STHeitiSC-Medium-59" transform="translate(195 0)"/>
     <use xlink:href="#STHeitiSC-Medium-4d" transform="translate(278.09375 0)"/>
     <use xlink:href="#STHeitiSC-Medium-11" transform="translate(328.296875 0)"/>
     <use xlink:href="#STHeitiSC-Medium-59" transform="translate(372 0)"/>
     <use xlink:href="#STHeitiSC-Medium-58" transform="translate(455.09375 0)"/>
    </g>
   </g>
   <g id="text_19">
    <!-- ColwiseParallel -->
    <g style="fill: #d84315" transform="translate(691.016875 181.748308) scale(0.08 -0.08)">
     <use xlink:href="#STHeitiSC-Medium-25"/>
     <use xlink:href="#STHeitiSC-Medium-51" transform="translate(81.296875 0)"/>
     <use xlink:href="#STHeitiSC-Medium-4e" transform="translate(146.796875 0)"/>
     <use xlink:href="#STHeitiSC-Medium-59" transform="translate(166.796875 0)"/>
     <use xlink:href="#STHeitiSC-Medium-4b" transform="translate(249.890625 0)"/>
     <use xlink:href="#STHeitiSC-Medium-55" transform="translate(269.890625 0)"/>
     <use xlink:href="#STHeitiSC-Medium-47" transform="translate(308.6875 0)"/>
     <use xlink:href="#STHeitiSC-Medium-32" transform="translate(373.6875 0)"/>
     <use xlink:href="#STHeitiSC-Medium-43" transform="translate(432.890625 0)"/>
     <use xlink:href="#STHeitiSC-Medium-54" transform="translate(501.1875 0)"/>
     <use xlink:href="#STHeitiSC-Medium-43" transform="translate(531.28125 0)"/>
     <use xlink:href="#STHeitiSC-Medium-4e" transform="translate(599.578125 0)"/>
     <use xlink:href="#STHeitiSC-Medium-4e" transform="translate(619.578125 0)"/>
     <use xlink:href="#STHeitiSC-Medium-47" transform="translate(639.578125 0)"/>
     <use xlink:href="#STHeitiSC-Medium-4e" transform="translate(704.578125 0)"/>
    </g>
   </g>
   <g id="text_20">
    <!-- q/k/v -->
    <g transform="translate(708.245156 223.822718) scale(0.09 -0.09)">
     <use xlink:href="#STHeitiSC-Medium-53"/>
     <use xlink:href="#STHeitiSC-Medium-11" transform="translate(68.203125 0)"/>
     <use xlink:href="#STHeitiSC-Medium-4d" transform="translate(111.90625 0)"/>
     <use xlink:href="#STHeitiSC-Medium-11" transform="translate(162.109375 0)"/>
     <use xlink:href="#STHeitiSC-Medium-58" transform="translate(205.8125 0)"/>
    </g>
    <!-- [3H/4:H) -->
    <g transform="translate(702.413438 233.479436) scale(0.09 -0.09)">
     <use xlink:href="#STHeitiSC-Medium-3d"/>
     <use xlink:href="#STHeitiSC-Medium-15" transform="translate(35.09375 0)"/>
     <use xlink:href="#STHeitiSC-Medium-2a" transform="translate(90.5 0)"/>
     <use xlink:href="#STHeitiSC-Medium-11" transform="translate(158.796875 0)"/>
     <use xlink:href="#STHeitiSC-Medium-16" transform="translate(202.5 0)"/>
     <use xlink:href="#STHeitiSC-Medium-1c" transform="translate(257.90625 0)"/>
     <use xlink:href="#STHeitiSC-Medium-2a" transform="translate(285.609375 0)"/>
     <use xlink:href="#STHeitiSC-Medium-b" transform="translate(353.90625 0)"/>
    </g>
   </g>
   <g id="text_21">
    <!-- 本地 Attention -->
    <g transform="translate(693.07125 343.265048) scale(0.08 -0.08)">
     <use xlink:href="#STHeitiSC-Medium-1d5"/>
     <use xlink:href="#STHeitiSC-Medium-15e" transform="translate(100 0)"/>
     <use xlink:href="#STHeitiSC-Medium-3" transform="translate(200 0)"/>
     <use xlink:href="#STHeitiSC-Medium-23" transform="translate(225 0)"/>
     <use xlink:href="#STHeitiSC-Medium-56" transform="translate(299 0)"/>
     <use xlink:href="#STHeitiSC-Medium-56" transform="translate(332.90625 0)"/>
     <use xlink:href="#STHeitiSC-Medium-47" transform="translate(366.8125 0)"/>
     <use xlink:href="#STHeitiSC-Medium-50" transform="translate(431.8125 0)"/>
     <use xlink:href="#STHeitiSC-Medium-56" transform="translate(492.8125 0)"/>
     <use xlink:href="#STHeitiSC-Medium-4b" transform="translate(526.71875 0)"/>
     <use xlink:href="#STHeitiSC-Medium-51" transform="translate(546.71875 0)"/>
     <use xlink:href="#STHeitiSC-Medium-50" transform="translate(612.21875 0)"/>
    </g>
    <!-- heads [3H/4:H) -->
    <g transform="translate(691.30375 351.848798) scale(0.08 -0.08)">
     <use xlink:href="#STHeitiSC-Medium-4a"/>
     <use xlink:href="#STHeitiSC-Medium-47" transform="translate(61 0)"/>
     <use xlink:href="#STHeitiSC-Medium-43" transform="translate(126 0)"/>
     <use xlink:href="#STHeitiSC-Medium-46" transform="translate(194.296875 0)"/>
     <use xlink:href="#STHeitiSC-Medium-55" transform="translate(262.796875 0)"/>
     <use xlink:href="#STHeitiSC-Medium-3" transform="translate(301.59375 0)"/>
     <use xlink:href="#STHeitiSC-Medium-3d" transform="translate(326.59375 0)"/>
     <use xlink:href="#STHeitiSC-Medium-15" transform="translate(361.6875 0)"/>
     <use xlink:href="#STHeitiSC-Medium-2a" transform="translate(417.09375 0)"/>
     <use xlink:href="#STHeitiSC-Medium-11" transform="translate(485.390625 0)"/>
     <use xlink:href="#STHeitiSC-Medium-16" transform="translate(529.09375 0)"/>
     <use xlink:href="#STHeitiSC-Medium-1c" transform="translate(584.5 0)"/>
     <use xlink:href="#STHeitiSC-Medium-2a" transform="translate(612.203125 0)"/>
     <use xlink:href="#STHeitiSC-Medium-b" transform="translate(680.5 0)"/>
    </g>
   </g>
   <g id="patch_17">
    <path d="M 171.194339 184.785769 
Q 452.687088 198.655105 716.538885 104.47319 
" style="fill: none; stroke: #1565c0; stroke-width: 1.5; stroke-linecap: round"/>
    <path d="M 712.099337 103.934293 
L 716.538885 104.47319 
L 713.444038 107.70149 
" style="fill: none; stroke: #1565c0; stroke-width: 1.5; stroke-linecap: round"/>
   </g>
   <g id="patch_18">
    <path d="M 720 276.860168 
Q 720 287.952365 720 297.367512 
" style="fill: none; stroke: #ef6c00; stroke-width: 1.5; stroke-linecap: round"/>
    <path d="M 722 293.367512 
L 720 297.367512 
L 718 293.367512 
" style="fill: none; stroke: #ef6c00; stroke-width: 1.5; stroke-linecap: round"/>
   </g>
   <g id="text_22">
    <!-- Attention q/k/v: ColwiseParallel -->
    <g transform="translate(322.579687 19.24) scale(0.14 -0.14)">
     <use xlink:href="#STHeitiSC-Medium-23"/>
     <use xlink:href="#STHeitiSC-Medium-56" transform="translate(74 0)"/>
     <use xlink:href="#STHeitiSC-Medium-56" transform="translate(107.90625 0)"/>
     <use xlink:href="#STHeitiSC-Medium-47" transform="translate(141.8125 0)"/>
     <use xlink:href="#STHeitiSC-Medium-50" transform="translate(206.8125 0)"/>
     <use xlink:href="#STHeitiSC-Medium-56" transform="translate(267.8125 0)"/>
     <use xlink:href="#STHeitiSC-Medium-4b" transform="translate(301.71875 0)"/>
     <use xlink:href="#STHeitiSC-Medium-51" transform="translate(321.71875 0)"/>
     <use xlink:href="#STHeitiSC-Medium-50" transform="translate(387.21875 0)"/>
     <use xlink:href="#STHeitiSC-Medium-3" transform="translate(448.21875 0)"/>
     <use xlink:href="#STHeitiSC-Medium-53" transform="translate(473.21875 0)"/>
     <use xlink:href="#STHeitiSC-Medium-11" transform="translate(541.421875 0)"/>
     <use xlink:href="#STHeitiSC-Medium-4d" transform="translate(585.125 0)"/>
     <use xlink:href="#STHeitiSC-Medium-11" transform="translate(635.328125 0)"/>
     <use xlink:href="#STHeitiSC-Medium-58" transform="translate(679.03125 0)"/>
     <use xlink:href="#STHeitiSC-Medium-1c" transform="translate(734.4375 0)"/>
     <use xlink:href="#STHeitiSC-Medium-3" transform="translate(762.140625 0)"/>
     <use xlink:href="#STHeitiSC-Medium-25" transform="translate(787.140625 0)"/>
     <use xlink:href="#STHeitiSC-Medium-51" transform="translate(868.4375 0)"/>
     <use xlink:href="#STHeitiSC-Medium-4e" transform="translate(933.9375 0)"/>
     <use xlink:href="#STHeitiSC-Medium-59" transform="translate(953.9375 0)"/>
     <use xlink:href="#STHeitiSC-Medium-4b" transform="translate(1037.03125 0)"/>
     <use xlink:href="#STHeitiSC-Medium-55" transform="translate(1057.03125 0)"/>
     <use xlink:href="#STHeitiSC-Medium-47" transform="translate(1095.828125 0)"/>
     <use xlink:href="#STHeitiSC-Medium-32" transform="translate(1160.828125 0)"/>
     <use xlink:href="#STHeitiSC-Medium-43" transform="translate(1220.03125 0)"/>
     <use xlink:href="#STHeitiSC-Medium-54" transform="translate(1288.328125 0)"/>
     <use xlink:href="#STHeitiSC-Medium-43" transform="translate(1318.421875 0)"/>
     <use xlink:href="#STHeitiSC-Medium-4e" transform="translate(1386.71875 0)"/>
     <use xlink:href="#STHeitiSC-Medium-4e" transform="translate(1406.71875 0)"/>
     <use xlink:href="#STHeitiSC-Medium-47" transform="translate(1426.71875 0)"/>
     <use xlink:href="#STHeitiSC-Medium-4e" transform="translate(1491.71875 0)"/>
    </g>
   </g>
  </g>
 </g>
 <defs>
  <clipPath id="p149a8be0f6">
   <rect x="7.2" y="39.24" width="842.4" height="378.16"/>
  </clipPath>
 </defs>
</svg>
