<?xml version="1.0" encoding="utf-8" standalone="no"?>
<!DOCTYPE svg PUBLIC "-//W3C//DTD SVG 1.1//EN"
  "http://www.w3.org/Graphics/SVG/1.1/DTD/svg11.dtd">
<svg xmlns:xlink="http://www.w3.org/1999/xlink" width="856.8pt" height="316.8pt" viewBox="0 0 856.8 316.8" xmlns="http://www.w3.org/2000/svg" version="1.1">
 <metadata>
  <rdf:RDF xmlns:dc="http://purl.org/dc/elements/1.1/" xmlns:cc="http://creativecommons.org/ns#" xmlns:rdf="http://www.w3.org/1999/02/22-rdf-syntax-ns#">
   <cc:Work>
    <dc:type rdf:resource="http://purl.org/dc/dcmitype/StillImage"/>
    <dc:date>2026-07-13T11:07:56.058734</dc:date>
    <dc:format>image/svg+xml</dc:format>
    <dc:creator>
     <cc:Agent>
      <dc:title>Matplotlib v3.11.0, https://matplotlib.org/</dc:title>
     </cc:Agent>
    </dc:creator>
   </cc:Work>
  </rdf:RDF>
 </metadata>
 <defs>
  <style type="text/css">*{stroke-linejoin: round; stroke-linecap: butt}</style>
 </defs>
 <g id="figure_1">
  <g id="patch_1">
   <path d="M 0 316.8 
L 856.8 316.8 
L 856.8 0 
L 0 0 
z
" style="fill: #ffffff"/>
  </g>
  <g id="axes_1">
   <g id="patch_2">
    <path d="M 36.861972 244.190323 
L 155.509859 244.190323 
Q 158.476056 244.190323 158.476056 239.829677 
L 158.476056 109.010323 
Q 158.476056 104.649677 155.509859 104.649677 
L 36.861972 104.649677 
Q 33.895775 104.649677 33.895775 109.010323 
L 33.895775 239.829677 
Q 33.895775 244.190323 36.861972 244.190323 
z
" clip-path="url(#p9fe3a05919)" style="fill: #e3f2fd; stroke: #1565c0; stroke-width: 2; stroke-linejoin: miter"/>
   </g>
   <g id="patch_3">
    <path d="M 173.307042 244.190323 
L 291.95493 244.190323 
Q 294.921127 244.190323 294.921127 239.829677 
L 294.921127 109.010323 
Q 294.921127 104.649677 291.95493 104.649677 
L 173.307042 104.649677 
Q 170.340845 104.649677 170.340845 109.010323 
L 170.340845 239.829677 
Q 170.340845 244.190323 173.307042 244.190323 
z
" clip-path="url(#p9fe3a05919)" style="fill: #e3f2fd; stroke: #1565c0; stroke-width: 2; stroke-linejoin: miter"/>
   </g>
   <g id="patch_4">
    <path d="M 339.414085 270.354194 
L 517.385915 270.354194 
Q 520.352113 270.354194 520.352113 265.993548 
L 520.352113 91.567742 
Q 520.352113 87.207097 517.385915 87.207097 
L 339.414085 87.207097 
Q 336.447887 87.207097 336.447887 91.567742 
L 336.447887 265.993548 
Q 336.447887 270.354194 339.414085 270.354194 
z
" clip-path="url(#p9fe3a05919)" style="fill: #f3e5f5; stroke: #6a1b9a; stroke-width: 2; stroke-linejoin: miter"/>
   </g>
   <g id="patch_5">
    <path d="M 564.84507 244.190323 
L 683.492958 244.190323 
Q 686.459155 244.190323 686.459155 239.829677 
L 686.459155 109.010323 
Q 686.459155 104.649677 683.492958 104.649677 
L 564.84507 104.649677 
Q 561.878873 104.649677 561.878873 109.010323 
L 561.878873 239.829677 
Q 561.878873 244.190323 564.84507 244.190323 
z
" clip-path="url(#p9fe3a05919)" style="fill: #e8f5e9; stroke: #2e7d32; stroke-width: 2; stroke-linejoin: miter"/>
   </g>
   <g id="patch_6">
    <path d="M 701.290141 244.190323 
L 819.938028 244.190323 
Q 822.904225 244.190323 822.904225 239.829677 
L 822.904225 109.010323 
Q 822.904225 104.649677 819.938028 104.649677 
L 701.290141 104.649677 
Q 698.323944 104.649677 698.323944 109.010323 
L 698.323944 239.829677 
Q 698.323944 244.190323 701.290141 244.190323 
z
" clip-path="url(#p9fe3a05919)" style="fill: #e8f5e9; stroke: #2e7d32; stroke-width: 2; stroke-linejoin: miter"/>
   </g>
   <g id="text_1">
    <!-- 激活张量 -->
    <g transform="translate(78.185915 168.196641) scale(0.09 -0.09)">
     <defs>
      <path id="STHeitiSC-Medium-57a" d="M 3334 3354 
L 2342 3354 
L 2342 2912 
L 3334 2912 
L 3334 3354 
z
M 3334 4102 
L 2342 4102 
L 2342 3661 
L 3334 3661 
L 3334 4102 
z
M 1498 1523 
Q 1446 1331 1392 1100 
Q 1338 870 1267 512 
Q 1210 224 1146 -19 
Q 1082 -262 998 -550 
Q 870 -480 723 -403 
Q 576 -326 410 -256 
Q 506 -51 602 214 
Q 698 480 787 800 
Q 858 1037 915 1270 
Q 973 1504 1024 1786 
Q 1242 1606 1498 1523 
z
M 1293 2387 
Q 1088 2541 867 2685 
Q 646 2829 371 2957 
L 666 3398 
Q 877 3290 1129 3146 
Q 1382 3002 1587 2874 
L 1293 2387 
z
M 1363 3802 
Q 1197 4006 1024 4195 
Q 851 4384 659 4538 
L 1043 4883 
Q 1242 4730 1424 4554 
Q 1606 4378 1734 4218 
L 1363 3802 
z
M 2675 2042 
Q 2643 2131 2611 2214 
Q 2579 2298 2541 2374 
L 3046 2419 
Q 3078 2259 3162 2042 
Q 3405 2048 3590 2061 
Q 3776 2074 3930 2093 
L 3930 1638 
Q 3718 1670 3452 1680 
Q 3187 1690 2803 1690 
Q 2797 1600 2784 1491 
Q 2771 1382 2752 1267 
Q 3123 1267 3366 1273 
Q 3610 1280 3718 1293 
Q 3706 813 3683 531 
Q 3661 250 3577 90 
Q 3494 -70 3340 -150 
Q 3187 -230 2918 -307 
Q 2886 -173 2828 -35 
Q 2771 102 2701 224 
Q 2880 218 2985 234 
Q 3091 250 3145 317 
Q 3200 384 3219 515 
Q 3238 646 3238 877 
L 2675 877 
Q 2573 493 2358 144 
Q 2144 -205 1843 -442 
Q 1754 -358 1632 -278 
Q 1510 -198 1402 -141 
Q 1632 13 1805 185 
Q 1978 358 2090 572 
Q 2202 787 2259 1059 
Q 2317 1331 2323 1683 
Q 2118 1677 1958 1667 
Q 1798 1658 1658 1638 
L 1658 2093 
Q 1856 2061 2099 2051 
Q 2342 2042 2675 2042 
z
M 2464 4442 
Q 2502 4653 2512 4803 
Q 2522 4954 2509 5088 
Q 2637 5069 2803 5059 
Q 2970 5050 3072 5056 
Q 3130 5062 3133 5017 
Q 3136 4973 3085 4941 
Q 3059 4928 3017 4816 
Q 2976 4704 2899 4435 
Q 3238 4435 3459 4451 
Q 3680 4467 3763 4486 
Q 3750 4390 3740 4214 
Q 3731 4038 3731 3827 
L 3731 3187 
Q 3731 2970 3737 2797 
Q 3744 2624 3757 2515 
Q 3654 2541 3443 2557 
Q 3232 2573 2829 2573 
Q 2496 2573 2246 2557 
Q 1997 2541 1888 2515 
Q 1907 2643 1920 2803 
Q 1933 2963 1933 3187 
L 1933 3827 
Q 1933 4038 1923 4211 
Q 1914 4384 1894 4486 
Q 1984 4467 2105 4457 
Q 2227 4448 2464 4442 
z
M 4896 1203 
Q 5024 1530 5104 2077 
Q 5184 2624 5222 3456 
L 4646 3456 
Q 4557 3174 4400 2857 
Q 4243 2541 4051 2234 
Q 3968 2304 3894 2339 
Q 3821 2374 3725 2419 
Q 3891 2630 4028 2934 
Q 4166 3238 4268 3587 
Q 4371 3936 4428 4307 
Q 4486 4678 4493 5030 
Q 4646 4992 4822 4969 
Q 4998 4947 5114 4941 
Q 5197 4934 5203 4896 
Q 5210 4858 5107 4800 
Q 5088 4787 5065 4752 
Q 5043 4717 5008 4621 
Q 4973 4525 4918 4358 
Q 4864 4192 4787 3917 
Q 5107 3917 5312 3923 
Q 5517 3930 5651 3939 
Q 5786 3949 5869 3958 
Q 5952 3968 6022 3987 
L 6022 3430 
Q 5946 3443 5859 3446 
Q 5773 3450 5658 3456 
Q 5626 2982 5587 2592 
Q 5549 2202 5485 1872 
Q 5421 1542 5331 1267 
Q 5242 992 5120 755 
Q 5203 627 5315 499 
Q 5427 371 5552 259 
Q 5677 147 5798 60 
Q 5920 -26 6022 -64 
Q 5894 -186 5792 -310 
Q 5690 -435 5613 -544 
Q 5434 -397 5242 -185 
Q 5050 26 4858 333 
Q 4768 218 4643 74 
Q 4518 -70 4384 -211 
Q 4250 -352 4115 -477 
Q 3981 -602 3878 -678 
Q 3795 -595 3686 -512 
Q 3578 -429 3437 -346 
Q 3763 -173 4044 89 
Q 4326 352 4634 749 
Q 4474 1107 4371 1571 
Q 4269 2035 4275 2522 
L 4627 2611 
Q 4627 2304 4688 1929 
Q 4749 1555 4896 1203 
z
" transform="scale(0.015625)"/>
      <path id="STHeitiSC-Medium-19c" d="M 1651 1594 
Q 1581 1421 1507 1155 
Q 1434 890 1344 512 
Q 1274 230 1213 -99 
Q 1152 -429 1120 -717 
Q 934 -570 780 -464 
Q 627 -358 467 -269 
Q 563 -64 665 205 
Q 768 474 858 794 
Q 954 1126 1011 1382 
Q 1069 1638 1107 1920 
Q 1197 1805 1341 1715 
Q 1485 1626 1651 1594 
z
M 1389 2272 
Q 1293 2342 1155 2425 
Q 1018 2509 870 2585 
Q 723 2662 582 2726 
Q 442 2790 333 2829 
L 621 3296 
Q 890 3181 1181 3037 
Q 1472 2893 1677 2778 
L 1389 2272 
z
M 1645 3789 
Q 1562 3872 1443 3974 
Q 1325 4077 1187 4179 
Q 1050 4282 906 4374 
Q 762 4467 634 4531 
L 954 4973 
Q 1075 4896 1216 4809 
Q 1357 4723 1501 4630 
Q 1645 4538 1776 4451 
Q 1907 4365 2010 4294 
L 1645 3789 
z
M 4890 1510 
L 2925 1510 
L 2925 339 
L 4890 339 
L 4890 1510 
z
M 3584 4173 
Q 3251 4128 2947 4086 
Q 2643 4045 2419 4013 
Q 2387 4134 2329 4262 
Q 2272 4390 2182 4499 
Q 2323 4493 2540 4509 
Q 2758 4525 2992 4550 
Q 3226 4576 3450 4608 
Q 3674 4640 3821 4666 
Q 4301 4755 4662 4844 
Q 5024 4934 5229 5005 
Q 5254 4941 5296 4867 
Q 5338 4794 5379 4723 
Q 5421 4653 5462 4595 
Q 5504 4538 5536 4506 
Q 5677 4346 5530 4378 
Q 5434 4397 5005 4352 
Q 4838 4333 4608 4304 
Q 4378 4275 4115 4243 
L 4115 3270 
Q 4454 3270 4726 3273 
Q 4998 3277 5228 3283 
Q 5459 3290 5660 3302 
Q 5862 3315 6061 3328 
L 6061 2778 
Q 5862 2790 5660 2800 
Q 5459 2810 5228 2816 
Q 4998 2822 4726 2825 
Q 4454 2829 4115 2829 
L 4115 1971 
Q 4422 1971 4636 1977 
Q 4851 1984 5004 1990 
Q 5158 1997 5260 2003 
Q 5363 2010 5446 2022 
Q 5408 1754 5408 1402 
L 5408 64 
Q 5408 -128 5421 -285 
Q 5434 -442 5459 -640 
L 4890 -640 
L 4890 -115 
L 2925 -115 
L 2925 -646 
L 2355 -646 
Q 2387 -429 2396 -278 
Q 2406 -128 2406 64 
L 2406 1402 
Q 2406 1549 2396 1718 
Q 2387 1888 2362 2022 
Q 2451 2010 2553 2003 
Q 2656 1997 2793 1990 
Q 2931 1984 3123 1977 
Q 3315 1971 3584 1971 
L 3584 2829 
Q 3021 2822 2637 2812 
Q 2253 2803 1920 2778 
L 1920 3328 
Q 2093 3315 2272 3305 
Q 2451 3296 2649 3289 
Q 2848 3283 3075 3276 
Q 3302 3270 3584 3270 
L 3584 4173 
z
" transform="scale(0.015625)"/>
      <path id="STHeitiSC-Medium-2da" d="M 5344 4525 
Q 5235 4474 5132 4374 
Q 5030 4275 4896 4058 
Q 4691 3731 4499 3465 
Q 4307 3200 4141 3014 
Q 4032 3123 3923 3177 
Q 3814 3232 3686 3264 
Q 3994 3571 4278 3987 
Q 4563 4403 4755 4947 
Q 4896 4858 5072 4762 
Q 5248 4666 5344 4621 
Q 5459 4576 5344 4525 
z
M 2138 2931 
Q 2086 2938 1993 2941 
Q 1901 2944 1798 2944 
L 966 2944 
L 966 2003 
L 1728 2003 
Q 1856 2003 1974 2009 
Q 2093 2016 2157 2029 
Q 2144 1920 2134 1776 
Q 2125 1632 2112 1424 
Q 2099 1216 2086 931 
Q 2074 646 2061 262 
Q 2054 58 2016 -73 
Q 1978 -205 1862 -294 
Q 1747 -384 1532 -451 
Q 1318 -518 966 -589 
Q 954 -448 902 -320 
Q 851 -192 704 32 
Q 992 0 1161 6 
Q 1331 13 1424 64 
Q 1517 115 1549 227 
Q 1581 339 1594 518 
Q 1613 787 1619 1072 
Q 1626 1357 1626 1562 
L 870 1562 
Q 742 1562 617 1552 
Q 493 1542 435 1530 
Q 454 1722 464 1936 
Q 474 2150 486 2445 
Q 499 2714 496 2963 
Q 493 3213 480 3398 
Q 570 3386 675 3379 
Q 781 3373 909 3373 
L 1638 3373 
L 1638 4294 
L 838 4294 
Q 704 4294 598 4284 
Q 493 4275 365 4262 
L 365 4768 
Q 486 4755 732 4745 
Q 979 4736 1242 4736 
Q 1376 4736 1510 4739 
Q 1645 4742 1763 4745 
Q 1882 4749 1981 4755 
Q 2080 4762 2138 4768 
Q 2125 4582 2121 4329 
Q 2118 4077 2118 3853 
Q 2118 3584 2121 3366 
Q 2125 3149 2138 2931 
z
M 3443 2323 
L 3443 282 
Q 3590 390 3753 521 
Q 3917 653 4013 749 
Q 4032 589 4080 467 
Q 4128 346 4192 256 
L 3328 -365 
Q 3258 -416 3162 -509 
Q 3066 -602 2995 -704 
Q 2944 -557 2867 -445 
Q 2790 -333 2688 -218 
Q 2752 -179 2800 -131 
Q 2848 -83 2880 -6 
Q 2912 70 2928 188 
Q 2944 307 2944 493 
L 2944 2304 
Q 2746 2298 2576 2291 
Q 2406 2285 2253 2272 
L 2253 2803 
Q 2413 2790 2579 2780 
Q 2746 2771 2944 2765 
L 2944 4102 
Q 2944 4403 2937 4672 
Q 2931 4941 2918 5101 
Q 2995 5088 3078 5081 
Q 3162 5075 3242 5068 
Q 3322 5062 3389 5062 
Q 3456 5062 3501 5069 
Q 3667 5088 3565 4954 
Q 3507 4877 3475 4733 
Q 3443 4589 3443 4442 
L 3443 2752 
Q 3757 2746 4073 2746 
Q 4390 2746 4684 2752 
Q 4979 2758 5238 2771 
Q 5498 2784 5696 2803 
L 5696 2272 
Q 5427 2298 5116 2307 
Q 4806 2317 4365 2323 
Q 4442 1869 4592 1520 
Q 4742 1171 4953 915 
Q 5165 659 5437 486 
Q 5709 314 6035 218 
Q 5862 134 5740 -16 
Q 5619 -166 5530 -352 
Q 4826 96 4458 761 
Q 4090 1427 3949 2323 
L 3443 2323 
z
" transform="scale(0.015625)"/>
      <path id="STHeitiSC-Medium-294" d="M 5229 3315 
Q 5165 3322 5062 3328 
Q 4960 3334 4745 3337 
Q 4531 3341 4169 3344 
Q 3808 3347 3226 3347 
Q 2630 3347 2262 3344 
Q 1894 3341 1676 3337 
Q 1459 3334 1360 3328 
Q 1261 3322 1197 3315 
Q 1210 3520 1219 3712 
Q 1229 3904 1229 4102 
Q 1229 4320 1219 4502 
Q 1210 4685 1197 4870 
Q 1280 4858 1392 4848 
Q 1504 4838 1718 4835 
Q 1933 4832 2288 4829 
Q 2643 4826 3226 4826 
Q 3789 4826 4144 4829 
Q 4499 4832 4713 4838 
Q 4928 4845 5037 4851 
Q 5146 4858 5222 4870 
Q 5216 4685 5213 4502 
Q 5210 4320 5210 4102 
Q 5210 3917 5213 3712 
Q 5216 3507 5229 3315 
z
M 1690 3955 
L 1690 3629 
L 4742 3629 
L 4742 3955 
L 1690 3955 
z
M 4742 4224 
L 4742 4531 
L 1690 4531 
L 1690 4224 
L 4742 4224 
z
M 3398 1267 
L 4723 1267 
L 4723 1574 
L 3398 1574 
L 3398 1267 
z
M 2938 1574 
L 1670 1574 
L 1670 1267 
L 2938 1267 
L 2938 1574 
z
M 2938 2157 
L 1670 2157 
L 1670 1843 
L 2938 1843 
L 2938 2157 
z
M 3398 1843 
L 4723 1843 
L 4723 2157 
L 3398 2157 
L 3398 1843 
z
M 3398 -64 
Q 4211 -64 4809 -54 
Q 5408 -45 5875 -13 
L 5875 -448 
Q 5376 -422 4729 -412 
Q 4083 -403 3181 -403 
Q 2259 -403 1609 -412 
Q 960 -422 467 -448 
L 467 -13 
Q 928 -45 1523 -54 
Q 2118 -64 2938 -64 
L 2938 288 
Q 2285 282 1821 266 
Q 1357 250 986 218 
L 986 678 
Q 1370 646 1827 627 
Q 2285 608 2938 602 
L 2938 966 
Q 2534 966 2256 966 
Q 1978 966 1776 963 
Q 1574 960 1436 957 
Q 1299 954 1178 947 
Q 1197 1133 1203 1337 
Q 1210 1542 1210 1728 
Q 1210 1933 1203 2128 
Q 1197 2323 1178 2502 
Q 1267 2490 1376 2480 
Q 1485 2470 1696 2467 
Q 1907 2464 2265 2461 
Q 2624 2458 3206 2458 
Q 3776 2458 4131 2461 
Q 4486 2464 4700 2470 
Q 4915 2477 5024 2483 
Q 5133 2490 5210 2502 
Q 5190 2144 5190 1728 
Q 5190 1542 5196 1347 
Q 5203 1152 5216 947 
Q 5120 954 5005 957 
Q 4890 960 4694 963 
Q 4499 966 4192 966 
Q 3885 966 3398 966 
L 3398 602 
Q 4070 602 4534 621 
Q 4998 640 5363 678 
L 5363 218 
Q 4992 250 4528 269 
Q 4064 288 3398 288 
L 3398 -64 
z
M 5952 2682 
Q 5440 2707 4784 2720 
Q 4128 2733 3206 2733 
Q 2733 2733 2339 2729 
Q 1946 2726 1610 2720 
Q 1274 2714 986 2704 
Q 698 2694 448 2682 
L 448 3110 
Q 704 3098 992 3091 
Q 1280 3085 1616 3078 
Q 1952 3072 2342 3069 
Q 2733 3066 3206 3066 
Q 4128 3066 4784 3075 
Q 5440 3085 5952 3110 
L 5952 2682 
z
" transform="scale(0.015625)"/>
     </defs>
     <use xlink:href="#STHeitiSC-Medium-57a"/>
     <use xlink:href="#STHeitiSC-Medium-19c" transform="translate(100 0)"/>
     <use xlink:href="#STHeitiSC-Medium-2da" transform="translate(200 0)"/>
     <use xlink:href="#STHeitiSC-Medium-294" transform="translate(300 0)"/>
    </g>
    <!-- [batch, seq, hidden] -->
    <g transform="translate(51.739275 177.466641) scale(0.09 -0.09)">
     <defs>
      <path id="STHeitiSC-Medium-3d" d="M 2003 -672 
L 864 -672 
L 864 5370 
L 2003 5370 
L 2003 4838 
L 1389 4838 
L 1389 -154 
L 2003 -154 
L 2003 -672 
z
" transform="scale(0.015625)"/>
      <path id="STHeitiSC-Medium-44" d="M 992 3360 
Q 1536 3962 2297 3962 
Q 3059 3962 3580 3421 
Q 4102 2880 4102 2118 
Q 4102 1357 3571 813 
Q 3040 269 2288 269 
Q 1536 269 992 922 
L 992 384 
L 474 384 
L 474 5184 
L 992 5184 
L 992 3360 
z
M 2266 781 
Q 2810 781 3190 1184 
Q 3571 1587 3571 2128 
Q 3571 2669 3200 3072 
Q 2829 3475 2272 3475 
Q 1715 3475 1340 3097 
Q 966 2720 966 2147 
Q 966 1574 1344 1177 
Q 1722 781 2266 781 
z
" transform="scale(0.015625)"/>
      <path id="STHeitiSC-Medium-43" d="M 3917 384 
L 3398 384 
L 3398 896 
Q 2829 269 2086 269 
Q 1344 269 816 816 
Q 288 1363 288 2121 
Q 288 2880 819 3421 
Q 1350 3962 2115 3962 
Q 2880 3962 3398 3341 
L 3398 3872 
L 3917 3872 
L 3917 384 
z
M 2125 762 
Q 2656 762 3040 1146 
Q 3424 1530 3424 2102 
Q 3424 2675 3046 3062 
Q 2669 3450 2121 3450 
Q 1574 3450 1196 3050 
Q 819 2650 819 2106 
Q 819 1562 1203 1162 
Q 1587 762 2125 762 
z
" transform="scale(0.015625)"/>
      <path id="STHeitiSC-Medium-56" d="M 2048 3411 
L 1357 3411 
L 1357 966 
Q 1357 832 1395 803 
Q 1434 774 1587 774 
L 1894 774 
L 1894 320 
Q 1587 269 1427 269 
Q 1120 269 973 419 
Q 826 570 826 896 
L 826 3411 
L 224 3411 
L 224 3872 
L 826 3872 
L 826 5184 
L 1357 5184 
L 1357 3872 
L 2048 3872 
L 2048 3411 
z
" transform="scale(0.015625)"/>
      <path id="STHeitiSC-Medium-45" d="M 3853 1094 
Q 3578 691 3133 480 
Q 2688 269 2170 269 
Q 1363 269 822 800 
Q 282 1331 282 2099 
Q 282 2867 826 3414 
Q 1370 3962 2234 3962 
Q 2746 3962 3178 3738 
Q 3610 3514 3853 3110 
L 3437 2848 
Q 2970 3456 2214 3456 
Q 1619 3456 1216 3075 
Q 813 2694 813 2131 
Q 813 1568 1209 1165 
Q 1606 762 2214 762 
Q 2944 762 3443 1376 
L 3853 1094 
z
" transform="scale(0.015625)"/>
      <path id="STHeitiSC-Medium-4a" d="M 3501 384 
L 2970 384 
L 2970 2048 
Q 2970 2534 2941 2732 
Q 2912 2931 2809 3107 
Q 2707 3283 2531 3376 
Q 2355 3469 2108 3469 
Q 1862 3469 1638 3353 
Q 1414 3238 1254 3033 
Q 1094 2829 1033 2598 
Q 973 2368 973 1677 
L 973 384 
L 442 384 
L 442 5184 
L 973 5184 
L 973 3347 
Q 1491 3962 2202 3962 
Q 2579 3962 2886 3766 
Q 3194 3571 3347 3228 
Q 3501 2886 3501 2176 
L 3501 384 
z
" transform="scale(0.015625)"/>
      <path id="STHeitiSC-Medium-e" d="M 1408 1414 
L 736 154 
L 346 320 
L 902 1658 
L 1408 1414 
z
" transform="scale(0.015625)"/>
      <path id="STHeitiSC-Medium-3" transform="scale(0.015625)"/>
      <path id="STHeitiSC-Medium-55" d="M 2259 3462 
L 1920 3110 
Q 1542 3462 1229 3462 
Q 1030 3462 896 3337 
Q 762 3213 762 3030 
Q 762 2848 912 2710 
Q 1062 2573 1446 2371 
Q 1830 2170 2038 1926 
Q 2246 1683 2246 1331 
Q 2246 883 1936 576 
Q 1626 269 1171 269 
Q 538 269 115 806 
L 448 1178 
Q 794 774 1152 774 
Q 1395 774 1568 934 
Q 1741 1094 1741 1308 
Q 1741 1523 1584 1667 
Q 1427 1811 1046 2003 
Q 666 2195 470 2428 
Q 275 2662 275 3043 
Q 275 3424 553 3693 
Q 832 3962 1289 3962 
Q 1747 3962 2259 3462 
z
" transform="scale(0.015625)"/>
      <path id="STHeitiSC-Medium-47" d="M 3878 2035 
L 819 2035 
Q 851 1459 1206 1110 
Q 1562 762 2054 762 
Q 2893 762 3334 1587 
L 3782 1357 
Q 3482 800 3072 534 
Q 2662 269 2093 269 
Q 1306 269 794 809 
Q 282 1350 282 2112 
Q 282 2874 797 3418 
Q 1312 3962 2073 3962 
Q 2835 3962 3347 3446 
Q 3859 2931 3878 2035 
z
M 3290 2502 
Q 3194 2950 2854 3200 
Q 2515 3450 2074 3450 
Q 1178 3450 883 2502 
L 3290 2502 
z
" transform="scale(0.015625)"/>
      <path id="STHeitiSC-Medium-53" d="M 3917 -851 
L 3398 -851 
L 3398 896 
Q 2835 269 2086 269 
Q 1338 269 813 816 
Q 288 1363 288 2121 
Q 288 2880 819 3421 
Q 1350 3962 2112 3962 
Q 2874 3962 3398 3341 
L 3398 3872 
L 3917 3872 
L 3917 -851 
z
M 2118 762 
Q 2630 762 3030 1149 
Q 3430 1536 3430 2093 
Q 3430 2650 3056 3050 
Q 2682 3450 2131 3450 
Q 1581 3450 1200 3046 
Q 819 2643 819 2099 
Q 819 1555 1206 1158 
Q 1594 762 2118 762 
z
" transform="scale(0.015625)"/>
      <path id="STHeitiSC-Medium-4b" d="M 640 5184 
Q 813 5184 931 5065 
Q 1050 4947 1050 4777 
Q 1050 4608 931 4489 
Q 813 4371 643 4371 
Q 474 4371 355 4492 
Q 237 4614 237 4777 
Q 237 4941 355 5062 
Q 474 5184 640 5184 
z
M 909 384 
L 378 384 
L 378 3872 
L 909 3872 
L 909 384 
z
" transform="scale(0.015625)"/>
      <path id="STHeitiSC-Medium-46" d="M 3923 384 
L 3405 384 
L 3405 896 
Q 2835 269 2089 269 
Q 1344 269 819 813 
Q 294 1357 294 2118 
Q 294 2880 825 3421 
Q 1357 3962 2121 3962 
Q 2886 3962 3405 3341 
L 3405 5184 
L 3923 5184 
L 3923 384 
z
M 2131 762 
Q 2637 762 3033 1139 
Q 3430 1517 3430 2096 
Q 3430 2675 3062 3062 
Q 2694 3450 2134 3450 
Q 1574 3450 1200 3050 
Q 826 2650 826 2109 
Q 826 1568 1210 1165 
Q 1594 762 2131 762 
z
" transform="scale(0.015625)"/>
      <path id="STHeitiSC-Medium-50" d="M 3501 384 
L 2976 384 
L 2976 2048 
Q 2976 2624 2921 2832 
Q 2867 3040 2761 3184 
Q 2656 3328 2493 3398 
Q 2330 3469 2096 3469 
Q 1862 3469 1638 3353 
Q 1414 3238 1254 3033 
Q 1094 2829 1033 2598 
Q 973 2368 973 1677 
L 973 384 
L 442 384 
L 442 3872 
L 973 3872 
L 973 3347 
Q 1491 3962 2202 3962 
Q 2579 3962 2886 3766 
Q 3194 3571 3347 3228 
Q 3501 2886 3501 2176 
L 3501 384 
z
" transform="scale(0.015625)"/>
      <path id="STHeitiSC-Medium-3f" d="M 1382 -672 
L 243 -672 
L 243 -154 
L 858 -154 
L 858 4838 
L 243 4838 
L 243 5370 
L 1382 5370 
L 1382 -672 
z
" transform="scale(0.015625)"/>
     </defs>
     <use xlink:href="#STHeitiSC-Medium-3d"/>
     <use xlink:href="#STHeitiSC-Medium-44" transform="translate(35.09375 0)"/>
     <use xlink:href="#STHeitiSC-Medium-43" transform="translate(103.296875 0)"/>
     <use xlink:href="#STHeitiSC-Medium-56" transform="translate(171.59375 0)"/>
     <use xlink:href="#STHeitiSC-Medium-45" transform="translate(205.5 0)"/>
     <use xlink:href="#STHeitiSC-Medium-4a" transform="translate(270.203125 0)"/>
     <use xlink:href="#STHeitiSC-Medium-e" transform="translate(331.203125 0)"/>
     <use xlink:href="#STHeitiSC-Medium-3" transform="translate(358.90625 0)"/>
     <use xlink:href="#STHeitiSC-Medium-55" transform="translate(383.90625 0)"/>
     <use xlink:href="#STHeitiSC-Medium-47" transform="translate(422.703125 0)"/>
     <use xlink:href="#STHeitiSC-Medium-53" transform="translate(487.703125 0)"/>
     <use xlink:href="#STHeitiSC-Medium-e" transform="translate(555.90625 0)"/>
     <use xlink:href="#STHeitiSC-Medium-3" transform="translate(583.609375 0)"/>
     <use xlink:href="#STHeitiSC-Medium-4a" transform="translate(608.609375 0)"/>
     <use xlink:href="#STHeitiSC-Medium-4b" transform="translate(669.609375 0)"/>
     <use xlink:href="#STHeitiSC-Medium-46" transform="translate(689.609375 0)"/>
     <use xlink:href="#STHeitiSC-Medium-46" transform="translate(758.109375 0)"/>
     <use xlink:href="#STHeitiSC-Medium-47" transform="translate(826.609375 0)"/>
     <use xlink:href="#STHeitiSC-Medium-50" transform="translate(891.609375 0)"/>
     <use xlink:href="#STHeitiSC-Medium-3f" transform="translate(952.609375 0)"/>
    </g>
    <!-- Shard(1) -->
    <g transform="translate(77.875134 187.123359) scale(0.09 -0.09)">
     <defs>
      <path id="STHeitiSC-Medium-35" d="M 2317 4038 
Q 2061 4384 1881 4502 
Q 1702 4621 1462 4621 
Q 1222 4621 1059 4467 
Q 896 4314 896 4074 
Q 896 3834 1049 3654 
Q 1203 3475 1756 3068 
Q 2310 2662 2566 2304 
Q 2822 1946 2822 1549 
Q 2822 1030 2422 649 
Q 2022 269 1491 269 
Q 557 269 26 1312 
L 493 1581 
Q 909 806 1427 806 
Q 1760 806 1997 1017 
Q 2234 1229 2234 1510 
Q 2234 1792 2035 2045 
Q 1837 2298 1350 2666 
Q 864 3034 681 3226 
Q 499 3418 416 3635 
Q 333 3853 333 4070 
Q 333 4538 656 4861 
Q 979 5184 1491 5184 
Q 1888 5184 2182 4982 
Q 2477 4781 2758 4384 
L 2317 4038 
z
" transform="scale(0.015625)"/>
      <path id="STHeitiSC-Medium-54" d="M 1914 3821 
L 1638 3373 
Q 1530 3430 1427 3430 
Q 1229 3430 1069 3235 
Q 909 3040 829 2723 
Q 749 2406 749 1581 
L 749 384 
L 211 384 
L 211 3872 
L 749 3872 
L 749 3494 
Q 909 3731 1072 3846 
Q 1235 3962 1443 3962 
Q 1651 3962 1914 3821 
z
" transform="scale(0.015625)"/>
      <path id="STHeitiSC-Medium-a" d="M 2048 5779 
Q 1709 5082 1526 4237 
Q 1344 3392 1344 2541 
Q 1344 877 1888 -442 
L 1312 -442 
Q 787 819 787 2483 
Q 787 4275 1440 5779 
L 2048 5779 
z
" transform="scale(0.015625)"/>
      <path id="STHeitiSC-Medium-13" d="M 2131 384 
L 1587 384 
L 1587 4531 
L 826 4531 
L 1158 5069 
L 2131 5069 
L 2131 384 
z
" transform="scale(0.015625)"/>
      <path id="STHeitiSC-Medium-b" d="M 922 5779 
Q 1574 4275 1574 2483 
Q 1574 819 1050 -442 
L 474 -442 
Q 1018 877 1018 2541 
Q 1018 3392 835 4237 
Q 653 5082 314 5779 
L 922 5779 
z
" transform="scale(0.015625)"/>
     </defs>
     <use xlink:href="#STHeitiSC-Medium-35"/>
     <use xlink:href="#STHeitiSC-Medium-4a" transform="translate(49.796875 0)"/>
     <use xlink:href="#STHeitiSC-Medium-43" transform="translate(110.796875 0)"/>
     <use xlink:href="#STHeitiSC-Medium-54" transform="translate(179.09375 0)"/>
     <use xlink:href="#STHeitiSC-Medium-46" transform="translate(209.1875 0)"/>
     <use xlink:href="#STHeitiSC-Medium-a" transform="translate(277.6875 0)"/>
     <use xlink:href="#STHeitiSC-Medium-13" transform="translate(314.59375 0)"/>
     <use xlink:href="#STHeitiSC-Medium-b" transform="translate(370 0)"/>
    </g>
   </g>
   <g id="text_2">
    <!-- 注意力掩码 -->
    <g transform="translate(210.130986 168.39) scale(0.09 -0.09)">
     <defs>
      <path id="STHeitiSC-Medium-369" d="M 1837 1715 
Q 1754 1466 1674 1184 
Q 1594 902 1504 595 
Q 1427 307 1347 16 
Q 1267 -275 1197 -563 
Q 1030 -422 870 -336 
Q 710 -250 538 -192 
Q 672 32 787 301 
Q 902 570 1005 877 
Q 1094 1165 1171 1453 
Q 1248 1741 1318 2035 
Q 1530 1818 1837 1715 
z
M 1382 2387 
Q 1293 2490 1177 2589 
Q 1062 2688 931 2777 
Q 800 2867 672 2937 
Q 544 3008 435 3053 
L 800 3494 
Q 1043 3366 1305 3203 
Q 1568 3040 1773 2874 
L 1382 2387 
z
M 1670 3853 
Q 1523 4013 1283 4217 
Q 1043 4422 806 4563 
L 1178 4986 
Q 1414 4832 1638 4662 
Q 1862 4493 2061 4326 
L 1670 3853 
z
M 3770 4294 
Q 3731 4499 3664 4684 
Q 3597 4870 3501 5050 
L 4102 5248 
Q 4192 5062 4265 4883 
Q 4339 4704 4403 4499 
L 3770 4294 
z
M 3718 1862 
Q 3322 1856 3008 1843 
Q 2694 1830 2451 1798 
L 2451 2406 
Q 2694 2374 3008 2361 
Q 3322 2349 3718 2342 
L 3718 3686 
Q 3238 3680 2870 3667 
Q 2502 3654 2214 3622 
L 2214 4224 
Q 2547 4192 2998 4176 
Q 3450 4160 4064 4160 
Q 4678 4160 5126 4176 
Q 5574 4192 5907 4224 
L 5907 3622 
Q 5600 3654 5203 3667 
Q 4806 3680 4275 3686 
L 4275 2342 
Q 4717 2349 5059 2361 
Q 5402 2374 5670 2406 
L 5670 1798 
Q 5402 1830 5059 1843 
Q 4717 1856 4275 1862 
L 4275 166 
Q 4819 173 5232 185 
Q 5645 198 5958 230 
L 5958 -371 
Q 5600 -339 5117 -323 
Q 4634 -307 3981 -307 
Q 3328 -307 2845 -323 
Q 2362 -339 2003 -371 
L 2003 230 
Q 2323 198 2742 185 
Q 3162 173 3718 166 
L 3718 1862 
z
" transform="scale(0.015625)"/>
      <path id="STHeitiSC-Medium-1cb" d="M 1779 1421 
L 4550 1421 
L 4550 1766 
L 1779 1766 
L 1779 1421 
z
M 5094 1005 
Q 4941 1011 4784 1017 
Q 4627 1024 4409 1030 
Q 4192 1037 3894 1037 
Q 3597 1037 3162 1037 
Q 2726 1037 2428 1037 
Q 2131 1037 1916 1030 
Q 1702 1024 1545 1017 
Q 1389 1011 1242 1005 
Q 1267 1062 1283 1190 
Q 1299 1318 1299 1446 
L 1299 2477 
Q 1299 2605 1283 2736 
Q 1267 2867 1242 2925 
Q 1389 2912 1545 2909 
Q 1702 2906 1916 2899 
Q 2131 2893 2428 2893 
Q 2726 2893 3162 2893 
Q 3597 2893 3894 2893 
Q 4192 2893 4409 2899 
Q 4627 2906 4784 2909 
Q 4941 2912 5094 2925 
Q 5062 2867 5046 2736 
Q 5030 2605 5030 2477 
L 5030 1446 
Q 5030 1318 5046 1190 
Q 5062 1062 5094 1005 
z
M 4550 2502 
L 1779 2502 
L 1779 2144 
L 4550 2144 
L 4550 2502 
z
M 2886 4659 
Q 2854 4787 2806 4924 
Q 2758 5062 2720 5133 
L 3386 5242 
Q 3411 5152 3449 4989 
Q 3488 4826 3539 4659 
Q 4160 4666 4614 4675 
Q 5069 4685 5453 4704 
L 5453 4224 
Q 5235 4237 4992 4246 
Q 4749 4256 4461 4262 
Q 4173 4269 3833 4272 
Q 3494 4275 3091 4275 
Q 2285 4275 1728 4262 
Q 1171 4250 736 4224 
L 736 4704 
Q 1120 4678 1645 4668 
Q 2170 4659 2886 4659 
z
M 2067 3667 
Q 1984 3846 1805 4032 
L 2438 4211 
Q 2483 4115 2534 4019 
Q 2586 3923 2675 3814 
Q 2528 3776 2413 3744 
Q 2298 3712 2176 3667 
L 3642 3667 
Q 3718 3776 3792 3917 
Q 3866 4058 3910 4211 
Q 4019 4179 4099 4160 
Q 4179 4141 4256 4125 
Q 4333 4109 4413 4096 
Q 4493 4083 4602 4070 
Q 4723 4051 4621 4019 
Q 4525 3987 4416 3900 
Q 4307 3814 4205 3667 
Q 4678 3667 5081 3676 
Q 5485 3686 5805 3706 
L 5805 3226 
Q 5645 3238 5440 3248 
Q 5235 3258 4931 3264 
Q 4627 3270 4201 3273 
Q 3776 3277 3174 3277 
Q 2560 3277 2109 3273 
Q 1658 3270 1338 3260 
Q 1018 3251 810 3241 
Q 602 3232 474 3226 
L 474 3706 
Q 608 3693 800 3686 
Q 992 3680 1206 3677 
Q 1421 3674 1645 3670 
Q 1869 3667 2067 3667 
z
M 1485 557 
Q 1408 384 1347 253 
Q 1286 122 1228 0 
Q 1171 -122 1110 -240 
Q 1050 -358 973 -499 
L 435 -282 
Q 614 -77 729 156 
Q 845 390 915 704 
L 1485 557 
z
M 4819 275 
Q 4717 13 4643 -137 
Q 4570 -288 4477 -371 
Q 4384 -454 4240 -486 
Q 4096 -518 3853 -531 
Q 3770 -538 3629 -541 
Q 3488 -544 3318 -547 
Q 3149 -550 2969 -550 
Q 2790 -550 2633 -550 
Q 2477 -550 2355 -544 
Q 2234 -538 2182 -525 
Q 2067 -499 2003 -476 
Q 1939 -454 1907 -412 
Q 1875 -371 1865 -307 
Q 1856 -243 1856 -134 
L 1856 397 
Q 1856 525 1846 605 
Q 1837 685 1818 774 
Q 1971 723 2124 700 
Q 2278 678 2381 691 
Q 2554 704 2432 608 
Q 2381 576 2365 544 
Q 2349 512 2349 461 
L 2349 218 
Q 2349 77 2393 -16 
Q 2438 -109 2573 -122 
Q 2669 -134 2813 -137 
Q 2957 -141 3120 -134 
Q 3283 -128 3446 -118 
Q 3610 -109 3744 -96 
Q 3891 -83 3980 -64 
Q 4070 -45 4121 16 
Q 4173 77 4198 195 
Q 4224 314 4256 518 
Q 4467 314 4819 275 
z
M 5459 -288 
Q 5370 -141 5290 -22 
Q 5210 96 5130 201 
Q 5050 307 4960 403 
Q 4870 499 4768 602 
L 5210 845 
Q 5395 659 5590 457 
Q 5786 256 5965 70 
L 5459 -288 
z
M 3142 192 
Q 3046 538 2822 826 
L 3411 992 
Q 3482 870 3584 688 
Q 3686 506 3763 397 
L 3142 192 
z
" transform="scale(0.015625)"/>
      <path id="STHeitiSC-Medium-1ba" d="M 3424 3322 
Q 3360 2842 3283 2474 
Q 3206 2106 3098 1766 
Q 2982 1408 2809 1101 
Q 2637 794 2390 512 
Q 2144 230 1824 -32 
Q 1504 -294 1101 -563 
Q 992 -454 845 -348 
Q 698 -243 531 -173 
Q 1216 134 1696 588 
Q 2176 1043 2477 1734 
Q 2554 1914 2611 2074 
Q 2669 2234 2710 2413 
Q 2752 2592 2781 2809 
Q 2810 3027 2835 3322 
Q 2509 3322 2214 3318 
Q 1920 3315 1670 3308 
Q 1421 3302 1232 3289 
Q 1043 3277 934 3264 
L 934 3859 
Q 1357 3808 2867 3802 
Q 2893 4147 2905 4387 
Q 2918 4627 2928 4790 
Q 2938 4954 2938 5050 
Q 2938 5146 2931 5203 
Q 3078 5146 3264 5104 
Q 3450 5062 3661 5050 
Q 3750 5043 3760 4998 
Q 3770 4954 3686 4902 
Q 3661 4883 3641 4848 
Q 3622 4813 3600 4704 
Q 3578 4595 3549 4384 
Q 3520 4173 3482 3802 
Q 4019 3802 4412 3805 
Q 4806 3808 5091 3814 
Q 5376 3821 5565 3830 
Q 5754 3840 5869 3859 
L 5542 518 
Q 5517 250 5456 70 
Q 5395 -109 5244 -230 
Q 5094 -352 4819 -435 
Q 4544 -518 4090 -602 
Q 4058 -435 3994 -259 
Q 3930 -83 3814 77 
Q 4166 70 4387 96 
Q 4608 122 4736 198 
Q 4864 275 4918 409 
Q 4973 544 4992 768 
L 5248 3322 
L 3424 3322 
z
" transform="scale(0.015625)"/>
      <path id="STHeitiSC-Medium-ea1" d="M 3763 2368 
L 3066 2368 
L 3066 1933 
L 3763 1933 
L 3763 2368 
z
M 4230 1933 
L 4979 1933 
L 4979 2368 
L 4230 2368 
L 4230 1933 
z
M 4230 1062 
L 4979 1062 
L 4979 1542 
L 4230 1542 
L 4230 1062 
z
M 3763 1542 
L 3066 1542 
L 3066 1062 
L 3763 1062 
L 3763 1542 
z
M 1139 3398 
Q 915 3392 720 3379 
Q 525 3366 397 3341 
L 397 3885 
Q 544 3859 739 3849 
Q 934 3840 1139 3834 
Q 1146 4288 1123 4637 
Q 1101 4986 1069 5133 
Q 1242 5101 1373 5091 
Q 1504 5082 1638 5088 
Q 1946 5101 1734 4928 
Q 1664 4870 1641 4822 
Q 1619 4774 1619 4691 
L 1619 3834 
Q 1818 3840 1994 3853 
Q 2170 3866 2298 3885 
L 2298 3341 
Q 2157 3366 1984 3379 
Q 1811 3392 1619 3398 
L 1619 2374 
Q 1958 2502 2131 2586 
Q 2099 2438 2096 2310 
Q 2093 2182 2125 2061 
Q 2016 2029 1888 1984 
Q 1760 1939 1619 1888 
L 1619 141 
Q 1619 -45 1600 -153 
Q 1581 -262 1491 -332 
Q 1402 -403 1216 -448 
Q 1030 -493 698 -544 
Q 672 -378 611 -227 
Q 550 -77 410 96 
Q 634 77 774 80 
Q 915 83 998 112 
Q 1082 141 1110 198 
Q 1139 256 1139 346 
L 1139 1690 
Q 934 1600 748 1501 
Q 563 1402 429 1312 
Q 397 1549 361 1686 
Q 326 1824 262 1971 
Q 448 2003 675 2070 
Q 902 2138 1139 2208 
L 1139 3398 
z
M 3315 4038 
Q 3008 4032 2755 4025 
Q 2502 4019 2355 4006 
L 2355 4531 
Q 2509 4518 2819 4505 
Q 3130 4493 3494 4486 
Q 3533 4627 3561 4841 
Q 3590 5056 3597 5229 
Q 3750 5178 3948 5142 
Q 4147 5107 4275 5094 
Q 4326 5088 4332 5046 
Q 4339 5005 4294 4986 
Q 4250 4966 4195 4889 
Q 4141 4813 4102 4717 
Q 4077 4653 4054 4595 
Q 4032 4538 4006 4480 
Q 4282 4480 4570 4483 
Q 4858 4486 5117 4492 
Q 5376 4499 5587 4508 
Q 5798 4518 5920 4531 
L 5920 4006 
Q 5792 4019 5485 4028 
Q 5178 4038 4806 4045 
Q 4979 3680 5318 3453 
Q 5658 3226 6131 3123 
Q 6016 3027 5942 2892 
Q 5869 2758 5805 2566 
Q 5715 2611 5635 2652 
Q 5555 2694 5485 2739 
Q 5459 2611 5452 2464 
Q 5446 2317 5446 2150 
L 5446 1466 
Q 5446 1242 5456 1050 
Q 5466 858 5485 659 
L 4230 659 
L 4230 358 
Q 4230 224 4243 137 
Q 4256 51 4313 3 
Q 4371 -45 4492 -61 
Q 4614 -77 4832 -77 
Q 4998 -77 5100 -61 
Q 5203 -45 5264 16 
Q 5325 77 5363 195 
Q 5402 314 5434 525 
Q 5542 378 5683 298 
Q 5824 218 5984 173 
Q 5894 -70 5814 -208 
Q 5734 -346 5616 -416 
Q 5498 -486 5315 -505 
Q 5133 -525 4838 -525 
Q 4461 -525 4243 -505 
Q 4026 -486 3920 -412 
Q 3814 -339 3788 -188 
Q 3763 -38 3763 230 
L 3763 659 
L 3066 659 
L 3066 205 
L 2541 205 
Q 2573 429 2585 627 
Q 2598 826 2598 1050 
L 2598 2054 
Q 2598 2125 2595 2278 
Q 2592 2432 2586 2566 
Q 2528 2515 2470 2476 
Q 2413 2438 2362 2406 
Q 2272 2554 2192 2637 
Q 2112 2720 1990 2803 
Q 2490 3027 2800 3340 
Q 3110 3654 3315 4038 
z
M 3827 4051 
Q 3738 3866 3658 3718 
Q 3578 3571 3469 3430 
Q 3360 3290 3209 3133 
Q 3059 2976 2835 2771 
L 3763 2771 
Q 3757 2957 3734 3136 
Q 3712 3315 3693 3379 
Q 3853 3360 3990 3353 
Q 4128 3347 4275 3347 
Q 4365 3347 4368 3302 
Q 4371 3258 4307 3219 
Q 4250 3187 4240 3142 
Q 4230 3098 4230 3002 
L 4230 2771 
L 5434 2771 
Q 5248 2886 5101 3008 
Q 4954 3130 4826 3280 
Q 4698 3430 4576 3619 
Q 4454 3808 4333 4051 
L 3827 4051 
z
" transform="scale(0.015625)"/>
      <path id="STHeitiSC-Medium-39f" d="M 2246 2477 
L 1491 2477 
L 1491 1011 
L 2246 1011 
L 2246 2477 
z
M 1933 4186 
Q 1894 3968 1856 3795 
Q 1818 3622 1766 3468 
Q 1715 3315 1654 3174 
Q 1594 3034 1510 2893 
Q 2112 2899 2397 2908 
Q 2682 2918 2758 2944 
Q 2746 2874 2739 2774 
Q 2733 2675 2729 2560 
Q 2726 2445 2723 2323 
Q 2720 2202 2720 2086 
L 2720 1011 
Q 2720 621 2758 173 
L 2246 173 
L 2246 589 
L 1491 589 
L 1491 -262 
L 1018 -262 
Q 1030 -6 1033 192 
Q 1037 390 1037 576 
L 1037 2138 
Q 928 1990 813 1827 
Q 698 1664 550 1478 
Q 474 1786 346 2061 
Q 544 2259 707 2480 
Q 870 2701 998 2960 
Q 1126 3219 1228 3523 
Q 1331 3827 1414 4186 
Q 1114 4179 890 4163 
Q 666 4147 518 4122 
L 518 4691 
Q 736 4659 1014 4646 
Q 1293 4634 1696 4634 
Q 2099 4634 2374 4646 
Q 2650 4659 2867 4691 
L 2867 4122 
Q 2688 4147 2464 4163 
Q 2240 4179 1933 4186 
z
M 5043 4314 
L 4256 4314 
Q 4032 4314 3753 4298 
Q 3475 4282 3232 4256 
L 3232 4858 
Q 3501 4826 3827 4816 
Q 4154 4806 4442 4806 
Q 4742 4806 5072 4816 
Q 5402 4826 5632 4858 
L 5344 2202 
Q 5555 2208 5740 2221 
Q 5926 2234 6054 2246 
Q 6042 2138 6032 2006 
Q 6022 1875 6006 1654 
Q 5990 1434 5968 1078 
Q 5946 723 5914 166 
Q 5894 -58 5836 -211 
Q 5779 -365 5651 -467 
Q 5523 -570 5308 -634 
Q 5094 -698 4768 -736 
Q 4723 -563 4659 -412 
Q 4595 -262 4480 -102 
Q 4768 -134 4941 -131 
Q 5114 -128 5210 -80 
Q 5306 -32 5347 70 
Q 5389 173 5414 346 
Q 5434 448 5450 614 
Q 5466 781 5482 973 
Q 5498 1165 5507 1369 
Q 5517 1574 5523 1754 
L 4474 1754 
Q 4320 1754 4166 1750 
Q 4013 1747 3869 1740 
Q 3725 1734 3603 1724 
Q 3482 1715 3398 1702 
Q 3418 1990 3434 2249 
Q 3450 2509 3456 2752 
Q 3462 2995 3462 3232 
Q 3462 3469 3462 3712 
Q 3526 3699 3612 3692 
Q 3699 3686 3785 3676 
Q 3872 3667 3945 3664 
Q 4019 3661 4064 3661 
Q 4250 3661 4102 3514 
Q 4077 3488 4057 3446 
Q 4038 3405 4022 3273 
Q 4006 3142 3984 2892 
Q 3962 2643 3930 2202 
L 4838 2202 
L 5043 4314 
z
M 5075 518 
Q 4909 538 4640 550 
Q 4371 563 4032 563 
Q 3706 563 3472 556 
Q 3238 550 3053 518 
L 3053 1062 
Q 3226 1037 3466 1027 
Q 3706 1018 4032 1018 
Q 4371 1018 4633 1027 
Q 4896 1037 5075 1062 
L 5075 518 
z
" transform="scale(0.015625)"/>
     </defs>
     <use xlink:href="#STHeitiSC-Medium-369"/>
     <use xlink:href="#STHeitiSC-Medium-1cb" transform="translate(100 0)"/>
     <use xlink:href="#STHeitiSC-Medium-1ba" transform="translate(200 0)"/>
     <use xlink:href="#STHeitiSC-Medium-ea1" transform="translate(300 0)"/>
     <use xlink:href="#STHeitiSC-Medium-39f" transform="translate(400 0)"/>
    </g>
    <!-- [batch, seq, seq] -->
    <g transform="translate(195.924345 177.66) scale(0.09 -0.09)">
     <use xlink:href="#STHeitiSC-Medium-3d"/>
     <use xlink:href="#STHeitiSC-Medium-44" transform="translate(35.09375 0)"/>
     <use xlink:href="#STHeitiSC-Medium-43" transform="translate(103.296875 0)"/>
     <use xlink:href="#STHeitiSC-Medium-56" transform="translate(171.59375 0)"/>
     <use xlink:href="#STHeitiSC-Medium-45" transform="translate(205.5 0)"/>
     <use xlink:href="#STHeitiSC-Medium-4a" transform="translate(270.203125 0)"/>
     <use xlink:href="#STHeitiSC-Medium-e" transform="translate(331.203125 0)"/>
     <use xlink:href="#STHeitiSC-Medium-3" transform="translate(358.90625 0)"/>
     <use xlink:href="#STHeitiSC-Medium-55" transform="translate(383.90625 0)"/>
     <use xlink:href="#STHeitiSC-Medium-47" transform="translate(422.703125 0)"/>
     <use xlink:href="#STHeitiSC-Medium-53" transform="translate(487.703125 0)"/>
     <use xlink:href="#STHeitiSC-Medium-e" transform="translate(555.90625 0)"/>
     <use xlink:href="#STHeitiSC-Medium-3" transform="translate(583.609375 0)"/>
     <use xlink:href="#STHeitiSC-Medium-55" transform="translate(608.609375 0)"/>
     <use xlink:href="#STHeitiSC-Medium-47" transform="translate(647.40625 0)"/>
     <use xlink:href="#STHeitiSC-Medium-53" transform="translate(712.40625 0)"/>
     <use xlink:href="#STHeitiSC-Medium-3f" transform="translate(780.609375 0)"/>
    </g>
    <!-- Replicate -->
    <g transform="translate(211.669423 186.93) scale(0.09 -0.09)">
     <defs>
      <path id="STHeitiSC-Medium-34" d="M 3622 384 
L 2931 384 
L 1280 2522 
L 1088 2522 
L 1088 384 
L 538 384 
L 538 5069 
L 1498 5069 
Q 2266 5069 2554 5001 
Q 2842 4934 3053 4774 
Q 3264 4614 3385 4361 
Q 3507 4109 3507 3802 
Q 3507 3219 3110 2870 
Q 2714 2522 1965 2522 
L 3622 384 
z
M 1088 3059 
L 1837 3059 
Q 2400 3053 2669 3229 
Q 2938 3405 2938 3792 
Q 2938 4179 2675 4355 
Q 2413 4531 1856 4531 
L 1088 4531 
L 1088 3059 
z
" transform="scale(0.015625)"/>
      <path id="STHeitiSC-Medium-52" d="M 973 3341 
Q 1491 3962 2252 3962 
Q 3014 3962 3545 3421 
Q 4077 2880 4077 2118 
Q 4077 1357 3552 813 
Q 3027 269 2284 269 
Q 1542 269 973 896 
L 973 -851 
L 448 -851 
L 448 3872 
L 973 3872 
L 973 3341 
z
M 2253 762 
Q 2778 762 3165 1155 
Q 3552 1549 3552 2105 
Q 3552 2662 3171 3056 
Q 2790 3450 2240 3450 
Q 1690 3450 1315 3062 
Q 941 2675 941 2105 
Q 941 1536 1325 1149 
Q 1709 762 2253 762 
z
" transform="scale(0.015625)"/>
      <path id="STHeitiSC-Medium-4e" d="M 902 384 
L 378 384 
L 378 5184 
L 902 5184 
L 902 384 
z
" transform="scale(0.015625)"/>
     </defs>
     <use xlink:href="#STHeitiSC-Medium-34"/>
     <use xlink:href="#STHeitiSC-Medium-47" transform="translate(60.703125 0)"/>
     <use xlink:href="#STHeitiSC-Medium-52" transform="translate(125.703125 0)"/>
     <use xlink:href="#STHeitiSC-Medium-4e" transform="translate(193.90625 0)"/>
     <use xlink:href="#STHeitiSC-Medium-4b" transform="translate(213.90625 0)"/>
     <use xlink:href="#STHeitiSC-Medium-45" transform="translate(233.90625 0)"/>
     <use xlink:href="#STHeitiSC-Medium-43" transform="translate(298.609375 0)"/>
     <use xlink:href="#STHeitiSC-Medium-56" transform="translate(366.90625 0)"/>
     <use xlink:href="#STHeitiSC-Medium-47" transform="translate(400.8125 0)"/>
    </g>
   </g>
   <g id="text_3">
    <!-- PrepareModuleInput -->
    <g transform="translate(373.174844 156.576774) scale(0.11 -0.11)">
     <defs>
      <path id="STHeitiSC-Medium-32" d="M 512 5069 
L 1472 5069 
Q 2291 5069 2547 5005 
Q 2803 4941 3017 4774 
Q 3232 4608 3353 4358 
Q 3475 4109 3475 3795 
Q 3475 3482 3356 3232 
Q 3238 2982 3017 2819 
Q 2797 2656 2477 2589 
Q 2157 2522 1344 2522 
L 1062 2522 
L 1062 384 
L 512 384 
L 512 5069 
z
M 1062 3053 
L 1792 3053 
Q 2438 3040 2672 3257 
Q 2906 3475 2906 3802 
Q 2906 4531 1830 4531 
L 1062 4531 
L 1062 3053 
z
" transform="scale(0.015625)"/>
      <path id="STHeitiSC-Medium-2f" d="M 5581 384 
L 5037 384 
L 4602 3571 
L 3027 384 
L 2861 384 
L 1267 3597 
L 832 384 
L 301 384 
L 966 5069 
L 1101 5069 
L 2944 1350 
L 4774 5069 
L 4909 5069 
L 5581 384 
z
" transform="scale(0.015625)"/>
      <path id="STHeitiSC-Medium-51" d="M 2099 3962 
Q 2854 3962 3382 3418 
Q 3910 2874 3910 2112 
Q 3910 1350 3388 809 
Q 2867 269 2099 269 
Q 1331 269 806 809 
Q 282 1350 282 2112 
Q 282 2874 810 3418 
Q 1338 3962 2099 3962 
z
M 2099 774 
Q 2630 774 3004 1161 
Q 3379 1549 3379 2096 
Q 3379 2643 2998 3043 
Q 2618 3443 2096 3443 
Q 1574 3443 1196 3043 
Q 819 2643 819 2092 
Q 819 1542 1184 1158 
Q 1549 774 2099 774 
z
" transform="scale(0.015625)"/>
      <path id="STHeitiSC-Medium-57" d="M 3450 384 
L 2918 384 
L 2918 909 
Q 2400 294 1690 294 
Q 1312 294 1005 489 
Q 698 685 544 1027 
Q 390 1370 390 2080 
L 390 3872 
L 915 3872 
L 915 2208 
Q 915 1632 969 1424 
Q 1024 1216 1129 1072 
Q 1235 928 1398 857 
Q 1562 787 1795 787 
Q 2029 787 2253 902 
Q 2477 1018 2637 1222 
Q 2797 1427 2857 1657 
Q 2918 1888 2918 2579 
L 2918 3872 
L 3450 3872 
L 3450 384 
z
" transform="scale(0.015625)"/>
      <path id="STHeitiSC-Medium-2b" d="M 998 384 
L 448 384 
L 448 5069 
L 998 5069 
L 998 384 
z
" transform="scale(0.015625)"/>
     </defs>
     <use xlink:href="#STHeitiSC-Medium-32"/>
     <use xlink:href="#STHeitiSC-Medium-54" transform="translate(59.203125 0)"/>
     <use xlink:href="#STHeitiSC-Medium-47" transform="translate(89.296875 0)"/>
     <use xlink:href="#STHeitiSC-Medium-52" transform="translate(154.296875 0)"/>
     <use xlink:href="#STHeitiSC-Medium-43" transform="translate(222.5 0)"/>
     <use xlink:href="#STHeitiSC-Medium-54" transform="translate(290.796875 0)"/>
     <use xlink:href="#STHeitiSC-Medium-47" transform="translate(320.890625 0)"/>
     <use xlink:href="#STHeitiSC-Medium-2f" transform="translate(385.890625 0)"/>
     <use xlink:href="#STHeitiSC-Medium-51" transform="translate(477.796875 0)"/>
     <use xlink:href="#STHeitiSC-Medium-46" transform="translate(543.296875 0)"/>
     <use xlink:href="#STHeitiSC-Medium-57" transform="translate(611.796875 0)"/>
     <use xlink:href="#STHeitiSC-Medium-4e" transform="translate(672.59375 0)"/>
     <use xlink:href="#STHeitiSC-Medium-47" transform="translate(692.59375 0)"/>
     <use xlink:href="#STHeitiSC-Medium-2b" transform="translate(757.59375 0)"/>
     <use xlink:href="#STHeitiSC-Medium-50" transform="translate(780.1875 0)"/>
     <use xlink:href="#STHeitiSC-Medium-52" transform="translate(841.1875 0)"/>
     <use xlink:href="#STHeitiSC-Medium-57" transform="translate(909.390625 0)"/>
     <use xlink:href="#STHeitiSC-Medium-56" transform="translate(970.1875 0)"/>
    </g>
   </g>
   <g id="text_4">
    <!-- 激活: all_gather Shard(1)→Replicate -->
    <g transform="translate(359.0275 212.597681) scale(0.08 -0.08)">
     <defs>
      <path id="STHeitiSC-Medium-1c" d="M 966 4282 
Q 1146 4282 1270 4157 
Q 1395 4032 1395 3849 
Q 1395 3667 1273 3542 
Q 1152 3418 969 3418 
Q 787 3418 662 3542 
Q 538 3667 538 3846 
Q 538 4026 666 4154 
Q 794 4282 966 4282 
z
M 966 1478 
Q 1146 1478 1270 1353 
Q 1395 1229 1395 1046 
Q 1395 864 1270 739 
Q 1146 614 970 614 
Q 794 614 666 742 
Q 538 870 538 1049 
Q 538 1229 666 1353 
Q 794 1478 966 1478 
z
" transform="scale(0.015625)"/>
      <path id="STHeitiSC-Medium-41" d="M 3200 -416 
L 0 -416 
L 0 -6 
L 3200 -6 
L 3200 -416 
z
" transform="scale(0.015625)"/>
      <path id="STHeitiSC-Medium-49" d="M 3930 1203 
Q 3930 512 3811 179 
Q 3693 -154 3453 -384 
Q 3213 -614 2877 -732 
Q 2541 -851 2138 -851 
Q 774 -851 320 301 
L 883 301 
Q 1254 -365 2118 -365 
Q 2515 -365 2828 -211 
Q 3142 -58 3270 198 
Q 3398 454 3398 986 
L 3398 1018 
Q 3149 736 2797 589 
Q 2445 442 2067 442 
Q 1312 442 803 960 
Q 294 1478 301 2182 
Q 294 2918 832 3440 
Q 1370 3962 2109 3962 
Q 2848 3962 3398 3360 
L 3398 3872 
L 3930 3872 
L 3930 1203 
z
M 3418 2182 
Q 3418 2733 3050 3091 
Q 2682 3450 2150 3450 
Q 1587 3450 1206 3062 
Q 826 2675 826 2163 
Q 826 1651 1190 1296 
Q 1555 941 2124 941 
Q 2694 941 3056 1289 
Q 3418 1638 3418 2182 
z
" transform="scale(0.015625)"/>
      <path id="STHeitiSC-Medium-c0c6" d="M 6086 2285 
L 4115 1114 
L 4115 2131 
L 262 2131 
L 262 2477 
L 4115 2477 
L 4115 3526 
L 6086 2285 
z
" transform="scale(0.015625)"/>
     </defs>
     <use xlink:href="#STHeitiSC-Medium-57a"/>
     <use xlink:href="#STHeitiSC-Medium-19c" transform="translate(100 0)"/>
     <use xlink:href="#STHeitiSC-Medium-1c" transform="translate(200 0)"/>
     <use xlink:href="#STHeitiSC-Medium-3" transform="translate(227.703125 0)"/>
     <use xlink:href="#STHeitiSC-Medium-43" transform="translate(252.703125 0)"/>
     <use xlink:href="#STHeitiSC-Medium-4e" transform="translate(321 0)"/>
     <use xlink:href="#STHeitiSC-Medium-4e" transform="translate(341 0)"/>
     <use xlink:href="#STHeitiSC-Medium-41" transform="translate(361 0)"/>
     <use xlink:href="#STHeitiSC-Medium-49" transform="translate(411 0)"/>
     <use xlink:href="#STHeitiSC-Medium-43" transform="translate(478.296875 0)"/>
     <use xlink:href="#STHeitiSC-Medium-56" transform="translate(546.59375 0)"/>
     <use xlink:href="#STHeitiSC-Medium-4a" transform="translate(580.5 0)"/>
     <use xlink:href="#STHeitiSC-Medium-47" transform="translate(641.5 0)"/>
     <use xlink:href="#STHeitiSC-Medium-54" transform="translate(706.5 0)"/>
     <use xlink:href="#STHeitiSC-Medium-3" transform="translate(736.59375 0)"/>
     <use xlink:href="#STHeitiSC-Medium-35" transform="translate(761.59375 0)"/>
     <use xlink:href="#STHeitiSC-Medium-4a" transform="translate(811.390625 0)"/>
     <use xlink:href="#STHeitiSC-Medium-43" transform="translate(872.390625 0)"/>
     <use xlink:href="#STHeitiSC-Medium-54" transform="translate(940.6875 0)"/>
     <use xlink:href="#STHeitiSC-Medium-46" transform="translate(970.78125 0)"/>
     <use xlink:href="#STHeitiSC-Medium-a" transform="translate(1039.28125 0)"/>
     <use xlink:href="#STHeitiSC-Medium-13" transform="translate(1076.1875 0)"/>
     <use xlink:href="#STHeitiSC-Medium-b" transform="translate(1131.59375 0)"/>
     <use xlink:href="#STHeitiSC-Medium-c0c6" transform="translate(1168.5 0)"/>
     <use xlink:href="#STHeitiSC-Medium-34" transform="translate(1268.5 0)"/>
     <use xlink:href="#STHeitiSC-Medium-47" transform="translate(1329.203125 0)"/>
     <use xlink:href="#STHeitiSC-Medium-52" transform="translate(1394.203125 0)"/>
     <use xlink:href="#STHeitiSC-Medium-4e" transform="translate(1462.40625 0)"/>
     <use xlink:href="#STHeitiSC-Medium-4b" transform="translate(1482.40625 0)"/>
     <use xlink:href="#STHeitiSC-Medium-45" transform="translate(1502.40625 0)"/>
     <use xlink:href="#STHeitiSC-Medium-43" transform="translate(1567.109375 0)"/>
     <use xlink:href="#STHeitiSC-Medium-56" transform="translate(1635.40625 0)"/>
     <use xlink:href="#STHeitiSC-Medium-47" transform="translate(1669.3125 0)"/>
    </g>
    <!-- 掩码: 已是 Replicate，无需通信 -->
    <g transform="translate(370.659375 220.837681) scale(0.08 -0.08)">
     <defs>
      <path id="STHeitiSC-Medium-1e2" d="M 4461 2822 
L 4461 4269 
L 2790 4269 
Q 2118 4269 1555 4253 
Q 992 4237 672 4205 
L 672 4864 
Q 806 4851 1027 4838 
Q 1248 4826 1533 4816 
Q 1818 4806 2154 4800 
Q 2490 4794 2867 4794 
Q 3693 4794 4246 4813 
Q 4800 4832 5088 4864 
Q 5069 4710 5056 4460 
Q 5043 4211 5043 3878 
L 5043 2893 
Q 5043 2662 5056 2425 
Q 5069 2189 5094 1952 
L 4461 1952 
L 4461 2336 
L 1568 2336 
L 1568 698 
Q 1568 518 1584 419 
Q 1600 320 1670 269 
Q 1741 218 1894 202 
Q 2048 186 2330 179 
Q 2726 166 3113 163 
Q 3501 160 3878 173 
Q 4230 179 4435 208 
Q 4640 237 4765 333 
Q 4890 429 4966 627 
Q 5043 826 5146 1178 
Q 5350 858 5728 762 
Q 5594 365 5478 141 
Q 5363 -83 5177 -198 
Q 4992 -314 4688 -342 
Q 4384 -371 3866 -371 
Q 3501 -371 3081 -371 
Q 2662 -371 2304 -358 
Q 1824 -339 1558 -307 
Q 1293 -275 1165 -176 
Q 1037 -77 1011 115 
Q 986 307 986 640 
L 986 2477 
Q 986 2822 966 3059 
Q 947 3296 922 3405 
Q 1082 3386 1267 3376 
Q 1453 3366 1613 3373 
Q 1702 3379 1715 3331 
Q 1728 3283 1664 3245 
Q 1606 3213 1587 3168 
Q 1568 3123 1568 3027 
L 1568 2822 
L 4461 2822 
z
" transform="scale(0.015625)"/>
      <path id="STHeitiSC-Medium-104" d="M 4512 3648 
L 1978 3648 
L 1978 3174 
L 4512 3174 
L 4512 3648 
z
M 5062 2765 
Q 4986 2778 4877 2784 
Q 4768 2790 4566 2796 
Q 4365 2803 4041 2803 
Q 3718 2803 3219 2803 
Q 2720 2803 2413 2800 
Q 2106 2797 1917 2793 
Q 1728 2790 1619 2780 
Q 1510 2771 1414 2758 
Q 1434 2912 1440 3101 
Q 1446 3290 1446 3411 
L 1446 4307 
Q 1446 4486 1440 4646 
Q 1434 4806 1414 4934 
Q 1504 4922 1606 4912 
Q 1709 4902 1901 4899 
Q 2093 4896 2406 4893 
Q 2720 4890 3232 4890 
Q 3718 4890 4032 4893 
Q 4346 4896 4544 4899 
Q 4742 4902 4857 4912 
Q 4973 4922 5062 4934 
Q 5050 4858 5037 4682 
Q 5024 4506 5024 4294 
L 5024 3398 
Q 5024 3283 5033 3097 
Q 5043 2912 5062 2765 
z
M 4512 4506 
L 1978 4506 
L 1978 4032 
L 4512 4032 
L 4512 4506 
z
M 2976 1907 
Q 2541 1907 2176 1904 
Q 1811 1901 1504 1894 
Q 1197 1888 937 1878 
Q 678 1869 448 1856 
L 448 2374 
Q 704 2362 985 2352 
Q 1267 2342 1603 2336 
Q 1939 2330 2336 2326 
Q 2733 2323 3213 2323 
Q 3699 2323 4096 2326 
Q 4493 2330 4829 2336 
Q 5165 2342 5446 2352 
Q 5728 2362 5984 2374 
L 5984 1856 
Q 5754 1869 5498 1878 
Q 5242 1888 4938 1894 
Q 4634 1901 4278 1904 
Q 3923 1907 3501 1907 
L 3501 1312 
Q 4941 1312 5318 1370 
L 5318 864 
Q 5178 883 4707 892 
Q 4237 902 3501 902 
L 3501 45 
Q 3814 19 4147 16 
Q 4480 13 4800 22 
Q 5120 32 5421 61 
Q 5722 90 5978 128 
Q 5862 -70 5836 -227 
Q 5811 -384 5850 -557 
Q 4698 -576 4000 -525 
Q 3302 -474 3053 -397 
Q 2765 -314 2560 -224 
Q 2355 -134 2198 -22 
Q 2042 90 1923 227 
Q 1805 365 1690 557 
Q 1594 358 1507 198 
Q 1421 38 1331 -109 
Q 1242 -256 1146 -393 
Q 1050 -531 934 -678 
Q 691 -416 410 -294 
Q 838 6 1123 483 
Q 1408 960 1587 1645 
Q 1638 1606 1715 1577 
Q 1792 1549 1872 1526 
Q 1952 1504 2025 1494 
Q 2099 1485 2157 1485 
Q 2291 1485 2182 1395 
Q 2112 1325 2045 1222 
Q 1978 1120 1869 915 
Q 2118 563 2403 371 
Q 2688 179 2976 109 
L 2976 1907 
z
" transform="scale(0.015625)"/>
      <path id="STHeitiSC-Medium-bedf" d="M 1952 435 
Q 1952 0 1776 -253 
Q 1600 -506 1286 -557 
L 1286 -262 
Q 1626 -224 1626 384 
L 1286 384 
L 1286 1062 
L 1952 1062 
L 1952 435 
z
" transform="scale(0.015625)"/>
      <path id="STHeitiSC-Medium-184" d="M 3162 2957 
Q 3546 2957 3936 2960 
Q 4326 2963 4678 2966 
Q 5030 2970 5331 2979 
Q 5632 2989 5837 3002 
L 5837 2432 
Q 5530 2451 5040 2460 
Q 4550 2470 3987 2470 
L 3987 448 
Q 3987 301 4080 249 
Q 4173 198 4416 198 
Q 4742 198 4921 214 
Q 5101 230 5197 310 
Q 5293 390 5334 563 
Q 5376 736 5427 1056 
Q 5600 877 5763 777 
Q 5926 678 6022 685 
Q 5926 333 5840 128 
Q 5754 -77 5597 -182 
Q 5440 -288 5174 -317 
Q 4909 -346 4448 -346 
Q 4128 -346 3933 -326 
Q 3738 -307 3629 -240 
Q 3520 -173 3481 -48 
Q 3443 77 3443 288 
L 3443 2477 
L 3072 2477 
Q 2944 1888 2774 1453 
Q 2605 1018 2349 672 
Q 2093 326 1731 38 
Q 1370 -250 870 -544 
Q 787 -429 652 -291 
Q 518 -154 378 -51 
Q 845 128 1200 368 
Q 1555 608 1817 918 
Q 2080 1229 2253 1613 
Q 2426 1997 2522 2477 
Q 1914 2470 1424 2460 
Q 934 2451 582 2432 
L 582 3002 
Q 947 2982 1456 2972 
Q 1965 2963 2598 2957 
Q 2624 3213 2643 3558 
Q 2662 3904 2669 4275 
Q 2189 4269 1805 4259 
Q 1421 4250 1146 4230 
L 1146 4806 
Q 1485 4781 1990 4771 
Q 2496 4762 3123 4762 
Q 3430 4762 3747 4765 
Q 4064 4768 4349 4774 
Q 4634 4781 4877 4787 
Q 5120 4794 5286 4806 
L 5286 4230 
Q 5133 4243 4905 4252 
Q 4678 4262 4409 4265 
Q 4141 4269 3846 4272 
Q 3552 4275 3258 4275 
Q 3258 3949 3232 3606 
Q 3206 3264 3162 2957 
z
" transform="scale(0.015625)"/>
      <path id="STHeitiSC-Medium-300" d="M 2522 2310 
Q 2432 2317 2269 2323 
Q 2106 2330 1926 2330 
Q 1747 2330 1577 2323 
Q 1408 2317 1306 2310 
L 1306 2707 
Q 1402 2694 1565 2691 
Q 1728 2688 1907 2688 
Q 2086 2688 2249 2694 
Q 2413 2701 2522 2707 
L 2522 2310 
z
M 5005 2349 
Q 4915 2355 4748 2358 
Q 4582 2362 4400 2362 
Q 4218 2362 4045 2358 
Q 3872 2355 3770 2349 
L 3770 2726 
Q 3866 2720 4032 2717 
Q 4198 2714 4377 2714 
Q 4557 2714 4726 2717 
Q 4896 2720 5005 2726 
L 5005 2349 
z
M 2541 2989 
Q 2451 2995 2294 3001 
Q 2138 3008 1962 3008 
Q 1786 3008 1622 3001 
Q 1459 2995 1357 2989 
L 1357 3366 
Q 1453 3354 1619 3350 
Q 1786 3347 1965 3347 
Q 2144 3347 2304 3350 
Q 2464 3354 2541 3366 
L 2541 2989 
z
M 4947 2989 
Q 4864 2995 4710 3001 
Q 4557 3008 4384 3008 
Q 4211 3008 4041 3001 
Q 3872 2995 3770 2989 
L 3770 3379 
Q 3866 3366 4035 3363 
Q 4205 3360 4384 3360 
Q 4563 3360 4720 3363 
Q 4877 3366 4947 3379 
L 4947 2989 
z
M 2816 1715 
Q 1965 1715 1366 1702 
Q 768 1690 538 1664 
L 538 2150 
Q 666 2131 918 2118 
Q 1171 2106 1516 2096 
Q 1862 2086 2294 2083 
Q 2726 2080 3219 2080 
Q 3648 2080 4067 2083 
Q 4486 2086 4844 2096 
Q 5203 2106 5472 2118 
Q 5741 2131 5875 2150 
L 5875 1670 
Q 5741 1677 5481 1686 
Q 5222 1696 4880 1702 
Q 4538 1709 4138 1712 
Q 3738 1715 3322 1715 
L 3162 1274 
Q 3475 1274 3792 1280 
Q 4109 1286 4400 1296 
Q 4691 1306 4950 1315 
Q 5210 1325 5408 1338 
Q 5376 1210 5366 1101 
Q 5357 992 5357 864 
L 5357 230 
Q 5357 -26 5331 -179 
Q 5306 -333 5210 -429 
Q 5114 -525 4925 -579 
Q 4736 -634 4416 -698 
Q 4442 -576 4400 -422 
Q 4358 -269 4179 -58 
Q 4525 -134 4685 -86 
Q 4845 -38 4845 109 
L 4845 915 
L 3891 915 
Q 3891 45 3910 -397 
L 3437 -397 
Q 3450 -179 3456 150 
Q 3462 480 3462 915 
L 2707 915 
Q 2707 474 2710 134 
Q 2714 -205 2726 -429 
L 2259 -429 
Q 2272 -211 2278 131 
Q 2285 474 2285 915 
L 1510 915 
L 1510 -570 
L 979 -570 
Q 998 -422 1008 -300 
Q 1018 -179 1018 -38 
L 1018 890 
Q 1018 1030 1008 1136 
Q 998 1242 979 1344 
Q 1286 1312 1747 1293 
Q 2208 1274 2707 1274 
L 2816 1715 
z
M 3405 4064 
Q 3930 4064 4317 4070 
Q 4704 4077 4995 4086 
Q 5286 4096 5494 4109 
Q 5702 4122 5869 4134 
L 5869 3027 
L 5370 3027 
L 5370 3706 
L 3405 3706 
L 3405 3194 
Q 3405 2938 3408 2742 
Q 3411 2547 3424 2323 
L 2893 2323 
Q 2906 2560 2912 2755 
Q 2918 2950 2918 3194 
L 2918 3706 
L 998 3706 
L 998 2925 
L 518 2925 
L 518 4134 
Q 678 4115 886 4105 
Q 1094 4096 1379 4086 
Q 1664 4077 2041 4070 
Q 2419 4064 2918 4064 
L 2918 4506 
Q 2336 4499 1904 4486 
Q 1472 4474 1139 4454 
L 1139 4941 
Q 1523 4909 2035 4899 
Q 2547 4890 3258 4890 
Q 3974 4890 4486 4899 
Q 4998 4909 5382 4941 
L 5382 4454 
Q 5018 4480 4541 4493 
Q 4064 4506 3405 4506 
L 3405 4064 
z
" transform="scale(0.015625)"/>
      <path id="STHeitiSC-Medium-299" d="M 1107 2323 
Q 877 2323 694 2316 
Q 512 2310 397 2291 
L 397 2912 
Q 525 2893 685 2883 
Q 845 2874 1014 2874 
Q 1184 2874 1350 2883 
Q 1517 2893 1651 2912 
Q 1619 2739 1612 2569 
Q 1606 2400 1606 2138 
L 1606 429 
Q 1728 390 1853 332 
Q 1978 275 2125 198 
Q 2298 102 2650 41 
Q 3002 -19 3504 -35 
Q 4006 -51 4659 -19 
Q 5312 13 6093 102 
Q 5952 -198 5952 -506 
Q 5254 -538 4732 -554 
Q 4211 -570 3820 -563 
Q 3430 -557 3148 -528 
Q 2867 -499 2649 -444 
Q 2432 -390 2249 -313 
Q 2067 -237 1882 -134 
Q 1702 -38 1558 0 
Q 1414 38 1283 -6 
Q 1152 -51 1027 -188 
Q 902 -326 762 -570 
Q 672 -429 547 -297 
Q 422 -166 301 -77 
Q 544 115 752 243 
Q 960 371 1107 429 
L 1107 2323 
z
M 2726 2170 
L 2726 1626 
L 3674 1626 
L 3674 2170 
L 2726 2170 
z
M 3674 2554 
L 3674 3078 
L 2726 3078 
L 2726 2554 
L 3674 2554 
z
M 4134 2170 
L 4134 1626 
L 5184 1626 
L 5184 2170 
L 4134 2170 
z
M 5184 2554 
L 5184 3078 
L 4134 3078 
L 4134 2554 
L 5184 2554 
z
M 4634 4416 
Q 4096 4416 3728 4413 
Q 3360 4410 3097 4403 
Q 2835 4397 2643 4387 
Q 2451 4378 2272 4365 
L 2272 4896 
Q 2451 4877 2640 4867 
Q 2829 4858 3040 4851 
Q 3251 4845 3491 4841 
Q 3731 4838 4026 4838 
Q 4627 4838 4982 4851 
Q 5338 4864 5562 4896 
L 5562 4474 
Q 5472 4442 5296 4342 
Q 5120 4243 4947 4115 
L 4173 3469 
Q 4467 3469 4700 3472 
Q 4934 3475 5123 3478 
Q 5312 3482 5472 3491 
Q 5632 3501 5779 3520 
Q 5722 3398 5693 3222 
Q 5664 3046 5664 2784 
L 5664 710 
Q 5664 627 5641 560 
Q 5619 493 5532 435 
Q 5446 378 5276 323 
Q 5107 269 4813 211 
Q 4813 480 4595 755 
Q 4794 755 4909 768 
Q 5024 781 5085 832 
Q 5146 883 5165 982 
Q 5184 1082 5184 1248 
L 4134 1248 
Q 4134 979 4147 710 
Q 4160 442 4179 250 
L 3629 250 
Q 3654 429 3664 701 
Q 3674 973 3674 1248 
L 2726 1248 
L 2726 307 
L 2202 307 
Q 2234 550 2246 771 
Q 2259 992 2259 1216 
L 2259 2784 
Q 2259 3008 2249 3203 
Q 2240 3398 2214 3520 
Q 2304 3507 2413 3500 
Q 2522 3494 2678 3488 
Q 2835 3482 3052 3475 
Q 3270 3469 3578 3469 
Q 3475 3629 3353 3792 
Q 3232 3955 3104 4102 
L 3514 4294 
Q 3590 4192 3692 4054 
Q 3795 3917 3904 3770 
L 4634 4416 
z
M 1395 3667 
Q 1274 3930 1107 4176 
Q 941 4422 749 4608 
L 1248 4909 
Q 1312 4813 1395 4697 
Q 1478 4582 1564 4460 
Q 1651 4339 1731 4220 
Q 1811 4102 1882 4006 
L 1395 3667 
z
" transform="scale(0.015625)"/>
      <path id="STHeitiSC-Medium-1b1" d="M 5107 1075 
L 3027 1075 
L 3027 314 
L 5107 314 
L 5107 1075 
z
M 3027 -666 
L 2470 -666 
Q 2496 -525 2505 -397 
Q 2515 -269 2515 -102 
L 2515 1018 
Q 2515 1203 2505 1334 
Q 2496 1466 2470 1581 
Q 2541 1568 2656 1558 
Q 2771 1549 2956 1539 
Q 3142 1530 3414 1526 
Q 3686 1523 4064 1523 
Q 4474 1523 4749 1526 
Q 5024 1530 5203 1539 
Q 5382 1549 5488 1558 
Q 5594 1568 5664 1581 
Q 5645 1459 5632 1321 
Q 5619 1184 5619 1018 
L 5619 32 
Q 5619 -275 5664 -538 
L 5107 -538 
L 5107 -134 
L 3027 -134 
L 3027 -666 
z
M 1709 -678 
L 1107 -678 
Q 1146 -397 1165 -109 
Q 1184 179 1184 538 
L 1184 2784 
Q 1088 2618 973 2445 
Q 858 2272 710 2061 
Q 653 2208 557 2320 
Q 461 2432 326 2528 
Q 461 2675 573 2819 
Q 685 2963 781 3123 
Q 877 3283 963 3462 
Q 1050 3642 1133 3853 
Q 1254 4160 1353 4499 
Q 1453 4838 1504 5126 
Q 1670 5037 1801 4989 
Q 1933 4941 2080 4915 
Q 2195 4896 2204 4857 
Q 2214 4819 2112 4749 
Q 2093 4736 2077 4713 
Q 2061 4691 2038 4652 
Q 2016 4614 1987 4547 
Q 1958 4480 1914 4378 
Q 1856 4237 1808 4112 
Q 1760 3987 1709 3878 
L 1709 -678 
z
M 5715 1997 
Q 5408 2022 5021 2035 
Q 4634 2048 4064 2048 
Q 3501 2048 3110 2035 
Q 2720 2022 2419 1997 
L 2419 2541 
Q 2726 2515 3116 2502 
Q 3507 2490 4064 2490 
Q 4634 2490 5021 2502 
Q 5408 2515 5715 2541 
L 5715 1997 
z
M 5683 2880 
Q 5389 2906 5005 2918 
Q 4621 2931 4064 2931 
Q 3514 2931 3130 2921 
Q 2746 2912 2451 2880 
L 2451 3424 
Q 2752 3392 3133 3382 
Q 3514 3373 4064 3373 
Q 4621 3373 5001 3385 
Q 5382 3398 5683 3424 
L 5683 2880 
z
M 6067 3789 
Q 5702 3808 5244 3824 
Q 4787 3840 4122 3840 
Q 3462 3840 3001 3827 
Q 2541 3814 2182 3789 
L 2182 4352 
Q 2547 4320 3004 4304 
Q 3462 4288 4122 4288 
Q 4781 4288 5245 4304 
Q 5709 4320 6067 4352 
L 6067 3789 
z
M 3846 4384 
Q 3814 4544 3756 4717 
Q 3699 4890 3629 5037 
L 4314 5203 
Q 4378 5056 4442 4899 
Q 4506 4742 4563 4589 
L 3846 4384 
z
" transform="scale(0.015625)"/>
     </defs>
     <use xlink:href="#STHeitiSC-Medium-ea1"/>
     <use xlink:href="#STHeitiSC-Medium-39f" transform="translate(100 0)"/>
     <use xlink:href="#STHeitiSC-Medium-1c" transform="translate(200 0)"/>
     <use xlink:href="#STHeitiSC-Medium-3" transform="translate(227.703125 0)"/>
     <use xlink:href="#STHeitiSC-Medium-1e2" transform="translate(252.703125 0)"/>
     <use xlink:href="#STHeitiSC-Medium-104" transform="translate(352.703125 0)"/>
     <use xlink:href="#STHeitiSC-Medium-3" transform="translate(452.703125 0)"/>
     <use xlink:href="#STHeitiSC-Medium-34" transform="translate(477.703125 0)"/>
     <use xlink:href="#STHeitiSC-Medium-47" transform="translate(538.40625 0)"/>
     <use xlink:href="#STHeitiSC-Medium-52" transform="translate(603.40625 0)"/>
     <use xlink:href="#STHeitiSC-Medium-4e" transform="translate(671.609375 0)"/>
     <use xlink:href="#STHeitiSC-Medium-4b" transform="translate(691.609375 0)"/>
     <use xlink:href="#STHeitiSC-Medium-45" transform="translate(711.609375 0)"/>
     <use xlink:href="#STHeitiSC-Medium-43" transform="translate(776.3125 0)"/>
     <use xlink:href="#STHeitiSC-Medium-56" transform="translate(844.609375 0)"/>
     <use xlink:href="#STHeitiSC-Medium-47" transform="translate(878.515625 0)"/>
     <use xlink:href="#STHeitiSC-Medium-bedf" transform="translate(943.515625 0)"/>
     <use xlink:href="#STHeitiSC-Medium-184" transform="translate(1043.515625 0)"/>
     <use xlink:href="#STHeitiSC-Medium-300" transform="translate(1143.515625 0)"/>
     <use xlink:href="#STHeitiSC-Medium-299" transform="translate(1243.515625 0)"/>
     <use xlink:href="#STHeitiSC-Medium-1b1" transform="translate(1343.515625 0)"/>
    </g>
   </g>
   <g id="text_5">
    <!-- 激活张量 -->
    <g transform="translate(606.169014 168.39) scale(0.09 -0.09)">
     <use xlink:href="#STHeitiSC-Medium-57a"/>
     <use xlink:href="#STHeitiSC-Medium-19c" transform="translate(100 0)"/>
     <use xlink:href="#STHeitiSC-Medium-2da" transform="translate(200 0)"/>
     <use xlink:href="#STHeitiSC-Medium-294" transform="translate(300 0)"/>
    </g>
    <!-- [batch, seq, hidden] -->
    <g transform="translate(579.722373 177.66) scale(0.09 -0.09)">
     <use xlink:href="#STHeitiSC-Medium-3d"/>
     <use xlink:href="#STHeitiSC-Medium-44" transform="translate(35.09375 0)"/>
     <use xlink:href="#STHeitiSC-Medium-43" transform="translate(103.296875 0)"/>
     <use xlink:href="#STHeitiSC-Medium-56" transform="translate(171.59375 0)"/>
     <use xlink:href="#STHeitiSC-Medium-45" transform="translate(205.5 0)"/>
     <use xlink:href="#STHeitiSC-Medium-4a" transform="translate(270.203125 0)"/>
     <use xlink:href="#STHeitiSC-Medium-e" transform="translate(331.203125 0)"/>
     <use xlink:href="#STHeitiSC-Medium-3" transform="translate(358.90625 0)"/>
     <use xlink:href="#STHeitiSC-Medium-55" transform="translate(383.90625 0)"/>
     <use xlink:href="#STHeitiSC-Medium-47" transform="translate(422.703125 0)"/>
     <use xlink:href="#STHeitiSC-Medium-53" transform="translate(487.703125 0)"/>
     <use xlink:href="#STHeitiSC-Medium-e" transform="translate(555.90625 0)"/>
     <use xlink:href="#STHeitiSC-Medium-3" transform="translate(583.609375 0)"/>
     <use xlink:href="#STHeitiSC-Medium-4a" transform="translate(608.609375 0)"/>
     <use xlink:href="#STHeitiSC-Medium-4b" transform="translate(669.609375 0)"/>
     <use xlink:href="#STHeitiSC-Medium-46" transform="translate(689.609375 0)"/>
     <use xlink:href="#STHeitiSC-Medium-46" transform="translate(758.109375 0)"/>
     <use xlink:href="#STHeitiSC-Medium-47" transform="translate(826.609375 0)"/>
     <use xlink:href="#STHeitiSC-Medium-50" transform="translate(891.609375 0)"/>
     <use xlink:href="#STHeitiSC-Medium-3f" transform="translate(952.609375 0)"/>
    </g>
    <!-- Replicate -->
    <g transform="translate(603.207452 186.93) scale(0.09 -0.09)">
     <use xlink:href="#STHeitiSC-Medium-34"/>
     <use xlink:href="#STHeitiSC-Medium-47" transform="translate(60.703125 0)"/>
     <use xlink:href="#STHeitiSC-Medium-52" transform="translate(125.703125 0)"/>
     <use xlink:href="#STHeitiSC-Medium-4e" transform="translate(193.90625 0)"/>
     <use xlink:href="#STHeitiSC-Medium-4b" transform="translate(213.90625 0)"/>
     <use xlink:href="#STHeitiSC-Medium-45" transform="translate(233.90625 0)"/>
     <use xlink:href="#STHeitiSC-Medium-43" transform="translate(298.609375 0)"/>
     <use xlink:href="#STHeitiSC-Medium-56" transform="translate(366.90625 0)"/>
     <use xlink:href="#STHeitiSC-Medium-47" transform="translate(400.8125 0)"/>
    </g>
   </g>
   <g id="text_6">
    <!-- 注意力掩码 -->
    <g transform="translate(738.114085 168.39) scale(0.09 -0.09)">
     <use xlink:href="#STHeitiSC-Medium-369"/>
     <use xlink:href="#STHeitiSC-Medium-1cb" transform="translate(100 0)"/>
     <use xlink:href="#STHeitiSC-Medium-1ba" transform="translate(200 0)"/>
     <use xlink:href="#STHeitiSC-Medium-ea1" transform="translate(300 0)"/>
     <use xlink:href="#STHeitiSC-Medium-39f" transform="translate(400 0)"/>
    </g>
    <!-- [batch, seq, seq] -->
    <g transform="translate(723.907444 177.66) scale(0.09 -0.09)">
     <use xlink:href="#STHeitiSC-Medium-3d"/>
     <use xlink:href="#STHeitiSC-Medium-44" transform="translate(35.09375 0)"/>
     <use xlink:href="#STHeitiSC-Medium-43" transform="translate(103.296875 0)"/>
     <use xlink:href="#STHeitiSC-Medium-56" transform="translate(171.59375 0)"/>
     <use xlink:href="#STHeitiSC-Medium-45" transform="translate(205.5 0)"/>
     <use xlink:href="#STHeitiSC-Medium-4a" transform="translate(270.203125 0)"/>
     <use xlink:href="#STHeitiSC-Medium-e" transform="translate(331.203125 0)"/>
     <use xlink:href="#STHeitiSC-Medium-3" transform="translate(358.90625 0)"/>
     <use xlink:href="#STHeitiSC-Medium-55" transform="translate(383.90625 0)"/>
     <use xlink:href="#STHeitiSC-Medium-47" transform="translate(422.703125 0)"/>
     <use xlink:href="#STHeitiSC-Medium-53" transform="translate(487.703125 0)"/>
     <use xlink:href="#STHeitiSC-Medium-e" transform="translate(555.90625 0)"/>
     <use xlink:href="#STHeitiSC-Medium-3" transform="translate(583.609375 0)"/>
     <use xlink:href="#STHeitiSC-Medium-55" transform="translate(608.609375 0)"/>
     <use xlink:href="#STHeitiSC-Medium-47" transform="translate(647.40625 0)"/>
     <use xlink:href="#STHeitiSC-Medium-53" transform="translate(712.40625 0)"/>
     <use xlink:href="#STHeitiSC-Medium-3f" transform="translate(780.609375 0)"/>
    </g>
    <!-- Replicate -->
    <g transform="translate(739.652522 186.93) scale(0.09 -0.09)">
     <use xlink:href="#STHeitiSC-Medium-34"/>
     <use xlink:href="#STHeitiSC-Medium-47" transform="translate(60.703125 0)"/>
     <use xlink:href="#STHeitiSC-Medium-52" transform="translate(125.703125 0)"/>
     <use xlink:href="#STHeitiSC-Medium-4e" transform="translate(193.90625 0)"/>
     <use xlink:href="#STHeitiSC-Medium-4b" transform="translate(213.90625 0)"/>
     <use xlink:href="#STHeitiSC-Medium-45" transform="translate(233.90625 0)"/>
     <use xlink:href="#STHeitiSC-Medium-43" transform="translate(298.609375 0)"/>
     <use xlink:href="#STHeitiSC-Medium-56" transform="translate(366.90625 0)"/>
     <use xlink:href="#STHeitiSC-Medium-47" transform="translate(400.8125 0)"/>
    </g>
   </g>
   <g id="patch_7">
    <path d="M 160.477479 174.42 
Q 247.462485 174.42 332.211423 174.42 
" style="fill: none; stroke: #1565c0; stroke-width: 2; stroke-linecap: round"/>
    <path d="M 328.211423 172.42 
L 332.211423 174.42 
L 328.211423 176.42 
" style="fill: none; stroke: #1565c0; stroke-width: 2; stroke-linecap: round"/>
   </g>
   <g id="patch_8">
    <path d="M 296.92092 174.42 
Q 315.683202 174.42 332.209416 174.42 
" style="fill: none; stroke: #1565c0; stroke-width: 2; stroke-linecap: round"/>
    <path d="M 328.209416 172.42 
L 332.209416 174.42 
L 328.209416 176.42 
" style="fill: none; stroke: #1565c0; stroke-width: 2; stroke-linecap: round"/>
   </g>
   <g id="patch_9">
    <path d="M 516.421322 174.42 
Q 538.149887 174.42 557.642384 174.42 
" style="fill: none; stroke: #6a1b9a; stroke-width: 2; stroke-linecap: round"/>
    <path d="M 553.642384 172.42 
L 557.642384 174.42 
L 553.642384 176.42 
" style="fill: none; stroke: #6a1b9a; stroke-width: 2; stroke-linecap: round"/>
   </g>
   <g id="patch_10">
    <path d="M 652.866392 174.42 
Q 674.594958 174.42 694.087455 174.42 
" style="fill: none; stroke: #6a1b9a; stroke-width: 2; stroke-linecap: round"/>
    <path d="M 690.087455 172.42 
L 694.087455 174.42 
L 690.087455 176.42 
" style="fill: none; stroke: #6a1b9a; stroke-width: 2; stroke-linecap: round"/>
   </g>
   <g id="text_7">
    <!-- PrepareModuleInput：布局转换桥 -->
    <g transform="translate(316.113437 19.24) scale(0.14 -0.14)">
     <defs>
      <path id="STHeitiSC-Medium-beed" d="M 1926 3008 
L 1261 3008 
L 1261 3686 
L 1926 3686 
L 1926 3008 
z
M 1926 384 
L 1261 384 
L 1261 1062 
L 1926 1062 
L 1926 384 
z
" transform="scale(0.015625)"/>
      <path id="STHeitiSC-Medium-498" d="M 2362 3706 
Q 2150 3706 1897 3699 
Q 1645 3693 1392 3686 
Q 1139 3680 912 3670 
Q 685 3661 538 3648 
L 538 4211 
Q 883 4179 1420 4166 
Q 1958 4154 2598 4154 
Q 2701 4397 2787 4691 
Q 2874 4986 2931 5235 
Q 3098 5178 3286 5133 
Q 3475 5088 3648 5056 
Q 3776 5030 3773 4995 
Q 3770 4960 3667 4915 
Q 3622 4890 3516 4723 
Q 3411 4557 3206 4154 
L 4307 4154 
Q 4499 4154 4755 4157 
Q 5011 4160 5273 4169 
Q 5536 4179 5779 4188 
Q 6022 4198 6195 4211 
L 6195 3648 
Q 6022 3661 5776 3673 
Q 5530 3686 5264 3692 
Q 4998 3699 4742 3702 
Q 4486 3706 4294 3706 
L 2970 3706 
Q 2816 3437 2595 3120 
Q 2374 2803 2106 2483 
L 3328 2483 
Q 3328 2867 3312 3097 
Q 3296 3328 3264 3386 
Q 3430 3360 3574 3350 
Q 3718 3341 3872 3347 
Q 4083 3354 3936 3219 
Q 3878 3168 3856 3005 
Q 3834 2842 3834 2483 
Q 4294 2483 4768 2486 
Q 5242 2490 5626 2502 
Q 5613 2387 5606 2275 
Q 5600 2163 5600 1997 
L 5600 570 
Q 5600 352 5561 217 
Q 5523 83 5414 0 
Q 5306 -83 5104 -134 
Q 4902 -186 4570 -237 
Q 4538 -51 4483 105 
Q 4429 262 4326 461 
Q 4582 435 4729 432 
Q 4877 429 4953 461 
Q 5030 493 5052 557 
Q 5075 621 5075 730 
L 5075 2048 
L 3834 2048 
L 3834 58 
Q 3834 -102 3853 -307 
Q 3872 -512 3898 -710 
L 3277 -710 
Q 3296 -538 3312 -320 
Q 3328 -102 3328 58 
L 3328 2048 
L 2214 2048 
L 2214 -192 
L 1658 -192 
Q 1690 45 1699 221 
Q 1709 397 1709 576 
L 1709 2042 
Q 1466 1779 1222 1545 
Q 979 1312 736 1120 
Q 608 1248 483 1325 
Q 358 1402 205 1472 
Q 531 1664 841 1926 
Q 1152 2189 1430 2486 
Q 1709 2784 1945 3097 
Q 2182 3411 2362 3706 
z
" transform="scale(0.015625)"/>
      <path id="STHeitiSC-Medium-672" d="M 4960 4320 
L 1805 4320 
L 1805 3667 
L 4960 3667 
L 4960 4320 
z
M 4512 2611 
Q 4966 2611 5331 2633 
Q 5696 2656 5946 2688 
Q 5926 2483 5907 2268 
Q 5888 2054 5872 1763 
Q 5856 1472 5837 1069 
Q 5818 666 5798 83 
Q 5792 -109 5753 -240 
Q 5715 -371 5612 -457 
Q 5510 -544 5318 -598 
Q 5126 -653 4813 -691 
Q 4819 -538 4761 -358 
Q 4704 -179 4563 6 
Q 4774 -45 4905 -57 
Q 5037 -70 5113 -51 
Q 5190 -32 5222 25 
Q 5254 83 5267 179 
Q 5286 352 5299 605 
Q 5312 858 5321 1136 
Q 5331 1414 5337 1686 
Q 5344 1958 5344 2176 
L 1766 2176 
Q 1728 1779 1664 1436 
Q 1600 1094 1504 777 
Q 1408 461 1277 153 
Q 1146 -154 986 -480 
Q 896 -371 755 -307 
Q 614 -243 448 -230 
Q 595 0 732 269 
Q 870 538 976 842 
Q 1082 1146 1155 1491 
Q 1229 1837 1248 2234 
Q 1280 2752 1280 3401 
Q 1280 4051 1235 4851 
Q 1325 4838 1465 4825 
Q 1606 4813 1852 4803 
Q 2099 4794 2470 4787 
Q 2842 4781 3386 4781 
Q 3936 4781 4310 4787 
Q 4685 4794 4931 4803 
Q 5178 4813 5315 4825 
Q 5453 4838 5530 4851 
Q 5491 4454 5491 3987 
Q 5491 3763 5500 3548 
Q 5510 3334 5530 3149 
Q 5350 3174 5084 3190 
Q 4819 3206 4397 3206 
L 1805 3206 
Q 1805 3117 1801 2947 
Q 1798 2778 1792 2611 
L 4512 2611 
z
M 2746 256 
L 2746 -218 
L 2214 -218 
Q 2240 -58 2246 83 
Q 2253 224 2253 390 
L 2253 1210 
Q 2253 1331 2243 1462 
Q 2234 1594 2214 1722 
Q 2298 1709 2394 1699 
Q 2490 1690 2621 1686 
Q 2752 1683 2931 1680 
Q 3110 1677 3360 1677 
Q 3629 1677 3814 1680 
Q 4000 1683 4128 1686 
Q 4256 1690 4345 1699 
Q 4435 1709 4506 1722 
Q 4467 1510 4467 1210 
L 4467 666 
Q 4467 352 4506 58 
L 3968 58 
L 3968 256 
L 2746 256 
z
M 3968 646 
L 3968 1267 
L 2746 1267 
L 2746 646 
L 3968 646 
z
" transform="scale(0.015625)"/>
      <path id="STHeitiSC-Medium-2bd" d="M 1594 2413 
Q 1587 2758 1574 2998 
Q 1562 3238 1549 3379 
Q 1606 3366 1683 3360 
Q 1760 3354 1843 3347 
Q 1926 3341 2006 3337 
Q 2086 3334 2144 3334 
Q 2208 3334 2211 3308 
Q 2214 3283 2163 3258 
Q 2125 3238 2102 3196 
Q 2080 3155 2080 3078 
L 2080 2413 
Q 2285 2419 2409 2428 
Q 2534 2438 2656 2464 
L 2656 1984 
Q 2566 1997 2425 2003 
Q 2285 2010 2080 2016 
L 2080 1126 
Q 2381 1178 2576 1219 
Q 2771 1261 2880 1293 
Q 2848 1165 2835 1021 
Q 2822 877 2822 768 
Q 2714 755 2547 732 
Q 2381 710 2080 666 
Q 2080 288 2093 -41 
Q 2106 -371 2138 -710 
L 1536 -710 
Q 1568 -384 1581 -73 
Q 1594 237 1594 589 
Q 1210 518 947 454 
Q 685 390 499 320 
Q 480 461 448 643 
Q 416 826 384 966 
Q 480 966 624 976 
Q 768 986 937 998 
Q 1107 1011 1276 1024 
Q 1446 1037 1594 1056 
L 1594 2010 
Q 1222 1997 979 1968 
Q 736 1939 563 1894 
Q 506 2150 352 2374 
Q 410 2413 474 2486 
Q 538 2560 618 2713 
Q 698 2867 797 3126 
Q 896 3386 1030 3789 
Q 794 3782 678 3772 
Q 563 3763 448 3744 
L 448 4282 
Q 576 4256 736 4246 
Q 896 4237 1171 4230 
Q 1274 4563 1322 4784 
Q 1370 5005 1382 5210 
Q 1459 5178 1548 5149 
Q 1638 5120 1728 5091 
Q 1818 5062 1898 5040 
Q 1978 5018 2035 5005 
Q 2170 4973 2029 4883 
Q 2003 4870 1974 4832 
Q 1946 4794 1907 4717 
Q 1869 4640 1817 4521 
Q 1766 4403 1690 4230 
Q 2118 4230 2352 4243 
Q 2586 4256 2733 4282 
L 2733 3744 
Q 2656 3757 2576 3766 
Q 2496 3776 2368 3779 
Q 2240 3782 2035 3785 
Q 1830 3789 1510 3789 
L 986 2413 
L 1594 2413 
z
M 4640 134 
Q 4819 0 4988 -137 
Q 5158 -275 5344 -429 
L 4922 -870 
Q 4698 -646 4506 -464 
Q 4314 -282 4122 -125 
Q 3930 32 3722 176 
Q 3514 320 3264 467 
L 3578 858 
Q 3782 730 3948 618 
Q 4115 506 4262 403 
L 4915 1350 
L 3341 1350 
Q 3392 1594 3443 1843 
Q 3494 2093 3558 2490 
Q 3328 2477 3097 2467 
Q 2867 2458 2733 2432 
L 2733 2976 
Q 2893 2957 3139 2944 
Q 3386 2931 3616 2925 
Q 3648 3162 3670 3357 
Q 3693 3552 3718 3718 
Q 3514 3712 3296 3699 
Q 3078 3686 2957 3667 
L 2957 4211 
Q 3021 4198 3117 4188 
Q 3213 4179 3321 4172 
Q 3430 4166 3548 4160 
Q 3667 4154 3770 4154 
Q 3795 4352 3808 4496 
Q 3821 4640 3830 4752 
Q 3840 4864 3846 4957 
Q 3853 5050 3853 5146 
Q 4013 5094 4192 5062 
Q 4371 5030 4474 5030 
Q 4550 5030 4556 5001 
Q 4563 4973 4474 4890 
Q 4454 4877 4438 4838 
Q 4422 4800 4400 4717 
Q 4378 4634 4349 4496 
Q 4320 4358 4288 4147 
L 4973 4147 
Q 5158 4147 5334 4163 
Q 5510 4179 5677 4211 
L 5677 3667 
Q 5338 3725 4973 3725 
L 4218 3725 
Q 4192 3558 4163 3360 
Q 4134 3162 4102 2918 
L 5184 2918 
Q 5645 2918 6042 2976 
L 6042 2432 
Q 5843 2464 5625 2480 
Q 5408 2496 5184 2496 
L 4045 2496 
Q 4026 2336 4003 2160 
Q 3981 1984 3955 1792 
L 4992 1792 
Q 5434 1792 5734 1830 
L 5734 1389 
Q 5619 1344 5478 1232 
Q 5338 1120 5248 992 
L 4640 134 
z
" transform="scale(0.015625)"/>
      <path id="STHeitiSC-Medium-495" d="M 1139 3194 
Q 890 3187 682 3174 
Q 474 3162 333 3136 
L 333 3667 
Q 474 3642 682 3632 
Q 890 3622 1139 3616 
Q 1139 4154 1120 4554 
Q 1101 4954 1069 5094 
Q 1242 5062 1370 5052 
Q 1498 5043 1632 5050 
Q 1939 5062 1728 4890 
Q 1658 4838 1635 4790 
Q 1613 4742 1613 4659 
L 1613 3616 
Q 1798 3622 1948 3635 
Q 2099 3648 2221 3667 
L 2221 3136 
Q 2099 3155 1948 3168 
Q 1798 3181 1613 3187 
L 1613 2125 
Q 1754 2202 1891 2288 
Q 2029 2374 2176 2464 
Q 2157 2317 2182 2185 
Q 2208 2054 2278 1971 
Q 2112 1894 1945 1808 
Q 1779 1722 1613 1632 
L 1613 -115 
Q 1613 -256 1590 -345 
Q 1568 -435 1481 -496 
Q 1395 -557 1219 -601 
Q 1043 -646 736 -704 
Q 698 -538 640 -390 
Q 582 -243 480 -96 
Q 794 -160 966 -105 
Q 1139 -51 1139 96 
L 1139 1376 
Q 941 1261 768 1152 
Q 595 1043 448 934 
Q 429 1120 387 1280 
Q 346 1440 294 1568 
Q 512 1638 723 1715 
Q 934 1792 1139 1888 
L 1139 3194 
z
M 3808 1658 
Q 3846 1926 3856 2249 
Q 3866 2573 3853 2963 
L 3085 2963 
L 3085 1658 
L 3808 1658 
z
M 4339 2963 
Q 4339 2867 4336 2720 
Q 4333 2573 4323 2400 
Q 4314 2227 4301 2038 
Q 4288 1850 4269 1658 
L 5114 1658 
L 5114 2963 
L 4339 2963 
z
M 4294 4525 
Q 4416 4525 4569 4531 
Q 4723 4538 4873 4544 
Q 5024 4550 5145 4560 
Q 5267 4570 5338 4576 
L 4608 3341 
Q 4819 3341 4969 3344 
Q 5120 3347 5235 3353 
Q 5350 3360 5436 3366 
Q 5523 3373 5613 3386 
Q 5594 3200 5594 2893 
L 5594 1664 
Q 5696 1670 5792 1676 
Q 5888 1683 6016 1696 
L 6016 1229 
Q 5894 1242 5798 1251 
Q 5702 1261 5606 1264 
Q 5510 1267 5404 1267 
Q 5299 1267 5165 1267 
L 4499 1267 
Q 4608 966 4736 755 
Q 4864 544 5049 393 
Q 5235 243 5491 140 
Q 5747 38 6106 -38 
Q 6035 -128 5987 -201 
Q 5939 -275 5900 -342 
Q 5862 -410 5830 -477 
Q 5798 -544 5773 -627 
Q 5139 -422 4761 -9 
Q 4384 403 4166 1062 
Q 4109 858 3984 624 
Q 3859 390 3654 156 
Q 3450 -77 3149 -288 
Q 2848 -499 2438 -653 
Q 2355 -506 2265 -400 
Q 2176 -294 2042 -173 
Q 2419 -51 2704 83 
Q 2989 218 3190 387 
Q 3392 557 3523 771 
Q 3654 986 3731 1267 
L 2989 1267 
Q 2790 1267 2569 1260 
Q 2349 1254 2150 1229 
L 2150 1696 
Q 2266 1683 2384 1673 
Q 2502 1664 2624 1664 
L 2624 2893 
Q 2624 3200 2605 3386 
Q 2720 3373 2841 3363 
Q 2963 3354 3129 3347 
Q 3296 3341 3529 3341 
Q 3763 3341 4109 3341 
L 4544 4141 
L 3462 4141 
Q 3334 3885 3209 3705 
Q 3085 3526 2963 3392 
Q 2835 3482 2729 3546 
Q 2624 3610 2515 3642 
Q 2669 3782 2819 3984 
Q 2970 4186 3094 4400 
Q 3219 4614 3305 4822 
Q 3392 5030 3418 5197 
Q 3539 5146 3715 5094 
Q 3891 5043 4019 5011 
Q 4090 4992 4099 4957 
Q 4109 4922 4032 4877 
Q 3962 4838 3869 4748 
Q 3776 4659 3674 4525 
L 4294 4525 
z
" transform="scale(0.015625)"/>
      <path id="STHeitiSC-Medium-a0b" d="M 1235 2310 
Q 1178 2061 1114 1859 
Q 1050 1658 976 1482 
Q 902 1306 809 1139 
Q 717 973 602 781 
Q 525 928 438 1046 
Q 352 1165 256 1267 
Q 397 1446 518 1648 
Q 640 1850 749 2090 
Q 858 2330 954 2621 
Q 1050 2912 1139 3270 
Q 998 3270 892 3267 
Q 787 3264 700 3257 
Q 614 3251 534 3241 
Q 454 3232 371 3219 
L 371 3763 
Q 467 3750 553 3740 
Q 640 3731 736 3724 
Q 832 3718 950 3715 
Q 1069 3712 1235 3712 
Q 1235 3987 1232 4185 
Q 1229 4384 1222 4537 
Q 1216 4691 1206 4809 
Q 1197 4928 1184 5037 
Q 1350 5018 1465 5014 
Q 1581 5011 1728 5024 
Q 1824 5037 1840 4989 
Q 1856 4941 1766 4858 
Q 1722 4819 1709 4780 
Q 1696 4742 1696 4685 
L 1696 3718 
Q 1856 3725 1971 3734 
Q 2086 3744 2214 3763 
L 2214 3219 
Q 2086 3238 1971 3248 
Q 1856 3258 1696 3264 
L 1696 2598 
L 2035 2771 
Q 2221 2387 2432 2131 
L 1978 1894 
Q 1926 2067 1865 2192 
Q 1805 2317 1696 2483 
L 1696 512 
Q 1696 256 1712 -61 
Q 1728 -378 1760 -691 
L 1171 -691 
Q 1203 -378 1219 -61 
Q 1235 256 1235 512 
L 1235 2310 
z
M 5165 1850 
Q 5094 1747 5094 1619 
L 5094 275 
Q 5094 83 5104 -157 
Q 5114 -397 5139 -627 
L 4557 -627 
Q 4570 -397 4576 -157 
Q 4582 83 4582 275 
L 4582 1178 
Q 4582 1312 4579 1443 
Q 4576 1574 4573 1686 
Q 4570 1798 4566 1888 
Q 4563 1978 4557 2022 
Q 4666 1990 4794 1980 
Q 4922 1971 5030 1978 
Q 4806 2208 4659 2505 
Q 4512 2803 4422 3187 
L 4077 3187 
Q 3974 2822 3808 2540 
Q 3642 2259 3373 1990 
Q 3501 1965 3629 1955 
Q 3757 1946 3866 1946 
Q 4051 1946 3898 1837 
Q 3866 1811 3850 1728 
Q 3834 1645 3827 1478 
Q 3821 1101 3776 809 
Q 3731 518 3622 268 
Q 3514 19 3325 -205 
Q 3136 -429 2848 -678 
Q 2669 -461 2374 -294 
Q 2611 -154 2774 -10 
Q 2938 134 3043 294 
Q 3149 454 3203 640 
Q 3258 826 3277 1056 
Q 3302 1299 3315 1526 
Q 3328 1754 3322 1939 
Q 3136 1754 2918 1571 
Q 2701 1389 2387 1165 
Q 2342 1248 2256 1344 
Q 2170 1440 2003 1568 
Q 2342 1779 2601 1968 
Q 2861 2157 3049 2345 
Q 3238 2534 3369 2739 
Q 3501 2944 3584 3187 
Q 3277 3181 3033 3171 
Q 2790 3162 2483 3142 
L 2483 3648 
Q 2630 3635 2764 3628 
Q 2899 3622 3040 3619 
Q 3181 3616 3341 3609 
Q 3501 3603 3693 3603 
Q 3725 3763 3744 3936 
Q 3763 4109 3776 4314 
Q 3469 4282 3190 4262 
Q 2912 4243 2726 4237 
Q 2707 4346 2649 4483 
Q 2592 4621 2515 4742 
Q 2899 4698 3385 4720 
Q 3872 4742 4486 4838 
Q 4832 4890 5017 4934 
Q 5203 4979 5357 5037 
Q 5382 4966 5424 4883 
Q 5466 4800 5507 4723 
Q 5549 4646 5587 4588 
Q 5626 4531 5651 4506 
Q 5702 4454 5686 4419 
Q 5670 4384 5619 4397 
Q 5530 4416 5443 4429 
Q 5357 4442 5257 4442 
Q 5158 4442 5040 4435 
Q 4922 4429 4762 4410 
Q 4653 4397 4531 4384 
Q 4410 4371 4269 4358 
Q 4250 4147 4227 3958 
Q 4205 3770 4173 3603 
Q 4493 3603 4752 3606 
Q 5011 3610 5228 3613 
Q 5446 3616 5635 3625 
Q 5824 3635 6010 3648 
L 6010 3142 
Q 5843 3155 5702 3164 
Q 5562 3174 5421 3177 
Q 5280 3181 5129 3184 
Q 4979 3187 4800 3187 
Q 4902 2938 5024 2746 
Q 5146 2554 5299 2416 
Q 5453 2278 5657 2182 
Q 5862 2086 6144 2022 
Q 6016 1869 5949 1734 
Q 5882 1600 5837 1427 
Q 5638 1523 5472 1625 
Q 5306 1728 5165 1850 
z
" transform="scale(0.015625)"/>
     </defs>
     <use xlink:href="#STHeitiSC-Medium-32"/>
     <use xlink:href="#STHeitiSC-Medium-54" transform="translate(59.203125 0)"/>
     <use xlink:href="#STHeitiSC-Medium-47" transform="translate(89.296875 0)"/>
     <use xlink:href="#STHeitiSC-Medium-52" transform="translate(154.296875 0)"/>
     <use xlink:href="#STHeitiSC-Medium-43" transform="translate(222.5 0)"/>
     <use xlink:href="#STHeitiSC-Medium-54" transform="translate(290.796875 0)"/>
     <use xlink:href="#STHeitiSC-Medium-47" transform="translate(320.890625 0)"/>
     <use xlink:href="#STHeitiSC-Medium-2f" transform="translate(385.890625 0)"/>
     <use xlink:href="#STHeitiSC-Medium-51" transform="translate(477.796875 0)"/>
     <use xlink:href="#STHeitiSC-Medium-46" transform="translate(543.296875 0)"/>
     <use xlink:href="#STHeitiSC-Medium-57" transform="translate(611.796875 0)"/>
     <use xlink:href="#STHeitiSC-Medium-4e" transform="translate(672.59375 0)"/>
     <use xlink:href="#STHeitiSC-Medium-47" transform="translate(692.59375 0)"/>
     <use xlink:href="#STHeitiSC-Medium-2b" transform="translate(757.59375 0)"/>
     <use xlink:href="#STHeitiSC-Medium-50" transform="translate(780.1875 0)"/>
     <use xlink:href="#STHeitiSC-Medium-52" transform="translate(841.1875 0)"/>
     <use xlink:href="#STHeitiSC-Medium-57" transform="translate(909.390625 0)"/>
     <use xlink:href="#STHeitiSC-Medium-56" transform="translate(970.1875 0)"/>
     <use xlink:href="#STHeitiSC-Medium-beed" transform="translate(1004.09375 0)"/>
     <use xlink:href="#STHeitiSC-Medium-498" transform="translate(1104.09375 0)"/>
     <use xlink:href="#STHeitiSC-Medium-672" transform="translate(1204.09375 0)"/>
     <use xlink:href="#STHeitiSC-Medium-2bd" transform="translate(1304.09375 0)"/>
     <use xlink:href="#STHeitiSC-Medium-495" transform="translate(1404.09375 0)"/>
     <use xlink:href="#STHeitiSC-Medium-a0b" transform="translate(1504.09375 0)"/>
    </g>
   </g>
  </g>
 </g>
 <defs>
  <clipPath id="p9fe3a05919">
   <rect x="7.2" y="39.24" width="842.4" height="270.36"/>
  </clipPath>
 </defs>
</svg>
